G04 #@! TF.GenerationSoftware,KiCad,Pcbnew,(6.0.8)*
G04 #@! TF.CreationDate,2022-10-29T11:40:11-07:00*
G04 #@! TF.ProjectId,EasyKVM,45617379-4b56-44d2-9e6b-696361645f70,rev?*
G04 #@! TF.SameCoordinates,Original*
G04 #@! TF.FileFunction,Legend,Top*
G04 #@! TF.FilePolarity,Positive*
%FSLAX46Y46*%
G04 Gerber Fmt 4.6, Leading zero omitted, Abs format (unit mm)*
G04 Created by KiCad (PCBNEW (6.0.8)) date 2022-10-29 11:40:11*
%MOMM*%
%LPD*%
G01*
G04 APERTURE LIST*
G04 Aperture macros list*
%AMRoundRect*
0 Rectangle with rounded corners*
0 $1 Rounding radius*
0 $2 $3 $4 $5 $6 $7 $8 $9 X,Y pos of 4 corners*
0 Add a 4 corners polygon primitive as box body*
4,1,4,$2,$3,$4,$5,$6,$7,$8,$9,$2,$3,0*
0 Add four circle primitives for the rounded corners*
1,1,$1+$1,$2,$3*
1,1,$1+$1,$4,$5*
1,1,$1+$1,$6,$7*
1,1,$1+$1,$8,$9*
0 Add four rect primitives between the rounded corners*
20,1,$1+$1,$2,$3,$4,$5,0*
20,1,$1+$1,$4,$5,$6,$7,0*
20,1,$1+$1,$6,$7,$8,$9,0*
20,1,$1+$1,$8,$9,$2,$3,0*%
G04 Aperture macros list end*
%ADD10C,0.150000*%
%ADD11C,0.254000*%
%ADD12C,0.120000*%
%ADD13C,0.200000*%
%ADD14C,0.100000*%
%ADD15C,0.250000*%
%ADD16RoundRect,0.200000X0.200000X0.275000X-0.200000X0.275000X-0.200000X-0.275000X0.200000X-0.275000X0*%
%ADD17RoundRect,0.200000X-0.275000X0.200000X-0.275000X-0.200000X0.275000X-0.200000X0.275000X0.200000X0*%
%ADD18RoundRect,0.225000X-0.225000X-0.250000X0.225000X-0.250000X0.225000X0.250000X-0.225000X0.250000X0*%
%ADD19R,2.600000X0.300000*%
%ADD20C,4.275000*%
%ADD21C,2.880000*%
%ADD22RoundRect,0.225000X0.225000X0.250000X-0.225000X0.250000X-0.225000X-0.250000X0.225000X-0.250000X0*%
%ADD23RoundRect,0.200000X-0.200000X-0.275000X0.200000X-0.275000X0.200000X0.275000X-0.200000X0.275000X0*%
%ADD24RoundRect,0.225000X-0.250000X0.225000X-0.250000X-0.225000X0.250000X-0.225000X0.250000X0.225000X0*%
%ADD25RoundRect,0.200000X0.275000X-0.200000X0.275000X0.200000X-0.275000X0.200000X-0.275000X-0.200000X0*%
%ADD26R,1.000000X0.700000*%
%ADD27R,0.600000X0.700000*%
%ADD28R,1.350000X0.400000*%
%ADD29R,1.900000X1.200000*%
%ADD30O,1.900000X1.200000*%
%ADD31R,1.900000X1.500000*%
%ADD32C,1.450000*%
%ADD33R,0.700000X0.450000*%
%ADD34R,1.600000X1.500000*%
%ADD35C,1.600000*%
%ADD36C,3.000000*%
%ADD37R,1.500000X1.600000*%
%ADD38RoundRect,0.225000X0.250000X-0.225000X0.250000X0.225000X-0.250000X0.225000X-0.250000X-0.225000X0*%
%ADD39RoundRect,0.150000X-0.587500X-0.150000X0.587500X-0.150000X0.587500X0.150000X-0.587500X0.150000X0*%
%ADD40R,0.600000X0.450000*%
%ADD41R,1.500000X2.000000*%
%ADD42R,3.800000X2.000000*%
%ADD43RoundRect,0.062500X0.062500X-0.350000X0.062500X0.350000X-0.062500X0.350000X-0.062500X-0.350000X0*%
%ADD44RoundRect,0.062500X0.350000X-0.062500X0.350000X0.062500X-0.350000X0.062500X-0.350000X-0.062500X0*%
%ADD45R,2.600000X2.600000*%
%ADD46RoundRect,0.150000X0.587500X0.150000X-0.587500X0.150000X-0.587500X-0.150000X0.587500X-0.150000X0*%
%ADD47R,0.850000X0.300000*%
%ADD48R,0.300000X0.850000*%
%ADD49R,3.200000X3.200000*%
%ADD50RoundRect,0.150000X0.150000X-0.587500X0.150000X0.587500X-0.150000X0.587500X-0.150000X-0.587500X0*%
%ADD51R,1.500000X0.900000*%
%ADD52R,0.900000X1.500000*%
%ADD53R,0.900000X0.900000*%
%ADD54R,1.550000X1.300000*%
%ADD55RoundRect,0.150000X-0.825000X-0.150000X0.825000X-0.150000X0.825000X0.150000X-0.825000X0.150000X0*%
%ADD56RoundRect,0.250000X0.325000X0.650000X-0.325000X0.650000X-0.325000X-0.650000X0.325000X-0.650000X0*%
%ADD57R,1.000000X1.500000*%
%ADD58RoundRect,0.250000X-0.325000X-0.650000X0.325000X-0.650000X0.325000X0.650000X-0.325000X0.650000X0*%
G04 APERTURE END LIST*
D10*
X105085595Y-166178571D02*
X105418928Y-166178571D01*
X105561785Y-166702380D02*
X105085595Y-166702380D01*
X105085595Y-165702380D01*
X105561785Y-165702380D01*
X106418928Y-166702380D02*
X106418928Y-166178571D01*
X106371309Y-166083333D01*
X106276071Y-166035714D01*
X106085595Y-166035714D01*
X105990357Y-166083333D01*
X106418928Y-166654761D02*
X106323690Y-166702380D01*
X106085595Y-166702380D01*
X105990357Y-166654761D01*
X105942738Y-166559523D01*
X105942738Y-166464285D01*
X105990357Y-166369047D01*
X106085595Y-166321428D01*
X106323690Y-166321428D01*
X106418928Y-166273809D01*
X106847500Y-166654761D02*
X106942738Y-166702380D01*
X107133214Y-166702380D01*
X107228452Y-166654761D01*
X107276071Y-166559523D01*
X107276071Y-166511904D01*
X107228452Y-166416666D01*
X107133214Y-166369047D01*
X106990357Y-166369047D01*
X106895119Y-166321428D01*
X106847500Y-166226190D01*
X106847500Y-166178571D01*
X106895119Y-166083333D01*
X106990357Y-166035714D01*
X107133214Y-166035714D01*
X107228452Y-166083333D01*
X107609404Y-166035714D02*
X107847500Y-166702380D01*
X108085595Y-166035714D02*
X107847500Y-166702380D01*
X107752261Y-166940476D01*
X107704642Y-166988095D01*
X107609404Y-167035714D01*
X109228452Y-166702380D02*
X109228452Y-165702380D01*
X109799880Y-166702380D02*
X109371309Y-166130952D01*
X109799880Y-165702380D02*
X109228452Y-166273809D01*
X110085595Y-165702380D02*
X110418928Y-166702380D01*
X110752261Y-165702380D01*
X111085595Y-166702380D02*
X111085595Y-165702380D01*
X111418928Y-166416666D01*
X111752261Y-165702380D01*
X111752261Y-166702380D01*
X113561785Y-166702380D02*
X113228452Y-166226190D01*
X112990357Y-166702380D02*
X112990357Y-165702380D01*
X113371309Y-165702380D01*
X113466547Y-165750000D01*
X113514166Y-165797619D01*
X113561785Y-165892857D01*
X113561785Y-166035714D01*
X113514166Y-166130952D01*
X113466547Y-166178571D01*
X113371309Y-166226190D01*
X112990357Y-166226190D01*
X114514166Y-166702380D02*
X113942738Y-166702380D01*
X114228452Y-166702380D02*
X114228452Y-165702380D01*
X114133214Y-165845238D01*
X114037976Y-165940476D01*
X113942738Y-165988095D01*
X114942738Y-166607142D02*
X114990357Y-166654761D01*
X114942738Y-166702380D01*
X114895119Y-166654761D01*
X114942738Y-166607142D01*
X114942738Y-166702380D01*
X115609404Y-165702380D02*
X115704642Y-165702380D01*
X115799880Y-165750000D01*
X115847500Y-165797619D01*
X115895119Y-165892857D01*
X115942738Y-166083333D01*
X115942738Y-166321428D01*
X115895119Y-166511904D01*
X115847500Y-166607142D01*
X115799880Y-166654761D01*
X115704642Y-166702380D01*
X115609404Y-166702380D01*
X115514166Y-166654761D01*
X115466547Y-166607142D01*
X115418928Y-166511904D01*
X115371309Y-166321428D01*
X115371309Y-166083333D01*
X115418928Y-165892857D01*
X115466547Y-165797619D01*
X115514166Y-165750000D01*
X115609404Y-165702380D01*
X162007142Y-124262380D02*
X161673809Y-123786190D01*
X161435714Y-124262380D02*
X161435714Y-123262380D01*
X161816666Y-123262380D01*
X161911904Y-123310000D01*
X161959523Y-123357619D01*
X162007142Y-123452857D01*
X162007142Y-123595714D01*
X161959523Y-123690952D01*
X161911904Y-123738571D01*
X161816666Y-123786190D01*
X161435714Y-123786190D01*
X162388095Y-123357619D02*
X162435714Y-123310000D01*
X162530952Y-123262380D01*
X162769047Y-123262380D01*
X162864285Y-123310000D01*
X162911904Y-123357619D01*
X162959523Y-123452857D01*
X162959523Y-123548095D01*
X162911904Y-123690952D01*
X162340476Y-124262380D01*
X162959523Y-124262380D01*
X163340476Y-123357619D02*
X163388095Y-123310000D01*
X163483333Y-123262380D01*
X163721428Y-123262380D01*
X163816666Y-123310000D01*
X163864285Y-123357619D01*
X163911904Y-123452857D01*
X163911904Y-123548095D01*
X163864285Y-123690952D01*
X163292857Y-124262380D01*
X163911904Y-124262380D01*
X144632380Y-124592857D02*
X144156190Y-124926190D01*
X144632380Y-125164285D02*
X143632380Y-125164285D01*
X143632380Y-124783333D01*
X143680000Y-124688095D01*
X143727619Y-124640476D01*
X143822857Y-124592857D01*
X143965714Y-124592857D01*
X144060952Y-124640476D01*
X144108571Y-124688095D01*
X144156190Y-124783333D01*
X144156190Y-125164285D01*
X143632380Y-124259523D02*
X143632380Y-123640476D01*
X144013333Y-123973809D01*
X144013333Y-123830952D01*
X144060952Y-123735714D01*
X144108571Y-123688095D01*
X144203809Y-123640476D01*
X144441904Y-123640476D01*
X144537142Y-123688095D01*
X144584761Y-123735714D01*
X144632380Y-123830952D01*
X144632380Y-124116666D01*
X144584761Y-124211904D01*
X144537142Y-124259523D01*
X144632380Y-122688095D02*
X144632380Y-123259523D01*
X144632380Y-122973809D02*
X143632380Y-122973809D01*
X143775238Y-123069047D01*
X143870476Y-123164285D01*
X143918095Y-123259523D01*
X159057142Y-139857142D02*
X159009523Y-139904761D01*
X158866666Y-139952380D01*
X158771428Y-139952380D01*
X158628571Y-139904761D01*
X158533333Y-139809523D01*
X158485714Y-139714285D01*
X158438095Y-139523809D01*
X158438095Y-139380952D01*
X158485714Y-139190476D01*
X158533333Y-139095238D01*
X158628571Y-139000000D01*
X158771428Y-138952380D01*
X158866666Y-138952380D01*
X159009523Y-139000000D01*
X159057142Y-139047619D01*
X159438095Y-139047619D02*
X159485714Y-139000000D01*
X159580952Y-138952380D01*
X159819047Y-138952380D01*
X159914285Y-139000000D01*
X159961904Y-139047619D01*
X160009523Y-139142857D01*
X160009523Y-139238095D01*
X159961904Y-139380952D01*
X159390476Y-139952380D01*
X160009523Y-139952380D01*
X160914285Y-138952380D02*
X160438095Y-138952380D01*
X160390476Y-139428571D01*
X160438095Y-139380952D01*
X160533333Y-139333333D01*
X160771428Y-139333333D01*
X160866666Y-139380952D01*
X160914285Y-139428571D01*
X160961904Y-139523809D01*
X160961904Y-139761904D01*
X160914285Y-139857142D01*
X160866666Y-139904761D01*
X160771428Y-139952380D01*
X160533333Y-139952380D01*
X160438095Y-139904761D01*
X160390476Y-139857142D01*
D11*
X99996523Y-124903333D02*
X100903666Y-124903333D01*
X101085095Y-124963809D01*
X101206047Y-125084761D01*
X101266523Y-125266190D01*
X101266523Y-125387142D01*
X100540809Y-124117142D02*
X100480333Y-124238095D01*
X100419857Y-124298571D01*
X100298904Y-124359047D01*
X100238428Y-124359047D01*
X100117476Y-124298571D01*
X100057000Y-124238095D01*
X99996523Y-124117142D01*
X99996523Y-123875238D01*
X100057000Y-123754285D01*
X100117476Y-123693809D01*
X100238428Y-123633333D01*
X100298904Y-123633333D01*
X100419857Y-123693809D01*
X100480333Y-123754285D01*
X100540809Y-123875238D01*
X100540809Y-124117142D01*
X100601285Y-124238095D01*
X100661761Y-124298571D01*
X100782714Y-124359047D01*
X101024619Y-124359047D01*
X101145571Y-124298571D01*
X101206047Y-124238095D01*
X101266523Y-124117142D01*
X101266523Y-123875238D01*
X101206047Y-123754285D01*
X101145571Y-123693809D01*
X101024619Y-123633333D01*
X100782714Y-123633333D01*
X100661761Y-123693809D01*
X100601285Y-123754285D01*
X100540809Y-123875238D01*
D10*
X163077142Y-159682380D02*
X162743809Y-159206190D01*
X162505714Y-159682380D02*
X162505714Y-158682380D01*
X162886666Y-158682380D01*
X162981904Y-158730000D01*
X163029523Y-158777619D01*
X163077142Y-158872857D01*
X163077142Y-159015714D01*
X163029523Y-159110952D01*
X162981904Y-159158571D01*
X162886666Y-159206190D01*
X162505714Y-159206190D01*
X163410476Y-158682380D02*
X164029523Y-158682380D01*
X163696190Y-159063333D01*
X163839047Y-159063333D01*
X163934285Y-159110952D01*
X163981904Y-159158571D01*
X164029523Y-159253809D01*
X164029523Y-159491904D01*
X163981904Y-159587142D01*
X163934285Y-159634761D01*
X163839047Y-159682380D01*
X163553333Y-159682380D01*
X163458095Y-159634761D01*
X163410476Y-159587142D01*
X164934285Y-158682380D02*
X164458095Y-158682380D01*
X164410476Y-159158571D01*
X164458095Y-159110952D01*
X164553333Y-159063333D01*
X164791428Y-159063333D01*
X164886666Y-159110952D01*
X164934285Y-159158571D01*
X164981904Y-159253809D01*
X164981904Y-159491904D01*
X164934285Y-159587142D01*
X164886666Y-159634761D01*
X164791428Y-159682380D01*
X164553333Y-159682380D01*
X164458095Y-159634761D01*
X164410476Y-159587142D01*
X144472722Y-156357142D02*
X144425103Y-156404761D01*
X144282246Y-156452380D01*
X144187008Y-156452380D01*
X144044151Y-156404761D01*
X143948913Y-156309523D01*
X143901294Y-156214285D01*
X143853675Y-156023809D01*
X143853675Y-155880952D01*
X143901294Y-155690476D01*
X143948913Y-155595238D01*
X144044151Y-155500000D01*
X144187008Y-155452380D01*
X144282246Y-155452380D01*
X144425103Y-155500000D01*
X144472722Y-155547619D01*
X144853675Y-155547619D02*
X144901294Y-155500000D01*
X144996532Y-155452380D01*
X145234627Y-155452380D01*
X145329865Y-155500000D01*
X145377484Y-155547619D01*
X145425103Y-155642857D01*
X145425103Y-155738095D01*
X145377484Y-155880952D01*
X144806056Y-156452380D01*
X145425103Y-156452380D01*
X146282246Y-155452380D02*
X146091770Y-155452380D01*
X145996532Y-155500000D01*
X145948913Y-155547619D01*
X145853675Y-155690476D01*
X145806056Y-155880952D01*
X145806056Y-156261904D01*
X145853675Y-156357142D01*
X145901294Y-156404761D01*
X145996532Y-156452380D01*
X146187008Y-156452380D01*
X146282246Y-156404761D01*
X146329865Y-156357142D01*
X146377484Y-156261904D01*
X146377484Y-156023809D01*
X146329865Y-155928571D01*
X146282246Y-155880952D01*
X146187008Y-155833333D01*
X145996532Y-155833333D01*
X145901294Y-155880952D01*
X145853675Y-155928571D01*
X145806056Y-156023809D01*
X145153333Y-105492380D02*
X144820000Y-105016190D01*
X144581904Y-105492380D02*
X144581904Y-104492380D01*
X144962857Y-104492380D01*
X145058095Y-104540000D01*
X145105714Y-104587619D01*
X145153333Y-104682857D01*
X145153333Y-104825714D01*
X145105714Y-104920952D01*
X145058095Y-104968571D01*
X144962857Y-105016190D01*
X144581904Y-105016190D01*
X145724761Y-104920952D02*
X145629523Y-104873333D01*
X145581904Y-104825714D01*
X145534285Y-104730476D01*
X145534285Y-104682857D01*
X145581904Y-104587619D01*
X145629523Y-104540000D01*
X145724761Y-104492380D01*
X145915238Y-104492380D01*
X146010476Y-104540000D01*
X146058095Y-104587619D01*
X146105714Y-104682857D01*
X146105714Y-104730476D01*
X146058095Y-104825714D01*
X146010476Y-104873333D01*
X145915238Y-104920952D01*
X145724761Y-104920952D01*
X145629523Y-104968571D01*
X145581904Y-105016190D01*
X145534285Y-105111428D01*
X145534285Y-105301904D01*
X145581904Y-105397142D01*
X145629523Y-105444761D01*
X145724761Y-105492380D01*
X145915238Y-105492380D01*
X146010476Y-105444761D01*
X146058095Y-105397142D01*
X146105714Y-105301904D01*
X146105714Y-105111428D01*
X146058095Y-105016190D01*
X146010476Y-104968571D01*
X145915238Y-104920952D01*
X137287142Y-133946666D02*
X137334761Y-133994285D01*
X137382380Y-134137142D01*
X137382380Y-134232380D01*
X137334761Y-134375238D01*
X137239523Y-134470476D01*
X137144285Y-134518095D01*
X136953809Y-134565714D01*
X136810952Y-134565714D01*
X136620476Y-134518095D01*
X136525238Y-134470476D01*
X136430000Y-134375238D01*
X136382380Y-134232380D01*
X136382380Y-134137142D01*
X136430000Y-133994285D01*
X136477619Y-133946666D01*
X136715714Y-133089523D02*
X137382380Y-133089523D01*
X136334761Y-133327619D02*
X137049047Y-133565714D01*
X137049047Y-132946666D01*
X143883333Y-142737142D02*
X143835714Y-142784761D01*
X143692857Y-142832380D01*
X143597619Y-142832380D01*
X143454761Y-142784761D01*
X143359523Y-142689523D01*
X143311904Y-142594285D01*
X143264285Y-142403809D01*
X143264285Y-142260952D01*
X143311904Y-142070476D01*
X143359523Y-141975238D01*
X143454761Y-141880000D01*
X143597619Y-141832380D01*
X143692857Y-141832380D01*
X143835714Y-141880000D01*
X143883333Y-141927619D01*
X144835714Y-142832380D02*
X144264285Y-142832380D01*
X144550000Y-142832380D02*
X144550000Y-141832380D01*
X144454761Y-141975238D01*
X144359523Y-142070476D01*
X144264285Y-142118095D01*
X111022380Y-121717857D02*
X110546190Y-122051190D01*
X111022380Y-122289285D02*
X110022380Y-122289285D01*
X110022380Y-121908333D01*
X110070000Y-121813095D01*
X110117619Y-121765476D01*
X110212857Y-121717857D01*
X110355714Y-121717857D01*
X110450952Y-121765476D01*
X110498571Y-121813095D01*
X110546190Y-121908333D01*
X110546190Y-122289285D01*
X110117619Y-121336904D02*
X110070000Y-121289285D01*
X110022380Y-121194047D01*
X110022380Y-120955952D01*
X110070000Y-120860714D01*
X110117619Y-120813095D01*
X110212857Y-120765476D01*
X110308095Y-120765476D01*
X110450952Y-120813095D01*
X111022380Y-121384523D01*
X111022380Y-120765476D01*
X110022380Y-120432142D02*
X110022380Y-119765476D01*
X111022380Y-120194047D01*
X156872380Y-132041904D02*
X157681904Y-132041904D01*
X157777142Y-131994285D01*
X157824761Y-131946666D01*
X157872380Y-131851428D01*
X157872380Y-131660952D01*
X157824761Y-131565714D01*
X157777142Y-131518095D01*
X157681904Y-131470476D01*
X156872380Y-131470476D01*
X157872380Y-130470476D02*
X157872380Y-131041904D01*
X157872380Y-130756190D02*
X156872380Y-130756190D01*
X157015238Y-130851428D01*
X157110476Y-130946666D01*
X157158095Y-131041904D01*
X105913333Y-110142380D02*
X105580000Y-109666190D01*
X105341904Y-110142380D02*
X105341904Y-109142380D01*
X105722857Y-109142380D01*
X105818095Y-109190000D01*
X105865714Y-109237619D01*
X105913333Y-109332857D01*
X105913333Y-109475714D01*
X105865714Y-109570952D01*
X105818095Y-109618571D01*
X105722857Y-109666190D01*
X105341904Y-109666190D01*
X106246666Y-109142380D02*
X106865714Y-109142380D01*
X106532380Y-109523333D01*
X106675238Y-109523333D01*
X106770476Y-109570952D01*
X106818095Y-109618571D01*
X106865714Y-109713809D01*
X106865714Y-109951904D01*
X106818095Y-110047142D01*
X106770476Y-110094761D01*
X106675238Y-110142380D01*
X106389523Y-110142380D01*
X106294285Y-110094761D01*
X106246666Y-110047142D01*
X162569880Y-130833333D02*
X163284166Y-130833333D01*
X163427023Y-130880952D01*
X163522261Y-130976190D01*
X163569880Y-131119047D01*
X163569880Y-131214285D01*
X162569880Y-130452380D02*
X162569880Y-129785714D01*
X163569880Y-130214285D01*
D11*
X99996523Y-151852833D02*
X100903666Y-151852833D01*
X101085095Y-151913309D01*
X101206047Y-152034261D01*
X101266523Y-152215690D01*
X101266523Y-152336642D01*
X99996523Y-150703785D02*
X99996523Y-150945690D01*
X100057000Y-151066642D01*
X100117476Y-151127119D01*
X100298904Y-151248071D01*
X100540809Y-151308547D01*
X101024619Y-151308547D01*
X101145571Y-151248071D01*
X101206047Y-151187595D01*
X101266523Y-151066642D01*
X101266523Y-150824738D01*
X101206047Y-150703785D01*
X101145571Y-150643309D01*
X101024619Y-150582833D01*
X100722238Y-150582833D01*
X100601285Y-150643309D01*
X100540809Y-150703785D01*
X100480333Y-150824738D01*
X100480333Y-151066642D01*
X100540809Y-151187595D01*
X100601285Y-151248071D01*
X100722238Y-151308547D01*
D10*
X105933333Y-107402380D02*
X105600000Y-106926190D01*
X105361904Y-107402380D02*
X105361904Y-106402380D01*
X105742857Y-106402380D01*
X105838095Y-106450000D01*
X105885714Y-106497619D01*
X105933333Y-106592857D01*
X105933333Y-106735714D01*
X105885714Y-106830952D01*
X105838095Y-106878571D01*
X105742857Y-106926190D01*
X105361904Y-106926190D01*
X106314285Y-106497619D02*
X106361904Y-106450000D01*
X106457142Y-106402380D01*
X106695238Y-106402380D01*
X106790476Y-106450000D01*
X106838095Y-106497619D01*
X106885714Y-106592857D01*
X106885714Y-106688095D01*
X106838095Y-106830952D01*
X106266666Y-107402380D01*
X106885714Y-107402380D01*
X99314880Y-103883333D02*
X100029166Y-103883333D01*
X100172023Y-103930952D01*
X100267261Y-104026190D01*
X100314880Y-104169047D01*
X100314880Y-104264285D01*
X99648214Y-102978571D02*
X100314880Y-102978571D01*
X99267261Y-103216666D02*
X99981547Y-103454761D01*
X99981547Y-102835714D01*
X116724761Y-133107619D02*
X116629523Y-133060000D01*
X116534285Y-132964761D01*
X116391428Y-132821904D01*
X116296190Y-132774285D01*
X116200952Y-132774285D01*
X116248571Y-133012380D02*
X116153333Y-132964761D01*
X116058095Y-132869523D01*
X116010476Y-132679047D01*
X116010476Y-132345714D01*
X116058095Y-132155238D01*
X116153333Y-132060000D01*
X116248571Y-132012380D01*
X116439047Y-132012380D01*
X116534285Y-132060000D01*
X116629523Y-132155238D01*
X116677142Y-132345714D01*
X116677142Y-132679047D01*
X116629523Y-132869523D01*
X116534285Y-132964761D01*
X116439047Y-133012380D01*
X116248571Y-133012380D01*
X117534285Y-132345714D02*
X117534285Y-133012380D01*
X117296190Y-131964761D02*
X117058095Y-132679047D01*
X117677142Y-132679047D01*
X131086666Y-151042380D02*
X131086666Y-151756666D01*
X131039047Y-151899523D01*
X130943809Y-151994761D01*
X130800952Y-152042380D01*
X130705714Y-152042380D01*
X131610476Y-152042380D02*
X131800952Y-152042380D01*
X131896190Y-151994761D01*
X131943809Y-151947142D01*
X132039047Y-151804285D01*
X132086666Y-151613809D01*
X132086666Y-151232857D01*
X132039047Y-151137619D01*
X131991428Y-151090000D01*
X131896190Y-151042380D01*
X131705714Y-151042380D01*
X131610476Y-151090000D01*
X131562857Y-151137619D01*
X131515238Y-151232857D01*
X131515238Y-151470952D01*
X131562857Y-151566190D01*
X131610476Y-151613809D01*
X131705714Y-151661428D01*
X131896190Y-151661428D01*
X131991428Y-151613809D01*
X132039047Y-151566190D01*
X132086666Y-151470952D01*
X151602380Y-146733333D02*
X152316666Y-146733333D01*
X152459523Y-146780952D01*
X152554761Y-146876190D01*
X152602380Y-147019047D01*
X152602380Y-147114285D01*
X152602380Y-145733333D02*
X152602380Y-146304761D01*
X152602380Y-146019047D02*
X151602380Y-146019047D01*
X151745238Y-146114285D01*
X151840476Y-146209523D01*
X151888095Y-146304761D01*
X156627142Y-101647142D02*
X156579523Y-101694761D01*
X156436666Y-101742380D01*
X156341428Y-101742380D01*
X156198571Y-101694761D01*
X156103333Y-101599523D01*
X156055714Y-101504285D01*
X156008095Y-101313809D01*
X156008095Y-101170952D01*
X156055714Y-100980476D01*
X156103333Y-100885238D01*
X156198571Y-100790000D01*
X156341428Y-100742380D01*
X156436666Y-100742380D01*
X156579523Y-100790000D01*
X156627142Y-100837619D01*
X157579523Y-101742380D02*
X157008095Y-101742380D01*
X157293809Y-101742380D02*
X157293809Y-100742380D01*
X157198571Y-100885238D01*
X157103333Y-100980476D01*
X157008095Y-101028095D01*
X158531904Y-101742380D02*
X157960476Y-101742380D01*
X158246190Y-101742380D02*
X158246190Y-100742380D01*
X158150952Y-100885238D01*
X158055714Y-100980476D01*
X157960476Y-101028095D01*
X147612142Y-124442277D02*
X147659761Y-124489896D01*
X147707380Y-124632753D01*
X147707380Y-124727991D01*
X147659761Y-124870848D01*
X147564523Y-124966086D01*
X147469285Y-125013705D01*
X147278809Y-125061324D01*
X147135952Y-125061324D01*
X146945476Y-125013705D01*
X146850238Y-124966086D01*
X146755000Y-124870848D01*
X146707380Y-124727991D01*
X146707380Y-124632753D01*
X146755000Y-124489896D01*
X146802619Y-124442277D01*
X146802619Y-124061324D02*
X146755000Y-124013705D01*
X146707380Y-123918467D01*
X146707380Y-123680372D01*
X146755000Y-123585134D01*
X146802619Y-123537515D01*
X146897857Y-123489896D01*
X146993095Y-123489896D01*
X147135952Y-123537515D01*
X147707380Y-124108943D01*
X147707380Y-123489896D01*
X146707380Y-123156562D02*
X146707380Y-122489896D01*
X147707380Y-122918467D01*
X138082380Y-101672857D02*
X137606190Y-102006190D01*
X138082380Y-102244285D02*
X137082380Y-102244285D01*
X137082380Y-101863333D01*
X137130000Y-101768095D01*
X137177619Y-101720476D01*
X137272857Y-101672857D01*
X137415714Y-101672857D01*
X137510952Y-101720476D01*
X137558571Y-101768095D01*
X137606190Y-101863333D01*
X137606190Y-102244285D01*
X137082380Y-101339523D02*
X137082380Y-100720476D01*
X137463333Y-101053809D01*
X137463333Y-100910952D01*
X137510952Y-100815714D01*
X137558571Y-100768095D01*
X137653809Y-100720476D01*
X137891904Y-100720476D01*
X137987142Y-100768095D01*
X138034761Y-100815714D01*
X138082380Y-100910952D01*
X138082380Y-101196666D01*
X138034761Y-101291904D01*
X137987142Y-101339523D01*
X137082380Y-100387142D02*
X137082380Y-99768095D01*
X137463333Y-100101428D01*
X137463333Y-99958571D01*
X137510952Y-99863333D01*
X137558571Y-99815714D01*
X137653809Y-99768095D01*
X137891904Y-99768095D01*
X137987142Y-99815714D01*
X138034761Y-99863333D01*
X138082380Y-99958571D01*
X138082380Y-100244285D01*
X138034761Y-100339523D01*
X137987142Y-100387142D01*
X110217142Y-101307142D02*
X110169523Y-101354761D01*
X110026666Y-101402380D01*
X109931428Y-101402380D01*
X109788571Y-101354761D01*
X109693333Y-101259523D01*
X109645714Y-101164285D01*
X109598095Y-100973809D01*
X109598095Y-100830952D01*
X109645714Y-100640476D01*
X109693333Y-100545238D01*
X109788571Y-100450000D01*
X109931428Y-100402380D01*
X110026666Y-100402380D01*
X110169523Y-100450000D01*
X110217142Y-100497619D01*
X110598095Y-100497619D02*
X110645714Y-100450000D01*
X110740952Y-100402380D01*
X110979047Y-100402380D01*
X111074285Y-100450000D01*
X111121904Y-100497619D01*
X111169523Y-100592857D01*
X111169523Y-100688095D01*
X111121904Y-100830952D01*
X110550476Y-101402380D01*
X111169523Y-101402380D01*
X111645714Y-101402380D02*
X111836190Y-101402380D01*
X111931428Y-101354761D01*
X111979047Y-101307142D01*
X112074285Y-101164285D01*
X112121904Y-100973809D01*
X112121904Y-100592857D01*
X112074285Y-100497619D01*
X112026666Y-100450000D01*
X111931428Y-100402380D01*
X111740952Y-100402380D01*
X111645714Y-100450000D01*
X111598095Y-100497619D01*
X111550476Y-100592857D01*
X111550476Y-100830952D01*
X111598095Y-100926190D01*
X111645714Y-100973809D01*
X111740952Y-101021428D01*
X111931428Y-101021428D01*
X112026666Y-100973809D01*
X112074285Y-100926190D01*
X112121904Y-100830952D01*
X154163333Y-105422380D02*
X153830000Y-104946190D01*
X153591904Y-105422380D02*
X153591904Y-104422380D01*
X153972857Y-104422380D01*
X154068095Y-104470000D01*
X154115714Y-104517619D01*
X154163333Y-104612857D01*
X154163333Y-104755714D01*
X154115714Y-104850952D01*
X154068095Y-104898571D01*
X153972857Y-104946190D01*
X153591904Y-104946190D01*
X154496666Y-104422380D02*
X155163333Y-104422380D01*
X154734761Y-105422380D01*
X111183333Y-107462380D02*
X110850000Y-106986190D01*
X110611904Y-107462380D02*
X110611904Y-106462380D01*
X110992857Y-106462380D01*
X111088095Y-106510000D01*
X111135714Y-106557619D01*
X111183333Y-106652857D01*
X111183333Y-106795714D01*
X111135714Y-106890952D01*
X111088095Y-106938571D01*
X110992857Y-106986190D01*
X110611904Y-106986190D01*
X112040476Y-106795714D02*
X112040476Y-107462380D01*
X111802380Y-106414761D02*
X111564285Y-107129047D01*
X112183333Y-107129047D01*
X146772380Y-152381904D02*
X147581904Y-152381904D01*
X147677142Y-152334285D01*
X147724761Y-152286666D01*
X147772380Y-152191428D01*
X147772380Y-152000952D01*
X147724761Y-151905714D01*
X147677142Y-151858095D01*
X147581904Y-151810476D01*
X146772380Y-151810476D01*
X146772380Y-151429523D02*
X146772380Y-150810476D01*
X147153333Y-151143809D01*
X147153333Y-151000952D01*
X147200952Y-150905714D01*
X147248571Y-150858095D01*
X147343809Y-150810476D01*
X147581904Y-150810476D01*
X147677142Y-150858095D01*
X147724761Y-150905714D01*
X147772380Y-151000952D01*
X147772380Y-151286666D01*
X147724761Y-151381904D01*
X147677142Y-151429523D01*
X141314761Y-122897619D02*
X141219523Y-122850000D01*
X141124285Y-122754761D01*
X140981428Y-122611904D01*
X140886190Y-122564285D01*
X140790952Y-122564285D01*
X140838571Y-122802380D02*
X140743333Y-122754761D01*
X140648095Y-122659523D01*
X140600476Y-122469047D01*
X140600476Y-122135714D01*
X140648095Y-121945238D01*
X140743333Y-121850000D01*
X140838571Y-121802380D01*
X141029047Y-121802380D01*
X141124285Y-121850000D01*
X141219523Y-121945238D01*
X141267142Y-122135714D01*
X141267142Y-122469047D01*
X141219523Y-122659523D01*
X141124285Y-122754761D01*
X141029047Y-122802380D01*
X140838571Y-122802380D01*
X142219523Y-122802380D02*
X141648095Y-122802380D01*
X141933809Y-122802380D02*
X141933809Y-121802380D01*
X141838571Y-121945238D01*
X141743333Y-122040476D01*
X141648095Y-122088095D01*
X163337142Y-166432380D02*
X163003809Y-165956190D01*
X162765714Y-166432380D02*
X162765714Y-165432380D01*
X163146666Y-165432380D01*
X163241904Y-165480000D01*
X163289523Y-165527619D01*
X163337142Y-165622857D01*
X163337142Y-165765714D01*
X163289523Y-165860952D01*
X163241904Y-165908571D01*
X163146666Y-165956190D01*
X162765714Y-165956190D01*
X163670476Y-165432380D02*
X164289523Y-165432380D01*
X163956190Y-165813333D01*
X164099047Y-165813333D01*
X164194285Y-165860952D01*
X164241904Y-165908571D01*
X164289523Y-166003809D01*
X164289523Y-166241904D01*
X164241904Y-166337142D01*
X164194285Y-166384761D01*
X164099047Y-166432380D01*
X163813333Y-166432380D01*
X163718095Y-166384761D01*
X163670476Y-166337142D01*
X165146666Y-165432380D02*
X164956190Y-165432380D01*
X164860952Y-165480000D01*
X164813333Y-165527619D01*
X164718095Y-165670476D01*
X164670476Y-165860952D01*
X164670476Y-166241904D01*
X164718095Y-166337142D01*
X164765714Y-166384761D01*
X164860952Y-166432380D01*
X165051428Y-166432380D01*
X165146666Y-166384761D01*
X165194285Y-166337142D01*
X165241904Y-166241904D01*
X165241904Y-166003809D01*
X165194285Y-165908571D01*
X165146666Y-165860952D01*
X165051428Y-165813333D01*
X164860952Y-165813333D01*
X164765714Y-165860952D01*
X164718095Y-165908571D01*
X164670476Y-166003809D01*
X131867142Y-121442380D02*
X131533809Y-120966190D01*
X131295714Y-121442380D02*
X131295714Y-120442380D01*
X131676666Y-120442380D01*
X131771904Y-120490000D01*
X131819523Y-120537619D01*
X131867142Y-120632857D01*
X131867142Y-120775714D01*
X131819523Y-120870952D01*
X131771904Y-120918571D01*
X131676666Y-120966190D01*
X131295714Y-120966190D01*
X132200476Y-120442380D02*
X132819523Y-120442380D01*
X132486190Y-120823333D01*
X132629047Y-120823333D01*
X132724285Y-120870952D01*
X132771904Y-120918571D01*
X132819523Y-121013809D01*
X132819523Y-121251904D01*
X132771904Y-121347142D01*
X132724285Y-121394761D01*
X132629047Y-121442380D01*
X132343333Y-121442380D01*
X132248095Y-121394761D01*
X132200476Y-121347142D01*
X133200476Y-120537619D02*
X133248095Y-120490000D01*
X133343333Y-120442380D01*
X133581428Y-120442380D01*
X133676666Y-120490000D01*
X133724285Y-120537619D01*
X133771904Y-120632857D01*
X133771904Y-120728095D01*
X133724285Y-120870952D01*
X133152857Y-121442380D01*
X133771904Y-121442380D01*
X158736904Y-136752380D02*
X158736904Y-135752380D01*
X158975000Y-135752380D01*
X159117857Y-135800000D01*
X159213095Y-135895238D01*
X159260714Y-135990476D01*
X159308333Y-136180952D01*
X159308333Y-136323809D01*
X159260714Y-136514285D01*
X159213095Y-136609523D01*
X159117857Y-136704761D01*
X158975000Y-136752380D01*
X158736904Y-136752380D01*
X159689285Y-135847619D02*
X159736904Y-135800000D01*
X159832142Y-135752380D01*
X160070238Y-135752380D01*
X160165476Y-135800000D01*
X160213095Y-135847619D01*
X160260714Y-135942857D01*
X160260714Y-136038095D01*
X160213095Y-136180952D01*
X159641666Y-136752380D01*
X160260714Y-136752380D01*
X159002380Y-114351904D02*
X159811904Y-114351904D01*
X159907142Y-114304285D01*
X159954761Y-114256666D01*
X160002380Y-114161428D01*
X160002380Y-113970952D01*
X159954761Y-113875714D01*
X159907142Y-113828095D01*
X159811904Y-113780476D01*
X159002380Y-113780476D01*
X160002380Y-113256666D02*
X160002380Y-113066190D01*
X159954761Y-112970952D01*
X159907142Y-112923333D01*
X159764285Y-112828095D01*
X159573809Y-112780476D01*
X159192857Y-112780476D01*
X159097619Y-112828095D01*
X159050000Y-112875714D01*
X159002380Y-112970952D01*
X159002380Y-113161428D01*
X159050000Y-113256666D01*
X159097619Y-113304285D01*
X159192857Y-113351904D01*
X159430952Y-113351904D01*
X159526190Y-113304285D01*
X159573809Y-113256666D01*
X159621428Y-113161428D01*
X159621428Y-112970952D01*
X159573809Y-112875714D01*
X159526190Y-112828095D01*
X159430952Y-112780476D01*
X158557142Y-165277857D02*
X158604761Y-165325476D01*
X158652380Y-165468333D01*
X158652380Y-165563571D01*
X158604761Y-165706428D01*
X158509523Y-165801666D01*
X158414285Y-165849285D01*
X158223809Y-165896904D01*
X158080952Y-165896904D01*
X157890476Y-165849285D01*
X157795238Y-165801666D01*
X157700000Y-165706428D01*
X157652380Y-165563571D01*
X157652380Y-165468333D01*
X157700000Y-165325476D01*
X157747619Y-165277857D01*
X157652380Y-164944523D02*
X157652380Y-164325476D01*
X158033333Y-164658809D01*
X158033333Y-164515952D01*
X158080952Y-164420714D01*
X158128571Y-164373095D01*
X158223809Y-164325476D01*
X158461904Y-164325476D01*
X158557142Y-164373095D01*
X158604761Y-164420714D01*
X158652380Y-164515952D01*
X158652380Y-164801666D01*
X158604761Y-164896904D01*
X158557142Y-164944523D01*
X157652380Y-163706428D02*
X157652380Y-163611190D01*
X157700000Y-163515952D01*
X157747619Y-163468333D01*
X157842857Y-163420714D01*
X158033333Y-163373095D01*
X158271428Y-163373095D01*
X158461904Y-163420714D01*
X158557142Y-163468333D01*
X158604761Y-163515952D01*
X158652380Y-163611190D01*
X158652380Y-163706428D01*
X158604761Y-163801666D01*
X158557142Y-163849285D01*
X158461904Y-163896904D01*
X158271428Y-163944523D01*
X158033333Y-163944523D01*
X157842857Y-163896904D01*
X157747619Y-163849285D01*
X157700000Y-163801666D01*
X157652380Y-163706428D01*
X163814761Y-163367619D02*
X163719523Y-163320000D01*
X163624285Y-163224761D01*
X163481428Y-163081904D01*
X163386190Y-163034285D01*
X163290952Y-163034285D01*
X163338571Y-163272380D02*
X163243333Y-163224761D01*
X163148095Y-163129523D01*
X163100476Y-162939047D01*
X163100476Y-162605714D01*
X163148095Y-162415238D01*
X163243333Y-162320000D01*
X163338571Y-162272380D01*
X163529047Y-162272380D01*
X163624285Y-162320000D01*
X163719523Y-162415238D01*
X163767142Y-162605714D01*
X163767142Y-162939047D01*
X163719523Y-163129523D01*
X163624285Y-163224761D01*
X163529047Y-163272380D01*
X163338571Y-163272380D01*
X164671904Y-162272380D02*
X164195714Y-162272380D01*
X164148095Y-162748571D01*
X164195714Y-162700952D01*
X164290952Y-162653333D01*
X164529047Y-162653333D01*
X164624285Y-162700952D01*
X164671904Y-162748571D01*
X164719523Y-162843809D01*
X164719523Y-163081904D01*
X164671904Y-163177142D01*
X164624285Y-163224761D01*
X164529047Y-163272380D01*
X164290952Y-163272380D01*
X164195714Y-163224761D01*
X164148095Y-163177142D01*
X116724761Y-128597619D02*
X116629523Y-128550000D01*
X116534285Y-128454761D01*
X116391428Y-128311904D01*
X116296190Y-128264285D01*
X116200952Y-128264285D01*
X116248571Y-128502380D02*
X116153333Y-128454761D01*
X116058095Y-128359523D01*
X116010476Y-128169047D01*
X116010476Y-127835714D01*
X116058095Y-127645238D01*
X116153333Y-127550000D01*
X116248571Y-127502380D01*
X116439047Y-127502380D01*
X116534285Y-127550000D01*
X116629523Y-127645238D01*
X116677142Y-127835714D01*
X116677142Y-128169047D01*
X116629523Y-128359523D01*
X116534285Y-128454761D01*
X116439047Y-128502380D01*
X116248571Y-128502380D01*
X117010476Y-127502380D02*
X117629523Y-127502380D01*
X117296190Y-127883333D01*
X117439047Y-127883333D01*
X117534285Y-127930952D01*
X117581904Y-127978571D01*
X117629523Y-128073809D01*
X117629523Y-128311904D01*
X117581904Y-128407142D01*
X117534285Y-128454761D01*
X117439047Y-128502380D01*
X117153333Y-128502380D01*
X117058095Y-128454761D01*
X117010476Y-128407142D01*
X114152380Y-148977857D02*
X113676190Y-149311190D01*
X114152380Y-149549285D02*
X113152380Y-149549285D01*
X113152380Y-149168333D01*
X113200000Y-149073095D01*
X113247619Y-149025476D01*
X113342857Y-148977857D01*
X113485714Y-148977857D01*
X113580952Y-149025476D01*
X113628571Y-149073095D01*
X113676190Y-149168333D01*
X113676190Y-149549285D01*
X113247619Y-148596904D02*
X113200000Y-148549285D01*
X113152380Y-148454047D01*
X113152380Y-148215952D01*
X113200000Y-148120714D01*
X113247619Y-148073095D01*
X113342857Y-148025476D01*
X113438095Y-148025476D01*
X113580952Y-148073095D01*
X114152380Y-148644523D01*
X114152380Y-148025476D01*
X113580952Y-147454047D02*
X113533333Y-147549285D01*
X113485714Y-147596904D01*
X113390476Y-147644523D01*
X113342857Y-147644523D01*
X113247619Y-147596904D01*
X113200000Y-147549285D01*
X113152380Y-147454047D01*
X113152380Y-147263571D01*
X113200000Y-147168333D01*
X113247619Y-147120714D01*
X113342857Y-147073095D01*
X113390476Y-147073095D01*
X113485714Y-147120714D01*
X113533333Y-147168333D01*
X113580952Y-147263571D01*
X113580952Y-147454047D01*
X113628571Y-147549285D01*
X113676190Y-147596904D01*
X113771428Y-147644523D01*
X113961904Y-147644523D01*
X114057142Y-147596904D01*
X114104761Y-147549285D01*
X114152380Y-147454047D01*
X114152380Y-147263571D01*
X114104761Y-147168333D01*
X114057142Y-147120714D01*
X113961904Y-147073095D01*
X113771428Y-147073095D01*
X113676190Y-147120714D01*
X113628571Y-147168333D01*
X113580952Y-147263571D01*
X162552380Y-107523333D02*
X163266666Y-107523333D01*
X163409523Y-107570952D01*
X163504761Y-107666190D01*
X163552380Y-107809047D01*
X163552380Y-107904285D01*
X162552380Y-106570952D02*
X162552380Y-107047142D01*
X163028571Y-107094761D01*
X162980952Y-107047142D01*
X162933333Y-106951904D01*
X162933333Y-106713809D01*
X162980952Y-106618571D01*
X163028571Y-106570952D01*
X163123809Y-106523333D01*
X163361904Y-106523333D01*
X163457142Y-106570952D01*
X163504761Y-106618571D01*
X163552380Y-106713809D01*
X163552380Y-106951904D01*
X163504761Y-107047142D01*
X163457142Y-107094761D01*
X111123333Y-110132380D02*
X110790000Y-109656190D01*
X110551904Y-110132380D02*
X110551904Y-109132380D01*
X110932857Y-109132380D01*
X111028095Y-109180000D01*
X111075714Y-109227619D01*
X111123333Y-109322857D01*
X111123333Y-109465714D01*
X111075714Y-109560952D01*
X111028095Y-109608571D01*
X110932857Y-109656190D01*
X110551904Y-109656190D01*
X112028095Y-109132380D02*
X111551904Y-109132380D01*
X111504285Y-109608571D01*
X111551904Y-109560952D01*
X111647142Y-109513333D01*
X111885238Y-109513333D01*
X111980476Y-109560952D01*
X112028095Y-109608571D01*
X112075714Y-109703809D01*
X112075714Y-109941904D01*
X112028095Y-110037142D01*
X111980476Y-110084761D01*
X111885238Y-110132380D01*
X111647142Y-110132380D01*
X111551904Y-110084761D01*
X111504285Y-110037142D01*
X125833333Y-129177142D02*
X125785714Y-129224761D01*
X125642857Y-129272380D01*
X125547619Y-129272380D01*
X125404761Y-129224761D01*
X125309523Y-129129523D01*
X125261904Y-129034285D01*
X125214285Y-128843809D01*
X125214285Y-128700952D01*
X125261904Y-128510476D01*
X125309523Y-128415238D01*
X125404761Y-128320000D01*
X125547619Y-128272380D01*
X125642857Y-128272380D01*
X125785714Y-128320000D01*
X125833333Y-128367619D01*
X126166666Y-128272380D02*
X126785714Y-128272380D01*
X126452380Y-128653333D01*
X126595238Y-128653333D01*
X126690476Y-128700952D01*
X126738095Y-128748571D01*
X126785714Y-128843809D01*
X126785714Y-129081904D01*
X126738095Y-129177142D01*
X126690476Y-129224761D01*
X126595238Y-129272380D01*
X126309523Y-129272380D01*
X126214285Y-129224761D01*
X126166666Y-129177142D01*
X162451904Y-122302380D02*
X162451904Y-121302380D01*
X162690000Y-121302380D01*
X162832857Y-121350000D01*
X162928095Y-121445238D01*
X162975714Y-121540476D01*
X163023333Y-121730952D01*
X163023333Y-121873809D01*
X162975714Y-122064285D01*
X162928095Y-122159523D01*
X162832857Y-122254761D01*
X162690000Y-122302380D01*
X162451904Y-122302380D01*
X163975714Y-122302380D02*
X163404285Y-122302380D01*
X163690000Y-122302380D02*
X163690000Y-121302380D01*
X163594761Y-121445238D01*
X163499523Y-121540476D01*
X163404285Y-121588095D01*
X142992380Y-102947857D02*
X142516190Y-103281190D01*
X142992380Y-103519285D02*
X141992380Y-103519285D01*
X141992380Y-103138333D01*
X142040000Y-103043095D01*
X142087619Y-102995476D01*
X142182857Y-102947857D01*
X142325714Y-102947857D01*
X142420952Y-102995476D01*
X142468571Y-103043095D01*
X142516190Y-103138333D01*
X142516190Y-103519285D01*
X142087619Y-102566904D02*
X142040000Y-102519285D01*
X141992380Y-102424047D01*
X141992380Y-102185952D01*
X142040000Y-102090714D01*
X142087619Y-102043095D01*
X142182857Y-101995476D01*
X142278095Y-101995476D01*
X142420952Y-102043095D01*
X142992380Y-102614523D01*
X142992380Y-101995476D01*
X141992380Y-101138333D02*
X141992380Y-101328809D01*
X142040000Y-101424047D01*
X142087619Y-101471666D01*
X142230476Y-101566904D01*
X142420952Y-101614523D01*
X142801904Y-101614523D01*
X142897142Y-101566904D01*
X142944761Y-101519285D01*
X142992380Y-101424047D01*
X142992380Y-101233571D01*
X142944761Y-101138333D01*
X142897142Y-101090714D01*
X142801904Y-101043095D01*
X142563809Y-101043095D01*
X142468571Y-101090714D01*
X142420952Y-101138333D01*
X142373333Y-101233571D01*
X142373333Y-101424047D01*
X142420952Y-101519285D01*
X142468571Y-101566904D01*
X142563809Y-101614523D01*
X145152380Y-102241904D02*
X145961904Y-102241904D01*
X146057142Y-102194285D01*
X146104761Y-102146666D01*
X146152380Y-102051428D01*
X146152380Y-101860952D01*
X146104761Y-101765714D01*
X146057142Y-101718095D01*
X145961904Y-101670476D01*
X145152380Y-101670476D01*
X145152380Y-100718095D02*
X145152380Y-101194285D01*
X145628571Y-101241904D01*
X145580952Y-101194285D01*
X145533333Y-101099047D01*
X145533333Y-100860952D01*
X145580952Y-100765714D01*
X145628571Y-100718095D01*
X145723809Y-100670476D01*
X145961904Y-100670476D01*
X146057142Y-100718095D01*
X146104761Y-100765714D01*
X146152380Y-100860952D01*
X146152380Y-101099047D01*
X146104761Y-101194285D01*
X146057142Y-101241904D01*
X101761904Y-106102380D02*
X101761904Y-105102380D01*
X102000000Y-105102380D01*
X102142857Y-105150000D01*
X102238095Y-105245238D01*
X102285714Y-105340476D01*
X102333333Y-105530952D01*
X102333333Y-105673809D01*
X102285714Y-105864285D01*
X102238095Y-105959523D01*
X102142857Y-106054761D01*
X102000000Y-106102380D01*
X101761904Y-106102380D01*
X103190476Y-105102380D02*
X103000000Y-105102380D01*
X102904761Y-105150000D01*
X102857142Y-105197619D01*
X102761904Y-105340476D01*
X102714285Y-105530952D01*
X102714285Y-105911904D01*
X102761904Y-106007142D01*
X102809523Y-106054761D01*
X102904761Y-106102380D01*
X103095238Y-106102380D01*
X103190476Y-106054761D01*
X103238095Y-106007142D01*
X103285714Y-105911904D01*
X103285714Y-105673809D01*
X103238095Y-105578571D01*
X103190476Y-105530952D01*
X103095238Y-105483333D01*
X102904761Y-105483333D01*
X102809523Y-105530952D01*
X102761904Y-105578571D01*
X102714285Y-105673809D01*
D11*
X130642380Y-134094523D02*
X130642380Y-135122619D01*
X130702857Y-135243571D01*
X130763333Y-135304047D01*
X130884285Y-135364523D01*
X131126190Y-135364523D01*
X131247142Y-135304047D01*
X131307619Y-135243571D01*
X131368095Y-135122619D01*
X131368095Y-134094523D01*
X132517142Y-134517857D02*
X132517142Y-135364523D01*
X132214761Y-134034047D02*
X131912380Y-134941190D01*
X132698571Y-134941190D01*
D10*
X98664880Y-138768095D02*
X97664880Y-138768095D01*
X97664880Y-138530000D01*
X97712500Y-138387142D01*
X97807738Y-138291904D01*
X97902976Y-138244285D01*
X98093452Y-138196666D01*
X98236309Y-138196666D01*
X98426785Y-138244285D01*
X98522023Y-138291904D01*
X98617261Y-138387142D01*
X98664880Y-138530000D01*
X98664880Y-138768095D01*
X97998214Y-137339523D02*
X98664880Y-137339523D01*
X97617261Y-137577619D02*
X98331547Y-137815714D01*
X98331547Y-137196666D01*
X154887142Y-122692380D02*
X154553809Y-122216190D01*
X154315714Y-122692380D02*
X154315714Y-121692380D01*
X154696666Y-121692380D01*
X154791904Y-121740000D01*
X154839523Y-121787619D01*
X154887142Y-121882857D01*
X154887142Y-122025714D01*
X154839523Y-122120952D01*
X154791904Y-122168571D01*
X154696666Y-122216190D01*
X154315714Y-122216190D01*
X155220476Y-121692380D02*
X155839523Y-121692380D01*
X155506190Y-122073333D01*
X155649047Y-122073333D01*
X155744285Y-122120952D01*
X155791904Y-122168571D01*
X155839523Y-122263809D01*
X155839523Y-122501904D01*
X155791904Y-122597142D01*
X155744285Y-122644761D01*
X155649047Y-122692380D01*
X155363333Y-122692380D01*
X155268095Y-122644761D01*
X155220476Y-122597142D01*
X156696666Y-122025714D02*
X156696666Y-122692380D01*
X156458571Y-121644761D02*
X156220476Y-122359047D01*
X156839523Y-122359047D01*
X126468095Y-119862380D02*
X126468095Y-120671904D01*
X126515714Y-120767142D01*
X126563333Y-120814761D01*
X126658571Y-120862380D01*
X126849047Y-120862380D01*
X126944285Y-120814761D01*
X126991904Y-120767142D01*
X127039523Y-120671904D01*
X127039523Y-119862380D01*
X127944285Y-119862380D02*
X127753809Y-119862380D01*
X127658571Y-119910000D01*
X127610952Y-119957619D01*
X127515714Y-120100476D01*
X127468095Y-120290952D01*
X127468095Y-120671904D01*
X127515714Y-120767142D01*
X127563333Y-120814761D01*
X127658571Y-120862380D01*
X127849047Y-120862380D01*
X127944285Y-120814761D01*
X127991904Y-120767142D01*
X128039523Y-120671904D01*
X128039523Y-120433809D01*
X127991904Y-120338571D01*
X127944285Y-120290952D01*
X127849047Y-120243333D01*
X127658571Y-120243333D01*
X127563333Y-120290952D01*
X127515714Y-120338571D01*
X127468095Y-120433809D01*
X121213095Y-96286666D02*
X121689285Y-96286666D01*
X121117857Y-96572380D02*
X121451190Y-95572380D01*
X121784523Y-96572380D01*
X122117857Y-95905714D02*
X122117857Y-96572380D01*
X122117857Y-96000952D02*
X122165476Y-95953333D01*
X122260714Y-95905714D01*
X122403571Y-95905714D01*
X122498809Y-95953333D01*
X122546428Y-96048571D01*
X122546428Y-96572380D01*
X122879761Y-95905714D02*
X123260714Y-95905714D01*
X123022619Y-95572380D02*
X123022619Y-96429523D01*
X123070238Y-96524761D01*
X123165476Y-96572380D01*
X123260714Y-96572380D01*
X123975000Y-96524761D02*
X123879761Y-96572380D01*
X123689285Y-96572380D01*
X123594047Y-96524761D01*
X123546428Y-96429523D01*
X123546428Y-96048571D01*
X123594047Y-95953333D01*
X123689285Y-95905714D01*
X123879761Y-95905714D01*
X123975000Y-95953333D01*
X124022619Y-96048571D01*
X124022619Y-96143809D01*
X123546428Y-96239047D01*
X124451190Y-95905714D02*
X124451190Y-96572380D01*
X124451190Y-96000952D02*
X124498809Y-95953333D01*
X124594047Y-95905714D01*
X124736904Y-95905714D01*
X124832142Y-95953333D01*
X124879761Y-96048571D01*
X124879761Y-96572380D01*
X125355952Y-95905714D02*
X125355952Y-96572380D01*
X125355952Y-96000952D02*
X125403571Y-95953333D01*
X125498809Y-95905714D01*
X125641666Y-95905714D01*
X125736904Y-95953333D01*
X125784523Y-96048571D01*
X125784523Y-96572380D01*
X126689285Y-96572380D02*
X126689285Y-96048571D01*
X126641666Y-95953333D01*
X126546428Y-95905714D01*
X126355952Y-95905714D01*
X126260714Y-95953333D01*
X126689285Y-96524761D02*
X126594047Y-96572380D01*
X126355952Y-96572380D01*
X126260714Y-96524761D01*
X126213095Y-96429523D01*
X126213095Y-96334285D01*
X126260714Y-96239047D01*
X126355952Y-96191428D01*
X126594047Y-96191428D01*
X126689285Y-96143809D01*
X127879761Y-96286666D02*
X128355952Y-96286666D01*
X127784523Y-96572380D02*
X128117857Y-95572380D01*
X128451190Y-96572380D01*
X128784523Y-96572380D02*
X128784523Y-95905714D01*
X128784523Y-96096190D02*
X128832142Y-96000952D01*
X128879761Y-95953333D01*
X128975000Y-95905714D01*
X129070238Y-95905714D01*
X129784523Y-96524761D02*
X129689285Y-96572380D01*
X129498809Y-96572380D01*
X129403571Y-96524761D01*
X129355952Y-96429523D01*
X129355952Y-96048571D01*
X129403571Y-95953333D01*
X129498809Y-95905714D01*
X129689285Y-95905714D01*
X129784523Y-95953333D01*
X129832142Y-96048571D01*
X129832142Y-96143809D01*
X129355952Y-96239047D01*
X130689285Y-96572380D02*
X130689285Y-96048571D01*
X130641666Y-95953333D01*
X130546428Y-95905714D01*
X130355952Y-95905714D01*
X130260714Y-95953333D01*
X130689285Y-96524761D02*
X130594047Y-96572380D01*
X130355952Y-96572380D01*
X130260714Y-96524761D01*
X130213095Y-96429523D01*
X130213095Y-96334285D01*
X130260714Y-96239047D01*
X130355952Y-96191428D01*
X130594047Y-96191428D01*
X130689285Y-96143809D01*
X143641666Y-167254761D02*
X143784523Y-167302380D01*
X144022619Y-167302380D01*
X144117857Y-167254761D01*
X144165476Y-167207142D01*
X144213095Y-167111904D01*
X144213095Y-167016666D01*
X144165476Y-166921428D01*
X144117857Y-166873809D01*
X144022619Y-166826190D01*
X143832142Y-166778571D01*
X143736904Y-166730952D01*
X143689285Y-166683333D01*
X143641666Y-166588095D01*
X143641666Y-166492857D01*
X143689285Y-166397619D01*
X143736904Y-166350000D01*
X143832142Y-166302380D01*
X144070238Y-166302380D01*
X144213095Y-166350000D01*
X144546428Y-166302380D02*
X144784523Y-167302380D01*
X144975000Y-166588095D01*
X145165476Y-167302380D01*
X145403571Y-166302380D01*
X146308333Y-167302380D02*
X145736904Y-167302380D01*
X146022619Y-167302380D02*
X146022619Y-166302380D01*
X145927380Y-166445238D01*
X145832142Y-166540476D01*
X145736904Y-166588095D01*
X110127142Y-102977142D02*
X110079523Y-103024761D01*
X109936666Y-103072380D01*
X109841428Y-103072380D01*
X109698571Y-103024761D01*
X109603333Y-102929523D01*
X109555714Y-102834285D01*
X109508095Y-102643809D01*
X109508095Y-102500952D01*
X109555714Y-102310476D01*
X109603333Y-102215238D01*
X109698571Y-102120000D01*
X109841428Y-102072380D01*
X109936666Y-102072380D01*
X110079523Y-102120000D01*
X110127142Y-102167619D01*
X110508095Y-102167619D02*
X110555714Y-102120000D01*
X110650952Y-102072380D01*
X110889047Y-102072380D01*
X110984285Y-102120000D01*
X111031904Y-102167619D01*
X111079523Y-102262857D01*
X111079523Y-102358095D01*
X111031904Y-102500952D01*
X110460476Y-103072380D01*
X111079523Y-103072380D01*
X111650952Y-102500952D02*
X111555714Y-102453333D01*
X111508095Y-102405714D01*
X111460476Y-102310476D01*
X111460476Y-102262857D01*
X111508095Y-102167619D01*
X111555714Y-102120000D01*
X111650952Y-102072380D01*
X111841428Y-102072380D01*
X111936666Y-102120000D01*
X111984285Y-102167619D01*
X112031904Y-102262857D01*
X112031904Y-102310476D01*
X111984285Y-102405714D01*
X111936666Y-102453333D01*
X111841428Y-102500952D01*
X111650952Y-102500952D01*
X111555714Y-102548571D01*
X111508095Y-102596190D01*
X111460476Y-102691428D01*
X111460476Y-102881904D01*
X111508095Y-102977142D01*
X111555714Y-103024761D01*
X111650952Y-103072380D01*
X111841428Y-103072380D01*
X111936666Y-103024761D01*
X111984285Y-102977142D01*
X112031904Y-102881904D01*
X112031904Y-102691428D01*
X111984285Y-102596190D01*
X111936666Y-102548571D01*
X111841428Y-102500952D01*
X160961904Y-101927380D02*
X160961904Y-100927380D01*
X161200000Y-100927380D01*
X161342857Y-100975000D01*
X161438095Y-101070238D01*
X161485714Y-101165476D01*
X161533333Y-101355952D01*
X161533333Y-101498809D01*
X161485714Y-101689285D01*
X161438095Y-101784523D01*
X161342857Y-101879761D01*
X161200000Y-101927380D01*
X160961904Y-101927380D01*
X162438095Y-100927380D02*
X161961904Y-100927380D01*
X161914285Y-101403571D01*
X161961904Y-101355952D01*
X162057142Y-101308333D01*
X162295238Y-101308333D01*
X162390476Y-101355952D01*
X162438095Y-101403571D01*
X162485714Y-101498809D01*
X162485714Y-101736904D01*
X162438095Y-101832142D01*
X162390476Y-101879761D01*
X162295238Y-101927380D01*
X162057142Y-101927380D01*
X161961904Y-101879761D01*
X161914285Y-101832142D01*
X111243333Y-104982380D02*
X110910000Y-104506190D01*
X110671904Y-104982380D02*
X110671904Y-103982380D01*
X111052857Y-103982380D01*
X111148095Y-104030000D01*
X111195714Y-104077619D01*
X111243333Y-104172857D01*
X111243333Y-104315714D01*
X111195714Y-104410952D01*
X111148095Y-104458571D01*
X111052857Y-104506190D01*
X110671904Y-104506190D01*
X112195714Y-104982380D02*
X111624285Y-104982380D01*
X111910000Y-104982380D02*
X111910000Y-103982380D01*
X111814761Y-104125238D01*
X111719523Y-104220476D01*
X111624285Y-104268095D01*
X156597142Y-99492380D02*
X156263809Y-99016190D01*
X156025714Y-99492380D02*
X156025714Y-98492380D01*
X156406666Y-98492380D01*
X156501904Y-98540000D01*
X156549523Y-98587619D01*
X156597142Y-98682857D01*
X156597142Y-98825714D01*
X156549523Y-98920952D01*
X156501904Y-98968571D01*
X156406666Y-99016190D01*
X156025714Y-99016190D01*
X157549523Y-99492380D02*
X156978095Y-99492380D01*
X157263809Y-99492380D02*
X157263809Y-98492380D01*
X157168571Y-98635238D01*
X157073333Y-98730476D01*
X156978095Y-98778095D01*
X157882857Y-98492380D02*
X158501904Y-98492380D01*
X158168571Y-98873333D01*
X158311428Y-98873333D01*
X158406666Y-98920952D01*
X158454285Y-98968571D01*
X158501904Y-99063809D01*
X158501904Y-99301904D01*
X158454285Y-99397142D01*
X158406666Y-99444761D01*
X158311428Y-99492380D01*
X158025714Y-99492380D01*
X157930476Y-99444761D01*
X157882857Y-99397142D01*
X141538095Y-150812380D02*
X141538095Y-151621904D01*
X141585714Y-151717142D01*
X141633333Y-151764761D01*
X141728571Y-151812380D01*
X141919047Y-151812380D01*
X142014285Y-151764761D01*
X142061904Y-151717142D01*
X142109523Y-151621904D01*
X142109523Y-150812380D01*
X142538095Y-150907619D02*
X142585714Y-150860000D01*
X142680952Y-150812380D01*
X142919047Y-150812380D01*
X143014285Y-150860000D01*
X143061904Y-150907619D01*
X143109523Y-151002857D01*
X143109523Y-151098095D01*
X143061904Y-151240952D01*
X142490476Y-151812380D01*
X143109523Y-151812380D01*
X141314761Y-113212619D02*
X141219523Y-113165000D01*
X141124285Y-113069761D01*
X140981428Y-112926904D01*
X140886190Y-112879285D01*
X140790952Y-112879285D01*
X140838571Y-113117380D02*
X140743333Y-113069761D01*
X140648095Y-112974523D01*
X140600476Y-112784047D01*
X140600476Y-112450714D01*
X140648095Y-112260238D01*
X140743333Y-112165000D01*
X140838571Y-112117380D01*
X141029047Y-112117380D01*
X141124285Y-112165000D01*
X141219523Y-112260238D01*
X141267142Y-112450714D01*
X141267142Y-112784047D01*
X141219523Y-112974523D01*
X141124285Y-113069761D01*
X141029047Y-113117380D01*
X140838571Y-113117380D01*
X141648095Y-112212619D02*
X141695714Y-112165000D01*
X141790952Y-112117380D01*
X142029047Y-112117380D01*
X142124285Y-112165000D01*
X142171904Y-112212619D01*
X142219523Y-112307857D01*
X142219523Y-112403095D01*
X142171904Y-112545952D01*
X141600476Y-113117380D01*
X142219523Y-113117380D01*
X122007142Y-151197142D02*
X121959523Y-151244761D01*
X121816666Y-151292380D01*
X121721428Y-151292380D01*
X121578571Y-151244761D01*
X121483333Y-151149523D01*
X121435714Y-151054285D01*
X121388095Y-150863809D01*
X121388095Y-150720952D01*
X121435714Y-150530476D01*
X121483333Y-150435238D01*
X121578571Y-150340000D01*
X121721428Y-150292380D01*
X121816666Y-150292380D01*
X121959523Y-150340000D01*
X122007142Y-150387619D01*
X122388095Y-150387619D02*
X122435714Y-150340000D01*
X122530952Y-150292380D01*
X122769047Y-150292380D01*
X122864285Y-150340000D01*
X122911904Y-150387619D01*
X122959523Y-150482857D01*
X122959523Y-150578095D01*
X122911904Y-150720952D01*
X122340476Y-151292380D01*
X122959523Y-151292380D01*
X123911904Y-151292380D02*
X123340476Y-151292380D01*
X123626190Y-151292380D02*
X123626190Y-150292380D01*
X123530952Y-150435238D01*
X123435714Y-150530476D01*
X123340476Y-150578095D01*
X147202380Y-111032857D02*
X146726190Y-111366190D01*
X147202380Y-111604285D02*
X146202380Y-111604285D01*
X146202380Y-111223333D01*
X146250000Y-111128095D01*
X146297619Y-111080476D01*
X146392857Y-111032857D01*
X146535714Y-111032857D01*
X146630952Y-111080476D01*
X146678571Y-111128095D01*
X146726190Y-111223333D01*
X146726190Y-111604285D01*
X146297619Y-110651904D02*
X146250000Y-110604285D01*
X146202380Y-110509047D01*
X146202380Y-110270952D01*
X146250000Y-110175714D01*
X146297619Y-110128095D01*
X146392857Y-110080476D01*
X146488095Y-110080476D01*
X146630952Y-110128095D01*
X147202380Y-110699523D01*
X147202380Y-110080476D01*
X146202380Y-109747142D02*
X146202380Y-109128095D01*
X146583333Y-109461428D01*
X146583333Y-109318571D01*
X146630952Y-109223333D01*
X146678571Y-109175714D01*
X146773809Y-109128095D01*
X147011904Y-109128095D01*
X147107142Y-109175714D01*
X147154761Y-109223333D01*
X147202380Y-109318571D01*
X147202380Y-109604285D01*
X147154761Y-109699523D01*
X147107142Y-109747142D01*
X153371904Y-167702380D02*
X153371904Y-166702380D01*
X153610000Y-166702380D01*
X153752857Y-166750000D01*
X153848095Y-166845238D01*
X153895714Y-166940476D01*
X153943333Y-167130952D01*
X153943333Y-167273809D01*
X153895714Y-167464285D01*
X153848095Y-167559523D01*
X153752857Y-167654761D01*
X153610000Y-167702380D01*
X153371904Y-167702380D01*
X154276666Y-166702380D02*
X154895714Y-166702380D01*
X154562380Y-167083333D01*
X154705238Y-167083333D01*
X154800476Y-167130952D01*
X154848095Y-167178571D01*
X154895714Y-167273809D01*
X154895714Y-167511904D01*
X154848095Y-167607142D01*
X154800476Y-167654761D01*
X154705238Y-167702380D01*
X154419523Y-167702380D01*
X154324285Y-167654761D01*
X154276666Y-167607142D01*
X154887142Y-125467142D02*
X154839523Y-125514761D01*
X154696666Y-125562380D01*
X154601428Y-125562380D01*
X154458571Y-125514761D01*
X154363333Y-125419523D01*
X154315714Y-125324285D01*
X154268095Y-125133809D01*
X154268095Y-124990952D01*
X154315714Y-124800476D01*
X154363333Y-124705238D01*
X154458571Y-124610000D01*
X154601428Y-124562380D01*
X154696666Y-124562380D01*
X154839523Y-124610000D01*
X154887142Y-124657619D01*
X155839523Y-125562380D02*
X155268095Y-125562380D01*
X155553809Y-125562380D02*
X155553809Y-124562380D01*
X155458571Y-124705238D01*
X155363333Y-124800476D01*
X155268095Y-124848095D01*
X156172857Y-124562380D02*
X156839523Y-124562380D01*
X156410952Y-125562380D01*
X133257380Y-149321904D02*
X134066904Y-149321904D01*
X134162142Y-149274285D01*
X134209761Y-149226666D01*
X134257380Y-149131428D01*
X134257380Y-148940952D01*
X134209761Y-148845714D01*
X134162142Y-148798095D01*
X134066904Y-148750476D01*
X133257380Y-148750476D01*
X133257380Y-148369523D02*
X133257380Y-147702857D01*
X134257380Y-148131428D01*
X162107142Y-120007142D02*
X162059523Y-120054761D01*
X161916666Y-120102380D01*
X161821428Y-120102380D01*
X161678571Y-120054761D01*
X161583333Y-119959523D01*
X161535714Y-119864285D01*
X161488095Y-119673809D01*
X161488095Y-119530952D01*
X161535714Y-119340476D01*
X161583333Y-119245238D01*
X161678571Y-119150000D01*
X161821428Y-119102380D01*
X161916666Y-119102380D01*
X162059523Y-119150000D01*
X162107142Y-119197619D01*
X162488095Y-119197619D02*
X162535714Y-119150000D01*
X162630952Y-119102380D01*
X162869047Y-119102380D01*
X162964285Y-119150000D01*
X163011904Y-119197619D01*
X163059523Y-119292857D01*
X163059523Y-119388095D01*
X163011904Y-119530952D01*
X162440476Y-120102380D01*
X163059523Y-120102380D01*
X163678571Y-119102380D02*
X163773809Y-119102380D01*
X163869047Y-119150000D01*
X163916666Y-119197619D01*
X163964285Y-119292857D01*
X164011904Y-119483333D01*
X164011904Y-119721428D01*
X163964285Y-119911904D01*
X163916666Y-120007142D01*
X163869047Y-120054761D01*
X163773809Y-120102380D01*
X163678571Y-120102380D01*
X163583333Y-120054761D01*
X163535714Y-120007142D01*
X163488095Y-119911904D01*
X163440476Y-119721428D01*
X163440476Y-119483333D01*
X163488095Y-119292857D01*
X163535714Y-119197619D01*
X163583333Y-119150000D01*
X163678571Y-119102380D01*
X149557142Y-106266666D02*
X149604761Y-106314285D01*
X149652380Y-106457142D01*
X149652380Y-106552380D01*
X149604761Y-106695238D01*
X149509523Y-106790476D01*
X149414285Y-106838095D01*
X149223809Y-106885714D01*
X149080952Y-106885714D01*
X148890476Y-106838095D01*
X148795238Y-106790476D01*
X148700000Y-106695238D01*
X148652380Y-106552380D01*
X148652380Y-106457142D01*
X148700000Y-106314285D01*
X148747619Y-106266666D01*
X149080952Y-105695238D02*
X149033333Y-105790476D01*
X148985714Y-105838095D01*
X148890476Y-105885714D01*
X148842857Y-105885714D01*
X148747619Y-105838095D01*
X148700000Y-105790476D01*
X148652380Y-105695238D01*
X148652380Y-105504761D01*
X148700000Y-105409523D01*
X148747619Y-105361904D01*
X148842857Y-105314285D01*
X148890476Y-105314285D01*
X148985714Y-105361904D01*
X149033333Y-105409523D01*
X149080952Y-105504761D01*
X149080952Y-105695238D01*
X149128571Y-105790476D01*
X149176190Y-105838095D01*
X149271428Y-105885714D01*
X149461904Y-105885714D01*
X149557142Y-105838095D01*
X149604761Y-105790476D01*
X149652380Y-105695238D01*
X149652380Y-105504761D01*
X149604761Y-105409523D01*
X149557142Y-105361904D01*
X149461904Y-105314285D01*
X149271428Y-105314285D01*
X149176190Y-105361904D01*
X149128571Y-105409523D01*
X149080952Y-105504761D01*
X150408333Y-155427142D02*
X150360714Y-155474761D01*
X150217857Y-155522380D01*
X150122619Y-155522380D01*
X149979761Y-155474761D01*
X149884523Y-155379523D01*
X149836904Y-155284285D01*
X149789285Y-155093809D01*
X149789285Y-154950952D01*
X149836904Y-154760476D01*
X149884523Y-154665238D01*
X149979761Y-154570000D01*
X150122619Y-154522380D01*
X150217857Y-154522380D01*
X150360714Y-154570000D01*
X150408333Y-154617619D01*
X150789285Y-154617619D02*
X150836904Y-154570000D01*
X150932142Y-154522380D01*
X151170238Y-154522380D01*
X151265476Y-154570000D01*
X151313095Y-154617619D01*
X151360714Y-154712857D01*
X151360714Y-154808095D01*
X151313095Y-154950952D01*
X150741666Y-155522380D01*
X151360714Y-155522380D01*
D12*
X165977258Y-124302500D02*
X165502742Y-124302500D01*
X165977258Y-123257500D02*
X165502742Y-123257500D01*
X145087500Y-123702742D02*
X145087500Y-124177258D01*
X146132500Y-123702742D02*
X146132500Y-124177258D01*
X159559420Y-137490000D02*
X159840580Y-137490000D01*
X159559420Y-138510000D02*
X159840580Y-138510000D01*
D13*
X107480000Y-128980000D02*
X107480000Y-128980000D01*
D14*
X94105000Y-116980000D02*
X94105000Y-131980000D01*
D13*
X107280000Y-128980000D02*
X107280000Y-128980000D01*
D14*
X94105000Y-131980000D02*
X96680000Y-131980000D01*
X96680000Y-116980000D02*
X94105000Y-116980000D01*
D13*
X107280000Y-128980000D02*
G75*
G03*
X107480000Y-128980000I100000J0D01*
G01*
X107480000Y-128980000D02*
G75*
G03*
X107280000Y-128980000I-100000J0D01*
G01*
D12*
X164017258Y-161097500D02*
X163542742Y-161097500D01*
X164017258Y-160052500D02*
X163542742Y-160052500D01*
X145115580Y-156990000D02*
X144834420Y-156990000D01*
X145115580Y-158010000D02*
X144834420Y-158010000D01*
X145082742Y-106992500D02*
X145557258Y-106992500D01*
X145082742Y-105947500D02*
X145557258Y-105947500D01*
X136010000Y-133639420D02*
X136010000Y-133920580D01*
X134990000Y-133639420D02*
X134990000Y-133920580D01*
X143909420Y-143300000D02*
X144190580Y-143300000D01*
X143909420Y-144320000D02*
X144190580Y-144320000D01*
X112522500Y-121312258D02*
X112522500Y-120837742D01*
X111477500Y-121312258D02*
X111477500Y-120837742D01*
X158240000Y-130650000D02*
X158240000Y-132650000D01*
X161360000Y-131950000D02*
X161360000Y-130650000D01*
X108867258Y-109027500D02*
X108392742Y-109027500D01*
X108867258Y-110072500D02*
X108392742Y-110072500D01*
X164467500Y-134400000D02*
X164467500Y-133950000D01*
X166317500Y-126600000D02*
X164467500Y-126600000D01*
X168867500Y-134400000D02*
X168617500Y-134400000D01*
X168867500Y-126600000D02*
X168617500Y-126600000D01*
X164467500Y-126600000D02*
X164467500Y-127050000D01*
X163917500Y-132200000D02*
X163917500Y-131750000D01*
X166317500Y-134400000D02*
X164467500Y-134400000D01*
X163917500Y-132200000D02*
X164367500Y-132200000D01*
D14*
X94105000Y-143929500D02*
X94105000Y-158929500D01*
X96680000Y-143929500D02*
X94105000Y-143929500D01*
D13*
X107280000Y-155929500D02*
X107280000Y-155929500D01*
X107480000Y-155929500D02*
X107480000Y-155929500D01*
D14*
X94105000Y-158929500D02*
X96680000Y-158929500D01*
D13*
X107480000Y-155929500D02*
G75*
G03*
X107280000Y-155929500I-100000J0D01*
G01*
X107280000Y-155929500D02*
G75*
G03*
X107480000Y-155929500I100000J0D01*
G01*
D12*
X108392742Y-107432500D02*
X108867258Y-107432500D01*
X108392742Y-106387500D02*
X108867258Y-106387500D01*
X98512500Y-99650000D02*
X98512500Y-100100000D01*
X94112500Y-107450000D02*
X94362500Y-107450000D01*
X96662500Y-99650000D02*
X98512500Y-99650000D01*
X96662500Y-107450000D02*
X98512500Y-107450000D01*
X98512500Y-107450000D02*
X98512500Y-107000000D01*
X94112500Y-99650000D02*
X94362500Y-99650000D01*
X99062500Y-101850000D02*
X98612500Y-101850000D01*
X99062500Y-101850000D02*
X99062500Y-102300000D01*
X116040000Y-131770000D02*
X116040000Y-131110000D01*
X117450000Y-129450000D02*
X116040000Y-129450000D01*
X116040000Y-130110000D02*
X116040000Y-129450000D01*
X116040000Y-131770000D02*
X118070000Y-131770000D01*
X124110000Y-167360000D02*
X124110000Y-167880000D01*
X124110000Y-167880000D02*
X138730000Y-167880000D01*
X124760000Y-152400000D02*
X138080000Y-152400000D01*
X124760000Y-167360000D02*
X124110000Y-167360000D01*
X138730000Y-167360000D02*
X138080000Y-167360000D01*
X138730000Y-167880000D02*
X138730000Y-167360000D01*
X138080000Y-152400000D02*
X138080000Y-155730000D01*
X124760000Y-167360000D02*
X124760000Y-159250000D01*
X127020000Y-152180000D02*
X128820000Y-152180000D01*
X124760000Y-152400000D02*
X124760000Y-155730000D01*
X138080000Y-159250000D02*
X138080000Y-167360000D01*
X153410000Y-158060000D02*
X153410000Y-144740000D01*
X168370000Y-144090000D02*
X168370000Y-144740000D01*
X168370000Y-158060000D02*
X168370000Y-158710000D01*
X153410000Y-158060000D02*
X156740000Y-158060000D01*
X160260000Y-144740000D02*
X168370000Y-144740000D01*
X168370000Y-158710000D02*
X168890000Y-158710000D01*
X168890000Y-158710000D02*
X168890000Y-144090000D01*
X153190000Y-155800000D02*
X153190000Y-154000000D01*
X168890000Y-144090000D02*
X168370000Y-144090000D01*
X153410000Y-144740000D02*
X156740000Y-144740000D01*
X168370000Y-158060000D02*
X160260000Y-158060000D01*
X154189420Y-100780000D02*
X154470580Y-100780000D01*
X154189420Y-101800000D02*
X154470580Y-101800000D01*
X149590000Y-124080580D02*
X149590000Y-123799420D01*
X148570000Y-124080580D02*
X148570000Y-123799420D01*
X139582500Y-101267258D02*
X139582500Y-100792742D01*
X138537500Y-101267258D02*
X138537500Y-100792742D01*
X113980580Y-101400000D02*
X113699420Y-101400000D01*
X113980580Y-100380000D02*
X113699420Y-100380000D01*
X154567258Y-103017500D02*
X154092742Y-103017500D01*
X154567258Y-104062500D02*
X154092742Y-104062500D01*
X113602742Y-107412500D02*
X114077258Y-107412500D01*
X113602742Y-106367500D02*
X114077258Y-106367500D01*
X148140000Y-150990000D02*
X148140000Y-152990000D01*
X151260000Y-152290000D02*
X151260000Y-150990000D01*
X141410000Y-126310000D02*
X140760000Y-126310000D01*
X141410000Y-123190000D02*
X142060000Y-123190000D01*
X141410000Y-123190000D02*
X139735000Y-123190000D01*
X141410000Y-126310000D02*
X142060000Y-126310000D01*
X160832742Y-166462500D02*
X161307258Y-166462500D01*
X160832742Y-165417500D02*
X161307258Y-165417500D01*
X132272742Y-122942500D02*
X132747258Y-122942500D01*
X132272742Y-121897500D02*
X132747258Y-121897500D01*
X158200000Y-135150000D02*
X160750000Y-135150000D01*
X158200000Y-133450000D02*
X158200000Y-135150000D01*
X158200000Y-133450000D02*
X160750000Y-133450000D01*
X160640000Y-117690000D02*
X160640000Y-111680000D01*
X160640000Y-111680000D02*
X161900000Y-111680000D01*
X167460000Y-115440000D02*
X167460000Y-111680000D01*
X167460000Y-111680000D02*
X166200000Y-111680000D01*
X158660000Y-161660580D02*
X158660000Y-161379420D01*
X157640000Y-161660580D02*
X157640000Y-161379420D01*
X160400000Y-164020000D02*
X162430000Y-164020000D01*
X160400000Y-162360000D02*
X160400000Y-161700000D01*
X160400000Y-164020000D02*
X160400000Y-163360000D01*
X161810000Y-161700000D02*
X160400000Y-161700000D01*
X116040000Y-127260000D02*
X116040000Y-126600000D01*
X116040000Y-127260000D02*
X118070000Y-127260000D01*
X116040000Y-125600000D02*
X116040000Y-124940000D01*
X117450000Y-124940000D02*
X116040000Y-124940000D01*
X112612500Y-148622258D02*
X112612500Y-148147742D01*
X111567500Y-148622258D02*
X111567500Y-148147742D01*
X168867500Y-107450000D02*
X168617500Y-107450000D01*
X166317500Y-107450000D02*
X164467500Y-107450000D01*
X168867500Y-99650000D02*
X168617500Y-99650000D01*
X163917500Y-105250000D02*
X164367500Y-105250000D01*
X166317500Y-99650000D02*
X164467500Y-99650000D01*
X164467500Y-107450000D02*
X164467500Y-107000000D01*
X164467500Y-99650000D02*
X164467500Y-100100000D01*
X163917500Y-105250000D02*
X163917500Y-104800000D01*
X113602742Y-109027500D02*
X114077258Y-109027500D01*
X113602742Y-110072500D02*
X114077258Y-110072500D01*
X125859420Y-130760000D02*
X126140580Y-130760000D01*
X125859420Y-129740000D02*
X126140580Y-129740000D01*
X165599420Y-121125000D02*
X165880580Y-121125000D01*
X165599420Y-122145000D02*
X165880580Y-122145000D01*
X141562500Y-102542258D02*
X141562500Y-102067742D01*
X140517500Y-102542258D02*
X140517500Y-102067742D01*
X151110000Y-99845000D02*
X151110000Y-99370000D01*
X151110000Y-99370000D02*
X150635000Y-99370000D01*
X146890000Y-103115000D02*
X146890000Y-103590000D01*
X151110000Y-103115000D02*
X151110000Y-103590000D01*
X146890000Y-99845000D02*
X146890000Y-99370000D01*
X151110000Y-103590000D02*
X150635000Y-103590000D01*
X146890000Y-99370000D02*
X147365000Y-99370000D01*
X102500000Y-104810000D02*
X104175000Y-104810000D01*
X102500000Y-101690000D02*
X103150000Y-101690000D01*
X102500000Y-101690000D02*
X101850000Y-101690000D01*
X102500000Y-104810000D02*
X101850000Y-104810000D01*
D15*
X134500000Y-133000000D02*
G75*
G03*
X134500000Y-133000000I-125000J0D01*
G01*
D12*
X102172500Y-138030000D02*
X102172500Y-137380000D01*
X102172500Y-138030000D02*
X102172500Y-138680000D01*
X99052500Y-138030000D02*
X99052500Y-137380000D01*
X99052500Y-138030000D02*
X99052500Y-139705000D01*
X155292742Y-121262500D02*
X155767258Y-121262500D01*
X155292742Y-120217500D02*
X155767258Y-120217500D01*
X116975000Y-117870000D02*
X116975000Y-118620000D01*
X134975000Y-117870000D02*
X134975000Y-118620000D01*
X116975000Y-93120000D02*
X116975000Y-99870000D01*
X134975000Y-99060000D02*
X116975000Y-99060000D01*
X134975000Y-93120000D02*
X134975000Y-99870000D01*
X116975000Y-118620000D02*
X117975000Y-118620000D01*
X134975000Y-118620000D02*
X133975000Y-118620000D01*
X116975000Y-93120000D02*
X134975000Y-93120000D01*
X141745000Y-166030000D02*
X141745000Y-166000000D01*
X141745000Y-164100000D02*
X141745000Y-161500000D01*
X148205000Y-159570000D02*
X141745000Y-159570000D01*
X141745000Y-159570000D02*
X141745000Y-159600000D01*
X148205000Y-164100000D02*
X148205000Y-161500000D01*
X148205000Y-166000000D02*
X148205000Y-166030000D01*
X148205000Y-159570000D02*
X148205000Y-159600000D01*
X148205000Y-166030000D02*
X141745000Y-166030000D01*
X113980580Y-103150000D02*
X113699420Y-103150000D01*
X113980580Y-102130000D02*
X113699420Y-102130000D01*
X161700000Y-105435000D02*
X162350000Y-105435000D01*
X161700000Y-102315000D02*
X160025000Y-102315000D01*
X161700000Y-102315000D02*
X162350000Y-102315000D01*
X161700000Y-105435000D02*
X161050000Y-105435000D01*
X113602742Y-103997500D02*
X114077258Y-103997500D01*
X113602742Y-105042500D02*
X114077258Y-105042500D01*
X154567258Y-99562500D02*
X154092742Y-99562500D01*
X154567258Y-98517500D02*
X154092742Y-98517500D01*
X142050000Y-145300000D02*
X138600000Y-145300000D01*
X142050000Y-145300000D02*
X144000000Y-145300000D01*
X142050000Y-150420000D02*
X140100000Y-150420000D01*
X142050000Y-150420000D02*
X144000000Y-150420000D01*
X141410000Y-111825000D02*
X143085000Y-111825000D01*
X141410000Y-108705000D02*
X140760000Y-108705000D01*
X141410000Y-111825000D02*
X140760000Y-111825000D01*
X141410000Y-108705000D02*
X142060000Y-108705000D01*
X127161252Y-151560000D02*
X125738748Y-151560000D01*
X127161252Y-149740000D02*
X125738748Y-149740000D01*
X144797500Y-110152742D02*
X144797500Y-110627258D01*
X145842500Y-110152742D02*
X145842500Y-110627258D01*
X156755000Y-159350000D02*
X156755000Y-166650000D01*
X151255000Y-166650000D02*
X152405000Y-166650000D01*
X151255000Y-159350000D02*
X151255000Y-166650000D01*
X155670580Y-124190000D02*
X155389420Y-124190000D01*
X155670580Y-123170000D02*
X155389420Y-123170000D01*
X132985000Y-149190000D02*
X132985000Y-147190000D01*
X129865000Y-147890000D02*
X129865000Y-149190000D01*
X165599420Y-118980000D02*
X165880580Y-118980000D01*
X165599420Y-120000000D02*
X165880580Y-120000000D01*
X151110000Y-105959420D02*
X151110000Y-106240580D01*
X150090000Y-105959420D02*
X150090000Y-106240580D01*
X149863748Y-157880000D02*
X151286252Y-157880000D01*
X149863748Y-156060000D02*
X151286252Y-156060000D01*
%LPC*%
D16*
X166565000Y-123780000D03*
X164915000Y-123780000D03*
D17*
X145610000Y-123115000D03*
X145610000Y-124765000D03*
D18*
X158925000Y-138000000D03*
X160475000Y-138000000D03*
D19*
X105415000Y-128980000D03*
X105415000Y-128480000D03*
X105415000Y-127980000D03*
X105415000Y-127480000D03*
X105415000Y-126980000D03*
X105415000Y-126480000D03*
X105415000Y-125980000D03*
X105415000Y-125480000D03*
X105415000Y-124980000D03*
X105415000Y-124480000D03*
X105415000Y-123980000D03*
X105415000Y-123480000D03*
X105415000Y-122980000D03*
X105415000Y-122480000D03*
X105415000Y-121980000D03*
X105415000Y-121480000D03*
X105415000Y-120980000D03*
X105415000Y-120480000D03*
X105415000Y-119980000D03*
D20*
X104655000Y-117230000D03*
X104655000Y-131730000D03*
D21*
X98695000Y-117230000D03*
X98695000Y-131730000D03*
D16*
X164605000Y-160575000D03*
X162955000Y-160575000D03*
D22*
X145750000Y-157500000D03*
X144200000Y-157500000D03*
D23*
X144495000Y-106470000D03*
X146145000Y-106470000D03*
D24*
X135500000Y-133005000D03*
X135500000Y-134555000D03*
D18*
X143275000Y-143810000D03*
X144825000Y-143810000D03*
D25*
X112000000Y-121900000D03*
X112000000Y-120250000D03*
D26*
X159050000Y-132300000D03*
D27*
X160750000Y-132300000D03*
X160750000Y-130300000D03*
X158850000Y-130300000D03*
D16*
X109455000Y-109550000D03*
X107805000Y-109550000D03*
D28*
X164767500Y-131800000D03*
X164767500Y-131150000D03*
X164767500Y-130500000D03*
X164767500Y-129850000D03*
X164767500Y-129200000D03*
D29*
X167467500Y-133400000D03*
D30*
X167467500Y-134000000D03*
X167467500Y-127000000D03*
D31*
X167467500Y-129500000D03*
X167467500Y-131500000D03*
D32*
X164767500Y-133000000D03*
X164767500Y-128000000D03*
D29*
X167467500Y-127600000D03*
D19*
X105415000Y-155929500D03*
X105415000Y-155429500D03*
X105415000Y-154929500D03*
X105415000Y-154429500D03*
X105415000Y-153929500D03*
X105415000Y-153429500D03*
X105415000Y-152929500D03*
X105415000Y-152429500D03*
X105415000Y-151929500D03*
X105415000Y-151429500D03*
X105415000Y-150929500D03*
X105415000Y-150429500D03*
X105415000Y-149929500D03*
X105415000Y-149429500D03*
X105415000Y-148929500D03*
X105415000Y-148429500D03*
X105415000Y-147929500D03*
X105415000Y-147429500D03*
X105415000Y-146929500D03*
D20*
X104655000Y-144179500D03*
X104655000Y-158679500D03*
D21*
X98695000Y-144179500D03*
X98695000Y-158679500D03*
D23*
X107805000Y-106910000D03*
X109455000Y-106910000D03*
D28*
X98212500Y-102250000D03*
X98212500Y-102900000D03*
X98212500Y-103550000D03*
X98212500Y-104200000D03*
X98212500Y-104850000D03*
D31*
X95512500Y-102550000D03*
D29*
X95512500Y-106450000D03*
D30*
X95512500Y-100050000D03*
D32*
X98212500Y-101050000D03*
D30*
X95512500Y-107050000D03*
D31*
X95512500Y-104550000D03*
D29*
X95512500Y-100650000D03*
D32*
X98212500Y-106050000D03*
D33*
X117770000Y-131260000D03*
X117770000Y-129960000D03*
X115770000Y-130610000D03*
D34*
X127920000Y-154780000D03*
D35*
X130420000Y-154780000D03*
X132420000Y-154780000D03*
X134920000Y-154780000D03*
D36*
X124850000Y-157490000D03*
X137990000Y-157490000D03*
D37*
X155790000Y-154900000D03*
D35*
X155790000Y-152400000D03*
X155790000Y-150400000D03*
X155790000Y-147900000D03*
D36*
X158500000Y-144830000D03*
X158500000Y-157970000D03*
D18*
X153555000Y-101290000D03*
X155105000Y-101290000D03*
D38*
X149080000Y-124715000D03*
X149080000Y-123165000D03*
D25*
X139060000Y-101855000D03*
X139060000Y-100205000D03*
D22*
X114615000Y-100890000D03*
X113065000Y-100890000D03*
D16*
X155155000Y-103540000D03*
X153505000Y-103540000D03*
D23*
X113015000Y-106890000D03*
X114665000Y-106890000D03*
D26*
X148950000Y-152640000D03*
D27*
X150650000Y-152640000D03*
X150650000Y-150640000D03*
X148750000Y-150640000D03*
D39*
X140472500Y-123800000D03*
X140472500Y-125700000D03*
X142347500Y-124750000D03*
D23*
X160245000Y-165940000D03*
X161895000Y-165940000D03*
X131685000Y-122420000D03*
X133335000Y-122420000D03*
D40*
X158650000Y-134300000D03*
X160750000Y-134300000D03*
D41*
X161750000Y-116740000D03*
D42*
X164050000Y-110440000D03*
D41*
X164050000Y-116740000D03*
X166350000Y-116740000D03*
D38*
X158150000Y-162295000D03*
X158150000Y-160745000D03*
D33*
X162130000Y-163510000D03*
X162130000Y-162210000D03*
X160130000Y-162860000D03*
X117770000Y-126750000D03*
X117770000Y-125450000D03*
X115770000Y-126100000D03*
D25*
X112090000Y-149210000D03*
X112090000Y-147560000D03*
D28*
X164767500Y-104850000D03*
X164767500Y-104200000D03*
X164767500Y-103550000D03*
X164767500Y-102900000D03*
X164767500Y-102250000D03*
D30*
X167467500Y-100050000D03*
D31*
X167467500Y-104550000D03*
D32*
X164767500Y-106050000D03*
D30*
X167467500Y-107050000D03*
D32*
X164767500Y-101050000D03*
D29*
X167467500Y-100650000D03*
X167467500Y-106450000D03*
D31*
X167467500Y-102550000D03*
D23*
X113015000Y-109550000D03*
X114665000Y-109550000D03*
D18*
X125225000Y-130250000D03*
X126775000Y-130250000D03*
X164965000Y-121635000D03*
X166515000Y-121635000D03*
D25*
X141040000Y-103130000D03*
X141040000Y-101480000D03*
D43*
X147750000Y-103417500D03*
X148250000Y-103417500D03*
X148750000Y-103417500D03*
X149250000Y-103417500D03*
X149750000Y-103417500D03*
X150250000Y-103417500D03*
D44*
X150937500Y-102730000D03*
X150937500Y-102230000D03*
X150937500Y-101730000D03*
X150937500Y-101230000D03*
X150937500Y-100730000D03*
X150937500Y-100230000D03*
D43*
X150250000Y-99542500D03*
X149750000Y-99542500D03*
X149250000Y-99542500D03*
X148750000Y-99542500D03*
X148250000Y-99542500D03*
X147750000Y-99542500D03*
D44*
X147062500Y-100230000D03*
X147062500Y-100730000D03*
X147062500Y-101230000D03*
X147062500Y-101730000D03*
X147062500Y-102230000D03*
X147062500Y-102730000D03*
D45*
X149000000Y-101480000D03*
D46*
X103437500Y-104200000D03*
X103437500Y-102300000D03*
X101562500Y-103250000D03*
D47*
X133950000Y-132250000D03*
X133950000Y-131750000D03*
X133950000Y-131250000D03*
X133950000Y-130750000D03*
X133950000Y-130250000D03*
X133950000Y-129750000D03*
X133950000Y-129250000D03*
X133950000Y-128750000D03*
D48*
X133250000Y-128050000D03*
X132750000Y-128050000D03*
X132250000Y-128050000D03*
X131750000Y-128050000D03*
X131250000Y-128050000D03*
X130750000Y-128050000D03*
X130250000Y-128050000D03*
X129750000Y-128050000D03*
D47*
X129050000Y-128750000D03*
X129050000Y-129250000D03*
X129050000Y-129750000D03*
X129050000Y-130250000D03*
X129050000Y-130750000D03*
X129050000Y-131250000D03*
X129050000Y-131750000D03*
X129050000Y-132250000D03*
D48*
X129750000Y-132950000D03*
X130250000Y-132950000D03*
X130750000Y-132950000D03*
X131250000Y-132950000D03*
X131750000Y-132950000D03*
X132250000Y-132950000D03*
X132750000Y-132950000D03*
X133250000Y-132950000D03*
D49*
X131500000Y-130500000D03*
D50*
X99662500Y-138967500D03*
X101562500Y-138967500D03*
X100612500Y-137092500D03*
D23*
X154705000Y-120740000D03*
X156355000Y-120740000D03*
D51*
X117225000Y-100610000D03*
X117225000Y-101880000D03*
X117225000Y-103150000D03*
X117225000Y-104420000D03*
X117225000Y-105690000D03*
X117225000Y-106960000D03*
X117225000Y-108230000D03*
X117225000Y-109500000D03*
X117225000Y-110770000D03*
X117225000Y-112040000D03*
X117225000Y-113310000D03*
X117225000Y-114580000D03*
X117225000Y-115850000D03*
X117225000Y-117120000D03*
D52*
X118990000Y-118370000D03*
X120260000Y-118370000D03*
X121530000Y-118370000D03*
X122800000Y-118370000D03*
X124070000Y-118370000D03*
X125340000Y-118370000D03*
X126610000Y-118370000D03*
X127880000Y-118370000D03*
X129150000Y-118370000D03*
X130420000Y-118370000D03*
X131690000Y-118370000D03*
X132960000Y-118370000D03*
D51*
X134725000Y-117120000D03*
X134725000Y-115850000D03*
X134725000Y-114580000D03*
X134725000Y-113310000D03*
X134725000Y-112040000D03*
X134725000Y-110770000D03*
X134725000Y-109500000D03*
X134725000Y-108230000D03*
X134725000Y-106960000D03*
X134725000Y-105690000D03*
X134725000Y-104420000D03*
X134725000Y-103150000D03*
X134725000Y-101880000D03*
X134725000Y-100610000D03*
D53*
X124475000Y-108330000D03*
X124475000Y-106930000D03*
X125875000Y-109730000D03*
X124475000Y-109730000D03*
X123075000Y-108330000D03*
X123075000Y-106930000D03*
X125875000Y-108330000D03*
X123075000Y-109730000D03*
X125875000Y-106930000D03*
D54*
X141000000Y-165050000D03*
X148950000Y-165050000D03*
X148950000Y-160550000D03*
X141000000Y-160550000D03*
D22*
X114615000Y-102640000D03*
X113065000Y-102640000D03*
D39*
X160762500Y-102925000D03*
X160762500Y-104825000D03*
X162637500Y-103875000D03*
D23*
X113015000Y-104520000D03*
X114665000Y-104520000D03*
D16*
X155155000Y-99040000D03*
X153505000Y-99040000D03*
D55*
X139575000Y-145955000D03*
X139575000Y-147225000D03*
X139575000Y-148495000D03*
X139575000Y-149765000D03*
X144525000Y-149765000D03*
X144525000Y-148495000D03*
X144525000Y-147225000D03*
X144525000Y-145955000D03*
D46*
X142347500Y-111215000D03*
X142347500Y-109315000D03*
X140472500Y-110265000D03*
D56*
X127925000Y-150650000D03*
X124975000Y-150650000D03*
D17*
X145320000Y-109565000D03*
X145320000Y-111215000D03*
D57*
X152405000Y-165450000D03*
X155605000Y-165450000D03*
X155605000Y-160550000D03*
X152405000Y-160550000D03*
D22*
X156305000Y-123680000D03*
X154755000Y-123680000D03*
D26*
X132175000Y-147540000D03*
D27*
X130475000Y-147540000D03*
X130475000Y-149540000D03*
X132375000Y-149540000D03*
D18*
X164965000Y-119490000D03*
X166515000Y-119490000D03*
D24*
X150600000Y-105325000D03*
X150600000Y-106875000D03*
D58*
X149100000Y-156970000D03*
X152050000Y-156970000D03*
M02*
