G04 #@! TF.GenerationSoftware,KiCad,Pcbnew,(6.0.8)*
G04 #@! TF.CreationDate,2022-12-11T15:33:22-08:00*
G04 #@! TF.ProjectId,EasyKVM,45617379-4b56-44d2-9e6b-696361645f70,rev?*
G04 #@! TF.SameCoordinates,Original*
G04 #@! TF.FileFunction,Copper,L1,Top*
G04 #@! TF.FilePolarity,Positive*
%FSLAX46Y46*%
G04 Gerber Fmt 4.6, Leading zero omitted, Abs format (unit mm)*
G04 Created by KiCad (PCBNEW (6.0.8)) date 2022-12-11 15:33:22*
%MOMM*%
%LPD*%
G01*
G04 APERTURE LIST*
G04 Aperture macros list*
%AMRoundRect*
0 Rectangle with rounded corners*
0 $1 Rounding radius*
0 $2 $3 $4 $5 $6 $7 $8 $9 X,Y pos of 4 corners*
0 Add a 4 corners polygon primitive as box body*
4,1,4,$2,$3,$4,$5,$6,$7,$8,$9,$2,$3,0*
0 Add four circle primitives for the rounded corners*
1,1,$1+$1,$2,$3*
1,1,$1+$1,$4,$5*
1,1,$1+$1,$6,$7*
1,1,$1+$1,$8,$9*
0 Add four rect primitives between the rounded corners*
20,1,$1+$1,$2,$3,$4,$5,0*
20,1,$1+$1,$4,$5,$6,$7,0*
20,1,$1+$1,$6,$7,$8,$9,0*
20,1,$1+$1,$8,$9,$2,$3,0*%
G04 Aperture macros list end*
G04 #@! TA.AperFunction,SMDPad,CuDef*
%ADD10RoundRect,0.250000X0.650000X-0.325000X0.650000X0.325000X-0.650000X0.325000X-0.650000X-0.325000X0*%
G04 #@! TD*
G04 #@! TA.AperFunction,SMDPad,CuDef*
%ADD11R,0.600000X0.450000*%
G04 #@! TD*
G04 #@! TA.AperFunction,SMDPad,CuDef*
%ADD12RoundRect,0.200000X0.200000X0.275000X-0.200000X0.275000X-0.200000X-0.275000X0.200000X-0.275000X0*%
G04 #@! TD*
G04 #@! TA.AperFunction,SMDPad,CuDef*
%ADD13RoundRect,0.200000X-0.275000X0.200000X-0.275000X-0.200000X0.275000X-0.200000X0.275000X0.200000X0*%
G04 #@! TD*
G04 #@! TA.AperFunction,SMDPad,CuDef*
%ADD14RoundRect,0.093750X0.156250X0.093750X-0.156250X0.093750X-0.156250X-0.093750X0.156250X-0.093750X0*%
G04 #@! TD*
G04 #@! TA.AperFunction,SMDPad,CuDef*
%ADD15RoundRect,0.225000X-0.225000X-0.250000X0.225000X-0.250000X0.225000X0.250000X-0.225000X0.250000X0*%
G04 #@! TD*
G04 #@! TA.AperFunction,SMDPad,CuDef*
%ADD16R,2.600000X0.300000*%
G04 #@! TD*
G04 #@! TA.AperFunction,ComponentPad*
%ADD17C,4.275000*%
G04 #@! TD*
G04 #@! TA.AperFunction,ComponentPad*
%ADD18C,2.880000*%
G04 #@! TD*
G04 #@! TA.AperFunction,SMDPad,CuDef*
%ADD19RoundRect,0.225000X0.225000X0.250000X-0.225000X0.250000X-0.225000X-0.250000X0.225000X-0.250000X0*%
G04 #@! TD*
G04 #@! TA.AperFunction,SMDPad,CuDef*
%ADD20RoundRect,0.093750X-0.156250X-0.093750X0.156250X-0.093750X0.156250X0.093750X-0.156250X0.093750X0*%
G04 #@! TD*
G04 #@! TA.AperFunction,SMDPad,CuDef*
%ADD21RoundRect,0.200000X-0.200000X-0.275000X0.200000X-0.275000X0.200000X0.275000X-0.200000X0.275000X0*%
G04 #@! TD*
G04 #@! TA.AperFunction,SMDPad,CuDef*
%ADD22RoundRect,0.225000X-0.250000X0.225000X-0.250000X-0.225000X0.250000X-0.225000X0.250000X0.225000X0*%
G04 #@! TD*
G04 #@! TA.AperFunction,SMDPad,CuDef*
%ADD23RoundRect,0.200000X0.275000X-0.200000X0.275000X0.200000X-0.275000X0.200000X-0.275000X-0.200000X0*%
G04 #@! TD*
G04 #@! TA.AperFunction,SMDPad,CuDef*
%ADD24R,1.350000X0.400000*%
G04 #@! TD*
G04 #@! TA.AperFunction,SMDPad,CuDef*
%ADD25R,1.900000X1.200000*%
G04 #@! TD*
G04 #@! TA.AperFunction,ComponentPad*
%ADD26O,1.900000X1.200000*%
G04 #@! TD*
G04 #@! TA.AperFunction,SMDPad,CuDef*
%ADD27R,1.900000X1.500000*%
G04 #@! TD*
G04 #@! TA.AperFunction,ComponentPad*
%ADD28C,1.450000*%
G04 #@! TD*
G04 #@! TA.AperFunction,SMDPad,CuDef*
%ADD29R,0.700000X0.450000*%
G04 #@! TD*
G04 #@! TA.AperFunction,ComponentPad*
%ADD30R,1.600000X1.500000*%
G04 #@! TD*
G04 #@! TA.AperFunction,ComponentPad*
%ADD31C,1.600000*%
G04 #@! TD*
G04 #@! TA.AperFunction,ComponentPad*
%ADD32C,3.000000*%
G04 #@! TD*
G04 #@! TA.AperFunction,ComponentPad*
%ADD33R,1.500000X1.600000*%
G04 #@! TD*
G04 #@! TA.AperFunction,SMDPad,CuDef*
%ADD34RoundRect,0.225000X0.250000X-0.225000X0.250000X0.225000X-0.250000X0.225000X-0.250000X-0.225000X0*%
G04 #@! TD*
G04 #@! TA.AperFunction,SMDPad,CuDef*
%ADD35RoundRect,0.150000X-0.587500X-0.150000X0.587500X-0.150000X0.587500X0.150000X-0.587500X0.150000X0*%
G04 #@! TD*
G04 #@! TA.AperFunction,SMDPad,CuDef*
%ADD36R,1.500000X2.000000*%
G04 #@! TD*
G04 #@! TA.AperFunction,SMDPad,CuDef*
%ADD37R,3.800000X2.000000*%
G04 #@! TD*
G04 #@! TA.AperFunction,SMDPad,CuDef*
%ADD38R,0.450000X0.700000*%
G04 #@! TD*
G04 #@! TA.AperFunction,SMDPad,CuDef*
%ADD39RoundRect,0.062500X0.062500X-0.350000X0.062500X0.350000X-0.062500X0.350000X-0.062500X-0.350000X0*%
G04 #@! TD*
G04 #@! TA.AperFunction,SMDPad,CuDef*
%ADD40RoundRect,0.062500X0.350000X-0.062500X0.350000X0.062500X-0.350000X0.062500X-0.350000X-0.062500X0*%
G04 #@! TD*
G04 #@! TA.AperFunction,SMDPad,CuDef*
%ADD41R,2.600000X2.600000*%
G04 #@! TD*
G04 #@! TA.AperFunction,SMDPad,CuDef*
%ADD42R,0.850000X0.300000*%
G04 #@! TD*
G04 #@! TA.AperFunction,SMDPad,CuDef*
%ADD43R,0.300000X0.850000*%
G04 #@! TD*
G04 #@! TA.AperFunction,SMDPad,CuDef*
%ADD44R,3.200000X3.200000*%
G04 #@! TD*
G04 #@! TA.AperFunction,SMDPad,CuDef*
%ADD45RoundRect,0.093750X-0.093750X0.156250X-0.093750X-0.156250X0.093750X-0.156250X0.093750X0.156250X0*%
G04 #@! TD*
G04 #@! TA.AperFunction,SMDPad,CuDef*
%ADD46R,1.500000X0.900000*%
G04 #@! TD*
G04 #@! TA.AperFunction,SMDPad,CuDef*
%ADD47R,0.900000X1.500000*%
G04 #@! TD*
G04 #@! TA.AperFunction,SMDPad,CuDef*
%ADD48R,0.900000X0.900000*%
G04 #@! TD*
G04 #@! TA.AperFunction,SMDPad,CuDef*
%ADD49R,1.550000X1.300000*%
G04 #@! TD*
G04 #@! TA.AperFunction,SMDPad,CuDef*
%ADD50RoundRect,0.150000X-0.825000X-0.150000X0.825000X-0.150000X0.825000X0.150000X-0.825000X0.150000X0*%
G04 #@! TD*
G04 #@! TA.AperFunction,SMDPad,CuDef*
%ADD51RoundRect,0.150000X0.587500X0.150000X-0.587500X0.150000X-0.587500X-0.150000X0.587500X-0.150000X0*%
G04 #@! TD*
G04 #@! TA.AperFunction,SMDPad,CuDef*
%ADD52RoundRect,0.250000X0.325000X0.650000X-0.325000X0.650000X-0.325000X-0.650000X0.325000X-0.650000X0*%
G04 #@! TD*
G04 #@! TA.AperFunction,SMDPad,CuDef*
%ADD53R,1.000000X1.500000*%
G04 #@! TD*
G04 #@! TA.AperFunction,ViaPad*
%ADD54C,0.450000*%
G04 #@! TD*
G04 #@! TA.AperFunction,ViaPad*
%ADD55C,0.800000*%
G04 #@! TD*
G04 #@! TA.AperFunction,ViaPad*
%ADD56C,1.000000*%
G04 #@! TD*
G04 #@! TA.AperFunction,Conductor*
%ADD57C,0.250000*%
G04 #@! TD*
G04 #@! TA.AperFunction,Conductor*
%ADD58C,1.270000*%
G04 #@! TD*
G04 #@! TA.AperFunction,Conductor*
%ADD59C,0.400000*%
G04 #@! TD*
G04 #@! TA.AperFunction,Conductor*
%ADD60C,0.175000*%
G04 #@! TD*
G04 #@! TA.AperFunction,Conductor*
%ADD61C,0.300000*%
G04 #@! TD*
G04 #@! TA.AperFunction,Conductor*
%ADD62C,0.200000*%
G04 #@! TD*
G04 #@! TA.AperFunction,Conductor*
%ADD63C,0.175006*%
G04 #@! TD*
G04 #@! TA.AperFunction,Conductor*
%ADD64C,0.125984*%
G04 #@! TD*
G04 APERTURE END LIST*
D10*
X151500000Y-155610000D03*
X151500000Y-152660000D03*
D11*
X147550000Y-152750000D03*
X145450000Y-152750000D03*
D12*
X166565000Y-126780000D03*
X164915000Y-126780000D03*
D13*
X145610000Y-123115000D03*
X145610000Y-124765000D03*
D14*
X103740000Y-106790000D03*
X103740000Y-106290000D03*
X103740000Y-105790000D03*
X102040000Y-105790000D03*
X102040000Y-106790000D03*
D15*
X158925000Y-139000000D03*
X160475000Y-139000000D03*
D16*
X105415000Y-128980000D03*
X105415000Y-128480000D03*
X105415000Y-127980000D03*
X105415000Y-127480000D03*
X105415000Y-126980000D03*
X105415000Y-126480000D03*
X105415000Y-125980000D03*
X105415000Y-125480000D03*
X105415000Y-124980000D03*
X105415000Y-124480000D03*
X105415000Y-123980000D03*
X105415000Y-123480000D03*
X105415000Y-122980000D03*
X105415000Y-122480000D03*
X105415000Y-121980000D03*
X105415000Y-121480000D03*
X105415000Y-120980000D03*
X105415000Y-120480000D03*
X105415000Y-119980000D03*
D17*
X104655000Y-117230000D03*
X104655000Y-131730000D03*
D18*
X98695000Y-117230000D03*
X98695000Y-131730000D03*
D12*
X164605000Y-157750000D03*
X162955000Y-157750000D03*
D19*
X145750000Y-158500000D03*
X144200000Y-158500000D03*
D20*
X148410000Y-148650000D03*
X148410000Y-149150000D03*
X148410000Y-149650000D03*
X150110000Y-149650000D03*
X150110000Y-148650000D03*
D21*
X144495000Y-106470000D03*
X146145000Y-106470000D03*
D22*
X135500000Y-133005000D03*
X135500000Y-134555000D03*
D20*
X159370000Y-133300000D03*
X159370000Y-133800000D03*
X159370000Y-134300000D03*
X161070000Y-134300000D03*
X161070000Y-133300000D03*
D15*
X142275000Y-143810000D03*
X140725000Y-143810000D03*
D23*
X112000000Y-121900000D03*
X112000000Y-120250000D03*
D12*
X109455000Y-109550000D03*
X107805000Y-109550000D03*
D24*
X164767500Y-134800000D03*
X164767500Y-134150000D03*
X164767500Y-133500000D03*
X164767500Y-132850000D03*
X164767500Y-132200000D03*
D25*
X167467500Y-136400000D03*
D26*
X167467500Y-137000000D03*
X167467500Y-130000000D03*
D27*
X167467500Y-132500000D03*
X167467500Y-134500000D03*
D28*
X164767500Y-136000000D03*
X164767500Y-131000000D03*
D25*
X167467500Y-130600000D03*
D16*
X105415000Y-152929500D03*
X105415000Y-152429500D03*
X105415000Y-151929500D03*
X105415000Y-151429500D03*
X105415000Y-150929500D03*
X105415000Y-150429500D03*
X105415000Y-149929500D03*
X105415000Y-149429500D03*
X105415000Y-148929500D03*
X105415000Y-148429500D03*
X105415000Y-147929500D03*
X105415000Y-147429500D03*
X105415000Y-146929500D03*
X105415000Y-146429500D03*
X105415000Y-145929500D03*
X105415000Y-145429500D03*
X105415000Y-144929500D03*
X105415000Y-144429500D03*
X105415000Y-143929500D03*
D17*
X104655000Y-141179500D03*
X104655000Y-155679500D03*
D18*
X98695000Y-141179500D03*
X98695000Y-155679500D03*
D21*
X107805000Y-106910000D03*
X109455000Y-106910000D03*
D24*
X98212500Y-105250000D03*
X98212500Y-105900000D03*
X98212500Y-106550000D03*
X98212500Y-107200000D03*
X98212500Y-107850000D03*
D27*
X95512500Y-105550000D03*
D25*
X95512500Y-109450000D03*
D26*
X95512500Y-103050000D03*
D28*
X98212500Y-104050000D03*
D26*
X95512500Y-110050000D03*
D27*
X95512500Y-107550000D03*
D25*
X95512500Y-103650000D03*
D28*
X98212500Y-109050000D03*
D29*
X117770000Y-131260000D03*
X117770000Y-129960000D03*
X115770000Y-130610000D03*
D20*
X160860000Y-106375000D03*
X160860000Y-106875000D03*
X160860000Y-107375000D03*
X162560000Y-107375000D03*
X162560000Y-106375000D03*
D30*
X127920000Y-154780000D03*
D31*
X130420000Y-154780000D03*
X132420000Y-154780000D03*
X134920000Y-154780000D03*
D32*
X124850000Y-157490000D03*
X137990000Y-157490000D03*
D33*
X155780000Y-152660000D03*
D31*
X155780000Y-150160000D03*
X155780000Y-148160000D03*
X155780000Y-145660000D03*
D32*
X158490000Y-142590000D03*
X158490000Y-155730000D03*
D15*
X153555000Y-101290000D03*
X155105000Y-101290000D03*
D34*
X149080000Y-124715000D03*
X149080000Y-123165000D03*
D23*
X139060000Y-101855000D03*
X139060000Y-100205000D03*
D19*
X114615000Y-100890000D03*
X113065000Y-100890000D03*
D12*
X155155000Y-103540000D03*
X153505000Y-103540000D03*
D21*
X113015000Y-106890000D03*
X114665000Y-106890000D03*
D35*
X140472500Y-123800000D03*
X140472500Y-125700000D03*
X142347500Y-124750000D03*
D12*
X159825000Y-166000000D03*
X158175000Y-166000000D03*
D21*
X131685000Y-122420000D03*
X133335000Y-122420000D03*
D11*
X158650000Y-137300000D03*
X160750000Y-137300000D03*
D36*
X161750000Y-119740000D03*
D37*
X164050000Y-113440000D03*
D36*
X164050000Y-119740000D03*
X166350000Y-119740000D03*
D34*
X158150000Y-160785000D03*
X158150000Y-159235000D03*
D38*
X158350000Y-164250000D03*
X159650000Y-164250000D03*
X159000000Y-162250000D03*
D29*
X117770000Y-126750000D03*
X117770000Y-125450000D03*
X115770000Y-126100000D03*
D23*
X112090000Y-146210000D03*
X112090000Y-144560000D03*
D24*
X164767500Y-107850000D03*
X164767500Y-107200000D03*
X164767500Y-106550000D03*
X164767500Y-105900000D03*
X164767500Y-105250000D03*
D26*
X167467500Y-103050000D03*
D27*
X167467500Y-107550000D03*
D28*
X164767500Y-109050000D03*
D26*
X167467500Y-110050000D03*
D28*
X164767500Y-104050000D03*
D25*
X167467500Y-103650000D03*
X167467500Y-109450000D03*
D27*
X167467500Y-105550000D03*
D21*
X113015000Y-109550000D03*
X114665000Y-109550000D03*
D15*
X125225000Y-130250000D03*
X126775000Y-130250000D03*
X164965000Y-124635000D03*
X166515000Y-124635000D03*
D23*
X141040000Y-103130000D03*
X141040000Y-101480000D03*
D39*
X147750000Y-103417500D03*
X148250000Y-103417500D03*
X148750000Y-103417500D03*
X149250000Y-103417500D03*
X149750000Y-103417500D03*
X150250000Y-103417500D03*
D40*
X150937500Y-102730000D03*
X150937500Y-102230000D03*
X150937500Y-101730000D03*
X150937500Y-101230000D03*
X150937500Y-100730000D03*
X150937500Y-100230000D03*
D39*
X150250000Y-99542500D03*
X149750000Y-99542500D03*
X149250000Y-99542500D03*
X148750000Y-99542500D03*
X148250000Y-99542500D03*
X147750000Y-99542500D03*
D40*
X147062500Y-100230000D03*
X147062500Y-100730000D03*
X147062500Y-101230000D03*
X147062500Y-101730000D03*
X147062500Y-102230000D03*
X147062500Y-102730000D03*
D41*
X149000000Y-101480000D03*
D42*
X133950000Y-132250000D03*
X133950000Y-131750000D03*
X133950000Y-131250000D03*
X133950000Y-130750000D03*
X133950000Y-130250000D03*
X133950000Y-129750000D03*
X133950000Y-129250000D03*
X133950000Y-128750000D03*
D43*
X133250000Y-128050000D03*
X132750000Y-128050000D03*
X132250000Y-128050000D03*
X131750000Y-128050000D03*
X131250000Y-128050000D03*
X130750000Y-128050000D03*
X130250000Y-128050000D03*
X129750000Y-128050000D03*
D42*
X129050000Y-128750000D03*
X129050000Y-129250000D03*
X129050000Y-129750000D03*
X129050000Y-130250000D03*
X129050000Y-130750000D03*
X129050000Y-131250000D03*
X129050000Y-131750000D03*
X129050000Y-132250000D03*
D43*
X129750000Y-132950000D03*
X130250000Y-132950000D03*
X130750000Y-132950000D03*
X131250000Y-132950000D03*
X131750000Y-132950000D03*
X132250000Y-132950000D03*
X132750000Y-132950000D03*
X133250000Y-132950000D03*
D44*
X131500000Y-130500000D03*
D45*
X131950000Y-148140000D03*
X131450000Y-148140000D03*
X130950000Y-148140000D03*
X130950000Y-149840000D03*
X131950000Y-149840000D03*
D21*
X154705000Y-123740000D03*
X156355000Y-123740000D03*
D46*
X117225000Y-100610000D03*
X117225000Y-101880000D03*
X117225000Y-103150000D03*
X117225000Y-104420000D03*
X117225000Y-105690000D03*
X117225000Y-106960000D03*
X117225000Y-108230000D03*
X117225000Y-109500000D03*
X117225000Y-110770000D03*
X117225000Y-112040000D03*
X117225000Y-113310000D03*
X117225000Y-114580000D03*
X117225000Y-115850000D03*
X117225000Y-117120000D03*
D47*
X118990000Y-118370000D03*
X120260000Y-118370000D03*
X121530000Y-118370000D03*
X122800000Y-118370000D03*
X124070000Y-118370000D03*
X125340000Y-118370000D03*
X126610000Y-118370000D03*
X127880000Y-118370000D03*
X129150000Y-118370000D03*
X130420000Y-118370000D03*
X131690000Y-118370000D03*
X132960000Y-118370000D03*
D46*
X134725000Y-117120000D03*
X134725000Y-115850000D03*
X134725000Y-114580000D03*
X134725000Y-113310000D03*
X134725000Y-112040000D03*
X134725000Y-110770000D03*
X134725000Y-109500000D03*
X134725000Y-108230000D03*
X134725000Y-106960000D03*
X134725000Y-105690000D03*
X134725000Y-104420000D03*
X134725000Y-103150000D03*
X134725000Y-101880000D03*
X134725000Y-100610000D03*
D48*
X124475000Y-108330000D03*
X124475000Y-106930000D03*
X125875000Y-109730000D03*
X124475000Y-109730000D03*
X123075000Y-108330000D03*
X123075000Y-106930000D03*
X125875000Y-108330000D03*
X123075000Y-109730000D03*
X125875000Y-106930000D03*
D49*
X141000000Y-165050000D03*
X148950000Y-165050000D03*
X148950000Y-160550000D03*
X141000000Y-160550000D03*
D19*
X114615000Y-102640000D03*
X113065000Y-102640000D03*
D21*
X113015000Y-104520000D03*
X114665000Y-104520000D03*
D12*
X155155000Y-99040000D03*
X153505000Y-99040000D03*
D50*
X137525000Y-145955000D03*
X137525000Y-147225000D03*
X137525000Y-148495000D03*
X137525000Y-149765000D03*
X142475000Y-149765000D03*
X142475000Y-148495000D03*
X142475000Y-147225000D03*
X142475000Y-145955000D03*
D51*
X142347500Y-111215000D03*
X142347500Y-109315000D03*
X140472500Y-110265000D03*
D52*
X127925000Y-150650000D03*
X124975000Y-150650000D03*
D13*
X145320000Y-109565000D03*
X145320000Y-111215000D03*
D14*
X102470000Y-136954750D03*
X102470000Y-136454750D03*
X102470000Y-135954750D03*
X100770000Y-135954750D03*
X100770000Y-136954750D03*
D53*
X152405000Y-165450000D03*
X155605000Y-165450000D03*
X155605000Y-160550000D03*
X152405000Y-160550000D03*
D19*
X156305000Y-126680000D03*
X154755000Y-126680000D03*
D15*
X164965000Y-122490000D03*
X166515000Y-122490000D03*
D22*
X150600000Y-105325000D03*
X150600000Y-106875000D03*
D54*
X157250000Y-165250000D03*
X159750000Y-163000000D03*
X134875000Y-122345000D03*
D55*
X118500000Y-128000000D03*
D54*
X135275000Y-131915000D03*
D55*
X156500000Y-99000000D03*
D56*
X166250000Y-116750000D03*
D55*
X115500000Y-100318500D03*
X115500000Y-103750000D03*
X152000000Y-105250000D03*
X152250000Y-103750000D03*
X140750000Y-100250000D03*
X142500000Y-101500000D03*
X163500000Y-126750000D03*
D54*
X125080000Y-131970000D03*
D55*
X146250000Y-121500000D03*
X154250000Y-100250000D03*
X118500000Y-132500000D03*
D54*
X146810000Y-124900000D03*
X141170000Y-121930000D03*
X147000000Y-158500000D03*
X131970000Y-115640000D03*
X140610000Y-124780000D03*
X144350000Y-109460000D03*
X144910000Y-100490000D03*
X158000000Y-123290000D03*
X154420000Y-109020000D03*
X147850000Y-109600000D03*
X147930000Y-116810000D03*
D55*
X123000000Y-105750000D03*
X124500000Y-105250000D03*
D54*
X147800000Y-147700000D03*
D55*
X127500000Y-131250000D03*
X149500000Y-155750000D03*
X104740000Y-106290000D03*
X133291782Y-125230816D03*
X113000000Y-101750000D03*
X144000000Y-143750000D03*
X127750000Y-128750000D03*
X121750000Y-108000000D03*
X129260000Y-126420000D03*
X127500000Y-109750000D03*
X114100000Y-145000000D03*
X102850000Y-148250000D03*
X135530483Y-127469517D03*
X147750000Y-105000000D03*
X155250000Y-163500000D03*
X102850000Y-149250000D03*
X102850000Y-152000000D03*
X102850000Y-150750000D03*
X148000000Y-122000000D03*
X159700000Y-106900000D03*
X99910000Y-108690000D03*
X102540000Y-125500000D03*
X127500000Y-108250000D03*
X157750000Y-126500000D03*
X133000000Y-100250000D03*
X107750000Y-108250000D03*
X102540000Y-127000000D03*
X130750000Y-134250000D03*
X134000000Y-134750000D03*
X119250000Y-100750000D03*
X145000000Y-165000000D03*
X134950000Y-126220000D03*
X165000000Y-123500000D03*
X124750000Y-111000000D03*
X132250000Y-134500000D03*
X127500000Y-132500000D03*
X162250000Y-139000000D03*
X152000000Y-107000000D03*
X155000000Y-102500000D03*
D54*
X103290000Y-136960000D03*
D55*
X102540000Y-124156904D03*
X123500000Y-130250000D03*
X157700000Y-134200000D03*
X127000000Y-107500000D03*
X162930000Y-131750000D03*
X163000000Y-104500000D03*
X123000000Y-111000000D03*
X101370000Y-120749500D03*
X102540000Y-128500000D03*
D54*
X132950000Y-135920000D03*
X111400000Y-106890000D03*
X122740000Y-124640000D03*
X131060000Y-103250000D03*
X100720000Y-144810000D03*
X100750000Y-141850000D03*
X101444760Y-145415240D03*
X101530000Y-140460000D03*
X119990000Y-129920000D03*
X130200000Y-101780000D03*
X135600000Y-128640000D03*
X110510000Y-104520000D03*
X114660000Y-113280000D03*
X120470000Y-127480000D03*
X160044675Y-134124576D03*
X149439300Y-107228431D03*
X160043780Y-133421074D03*
X149915503Y-107851052D03*
X131843884Y-148814353D03*
X114991127Y-117912433D03*
X114581202Y-117340700D03*
X131143849Y-148884120D03*
X107791492Y-129569895D03*
X108131555Y-152636673D03*
X107300000Y-128220000D03*
X107728508Y-152060072D03*
X109219000Y-127890000D03*
X109390000Y-149800000D03*
X108310000Y-126573421D03*
X108840392Y-150298340D03*
X109470000Y-126690000D03*
X110056384Y-149249404D03*
X110308905Y-148592784D03*
X109946311Y-126172271D03*
X111107893Y-147757893D03*
X111740000Y-125560000D03*
X111100000Y-147000000D03*
X111367429Y-124692571D03*
X101390000Y-124640000D03*
X102200000Y-147041000D03*
X100689937Y-124379937D03*
X98750000Y-145560000D03*
X130240000Y-115620000D03*
X139250000Y-139500000D03*
D57*
X164605000Y-158395000D02*
X163750000Y-159250000D01*
X164605000Y-157750000D02*
X164605000Y-158395000D01*
X162000000Y-159250000D02*
X163750000Y-159250000D01*
X159000000Y-162250000D02*
X162000000Y-159250000D01*
D58*
X162955000Y-150678324D02*
X154755000Y-142478324D01*
X162955000Y-157750000D02*
X162955000Y-150678324D01*
X161400000Y-157750000D02*
X162955000Y-157750000D01*
X160110000Y-159040000D02*
X161400000Y-157750000D01*
X154755000Y-142478324D02*
X154755000Y-136955000D01*
D59*
X144000000Y-143750000D02*
X143940000Y-143810000D01*
X143940000Y-143810000D02*
X142275000Y-143810000D01*
D57*
X133285000Y-145955000D02*
X137525000Y-145955000D01*
D59*
X137520000Y-148500000D02*
X137525000Y-148495000D01*
X135750000Y-148500000D02*
X137520000Y-148500000D01*
D57*
X137746188Y-147225000D02*
X139250000Y-145721188D01*
X139250000Y-145721188D02*
X139250000Y-139500000D01*
X137525000Y-147225000D02*
X137746188Y-147225000D01*
D58*
X140500000Y-150500000D02*
X142199566Y-152199566D01*
X142199566Y-152199566D02*
X142275000Y-152199566D01*
X140500000Y-148046670D02*
X140500000Y-150500000D01*
X141273335Y-147273335D02*
X140500000Y-148046670D01*
X141273335Y-147273335D02*
X141773335Y-147273335D01*
X140725000Y-146725000D02*
X141273335Y-147273335D01*
X140725000Y-143810000D02*
X140725000Y-146725000D01*
X142475000Y-148495000D02*
X143417437Y-148495000D01*
X143417437Y-148495000D02*
X144481219Y-147431218D01*
X145450000Y-147987563D02*
X143417437Y-145955000D01*
X145450000Y-152750000D02*
X145450000Y-147987563D01*
X143417437Y-145955000D02*
X142475000Y-145955000D01*
X151070000Y-165540000D02*
X151070000Y-163865000D01*
X152795000Y-162140000D02*
X154015000Y-162140000D01*
X154015000Y-162140000D02*
X155605000Y-160550000D01*
X139220000Y-166535000D02*
X150075000Y-166535000D01*
X150075000Y-166535000D02*
X151070000Y-165540000D01*
X151070000Y-163865000D02*
X152795000Y-162140000D01*
X127925000Y-155240000D02*
X139220000Y-166535000D01*
X127925000Y-150650000D02*
X127925000Y-155240000D01*
X142275000Y-152199566D02*
X148325434Y-158250000D01*
X148325434Y-158250000D02*
X153305000Y-158250000D01*
X153305000Y-158250000D02*
X155605000Y-160550000D01*
D57*
X143700000Y-160550000D02*
X145750000Y-158500000D01*
X141000000Y-160550000D02*
X143700000Y-160550000D01*
D59*
X143190000Y-157490000D02*
X137990000Y-157490000D01*
X144200000Y-158500000D02*
X143190000Y-157490000D01*
D57*
X147000000Y-158500000D02*
X145750000Y-158500000D01*
X148950000Y-160450000D02*
X148950000Y-160550000D01*
X147000000Y-158500000D02*
X148950000Y-160450000D01*
D59*
X151500000Y-155725000D02*
X149525000Y-155725000D01*
X149525000Y-155725000D02*
X149500000Y-155750000D01*
D58*
X151500000Y-152660000D02*
X150910000Y-152660000D01*
X150910000Y-152660000D02*
X148500000Y-150250000D01*
X155780000Y-152660000D02*
X151500000Y-152660000D01*
X147550000Y-151200000D02*
X148500000Y-150250000D01*
X147550000Y-152750000D02*
X147550000Y-151200000D01*
D59*
X157250000Y-165250000D02*
X158000000Y-166000000D01*
X158250000Y-164250000D02*
X157250000Y-165250000D01*
X158000000Y-166000000D02*
X158175000Y-166000000D01*
X158350000Y-164250000D02*
X158250000Y-164250000D01*
D57*
X155605000Y-164395000D02*
X157750000Y-162250000D01*
X155605000Y-165450000D02*
X155605000Y-164395000D01*
X157750000Y-162250000D02*
X159000000Y-162250000D01*
X159650000Y-165825000D02*
X159825000Y-166000000D01*
X159650000Y-164250000D02*
X159650000Y-165825000D01*
X159750000Y-164150000D02*
X159650000Y-164250000D01*
X159750000Y-163000000D02*
X159750000Y-164150000D01*
X131690000Y-122415000D02*
X131690000Y-118300000D01*
X134800000Y-122420000D02*
X134875000Y-122345000D01*
X133335000Y-122420000D02*
X134800000Y-122420000D01*
D59*
X150600000Y-105325000D02*
X151925000Y-105325000D01*
X114928500Y-100890000D02*
X114615000Y-100890000D01*
D57*
X154250000Y-100595000D02*
X153555000Y-101290000D01*
D59*
X117770000Y-131260000D02*
X117770000Y-131770000D01*
X166515000Y-122490000D02*
X166515000Y-119905000D01*
X145610000Y-122140000D02*
X146250000Y-121500000D01*
X166350000Y-119740000D02*
X166350000Y-116850000D01*
D57*
X139060000Y-100205000D02*
X140455000Y-100205000D01*
D60*
X126775000Y-130275000D02*
X125080000Y-131970000D01*
D57*
X150250000Y-103417500D02*
X150250000Y-104975000D01*
D59*
X151925000Y-105325000D02*
X152000000Y-105250000D01*
X115445000Y-101720000D02*
X114615000Y-100890000D01*
X115445000Y-101810000D02*
X114615000Y-102640000D01*
D57*
X150937500Y-102730000D02*
X151730000Y-102730000D01*
D59*
X115500000Y-100318500D02*
X114928500Y-100890000D01*
D57*
X149750000Y-105000000D02*
X150075000Y-105325000D01*
D59*
X166350000Y-116850000D02*
X166250000Y-116750000D01*
D57*
X126775000Y-130250000D02*
X129050000Y-130250000D01*
D59*
X115500000Y-103525000D02*
X114615000Y-102640000D01*
D57*
X140455000Y-100205000D02*
X140500000Y-100250000D01*
D59*
X115445000Y-101810000D02*
X115445000Y-101720000D01*
X115500000Y-103750000D02*
X115500000Y-103525000D01*
D57*
X150075000Y-105325000D02*
X150600000Y-105325000D01*
D59*
X117770000Y-126750000D02*
X117770000Y-127270000D01*
D57*
X154250000Y-100250000D02*
X154250000Y-100595000D01*
X135500000Y-132140000D02*
X135500000Y-133005000D01*
X135110000Y-131750000D02*
X135275000Y-131915000D01*
X149750000Y-103417500D02*
X149750000Y-105000000D01*
X135275000Y-131915000D02*
X135500000Y-132140000D01*
D59*
X117770000Y-127270000D02*
X118500000Y-128000000D01*
D57*
X133950000Y-131750000D02*
X135110000Y-131750000D01*
D59*
X117225000Y-101810000D02*
X115445000Y-101810000D01*
X163530000Y-126780000D02*
X163500000Y-126750000D01*
X164915000Y-126780000D02*
X163530000Y-126780000D01*
D57*
X151730000Y-102730000D02*
X152250000Y-103250000D01*
D59*
X145610000Y-123115000D02*
X145610000Y-122140000D01*
D57*
X150250000Y-104975000D02*
X150600000Y-105325000D01*
D59*
X117770000Y-131770000D02*
X118500000Y-132500000D01*
D57*
X152250000Y-103250000D02*
X152250000Y-103750000D01*
X156500000Y-99000000D02*
X155195000Y-99000000D01*
X141040000Y-101480000D02*
X142480000Y-101480000D01*
X146960000Y-124750000D02*
X149045000Y-124750000D01*
X142347500Y-123107500D02*
X141170000Y-121930000D01*
X131970000Y-111240000D02*
X123810000Y-103080000D01*
X146660000Y-124750000D02*
X146810000Y-124900000D01*
X146810000Y-124900000D02*
X146960000Y-124750000D01*
X142347500Y-124750000D02*
X142347500Y-123107500D01*
X123810000Y-103080000D02*
X117225000Y-103080000D01*
X142347500Y-124750000D02*
X146660000Y-124750000D01*
X131970000Y-115640000D02*
X131970000Y-111240000D01*
X140610000Y-124780000D02*
X140610000Y-125562500D01*
X144350000Y-109460000D02*
X145215000Y-109460000D01*
X145170000Y-100230000D02*
X144910000Y-100490000D01*
X147062500Y-100230000D02*
X145170000Y-100230000D01*
X145320000Y-111215000D02*
X142347500Y-111215000D01*
X166565000Y-126780000D02*
X166565000Y-124685000D01*
X151398008Y-101730000D02*
X151675000Y-101453008D01*
X151675000Y-101453008D02*
X151675000Y-101435000D01*
X150937500Y-101730000D02*
X151398008Y-101730000D01*
X153505000Y-99605000D02*
X153505000Y-99040000D01*
X151675000Y-101435000D02*
X153505000Y-99605000D01*
D58*
X158650000Y-137300000D02*
X158650000Y-138725000D01*
X158650000Y-137300000D02*
X155100000Y-137300000D01*
X158650000Y-138725000D02*
X158925000Y-139000000D01*
X160110000Y-159040000D02*
X157115000Y-159040000D01*
X158000000Y-159040000D02*
X160110000Y-159040000D01*
X155100000Y-137300000D02*
X154755000Y-136955000D01*
X127925000Y-150527535D02*
X130476268Y-147976267D01*
X161750000Y-119740000D02*
X158416289Y-119740000D01*
X158416289Y-119740000D02*
X154705000Y-123451289D01*
X154705000Y-126630000D02*
X154755000Y-126680000D01*
X127925000Y-150650000D02*
X127925000Y-150527535D01*
X154755000Y-136955000D02*
X154755000Y-126680000D01*
X154705000Y-123740000D02*
X154705000Y-126630000D01*
X157115000Y-159040000D02*
X155605000Y-160550000D01*
X154705000Y-123451289D02*
X154705000Y-123740000D01*
D57*
X156355000Y-123740000D02*
X157550000Y-123740000D01*
X154420000Y-109020000D02*
X154420000Y-106020000D01*
X153505000Y-103540000D02*
X153505000Y-105105000D01*
X152195000Y-102230000D02*
X153505000Y-103540000D01*
X150937500Y-102230000D02*
X152195000Y-102230000D01*
X153505000Y-105105000D02*
X154420000Y-106020000D01*
X157550000Y-123740000D02*
X158000000Y-123290000D01*
X144495000Y-106470000D02*
X144495000Y-104336992D01*
X142347500Y-109315000D02*
X142347500Y-108617500D01*
X142347500Y-108617500D02*
X144495000Y-106470000D01*
X144495000Y-104336992D02*
X146601992Y-102230000D01*
X146601992Y-102230000D02*
X147062500Y-102230000D01*
X140472500Y-123800000D02*
X140472500Y-121397500D01*
X147930000Y-117060000D02*
X147930000Y-116810000D01*
X144280000Y-120710000D02*
X147930000Y-117060000D01*
X140472500Y-121397500D02*
X141160000Y-120710000D01*
X146145000Y-107895000D02*
X147850000Y-109600000D01*
X146145000Y-106470000D02*
X146145000Y-107895000D01*
X141160000Y-120710000D02*
X144280000Y-120710000D01*
D61*
X103029500Y-149429500D02*
X102850000Y-149250000D01*
D59*
X159725000Y-106875000D02*
X160860000Y-106875000D01*
X124855000Y-150770000D02*
X124855000Y-157950000D01*
X127410000Y-109660000D02*
X127500000Y-109750000D01*
X103290000Y-136960000D02*
X102784750Y-136454750D01*
D61*
X149080000Y-123080000D02*
X148000000Y-122000000D01*
X105415000Y-149429500D02*
X103029500Y-149429500D01*
X107640000Y-145310000D02*
X107259500Y-144929500D01*
D59*
X164777500Y-132200000D02*
X163380000Y-132200000D01*
X133290000Y-100540000D02*
X133000000Y-100250000D01*
X125875000Y-108260000D02*
X127490000Y-108260000D01*
D61*
X103295500Y-152429500D02*
X103287500Y-152437500D01*
D59*
X124475000Y-110725000D02*
X124750000Y-111000000D01*
D61*
X133950000Y-128050000D02*
X133950000Y-128750000D01*
X101370000Y-120749500D02*
X101600500Y-120980000D01*
X114100000Y-145000000D02*
X113790000Y-145310000D01*
D59*
X160475000Y-139000000D02*
X162250000Y-139000000D01*
X148117296Y-149150000D02*
X147800000Y-148832704D01*
D61*
X105415000Y-147929500D02*
X103170500Y-147929500D01*
X133291782Y-125230816D02*
X132250000Y-126272598D01*
X103170500Y-147929500D02*
X102850000Y-148250000D01*
D59*
X125875000Y-106860000D02*
X126360000Y-106860000D01*
X113065000Y-100890000D02*
X113065000Y-102640000D01*
X134195000Y-134555000D02*
X134000000Y-134750000D01*
D61*
X141000000Y-165050000D02*
X148950000Y-165050000D01*
D59*
X158100000Y-133800000D02*
X157700000Y-134200000D01*
X164050000Y-121575000D02*
X164965000Y-122490000D01*
D61*
X130750000Y-132950000D02*
X130750000Y-134250000D01*
X129720000Y-126880000D02*
X129260000Y-126420000D01*
X101600500Y-120980000D02*
X105415000Y-120980000D01*
D59*
X131650000Y-147190000D02*
X134440000Y-147190000D01*
D61*
X130750000Y-126880000D02*
X129720000Y-126880000D01*
X105415000Y-150929500D02*
X103029500Y-150929500D01*
D59*
X164965000Y-124635000D02*
X164965000Y-122490000D01*
X131450000Y-148140000D02*
X131450000Y-147390000D01*
D61*
X103029500Y-150929500D02*
X102850000Y-150750000D01*
D59*
X134725000Y-100540000D02*
X133290000Y-100540000D01*
X123075000Y-108260000D02*
X122010000Y-108260000D01*
D61*
X129050000Y-130750000D02*
X128000000Y-130750000D01*
D59*
X159700000Y-106900000D02*
X159725000Y-106875000D01*
D61*
X133950000Y-132250000D02*
X133950000Y-134700000D01*
X133950000Y-134700000D02*
X134000000Y-134750000D01*
D59*
X147800000Y-148832704D02*
X147800000Y-147700000D01*
D61*
X157570000Y-126680000D02*
X157750000Y-126500000D01*
X128000000Y-130750000D02*
X127500000Y-131250000D01*
D59*
X164050000Y-119740000D02*
X164050000Y-113440000D01*
D57*
X148250000Y-103417500D02*
X148250000Y-102230000D01*
D59*
X124475000Y-108260000D02*
X124475000Y-109660000D01*
X134925000Y-152075000D02*
X135750000Y-151250000D01*
X125225000Y-130250000D02*
X123500000Y-130250000D01*
D61*
X102560000Y-126980000D02*
X102540000Y-127000000D01*
D59*
X163380000Y-132200000D02*
X162930000Y-131750000D01*
D61*
X105415000Y-152429500D02*
X103295500Y-152429500D01*
X127750000Y-132250000D02*
X127500000Y-132500000D01*
D59*
X134925000Y-155240000D02*
X134925000Y-152075000D01*
D61*
X103037500Y-150937500D02*
X102850000Y-150750000D01*
D59*
X124475000Y-106860000D02*
X124475000Y-105525000D01*
D61*
X105415000Y-126980000D02*
X102560000Y-126980000D01*
X157965000Y-160785000D02*
X153300000Y-165450000D01*
X129050000Y-128750000D02*
X127750000Y-128750000D01*
X102716904Y-123980000D02*
X102540000Y-124156904D01*
X132250000Y-132950000D02*
X132250000Y-134500000D01*
X107259500Y-144929500D02*
X105415000Y-144929500D01*
D59*
X117225000Y-100540000D02*
X119040000Y-100540000D01*
D61*
X105415000Y-128480000D02*
X102560000Y-128480000D01*
X105415000Y-125480000D02*
X102560000Y-125480000D01*
X134750000Y-128818248D02*
X134318248Y-129250000D01*
D59*
X164050000Y-119740000D02*
X164050000Y-121575000D01*
D61*
X134318248Y-129250000D02*
X133950000Y-129250000D01*
D59*
X155105000Y-101290000D02*
X155105000Y-103490000D01*
D61*
X102560000Y-128480000D02*
X102540000Y-128500000D01*
D59*
X124475000Y-109660000D02*
X124475000Y-110725000D01*
X134440000Y-147190000D02*
X135750000Y-148500000D01*
X135500000Y-134555000D02*
X134195000Y-134555000D01*
X98212500Y-107850000D02*
X99070000Y-107850000D01*
X123075000Y-109660000D02*
X123075000Y-110925000D01*
D61*
X103287500Y-152437500D02*
X102850000Y-152000000D01*
X135530483Y-127469517D02*
X134750000Y-128250000D01*
X113790000Y-145310000D02*
X107640000Y-145310000D01*
D59*
X151875000Y-106875000D02*
X152000000Y-107000000D01*
X159370000Y-133800000D02*
X158100000Y-133800000D01*
X126360000Y-106860000D02*
X127000000Y-107500000D01*
D61*
X130750000Y-128050000D02*
X130750000Y-126880000D01*
D59*
X123075000Y-110925000D02*
X123000000Y-111000000D01*
X148410000Y-149150000D02*
X148117296Y-149150000D01*
D61*
X132250000Y-126272598D02*
X132250000Y-128050000D01*
X102560000Y-125480000D02*
X102540000Y-125500000D01*
D59*
X122010000Y-108260000D02*
X121750000Y-108000000D01*
X124475000Y-105525000D02*
X124500000Y-105500000D01*
D61*
X105415000Y-123980000D02*
X102716904Y-123980000D01*
D59*
X163750000Y-105250000D02*
X163000000Y-104500000D01*
X99070000Y-107850000D02*
X99910000Y-108690000D01*
D61*
X129050000Y-130750000D02*
X131250000Y-130750000D01*
D59*
X103740000Y-106290000D02*
X104740000Y-106290000D01*
D61*
X134750000Y-128250000D02*
X134750000Y-128818248D01*
X134950000Y-126220000D02*
X134950000Y-127050000D01*
X129050000Y-132250000D02*
X127750000Y-132250000D01*
D59*
X164847500Y-105250000D02*
X163750000Y-105250000D01*
D61*
X102850000Y-149250000D02*
X103037500Y-149437500D01*
D59*
X135750000Y-151250000D02*
X135750000Y-148500000D01*
D61*
X153300000Y-165450000D02*
X152405000Y-165450000D01*
D59*
X150600000Y-106875000D02*
X151875000Y-106875000D01*
X125875000Y-109660000D02*
X127410000Y-109660000D01*
X107805000Y-109550000D02*
X107805000Y-106910000D01*
X123075000Y-106860000D02*
X123075000Y-105925000D01*
D61*
X134950000Y-127050000D02*
X133950000Y-128050000D01*
D59*
X119040000Y-100540000D02*
X119250000Y-100750000D01*
D61*
X156305000Y-126680000D02*
X157570000Y-126680000D01*
D59*
X102784750Y-136454750D02*
X102470000Y-136454750D01*
X131450000Y-147390000D02*
X131650000Y-147190000D01*
D57*
X148250000Y-104500000D02*
X147750000Y-105000000D01*
X148250000Y-103417500D02*
X148250000Y-104500000D01*
X113015000Y-106890000D02*
X111400000Y-106890000D01*
X133950000Y-131250000D02*
X135490000Y-131250000D01*
X135490000Y-131250000D02*
X136570000Y-132330000D01*
X135800000Y-135920000D02*
X132950000Y-135920000D01*
X111400000Y-106890000D02*
X109475000Y-106890000D01*
X136570000Y-135150000D02*
X135800000Y-135920000D01*
X136570000Y-132330000D02*
X136570000Y-135150000D01*
X117225000Y-106890000D02*
X114665000Y-106890000D01*
X122740000Y-124640000D02*
X121930000Y-125450000D01*
X121930000Y-125450000D02*
X117770000Y-125450000D01*
X131230000Y-103080000D02*
X140990000Y-103080000D01*
X134725000Y-103080000D02*
X131230000Y-103080000D01*
X131230000Y-103080000D02*
X131060000Y-103250000D01*
X100770000Y-141830000D02*
X100770000Y-136954750D01*
X99320000Y-124330000D02*
X102170000Y-121480000D01*
X100778000Y-130508000D02*
X99320000Y-129050000D01*
X100780000Y-131989524D02*
X100778000Y-131987524D01*
X99940000Y-136124750D02*
X99940000Y-135100000D01*
X105335000Y-145437500D02*
X102321205Y-145437500D01*
X102170000Y-121480000D02*
X105415000Y-121480000D01*
X108880000Y-121900000D02*
X108460000Y-121480000D01*
X112000000Y-121900000D02*
X108880000Y-121900000D01*
X112000000Y-121900000D02*
X115770000Y-125670000D01*
X100750000Y-141850000D02*
X100770000Y-141830000D01*
X100770000Y-136954750D02*
X99940000Y-136124750D01*
X100780000Y-134260000D02*
X100780000Y-131989524D01*
X102321205Y-145437500D02*
X101693705Y-144810000D01*
X108460000Y-121480000D02*
X105415000Y-121480000D01*
X100778000Y-131987524D02*
X100778000Y-130508000D01*
X99320000Y-129050000D02*
X99320000Y-124330000D01*
X101693705Y-144810000D02*
X100720000Y-144810000D01*
X115770000Y-125670000D02*
X115770000Y-126100000D01*
X99940000Y-135100000D02*
X100780000Y-134260000D01*
X105335000Y-144437500D02*
X108127500Y-144437500D01*
X108127500Y-144437500D02*
X111967500Y-144437500D01*
X102470000Y-135954750D02*
X104351597Y-135954750D01*
X116650000Y-139655000D02*
X116650000Y-124660000D01*
X108127500Y-139730653D02*
X104351597Y-135954750D01*
X112240000Y-120250000D02*
X116650000Y-124660000D01*
X116650000Y-139655000D02*
X111990000Y-144315000D01*
X105335000Y-120488000D02*
X111862000Y-120488000D01*
D62*
X108127500Y-144437500D02*
X108127500Y-139730653D01*
D57*
X101490000Y-140420000D02*
X101530000Y-140460000D01*
X101440000Y-130100000D02*
X101440000Y-134860000D01*
X101444760Y-145415240D02*
X101967020Y-145937500D01*
X100000000Y-124216396D02*
X100000000Y-128660000D01*
X101967020Y-145937500D02*
X105335000Y-145937500D01*
X106935000Y-121988000D02*
X102228396Y-121988000D01*
X105335000Y-145937500D02*
X111817500Y-145937500D01*
X100000000Y-128660000D02*
X101440000Y-130100000D01*
X100770000Y-135954750D02*
X101490000Y-136674750D01*
X115770000Y-127310000D02*
X115770000Y-130610000D01*
X111630000Y-123170000D02*
X115770000Y-127310000D01*
X111730000Y-123170000D02*
X108117000Y-123170000D01*
X101490000Y-136674750D02*
X101490000Y-140420000D01*
X102228396Y-121988000D02*
X100000000Y-124216396D01*
X100820000Y-135480000D02*
X100820000Y-135904750D01*
X108117000Y-123170000D02*
X106935000Y-121988000D01*
X101440000Y-134860000D02*
X100820000Y-135480000D01*
X117770000Y-129960000D02*
X119950000Y-129960000D01*
X130200000Y-101780000D02*
X134695000Y-101780000D01*
X130210000Y-101770000D02*
X138975000Y-101770000D01*
X130200000Y-101780000D02*
X130210000Y-101770000D01*
X119950000Y-129960000D02*
X119990000Y-129920000D01*
X133950000Y-129750000D02*
X134490000Y-129750000D01*
X113015000Y-104520000D02*
X110510000Y-104520000D01*
X134490000Y-129750000D02*
X135600000Y-128640000D01*
X115765000Y-105620000D02*
X117225000Y-105620000D01*
X114665000Y-104520000D02*
X115765000Y-105620000D01*
X140472500Y-113707500D02*
X137130000Y-117050000D01*
X137130000Y-117050000D02*
X134725000Y-117050000D01*
X140472500Y-110265000D02*
X140472500Y-113707500D01*
D63*
X134074994Y-130250000D02*
X134530000Y-130250000D01*
X149759103Y-149000897D02*
X150110000Y-148650000D01*
X134653394Y-130373394D02*
X137958876Y-130373394D01*
X155780000Y-148160000D02*
X154939103Y-149000897D01*
X149337503Y-141752021D02*
X149337503Y-148836323D01*
X149502077Y-149000897D02*
X149337503Y-148836323D01*
X154939103Y-149000897D02*
X150460897Y-149000897D01*
X137958876Y-130373394D02*
X149337503Y-141752021D01*
X134530000Y-130250000D02*
X134653394Y-130373394D01*
X149502077Y-149000897D02*
X149759103Y-149000897D01*
X150460897Y-149000897D02*
X150110000Y-148650000D01*
X150482497Y-149277503D02*
X154897503Y-149277503D01*
X149060897Y-148950897D02*
X149060897Y-141850191D01*
X134570000Y-130750000D02*
X133950000Y-130750000D01*
X149387503Y-149277503D02*
X149060897Y-148950897D01*
X149737503Y-149277503D02*
X149387503Y-149277503D01*
X149060897Y-141850191D02*
X137860706Y-130650000D01*
X150110000Y-149650000D02*
X150482497Y-149277503D01*
X137860706Y-130650000D02*
X134670000Y-130650000D01*
X154897503Y-149277503D02*
X155780000Y-150160000D01*
X150110000Y-149650000D02*
X149737503Y-149277503D01*
X134670000Y-130650000D02*
X134570000Y-130750000D01*
D57*
X133285000Y-145955000D02*
X120594000Y-133264000D01*
X113015000Y-111635000D02*
X114660000Y-113280000D01*
X120594000Y-133264000D02*
X120594000Y-127604000D01*
X109455000Y-109550000D02*
X113015000Y-109550000D01*
X113015000Y-109550000D02*
X113015000Y-111635000D01*
X120594000Y-127604000D02*
X120470000Y-127480000D01*
D63*
X101710000Y-106350000D02*
X99190000Y-106350000D01*
X116018303Y-122588303D02*
X102900000Y-109470000D01*
X129983675Y-124779265D02*
X129983676Y-124779266D01*
X129135146Y-123930736D02*
X129135147Y-123930737D01*
X102040000Y-106680000D02*
X101710000Y-106350000D01*
X131357205Y-126152795D02*
X130832205Y-125627795D01*
X129875247Y-125311956D02*
X129983675Y-125203529D01*
X131250000Y-127412499D02*
X131361697Y-127300802D01*
X131250000Y-128050000D02*
X131250000Y-127412499D01*
X102904994Y-109175006D02*
X102904994Y-106419770D01*
X98990000Y-106550000D02*
X98212500Y-106550000D01*
X99190000Y-106350000D02*
X98990000Y-106550000D01*
X102900000Y-109180000D02*
X102904994Y-109175006D01*
X127792713Y-122588303D02*
X116018303Y-122588303D01*
X129559411Y-124779265D02*
X129559410Y-124779265D01*
X129559410Y-124779265D02*
X129380272Y-124958404D01*
X128956007Y-124534138D02*
X129135146Y-124355000D01*
X102040000Y-106790000D02*
X102040000Y-106680000D01*
X102504994Y-106325006D02*
X102040000Y-106790000D01*
X131361697Y-127300802D02*
X131361697Y-126157287D01*
X130407940Y-125627794D02*
X130407939Y-125627794D01*
X129875247Y-125311957D02*
X129875247Y-125311956D01*
X102810230Y-106325006D02*
X102504994Y-106325006D01*
X130407939Y-125627794D02*
X130299512Y-125736222D01*
X102900000Y-109470000D02*
X102900000Y-109180000D01*
X102904994Y-106419770D02*
X102810230Y-106325006D01*
X128956007Y-124534139D02*
X128956007Y-124534138D01*
X129135147Y-123930737D02*
X127792713Y-122588303D01*
X129135114Y-123930768D02*
G75*
G02*
X129135146Y-124355000I-212114J-212132D01*
G01*
X128956009Y-124958403D02*
G75*
G03*
X129380271Y-124958403I212131J212131D01*
G01*
X130407969Y-125627823D02*
G75*
G02*
X130832204Y-125627796I212131J-212077D01*
G01*
X129983672Y-124779268D02*
G75*
G02*
X129983675Y-125203529I-212172J-212132D01*
G01*
X129559368Y-124779222D02*
G75*
G02*
X129983676Y-124779266I212132J-212178D01*
G01*
X128956037Y-124534169D02*
G75*
G03*
X128956009Y-124958403I212063J-212131D01*
G01*
X129875258Y-125311968D02*
G75*
G03*
X129875248Y-125736222I212142J-212132D01*
G01*
X129875249Y-125736221D02*
G75*
G03*
X130299511Y-125736221I212131J212131D01*
G01*
X103170000Y-106310000D02*
X103170000Y-109365224D01*
X99030000Y-105900000D02*
X99214994Y-106084994D01*
X131638303Y-126042713D02*
X131638303Y-127300802D01*
X131750000Y-127412499D02*
X131750000Y-128050000D01*
X99214994Y-106084994D02*
X101745006Y-106084994D01*
X101745006Y-106084994D02*
X102040000Y-105790000D01*
X98212500Y-105900000D02*
X99030000Y-105900000D01*
X102920000Y-106060000D02*
X103170000Y-106310000D01*
X127907287Y-122311697D02*
X131638303Y-126042713D01*
X102040000Y-105790000D02*
X102250000Y-105790000D01*
X102250000Y-105790000D02*
X102520000Y-106060000D01*
X131638303Y-127300802D02*
X131750000Y-127412499D01*
X103170000Y-109365224D02*
X116116473Y-122311697D01*
X102520000Y-106060000D02*
X102920000Y-106060000D01*
X116116473Y-122311697D02*
X127907287Y-122311697D01*
X161672796Y-109376014D02*
X161575140Y-109473671D01*
X143741672Y-119776703D02*
X140218887Y-119776703D01*
X133138303Y-126857287D02*
X133138303Y-127300802D01*
X133138303Y-127300802D02*
X133250000Y-127412499D01*
X159935737Y-110459853D02*
X159935737Y-110459856D01*
X162560000Y-107310000D02*
X162300000Y-107050000D01*
X161672795Y-109376014D02*
X161672796Y-109376014D01*
X161850000Y-108545590D02*
X161672795Y-108722795D01*
X161248532Y-109473671D02*
X161248532Y-109473670D01*
X161850000Y-107410000D02*
X161850000Y-108545590D01*
X162854994Y-107015006D02*
X162560000Y-107310000D01*
X159517287Y-110878303D02*
X152640072Y-110878303D01*
X162300000Y-107050000D02*
X162210000Y-107050000D01*
X163662503Y-107200000D02*
X163477509Y-107015006D01*
X133250000Y-127412499D02*
X133250000Y-128050000D01*
X162210000Y-107050000D02*
X161850000Y-107410000D01*
X164847500Y-107200000D02*
X163662503Y-107200000D01*
X163477509Y-107015006D02*
X162854994Y-107015006D01*
X159935737Y-110459856D02*
X159517287Y-110878303D01*
X161672795Y-109049405D02*
X161672794Y-109049405D01*
X161672794Y-109049405D02*
X161672795Y-109049406D01*
X140218887Y-119776703D02*
X133138303Y-126857287D01*
X160921924Y-109473670D02*
X159935737Y-110459853D01*
X152640072Y-110878303D02*
X143741672Y-119776703D01*
X161672795Y-109049405D02*
G75*
G02*
X161672795Y-108722795I163305J163305D01*
G01*
X160921924Y-109473670D02*
G75*
G02*
X161248532Y-109473670I163304J-163306D01*
G01*
X161248532Y-109473671D02*
G75*
G03*
X161575140Y-109473671I163304J163306D01*
G01*
X161672785Y-109376004D02*
G75*
G03*
X161672795Y-109049406I-163285J163304D01*
G01*
X132861697Y-127300802D02*
X132750000Y-127412499D01*
X143615498Y-119511697D02*
X140092713Y-119511697D01*
X140092713Y-119511697D02*
X132861697Y-126742713D01*
X162315006Y-106784994D02*
X162100230Y-106784994D01*
X163700000Y-106550000D02*
X163500000Y-106750000D01*
X159402713Y-110601697D02*
X152525498Y-110601697D01*
X161584994Y-108419416D02*
X159402713Y-110601697D01*
X162100230Y-106784994D02*
X161584994Y-107300230D01*
X132861697Y-126742713D02*
X132861697Y-127300802D01*
X164847500Y-106550000D02*
X163700000Y-106550000D01*
X161584994Y-107300230D02*
X161584994Y-108419416D01*
X162770000Y-106750000D02*
X162560000Y-106540000D01*
X132750000Y-127412499D02*
X132750000Y-128050000D01*
X163500000Y-106750000D02*
X162770000Y-106750000D01*
X152525498Y-110601697D02*
X143615498Y-119511697D01*
X162560000Y-106540000D02*
X162315006Y-106784994D01*
D58*
X160750000Y-137300000D02*
X159322332Y-135872332D01*
X160960000Y-137200000D02*
X160650000Y-137200000D01*
D59*
X164777500Y-134800000D02*
X163380000Y-134800000D01*
D58*
X159322332Y-135872332D02*
X159322332Y-134977667D01*
X163270000Y-134890000D02*
X160960000Y-137200000D01*
D63*
X161292503Y-133967497D02*
X161060000Y-134200000D01*
X160044675Y-134124576D02*
X160175424Y-134124576D01*
X149250000Y-104050000D02*
X149250000Y-103417500D01*
X160400000Y-133900000D02*
X160760000Y-133900000D01*
X149138303Y-104161697D02*
X149250000Y-104050000D01*
X149439300Y-107228431D02*
X149138303Y-106927434D01*
X160760000Y-133900000D02*
X161070000Y-134210000D01*
X164777500Y-134150000D02*
X163950000Y-134150000D01*
X163767497Y-133967497D02*
X161292503Y-133967497D01*
X163950000Y-134150000D02*
X163767497Y-133967497D01*
X160175424Y-134124576D02*
X160400000Y-133900000D01*
X149138303Y-106927434D02*
X149138303Y-104161697D01*
X148873297Y-104173297D02*
X148873297Y-107524954D01*
X160403480Y-133623394D02*
X160746606Y-133623394D01*
X163766687Y-133690891D02*
X161330891Y-133690891D01*
X161060000Y-133420000D02*
X161060000Y-133200000D01*
X160746606Y-133623394D02*
X161070000Y-133300000D01*
X149880954Y-107816503D02*
X149635154Y-107816503D01*
X149915503Y-107851052D02*
X149880954Y-107816503D01*
X149634654Y-107817003D02*
X149165346Y-107817003D01*
X164777500Y-133500000D02*
X163957578Y-133500000D01*
X161330891Y-133690891D02*
X161060000Y-133420000D01*
X149635154Y-107816503D02*
X149634654Y-107817003D01*
X160043780Y-133421074D02*
X160201160Y-133421074D01*
X148750000Y-103417500D02*
X148750000Y-104050000D01*
X160201160Y-133421074D02*
X160403480Y-133623394D01*
X163957578Y-133500000D02*
X163766687Y-133690891D01*
X148750000Y-104050000D02*
X148873297Y-104173297D01*
X149165346Y-107817003D02*
X148873297Y-107524954D01*
X114991127Y-117731932D02*
X114991127Y-117912433D01*
X131950000Y-149840000D02*
X131545006Y-150244994D01*
X116210000Y-116790000D02*
X115737417Y-116790000D01*
X131545006Y-150244994D02*
X131545006Y-153905006D01*
X117225000Y-117120000D02*
X116540000Y-117120000D01*
X131950000Y-149840000D02*
X131900012Y-149840000D01*
X131545006Y-153905006D02*
X132420000Y-154780000D01*
X115147705Y-117379712D02*
X115147705Y-117575354D01*
X116540000Y-117120000D02*
X116210000Y-116790000D01*
X131843884Y-149186116D02*
X131545006Y-149484994D01*
X131900012Y-149840000D02*
X131545006Y-149484994D01*
X115737417Y-116790000D02*
X115147705Y-117379712D01*
X115147705Y-117575354D02*
X114991127Y-117731932D01*
X131843884Y-148814353D02*
X131843884Y-149186116D01*
X131143849Y-149333849D02*
X131143849Y-148884120D01*
X131280000Y-149510000D02*
X130950000Y-149840000D01*
X131280000Y-149470000D02*
X131143849Y-149333849D01*
X116210000Y-116480000D02*
X116840000Y-115850000D01*
X116840000Y-115850000D02*
X117225000Y-115850000D01*
X131280000Y-153920000D02*
X131280000Y-150170000D01*
X130420000Y-154780000D02*
X131280000Y-153920000D01*
X115656237Y-116480000D02*
X114795537Y-117340700D01*
X131280000Y-149470000D02*
X131280000Y-149510000D01*
X130950000Y-149840000D02*
X131280000Y-150170000D01*
X116210000Y-116480000D02*
X115656237Y-116480000D01*
X114795537Y-117340700D02*
X114581202Y-117340700D01*
D57*
X145680000Y-100730000D02*
X142060000Y-104350000D01*
X142060000Y-104350000D02*
X134725000Y-104350000D01*
X147062500Y-100730000D02*
X145680000Y-100730000D01*
X141426396Y-105620000D02*
X134725000Y-105620000D01*
X145816396Y-101230000D02*
X141426396Y-105620000D01*
X147062500Y-101230000D02*
X145816396Y-101230000D01*
D64*
X107280000Y-128990000D02*
X106812984Y-128990000D01*
X108131555Y-152636673D02*
X107053327Y-152636673D01*
X106750000Y-152940000D02*
X105331474Y-152940000D01*
X106810984Y-128988000D02*
X105335000Y-128988000D01*
X106812984Y-128990000D02*
X106810984Y-128988000D01*
X107791492Y-129501492D02*
X107280000Y-128990000D01*
X107791492Y-129569895D02*
X107791492Y-129501492D01*
X107053327Y-152636673D02*
X106750000Y-152940000D01*
X107068000Y-127988000D02*
X105335000Y-127988000D01*
X107605936Y-151937500D02*
X105335000Y-151937500D01*
X107728508Y-152060072D02*
X107605936Y-151937500D01*
X107300000Y-128220000D02*
X107068000Y-127988000D01*
X109381884Y-150073839D02*
X109381884Y-150522841D01*
X109390000Y-150065723D02*
X109381884Y-150073839D01*
X109064393Y-150840332D02*
X108861520Y-150840332D01*
X108650560Y-151051292D02*
X107323708Y-151051292D01*
X106900000Y-127500000D02*
X105336101Y-127500000D01*
X108861520Y-150840332D02*
X108650560Y-151051292D01*
X109390000Y-149800000D02*
X109390000Y-150065723D01*
X107323708Y-151051292D02*
X106937500Y-151437500D01*
X107285087Y-127114913D02*
X106900000Y-127500000D01*
X106937500Y-151437500D02*
X105335000Y-151437500D01*
X109219000Y-127890000D02*
X109219000Y-127879706D01*
X108454207Y-127114913D02*
X107285087Y-127114913D01*
X109219000Y-127879706D02*
X108454207Y-127114913D01*
X109381884Y-150522841D02*
X109064393Y-150840332D01*
X108310000Y-126573421D02*
X107996092Y-126887329D01*
X108840392Y-150509608D02*
X108526292Y-150823708D01*
X106967500Y-150437500D02*
X105335000Y-150437500D01*
X107353708Y-150823708D02*
X106967500Y-150437500D01*
X106868000Y-126488000D02*
X105335000Y-126488000D01*
X108840392Y-150298340D02*
X108840392Y-150509608D01*
X107996092Y-126887329D02*
X107267329Y-126887329D01*
X107267329Y-126887329D02*
X106868000Y-126488000D01*
X108526292Y-150823708D02*
X107353708Y-150823708D01*
X106882500Y-149937500D02*
X106874500Y-149929500D01*
X109856980Y-149050000D02*
X109794743Y-149050000D01*
X109794743Y-149050000D02*
X109732910Y-149111833D01*
X106882000Y-125988000D02*
X105335000Y-125988000D01*
X107268208Y-125601792D02*
X106882000Y-125988000D01*
X109732910Y-149111833D02*
X109260019Y-149111833D01*
X108820560Y-149551292D02*
X107268708Y-149551292D01*
X109260019Y-149111833D02*
X108820560Y-149551292D01*
X109470000Y-126690000D02*
X109470000Y-126440000D01*
X110056384Y-149249404D02*
X109856980Y-149050000D01*
X109470000Y-126440000D02*
X108631792Y-125601792D01*
X106874500Y-149929500D02*
X105415000Y-149929500D01*
X107268708Y-149551292D02*
X106882500Y-149937500D01*
X108631792Y-125601792D02*
X107268208Y-125601792D01*
X106897500Y-148937500D02*
X105335000Y-148937500D01*
X110308905Y-148592784D02*
X110140103Y-148423982D01*
X107274208Y-125374208D02*
X106888000Y-124988000D01*
X108742696Y-149323708D02*
X107283708Y-149323708D01*
X110140103Y-148423982D02*
X110115313Y-148423982D01*
X109170555Y-148895849D02*
X108742696Y-149323708D01*
X110115313Y-148423982D02*
X109643446Y-148895849D01*
X109508008Y-126148008D02*
X108734208Y-125374208D01*
X107283708Y-149323708D02*
X106897500Y-148937500D01*
X108734208Y-125374208D02*
X107274208Y-125374208D01*
X109922048Y-126148008D02*
X109508008Y-126148008D01*
X106888000Y-124988000D02*
X105335000Y-124988000D01*
X109643446Y-148895849D02*
X109170555Y-148895849D01*
X109946311Y-126172271D02*
X109922048Y-126148008D01*
X110825437Y-124475437D02*
X110451792Y-124101792D01*
X111142928Y-125234563D02*
X110825437Y-124917072D01*
X110814494Y-148051292D02*
X107238708Y-148051292D01*
X107278208Y-124101792D02*
X106892000Y-124488000D01*
X111740000Y-125560000D02*
X111414563Y-125234563D01*
X111414563Y-125234563D02*
X111142928Y-125234563D01*
X111107893Y-147757893D02*
X110814494Y-148051292D01*
X110451792Y-124101792D02*
X107278208Y-124101792D01*
X110825437Y-124917072D02*
X110825437Y-124475437D01*
X106852500Y-148437500D02*
X105335000Y-148437500D01*
X106892000Y-124488000D02*
X105335000Y-124488000D01*
X107238708Y-148051292D02*
X106852500Y-148437500D01*
X110549066Y-123874208D02*
X107244208Y-123874208D01*
X111100000Y-147000000D02*
X110276292Y-147823708D01*
X107203708Y-147823708D02*
X106817500Y-147437500D01*
X107244208Y-123874208D02*
X106858000Y-123488000D01*
X106817500Y-147437500D02*
X105335000Y-147437500D01*
X110276292Y-147823708D02*
X107203708Y-147823708D01*
X106858000Y-123488000D02*
X105335000Y-123488000D01*
X111367429Y-124692571D02*
X110549066Y-123874208D01*
D57*
X101390000Y-124099188D02*
X102509188Y-122980000D01*
X102509188Y-122980000D02*
X105415000Y-122980000D01*
X102303500Y-146937500D02*
X102200000Y-147041000D01*
X101390000Y-124640000D02*
X101390000Y-124099188D01*
X105335000Y-146937500D02*
X102303500Y-146937500D01*
X100689937Y-124162855D02*
X102364792Y-122488000D01*
X101612835Y-146437500D02*
X105335000Y-146437500D01*
X98930000Y-145740000D02*
X100915335Y-145740000D01*
X100689937Y-124379937D02*
X100689937Y-124162855D01*
X98750000Y-145560000D02*
X98930000Y-145740000D01*
X100915335Y-145740000D02*
X101612835Y-146437500D01*
X102364792Y-122488000D02*
X105335000Y-122488000D01*
X103189673Y-119988000D02*
X103172673Y-119971000D01*
X103172673Y-119971000D02*
X100789000Y-119971000D01*
X97987500Y-143937500D02*
X105335000Y-143937500D01*
X94890000Y-125870000D02*
X94890000Y-140860000D01*
X94890000Y-140840000D02*
X97987500Y-143937500D01*
X100789000Y-119971000D02*
X94890000Y-125870000D01*
X105335000Y-119988000D02*
X103189673Y-119988000D01*
X116055000Y-108160000D02*
X114665000Y-109550000D01*
X117225000Y-108160000D02*
X116055000Y-108160000D01*
X124080000Y-115620000D02*
X130240000Y-115620000D01*
X118550000Y-104350000D02*
X120850000Y-106650000D01*
X120850000Y-106650000D02*
X120850000Y-112390000D01*
X117225000Y-104350000D02*
X118550000Y-104350000D01*
X120850000Y-112390000D02*
X124080000Y-115620000D01*
M02*
