G04 #@! TF.GenerationSoftware,KiCad,Pcbnew,(6.0.8)*
G04 #@! TF.CreationDate,2022-11-27T14:47:46-08:00*
G04 #@! TF.ProjectId,EasyKVM,45617379-4b56-44d2-9e6b-696361645f70,rev?*
G04 #@! TF.SameCoordinates,Original*
G04 #@! TF.FileFunction,Legend,Top*
G04 #@! TF.FilePolarity,Positive*
%FSLAX46Y46*%
G04 Gerber Fmt 4.6, Leading zero omitted, Abs format (unit mm)*
G04 Created by KiCad (PCBNEW (6.0.8)) date 2022-11-27 14:47:46*
%MOMM*%
%LPD*%
G01*
G04 APERTURE LIST*
G04 Aperture macros list*
%AMRoundRect*
0 Rectangle with rounded corners*
0 $1 Rounding radius*
0 $2 $3 $4 $5 $6 $7 $8 $9 X,Y pos of 4 corners*
0 Add a 4 corners polygon primitive as box body*
4,1,4,$2,$3,$4,$5,$6,$7,$8,$9,$2,$3,0*
0 Add four circle primitives for the rounded corners*
1,1,$1+$1,$2,$3*
1,1,$1+$1,$4,$5*
1,1,$1+$1,$6,$7*
1,1,$1+$1,$8,$9*
0 Add four rect primitives between the rounded corners*
20,1,$1+$1,$2,$3,$4,$5,0*
20,1,$1+$1,$4,$5,$6,$7,0*
20,1,$1+$1,$6,$7,$8,$9,0*
20,1,$1+$1,$8,$9,$2,$3,0*%
G04 Aperture macros list end*
%ADD10C,0.150000*%
%ADD11C,0.254000*%
%ADD12C,0.120000*%
%ADD13C,0.200000*%
%ADD14C,0.100000*%
%ADD15C,0.250000*%
%ADD16RoundRect,0.200000X0.200000X0.275000X-0.200000X0.275000X-0.200000X-0.275000X0.200000X-0.275000X0*%
%ADD17RoundRect,0.200000X-0.275000X0.200000X-0.275000X-0.200000X0.275000X-0.200000X0.275000X0.200000X0*%
%ADD18RoundRect,0.093750X0.156250X0.093750X-0.156250X0.093750X-0.156250X-0.093750X0.156250X-0.093750X0*%
%ADD19RoundRect,0.225000X-0.225000X-0.250000X0.225000X-0.250000X0.225000X0.250000X-0.225000X0.250000X0*%
%ADD20R,2.600000X0.300000*%
%ADD21C,4.275000*%
%ADD22C,2.880000*%
%ADD23RoundRect,0.225000X0.225000X0.250000X-0.225000X0.250000X-0.225000X-0.250000X0.225000X-0.250000X0*%
%ADD24RoundRect,0.093750X-0.156250X-0.093750X0.156250X-0.093750X0.156250X0.093750X-0.156250X0.093750X0*%
%ADD25RoundRect,0.200000X-0.200000X-0.275000X0.200000X-0.275000X0.200000X0.275000X-0.200000X0.275000X0*%
%ADD26RoundRect,0.225000X-0.250000X0.225000X-0.250000X-0.225000X0.250000X-0.225000X0.250000X0.225000X0*%
%ADD27RoundRect,0.200000X0.275000X-0.200000X0.275000X0.200000X-0.275000X0.200000X-0.275000X-0.200000X0*%
%ADD28R,1.350000X0.400000*%
%ADD29R,1.900000X1.200000*%
%ADD30O,1.900000X1.200000*%
%ADD31R,1.900000X1.500000*%
%ADD32C,1.450000*%
%ADD33R,0.700000X0.450000*%
%ADD34R,1.600000X1.500000*%
%ADD35C,1.600000*%
%ADD36C,3.000000*%
%ADD37R,1.500000X1.600000*%
%ADD38RoundRect,0.225000X0.250000X-0.225000X0.250000X0.225000X-0.250000X0.225000X-0.250000X-0.225000X0*%
%ADD39RoundRect,0.150000X-0.587500X-0.150000X0.587500X-0.150000X0.587500X0.150000X-0.587500X0.150000X0*%
%ADD40R,0.600000X0.450000*%
%ADD41R,1.500000X2.000000*%
%ADD42R,3.800000X2.000000*%
%ADD43RoundRect,0.062500X0.062500X-0.350000X0.062500X0.350000X-0.062500X0.350000X-0.062500X-0.350000X0*%
%ADD44RoundRect,0.062500X0.350000X-0.062500X0.350000X0.062500X-0.350000X0.062500X-0.350000X-0.062500X0*%
%ADD45R,2.600000X2.600000*%
%ADD46R,0.850000X0.300000*%
%ADD47R,0.300000X0.850000*%
%ADD48R,3.200000X3.200000*%
%ADD49RoundRect,0.093750X-0.093750X0.156250X-0.093750X-0.156250X0.093750X-0.156250X0.093750X0.156250X0*%
%ADD50R,1.500000X0.900000*%
%ADD51R,0.900000X1.500000*%
%ADD52R,0.900000X0.900000*%
%ADD53R,1.550000X1.300000*%
%ADD54RoundRect,0.150000X-0.825000X-0.150000X0.825000X-0.150000X0.825000X0.150000X-0.825000X0.150000X0*%
%ADD55RoundRect,0.150000X0.587500X0.150000X-0.587500X0.150000X-0.587500X-0.150000X0.587500X-0.150000X0*%
%ADD56RoundRect,0.250000X0.325000X0.650000X-0.325000X0.650000X-0.325000X-0.650000X0.325000X-0.650000X0*%
%ADD57R,1.000000X1.500000*%
%ADD58RoundRect,0.250000X-0.325000X-0.650000X0.325000X-0.650000X0.325000X0.650000X-0.325000X0.650000X0*%
G04 APERTURE END LIST*
D10*
X100085595Y-166428571D02*
X100418928Y-166428571D01*
X100561785Y-166952380D02*
X100085595Y-166952380D01*
X100085595Y-165952380D01*
X100561785Y-165952380D01*
X101418928Y-166952380D02*
X101418928Y-166428571D01*
X101371309Y-166333333D01*
X101276071Y-166285714D01*
X101085595Y-166285714D01*
X100990357Y-166333333D01*
X101418928Y-166904761D02*
X101323690Y-166952380D01*
X101085595Y-166952380D01*
X100990357Y-166904761D01*
X100942738Y-166809523D01*
X100942738Y-166714285D01*
X100990357Y-166619047D01*
X101085595Y-166571428D01*
X101323690Y-166571428D01*
X101418928Y-166523809D01*
X101847500Y-166904761D02*
X101942738Y-166952380D01*
X102133214Y-166952380D01*
X102228452Y-166904761D01*
X102276071Y-166809523D01*
X102276071Y-166761904D01*
X102228452Y-166666666D01*
X102133214Y-166619047D01*
X101990357Y-166619047D01*
X101895119Y-166571428D01*
X101847500Y-166476190D01*
X101847500Y-166428571D01*
X101895119Y-166333333D01*
X101990357Y-166285714D01*
X102133214Y-166285714D01*
X102228452Y-166333333D01*
X102609404Y-166285714D02*
X102847500Y-166952380D01*
X103085595Y-166285714D02*
X102847500Y-166952380D01*
X102752261Y-167190476D01*
X102704642Y-167238095D01*
X102609404Y-167285714D01*
X104228452Y-166952380D02*
X104228452Y-165952380D01*
X104799880Y-166952380D02*
X104371309Y-166380952D01*
X104799880Y-165952380D02*
X104228452Y-166523809D01*
X105085595Y-165952380D02*
X105418928Y-166952380D01*
X105752261Y-165952380D01*
X106085595Y-166952380D02*
X106085595Y-165952380D01*
X106418928Y-166666666D01*
X106752261Y-165952380D01*
X106752261Y-166952380D01*
X108561785Y-166952380D02*
X108228452Y-166476190D01*
X107990357Y-166952380D02*
X107990357Y-165952380D01*
X108371309Y-165952380D01*
X108466547Y-166000000D01*
X108514166Y-166047619D01*
X108561785Y-166142857D01*
X108561785Y-166285714D01*
X108514166Y-166380952D01*
X108466547Y-166428571D01*
X108371309Y-166476190D01*
X107990357Y-166476190D01*
X109514166Y-166952380D02*
X108942738Y-166952380D01*
X109228452Y-166952380D02*
X109228452Y-165952380D01*
X109133214Y-166095238D01*
X109037976Y-166190476D01*
X108942738Y-166238095D01*
X109942738Y-166857142D02*
X109990357Y-166904761D01*
X109942738Y-166952380D01*
X109895119Y-166904761D01*
X109942738Y-166857142D01*
X109942738Y-166952380D01*
X110942738Y-166952380D02*
X110371309Y-166952380D01*
X110657023Y-166952380D02*
X110657023Y-165952380D01*
X110561785Y-166095238D01*
X110466547Y-166190476D01*
X110371309Y-166238095D01*
X162007142Y-127262380D02*
X161673809Y-126786190D01*
X161435714Y-127262380D02*
X161435714Y-126262380D01*
X161816666Y-126262380D01*
X161911904Y-126310000D01*
X161959523Y-126357619D01*
X162007142Y-126452857D01*
X162007142Y-126595714D01*
X161959523Y-126690952D01*
X161911904Y-126738571D01*
X161816666Y-126786190D01*
X161435714Y-126786190D01*
X162959523Y-127262380D02*
X162388095Y-127262380D01*
X162673809Y-127262380D02*
X162673809Y-126262380D01*
X162578571Y-126405238D01*
X162483333Y-126500476D01*
X162388095Y-126548095D01*
X163816666Y-126262380D02*
X163626190Y-126262380D01*
X163530952Y-126310000D01*
X163483333Y-126357619D01*
X163388095Y-126500476D01*
X163340476Y-126690952D01*
X163340476Y-127071904D01*
X163388095Y-127167142D01*
X163435714Y-127214761D01*
X163530952Y-127262380D01*
X163721428Y-127262380D01*
X163816666Y-127214761D01*
X163864285Y-127167142D01*
X163911904Y-127071904D01*
X163911904Y-126833809D01*
X163864285Y-126738571D01*
X163816666Y-126690952D01*
X163721428Y-126643333D01*
X163530952Y-126643333D01*
X163435714Y-126690952D01*
X163388095Y-126738571D01*
X163340476Y-126833809D01*
X144632380Y-124592857D02*
X144156190Y-124926190D01*
X144632380Y-125164285D02*
X143632380Y-125164285D01*
X143632380Y-124783333D01*
X143680000Y-124688095D01*
X143727619Y-124640476D01*
X143822857Y-124592857D01*
X143965714Y-124592857D01*
X144060952Y-124640476D01*
X144108571Y-124688095D01*
X144156190Y-124783333D01*
X144156190Y-125164285D01*
X144632380Y-123640476D02*
X144632380Y-124211904D01*
X144632380Y-123926190D02*
X143632380Y-123926190D01*
X143775238Y-124021428D01*
X143870476Y-124116666D01*
X143918095Y-124211904D01*
X143965714Y-122783333D02*
X144632380Y-122783333D01*
X143584761Y-123021428D02*
X144299047Y-123259523D01*
X144299047Y-122640476D01*
X102128095Y-107742380D02*
X102128095Y-108551904D01*
X102175714Y-108647142D01*
X102223333Y-108694761D01*
X102318571Y-108742380D01*
X102509047Y-108742380D01*
X102604285Y-108694761D01*
X102651904Y-108647142D01*
X102699523Y-108551904D01*
X102699523Y-107742380D01*
X103699523Y-108742380D02*
X103128095Y-108742380D01*
X103413809Y-108742380D02*
X103413809Y-107742380D01*
X103318571Y-107885238D01*
X103223333Y-107980476D01*
X103128095Y-108028095D01*
X156533333Y-139477142D02*
X156485714Y-139524761D01*
X156342857Y-139572380D01*
X156247619Y-139572380D01*
X156104761Y-139524761D01*
X156009523Y-139429523D01*
X155961904Y-139334285D01*
X155914285Y-139143809D01*
X155914285Y-139000952D01*
X155961904Y-138810476D01*
X156009523Y-138715238D01*
X156104761Y-138620000D01*
X156247619Y-138572380D01*
X156342857Y-138572380D01*
X156485714Y-138620000D01*
X156533333Y-138667619D01*
X156866666Y-138572380D02*
X157533333Y-138572380D01*
X157104761Y-139572380D01*
D11*
X99996523Y-124903333D02*
X100903666Y-124903333D01*
X101085095Y-124963809D01*
X101206047Y-125084761D01*
X101266523Y-125266190D01*
X101266523Y-125387142D01*
X99996523Y-124419523D02*
X99996523Y-123633333D01*
X100480333Y-124056666D01*
X100480333Y-123875238D01*
X100540809Y-123754285D01*
X100601285Y-123693809D01*
X100722238Y-123633333D01*
X101024619Y-123633333D01*
X101145571Y-123693809D01*
X101206047Y-123754285D01*
X101266523Y-123875238D01*
X101266523Y-124238095D01*
X101206047Y-124359047D01*
X101145571Y-124419523D01*
D10*
X163077142Y-158172380D02*
X162743809Y-157696190D01*
X162505714Y-158172380D02*
X162505714Y-157172380D01*
X162886666Y-157172380D01*
X162981904Y-157220000D01*
X163029523Y-157267619D01*
X163077142Y-157362857D01*
X163077142Y-157505714D01*
X163029523Y-157600952D01*
X162981904Y-157648571D01*
X162886666Y-157696190D01*
X162505714Y-157696190D01*
X164029523Y-158172380D02*
X163458095Y-158172380D01*
X163743809Y-158172380D02*
X163743809Y-157172380D01*
X163648571Y-157315238D01*
X163553333Y-157410476D01*
X163458095Y-157458095D01*
X164505714Y-158172380D02*
X164696190Y-158172380D01*
X164791428Y-158124761D01*
X164839047Y-158077142D01*
X164934285Y-157934285D01*
X164981904Y-157743809D01*
X164981904Y-157362857D01*
X164934285Y-157267619D01*
X164886666Y-157220000D01*
X164791428Y-157172380D01*
X164600952Y-157172380D01*
X164505714Y-157220000D01*
X164458095Y-157267619D01*
X164410476Y-157362857D01*
X164410476Y-157600952D01*
X164458095Y-157696190D01*
X164505714Y-157743809D01*
X164600952Y-157791428D01*
X164791428Y-157791428D01*
X164886666Y-157743809D01*
X164934285Y-157696190D01*
X164981904Y-157600952D01*
X144472722Y-156357142D02*
X144425103Y-156404761D01*
X144282246Y-156452380D01*
X144187008Y-156452380D01*
X144044151Y-156404761D01*
X143948913Y-156309523D01*
X143901294Y-156214285D01*
X143853675Y-156023809D01*
X143853675Y-155880952D01*
X143901294Y-155690476D01*
X143948913Y-155595238D01*
X144044151Y-155500000D01*
X144187008Y-155452380D01*
X144282246Y-155452380D01*
X144425103Y-155500000D01*
X144472722Y-155547619D01*
X145425103Y-156452380D02*
X144853675Y-156452380D01*
X145139389Y-156452380D02*
X145139389Y-155452380D01*
X145044151Y-155595238D01*
X144948913Y-155690476D01*
X144853675Y-155738095D01*
X146282246Y-155785714D02*
X146282246Y-156452380D01*
X146044151Y-155404761D02*
X145806056Y-156119047D01*
X146425103Y-156119047D01*
X148021904Y-146602380D02*
X148021904Y-147411904D01*
X148069523Y-147507142D01*
X148117142Y-147554761D01*
X148212380Y-147602380D01*
X148402857Y-147602380D01*
X148498095Y-147554761D01*
X148545714Y-147507142D01*
X148593333Y-147411904D01*
X148593333Y-146602380D01*
X149593333Y-147602380D02*
X149021904Y-147602380D01*
X149307619Y-147602380D02*
X149307619Y-146602380D01*
X149212380Y-146745238D01*
X149117142Y-146840476D01*
X149021904Y-146888095D01*
X150545714Y-147602380D02*
X149974285Y-147602380D01*
X150260000Y-147602380D02*
X150260000Y-146602380D01*
X150164761Y-146745238D01*
X150069523Y-146840476D01*
X149974285Y-146888095D01*
X145153333Y-105492380D02*
X144820000Y-105016190D01*
X144581904Y-105492380D02*
X144581904Y-104492380D01*
X144962857Y-104492380D01*
X145058095Y-104540000D01*
X145105714Y-104587619D01*
X145153333Y-104682857D01*
X145153333Y-104825714D01*
X145105714Y-104920952D01*
X145058095Y-104968571D01*
X144962857Y-105016190D01*
X144581904Y-105016190D01*
X145724761Y-104920952D02*
X145629523Y-104873333D01*
X145581904Y-104825714D01*
X145534285Y-104730476D01*
X145534285Y-104682857D01*
X145581904Y-104587619D01*
X145629523Y-104540000D01*
X145724761Y-104492380D01*
X145915238Y-104492380D01*
X146010476Y-104540000D01*
X146058095Y-104587619D01*
X146105714Y-104682857D01*
X146105714Y-104730476D01*
X146058095Y-104825714D01*
X146010476Y-104873333D01*
X145915238Y-104920952D01*
X145724761Y-104920952D01*
X145629523Y-104968571D01*
X145581904Y-105016190D01*
X145534285Y-105111428D01*
X145534285Y-105301904D01*
X145581904Y-105397142D01*
X145629523Y-105444761D01*
X145724761Y-105492380D01*
X145915238Y-105492380D01*
X146010476Y-105444761D01*
X146058095Y-105397142D01*
X146105714Y-105301904D01*
X146105714Y-105111428D01*
X146058095Y-105016190D01*
X146010476Y-104968571D01*
X145915238Y-104920952D01*
X137287142Y-133946666D02*
X137334761Y-133994285D01*
X137382380Y-134137142D01*
X137382380Y-134232380D01*
X137334761Y-134375238D01*
X137239523Y-134470476D01*
X137144285Y-134518095D01*
X136953809Y-134565714D01*
X136810952Y-134565714D01*
X136620476Y-134518095D01*
X136525238Y-134470476D01*
X136430000Y-134375238D01*
X136382380Y-134232380D01*
X136382380Y-134137142D01*
X136430000Y-133994285D01*
X136477619Y-133946666D01*
X136382380Y-133041904D02*
X136382380Y-133518095D01*
X136858571Y-133565714D01*
X136810952Y-133518095D01*
X136763333Y-133422857D01*
X136763333Y-133184761D01*
X136810952Y-133089523D01*
X136858571Y-133041904D01*
X136953809Y-132994285D01*
X137191904Y-132994285D01*
X137287142Y-133041904D01*
X137334761Y-133089523D01*
X137382380Y-133184761D01*
X137382380Y-133422857D01*
X137334761Y-133518095D01*
X137287142Y-133565714D01*
X159458095Y-131252380D02*
X159458095Y-132061904D01*
X159505714Y-132157142D01*
X159553333Y-132204761D01*
X159648571Y-132252380D01*
X159839047Y-132252380D01*
X159934285Y-132204761D01*
X159981904Y-132157142D01*
X160029523Y-132061904D01*
X160029523Y-131252380D01*
X160648571Y-131680952D02*
X160553333Y-131633333D01*
X160505714Y-131585714D01*
X160458095Y-131490476D01*
X160458095Y-131442857D01*
X160505714Y-131347619D01*
X160553333Y-131300000D01*
X160648571Y-131252380D01*
X160839047Y-131252380D01*
X160934285Y-131300000D01*
X160981904Y-131347619D01*
X161029523Y-131442857D01*
X161029523Y-131490476D01*
X160981904Y-131585714D01*
X160934285Y-131633333D01*
X160839047Y-131680952D01*
X160648571Y-131680952D01*
X160553333Y-131728571D01*
X160505714Y-131776190D01*
X160458095Y-131871428D01*
X160458095Y-132061904D01*
X160505714Y-132157142D01*
X160553333Y-132204761D01*
X160648571Y-132252380D01*
X160839047Y-132252380D01*
X160934285Y-132204761D01*
X160981904Y-132157142D01*
X161029523Y-132061904D01*
X161029523Y-131871428D01*
X160981904Y-131776190D01*
X160934285Y-131728571D01*
X160839047Y-131680952D01*
X143407142Y-142737142D02*
X143359523Y-142784761D01*
X143216666Y-142832380D01*
X143121428Y-142832380D01*
X142978571Y-142784761D01*
X142883333Y-142689523D01*
X142835714Y-142594285D01*
X142788095Y-142403809D01*
X142788095Y-142260952D01*
X142835714Y-142070476D01*
X142883333Y-141975238D01*
X142978571Y-141880000D01*
X143121428Y-141832380D01*
X143216666Y-141832380D01*
X143359523Y-141880000D01*
X143407142Y-141927619D01*
X144359523Y-142832380D02*
X143788095Y-142832380D01*
X144073809Y-142832380D02*
X144073809Y-141832380D01*
X143978571Y-141975238D01*
X143883333Y-142070476D01*
X143788095Y-142118095D01*
X144692857Y-141832380D02*
X145311904Y-141832380D01*
X144978571Y-142213333D01*
X145121428Y-142213333D01*
X145216666Y-142260952D01*
X145264285Y-142308571D01*
X145311904Y-142403809D01*
X145311904Y-142641904D01*
X145264285Y-142737142D01*
X145216666Y-142784761D01*
X145121428Y-142832380D01*
X144835714Y-142832380D01*
X144740476Y-142784761D01*
X144692857Y-142737142D01*
X111022380Y-121717857D02*
X110546190Y-122051190D01*
X111022380Y-122289285D02*
X110022380Y-122289285D01*
X110022380Y-121908333D01*
X110070000Y-121813095D01*
X110117619Y-121765476D01*
X110212857Y-121717857D01*
X110355714Y-121717857D01*
X110450952Y-121765476D01*
X110498571Y-121813095D01*
X110546190Y-121908333D01*
X110546190Y-122289285D01*
X111022380Y-120765476D02*
X111022380Y-121336904D01*
X111022380Y-121051190D02*
X110022380Y-121051190D01*
X110165238Y-121146428D01*
X110260476Y-121241666D01*
X110308095Y-121336904D01*
X110117619Y-120384523D02*
X110070000Y-120336904D01*
X110022380Y-120241666D01*
X110022380Y-120003571D01*
X110070000Y-119908333D01*
X110117619Y-119860714D01*
X110212857Y-119813095D01*
X110308095Y-119813095D01*
X110450952Y-119860714D01*
X111022380Y-120432142D01*
X111022380Y-119813095D01*
X105913333Y-110142380D02*
X105580000Y-109666190D01*
X105341904Y-110142380D02*
X105341904Y-109142380D01*
X105722857Y-109142380D01*
X105818095Y-109190000D01*
X105865714Y-109237619D01*
X105913333Y-109332857D01*
X105913333Y-109475714D01*
X105865714Y-109570952D01*
X105818095Y-109618571D01*
X105722857Y-109666190D01*
X105341904Y-109666190D01*
X106294285Y-109237619D02*
X106341904Y-109190000D01*
X106437142Y-109142380D01*
X106675238Y-109142380D01*
X106770476Y-109190000D01*
X106818095Y-109237619D01*
X106865714Y-109332857D01*
X106865714Y-109428095D01*
X106818095Y-109570952D01*
X106246666Y-110142380D01*
X106865714Y-110142380D01*
X162562380Y-133833333D02*
X163276666Y-133833333D01*
X163419523Y-133880952D01*
X163514761Y-133976190D01*
X163562380Y-134119047D01*
X163562380Y-134214285D01*
X162895714Y-132928571D02*
X163562380Y-132928571D01*
X162514761Y-133166666D02*
X163229047Y-133404761D01*
X163229047Y-132785714D01*
D11*
X99996523Y-148852833D02*
X100903666Y-148852833D01*
X101085095Y-148913309D01*
X101206047Y-149034261D01*
X101266523Y-149215690D01*
X101266523Y-149336642D01*
X99996523Y-147643309D02*
X99996523Y-148248071D01*
X100601285Y-148308547D01*
X100540809Y-148248071D01*
X100480333Y-148127119D01*
X100480333Y-147824738D01*
X100540809Y-147703785D01*
X100601285Y-147643309D01*
X100722238Y-147582833D01*
X101024619Y-147582833D01*
X101145571Y-147643309D01*
X101206047Y-147703785D01*
X101266523Y-147824738D01*
X101266523Y-148127119D01*
X101206047Y-148248071D01*
X101145571Y-148308547D01*
D10*
X105933333Y-107402380D02*
X105600000Y-106926190D01*
X105361904Y-107402380D02*
X105361904Y-106402380D01*
X105742857Y-106402380D01*
X105838095Y-106450000D01*
X105885714Y-106497619D01*
X105933333Y-106592857D01*
X105933333Y-106735714D01*
X105885714Y-106830952D01*
X105838095Y-106878571D01*
X105742857Y-106926190D01*
X105361904Y-106926190D01*
X106885714Y-107402380D02*
X106314285Y-107402380D01*
X106600000Y-107402380D02*
X106600000Y-106402380D01*
X106504761Y-106545238D01*
X106409523Y-106640476D01*
X106314285Y-106688095D01*
X99314880Y-106883333D02*
X100029166Y-106883333D01*
X100172023Y-106930952D01*
X100267261Y-107026190D01*
X100314880Y-107169047D01*
X100314880Y-107264285D01*
X100314880Y-105883333D02*
X100314880Y-106454761D01*
X100314880Y-106169047D02*
X99314880Y-106169047D01*
X99457738Y-106264285D01*
X99552976Y-106359523D01*
X99600595Y-106454761D01*
X116724761Y-133107619D02*
X116629523Y-133060000D01*
X116534285Y-132964761D01*
X116391428Y-132821904D01*
X116296190Y-132774285D01*
X116200952Y-132774285D01*
X116248571Y-133012380D02*
X116153333Y-132964761D01*
X116058095Y-132869523D01*
X116010476Y-132679047D01*
X116010476Y-132345714D01*
X116058095Y-132155238D01*
X116153333Y-132060000D01*
X116248571Y-132012380D01*
X116439047Y-132012380D01*
X116534285Y-132060000D01*
X116629523Y-132155238D01*
X116677142Y-132345714D01*
X116677142Y-132679047D01*
X116629523Y-132869523D01*
X116534285Y-132964761D01*
X116439047Y-133012380D01*
X116248571Y-133012380D01*
X117058095Y-132107619D02*
X117105714Y-132060000D01*
X117200952Y-132012380D01*
X117439047Y-132012380D01*
X117534285Y-132060000D01*
X117581904Y-132107619D01*
X117629523Y-132202857D01*
X117629523Y-132298095D01*
X117581904Y-132440952D01*
X117010476Y-133012380D01*
X117629523Y-133012380D01*
X160948095Y-104327380D02*
X160948095Y-105136904D01*
X160995714Y-105232142D01*
X161043333Y-105279761D01*
X161138571Y-105327380D01*
X161329047Y-105327380D01*
X161424285Y-105279761D01*
X161471904Y-105232142D01*
X161519523Y-105136904D01*
X161519523Y-104327380D01*
X162424285Y-104660714D02*
X162424285Y-105327380D01*
X162186190Y-104279761D02*
X161948095Y-104994047D01*
X162567142Y-104994047D01*
X131086666Y-151042380D02*
X131086666Y-151756666D01*
X131039047Y-151899523D01*
X130943809Y-151994761D01*
X130800952Y-152042380D01*
X130705714Y-152042380D01*
X131991428Y-151042380D02*
X131800952Y-151042380D01*
X131705714Y-151090000D01*
X131658095Y-151137619D01*
X131562857Y-151280476D01*
X131515238Y-151470952D01*
X131515238Y-151851904D01*
X131562857Y-151947142D01*
X131610476Y-151994761D01*
X131705714Y-152042380D01*
X131896190Y-152042380D01*
X131991428Y-151994761D01*
X132039047Y-151947142D01*
X132086666Y-151851904D01*
X132086666Y-151613809D01*
X132039047Y-151518571D01*
X131991428Y-151470952D01*
X131896190Y-151423333D01*
X131705714Y-151423333D01*
X131610476Y-151470952D01*
X131562857Y-151518571D01*
X131515238Y-151613809D01*
X151592380Y-144493333D02*
X152306666Y-144493333D01*
X152449523Y-144540952D01*
X152544761Y-144636190D01*
X152592380Y-144779047D01*
X152592380Y-144874285D01*
X151592380Y-144112380D02*
X151592380Y-143445714D01*
X152592380Y-143874285D01*
X157103333Y-101647142D02*
X157055714Y-101694761D01*
X156912857Y-101742380D01*
X156817619Y-101742380D01*
X156674761Y-101694761D01*
X156579523Y-101599523D01*
X156531904Y-101504285D01*
X156484285Y-101313809D01*
X156484285Y-101170952D01*
X156531904Y-100980476D01*
X156579523Y-100885238D01*
X156674761Y-100790000D01*
X156817619Y-100742380D01*
X156912857Y-100742380D01*
X157055714Y-100790000D01*
X157103333Y-100837619D01*
X157960476Y-101075714D02*
X157960476Y-101742380D01*
X157722380Y-100694761D02*
X157484285Y-101409047D01*
X158103333Y-101409047D01*
X147612142Y-123966086D02*
X147659761Y-124013705D01*
X147707380Y-124156562D01*
X147707380Y-124251800D01*
X147659761Y-124394658D01*
X147564523Y-124489896D01*
X147469285Y-124537515D01*
X147278809Y-124585134D01*
X147135952Y-124585134D01*
X146945476Y-124537515D01*
X146850238Y-124489896D01*
X146755000Y-124394658D01*
X146707380Y-124251800D01*
X146707380Y-124156562D01*
X146755000Y-124013705D01*
X146802619Y-123966086D01*
X147135952Y-123394658D02*
X147088333Y-123489896D01*
X147040714Y-123537515D01*
X146945476Y-123585134D01*
X146897857Y-123585134D01*
X146802619Y-123537515D01*
X146755000Y-123489896D01*
X146707380Y-123394658D01*
X146707380Y-123204181D01*
X146755000Y-123108943D01*
X146802619Y-123061324D01*
X146897857Y-123013705D01*
X146945476Y-123013705D01*
X147040714Y-123061324D01*
X147088333Y-123108943D01*
X147135952Y-123204181D01*
X147135952Y-123394658D01*
X147183571Y-123489896D01*
X147231190Y-123537515D01*
X147326428Y-123585134D01*
X147516904Y-123585134D01*
X147612142Y-123537515D01*
X147659761Y-123489896D01*
X147707380Y-123394658D01*
X147707380Y-123204181D01*
X147659761Y-123108943D01*
X147612142Y-123061324D01*
X147516904Y-123013705D01*
X147326428Y-123013705D01*
X147231190Y-123061324D01*
X147183571Y-123108943D01*
X147135952Y-123204181D01*
X138082380Y-101196666D02*
X137606190Y-101530000D01*
X138082380Y-101768095D02*
X137082380Y-101768095D01*
X137082380Y-101387142D01*
X137130000Y-101291904D01*
X137177619Y-101244285D01*
X137272857Y-101196666D01*
X137415714Y-101196666D01*
X137510952Y-101244285D01*
X137558571Y-101291904D01*
X137606190Y-101387142D01*
X137606190Y-101768095D01*
X137082380Y-100339523D02*
X137082380Y-100530000D01*
X137130000Y-100625238D01*
X137177619Y-100672857D01*
X137320476Y-100768095D01*
X137510952Y-100815714D01*
X137891904Y-100815714D01*
X137987142Y-100768095D01*
X138034761Y-100720476D01*
X138082380Y-100625238D01*
X138082380Y-100434761D01*
X138034761Y-100339523D01*
X137987142Y-100291904D01*
X137891904Y-100244285D01*
X137653809Y-100244285D01*
X137558571Y-100291904D01*
X137510952Y-100339523D01*
X137463333Y-100434761D01*
X137463333Y-100625238D01*
X137510952Y-100720476D01*
X137558571Y-100768095D01*
X137653809Y-100815714D01*
X110693333Y-101307142D02*
X110645714Y-101354761D01*
X110502857Y-101402380D01*
X110407619Y-101402380D01*
X110264761Y-101354761D01*
X110169523Y-101259523D01*
X110121904Y-101164285D01*
X110074285Y-100973809D01*
X110074285Y-100830952D01*
X110121904Y-100640476D01*
X110169523Y-100545238D01*
X110264761Y-100450000D01*
X110407619Y-100402380D01*
X110502857Y-100402380D01*
X110645714Y-100450000D01*
X110693333Y-100497619D01*
X111645714Y-101402380D02*
X111074285Y-101402380D01*
X111360000Y-101402380D02*
X111360000Y-100402380D01*
X111264761Y-100545238D01*
X111169523Y-100640476D01*
X111074285Y-100688095D01*
X154163333Y-105422380D02*
X153830000Y-104946190D01*
X153591904Y-105422380D02*
X153591904Y-104422380D01*
X153972857Y-104422380D01*
X154068095Y-104470000D01*
X154115714Y-104517619D01*
X154163333Y-104612857D01*
X154163333Y-104755714D01*
X154115714Y-104850952D01*
X154068095Y-104898571D01*
X153972857Y-104946190D01*
X153591904Y-104946190D01*
X154639523Y-105422380D02*
X154830000Y-105422380D01*
X154925238Y-105374761D01*
X154972857Y-105327142D01*
X155068095Y-105184285D01*
X155115714Y-104993809D01*
X155115714Y-104612857D01*
X155068095Y-104517619D01*
X155020476Y-104470000D01*
X154925238Y-104422380D01*
X154734761Y-104422380D01*
X154639523Y-104470000D01*
X154591904Y-104517619D01*
X154544285Y-104612857D01*
X154544285Y-104850952D01*
X154591904Y-104946190D01*
X154639523Y-104993809D01*
X154734761Y-105041428D01*
X154925238Y-105041428D01*
X155020476Y-104993809D01*
X155068095Y-104946190D01*
X155115714Y-104850952D01*
X111183333Y-107462380D02*
X110850000Y-106986190D01*
X110611904Y-107462380D02*
X110611904Y-106462380D01*
X110992857Y-106462380D01*
X111088095Y-106510000D01*
X111135714Y-106557619D01*
X111183333Y-106652857D01*
X111183333Y-106795714D01*
X111135714Y-106890952D01*
X111088095Y-106938571D01*
X110992857Y-106986190D01*
X110611904Y-106986190D01*
X112040476Y-106795714D02*
X112040476Y-107462380D01*
X111802380Y-106414761D02*
X111564285Y-107129047D01*
X112183333Y-107129047D01*
X141314761Y-122897619D02*
X141219523Y-122850000D01*
X141124285Y-122754761D01*
X140981428Y-122611904D01*
X140886190Y-122564285D01*
X140790952Y-122564285D01*
X140838571Y-122802380D02*
X140743333Y-122754761D01*
X140648095Y-122659523D01*
X140600476Y-122469047D01*
X140600476Y-122135714D01*
X140648095Y-121945238D01*
X140743333Y-121850000D01*
X140838571Y-121802380D01*
X141029047Y-121802380D01*
X141124285Y-121850000D01*
X141219523Y-121945238D01*
X141267142Y-122135714D01*
X141267142Y-122469047D01*
X141219523Y-122659523D01*
X141124285Y-122754761D01*
X141029047Y-122802380D01*
X140838571Y-122802380D01*
X142124285Y-122135714D02*
X142124285Y-122802380D01*
X141886190Y-121754761D02*
X141648095Y-122469047D01*
X142267142Y-122469047D01*
X160457142Y-166412380D02*
X160123809Y-165936190D01*
X159885714Y-166412380D02*
X159885714Y-165412380D01*
X160266666Y-165412380D01*
X160361904Y-165460000D01*
X160409523Y-165507619D01*
X160457142Y-165602857D01*
X160457142Y-165745714D01*
X160409523Y-165840952D01*
X160361904Y-165888571D01*
X160266666Y-165936190D01*
X159885714Y-165936190D01*
X161409523Y-166412380D02*
X160838095Y-166412380D01*
X161123809Y-166412380D02*
X161123809Y-165412380D01*
X161028571Y-165555238D01*
X160933333Y-165650476D01*
X160838095Y-165698095D01*
X161980952Y-165840952D02*
X161885714Y-165793333D01*
X161838095Y-165745714D01*
X161790476Y-165650476D01*
X161790476Y-165602857D01*
X161838095Y-165507619D01*
X161885714Y-165460000D01*
X161980952Y-165412380D01*
X162171428Y-165412380D01*
X162266666Y-165460000D01*
X162314285Y-165507619D01*
X162361904Y-165602857D01*
X162361904Y-165650476D01*
X162314285Y-165745714D01*
X162266666Y-165793333D01*
X162171428Y-165840952D01*
X161980952Y-165840952D01*
X161885714Y-165888571D01*
X161838095Y-165936190D01*
X161790476Y-166031428D01*
X161790476Y-166221904D01*
X161838095Y-166317142D01*
X161885714Y-166364761D01*
X161980952Y-166412380D01*
X162171428Y-166412380D01*
X162266666Y-166364761D01*
X162314285Y-166317142D01*
X162361904Y-166221904D01*
X162361904Y-166031428D01*
X162314285Y-165936190D01*
X162266666Y-165888571D01*
X162171428Y-165840952D01*
X131867142Y-121442380D02*
X131533809Y-120966190D01*
X131295714Y-121442380D02*
X131295714Y-120442380D01*
X131676666Y-120442380D01*
X131771904Y-120490000D01*
X131819523Y-120537619D01*
X131867142Y-120632857D01*
X131867142Y-120775714D01*
X131819523Y-120870952D01*
X131771904Y-120918571D01*
X131676666Y-120966190D01*
X131295714Y-120966190D01*
X132819523Y-121442380D02*
X132248095Y-121442380D01*
X132533809Y-121442380D02*
X132533809Y-120442380D01*
X132438571Y-120585238D01*
X132343333Y-120680476D01*
X132248095Y-120728095D01*
X133152857Y-120442380D02*
X133771904Y-120442380D01*
X133438571Y-120823333D01*
X133581428Y-120823333D01*
X133676666Y-120870952D01*
X133724285Y-120918571D01*
X133771904Y-121013809D01*
X133771904Y-121251904D01*
X133724285Y-121347142D01*
X133676666Y-121394761D01*
X133581428Y-121442380D01*
X133295714Y-121442380D01*
X133200476Y-121394761D01*
X133152857Y-121347142D01*
X156231904Y-137732380D02*
X156231904Y-136732380D01*
X156470000Y-136732380D01*
X156612857Y-136780000D01*
X156708095Y-136875238D01*
X156755714Y-136970476D01*
X156803333Y-137160952D01*
X156803333Y-137303809D01*
X156755714Y-137494285D01*
X156708095Y-137589523D01*
X156612857Y-137684761D01*
X156470000Y-137732380D01*
X156231904Y-137732380D01*
X157755714Y-137732380D02*
X157184285Y-137732380D01*
X157470000Y-137732380D02*
X157470000Y-136732380D01*
X157374761Y-136875238D01*
X157279523Y-136970476D01*
X157184285Y-137018095D01*
X159002380Y-117351904D02*
X159811904Y-117351904D01*
X159907142Y-117304285D01*
X159954761Y-117256666D01*
X160002380Y-117161428D01*
X160002380Y-116970952D01*
X159954761Y-116875714D01*
X159907142Y-116828095D01*
X159811904Y-116780476D01*
X159002380Y-116780476D01*
X159002380Y-116399523D02*
X159002380Y-115732857D01*
X160002380Y-116161428D01*
X158557142Y-163767857D02*
X158604761Y-163815476D01*
X158652380Y-163958333D01*
X158652380Y-164053571D01*
X158604761Y-164196428D01*
X158509523Y-164291666D01*
X158414285Y-164339285D01*
X158223809Y-164386904D01*
X158080952Y-164386904D01*
X157890476Y-164339285D01*
X157795238Y-164291666D01*
X157700000Y-164196428D01*
X157652380Y-164053571D01*
X157652380Y-163958333D01*
X157700000Y-163815476D01*
X157747619Y-163767857D01*
X158652380Y-162815476D02*
X158652380Y-163386904D01*
X158652380Y-163101190D02*
X157652380Y-163101190D01*
X157795238Y-163196428D01*
X157890476Y-163291666D01*
X157938095Y-163386904D01*
X157747619Y-162434523D02*
X157700000Y-162386904D01*
X157652380Y-162291666D01*
X157652380Y-162053571D01*
X157700000Y-161958333D01*
X157747619Y-161910714D01*
X157842857Y-161863095D01*
X157938095Y-161863095D01*
X158080952Y-161910714D01*
X158652380Y-162482142D01*
X158652380Y-161863095D01*
X163814761Y-161857619D02*
X163719523Y-161810000D01*
X163624285Y-161714761D01*
X163481428Y-161571904D01*
X163386190Y-161524285D01*
X163290952Y-161524285D01*
X163338571Y-161762380D02*
X163243333Y-161714761D01*
X163148095Y-161619523D01*
X163100476Y-161429047D01*
X163100476Y-161095714D01*
X163148095Y-160905238D01*
X163243333Y-160810000D01*
X163338571Y-160762380D01*
X163529047Y-160762380D01*
X163624285Y-160810000D01*
X163719523Y-160905238D01*
X163767142Y-161095714D01*
X163767142Y-161429047D01*
X163719523Y-161619523D01*
X163624285Y-161714761D01*
X163529047Y-161762380D01*
X163338571Y-161762380D01*
X164671904Y-160762380D02*
X164195714Y-160762380D01*
X164148095Y-161238571D01*
X164195714Y-161190952D01*
X164290952Y-161143333D01*
X164529047Y-161143333D01*
X164624285Y-161190952D01*
X164671904Y-161238571D01*
X164719523Y-161333809D01*
X164719523Y-161571904D01*
X164671904Y-161667142D01*
X164624285Y-161714761D01*
X164529047Y-161762380D01*
X164290952Y-161762380D01*
X164195714Y-161714761D01*
X164148095Y-161667142D01*
X116724761Y-128597619D02*
X116629523Y-128550000D01*
X116534285Y-128454761D01*
X116391428Y-128311904D01*
X116296190Y-128264285D01*
X116200952Y-128264285D01*
X116248571Y-128502380D02*
X116153333Y-128454761D01*
X116058095Y-128359523D01*
X116010476Y-128169047D01*
X116010476Y-127835714D01*
X116058095Y-127645238D01*
X116153333Y-127550000D01*
X116248571Y-127502380D01*
X116439047Y-127502380D01*
X116534285Y-127550000D01*
X116629523Y-127645238D01*
X116677142Y-127835714D01*
X116677142Y-128169047D01*
X116629523Y-128359523D01*
X116534285Y-128454761D01*
X116439047Y-128502380D01*
X116248571Y-128502380D01*
X117010476Y-127502380D02*
X117629523Y-127502380D01*
X117296190Y-127883333D01*
X117439047Y-127883333D01*
X117534285Y-127930952D01*
X117581904Y-127978571D01*
X117629523Y-128073809D01*
X117629523Y-128311904D01*
X117581904Y-128407142D01*
X117534285Y-128454761D01*
X117439047Y-128502380D01*
X117153333Y-128502380D01*
X117058095Y-128454761D01*
X117010476Y-128407142D01*
X114152380Y-145977857D02*
X113676190Y-146311190D01*
X114152380Y-146549285D02*
X113152380Y-146549285D01*
X113152380Y-146168333D01*
X113200000Y-146073095D01*
X113247619Y-146025476D01*
X113342857Y-145977857D01*
X113485714Y-145977857D01*
X113580952Y-146025476D01*
X113628571Y-146073095D01*
X113676190Y-146168333D01*
X113676190Y-146549285D01*
X114152380Y-145025476D02*
X114152380Y-145596904D01*
X114152380Y-145311190D02*
X113152380Y-145311190D01*
X113295238Y-145406428D01*
X113390476Y-145501666D01*
X113438095Y-145596904D01*
X113152380Y-144692142D02*
X113152380Y-144025476D01*
X114152380Y-144454047D01*
X162552380Y-110523333D02*
X163266666Y-110523333D01*
X163409523Y-110570952D01*
X163504761Y-110666190D01*
X163552380Y-110809047D01*
X163552380Y-110904285D01*
X162647619Y-110094761D02*
X162600000Y-110047142D01*
X162552380Y-109951904D01*
X162552380Y-109713809D01*
X162600000Y-109618571D01*
X162647619Y-109570952D01*
X162742857Y-109523333D01*
X162838095Y-109523333D01*
X162980952Y-109570952D01*
X163552380Y-110142380D01*
X163552380Y-109523333D01*
X111123333Y-110132380D02*
X110790000Y-109656190D01*
X110551904Y-110132380D02*
X110551904Y-109132380D01*
X110932857Y-109132380D01*
X111028095Y-109180000D01*
X111075714Y-109227619D01*
X111123333Y-109322857D01*
X111123333Y-109465714D01*
X111075714Y-109560952D01*
X111028095Y-109608571D01*
X110932857Y-109656190D01*
X110551904Y-109656190D01*
X111456666Y-109132380D02*
X112075714Y-109132380D01*
X111742380Y-109513333D01*
X111885238Y-109513333D01*
X111980476Y-109560952D01*
X112028095Y-109608571D01*
X112075714Y-109703809D01*
X112075714Y-109941904D01*
X112028095Y-110037142D01*
X111980476Y-110084761D01*
X111885238Y-110132380D01*
X111599523Y-110132380D01*
X111504285Y-110084761D01*
X111456666Y-110037142D01*
X125833333Y-129177142D02*
X125785714Y-129224761D01*
X125642857Y-129272380D01*
X125547619Y-129272380D01*
X125404761Y-129224761D01*
X125309523Y-129129523D01*
X125261904Y-129034285D01*
X125214285Y-128843809D01*
X125214285Y-128700952D01*
X125261904Y-128510476D01*
X125309523Y-128415238D01*
X125404761Y-128320000D01*
X125547619Y-128272380D01*
X125642857Y-128272380D01*
X125785714Y-128320000D01*
X125833333Y-128367619D01*
X126690476Y-128272380D02*
X126500000Y-128272380D01*
X126404761Y-128320000D01*
X126357142Y-128367619D01*
X126261904Y-128510476D01*
X126214285Y-128700952D01*
X126214285Y-129081904D01*
X126261904Y-129177142D01*
X126309523Y-129224761D01*
X126404761Y-129272380D01*
X126595238Y-129272380D01*
X126690476Y-129224761D01*
X126738095Y-129177142D01*
X126785714Y-129081904D01*
X126785714Y-128843809D01*
X126738095Y-128748571D01*
X126690476Y-128700952D01*
X126595238Y-128653333D01*
X126404761Y-128653333D01*
X126309523Y-128700952D01*
X126261904Y-128748571D01*
X126214285Y-128843809D01*
X162451904Y-125302380D02*
X162451904Y-124302380D01*
X162690000Y-124302380D01*
X162832857Y-124350000D01*
X162928095Y-124445238D01*
X162975714Y-124540476D01*
X163023333Y-124730952D01*
X163023333Y-124873809D01*
X162975714Y-125064285D01*
X162928095Y-125159523D01*
X162832857Y-125254761D01*
X162690000Y-125302380D01*
X162451904Y-125302380D01*
X163404285Y-124397619D02*
X163451904Y-124350000D01*
X163547142Y-124302380D01*
X163785238Y-124302380D01*
X163880476Y-124350000D01*
X163928095Y-124397619D01*
X163975714Y-124492857D01*
X163975714Y-124588095D01*
X163928095Y-124730952D01*
X163356666Y-125302380D01*
X163975714Y-125302380D01*
X142992380Y-102471666D02*
X142516190Y-102805000D01*
X142992380Y-103043095D02*
X141992380Y-103043095D01*
X141992380Y-102662142D01*
X142040000Y-102566904D01*
X142087619Y-102519285D01*
X142182857Y-102471666D01*
X142325714Y-102471666D01*
X142420952Y-102519285D01*
X142468571Y-102566904D01*
X142516190Y-102662142D01*
X142516190Y-103043095D01*
X141992380Y-102138333D02*
X141992380Y-101471666D01*
X142992380Y-101900238D01*
X145152380Y-102241904D02*
X145961904Y-102241904D01*
X146057142Y-102194285D01*
X146104761Y-102146666D01*
X146152380Y-102051428D01*
X146152380Y-101860952D01*
X146104761Y-101765714D01*
X146057142Y-101718095D01*
X145961904Y-101670476D01*
X145152380Y-101670476D01*
X145152380Y-101289523D02*
X145152380Y-100670476D01*
X145533333Y-101003809D01*
X145533333Y-100860952D01*
X145580952Y-100765714D01*
X145628571Y-100718095D01*
X145723809Y-100670476D01*
X145961904Y-100670476D01*
X146057142Y-100718095D01*
X146104761Y-100765714D01*
X146152380Y-100860952D01*
X146152380Y-101146666D01*
X146104761Y-101241904D01*
X146057142Y-101289523D01*
D11*
X130642380Y-134094523D02*
X130642380Y-135122619D01*
X130702857Y-135243571D01*
X130763333Y-135304047D01*
X130884285Y-135364523D01*
X131126190Y-135364523D01*
X131247142Y-135304047D01*
X131307619Y-135243571D01*
X131368095Y-135122619D01*
X131368095Y-134094523D01*
X132517142Y-134094523D02*
X132275238Y-134094523D01*
X132154285Y-134155000D01*
X132093809Y-134215476D01*
X131972857Y-134396904D01*
X131912380Y-134638809D01*
X131912380Y-135122619D01*
X131972857Y-135243571D01*
X132033333Y-135304047D01*
X132154285Y-135364523D01*
X132396190Y-135364523D01*
X132517142Y-135304047D01*
X132577619Y-135243571D01*
X132638095Y-135122619D01*
X132638095Y-134820238D01*
X132577619Y-134699285D01*
X132517142Y-134638809D01*
X132396190Y-134578333D01*
X132154285Y-134578333D01*
X132033333Y-134638809D01*
X131972857Y-134699285D01*
X131912380Y-134820238D01*
D10*
X132902380Y-149751904D02*
X133711904Y-149751904D01*
X133807142Y-149704285D01*
X133854761Y-149656666D01*
X133902380Y-149561428D01*
X133902380Y-149370952D01*
X133854761Y-149275714D01*
X133807142Y-149228095D01*
X133711904Y-149180476D01*
X132902380Y-149180476D01*
X133902380Y-148656666D02*
X133902380Y-148466190D01*
X133854761Y-148370952D01*
X133807142Y-148323333D01*
X133664285Y-148228095D01*
X133473809Y-148180476D01*
X133092857Y-148180476D01*
X132997619Y-148228095D01*
X132950000Y-148275714D01*
X132902380Y-148370952D01*
X132902380Y-148561428D01*
X132950000Y-148656666D01*
X132997619Y-148704285D01*
X133092857Y-148751904D01*
X133330952Y-148751904D01*
X133426190Y-148704285D01*
X133473809Y-148656666D01*
X133521428Y-148561428D01*
X133521428Y-148370952D01*
X133473809Y-148275714D01*
X133426190Y-148228095D01*
X133330952Y-148180476D01*
X154887142Y-125692380D02*
X154553809Y-125216190D01*
X154315714Y-125692380D02*
X154315714Y-124692380D01*
X154696666Y-124692380D01*
X154791904Y-124740000D01*
X154839523Y-124787619D01*
X154887142Y-124882857D01*
X154887142Y-125025714D01*
X154839523Y-125120952D01*
X154791904Y-125168571D01*
X154696666Y-125216190D01*
X154315714Y-125216190D01*
X155839523Y-125692380D02*
X155268095Y-125692380D01*
X155553809Y-125692380D02*
X155553809Y-124692380D01*
X155458571Y-124835238D01*
X155363333Y-124930476D01*
X155268095Y-124978095D01*
X156744285Y-124692380D02*
X156268095Y-124692380D01*
X156220476Y-125168571D01*
X156268095Y-125120952D01*
X156363333Y-125073333D01*
X156601428Y-125073333D01*
X156696666Y-125120952D01*
X156744285Y-125168571D01*
X156791904Y-125263809D01*
X156791904Y-125501904D01*
X156744285Y-125597142D01*
X156696666Y-125644761D01*
X156601428Y-125692380D01*
X156363333Y-125692380D01*
X156268095Y-125644761D01*
X156220476Y-125597142D01*
X126468095Y-119862380D02*
X126468095Y-120671904D01*
X126515714Y-120767142D01*
X126563333Y-120814761D01*
X126658571Y-120862380D01*
X126849047Y-120862380D01*
X126944285Y-120814761D01*
X126991904Y-120767142D01*
X127039523Y-120671904D01*
X127039523Y-119862380D01*
X127468095Y-119957619D02*
X127515714Y-119910000D01*
X127610952Y-119862380D01*
X127849047Y-119862380D01*
X127944285Y-119910000D01*
X127991904Y-119957619D01*
X128039523Y-120052857D01*
X128039523Y-120148095D01*
X127991904Y-120290952D01*
X127420476Y-120862380D01*
X128039523Y-120862380D01*
X121213095Y-96286666D02*
X121689285Y-96286666D01*
X121117857Y-96572380D02*
X121451190Y-95572380D01*
X121784523Y-96572380D01*
X122117857Y-95905714D02*
X122117857Y-96572380D01*
X122117857Y-96000952D02*
X122165476Y-95953333D01*
X122260714Y-95905714D01*
X122403571Y-95905714D01*
X122498809Y-95953333D01*
X122546428Y-96048571D01*
X122546428Y-96572380D01*
X122879761Y-95905714D02*
X123260714Y-95905714D01*
X123022619Y-95572380D02*
X123022619Y-96429523D01*
X123070238Y-96524761D01*
X123165476Y-96572380D01*
X123260714Y-96572380D01*
X123975000Y-96524761D02*
X123879761Y-96572380D01*
X123689285Y-96572380D01*
X123594047Y-96524761D01*
X123546428Y-96429523D01*
X123546428Y-96048571D01*
X123594047Y-95953333D01*
X123689285Y-95905714D01*
X123879761Y-95905714D01*
X123975000Y-95953333D01*
X124022619Y-96048571D01*
X124022619Y-96143809D01*
X123546428Y-96239047D01*
X124451190Y-95905714D02*
X124451190Y-96572380D01*
X124451190Y-96000952D02*
X124498809Y-95953333D01*
X124594047Y-95905714D01*
X124736904Y-95905714D01*
X124832142Y-95953333D01*
X124879761Y-96048571D01*
X124879761Y-96572380D01*
X125355952Y-95905714D02*
X125355952Y-96572380D01*
X125355952Y-96000952D02*
X125403571Y-95953333D01*
X125498809Y-95905714D01*
X125641666Y-95905714D01*
X125736904Y-95953333D01*
X125784523Y-96048571D01*
X125784523Y-96572380D01*
X126689285Y-96572380D02*
X126689285Y-96048571D01*
X126641666Y-95953333D01*
X126546428Y-95905714D01*
X126355952Y-95905714D01*
X126260714Y-95953333D01*
X126689285Y-96524761D02*
X126594047Y-96572380D01*
X126355952Y-96572380D01*
X126260714Y-96524761D01*
X126213095Y-96429523D01*
X126213095Y-96334285D01*
X126260714Y-96239047D01*
X126355952Y-96191428D01*
X126594047Y-96191428D01*
X126689285Y-96143809D01*
X127879761Y-96286666D02*
X128355952Y-96286666D01*
X127784523Y-96572380D02*
X128117857Y-95572380D01*
X128451190Y-96572380D01*
X128784523Y-96572380D02*
X128784523Y-95905714D01*
X128784523Y-96096190D02*
X128832142Y-96000952D01*
X128879761Y-95953333D01*
X128975000Y-95905714D01*
X129070238Y-95905714D01*
X129784523Y-96524761D02*
X129689285Y-96572380D01*
X129498809Y-96572380D01*
X129403571Y-96524761D01*
X129355952Y-96429523D01*
X129355952Y-96048571D01*
X129403571Y-95953333D01*
X129498809Y-95905714D01*
X129689285Y-95905714D01*
X129784523Y-95953333D01*
X129832142Y-96048571D01*
X129832142Y-96143809D01*
X129355952Y-96239047D01*
X130689285Y-96572380D02*
X130689285Y-96048571D01*
X130641666Y-95953333D01*
X130546428Y-95905714D01*
X130355952Y-95905714D01*
X130260714Y-95953333D01*
X130689285Y-96524761D02*
X130594047Y-96572380D01*
X130355952Y-96572380D01*
X130260714Y-96524761D01*
X130213095Y-96429523D01*
X130213095Y-96334285D01*
X130260714Y-96239047D01*
X130355952Y-96191428D01*
X130594047Y-96191428D01*
X130689285Y-96143809D01*
X143641666Y-167254761D02*
X143784523Y-167302380D01*
X144022619Y-167302380D01*
X144117857Y-167254761D01*
X144165476Y-167207142D01*
X144213095Y-167111904D01*
X144213095Y-167016666D01*
X144165476Y-166921428D01*
X144117857Y-166873809D01*
X144022619Y-166826190D01*
X143832142Y-166778571D01*
X143736904Y-166730952D01*
X143689285Y-166683333D01*
X143641666Y-166588095D01*
X143641666Y-166492857D01*
X143689285Y-166397619D01*
X143736904Y-166350000D01*
X143832142Y-166302380D01*
X144070238Y-166302380D01*
X144213095Y-166350000D01*
X144546428Y-166302380D02*
X144784523Y-167302380D01*
X144975000Y-166588095D01*
X145165476Y-167302380D01*
X145403571Y-166302380D01*
X146308333Y-167302380D02*
X145736904Y-167302380D01*
X146022619Y-167302380D02*
X146022619Y-166302380D01*
X145927380Y-166445238D01*
X145832142Y-166540476D01*
X145736904Y-166588095D01*
X110603333Y-102977142D02*
X110555714Y-103024761D01*
X110412857Y-103072380D01*
X110317619Y-103072380D01*
X110174761Y-103024761D01*
X110079523Y-102929523D01*
X110031904Y-102834285D01*
X109984285Y-102643809D01*
X109984285Y-102500952D01*
X110031904Y-102310476D01*
X110079523Y-102215238D01*
X110174761Y-102120000D01*
X110317619Y-102072380D01*
X110412857Y-102072380D01*
X110555714Y-102120000D01*
X110603333Y-102167619D01*
X110984285Y-102167619D02*
X111031904Y-102120000D01*
X111127142Y-102072380D01*
X111365238Y-102072380D01*
X111460476Y-102120000D01*
X111508095Y-102167619D01*
X111555714Y-102262857D01*
X111555714Y-102358095D01*
X111508095Y-102500952D01*
X110936666Y-103072380D01*
X111555714Y-103072380D01*
X111243333Y-104982380D02*
X110910000Y-104506190D01*
X110671904Y-104982380D02*
X110671904Y-103982380D01*
X111052857Y-103982380D01*
X111148095Y-104030000D01*
X111195714Y-104077619D01*
X111243333Y-104172857D01*
X111243333Y-104315714D01*
X111195714Y-104410952D01*
X111148095Y-104458571D01*
X111052857Y-104506190D01*
X110671904Y-104506190D01*
X112148095Y-103982380D02*
X111671904Y-103982380D01*
X111624285Y-104458571D01*
X111671904Y-104410952D01*
X111767142Y-104363333D01*
X112005238Y-104363333D01*
X112100476Y-104410952D01*
X112148095Y-104458571D01*
X112195714Y-104553809D01*
X112195714Y-104791904D01*
X112148095Y-104887142D01*
X112100476Y-104934761D01*
X112005238Y-104982380D01*
X111767142Y-104982380D01*
X111671904Y-104934761D01*
X111624285Y-104887142D01*
X156597142Y-99492380D02*
X156263809Y-99016190D01*
X156025714Y-99492380D02*
X156025714Y-98492380D01*
X156406666Y-98492380D01*
X156501904Y-98540000D01*
X156549523Y-98587619D01*
X156597142Y-98682857D01*
X156597142Y-98825714D01*
X156549523Y-98920952D01*
X156501904Y-98968571D01*
X156406666Y-99016190D01*
X156025714Y-99016190D01*
X157549523Y-99492380D02*
X156978095Y-99492380D01*
X157263809Y-99492380D02*
X157263809Y-98492380D01*
X157168571Y-98635238D01*
X157073333Y-98730476D01*
X156978095Y-98778095D01*
X158168571Y-98492380D02*
X158263809Y-98492380D01*
X158359047Y-98540000D01*
X158406666Y-98587619D01*
X158454285Y-98682857D01*
X158501904Y-98873333D01*
X158501904Y-99111428D01*
X158454285Y-99301904D01*
X158406666Y-99397142D01*
X158359047Y-99444761D01*
X158263809Y-99492380D01*
X158168571Y-99492380D01*
X158073333Y-99444761D01*
X158025714Y-99397142D01*
X157978095Y-99301904D01*
X157930476Y-99111428D01*
X157930476Y-98873333D01*
X157978095Y-98682857D01*
X158025714Y-98587619D01*
X158073333Y-98540000D01*
X158168571Y-98492380D01*
X141061904Y-150812380D02*
X141061904Y-151621904D01*
X141109523Y-151717142D01*
X141157142Y-151764761D01*
X141252380Y-151812380D01*
X141442857Y-151812380D01*
X141538095Y-151764761D01*
X141585714Y-151717142D01*
X141633333Y-151621904D01*
X141633333Y-150812380D01*
X142633333Y-151812380D02*
X142061904Y-151812380D01*
X142347619Y-151812380D02*
X142347619Y-150812380D01*
X142252380Y-150955238D01*
X142157142Y-151050476D01*
X142061904Y-151098095D01*
X143252380Y-150812380D02*
X143347619Y-150812380D01*
X143442857Y-150860000D01*
X143490476Y-150907619D01*
X143538095Y-151002857D01*
X143585714Y-151193333D01*
X143585714Y-151431428D01*
X143538095Y-151621904D01*
X143490476Y-151717142D01*
X143442857Y-151764761D01*
X143347619Y-151812380D01*
X143252380Y-151812380D01*
X143157142Y-151764761D01*
X143109523Y-151717142D01*
X143061904Y-151621904D01*
X143014285Y-151431428D01*
X143014285Y-151193333D01*
X143061904Y-151002857D01*
X143109523Y-150907619D01*
X143157142Y-150860000D01*
X143252380Y-150812380D01*
X141314761Y-113212619D02*
X141219523Y-113165000D01*
X141124285Y-113069761D01*
X140981428Y-112926904D01*
X140886190Y-112879285D01*
X140790952Y-112879285D01*
X140838571Y-113117380D02*
X140743333Y-113069761D01*
X140648095Y-112974523D01*
X140600476Y-112784047D01*
X140600476Y-112450714D01*
X140648095Y-112260238D01*
X140743333Y-112165000D01*
X140838571Y-112117380D01*
X141029047Y-112117380D01*
X141124285Y-112165000D01*
X141219523Y-112260238D01*
X141267142Y-112450714D01*
X141267142Y-112784047D01*
X141219523Y-112974523D01*
X141124285Y-113069761D01*
X141029047Y-113117380D01*
X140838571Y-113117380D01*
X142219523Y-113117380D02*
X141648095Y-113117380D01*
X141933809Y-113117380D02*
X141933809Y-112117380D01*
X141838571Y-112260238D01*
X141743333Y-112355476D01*
X141648095Y-112403095D01*
X122007142Y-151197142D02*
X121959523Y-151244761D01*
X121816666Y-151292380D01*
X121721428Y-151292380D01*
X121578571Y-151244761D01*
X121483333Y-151149523D01*
X121435714Y-151054285D01*
X121388095Y-150863809D01*
X121388095Y-150720952D01*
X121435714Y-150530476D01*
X121483333Y-150435238D01*
X121578571Y-150340000D01*
X121721428Y-150292380D01*
X121816666Y-150292380D01*
X121959523Y-150340000D01*
X122007142Y-150387619D01*
X122959523Y-151292380D02*
X122388095Y-151292380D01*
X122673809Y-151292380D02*
X122673809Y-150292380D01*
X122578571Y-150435238D01*
X122483333Y-150530476D01*
X122388095Y-150578095D01*
X123911904Y-151292380D02*
X123340476Y-151292380D01*
X123626190Y-151292380D02*
X123626190Y-150292380D01*
X123530952Y-150435238D01*
X123435714Y-150530476D01*
X123340476Y-150578095D01*
X147202380Y-111032857D02*
X146726190Y-111366190D01*
X147202380Y-111604285D02*
X146202380Y-111604285D01*
X146202380Y-111223333D01*
X146250000Y-111128095D01*
X146297619Y-111080476D01*
X146392857Y-111032857D01*
X146535714Y-111032857D01*
X146630952Y-111080476D01*
X146678571Y-111128095D01*
X146726190Y-111223333D01*
X146726190Y-111604285D01*
X147202380Y-110080476D02*
X147202380Y-110651904D01*
X147202380Y-110366190D02*
X146202380Y-110366190D01*
X146345238Y-110461428D01*
X146440476Y-110556666D01*
X146488095Y-110651904D01*
X147202380Y-109128095D02*
X147202380Y-109699523D01*
X147202380Y-109413809D02*
X146202380Y-109413809D01*
X146345238Y-109509047D01*
X146440476Y-109604285D01*
X146488095Y-109699523D01*
X100858095Y-137907130D02*
X100858095Y-138716654D01*
X100905714Y-138811892D01*
X100953333Y-138859511D01*
X101048571Y-138907130D01*
X101239047Y-138907130D01*
X101334285Y-138859511D01*
X101381904Y-138811892D01*
X101429523Y-138716654D01*
X101429523Y-137907130D01*
X102381904Y-137907130D02*
X101905714Y-137907130D01*
X101858095Y-138383321D01*
X101905714Y-138335702D01*
X102000952Y-138288083D01*
X102239047Y-138288083D01*
X102334285Y-138335702D01*
X102381904Y-138383321D01*
X102429523Y-138478559D01*
X102429523Y-138716654D01*
X102381904Y-138811892D01*
X102334285Y-138859511D01*
X102239047Y-138907130D01*
X102000952Y-138907130D01*
X101905714Y-138859511D01*
X101858095Y-138811892D01*
X153371904Y-167702380D02*
X153371904Y-166702380D01*
X153610000Y-166702380D01*
X153752857Y-166750000D01*
X153848095Y-166845238D01*
X153895714Y-166940476D01*
X153943333Y-167130952D01*
X153943333Y-167273809D01*
X153895714Y-167464285D01*
X153848095Y-167559523D01*
X153752857Y-167654761D01*
X153610000Y-167702380D01*
X153371904Y-167702380D01*
X154276666Y-166702380D02*
X154895714Y-166702380D01*
X154562380Y-167083333D01*
X154705238Y-167083333D01*
X154800476Y-167130952D01*
X154848095Y-167178571D01*
X154895714Y-167273809D01*
X154895714Y-167511904D01*
X154848095Y-167607142D01*
X154800476Y-167654761D01*
X154705238Y-167702380D01*
X154419523Y-167702380D01*
X154324285Y-167654761D01*
X154276666Y-167607142D01*
X155363333Y-128467142D02*
X155315714Y-128514761D01*
X155172857Y-128562380D01*
X155077619Y-128562380D01*
X154934761Y-128514761D01*
X154839523Y-128419523D01*
X154791904Y-128324285D01*
X154744285Y-128133809D01*
X154744285Y-127990952D01*
X154791904Y-127800476D01*
X154839523Y-127705238D01*
X154934761Y-127610000D01*
X155077619Y-127562380D01*
X155172857Y-127562380D01*
X155315714Y-127610000D01*
X155363333Y-127657619D01*
X155839523Y-128562380D02*
X156030000Y-128562380D01*
X156125238Y-128514761D01*
X156172857Y-128467142D01*
X156268095Y-128324285D01*
X156315714Y-128133809D01*
X156315714Y-127752857D01*
X156268095Y-127657619D01*
X156220476Y-127610000D01*
X156125238Y-127562380D01*
X155934761Y-127562380D01*
X155839523Y-127610000D01*
X155791904Y-127657619D01*
X155744285Y-127752857D01*
X155744285Y-127990952D01*
X155791904Y-128086190D01*
X155839523Y-128133809D01*
X155934761Y-128181428D01*
X156125238Y-128181428D01*
X156220476Y-128133809D01*
X156268095Y-128086190D01*
X156315714Y-127990952D01*
X162107142Y-123007142D02*
X162059523Y-123054761D01*
X161916666Y-123102380D01*
X161821428Y-123102380D01*
X161678571Y-123054761D01*
X161583333Y-122959523D01*
X161535714Y-122864285D01*
X161488095Y-122673809D01*
X161488095Y-122530952D01*
X161535714Y-122340476D01*
X161583333Y-122245238D01*
X161678571Y-122150000D01*
X161821428Y-122102380D01*
X161916666Y-122102380D01*
X162059523Y-122150000D01*
X162107142Y-122197619D01*
X163059523Y-123102380D02*
X162488095Y-123102380D01*
X162773809Y-123102380D02*
X162773809Y-122102380D01*
X162678571Y-122245238D01*
X162583333Y-122340476D01*
X162488095Y-122388095D01*
X163678571Y-122102380D02*
X163773809Y-122102380D01*
X163869047Y-122150000D01*
X163916666Y-122197619D01*
X163964285Y-122292857D01*
X164011904Y-122483333D01*
X164011904Y-122721428D01*
X163964285Y-122911904D01*
X163916666Y-123007142D01*
X163869047Y-123054761D01*
X163773809Y-123102380D01*
X163678571Y-123102380D01*
X163583333Y-123054761D01*
X163535714Y-123007142D01*
X163488095Y-122911904D01*
X163440476Y-122721428D01*
X163440476Y-122483333D01*
X163488095Y-122292857D01*
X163535714Y-122197619D01*
X163583333Y-122150000D01*
X163678571Y-122102380D01*
X149557142Y-106266666D02*
X149604761Y-106314285D01*
X149652380Y-106457142D01*
X149652380Y-106552380D01*
X149604761Y-106695238D01*
X149509523Y-106790476D01*
X149414285Y-106838095D01*
X149223809Y-106885714D01*
X149080952Y-106885714D01*
X148890476Y-106838095D01*
X148795238Y-106790476D01*
X148700000Y-106695238D01*
X148652380Y-106552380D01*
X148652380Y-106457142D01*
X148700000Y-106314285D01*
X148747619Y-106266666D01*
X148652380Y-105933333D02*
X148652380Y-105314285D01*
X149033333Y-105647619D01*
X149033333Y-105504761D01*
X149080952Y-105409523D01*
X149128571Y-105361904D01*
X149223809Y-105314285D01*
X149461904Y-105314285D01*
X149557142Y-105361904D01*
X149604761Y-105409523D01*
X149652380Y-105504761D01*
X149652380Y-105790476D01*
X149604761Y-105885714D01*
X149557142Y-105933333D01*
X149932142Y-153427142D02*
X149884523Y-153474761D01*
X149741666Y-153522380D01*
X149646428Y-153522380D01*
X149503571Y-153474761D01*
X149408333Y-153379523D01*
X149360714Y-153284285D01*
X149313095Y-153093809D01*
X149313095Y-152950952D01*
X149360714Y-152760476D01*
X149408333Y-152665238D01*
X149503571Y-152570000D01*
X149646428Y-152522380D01*
X149741666Y-152522380D01*
X149884523Y-152570000D01*
X149932142Y-152617619D01*
X150884523Y-153522380D02*
X150313095Y-153522380D01*
X150598809Y-153522380D02*
X150598809Y-152522380D01*
X150503571Y-152665238D01*
X150408333Y-152760476D01*
X150313095Y-152808095D01*
X151789285Y-152522380D02*
X151313095Y-152522380D01*
X151265476Y-152998571D01*
X151313095Y-152950952D01*
X151408333Y-152903333D01*
X151646428Y-152903333D01*
X151741666Y-152950952D01*
X151789285Y-152998571D01*
X151836904Y-153093809D01*
X151836904Y-153331904D01*
X151789285Y-153427142D01*
X151741666Y-153474761D01*
X151646428Y-153522380D01*
X151408333Y-153522380D01*
X151313095Y-153474761D01*
X151265476Y-153427142D01*
D12*
X165977258Y-127302500D02*
X165502742Y-127302500D01*
X165977258Y-126257500D02*
X165502742Y-126257500D01*
X145087500Y-123702742D02*
X145087500Y-124177258D01*
X146132500Y-123702742D02*
X146132500Y-124177258D01*
X102265000Y-105390000D02*
X103515000Y-105390000D01*
X103890000Y-107190000D02*
X102265000Y-107190000D01*
X159559420Y-138490000D02*
X159840580Y-138490000D01*
X159559420Y-139510000D02*
X159840580Y-139510000D01*
D13*
X107480000Y-128980000D02*
X107480000Y-128980000D01*
D14*
X94105000Y-116980000D02*
X94105000Y-131980000D01*
D13*
X107280000Y-128980000D02*
X107280000Y-128980000D01*
D14*
X94105000Y-131980000D02*
X96680000Y-131980000D01*
X96680000Y-116980000D02*
X94105000Y-116980000D01*
D13*
X107280000Y-128980000D02*
G75*
G03*
X107480000Y-128980000I100000J0D01*
G01*
X107480000Y-128980000D02*
G75*
G03*
X107280000Y-128980000I-100000J0D01*
G01*
D12*
X164017258Y-159587500D02*
X163542742Y-159587500D01*
X164017258Y-158542500D02*
X163542742Y-158542500D01*
X145115580Y-156990000D02*
X144834420Y-156990000D01*
X145115580Y-158010000D02*
X144834420Y-158010000D01*
X149885000Y-150050000D02*
X148635000Y-150050000D01*
X148260000Y-148250000D02*
X149885000Y-148250000D01*
X145082742Y-106992500D02*
X145557258Y-106992500D01*
X145082742Y-105947500D02*
X145557258Y-105947500D01*
X136010000Y-133639420D02*
X136010000Y-133920580D01*
X134990000Y-133639420D02*
X134990000Y-133920580D01*
X160845000Y-134700000D02*
X159595000Y-134700000D01*
X159220000Y-132900000D02*
X160845000Y-132900000D01*
X143909420Y-143300000D02*
X144190580Y-143300000D01*
X143909420Y-144320000D02*
X144190580Y-144320000D01*
X112522500Y-121312258D02*
X112522500Y-120837742D01*
X111477500Y-121312258D02*
X111477500Y-120837742D01*
X108867258Y-109027500D02*
X108392742Y-109027500D01*
X108867258Y-110072500D02*
X108392742Y-110072500D01*
X164467500Y-137400000D02*
X164467500Y-136950000D01*
X166317500Y-129600000D02*
X164467500Y-129600000D01*
X168867500Y-137400000D02*
X168617500Y-137400000D01*
X168867500Y-129600000D02*
X168617500Y-129600000D01*
X164467500Y-129600000D02*
X164467500Y-130050000D01*
X163917500Y-135200000D02*
X163917500Y-134750000D01*
X166317500Y-137400000D02*
X164467500Y-137400000D01*
X163917500Y-135200000D02*
X164367500Y-135200000D01*
D14*
X94105000Y-140929500D02*
X94105000Y-155929500D01*
X96680000Y-140929500D02*
X94105000Y-140929500D01*
D13*
X107280000Y-152929500D02*
X107280000Y-152929500D01*
X107480000Y-152929500D02*
X107480000Y-152929500D01*
D14*
X94105000Y-155929500D02*
X96680000Y-155929500D01*
D13*
X107480000Y-152929500D02*
G75*
G03*
X107280000Y-152929500I-100000J0D01*
G01*
X107280000Y-152929500D02*
G75*
G03*
X107480000Y-152929500I100000J0D01*
G01*
D12*
X108392742Y-107432500D02*
X108867258Y-107432500D01*
X108392742Y-106387500D02*
X108867258Y-106387500D01*
X98512500Y-102650000D02*
X98512500Y-103100000D01*
X94112500Y-110450000D02*
X94362500Y-110450000D01*
X96662500Y-102650000D02*
X98512500Y-102650000D01*
X96662500Y-110450000D02*
X98512500Y-110450000D01*
X98512500Y-110450000D02*
X98512500Y-110000000D01*
X94112500Y-102650000D02*
X94362500Y-102650000D01*
X99062500Y-104850000D02*
X98612500Y-104850000D01*
X99062500Y-104850000D02*
X99062500Y-105300000D01*
X116040000Y-131770000D02*
X116040000Y-131110000D01*
X117450000Y-129450000D02*
X116040000Y-129450000D01*
X116040000Y-130110000D02*
X116040000Y-129450000D01*
X116040000Y-131770000D02*
X118070000Y-131770000D01*
X160710000Y-105975000D02*
X162335000Y-105975000D01*
X162335000Y-107775000D02*
X161085000Y-107775000D01*
X124110000Y-167360000D02*
X124110000Y-167880000D01*
X124110000Y-167880000D02*
X138730000Y-167880000D01*
X124760000Y-152400000D02*
X138080000Y-152400000D01*
X124760000Y-167360000D02*
X124110000Y-167360000D01*
X138730000Y-167360000D02*
X138080000Y-167360000D01*
X138730000Y-167880000D02*
X138730000Y-167360000D01*
X138080000Y-152400000D02*
X138080000Y-155730000D01*
X124760000Y-167360000D02*
X124760000Y-159250000D01*
X127020000Y-152180000D02*
X128820000Y-152180000D01*
X124760000Y-152400000D02*
X124760000Y-155730000D01*
X138080000Y-159250000D02*
X138080000Y-167360000D01*
X153400000Y-155820000D02*
X153400000Y-142500000D01*
X168360000Y-141850000D02*
X168360000Y-142500000D01*
X168360000Y-155820000D02*
X168360000Y-156470000D01*
X153400000Y-155820000D02*
X156730000Y-155820000D01*
X160250000Y-142500000D02*
X168360000Y-142500000D01*
X168360000Y-156470000D02*
X168880000Y-156470000D01*
X168880000Y-156470000D02*
X168880000Y-141850000D01*
X153180000Y-153560000D02*
X153180000Y-151760000D01*
X168880000Y-141850000D02*
X168360000Y-141850000D01*
X153400000Y-142500000D02*
X156730000Y-142500000D01*
X168360000Y-155820000D02*
X160250000Y-155820000D01*
X154189420Y-100780000D02*
X154470580Y-100780000D01*
X154189420Y-101800000D02*
X154470580Y-101800000D01*
X149590000Y-124080580D02*
X149590000Y-123799420D01*
X148570000Y-124080580D02*
X148570000Y-123799420D01*
X139582500Y-101267258D02*
X139582500Y-100792742D01*
X138537500Y-101267258D02*
X138537500Y-100792742D01*
X113980580Y-101400000D02*
X113699420Y-101400000D01*
X113980580Y-100380000D02*
X113699420Y-100380000D01*
X154567258Y-103017500D02*
X154092742Y-103017500D01*
X154567258Y-104062500D02*
X154092742Y-104062500D01*
X113602742Y-107412500D02*
X114077258Y-107412500D01*
X113602742Y-106367500D02*
X114077258Y-106367500D01*
X141410000Y-126310000D02*
X140760000Y-126310000D01*
X141410000Y-123190000D02*
X142060000Y-123190000D01*
X141410000Y-123190000D02*
X139735000Y-123190000D01*
X141410000Y-126310000D02*
X142060000Y-126310000D01*
X160832742Y-164952500D02*
X161307258Y-164952500D01*
X160832742Y-163907500D02*
X161307258Y-163907500D01*
X132272742Y-122942500D02*
X132747258Y-122942500D01*
X132272742Y-121897500D02*
X132747258Y-121897500D01*
X158200000Y-138150000D02*
X160750000Y-138150000D01*
X158200000Y-136450000D02*
X158200000Y-138150000D01*
X158200000Y-136450000D02*
X160750000Y-136450000D01*
X160640000Y-120690000D02*
X160640000Y-114680000D01*
X160640000Y-114680000D02*
X161900000Y-114680000D01*
X167460000Y-118440000D02*
X167460000Y-114680000D01*
X167460000Y-114680000D02*
X166200000Y-114680000D01*
X158660000Y-160150580D02*
X158660000Y-159869420D01*
X157640000Y-160150580D02*
X157640000Y-159869420D01*
X160400000Y-162510000D02*
X162430000Y-162510000D01*
X160400000Y-160850000D02*
X160400000Y-160190000D01*
X160400000Y-162510000D02*
X160400000Y-161850000D01*
X161810000Y-160190000D02*
X160400000Y-160190000D01*
X116040000Y-127260000D02*
X116040000Y-126600000D01*
X116040000Y-127260000D02*
X118070000Y-127260000D01*
X116040000Y-125600000D02*
X116040000Y-124940000D01*
X117450000Y-124940000D02*
X116040000Y-124940000D01*
X112612500Y-145622258D02*
X112612500Y-145147742D01*
X111567500Y-145622258D02*
X111567500Y-145147742D01*
X168867500Y-110450000D02*
X168617500Y-110450000D01*
X166317500Y-110450000D02*
X164467500Y-110450000D01*
X168867500Y-102650000D02*
X168617500Y-102650000D01*
X163917500Y-108250000D02*
X164367500Y-108250000D01*
X166317500Y-102650000D02*
X164467500Y-102650000D01*
X164467500Y-110450000D02*
X164467500Y-110000000D01*
X164467500Y-102650000D02*
X164467500Y-103100000D01*
X163917500Y-108250000D02*
X163917500Y-107800000D01*
X113602742Y-109027500D02*
X114077258Y-109027500D01*
X113602742Y-110072500D02*
X114077258Y-110072500D01*
X125859420Y-130760000D02*
X126140580Y-130760000D01*
X125859420Y-129740000D02*
X126140580Y-129740000D01*
X165599420Y-124125000D02*
X165880580Y-124125000D01*
X165599420Y-125145000D02*
X165880580Y-125145000D01*
X141562500Y-102542258D02*
X141562500Y-102067742D01*
X140517500Y-102542258D02*
X140517500Y-102067742D01*
X151110000Y-99845000D02*
X151110000Y-99370000D01*
X151110000Y-99370000D02*
X150635000Y-99370000D01*
X146890000Y-103115000D02*
X146890000Y-103590000D01*
X151110000Y-103115000D02*
X151110000Y-103590000D01*
X146890000Y-99845000D02*
X146890000Y-99370000D01*
X151110000Y-103590000D02*
X150635000Y-103590000D01*
X146890000Y-99370000D02*
X147365000Y-99370000D01*
D15*
X134500000Y-133000000D02*
G75*
G03*
X134500000Y-133000000I-125000J0D01*
G01*
D12*
X132350000Y-147990000D02*
X132350000Y-149615000D01*
X130550000Y-149615000D02*
X130550000Y-148365000D01*
X155292742Y-124262500D02*
X155767258Y-124262500D01*
X155292742Y-123217500D02*
X155767258Y-123217500D01*
X116975000Y-117870000D02*
X116975000Y-118620000D01*
X134975000Y-117870000D02*
X134975000Y-118620000D01*
X116975000Y-93120000D02*
X116975000Y-99870000D01*
X134975000Y-99060000D02*
X116975000Y-99060000D01*
X134975000Y-93120000D02*
X134975000Y-99870000D01*
X116975000Y-118620000D02*
X117975000Y-118620000D01*
X134975000Y-118620000D02*
X133975000Y-118620000D01*
X116975000Y-93120000D02*
X134975000Y-93120000D01*
X141745000Y-166030000D02*
X141745000Y-166000000D01*
X141745000Y-164100000D02*
X141745000Y-161500000D01*
X148205000Y-159570000D02*
X141745000Y-159570000D01*
X141745000Y-159570000D02*
X141745000Y-159600000D01*
X148205000Y-164100000D02*
X148205000Y-161500000D01*
X148205000Y-166000000D02*
X148205000Y-166030000D01*
X148205000Y-159570000D02*
X148205000Y-159600000D01*
X148205000Y-166030000D02*
X141745000Y-166030000D01*
X113980580Y-103150000D02*
X113699420Y-103150000D01*
X113980580Y-102130000D02*
X113699420Y-102130000D01*
X113602742Y-103997500D02*
X114077258Y-103997500D01*
X113602742Y-105042500D02*
X114077258Y-105042500D01*
X154567258Y-99562500D02*
X154092742Y-99562500D01*
X154567258Y-98517500D02*
X154092742Y-98517500D01*
X142050000Y-145300000D02*
X138600000Y-145300000D01*
X142050000Y-145300000D02*
X144000000Y-145300000D01*
X142050000Y-150420000D02*
X140100000Y-150420000D01*
X142050000Y-150420000D02*
X144000000Y-150420000D01*
X141410000Y-111825000D02*
X143085000Y-111825000D01*
X141410000Y-108705000D02*
X140760000Y-108705000D01*
X141410000Y-111825000D02*
X140760000Y-111825000D01*
X141410000Y-108705000D02*
X142060000Y-108705000D01*
X127161252Y-151560000D02*
X125738748Y-151560000D01*
X127161252Y-149740000D02*
X125738748Y-149740000D01*
X144797500Y-110152742D02*
X144797500Y-110627258D01*
X145842500Y-110152742D02*
X145842500Y-110627258D01*
X100995000Y-135554750D02*
X102245000Y-135554750D01*
X102620000Y-137354750D02*
X100995000Y-137354750D01*
X156755000Y-159350000D02*
X156755000Y-166650000D01*
X151255000Y-166650000D02*
X152405000Y-166650000D01*
X151255000Y-159350000D02*
X151255000Y-166650000D01*
X155670580Y-127190000D02*
X155389420Y-127190000D01*
X155670580Y-126170000D02*
X155389420Y-126170000D01*
X165599420Y-121980000D02*
X165880580Y-121980000D01*
X165599420Y-123000000D02*
X165880580Y-123000000D01*
X151110000Y-105959420D02*
X151110000Y-106240580D01*
X150090000Y-105959420D02*
X150090000Y-106240580D01*
X149863748Y-155880000D02*
X151286252Y-155880000D01*
X149863748Y-154060000D02*
X151286252Y-154060000D01*
%LPC*%
D16*
X166565000Y-126780000D03*
X164915000Y-126780000D03*
D17*
X145610000Y-123115000D03*
X145610000Y-124765000D03*
D18*
X102040000Y-106790000D03*
X102040000Y-105790000D03*
X103740000Y-105790000D03*
X103740000Y-106290000D03*
X103740000Y-106790000D03*
D19*
X158925000Y-139000000D03*
X160475000Y-139000000D03*
D20*
X105415000Y-128980000D03*
X105415000Y-128480000D03*
X105415000Y-127980000D03*
X105415000Y-127480000D03*
X105415000Y-126980000D03*
X105415000Y-126480000D03*
X105415000Y-125980000D03*
X105415000Y-125480000D03*
X105415000Y-124980000D03*
X105415000Y-124480000D03*
X105415000Y-123980000D03*
X105415000Y-123480000D03*
X105415000Y-122980000D03*
X105415000Y-122480000D03*
X105415000Y-121980000D03*
X105415000Y-121480000D03*
X105415000Y-120980000D03*
X105415000Y-120480000D03*
X105415000Y-119980000D03*
D21*
X104655000Y-117230000D03*
X104655000Y-131730000D03*
D22*
X98695000Y-117230000D03*
X98695000Y-131730000D03*
D16*
X164605000Y-159065000D03*
X162955000Y-159065000D03*
D23*
X145750000Y-157500000D03*
X144200000Y-157500000D03*
D24*
X148410000Y-148650000D03*
X148410000Y-149150000D03*
X148410000Y-149650000D03*
X150110000Y-149650000D03*
X150110000Y-148650000D03*
D25*
X144495000Y-106470000D03*
X146145000Y-106470000D03*
D26*
X135500000Y-133005000D03*
X135500000Y-134555000D03*
D24*
X159370000Y-133300000D03*
X159370000Y-133800000D03*
X159370000Y-134300000D03*
X161070000Y-134300000D03*
X161070000Y-133300000D03*
D19*
X143275000Y-143810000D03*
X144825000Y-143810000D03*
D27*
X112000000Y-121900000D03*
X112000000Y-120250000D03*
D16*
X109455000Y-109550000D03*
X107805000Y-109550000D03*
D28*
X164767500Y-134800000D03*
X164767500Y-134150000D03*
X164767500Y-133500000D03*
X164767500Y-132850000D03*
X164767500Y-132200000D03*
D29*
X167467500Y-136400000D03*
D30*
X167467500Y-137000000D03*
X167467500Y-130000000D03*
D31*
X167467500Y-132500000D03*
X167467500Y-134500000D03*
D32*
X164767500Y-136000000D03*
X164767500Y-131000000D03*
D29*
X167467500Y-130600000D03*
D20*
X105415000Y-152929500D03*
X105415000Y-152429500D03*
X105415000Y-151929500D03*
X105415000Y-151429500D03*
X105415000Y-150929500D03*
X105415000Y-150429500D03*
X105415000Y-149929500D03*
X105415000Y-149429500D03*
X105415000Y-148929500D03*
X105415000Y-148429500D03*
X105415000Y-147929500D03*
X105415000Y-147429500D03*
X105415000Y-146929500D03*
X105415000Y-146429500D03*
X105415000Y-145929500D03*
X105415000Y-145429500D03*
X105415000Y-144929500D03*
X105415000Y-144429500D03*
X105415000Y-143929500D03*
D21*
X104655000Y-141179500D03*
X104655000Y-155679500D03*
D22*
X98695000Y-141179500D03*
X98695000Y-155679500D03*
D25*
X107805000Y-106910000D03*
X109455000Y-106910000D03*
D28*
X98212500Y-105250000D03*
X98212500Y-105900000D03*
X98212500Y-106550000D03*
X98212500Y-107200000D03*
X98212500Y-107850000D03*
D31*
X95512500Y-105550000D03*
D29*
X95512500Y-109450000D03*
D30*
X95512500Y-103050000D03*
D32*
X98212500Y-104050000D03*
D30*
X95512500Y-110050000D03*
D31*
X95512500Y-107550000D03*
D29*
X95512500Y-103650000D03*
D32*
X98212500Y-109050000D03*
D33*
X117770000Y-131260000D03*
X117770000Y-129960000D03*
X115770000Y-130610000D03*
D24*
X160860000Y-106375000D03*
X160860000Y-106875000D03*
X160860000Y-107375000D03*
X162560000Y-107375000D03*
X162560000Y-106375000D03*
D34*
X127920000Y-154780000D03*
D35*
X130420000Y-154780000D03*
X132420000Y-154780000D03*
X134920000Y-154780000D03*
D36*
X124850000Y-157490000D03*
X137990000Y-157490000D03*
D37*
X155780000Y-152660000D03*
D35*
X155780000Y-150160000D03*
X155780000Y-148160000D03*
X155780000Y-145660000D03*
D36*
X158490000Y-142590000D03*
X158490000Y-155730000D03*
D19*
X153555000Y-101290000D03*
X155105000Y-101290000D03*
D38*
X149080000Y-124715000D03*
X149080000Y-123165000D03*
D27*
X139060000Y-101855000D03*
X139060000Y-100205000D03*
D23*
X114615000Y-100890000D03*
X113065000Y-100890000D03*
D16*
X155155000Y-103540000D03*
X153505000Y-103540000D03*
D25*
X113015000Y-106890000D03*
X114665000Y-106890000D03*
D39*
X140472500Y-123800000D03*
X140472500Y-125700000D03*
X142347500Y-124750000D03*
D25*
X160245000Y-164430000D03*
X161895000Y-164430000D03*
X131685000Y-122420000D03*
X133335000Y-122420000D03*
D40*
X158650000Y-137300000D03*
X160750000Y-137300000D03*
D41*
X161750000Y-119740000D03*
D42*
X164050000Y-113440000D03*
D41*
X164050000Y-119740000D03*
X166350000Y-119740000D03*
D38*
X158150000Y-160785000D03*
X158150000Y-159235000D03*
D33*
X162130000Y-162000000D03*
X162130000Y-160700000D03*
X160130000Y-161350000D03*
X117770000Y-126750000D03*
X117770000Y-125450000D03*
X115770000Y-126100000D03*
D27*
X112090000Y-146210000D03*
X112090000Y-144560000D03*
D28*
X164767500Y-107850000D03*
X164767500Y-107200000D03*
X164767500Y-106550000D03*
X164767500Y-105900000D03*
X164767500Y-105250000D03*
D30*
X167467500Y-103050000D03*
D31*
X167467500Y-107550000D03*
D32*
X164767500Y-109050000D03*
D30*
X167467500Y-110050000D03*
D32*
X164767500Y-104050000D03*
D29*
X167467500Y-103650000D03*
X167467500Y-109450000D03*
D31*
X167467500Y-105550000D03*
D25*
X113015000Y-109550000D03*
X114665000Y-109550000D03*
D19*
X125225000Y-130250000D03*
X126775000Y-130250000D03*
X164965000Y-124635000D03*
X166515000Y-124635000D03*
D27*
X141040000Y-103130000D03*
X141040000Y-101480000D03*
D43*
X147750000Y-103417500D03*
X148250000Y-103417500D03*
X148750000Y-103417500D03*
X149250000Y-103417500D03*
X149750000Y-103417500D03*
X150250000Y-103417500D03*
D44*
X150937500Y-102730000D03*
X150937500Y-102230000D03*
X150937500Y-101730000D03*
X150937500Y-101230000D03*
X150937500Y-100730000D03*
X150937500Y-100230000D03*
D43*
X150250000Y-99542500D03*
X149750000Y-99542500D03*
X149250000Y-99542500D03*
X148750000Y-99542500D03*
X148250000Y-99542500D03*
X147750000Y-99542500D03*
D44*
X147062500Y-100230000D03*
X147062500Y-100730000D03*
X147062500Y-101230000D03*
X147062500Y-101730000D03*
X147062500Y-102230000D03*
X147062500Y-102730000D03*
D45*
X149000000Y-101480000D03*
D46*
X133950000Y-132250000D03*
X133950000Y-131750000D03*
X133950000Y-131250000D03*
X133950000Y-130750000D03*
X133950000Y-130250000D03*
X133950000Y-129750000D03*
X133950000Y-129250000D03*
X133950000Y-128750000D03*
D47*
X133250000Y-128050000D03*
X132750000Y-128050000D03*
X132250000Y-128050000D03*
X131750000Y-128050000D03*
X131250000Y-128050000D03*
X130750000Y-128050000D03*
X130250000Y-128050000D03*
X129750000Y-128050000D03*
D46*
X129050000Y-128750000D03*
X129050000Y-129250000D03*
X129050000Y-129750000D03*
X129050000Y-130250000D03*
X129050000Y-130750000D03*
X129050000Y-131250000D03*
X129050000Y-131750000D03*
X129050000Y-132250000D03*
D47*
X129750000Y-132950000D03*
X130250000Y-132950000D03*
X130750000Y-132950000D03*
X131250000Y-132950000D03*
X131750000Y-132950000D03*
X132250000Y-132950000D03*
X132750000Y-132950000D03*
X133250000Y-132950000D03*
D48*
X131500000Y-130500000D03*
D49*
X131950000Y-149840000D03*
X130950000Y-149840000D03*
X130950000Y-148140000D03*
X131450000Y-148140000D03*
X131950000Y-148140000D03*
D25*
X154705000Y-123740000D03*
X156355000Y-123740000D03*
D50*
X117225000Y-100610000D03*
X117225000Y-101880000D03*
X117225000Y-103150000D03*
X117225000Y-104420000D03*
X117225000Y-105690000D03*
X117225000Y-106960000D03*
X117225000Y-108230000D03*
X117225000Y-109500000D03*
X117225000Y-110770000D03*
X117225000Y-112040000D03*
X117225000Y-113310000D03*
X117225000Y-114580000D03*
X117225000Y-115850000D03*
X117225000Y-117120000D03*
D51*
X118990000Y-118370000D03*
X120260000Y-118370000D03*
X121530000Y-118370000D03*
X122800000Y-118370000D03*
X124070000Y-118370000D03*
X125340000Y-118370000D03*
X126610000Y-118370000D03*
X127880000Y-118370000D03*
X129150000Y-118370000D03*
X130420000Y-118370000D03*
X131690000Y-118370000D03*
X132960000Y-118370000D03*
D50*
X134725000Y-117120000D03*
X134725000Y-115850000D03*
X134725000Y-114580000D03*
X134725000Y-113310000D03*
X134725000Y-112040000D03*
X134725000Y-110770000D03*
X134725000Y-109500000D03*
X134725000Y-108230000D03*
X134725000Y-106960000D03*
X134725000Y-105690000D03*
X134725000Y-104420000D03*
X134725000Y-103150000D03*
X134725000Y-101880000D03*
X134725000Y-100610000D03*
D52*
X124475000Y-108330000D03*
X124475000Y-106930000D03*
X125875000Y-109730000D03*
X124475000Y-109730000D03*
X123075000Y-108330000D03*
X123075000Y-106930000D03*
X125875000Y-108330000D03*
X123075000Y-109730000D03*
X125875000Y-106930000D03*
D53*
X141000000Y-165050000D03*
X148950000Y-165050000D03*
X148950000Y-160550000D03*
X141000000Y-160550000D03*
D23*
X114615000Y-102640000D03*
X113065000Y-102640000D03*
D25*
X113015000Y-104520000D03*
X114665000Y-104520000D03*
D16*
X155155000Y-99040000D03*
X153505000Y-99040000D03*
D54*
X139575000Y-145955000D03*
X139575000Y-147225000D03*
X139575000Y-148495000D03*
X139575000Y-149765000D03*
X144525000Y-149765000D03*
X144525000Y-148495000D03*
X144525000Y-147225000D03*
X144525000Y-145955000D03*
D55*
X142347500Y-111215000D03*
X142347500Y-109315000D03*
X140472500Y-110265000D03*
D56*
X127925000Y-150650000D03*
X124975000Y-150650000D03*
D17*
X145320000Y-109565000D03*
X145320000Y-111215000D03*
D18*
X102470000Y-136954750D03*
X102470000Y-136454750D03*
X102470000Y-135954750D03*
X100770000Y-135954750D03*
X100770000Y-136954750D03*
D57*
X152405000Y-165450000D03*
X155605000Y-165450000D03*
X155605000Y-160550000D03*
X152405000Y-160550000D03*
D23*
X156305000Y-126680000D03*
X154755000Y-126680000D03*
D19*
X164965000Y-122490000D03*
X166515000Y-122490000D03*
D26*
X150600000Y-105325000D03*
X150600000Y-106875000D03*
D58*
X149100000Y-154970000D03*
X152050000Y-154970000D03*
M02*
