M48
; DRILL file {KiCad (6.0.8)} date Sat Oct 29 11:41:37 2022
; FORMAT={-:-/ absolute / metric / decimal}
; #@! TF.CreationDate,2022-10-29T11:41:37-07:00
; #@! TF.GenerationSoftware,Kicad,Pcbnew,(6.0.8)
; #@! TF.FileFunction,Plated,1,4,PTH
FMAT,2
METRIC
; #@! TA.AperFunction,Plated,PTH,ViaDrill
T1C0.200
; #@! TA.AperFunction,Plated,PTH,ViaDrill
T2C0.400
; #@! TA.AperFunction,Plated,PTH,ViaDrill
T3C0.600
; #@! TA.AperFunction,Plated,PTH,ComponentDrill
T4C0.600
; #@! TA.AperFunction,Plated,PTH,ComponentDrill
T5C0.850
; #@! TA.AperFunction,Plated,PTH,ComponentDrill
T6C0.950
; #@! TA.AperFunction,Plated,PTH,ComponentDrill
T7C1.992
; #@! TA.AperFunction,Plated,PTH,ComponentDrill
T8C2.300
; #@! TA.AperFunction,Plated,PTH,ComponentDrill
T9C2.909
%
G90
G05
T1
X98.75Y-148.56
X100.69Y-124.38
X100.72Y-147.81
X100.75Y-144.85
X101.44Y-124.6
X101.445Y-148.415
X101.53Y-143.46
X102.2Y-150.041
X107.3Y-128.22
X107.729Y-155.06
X107.791Y-129.57
X108.132Y-155.637
X108.31Y-126.573
X108.84Y-153.298
X109.219Y-127.89
X109.39Y-152.8
X109.47Y-126.69
X109.713Y-151.966
X109.946Y-126.172
X110.309Y-151.593
X110.51Y-104.52
X111.1Y-150.0
X111.108Y-150.758
X111.367Y-124.693
X111.4Y-106.89
X111.74Y-125.56
X114.063Y-118.079
X114.66Y-113.28
X114.74Y-118.27
X119.99Y-129.92
X120.47Y-127.48
X122.74Y-124.64
X130.2Y-101.78
X130.24Y-115.62
X131.06Y-103.25
X131.09Y-148.614
X131.794Y-148.614
X131.97Y-115.64
X132.95Y-135.92
X134.875Y-122.345
X135.6Y-128.64
X140.61Y-124.78
X141.08Y-139.23
X141.17Y-121.93
X144.35Y-109.46
X144.91Y-100.49
X145.71Y-155.4
X147.44Y-124.75
X147.85Y-109.6
X147.93Y-116.81
X148.561Y-107.328
X149.35Y-107.25
X154.42Y-106.02
X156.771Y-128.239
X157.137Y-129.0
X158.0Y-120.29
X160.99Y-164.58
T2
X100.25Y-105.5
X100.6Y-135.5
X101.98Y-120.749
X102.54Y-124.157
X102.54Y-125.5
X102.54Y-127.0
X102.54Y-128.5
X102.85Y-151.25
X102.85Y-152.25
X102.85Y-153.75
X102.85Y-155.0
X103.5Y-103.25
X107.75Y-108.25
X113.0Y-101.75
X114.1Y-148.0
X115.5Y-100.319
X115.5Y-103.75
X118.5Y-128.0
X118.5Y-132.5
X119.25Y-100.75
X121.75Y-108.0
X123.0Y-105.75
X123.0Y-111.0
X123.5Y-130.25
X124.5Y-105.25
X124.75Y-111.0
X127.0Y-107.5
X127.5Y-108.25
X127.5Y-109.75
X127.5Y-131.25
X127.5Y-132.5
X127.75Y-128.75
X129.26Y-126.42
X130.75Y-134.25
X132.25Y-134.5
X133.0Y-100.25
X133.292Y-125.231
X134.0Y-134.75
X134.95Y-126.22
X135.53Y-127.47
X140.75Y-100.25
X142.5Y-101.5
X145.0Y-165.0
X146.25Y-121.5
X146.5Y-144.0
X147.455Y-156.55
X147.75Y-105.0
X148.0Y-122.0
X149.362Y-153.612
X152.0Y-105.25
X152.0Y-107.0
X152.25Y-103.75
X154.25Y-100.25
X155.0Y-102.5
X155.25Y-163.5
X156.5Y-99.0
X157.75Y-123.5
X158.0Y-131.75
X161.353Y-103.861
X162.25Y-138.0
X162.93Y-128.75
X163.0Y-101.5
X163.25Y-165.25
X163.5Y-123.75
X163.5Y-163.5
X165.0Y-120.5
T3
X166.25Y-113.75
T5
X98.212Y-101.05
X98.212Y-106.05
X164.767Y-101.05
X164.767Y-106.05
X164.767Y-128.0
X164.767Y-133.0
T6
X127.92Y-154.78
X130.42Y-154.78
X132.42Y-154.78
X134.92Y-154.78
X155.79Y-147.9
X155.79Y-150.4
X155.79Y-152.4
X155.79Y-154.9
T7
X98.695Y-117.23
X98.695Y-131.73
X98.695Y-144.179
X98.695Y-158.679
T8
X124.85Y-157.49
X137.99Y-157.49
X158.5Y-144.83
X158.5Y-157.97
T9
X104.655Y-117.23
X104.655Y-131.73
X104.655Y-144.179
X104.655Y-158.679
T4
X95.162Y-100.05G85X95.862Y-100.05
G05
X95.862Y-107.05G85X95.162Y-107.05
G05
X167.117Y-100.05G85X167.817Y-100.05
G05
X167.817Y-107.05G85X167.117Y-107.05
G05
X167.117Y-127.0G85X167.817Y-127.0
G05
X167.817Y-134.0G85X167.117Y-134.0
G05
T0
M30
