G04 #@! TF.GenerationSoftware,KiCad,Pcbnew,(6.0.8)*
G04 #@! TF.CreationDate,2022-11-27T14:47:46-08:00*
G04 #@! TF.ProjectId,EasyKVM,45617379-4b56-44d2-9e6b-696361645f70,rev?*
G04 #@! TF.SameCoordinates,Original*
G04 #@! TF.FileFunction,Paste,Top*
G04 #@! TF.FilePolarity,Positive*
%FSLAX46Y46*%
G04 Gerber Fmt 4.6, Leading zero omitted, Abs format (unit mm)*
G04 Created by KiCad (PCBNEW (6.0.8)) date 2022-11-27 14:47:46*
%MOMM*%
%LPD*%
G01*
G04 APERTURE LIST*
G04 Aperture macros list*
%AMRoundRect*
0 Rectangle with rounded corners*
0 $1 Rounding radius*
0 $2 $3 $4 $5 $6 $7 $8 $9 X,Y pos of 4 corners*
0 Add a 4 corners polygon primitive as box body*
4,1,4,$2,$3,$4,$5,$6,$7,$8,$9,$2,$3,0*
0 Add four circle primitives for the rounded corners*
1,1,$1+$1,$2,$3*
1,1,$1+$1,$4,$5*
1,1,$1+$1,$6,$7*
1,1,$1+$1,$8,$9*
0 Add four rect primitives between the rounded corners*
20,1,$1+$1,$2,$3,$4,$5,0*
20,1,$1+$1,$4,$5,$6,$7,0*
20,1,$1+$1,$6,$7,$8,$9,0*
20,1,$1+$1,$8,$9,$2,$3,0*%
G04 Aperture macros list end*
%ADD10RoundRect,0.200000X0.200000X0.275000X-0.200000X0.275000X-0.200000X-0.275000X0.200000X-0.275000X0*%
%ADD11RoundRect,0.200000X-0.275000X0.200000X-0.275000X-0.200000X0.275000X-0.200000X0.275000X0.200000X0*%
%ADD12RoundRect,0.093750X0.156250X0.093750X-0.156250X0.093750X-0.156250X-0.093750X0.156250X-0.093750X0*%
%ADD13RoundRect,0.225000X-0.225000X-0.250000X0.225000X-0.250000X0.225000X0.250000X-0.225000X0.250000X0*%
%ADD14R,2.600000X0.300000*%
%ADD15RoundRect,0.225000X0.225000X0.250000X-0.225000X0.250000X-0.225000X-0.250000X0.225000X-0.250000X0*%
%ADD16RoundRect,0.093750X-0.156250X-0.093750X0.156250X-0.093750X0.156250X0.093750X-0.156250X0.093750X0*%
%ADD17RoundRect,0.200000X-0.200000X-0.275000X0.200000X-0.275000X0.200000X0.275000X-0.200000X0.275000X0*%
%ADD18RoundRect,0.225000X-0.250000X0.225000X-0.250000X-0.225000X0.250000X-0.225000X0.250000X0.225000X0*%
%ADD19RoundRect,0.200000X0.275000X-0.200000X0.275000X0.200000X-0.275000X0.200000X-0.275000X-0.200000X0*%
%ADD20R,1.350000X0.400000*%
%ADD21R,1.900000X1.500000*%
%ADD22R,0.700000X0.450000*%
%ADD23RoundRect,0.225000X0.250000X-0.225000X0.250000X0.225000X-0.250000X0.225000X-0.250000X-0.225000X0*%
%ADD24RoundRect,0.150000X-0.587500X-0.150000X0.587500X-0.150000X0.587500X0.150000X-0.587500X0.150000X0*%
%ADD25R,0.600000X0.450000*%
%ADD26R,1.500000X2.000000*%
%ADD27R,3.800000X2.000000*%
%ADD28RoundRect,0.250000X0.275000X-0.275000X0.275000X0.275000X-0.275000X0.275000X-0.275000X-0.275000X0*%
%ADD29RoundRect,0.062500X0.062500X-0.350000X0.062500X0.350000X-0.062500X0.350000X-0.062500X-0.350000X0*%
%ADD30RoundRect,0.062500X0.350000X-0.062500X0.350000X0.062500X-0.350000X0.062500X-0.350000X-0.062500X0*%
%ADD31R,0.850000X0.300000*%
%ADD32R,0.300000X0.850000*%
%ADD33R,3.200000X3.200000*%
%ADD34RoundRect,0.093750X-0.093750X0.156250X-0.093750X-0.156250X0.093750X-0.156250X0.093750X0.156250X0*%
%ADD35R,1.500000X0.900000*%
%ADD36R,0.900000X1.500000*%
%ADD37R,0.900000X0.900000*%
%ADD38R,1.550000X1.300000*%
%ADD39RoundRect,0.150000X-0.825000X-0.150000X0.825000X-0.150000X0.825000X0.150000X-0.825000X0.150000X0*%
%ADD40RoundRect,0.150000X0.587500X0.150000X-0.587500X0.150000X-0.587500X-0.150000X0.587500X-0.150000X0*%
%ADD41RoundRect,0.250000X0.325000X0.650000X-0.325000X0.650000X-0.325000X-0.650000X0.325000X-0.650000X0*%
%ADD42R,1.000000X1.500000*%
%ADD43RoundRect,0.250000X-0.325000X-0.650000X0.325000X-0.650000X0.325000X0.650000X-0.325000X0.650000X0*%
G04 APERTURE END LIST*
D10*
X166565000Y-126780000D03*
X164915000Y-126780000D03*
D11*
X145610000Y-123115000D03*
X145610000Y-124765000D03*
D12*
X102040000Y-106790000D03*
X102040000Y-105790000D03*
X103740000Y-105790000D03*
X103740000Y-106290000D03*
X103740000Y-106790000D03*
D13*
X158925000Y-139000000D03*
X160475000Y-139000000D03*
D14*
X105415000Y-128980000D03*
X105415000Y-128480000D03*
X105415000Y-127980000D03*
X105415000Y-127480000D03*
X105415000Y-126980000D03*
X105415000Y-126480000D03*
X105415000Y-125980000D03*
X105415000Y-125480000D03*
X105415000Y-124980000D03*
X105415000Y-124480000D03*
X105415000Y-123980000D03*
X105415000Y-123480000D03*
X105415000Y-122980000D03*
X105415000Y-122480000D03*
X105415000Y-121980000D03*
X105415000Y-121480000D03*
X105415000Y-120980000D03*
X105415000Y-120480000D03*
X105415000Y-119980000D03*
D10*
X164605000Y-159065000D03*
X162955000Y-159065000D03*
D15*
X145750000Y-157500000D03*
X144200000Y-157500000D03*
D16*
X148410000Y-148650000D03*
X148410000Y-149150000D03*
X148410000Y-149650000D03*
X150110000Y-149650000D03*
X150110000Y-148650000D03*
D17*
X144495000Y-106470000D03*
X146145000Y-106470000D03*
D18*
X135500000Y-133005000D03*
X135500000Y-134555000D03*
D16*
X159370000Y-133300000D03*
X159370000Y-133800000D03*
X159370000Y-134300000D03*
X161070000Y-134300000D03*
X161070000Y-133300000D03*
D13*
X143275000Y-143810000D03*
X144825000Y-143810000D03*
D19*
X112000000Y-121900000D03*
X112000000Y-120250000D03*
D10*
X109455000Y-109550000D03*
X107805000Y-109550000D03*
D20*
X164767500Y-134800000D03*
X164767500Y-134150000D03*
X164767500Y-133500000D03*
X164767500Y-132850000D03*
X164767500Y-132200000D03*
D21*
X167467500Y-132500000D03*
X167467500Y-134500000D03*
D14*
X105415000Y-152929500D03*
X105415000Y-152429500D03*
X105415000Y-151929500D03*
X105415000Y-151429500D03*
X105415000Y-150929500D03*
X105415000Y-150429500D03*
X105415000Y-149929500D03*
X105415000Y-149429500D03*
X105415000Y-148929500D03*
X105415000Y-148429500D03*
X105415000Y-147929500D03*
X105415000Y-147429500D03*
X105415000Y-146929500D03*
X105415000Y-146429500D03*
X105415000Y-145929500D03*
X105415000Y-145429500D03*
X105415000Y-144929500D03*
X105415000Y-144429500D03*
X105415000Y-143929500D03*
D17*
X107805000Y-106910000D03*
X109455000Y-106910000D03*
D20*
X98212500Y-105250000D03*
X98212500Y-105900000D03*
X98212500Y-106550000D03*
X98212500Y-107200000D03*
X98212500Y-107850000D03*
D21*
X95512500Y-105550000D03*
X95512500Y-107550000D03*
D22*
X117770000Y-131260000D03*
X117770000Y-129960000D03*
X115770000Y-130610000D03*
D16*
X160860000Y-106375000D03*
X160860000Y-106875000D03*
X160860000Y-107375000D03*
X162560000Y-107375000D03*
X162560000Y-106375000D03*
D13*
X153555000Y-101290000D03*
X155105000Y-101290000D03*
D23*
X149080000Y-124715000D03*
X149080000Y-123165000D03*
D19*
X139060000Y-101855000D03*
X139060000Y-100205000D03*
D15*
X114615000Y-100890000D03*
X113065000Y-100890000D03*
D10*
X155155000Y-103540000D03*
X153505000Y-103540000D03*
D17*
X113015000Y-106890000D03*
X114665000Y-106890000D03*
D24*
X140472500Y-123800000D03*
X140472500Y-125700000D03*
X142347500Y-124750000D03*
D17*
X160245000Y-164430000D03*
X161895000Y-164430000D03*
X131685000Y-122420000D03*
X133335000Y-122420000D03*
D25*
X158650000Y-137300000D03*
X160750000Y-137300000D03*
D26*
X161750000Y-119740000D03*
D27*
X164050000Y-113440000D03*
D26*
X164050000Y-119740000D03*
X166350000Y-119740000D03*
D23*
X158150000Y-160785000D03*
X158150000Y-159235000D03*
D22*
X162130000Y-162000000D03*
X162130000Y-160700000D03*
X160130000Y-161350000D03*
X117770000Y-126750000D03*
X117770000Y-125450000D03*
X115770000Y-126100000D03*
D19*
X112090000Y-146210000D03*
X112090000Y-144560000D03*
D20*
X164767500Y-107850000D03*
X164767500Y-107200000D03*
X164767500Y-106550000D03*
X164767500Y-105900000D03*
X164767500Y-105250000D03*
D21*
X167467500Y-107550000D03*
X167467500Y-105550000D03*
D17*
X113015000Y-109550000D03*
X114665000Y-109550000D03*
D13*
X125225000Y-130250000D03*
X126775000Y-130250000D03*
X164965000Y-124635000D03*
X166515000Y-124635000D03*
D19*
X141040000Y-103130000D03*
X141040000Y-101480000D03*
D28*
X149650000Y-102130000D03*
X148350000Y-100830000D03*
X149650000Y-100830000D03*
X148350000Y-102130000D03*
D29*
X147750000Y-103417500D03*
X148250000Y-103417500D03*
X148750000Y-103417500D03*
X149250000Y-103417500D03*
X149750000Y-103417500D03*
X150250000Y-103417500D03*
D30*
X150937500Y-102730000D03*
X150937500Y-102230000D03*
X150937500Y-101730000D03*
X150937500Y-101230000D03*
X150937500Y-100730000D03*
X150937500Y-100230000D03*
D29*
X150250000Y-99542500D03*
X149750000Y-99542500D03*
X149250000Y-99542500D03*
X148750000Y-99542500D03*
X148250000Y-99542500D03*
X147750000Y-99542500D03*
D30*
X147062500Y-100230000D03*
X147062500Y-100730000D03*
X147062500Y-101230000D03*
X147062500Y-101730000D03*
X147062500Y-102230000D03*
X147062500Y-102730000D03*
D31*
X133950000Y-132250000D03*
X133950000Y-131750000D03*
X133950000Y-131250000D03*
X133950000Y-130750000D03*
X133950000Y-130250000D03*
X133950000Y-129750000D03*
X133950000Y-129250000D03*
X133950000Y-128750000D03*
D32*
X133250000Y-128050000D03*
X132750000Y-128050000D03*
X132250000Y-128050000D03*
X131750000Y-128050000D03*
X131250000Y-128050000D03*
X130750000Y-128050000D03*
X130250000Y-128050000D03*
X129750000Y-128050000D03*
D31*
X129050000Y-128750000D03*
X129050000Y-129250000D03*
X129050000Y-129750000D03*
X129050000Y-130250000D03*
X129050000Y-130750000D03*
X129050000Y-131250000D03*
X129050000Y-131750000D03*
X129050000Y-132250000D03*
D32*
X129750000Y-132950000D03*
X130250000Y-132950000D03*
X130750000Y-132950000D03*
X131250000Y-132950000D03*
X131750000Y-132950000D03*
X132250000Y-132950000D03*
X132750000Y-132950000D03*
X133250000Y-132950000D03*
D33*
X131500000Y-130500000D03*
D34*
X131950000Y-149840000D03*
X130950000Y-149840000D03*
X130950000Y-148140000D03*
X131450000Y-148140000D03*
X131950000Y-148140000D03*
D17*
X154705000Y-123740000D03*
X156355000Y-123740000D03*
D35*
X117225000Y-100610000D03*
X117225000Y-101880000D03*
X117225000Y-103150000D03*
X117225000Y-104420000D03*
X117225000Y-105690000D03*
X117225000Y-106960000D03*
X117225000Y-108230000D03*
X117225000Y-109500000D03*
X117225000Y-110770000D03*
X117225000Y-112040000D03*
X117225000Y-113310000D03*
X117225000Y-114580000D03*
X117225000Y-115850000D03*
X117225000Y-117120000D03*
D36*
X118990000Y-118370000D03*
X120260000Y-118370000D03*
X121530000Y-118370000D03*
X122800000Y-118370000D03*
X124070000Y-118370000D03*
X125340000Y-118370000D03*
X126610000Y-118370000D03*
X127880000Y-118370000D03*
X129150000Y-118370000D03*
X130420000Y-118370000D03*
X131690000Y-118370000D03*
X132960000Y-118370000D03*
D35*
X134725000Y-117120000D03*
X134725000Y-115850000D03*
X134725000Y-114580000D03*
X134725000Y-113310000D03*
X134725000Y-112040000D03*
X134725000Y-110770000D03*
X134725000Y-109500000D03*
X134725000Y-108230000D03*
X134725000Y-106960000D03*
X134725000Y-105690000D03*
X134725000Y-104420000D03*
X134725000Y-103150000D03*
X134725000Y-101880000D03*
X134725000Y-100610000D03*
D37*
X124475000Y-108330000D03*
X124475000Y-106930000D03*
X125875000Y-109730000D03*
X124475000Y-109730000D03*
X123075000Y-108330000D03*
X123075000Y-106930000D03*
X125875000Y-108330000D03*
X123075000Y-109730000D03*
X125875000Y-106930000D03*
D38*
X141000000Y-165050000D03*
X148950000Y-165050000D03*
X148950000Y-160550000D03*
X141000000Y-160550000D03*
D15*
X114615000Y-102640000D03*
X113065000Y-102640000D03*
D17*
X113015000Y-104520000D03*
X114665000Y-104520000D03*
D10*
X155155000Y-99040000D03*
X153505000Y-99040000D03*
D39*
X139575000Y-145955000D03*
X139575000Y-147225000D03*
X139575000Y-148495000D03*
X139575000Y-149765000D03*
X144525000Y-149765000D03*
X144525000Y-148495000D03*
X144525000Y-147225000D03*
X144525000Y-145955000D03*
D40*
X142347500Y-111215000D03*
X142347500Y-109315000D03*
X140472500Y-110265000D03*
D41*
X127925000Y-150650000D03*
X124975000Y-150650000D03*
D11*
X145320000Y-109565000D03*
X145320000Y-111215000D03*
D12*
X102470000Y-136954750D03*
X102470000Y-136454750D03*
X102470000Y-135954750D03*
X100770000Y-135954750D03*
X100770000Y-136954750D03*
D42*
X152405000Y-165450000D03*
X155605000Y-165450000D03*
X155605000Y-160550000D03*
X152405000Y-160550000D03*
D15*
X156305000Y-126680000D03*
X154755000Y-126680000D03*
D13*
X164965000Y-122490000D03*
X166515000Y-122490000D03*
D18*
X150600000Y-105325000D03*
X150600000Y-106875000D03*
D43*
X149100000Y-154970000D03*
X152050000Y-154970000D03*
M02*
