G04 #@! TF.GenerationSoftware,KiCad,Pcbnew,(6.0.8)*
G04 #@! TF.CreationDate,2022-10-29T11:40:11-07:00*
G04 #@! TF.ProjectId,EasyKVM,45617379-4b56-44d2-9e6b-696361645f70,rev?*
G04 #@! TF.SameCoordinates,Original*
G04 #@! TF.FileFunction,Copper,L1,Top*
G04 #@! TF.FilePolarity,Positive*
%FSLAX46Y46*%
G04 Gerber Fmt 4.6, Leading zero omitted, Abs format (unit mm)*
G04 Created by KiCad (PCBNEW (6.0.8)) date 2022-10-29 11:40:11*
%MOMM*%
%LPD*%
G01*
G04 APERTURE LIST*
G04 Aperture macros list*
%AMRoundRect*
0 Rectangle with rounded corners*
0 $1 Rounding radius*
0 $2 $3 $4 $5 $6 $7 $8 $9 X,Y pos of 4 corners*
0 Add a 4 corners polygon primitive as box body*
4,1,4,$2,$3,$4,$5,$6,$7,$8,$9,$2,$3,0*
0 Add four circle primitives for the rounded corners*
1,1,$1+$1,$2,$3*
1,1,$1+$1,$4,$5*
1,1,$1+$1,$6,$7*
1,1,$1+$1,$8,$9*
0 Add four rect primitives between the rounded corners*
20,1,$1+$1,$2,$3,$4,$5,0*
20,1,$1+$1,$4,$5,$6,$7,0*
20,1,$1+$1,$6,$7,$8,$9,0*
20,1,$1+$1,$8,$9,$2,$3,0*%
G04 Aperture macros list end*
G04 #@! TA.AperFunction,SMDPad,CuDef*
%ADD10RoundRect,0.200000X0.200000X0.275000X-0.200000X0.275000X-0.200000X-0.275000X0.200000X-0.275000X0*%
G04 #@! TD*
G04 #@! TA.AperFunction,SMDPad,CuDef*
%ADD11RoundRect,0.200000X-0.275000X0.200000X-0.275000X-0.200000X0.275000X-0.200000X0.275000X0.200000X0*%
G04 #@! TD*
G04 #@! TA.AperFunction,SMDPad,CuDef*
%ADD12RoundRect,0.225000X-0.225000X-0.250000X0.225000X-0.250000X0.225000X0.250000X-0.225000X0.250000X0*%
G04 #@! TD*
G04 #@! TA.AperFunction,SMDPad,CuDef*
%ADD13R,2.600000X0.300000*%
G04 #@! TD*
G04 #@! TA.AperFunction,ComponentPad*
%ADD14C,4.275000*%
G04 #@! TD*
G04 #@! TA.AperFunction,ComponentPad*
%ADD15C,2.880000*%
G04 #@! TD*
G04 #@! TA.AperFunction,SMDPad,CuDef*
%ADD16RoundRect,0.225000X0.225000X0.250000X-0.225000X0.250000X-0.225000X-0.250000X0.225000X-0.250000X0*%
G04 #@! TD*
G04 #@! TA.AperFunction,SMDPad,CuDef*
%ADD17RoundRect,0.200000X-0.200000X-0.275000X0.200000X-0.275000X0.200000X0.275000X-0.200000X0.275000X0*%
G04 #@! TD*
G04 #@! TA.AperFunction,SMDPad,CuDef*
%ADD18RoundRect,0.225000X-0.250000X0.225000X-0.250000X-0.225000X0.250000X-0.225000X0.250000X0.225000X0*%
G04 #@! TD*
G04 #@! TA.AperFunction,SMDPad,CuDef*
%ADD19RoundRect,0.200000X0.275000X-0.200000X0.275000X0.200000X-0.275000X0.200000X-0.275000X-0.200000X0*%
G04 #@! TD*
G04 #@! TA.AperFunction,SMDPad,CuDef*
%ADD20R,1.000000X0.700000*%
G04 #@! TD*
G04 #@! TA.AperFunction,SMDPad,CuDef*
%ADD21R,0.600000X0.700000*%
G04 #@! TD*
G04 #@! TA.AperFunction,SMDPad,CuDef*
%ADD22R,1.350000X0.400000*%
G04 #@! TD*
G04 #@! TA.AperFunction,SMDPad,CuDef*
%ADD23R,1.900000X1.200000*%
G04 #@! TD*
G04 #@! TA.AperFunction,ComponentPad*
%ADD24O,1.900000X1.200000*%
G04 #@! TD*
G04 #@! TA.AperFunction,SMDPad,CuDef*
%ADD25R,1.900000X1.500000*%
G04 #@! TD*
G04 #@! TA.AperFunction,ComponentPad*
%ADD26C,1.450000*%
G04 #@! TD*
G04 #@! TA.AperFunction,SMDPad,CuDef*
%ADD27R,0.700000X0.450000*%
G04 #@! TD*
G04 #@! TA.AperFunction,ComponentPad*
%ADD28R,1.600000X1.500000*%
G04 #@! TD*
G04 #@! TA.AperFunction,ComponentPad*
%ADD29C,1.600000*%
G04 #@! TD*
G04 #@! TA.AperFunction,ComponentPad*
%ADD30C,3.000000*%
G04 #@! TD*
G04 #@! TA.AperFunction,ComponentPad*
%ADD31R,1.500000X1.600000*%
G04 #@! TD*
G04 #@! TA.AperFunction,SMDPad,CuDef*
%ADD32RoundRect,0.225000X0.250000X-0.225000X0.250000X0.225000X-0.250000X0.225000X-0.250000X-0.225000X0*%
G04 #@! TD*
G04 #@! TA.AperFunction,SMDPad,CuDef*
%ADD33RoundRect,0.150000X-0.587500X-0.150000X0.587500X-0.150000X0.587500X0.150000X-0.587500X0.150000X0*%
G04 #@! TD*
G04 #@! TA.AperFunction,SMDPad,CuDef*
%ADD34R,0.600000X0.450000*%
G04 #@! TD*
G04 #@! TA.AperFunction,SMDPad,CuDef*
%ADD35R,1.500000X2.000000*%
G04 #@! TD*
G04 #@! TA.AperFunction,SMDPad,CuDef*
%ADD36R,3.800000X2.000000*%
G04 #@! TD*
G04 #@! TA.AperFunction,SMDPad,CuDef*
%ADD37RoundRect,0.062500X0.062500X-0.350000X0.062500X0.350000X-0.062500X0.350000X-0.062500X-0.350000X0*%
G04 #@! TD*
G04 #@! TA.AperFunction,SMDPad,CuDef*
%ADD38RoundRect,0.062500X0.350000X-0.062500X0.350000X0.062500X-0.350000X0.062500X-0.350000X-0.062500X0*%
G04 #@! TD*
G04 #@! TA.AperFunction,SMDPad,CuDef*
%ADD39R,2.600000X2.600000*%
G04 #@! TD*
G04 #@! TA.AperFunction,SMDPad,CuDef*
%ADD40RoundRect,0.150000X0.587500X0.150000X-0.587500X0.150000X-0.587500X-0.150000X0.587500X-0.150000X0*%
G04 #@! TD*
G04 #@! TA.AperFunction,SMDPad,CuDef*
%ADD41R,0.850000X0.300000*%
G04 #@! TD*
G04 #@! TA.AperFunction,SMDPad,CuDef*
%ADD42R,0.300000X0.850000*%
G04 #@! TD*
G04 #@! TA.AperFunction,SMDPad,CuDef*
%ADD43R,3.200000X3.200000*%
G04 #@! TD*
G04 #@! TA.AperFunction,SMDPad,CuDef*
%ADD44RoundRect,0.150000X0.150000X-0.587500X0.150000X0.587500X-0.150000X0.587500X-0.150000X-0.587500X0*%
G04 #@! TD*
G04 #@! TA.AperFunction,SMDPad,CuDef*
%ADD45R,1.500000X0.900000*%
G04 #@! TD*
G04 #@! TA.AperFunction,SMDPad,CuDef*
%ADD46R,0.900000X1.500000*%
G04 #@! TD*
G04 #@! TA.AperFunction,SMDPad,CuDef*
%ADD47R,0.900000X0.900000*%
G04 #@! TD*
G04 #@! TA.AperFunction,SMDPad,CuDef*
%ADD48R,1.550000X1.300000*%
G04 #@! TD*
G04 #@! TA.AperFunction,SMDPad,CuDef*
%ADD49RoundRect,0.150000X-0.825000X-0.150000X0.825000X-0.150000X0.825000X0.150000X-0.825000X0.150000X0*%
G04 #@! TD*
G04 #@! TA.AperFunction,SMDPad,CuDef*
%ADD50RoundRect,0.250000X0.325000X0.650000X-0.325000X0.650000X-0.325000X-0.650000X0.325000X-0.650000X0*%
G04 #@! TD*
G04 #@! TA.AperFunction,SMDPad,CuDef*
%ADD51R,1.000000X1.500000*%
G04 #@! TD*
G04 #@! TA.AperFunction,SMDPad,CuDef*
%ADD52RoundRect,0.250000X-0.325000X-0.650000X0.325000X-0.650000X0.325000X0.650000X-0.325000X0.650000X0*%
G04 #@! TD*
G04 #@! TA.AperFunction,ViaPad*
%ADD53C,0.450000*%
G04 #@! TD*
G04 #@! TA.AperFunction,ViaPad*
%ADD54C,0.800000*%
G04 #@! TD*
G04 #@! TA.AperFunction,ViaPad*
%ADD55C,1.000000*%
G04 #@! TD*
G04 #@! TA.AperFunction,Conductor*
%ADD56C,0.250000*%
G04 #@! TD*
G04 #@! TA.AperFunction,Conductor*
%ADD57C,0.400000*%
G04 #@! TD*
G04 #@! TA.AperFunction,Conductor*
%ADD58C,1.270000*%
G04 #@! TD*
G04 #@! TA.AperFunction,Conductor*
%ADD59C,0.600000*%
G04 #@! TD*
G04 #@! TA.AperFunction,Conductor*
%ADD60C,0.300000*%
G04 #@! TD*
G04 #@! TA.AperFunction,Conductor*
%ADD61C,0.175006*%
G04 #@! TD*
G04 #@! TA.AperFunction,Conductor*
%ADD62C,0.125984*%
G04 #@! TD*
G04 APERTURE END LIST*
D10*
X166565000Y-123780000D03*
X164915000Y-123780000D03*
D11*
X145610000Y-123115000D03*
X145610000Y-124765000D03*
D12*
X158925000Y-138000000D03*
X160475000Y-138000000D03*
D13*
X105415000Y-128980000D03*
X105415000Y-128480000D03*
X105415000Y-127980000D03*
X105415000Y-127480000D03*
X105415000Y-126980000D03*
X105415000Y-126480000D03*
X105415000Y-125980000D03*
X105415000Y-125480000D03*
X105415000Y-124980000D03*
X105415000Y-124480000D03*
X105415000Y-123980000D03*
X105415000Y-123480000D03*
X105415000Y-122980000D03*
X105415000Y-122480000D03*
X105415000Y-121980000D03*
X105415000Y-121480000D03*
X105415000Y-120980000D03*
X105415000Y-120480000D03*
X105415000Y-119980000D03*
D14*
X104655000Y-117230000D03*
X104655000Y-131730000D03*
D15*
X98695000Y-117230000D03*
X98695000Y-131730000D03*
D10*
X164605000Y-160575000D03*
X162955000Y-160575000D03*
D16*
X145750000Y-157500000D03*
X144200000Y-157500000D03*
D17*
X144495000Y-106470000D03*
X146145000Y-106470000D03*
D18*
X135500000Y-133005000D03*
X135500000Y-134555000D03*
D12*
X143275000Y-143810000D03*
X144825000Y-143810000D03*
D19*
X112000000Y-121900000D03*
X112000000Y-120250000D03*
D20*
X159050000Y-132300000D03*
D21*
X160750000Y-132300000D03*
X160750000Y-130300000D03*
X158850000Y-130300000D03*
D10*
X109455000Y-109550000D03*
X107805000Y-109550000D03*
D22*
X164767500Y-131800000D03*
X164767500Y-131150000D03*
X164767500Y-130500000D03*
X164767500Y-129850000D03*
X164767500Y-129200000D03*
D23*
X167467500Y-133400000D03*
D24*
X167467500Y-134000000D03*
X167467500Y-127000000D03*
D25*
X167467500Y-129500000D03*
X167467500Y-131500000D03*
D26*
X164767500Y-133000000D03*
X164767500Y-128000000D03*
D23*
X167467500Y-127600000D03*
D13*
X105415000Y-155929500D03*
X105415000Y-155429500D03*
X105415000Y-154929500D03*
X105415000Y-154429500D03*
X105415000Y-153929500D03*
X105415000Y-153429500D03*
X105415000Y-152929500D03*
X105415000Y-152429500D03*
X105415000Y-151929500D03*
X105415000Y-151429500D03*
X105415000Y-150929500D03*
X105415000Y-150429500D03*
X105415000Y-149929500D03*
X105415000Y-149429500D03*
X105415000Y-148929500D03*
X105415000Y-148429500D03*
X105415000Y-147929500D03*
X105415000Y-147429500D03*
X105415000Y-146929500D03*
D14*
X104655000Y-144179500D03*
X104655000Y-158679500D03*
D15*
X98695000Y-144179500D03*
X98695000Y-158679500D03*
D17*
X107805000Y-106910000D03*
X109455000Y-106910000D03*
D22*
X98212500Y-102250000D03*
X98212500Y-102900000D03*
X98212500Y-103550000D03*
X98212500Y-104200000D03*
X98212500Y-104850000D03*
D25*
X95512500Y-102550000D03*
D23*
X95512500Y-106450000D03*
D24*
X95512500Y-100050000D03*
D26*
X98212500Y-101050000D03*
D24*
X95512500Y-107050000D03*
D25*
X95512500Y-104550000D03*
D23*
X95512500Y-100650000D03*
D26*
X98212500Y-106050000D03*
D27*
X117770000Y-131260000D03*
X117770000Y-129960000D03*
X115770000Y-130610000D03*
D28*
X127920000Y-154780000D03*
D29*
X130420000Y-154780000D03*
X132420000Y-154780000D03*
X134920000Y-154780000D03*
D30*
X124850000Y-157490000D03*
X137990000Y-157490000D03*
D31*
X155790000Y-154900000D03*
D29*
X155790000Y-152400000D03*
X155790000Y-150400000D03*
X155790000Y-147900000D03*
D30*
X158500000Y-144830000D03*
X158500000Y-157970000D03*
D12*
X153555000Y-101290000D03*
X155105000Y-101290000D03*
D32*
X149080000Y-124715000D03*
X149080000Y-123165000D03*
D19*
X139060000Y-101855000D03*
X139060000Y-100205000D03*
D16*
X114615000Y-100890000D03*
X113065000Y-100890000D03*
D10*
X155155000Y-103540000D03*
X153505000Y-103540000D03*
D17*
X113015000Y-106890000D03*
X114665000Y-106890000D03*
D20*
X148950000Y-152640000D03*
D21*
X150650000Y-152640000D03*
X150650000Y-150640000D03*
X148750000Y-150640000D03*
D33*
X140472500Y-123800000D03*
X140472500Y-125700000D03*
X142347500Y-124750000D03*
D17*
X160245000Y-165940000D03*
X161895000Y-165940000D03*
X131685000Y-122420000D03*
X133335000Y-122420000D03*
D34*
X158650000Y-134300000D03*
X160750000Y-134300000D03*
D35*
X161750000Y-116740000D03*
D36*
X164050000Y-110440000D03*
D35*
X164050000Y-116740000D03*
X166350000Y-116740000D03*
D32*
X158150000Y-162295000D03*
X158150000Y-160745000D03*
D27*
X162130000Y-163510000D03*
X162130000Y-162210000D03*
X160130000Y-162860000D03*
X117770000Y-126750000D03*
X117770000Y-125450000D03*
X115770000Y-126100000D03*
D19*
X112090000Y-149210000D03*
X112090000Y-147560000D03*
D22*
X164767500Y-104850000D03*
X164767500Y-104200000D03*
X164767500Y-103550000D03*
X164767500Y-102900000D03*
X164767500Y-102250000D03*
D24*
X167467500Y-100050000D03*
D25*
X167467500Y-104550000D03*
D26*
X164767500Y-106050000D03*
D24*
X167467500Y-107050000D03*
D26*
X164767500Y-101050000D03*
D23*
X167467500Y-100650000D03*
X167467500Y-106450000D03*
D25*
X167467500Y-102550000D03*
D17*
X113015000Y-109550000D03*
X114665000Y-109550000D03*
D12*
X125225000Y-130250000D03*
X126775000Y-130250000D03*
X164965000Y-121635000D03*
X166515000Y-121635000D03*
D19*
X141040000Y-103130000D03*
X141040000Y-101480000D03*
D37*
X147750000Y-103417500D03*
X148250000Y-103417500D03*
X148750000Y-103417500D03*
X149250000Y-103417500D03*
X149750000Y-103417500D03*
X150250000Y-103417500D03*
D38*
X150937500Y-102730000D03*
X150937500Y-102230000D03*
X150937500Y-101730000D03*
X150937500Y-101230000D03*
X150937500Y-100730000D03*
X150937500Y-100230000D03*
D37*
X150250000Y-99542500D03*
X149750000Y-99542500D03*
X149250000Y-99542500D03*
X148750000Y-99542500D03*
X148250000Y-99542500D03*
X147750000Y-99542500D03*
D38*
X147062500Y-100230000D03*
X147062500Y-100730000D03*
X147062500Y-101230000D03*
X147062500Y-101730000D03*
X147062500Y-102230000D03*
X147062500Y-102730000D03*
D39*
X149000000Y-101480000D03*
D40*
X103437500Y-104200000D03*
X103437500Y-102300000D03*
X101562500Y-103250000D03*
D41*
X133950000Y-132250000D03*
X133950000Y-131750000D03*
X133950000Y-131250000D03*
X133950000Y-130750000D03*
X133950000Y-130250000D03*
X133950000Y-129750000D03*
X133950000Y-129250000D03*
X133950000Y-128750000D03*
D42*
X133250000Y-128050000D03*
X132750000Y-128050000D03*
X132250000Y-128050000D03*
X131750000Y-128050000D03*
X131250000Y-128050000D03*
X130750000Y-128050000D03*
X130250000Y-128050000D03*
X129750000Y-128050000D03*
D41*
X129050000Y-128750000D03*
X129050000Y-129250000D03*
X129050000Y-129750000D03*
X129050000Y-130250000D03*
X129050000Y-130750000D03*
X129050000Y-131250000D03*
X129050000Y-131750000D03*
X129050000Y-132250000D03*
D42*
X129750000Y-132950000D03*
X130250000Y-132950000D03*
X130750000Y-132950000D03*
X131250000Y-132950000D03*
X131750000Y-132950000D03*
X132250000Y-132950000D03*
X132750000Y-132950000D03*
X133250000Y-132950000D03*
D43*
X131500000Y-130500000D03*
D44*
X99662500Y-138967500D03*
X101562500Y-138967500D03*
X100612500Y-137092500D03*
D17*
X154705000Y-120740000D03*
X156355000Y-120740000D03*
D45*
X117225000Y-100610000D03*
X117225000Y-101880000D03*
X117225000Y-103150000D03*
X117225000Y-104420000D03*
X117225000Y-105690000D03*
X117225000Y-106960000D03*
X117225000Y-108230000D03*
X117225000Y-109500000D03*
X117225000Y-110770000D03*
X117225000Y-112040000D03*
X117225000Y-113310000D03*
X117225000Y-114580000D03*
X117225000Y-115850000D03*
X117225000Y-117120000D03*
D46*
X118990000Y-118370000D03*
X120260000Y-118370000D03*
X121530000Y-118370000D03*
X122800000Y-118370000D03*
X124070000Y-118370000D03*
X125340000Y-118370000D03*
X126610000Y-118370000D03*
X127880000Y-118370000D03*
X129150000Y-118370000D03*
X130420000Y-118370000D03*
X131690000Y-118370000D03*
X132960000Y-118370000D03*
D45*
X134725000Y-117120000D03*
X134725000Y-115850000D03*
X134725000Y-114580000D03*
X134725000Y-113310000D03*
X134725000Y-112040000D03*
X134725000Y-110770000D03*
X134725000Y-109500000D03*
X134725000Y-108230000D03*
X134725000Y-106960000D03*
X134725000Y-105690000D03*
X134725000Y-104420000D03*
X134725000Y-103150000D03*
X134725000Y-101880000D03*
X134725000Y-100610000D03*
D47*
X124475000Y-108330000D03*
X124475000Y-106930000D03*
X125875000Y-109730000D03*
X124475000Y-109730000D03*
X123075000Y-108330000D03*
X123075000Y-106930000D03*
X125875000Y-108330000D03*
X123075000Y-109730000D03*
X125875000Y-106930000D03*
D48*
X141000000Y-165050000D03*
X148950000Y-165050000D03*
X148950000Y-160550000D03*
X141000000Y-160550000D03*
D16*
X114615000Y-102640000D03*
X113065000Y-102640000D03*
D33*
X160762500Y-102925000D03*
X160762500Y-104825000D03*
X162637500Y-103875000D03*
D17*
X113015000Y-104520000D03*
X114665000Y-104520000D03*
D10*
X155155000Y-99040000D03*
X153505000Y-99040000D03*
D49*
X139575000Y-145955000D03*
X139575000Y-147225000D03*
X139575000Y-148495000D03*
X139575000Y-149765000D03*
X144525000Y-149765000D03*
X144525000Y-148495000D03*
X144525000Y-147225000D03*
X144525000Y-145955000D03*
D40*
X142347500Y-111215000D03*
X142347500Y-109315000D03*
X140472500Y-110265000D03*
D50*
X127925000Y-150650000D03*
X124975000Y-150650000D03*
D11*
X145320000Y-109565000D03*
X145320000Y-111215000D03*
D51*
X152405000Y-165450000D03*
X155605000Y-165450000D03*
X155605000Y-160550000D03*
X152405000Y-160550000D03*
D16*
X156305000Y-123680000D03*
X154755000Y-123680000D03*
D20*
X132175000Y-147540000D03*
D21*
X130475000Y-147540000D03*
X130475000Y-149540000D03*
X132375000Y-149540000D03*
D12*
X164965000Y-119490000D03*
X166515000Y-119490000D03*
D18*
X150600000Y-105325000D03*
X150600000Y-106875000D03*
D52*
X149100000Y-156970000D03*
X152050000Y-156970000D03*
D53*
X160990000Y-164580000D03*
X134875000Y-122345000D03*
D54*
X118500000Y-128000000D03*
X156500000Y-99000000D03*
D55*
X166250000Y-113750000D03*
D54*
X115500000Y-100318500D03*
X115500000Y-103750000D03*
X152000000Y-105250000D03*
X152250000Y-103750000D03*
X140750000Y-100250000D03*
X163250000Y-165250000D03*
X142500000Y-101500000D03*
X163500000Y-123750000D03*
X146250000Y-121500000D03*
X154250000Y-100250000D03*
X163500000Y-163500000D03*
X118500000Y-132500000D03*
D53*
X147440000Y-124750000D03*
X141170000Y-121930000D03*
X145710000Y-155400000D03*
X131970000Y-115640000D03*
X140610000Y-124780000D03*
X144350000Y-109460000D03*
X144910000Y-100490000D03*
X158000000Y-120290000D03*
X154420000Y-106020000D03*
X147850000Y-109600000D03*
X147930000Y-116810000D03*
D54*
X123000000Y-105750000D03*
X124500000Y-105250000D03*
X127500000Y-131250000D03*
X147455000Y-156550000D03*
X103500000Y-103250000D03*
X133291782Y-125230816D03*
X113000000Y-101750000D03*
X146500000Y-144000000D03*
X127750000Y-128750000D03*
X121750000Y-108000000D03*
X129260000Y-126420000D03*
X127500000Y-109750000D03*
X114100000Y-148000000D03*
X102850000Y-151250000D03*
X135530483Y-127469517D03*
X147750000Y-105000000D03*
X155250000Y-163500000D03*
X102850000Y-152250000D03*
X102850000Y-155000000D03*
X102850000Y-153750000D03*
X148000000Y-122000000D03*
X161353374Y-103861003D03*
X100250000Y-105500000D03*
X102540000Y-125500000D03*
X127500000Y-108250000D03*
X157750000Y-123500000D03*
X133000000Y-100250000D03*
X107750000Y-108250000D03*
X102540000Y-127000000D03*
X130750000Y-134250000D03*
X134000000Y-134750000D03*
X119250000Y-100750000D03*
X145000000Y-165000000D03*
X134950000Y-126220000D03*
X165000000Y-120500000D03*
X124750000Y-111000000D03*
X132250000Y-134500000D03*
X127500000Y-132500000D03*
X162250000Y-138000000D03*
X152000000Y-107000000D03*
X155000000Y-102500000D03*
X102540000Y-124156904D03*
X123500000Y-130250000D03*
X158000000Y-131750000D03*
X127000000Y-107500000D03*
X100600000Y-135500000D03*
X162930000Y-128750000D03*
X163000000Y-101500000D03*
X149361500Y-153611500D03*
X123000000Y-111000000D03*
X101980000Y-120749500D03*
X102540000Y-128500000D03*
D53*
X132950000Y-135920000D03*
X111400000Y-106890000D03*
X122740000Y-124640000D03*
X131060000Y-103250000D03*
X100720000Y-147810000D03*
X100750000Y-144850000D03*
X101444760Y-148415240D03*
X101530000Y-143460000D03*
X119990000Y-129920000D03*
X130200000Y-101780000D03*
X135600000Y-128640000D03*
X110510000Y-104520000D03*
X114660000Y-113280000D03*
X120470000Y-127480000D03*
X156770504Y-128239496D03*
X149350000Y-107250000D03*
X157136507Y-129000000D03*
X148560616Y-107328462D03*
X131793503Y-148614186D03*
X114740000Y-118270000D03*
X114063027Y-118078630D03*
X131090000Y-148614186D03*
X107791492Y-129569895D03*
X108131555Y-155636673D03*
X107300000Y-128220000D03*
X107728508Y-155060072D03*
X109219500Y-127890000D03*
X109390000Y-152800000D03*
X108310000Y-126573421D03*
X108840392Y-153298340D03*
X109470000Y-126690000D03*
X109712547Y-151965974D03*
X110308906Y-151592784D03*
X109946311Y-126172271D03*
X111107893Y-150757893D03*
X111740000Y-125560000D03*
X111100000Y-150000000D03*
X111367429Y-124692571D03*
X101440000Y-124600000D03*
X102200000Y-150041000D03*
X100689937Y-124379937D03*
X98750000Y-148560000D03*
X130240000Y-115620000D03*
X141080000Y-139230000D03*
D56*
X131690000Y-122415000D02*
X131690000Y-118300000D01*
X134800000Y-122420000D02*
X134875000Y-122345000D01*
X133335000Y-122420000D02*
X134800000Y-122420000D01*
X160990000Y-165195000D02*
X160245000Y-165940000D01*
X160990000Y-163350000D02*
X162130000Y-162210000D01*
X160990000Y-164580000D02*
X160990000Y-165195000D01*
X160990000Y-164580000D02*
X160990000Y-163350000D01*
D57*
X150600000Y-105325000D02*
X151925000Y-105325000D01*
X114928500Y-100890000D02*
X114615000Y-100890000D01*
D56*
X154250000Y-100595000D02*
X153555000Y-101290000D01*
D57*
X117770000Y-131260000D02*
X117770000Y-131770000D01*
X166515000Y-119490000D02*
X166515000Y-116905000D01*
X145610000Y-122140000D02*
X146250000Y-121500000D01*
X166350000Y-116740000D02*
X166350000Y-113850000D01*
D56*
X139060000Y-100205000D02*
X140455000Y-100205000D01*
D57*
X162560000Y-165940000D02*
X163250000Y-165250000D01*
D56*
X150250000Y-103417500D02*
X150250000Y-104975000D01*
D57*
X151925000Y-105325000D02*
X152000000Y-105250000D01*
X115445000Y-101720000D02*
X114615000Y-100890000D01*
X115445000Y-101810000D02*
X114615000Y-102640000D01*
D56*
X150937500Y-102730000D02*
X151730000Y-102730000D01*
D57*
X115500000Y-100318500D02*
X114928500Y-100890000D01*
X163490000Y-163510000D02*
X163500000Y-163500000D01*
D56*
X149750000Y-105000000D02*
X150075000Y-105325000D01*
D57*
X166350000Y-113850000D02*
X166250000Y-113750000D01*
X115500000Y-103525000D02*
X114615000Y-102640000D01*
D56*
X140455000Y-100205000D02*
X140500000Y-100250000D01*
D57*
X115445000Y-101810000D02*
X115445000Y-101720000D01*
X115500000Y-103750000D02*
X115500000Y-103525000D01*
D56*
X150075000Y-105325000D02*
X150600000Y-105325000D01*
D57*
X117770000Y-126750000D02*
X117770000Y-127270000D01*
D56*
X154250000Y-100250000D02*
X154250000Y-100595000D01*
X149750000Y-103417500D02*
X149750000Y-105000000D01*
D57*
X117770000Y-127270000D02*
X118500000Y-128000000D01*
X117225000Y-101810000D02*
X115445000Y-101810000D01*
X163530000Y-123780000D02*
X163500000Y-123750000D01*
X164915000Y-123780000D02*
X163530000Y-123780000D01*
D56*
X151730000Y-102730000D02*
X152250000Y-103250000D01*
D57*
X145610000Y-123115000D02*
X145610000Y-122140000D01*
D56*
X150250000Y-104975000D02*
X150600000Y-105325000D01*
D57*
X117770000Y-131770000D02*
X118500000Y-132500000D01*
D56*
X152250000Y-103250000D02*
X152250000Y-103750000D01*
D57*
X161895000Y-165940000D02*
X162560000Y-165940000D01*
D56*
X156500000Y-99000000D02*
X155195000Y-99000000D01*
X141040000Y-101480000D02*
X142480000Y-101480000D01*
D57*
X162130000Y-163510000D02*
X163490000Y-163510000D01*
D56*
X142347500Y-123107500D02*
X141170000Y-121930000D01*
X131970000Y-111240000D02*
X123810000Y-103080000D01*
X141000000Y-160550000D02*
X142700000Y-160550000D01*
X145750000Y-155440000D02*
X145710000Y-155400000D01*
X142700000Y-160550000D02*
X145750000Y-157500000D01*
X147440000Y-124750000D02*
X149045000Y-124750000D01*
X142347500Y-124750000D02*
X147440000Y-124750000D01*
X148950000Y-160550000D02*
X145900000Y-157500000D01*
X142347500Y-124750000D02*
X142347500Y-123107500D01*
X123810000Y-103080000D02*
X117225000Y-103080000D01*
X131970000Y-115640000D02*
X131970000Y-111240000D01*
X145750000Y-157500000D02*
X145750000Y-155440000D01*
X140610000Y-124780000D02*
X140610000Y-125562500D01*
X144350000Y-109460000D02*
X145215000Y-109460000D01*
X145170000Y-100230000D02*
X144910000Y-100490000D01*
X147062500Y-100230000D02*
X145170000Y-100230000D01*
X145320000Y-111215000D02*
X142347500Y-111215000D01*
X166565000Y-123780000D02*
X166565000Y-121685000D01*
X151398008Y-101730000D02*
X151675000Y-101453008D01*
X151675000Y-101453008D02*
X151675000Y-101435000D01*
X150937500Y-101730000D02*
X151398008Y-101730000D01*
X153505000Y-99605000D02*
X153505000Y-99040000D01*
X151675000Y-101435000D02*
X153505000Y-99605000D01*
D58*
X151070000Y-163865000D02*
X152795000Y-162140000D01*
X152795000Y-162140000D02*
X154015000Y-162140000D01*
X135655000Y-156515000D02*
X135655000Y-162320000D01*
X139870000Y-166535000D02*
X150075000Y-166535000D01*
X142715000Y-147445000D02*
X142715000Y-149927811D01*
X158925000Y-134575000D02*
X158650000Y-134300000D01*
X130945000Y-158260000D02*
X135660000Y-158260000D01*
X158925000Y-138000000D02*
X155520000Y-141405000D01*
X127925000Y-150650000D02*
X127925000Y-150090000D01*
X158925000Y-138000000D02*
X158925000Y-134575000D01*
D59*
X144525000Y-147225000D02*
X142935000Y-147225000D01*
D58*
X162955000Y-152587189D02*
X162955000Y-160575000D01*
X150075000Y-166535000D02*
X151070000Y-165540000D01*
X142715000Y-149927811D02*
X142715000Y-144370000D01*
X160110000Y-160550000D02*
X162930000Y-160550000D01*
X127925000Y-150090000D02*
X130475000Y-147540000D01*
X127925000Y-155240000D02*
X130945000Y-158260000D01*
X135655000Y-162320000D02*
X139870000Y-166535000D01*
X160110000Y-160550000D02*
X155605000Y-160550000D01*
X142935000Y-147225000D02*
X142715000Y-147445000D01*
X155520000Y-141405000D02*
X155520000Y-145152189D01*
X154755000Y-130405000D02*
X158650000Y-134300000D01*
X142715000Y-144370000D02*
X143275000Y-143810000D01*
X158000000Y-160550000D02*
X160110000Y-160550000D01*
X142242189Y-149927811D02*
X135655000Y-156515000D01*
X161750000Y-116740000D02*
X158416289Y-116740000D01*
X127925000Y-155240000D02*
X127925000Y-150650000D01*
X158416289Y-116740000D02*
X154705000Y-120451289D01*
X154705000Y-123630000D02*
X154755000Y-123680000D01*
X154755000Y-123680000D02*
X154755000Y-130405000D01*
X162930000Y-160550000D02*
X162955000Y-160575000D01*
X155520000Y-145152189D02*
X162955000Y-152587189D01*
X142715000Y-149927811D02*
X142242189Y-149927811D01*
X154015000Y-162140000D02*
X155605000Y-160550000D01*
X154705000Y-120740000D02*
X154705000Y-123630000D01*
X154705000Y-120451289D02*
X154705000Y-120740000D01*
X151070000Y-165540000D02*
X151070000Y-163865000D01*
D56*
X156355000Y-120740000D02*
X157550000Y-120740000D01*
X153505000Y-103540000D02*
X153505000Y-105105000D01*
X152195000Y-102230000D02*
X153505000Y-103540000D01*
X150937500Y-102230000D02*
X152195000Y-102230000D01*
X153505000Y-105105000D02*
X154420000Y-106020000D01*
X157550000Y-120740000D02*
X158000000Y-120290000D01*
X144495000Y-106470000D02*
X144495000Y-104336992D01*
X142347500Y-109315000D02*
X142347500Y-108617500D01*
X142347500Y-108617500D02*
X144495000Y-106470000D01*
X144495000Y-104336992D02*
X146601992Y-102230000D01*
X146601992Y-102230000D02*
X147062500Y-102230000D01*
X140472500Y-123800000D02*
X140472500Y-121397500D01*
X147930000Y-117060000D02*
X147930000Y-116810000D01*
X144280000Y-120710000D02*
X147930000Y-117060000D01*
X140472500Y-121397500D02*
X141160000Y-120710000D01*
X146145000Y-107895000D02*
X147850000Y-109600000D01*
X146145000Y-106470000D02*
X146145000Y-107895000D01*
X141160000Y-120710000D02*
X144280000Y-120710000D01*
D60*
X103029500Y-152429500D02*
X102850000Y-152250000D01*
D57*
X124855000Y-150770000D02*
X124855000Y-157950000D01*
X127410000Y-109660000D02*
X127500000Y-109750000D01*
D60*
X149080000Y-123080000D02*
X148000000Y-122000000D01*
D57*
X146310000Y-143810000D02*
X146500000Y-144000000D01*
X149361500Y-153611500D02*
X148950000Y-153200000D01*
D60*
X156650000Y-162100000D02*
X153300000Y-165450000D01*
X105415000Y-152429500D02*
X103029500Y-152429500D01*
X107640000Y-148310000D02*
X107259500Y-147929500D01*
D57*
X164777500Y-129200000D02*
X163380000Y-129200000D01*
X133290000Y-100540000D02*
X133000000Y-100250000D01*
X125875000Y-108260000D02*
X127490000Y-108260000D01*
D60*
X103295500Y-155429500D02*
X103287500Y-155437500D01*
X158000000Y-162100000D02*
X156650000Y-162100000D01*
D57*
X124475000Y-110725000D02*
X124750000Y-111000000D01*
D60*
X133950000Y-128050000D02*
X133950000Y-128750000D01*
X114100000Y-148000000D02*
X113790000Y-148310000D01*
D57*
X160475000Y-138000000D02*
X162250000Y-138000000D01*
D60*
X105415000Y-150929500D02*
X103170500Y-150929500D01*
X133291782Y-125230816D02*
X132250000Y-126272598D01*
D57*
X161367371Y-103875000D02*
X162637500Y-103875000D01*
D60*
X103170500Y-150929500D02*
X102850000Y-151250000D01*
D57*
X144825000Y-143810000D02*
X146310000Y-143810000D01*
X125875000Y-106860000D02*
X126360000Y-106860000D01*
X113065000Y-100890000D02*
X113065000Y-102640000D01*
X134195000Y-134555000D02*
X134000000Y-134750000D01*
D60*
X141000000Y-165050000D02*
X148950000Y-165050000D01*
D57*
X164050000Y-118575000D02*
X164965000Y-119490000D01*
X147455000Y-156550000D02*
X147875000Y-156970000D01*
D60*
X130750000Y-132950000D02*
X130750000Y-134250000D01*
X129720000Y-126880000D02*
X129260000Y-126420000D01*
X130750000Y-126880000D02*
X129720000Y-126880000D01*
X105415000Y-153929500D02*
X103029500Y-153929500D01*
D57*
X164965000Y-121635000D02*
X164965000Y-119490000D01*
D60*
X103029500Y-153929500D02*
X102850000Y-153750000D01*
D57*
X134725000Y-100540000D02*
X133290000Y-100540000D01*
X123075000Y-108260000D02*
X122010000Y-108260000D01*
D60*
X129050000Y-130750000D02*
X128000000Y-130750000D01*
X133950000Y-132250000D02*
X133950000Y-134700000D01*
X133950000Y-134700000D02*
X134000000Y-134750000D01*
X157570000Y-123680000D02*
X157750000Y-123500000D01*
X128000000Y-130750000D02*
X127500000Y-131250000D01*
D57*
X164050000Y-116740000D02*
X164050000Y-110440000D01*
D56*
X148250000Y-103417500D02*
X148250000Y-102230000D01*
D57*
X124475000Y-108260000D02*
X124475000Y-109660000D01*
X134925000Y-152075000D02*
X135750000Y-151250000D01*
X125225000Y-130250000D02*
X123500000Y-130250000D01*
D60*
X102560000Y-126980000D02*
X102540000Y-127000000D01*
D57*
X163380000Y-129200000D02*
X162930000Y-128750000D01*
X134790000Y-147540000D02*
X135750000Y-148500000D01*
D60*
X105415000Y-155429500D02*
X103295500Y-155429500D01*
D57*
X148950000Y-153200000D02*
X148950000Y-152640000D01*
D60*
X127750000Y-132250000D02*
X127500000Y-132500000D01*
D57*
X144200000Y-157500000D02*
X143750000Y-157950000D01*
X134925000Y-155240000D02*
X134925000Y-152075000D01*
D60*
X103037500Y-153937500D02*
X102850000Y-153750000D01*
D57*
X124475000Y-106860000D02*
X124475000Y-105525000D01*
D60*
X105415000Y-126980000D02*
X102560000Y-126980000D01*
D57*
X132175000Y-147540000D02*
X134790000Y-147540000D01*
X99600000Y-104850000D02*
X100250000Y-105500000D01*
D60*
X129050000Y-128750000D02*
X127750000Y-128750000D01*
D57*
X143750000Y-157950000D02*
X137995000Y-157950000D01*
D60*
X102716904Y-123980000D02*
X102540000Y-124156904D01*
X105415000Y-120980000D02*
X102210500Y-120980000D01*
X132250000Y-132950000D02*
X132250000Y-134500000D01*
X107259500Y-147929500D02*
X105415000Y-147929500D01*
D57*
X117225000Y-100540000D02*
X119040000Y-100540000D01*
D60*
X105415000Y-128480000D02*
X102560000Y-128480000D01*
X105415000Y-125480000D02*
X102560000Y-125480000D01*
X134750000Y-128818248D02*
X134318248Y-129250000D01*
X153300000Y-165450000D02*
X152405000Y-165450000D01*
D57*
X164050000Y-116740000D02*
X164050000Y-118575000D01*
D60*
X134318248Y-129250000D02*
X133950000Y-129250000D01*
D57*
X155105000Y-101290000D02*
X155105000Y-103490000D01*
D60*
X102560000Y-128480000D02*
X102540000Y-128500000D01*
D57*
X124475000Y-109660000D02*
X124475000Y-110725000D01*
X135500000Y-134555000D02*
X134195000Y-134555000D01*
D60*
X102210500Y-120980000D02*
X101980000Y-120749500D01*
D57*
X123075000Y-109660000D02*
X123075000Y-110925000D01*
D60*
X103287500Y-155437500D02*
X102850000Y-155000000D01*
X135530483Y-127469517D02*
X134750000Y-128250000D01*
X113790000Y-148310000D02*
X107640000Y-148310000D01*
D57*
X151875000Y-106875000D02*
X152000000Y-107000000D01*
X126360000Y-106860000D02*
X127000000Y-107500000D01*
D60*
X130750000Y-128050000D02*
X130750000Y-126880000D01*
D57*
X123075000Y-110925000D02*
X123000000Y-111000000D01*
D60*
X132250000Y-126272598D02*
X132250000Y-128050000D01*
X102560000Y-125480000D02*
X102540000Y-125500000D01*
D57*
X122010000Y-108260000D02*
X121750000Y-108000000D01*
X101562500Y-103250000D02*
X103500000Y-103250000D01*
X124475000Y-105525000D02*
X124500000Y-105500000D01*
D60*
X105415000Y-123980000D02*
X102716904Y-123980000D01*
D57*
X163750000Y-102250000D02*
X163000000Y-101500000D01*
D60*
X129050000Y-130750000D02*
X131250000Y-130750000D01*
X134750000Y-128250000D02*
X134750000Y-128818248D01*
D57*
X147875000Y-156970000D02*
X149100000Y-156970000D01*
D60*
X134950000Y-126220000D02*
X134950000Y-127050000D01*
X129050000Y-132250000D02*
X127750000Y-132250000D01*
D57*
X135750000Y-148500000D02*
X139570000Y-148500000D01*
X164847500Y-102250000D02*
X163750000Y-102250000D01*
D60*
X102850000Y-152250000D02*
X103037500Y-152437500D01*
D57*
X135750000Y-151250000D02*
X135750000Y-148500000D01*
X98137500Y-104850000D02*
X99600000Y-104850000D01*
X150600000Y-106875000D02*
X151875000Y-106875000D01*
X161353374Y-103861003D02*
X161367371Y-103875000D01*
X159050000Y-132300000D02*
X158500000Y-131750000D01*
X125875000Y-109660000D02*
X127410000Y-109660000D01*
X107805000Y-109550000D02*
X107805000Y-106910000D01*
X123075000Y-106860000D02*
X123075000Y-105925000D01*
D60*
X134950000Y-127050000D02*
X133950000Y-128050000D01*
D57*
X119040000Y-100540000D02*
X119250000Y-100750000D01*
D60*
X156305000Y-123680000D02*
X157570000Y-123680000D01*
D57*
X158500000Y-131750000D02*
X158000000Y-131750000D01*
X100612500Y-137092500D02*
X100612500Y-135512500D01*
D56*
X148250000Y-104500000D02*
X147750000Y-105000000D01*
X148250000Y-103417500D02*
X148250000Y-104500000D01*
X113015000Y-106890000D02*
X111400000Y-106890000D01*
X135410000Y-135920000D02*
X132950000Y-135920000D01*
X136300000Y-132552183D02*
X136300000Y-135030000D01*
X136300000Y-135030000D02*
X135410000Y-135920000D01*
X111400000Y-106890000D02*
X109475000Y-106890000D01*
X133950000Y-131250000D02*
X134997817Y-131250000D01*
X134997817Y-131250000D02*
X136300000Y-132552183D01*
X117225000Y-106890000D02*
X114665000Y-106890000D01*
X122740000Y-124640000D02*
X121930000Y-125450000D01*
X121930000Y-125450000D02*
X117770000Y-125450000D01*
X131230000Y-103080000D02*
X140990000Y-103080000D01*
X134725000Y-103080000D02*
X131230000Y-103080000D01*
X131230000Y-103080000D02*
X131060000Y-103250000D01*
X105335000Y-148437500D02*
X102321205Y-148437500D01*
X100750000Y-140055000D02*
X100750000Y-144850000D01*
X112100000Y-121900000D02*
X111688000Y-121488000D01*
X99320000Y-129858913D02*
X100460000Y-130998913D01*
X100460000Y-134140000D02*
X99662500Y-134937500D01*
X102643604Y-121570000D02*
X102010000Y-121570000D01*
X112000000Y-121900000D02*
X115770000Y-125670000D01*
X102321205Y-148437500D02*
X101693705Y-147810000D01*
X100460000Y-130998913D02*
X100460000Y-134140000D01*
X111688000Y-121488000D02*
X102725604Y-121488000D01*
X101693705Y-147810000D02*
X100720000Y-147810000D01*
X102725604Y-121488000D02*
X102643604Y-121570000D01*
X102010000Y-121570000D02*
X99320000Y-124260000D01*
X99662500Y-138967500D02*
X100750000Y-140055000D01*
X99662500Y-134937500D02*
X99662500Y-138967500D01*
X115770000Y-125670000D02*
X115770000Y-126100000D01*
X99320000Y-124260000D02*
X99320000Y-129858913D01*
X105335000Y-147437500D02*
X111967500Y-147437500D01*
X112240000Y-120250000D02*
X116650000Y-124660000D01*
X116650000Y-142655000D02*
X111990000Y-147315000D01*
X105335000Y-120488000D02*
X111862000Y-120488000D01*
X116650000Y-124660000D02*
X116650000Y-142655000D01*
X102830000Y-122020000D02*
X102196396Y-122020000D01*
X106935000Y-121988000D02*
X102862000Y-121988000D01*
X101444760Y-148415240D02*
X101967020Y-148937500D01*
X100000000Y-124216396D02*
X100000000Y-129902517D01*
X102196396Y-122020000D02*
X100000000Y-124216396D01*
X101967020Y-148937500D02*
X105335000Y-148937500D01*
X108117000Y-123170000D02*
X106935000Y-121988000D01*
X105335000Y-148937500D02*
X111817500Y-148937500D01*
X100000000Y-129902517D02*
X100910000Y-130812517D01*
X101562500Y-143427500D02*
X101562500Y-138967500D01*
X102862000Y-121988000D02*
X102830000Y-122020000D01*
X115770000Y-127310000D02*
X115770000Y-130610000D01*
X111630000Y-123170000D02*
X115770000Y-127310000D01*
X111730000Y-123170000D02*
X108117000Y-123170000D01*
X100910000Y-130812517D02*
X100910000Y-134326396D01*
X100719035Y-134517362D02*
X101610000Y-135408327D01*
X101530000Y-143460000D02*
X101562500Y-143427500D01*
X100910000Y-134326396D02*
X100719035Y-134517362D01*
X101610000Y-135408327D02*
X101610000Y-138920000D01*
X117770000Y-129960000D02*
X119950000Y-129960000D01*
X130200000Y-101780000D02*
X134695000Y-101780000D01*
X130210000Y-101770000D02*
X138975000Y-101770000D01*
X130200000Y-101780000D02*
X130210000Y-101770000D01*
X119950000Y-129960000D02*
X119990000Y-129920000D01*
X133950000Y-129750000D02*
X134490000Y-129750000D01*
X113015000Y-104520000D02*
X110510000Y-104520000D01*
X134490000Y-129750000D02*
X135600000Y-128640000D01*
X115765000Y-105620000D02*
X117225000Y-105620000D01*
X114665000Y-104520000D02*
X115765000Y-105620000D01*
X157540000Y-165450000D02*
X155605000Y-165450000D01*
X163330000Y-166740000D02*
X156895000Y-166740000D01*
X164600000Y-160580000D02*
X164600000Y-165470000D01*
X160130000Y-162860000D02*
X157540000Y-165450000D01*
X164600000Y-165470000D02*
X163330000Y-166740000D01*
X156895000Y-166740000D02*
X155605000Y-165450000D01*
X140472500Y-113707500D02*
X137130000Y-117050000D01*
X137130000Y-117050000D02*
X134725000Y-117050000D01*
X140472500Y-110265000D02*
X140472500Y-113707500D01*
D58*
X151910000Y-154900000D02*
X151020000Y-154900000D01*
X152050000Y-155040000D02*
X151910000Y-154900000D01*
X156165000Y-154900000D02*
X151910000Y-154900000D01*
X148570000Y-154900000D02*
X147000000Y-153330000D01*
X144525000Y-148495000D02*
X146595000Y-148495000D01*
X145623000Y-145955000D02*
X144525000Y-145955000D01*
X150650000Y-154530000D02*
X151020000Y-154900000D01*
X152050000Y-156970000D02*
X152050000Y-155040000D01*
X147000000Y-153330000D02*
X147000000Y-147332000D01*
X147000000Y-147332000D02*
X145623000Y-145955000D01*
X150650000Y-152640000D02*
X150650000Y-154530000D01*
X151020000Y-154900000D02*
X148570000Y-154900000D01*
D61*
X149838303Y-144472360D02*
X149838303Y-149303302D01*
X151391697Y-151261697D02*
X155303303Y-151261697D01*
X149838303Y-149303302D02*
X150650000Y-150114999D01*
X134012497Y-130312497D02*
X135678440Y-130312497D01*
X135678440Y-130312497D02*
X149838303Y-144472360D01*
X150650000Y-150114999D02*
X150650000Y-150640000D01*
X150770000Y-150640000D02*
X151391697Y-151261697D01*
X155303303Y-151261697D02*
X156165000Y-150400000D01*
X149561697Y-147982483D02*
X149561697Y-147828303D01*
X149561697Y-149303302D02*
X149561697Y-149028303D01*
X135724763Y-130750000D02*
X133950000Y-130750000D01*
X151058820Y-151320000D02*
X151277123Y-151538303D01*
X148750000Y-150114999D02*
X149561697Y-149303302D01*
X148750000Y-150640000D02*
X149430000Y-151320000D01*
X149338787Y-148805393D02*
X149338786Y-148805393D01*
X155303303Y-151538303D02*
X156165000Y-152400000D01*
X149561697Y-147828303D02*
X149561697Y-144586934D01*
X149338786Y-148205393D02*
X149338787Y-148205393D01*
X149430000Y-151320000D02*
X151058820Y-151320000D01*
X149115876Y-148582483D02*
X149115876Y-148428303D01*
X148750000Y-150640000D02*
X148750000Y-150114999D01*
X151277123Y-151538303D02*
X155303303Y-151538303D01*
X149561697Y-144586934D02*
X135724763Y-130750000D01*
X149561693Y-147982483D02*
G75*
G02*
X149338787Y-148205393I-222893J-17D01*
G01*
X149115907Y-148582483D02*
G75*
G03*
X149338786Y-148805393I222893J-17D01*
G01*
X149338787Y-148805403D02*
G75*
G02*
X149561697Y-149028303I13J-222897D01*
G01*
X149338786Y-148205376D02*
G75*
G03*
X149115876Y-148428303I14J-222924D01*
G01*
D56*
X133285000Y-145955000D02*
X120594000Y-133264000D01*
X113015000Y-111635000D02*
X114660000Y-113280000D01*
X120594000Y-133264000D02*
X120594000Y-127604000D01*
X109455000Y-109550000D02*
X113015000Y-109550000D01*
X113015000Y-109550000D02*
X113015000Y-111635000D01*
X120594000Y-127604000D02*
X120470000Y-127480000D01*
X139575000Y-145955000D02*
X133285000Y-145955000D01*
D61*
X104194353Y-106173394D02*
X104194353Y-106052434D01*
X129048811Y-124411334D02*
X129120146Y-124340000D01*
X102740000Y-104200000D02*
X103437500Y-104200000D01*
X129120146Y-123915736D02*
X129120147Y-123915737D01*
X129968675Y-124764265D02*
X129968676Y-124764266D01*
X131250000Y-127412499D02*
X131361697Y-127300802D01*
X100313303Y-103363303D02*
X100787503Y-103837503D01*
X129120147Y-123915737D02*
X127792713Y-122588303D01*
X130392939Y-125612794D02*
X130392316Y-125613418D01*
X129544411Y-124764265D02*
X129544410Y-124764265D01*
X129968051Y-125189153D02*
X129968051Y-125189152D01*
X131250000Y-128050000D02*
X131250000Y-127412499D01*
X104673394Y-110018984D02*
X104673394Y-106652434D01*
X99336698Y-103363303D02*
X100313303Y-103363303D01*
X129544410Y-124764265D02*
X129473076Y-124835600D01*
X100787503Y-103837503D02*
X102377503Y-103837503D01*
X104673394Y-105323394D02*
X103550000Y-104200000D01*
X131361697Y-126157287D02*
X130817205Y-125612795D01*
X102377503Y-103837503D02*
X102740000Y-104200000D01*
X117242713Y-122588303D02*
X104673394Y-110018984D01*
X98137500Y-103550000D02*
X99150001Y-103550000D01*
X104673394Y-105573394D02*
X104673394Y-105323394D01*
X131361697Y-127300802D02*
X131361697Y-126157287D01*
X129968051Y-125189152D02*
X129968675Y-125188529D01*
X104433873Y-105812914D02*
X104433874Y-105812914D01*
X130392940Y-125612794D02*
X130392939Y-125612794D01*
X99150001Y-103550000D02*
X99336698Y-103363303D01*
X104433874Y-106412914D02*
X104433873Y-106412914D01*
X127792713Y-122588303D02*
X117242713Y-122588303D01*
X129048811Y-124411335D02*
X129048811Y-124411334D01*
X129968672Y-124764268D02*
G75*
G02*
X129968675Y-125188529I-212172J-212132D01*
G01*
X129048844Y-124411368D02*
G75*
G03*
X129048812Y-124835600I212056J-212132D01*
G01*
X130392969Y-125612823D02*
G75*
G02*
X130817204Y-125612796I212131J-212077D01*
G01*
X129048813Y-124835599D02*
G75*
G03*
X129473075Y-124835599I212131J212131D01*
G01*
X104194386Y-106173394D02*
G75*
G03*
X104433873Y-106412914I239514J-6D01*
G01*
X129968066Y-125189168D02*
G75*
G03*
X129968052Y-125613418I212134J-212132D01*
G01*
X104673414Y-105573394D02*
G75*
G02*
X104433874Y-105812914I-239514J-6D01*
G01*
X129968053Y-125613417D02*
G75*
G03*
X130392315Y-125613417I212131J212131D01*
G01*
X104433873Y-105812853D02*
G75*
G03*
X104194353Y-106052434I27J-239547D01*
G01*
X104433874Y-106412906D02*
G75*
G02*
X104673394Y-106652434I26J-239494D01*
G01*
X129120114Y-123915768D02*
G75*
G02*
X129120146Y-124340000I-212114J-212132D01*
G01*
X129544368Y-124764222D02*
G75*
G02*
X129968676Y-124764266I212132J-212178D01*
G01*
X99336698Y-103086697D02*
X100363303Y-103086697D01*
X102770000Y-102300000D02*
X103437500Y-102300000D01*
X103598644Y-102300000D02*
X103437500Y-102300000D01*
X131638303Y-126042713D02*
X127907287Y-122311697D01*
X131638303Y-127300802D02*
X131638303Y-126042713D01*
X98137500Y-102900000D02*
X99150001Y-102900000D01*
X100363303Y-103086697D02*
X100787503Y-102662497D01*
X104462503Y-104721323D02*
X104462503Y-103163859D01*
X117357287Y-122311697D02*
X104950000Y-109904410D01*
X104950000Y-105208820D02*
X104462503Y-104721323D01*
X104950000Y-109904410D02*
X104950000Y-105208820D01*
X131750000Y-128050000D02*
X131750000Y-127412499D01*
X131750000Y-127412499D02*
X131638303Y-127300802D01*
X104462503Y-103163859D02*
X103598644Y-102300000D01*
X100787503Y-102662497D02*
X102407503Y-102662497D01*
X102407503Y-102662497D02*
X102770000Y-102300000D01*
X127907287Y-122311697D02*
X117357287Y-122311697D01*
X99150001Y-102900000D02*
X99336698Y-103086697D01*
X135650281Y-124592795D02*
X135650282Y-124592795D01*
X136074544Y-123921043D02*
X136074545Y-123921042D01*
X140207287Y-119788303D02*
X143357287Y-119788303D01*
X136074546Y-124168531D02*
X136074545Y-124168530D01*
X159926606Y-103976606D02*
X160762500Y-104812500D01*
X135897769Y-124592794D02*
X135897769Y-124592795D01*
X133138303Y-127300802D02*
X133138303Y-126857287D01*
X143357287Y-119788303D02*
X159168984Y-103976606D01*
X160967500Y-104620000D02*
X160762500Y-104825000D01*
X163248723Y-104620000D02*
X160967500Y-104620000D01*
X133250000Y-128050000D02*
X133250000Y-127412499D01*
X133250000Y-127412499D02*
X133138303Y-127300802D01*
X135897769Y-124592795D02*
X136074545Y-124416018D01*
X164847500Y-104200000D02*
X163662503Y-104200000D01*
X163662503Y-104200000D02*
X163662503Y-104206220D01*
X163662503Y-104206220D02*
X163248723Y-104620000D01*
X133138303Y-126857287D02*
X135402795Y-124592795D01*
X136074545Y-123921042D02*
X140207287Y-119788303D01*
X159168984Y-103976606D02*
X159926606Y-103976606D01*
X135897744Y-124592769D02*
G75*
G02*
X135650282Y-124592795I-123744J123669D01*
G01*
X135650281Y-124592795D02*
G75*
G03*
X135402795Y-124592795I-123743J-123743D01*
G01*
X136074519Y-124168558D02*
G75*
G02*
X136074544Y-124416017I-123719J-123742D01*
G01*
X136074558Y-123921057D02*
G75*
G03*
X136074545Y-124168530I123742J-123743D01*
G01*
X160973644Y-102925000D02*
X160762500Y-102925000D01*
X132750000Y-127412499D02*
X132861697Y-127300802D01*
X132861697Y-127300802D02*
X132861697Y-126742713D01*
X161168644Y-103120000D02*
X160973644Y-102925000D01*
X163662503Y-103550000D02*
X163662503Y-103543780D01*
X164847500Y-103550000D02*
X163662503Y-103550000D01*
X159970000Y-103700000D02*
X160718750Y-102951250D01*
X163662503Y-103543780D02*
X163238723Y-103120000D01*
X160718750Y-102951250D02*
X160718750Y-102925000D01*
X143242713Y-119511697D02*
X159054410Y-103700000D01*
X132750000Y-128050000D02*
X132750000Y-127412499D01*
X163238723Y-103120000D02*
X161168644Y-103120000D01*
X132861697Y-126742713D02*
X140092713Y-119511697D01*
X140092713Y-119511697D02*
X143242713Y-119511697D01*
X159054410Y-103700000D02*
X159970000Y-103700000D01*
D58*
X160650000Y-132300000D02*
X160650000Y-134200000D01*
D57*
X164777500Y-131800000D02*
X163380000Y-131800000D01*
D58*
X162880000Y-132300000D02*
X163277692Y-131902308D01*
X160680000Y-132300000D02*
X162880000Y-132300000D01*
D61*
X163830000Y-131150000D02*
X164777500Y-131150000D01*
X157891961Y-130963303D02*
X159986697Y-130963303D01*
X149250000Y-103824979D02*
X149250000Y-103417500D01*
X162215426Y-130776606D02*
X163456606Y-130776606D01*
X156770504Y-128564846D02*
X156570004Y-128765346D01*
X159986697Y-130963303D02*
X160650000Y-130300000D01*
X149138303Y-103936676D02*
X149250000Y-103824979D01*
X156770504Y-128239496D02*
X156770504Y-128564846D01*
X149138303Y-107038303D02*
X149138303Y-103936676D01*
X163456606Y-130776606D02*
X163830000Y-131150000D01*
X161738820Y-130300000D02*
X162154410Y-130715590D01*
X149350000Y-107250000D02*
X149138303Y-107038303D01*
X156859901Y-129524551D02*
X156859901Y-129931243D01*
X160750000Y-130300000D02*
X161738820Y-130300000D01*
X156859901Y-129931243D02*
X157891961Y-130963303D01*
X156570004Y-129234654D02*
X156859901Y-129524551D01*
X156570004Y-128765346D02*
X156570004Y-129234654D01*
X160137503Y-129662497D02*
X161212497Y-129662497D01*
X148750000Y-103824979D02*
X148750000Y-103417500D01*
X148861697Y-106937146D02*
X148861697Y-103936676D01*
X162330000Y-130500000D02*
X164777500Y-130500000D01*
X148560616Y-107328462D02*
X148560616Y-107238227D01*
X157136507Y-129816669D02*
X157619838Y-130300000D01*
X148861697Y-103936676D02*
X148750000Y-103824979D01*
X157619838Y-130300000D02*
X159500000Y-130300000D01*
X148560616Y-107238227D02*
X148861697Y-106937146D01*
X159500000Y-130300000D02*
X160137503Y-129662497D01*
X161730000Y-129900000D02*
X162330000Y-130500000D01*
X161450000Y-129900000D02*
X161730000Y-129900000D01*
X161212497Y-129662497D02*
X161450000Y-129900000D01*
X157136507Y-129000000D02*
X157136507Y-129816669D01*
X131563303Y-153923303D02*
X131563303Y-150876698D01*
X131793503Y-148958503D02*
X132375000Y-149540000D01*
X116540000Y-117120000D02*
X117225000Y-117120000D01*
X115836272Y-116763751D02*
X116183751Y-116763751D01*
X131793503Y-148614186D02*
X131793503Y-148958503D01*
X116183751Y-116763751D02*
X116540000Y-117120000D01*
X114740000Y-118270000D02*
X114740000Y-117860023D01*
X132375000Y-150065001D02*
X132375000Y-149540000D01*
X132420000Y-154780000D02*
X131563303Y-153923303D01*
X114740000Y-117860023D02*
X115836272Y-116763751D01*
X131563303Y-150876698D02*
X132375000Y-150065001D01*
X131090000Y-148610000D02*
X131090000Y-148875000D01*
X114106311Y-118035346D02*
X114063027Y-118078630D01*
X130420000Y-154780000D02*
X131286697Y-153913303D01*
X116358843Y-115850000D02*
X114173497Y-118035346D01*
X131286697Y-153913303D02*
X131286697Y-150876698D01*
X130475000Y-150065001D02*
X130475000Y-149540000D01*
X114173497Y-118035346D02*
X114106311Y-118035346D01*
X131286697Y-150876698D02*
X130475000Y-150065001D01*
X131090000Y-148875000D02*
X130475000Y-149490000D01*
X117225000Y-115850000D02*
X116358843Y-115850000D01*
D56*
X145680000Y-100730000D02*
X142060000Y-104350000D01*
X142060000Y-104350000D02*
X134725000Y-104350000D01*
X147062500Y-100730000D02*
X145680000Y-100730000D01*
X141426396Y-105620000D02*
X134725000Y-105620000D01*
X145816396Y-101230000D02*
X141426396Y-105620000D01*
X147062500Y-101230000D02*
X145816396Y-101230000D01*
X135500000Y-132400000D02*
X135500000Y-133005000D01*
X133950000Y-131750000D02*
X134850000Y-131750000D01*
X134850000Y-131750000D02*
X135500000Y-132400000D01*
X126775000Y-130250000D02*
X129050000Y-130250000D01*
D62*
X107280000Y-128990000D02*
X106812984Y-128990000D01*
X108131555Y-155636673D02*
X107053327Y-155636673D01*
X106750000Y-155940000D02*
X105331474Y-155940000D01*
X106810984Y-128988000D02*
X105335000Y-128988000D01*
X106812984Y-128990000D02*
X106810984Y-128988000D01*
X107791492Y-129501492D02*
X107280000Y-128990000D01*
X107791492Y-129569895D02*
X107791492Y-129501492D01*
X107053327Y-155636673D02*
X106750000Y-155940000D01*
X107068000Y-127988000D02*
X105335000Y-127988000D01*
X107605936Y-154937500D02*
X105335000Y-154937500D01*
X107728508Y-155060072D02*
X107605936Y-154937500D01*
X107300000Y-128220000D02*
X107068000Y-127988000D01*
X109381884Y-153073839D02*
X109381884Y-153522841D01*
X109390000Y-153065723D02*
X109381884Y-153073839D01*
X109064393Y-153840332D02*
X108861520Y-153840332D01*
X108650560Y-154051292D02*
X107323708Y-154051292D01*
X108861520Y-153840332D02*
X108650560Y-154051292D01*
X109390000Y-152800000D02*
X109390000Y-153065723D01*
X107323708Y-154051292D02*
X106937500Y-154437500D01*
X108454207Y-127114913D02*
X107285087Y-127114913D01*
X106937500Y-154437500D02*
X105335000Y-154437500D01*
X109219500Y-127890000D02*
X109219500Y-127880206D01*
X109381884Y-153522841D02*
X109064393Y-153840332D01*
X106900000Y-127500000D02*
X105336101Y-127500000D01*
X107285087Y-127114913D02*
X106900000Y-127500000D01*
X109219500Y-127880206D02*
X108454207Y-127114913D01*
X108310000Y-126573421D02*
X107996092Y-126887329D01*
X108840392Y-153509608D02*
X108526292Y-153823708D01*
X106967500Y-153437500D02*
X105335000Y-153437500D01*
X107353708Y-153823708D02*
X106967500Y-153437500D01*
X106868000Y-126488000D02*
X105335000Y-126488000D01*
X108840392Y-153298340D02*
X108840392Y-153509608D01*
X107996092Y-126887329D02*
X107267329Y-126887329D01*
X107267329Y-126887329D02*
X106868000Y-126488000D01*
X108526292Y-153823708D02*
X107353708Y-153823708D01*
X107268708Y-152551292D02*
X106882500Y-152937500D01*
X108820560Y-152551292D02*
X107268708Y-152551292D01*
X109712547Y-151965974D02*
X109405878Y-151965974D01*
X106882000Y-125988000D02*
X105335000Y-125988000D01*
X106882500Y-152937500D02*
X105335000Y-152937500D01*
X107268208Y-125601792D02*
X106882000Y-125988000D01*
X109405878Y-151965974D02*
X108820560Y-152551292D01*
X109470000Y-126690000D02*
X109470000Y-126440000D01*
X109470000Y-126440000D02*
X108631792Y-125601792D01*
X108631792Y-125601792D02*
X107268208Y-125601792D01*
X107274208Y-125374208D02*
X106888000Y-124988000D01*
X107283708Y-152323708D02*
X106897500Y-151937500D01*
X108726292Y-152185736D02*
X108726292Y-152323708D01*
X108726292Y-152323708D02*
X107283708Y-152323708D01*
X109508008Y-126148008D02*
X108734208Y-125374208D01*
X110140104Y-151423982D02*
X109488046Y-151423982D01*
X108734208Y-125374208D02*
X107274208Y-125374208D01*
X109922048Y-126148008D02*
X109508008Y-126148008D01*
X109488046Y-151423982D02*
X108726292Y-152185736D01*
X106888000Y-124988000D02*
X105335000Y-124988000D01*
X109946311Y-126172271D02*
X109922048Y-126148008D01*
X106897500Y-151937500D02*
X105335000Y-151937500D01*
X110308906Y-151592784D02*
X110140104Y-151423982D01*
X110825437Y-124475437D02*
X110451792Y-124101792D01*
X111142928Y-125234563D02*
X110825437Y-124917072D01*
X110814494Y-151051292D02*
X107238708Y-151051292D01*
X107278208Y-124101792D02*
X106892000Y-124488000D01*
X111740000Y-125560000D02*
X111414563Y-125234563D01*
X111414563Y-125234563D02*
X111142928Y-125234563D01*
X111107893Y-150757893D02*
X110814494Y-151051292D01*
X110451792Y-124101792D02*
X107278208Y-124101792D01*
X110825437Y-124917072D02*
X110825437Y-124475437D01*
X106852500Y-151437500D02*
X105335000Y-151437500D01*
X106892000Y-124488000D02*
X105335000Y-124488000D01*
X107238708Y-151051292D02*
X106852500Y-151437500D01*
X110549066Y-123874208D02*
X107244208Y-123874208D01*
X111100000Y-150000000D02*
X110276292Y-150823708D01*
X107203708Y-150823708D02*
X106817500Y-150437500D01*
X107244208Y-123874208D02*
X106858000Y-123488000D01*
X106817500Y-150437500D02*
X105335000Y-150437500D01*
X110276292Y-150823708D02*
X107203708Y-150823708D01*
X106858000Y-123488000D02*
X105335000Y-123488000D01*
X111367429Y-124692571D02*
X110549066Y-123874208D01*
D56*
X105415000Y-122980000D02*
X102509188Y-122980000D01*
X102509188Y-122980000D02*
X101440000Y-124049188D01*
X102303500Y-149937500D02*
X102200000Y-150041000D01*
X101440000Y-124049188D02*
X101440000Y-124600000D01*
X105335000Y-149937500D02*
X102303500Y-149937500D01*
X100689937Y-124162855D02*
X102364792Y-122488000D01*
X101612835Y-149437500D02*
X105335000Y-149437500D01*
X98930000Y-148740000D02*
X100915335Y-148740000D01*
X100689937Y-124379937D02*
X100689937Y-124162855D01*
X98750000Y-148560000D02*
X98930000Y-148740000D01*
X100915335Y-148740000D02*
X101612835Y-149437500D01*
X102364792Y-122488000D02*
X105335000Y-122488000D01*
X103189673Y-119988000D02*
X103172673Y-119971000D01*
X94890000Y-125870000D02*
X94890000Y-143840000D01*
X103172673Y-119971000D02*
X100789000Y-119971000D01*
X97987500Y-146937500D02*
X105335000Y-146937500D01*
X94890000Y-143840000D02*
X97987500Y-146937500D01*
X105335000Y-119988000D02*
X103189673Y-119988000D01*
X100789000Y-119971000D02*
X94890000Y-125870000D01*
X116055000Y-108160000D02*
X114665000Y-109550000D01*
X117225000Y-108160000D02*
X116055000Y-108160000D01*
X139951751Y-147225000D02*
X141080000Y-146096751D01*
X124080000Y-115620000D02*
X130240000Y-115620000D01*
X118550000Y-104350000D02*
X120850000Y-106650000D01*
X120850000Y-106650000D02*
X120850000Y-112390000D01*
X117225000Y-104350000D02*
X118550000Y-104350000D01*
X141080000Y-146096751D02*
X141080000Y-139230000D01*
X120850000Y-112390000D02*
X124080000Y-115620000D01*
M02*
