G04 #@! TF.GenerationSoftware,KiCad,Pcbnew,(6.0.8)*
G04 #@! TF.CreationDate,2022-10-29T11:40:11-07:00*
G04 #@! TF.ProjectId,EasyKVM,45617379-4b56-44d2-9e6b-696361645f70,rev?*
G04 #@! TF.SameCoordinates,Original*
G04 #@! TF.FileFunction,Copper,L2,Inr*
G04 #@! TF.FilePolarity,Positive*
%FSLAX46Y46*%
G04 Gerber Fmt 4.6, Leading zero omitted, Abs format (unit mm)*
G04 Created by KiCad (PCBNEW (6.0.8)) date 2022-10-29 11:40:11*
%MOMM*%
%LPD*%
G01*
G04 APERTURE LIST*
G04 #@! TA.AperFunction,ComponentPad*
%ADD10C,4.275000*%
G04 #@! TD*
G04 #@! TA.AperFunction,ComponentPad*
%ADD11C,2.880000*%
G04 #@! TD*
G04 #@! TA.AperFunction,ComponentPad*
%ADD12O,1.900000X1.200000*%
G04 #@! TD*
G04 #@! TA.AperFunction,ComponentPad*
%ADD13C,1.450000*%
G04 #@! TD*
G04 #@! TA.AperFunction,ComponentPad*
%ADD14R,1.600000X1.500000*%
G04 #@! TD*
G04 #@! TA.AperFunction,ComponentPad*
%ADD15C,1.600000*%
G04 #@! TD*
G04 #@! TA.AperFunction,ComponentPad*
%ADD16C,3.000000*%
G04 #@! TD*
G04 #@! TA.AperFunction,ComponentPad*
%ADD17R,1.500000X1.600000*%
G04 #@! TD*
G04 #@! TA.AperFunction,ViaPad*
%ADD18C,0.450000*%
G04 #@! TD*
G04 #@! TA.AperFunction,ViaPad*
%ADD19C,0.800000*%
G04 #@! TD*
G04 #@! TA.AperFunction,ViaPad*
%ADD20C,1.000000*%
G04 #@! TD*
G04 APERTURE END LIST*
D10*
X104655000Y-117230000D03*
X104655000Y-131730000D03*
D11*
X98695000Y-117230000D03*
X98695000Y-131730000D03*
D12*
X167467500Y-134000000D03*
X167467500Y-127000000D03*
D13*
X164767500Y-133000000D03*
X164767500Y-128000000D03*
D10*
X104655000Y-144179500D03*
X104655000Y-158679500D03*
D11*
X98695000Y-144179500D03*
X98695000Y-158679500D03*
D12*
X95512500Y-100050000D03*
D13*
X98212500Y-101050000D03*
D12*
X95512500Y-107050000D03*
D13*
X98212500Y-106050000D03*
D14*
X127920000Y-154780000D03*
D15*
X130420000Y-154780000D03*
X132420000Y-154780000D03*
X134920000Y-154780000D03*
D16*
X124850000Y-157490000D03*
X137990000Y-157490000D03*
D17*
X155790000Y-154900000D03*
D15*
X155790000Y-152400000D03*
X155790000Y-150400000D03*
X155790000Y-147900000D03*
D16*
X158500000Y-144830000D03*
X158500000Y-157970000D03*
D12*
X167467500Y-100050000D03*
D13*
X164767500Y-106050000D03*
D12*
X167467500Y-107050000D03*
D13*
X164767500Y-101050000D03*
D18*
X160990000Y-164580000D03*
X134875000Y-122345000D03*
D19*
X118500000Y-128000000D03*
X156500000Y-99000000D03*
D20*
X166250000Y-113750000D03*
D19*
X115500000Y-100318500D03*
X115500000Y-103750000D03*
X152000000Y-105250000D03*
X152250000Y-103750000D03*
X140750000Y-100250000D03*
X163250000Y-165250000D03*
X142500000Y-101500000D03*
X163500000Y-123750000D03*
X146250000Y-121500000D03*
X154250000Y-100250000D03*
X163500000Y-163500000D03*
X118500000Y-132500000D03*
D18*
X147440000Y-124750000D03*
X141170000Y-121930000D03*
X145710000Y-155400000D03*
X131970000Y-115640000D03*
X140610000Y-124780000D03*
X144350000Y-109460000D03*
X144910000Y-100490000D03*
X158000000Y-120290000D03*
X154420000Y-106020000D03*
X147850000Y-109600000D03*
X147930000Y-116810000D03*
D19*
X123000000Y-105750000D03*
X124500000Y-105250000D03*
X127500000Y-131250000D03*
X147455000Y-156550000D03*
X103500000Y-103250000D03*
X133291782Y-125230816D03*
X113000000Y-101750000D03*
X146500000Y-144000000D03*
X127750000Y-128750000D03*
X121750000Y-108000000D03*
X129260000Y-126420000D03*
X127500000Y-109750000D03*
X114100000Y-148000000D03*
X102850000Y-151250000D03*
X135530483Y-127469517D03*
X147750000Y-105000000D03*
X155250000Y-163500000D03*
X102850000Y-152250000D03*
X102850000Y-155000000D03*
X102850000Y-153750000D03*
X148000000Y-122000000D03*
X161353374Y-103861003D03*
X100250000Y-105500000D03*
X102540000Y-125500000D03*
X127500000Y-108250000D03*
X157750000Y-123500000D03*
X133000000Y-100250000D03*
X107750000Y-108250000D03*
X102540000Y-127000000D03*
X130750000Y-134250000D03*
X134000000Y-134750000D03*
X119250000Y-100750000D03*
X145000000Y-165000000D03*
X134950000Y-126220000D03*
X165000000Y-120500000D03*
X124750000Y-111000000D03*
X132250000Y-134500000D03*
X127500000Y-132500000D03*
X162250000Y-138000000D03*
X152000000Y-107000000D03*
X155000000Y-102500000D03*
X102540000Y-124156904D03*
X123500000Y-130250000D03*
X158000000Y-131750000D03*
X127000000Y-107500000D03*
X100600000Y-135500000D03*
X162930000Y-128750000D03*
X163000000Y-101500000D03*
X149361500Y-153611500D03*
X123000000Y-111000000D03*
X101980000Y-120749500D03*
X102540000Y-128500000D03*
D18*
X132950000Y-135920000D03*
X111400000Y-106890000D03*
X122740000Y-124640000D03*
X131060000Y-103250000D03*
X100720000Y-147810000D03*
X100750000Y-144850000D03*
X101444760Y-148415240D03*
X101530000Y-143460000D03*
X119990000Y-129920000D03*
X130200000Y-101780000D03*
X135600000Y-128640000D03*
X110510000Y-104520000D03*
X114660000Y-113280000D03*
X120470000Y-127480000D03*
X156770504Y-128239496D03*
X149350000Y-107250000D03*
X157136507Y-129000000D03*
X148560616Y-107328462D03*
X131793503Y-148614186D03*
X114740000Y-118270000D03*
X114063027Y-118078630D03*
X131090000Y-148614186D03*
X107791492Y-129569895D03*
X108131555Y-155636673D03*
X107300000Y-128220000D03*
X107728508Y-155060072D03*
X109219500Y-127890000D03*
X109390000Y-152800000D03*
X108310000Y-126573421D03*
X108840392Y-153298340D03*
X109470000Y-126690000D03*
X109712547Y-151965974D03*
X110308906Y-151592784D03*
X109946311Y-126172271D03*
X111107893Y-150757893D03*
X111740000Y-125560000D03*
X111100000Y-150000000D03*
X111367429Y-124692571D03*
X101440000Y-124600000D03*
X102200000Y-150041000D03*
X100689937Y-124379937D03*
X98750000Y-148560000D03*
X130240000Y-115620000D03*
X141080000Y-139230000D03*
G04 #@! TA.AperFunction,Conductor*
G36*
X107921676Y-93528502D02*
G01*
X107968169Y-93582158D01*
X107979555Y-93634514D01*
X107979052Y-98317251D01*
X107978980Y-98989970D01*
X129603954Y-99077607D01*
X140490183Y-99121724D01*
X140558222Y-99142002D01*
X140604497Y-99195846D01*
X140614316Y-99266160D01*
X140584561Y-99330621D01*
X140524680Y-99368762D01*
X140515873Y-99370969D01*
X140467712Y-99381206D01*
X140461682Y-99383891D01*
X140461681Y-99383891D01*
X140299278Y-99456197D01*
X140299276Y-99456198D01*
X140293248Y-99458882D01*
X140138747Y-99571134D01*
X140134326Y-99576044D01*
X140134325Y-99576045D01*
X140038249Y-99682749D01*
X140010960Y-99713056D01*
X139964341Y-99793803D01*
X139922595Y-99866109D01*
X139915473Y-99878444D01*
X139856458Y-100060072D01*
X139836496Y-100250000D01*
X139837186Y-100256565D01*
X139855035Y-100426386D01*
X139856458Y-100439928D01*
X139915473Y-100621556D01*
X139918776Y-100627278D01*
X139918777Y-100627279D01*
X139939808Y-100663705D01*
X140010960Y-100786944D01*
X140015378Y-100791851D01*
X140015379Y-100791852D01*
X140073495Y-100856396D01*
X140138747Y-100928866D01*
X140293248Y-101041118D01*
X140299276Y-101043802D01*
X140299278Y-101043803D01*
X140461681Y-101116109D01*
X140467712Y-101118794D01*
X140542680Y-101134729D01*
X140648056Y-101157128D01*
X140648061Y-101157128D01*
X140654513Y-101158500D01*
X140845487Y-101158500D01*
X140851939Y-101157128D01*
X140851944Y-101157128D01*
X140957320Y-101134729D01*
X141032288Y-101118794D01*
X141038319Y-101116109D01*
X141200722Y-101043803D01*
X141200724Y-101043802D01*
X141206752Y-101041118D01*
X141361253Y-100928866D01*
X141426505Y-100856396D01*
X141484621Y-100791852D01*
X141484622Y-100791851D01*
X141489040Y-100786944D01*
X141560192Y-100663705D01*
X141581223Y-100627279D01*
X141581224Y-100627278D01*
X141584527Y-100621556D01*
X141630621Y-100479694D01*
X144171931Y-100479694D01*
X144187989Y-100643468D01*
X144239932Y-100799615D01*
X144243581Y-100805640D01*
X144320562Y-100932749D01*
X144325179Y-100940373D01*
X144439491Y-101058747D01*
X144577189Y-101148854D01*
X144731428Y-101206215D01*
X144738409Y-101207146D01*
X144738411Y-101207147D01*
X144887561Y-101227048D01*
X144887565Y-101227048D01*
X144894542Y-101227979D01*
X144901553Y-101227341D01*
X144901557Y-101227341D01*
X145051403Y-101213704D01*
X145051404Y-101213704D01*
X145058424Y-101213065D01*
X145103752Y-101198337D01*
X145208230Y-101164390D01*
X145208233Y-101164389D01*
X145214929Y-101162213D01*
X145356279Y-101077951D01*
X145475449Y-100964468D01*
X145491458Y-100940373D01*
X145562614Y-100833275D01*
X145562615Y-100833273D01*
X145566515Y-100827403D01*
X145624951Y-100673568D01*
X145636485Y-100591500D01*
X145647302Y-100514534D01*
X145647303Y-100514527D01*
X145647853Y-100510610D01*
X145648141Y-100490000D01*
X145629798Y-100326466D01*
X145623998Y-100309809D01*
X145603170Y-100250000D01*
X153336496Y-100250000D01*
X153337186Y-100256565D01*
X153355035Y-100426386D01*
X153356458Y-100439928D01*
X153415473Y-100621556D01*
X153418776Y-100627278D01*
X153418777Y-100627279D01*
X153439808Y-100663705D01*
X153510960Y-100786944D01*
X153515378Y-100791851D01*
X153515379Y-100791852D01*
X153573495Y-100856396D01*
X153638747Y-100928866D01*
X153793248Y-101041118D01*
X153799276Y-101043802D01*
X153799278Y-101043803D01*
X153961681Y-101116109D01*
X153967712Y-101118794D01*
X154042680Y-101134729D01*
X154148056Y-101157128D01*
X154148061Y-101157128D01*
X154154513Y-101158500D01*
X154345487Y-101158500D01*
X154351939Y-101157128D01*
X154351944Y-101157128D01*
X154457320Y-101134729D01*
X154532288Y-101118794D01*
X154538319Y-101116109D01*
X154700722Y-101043803D01*
X154700724Y-101043802D01*
X154706752Y-101041118D01*
X154861253Y-100928866D01*
X154926505Y-100856396D01*
X154984621Y-100791852D01*
X154984622Y-100791851D01*
X154989040Y-100786944D01*
X155060192Y-100663705D01*
X155081223Y-100627279D01*
X155081224Y-100627278D01*
X155084527Y-100621556D01*
X155143542Y-100439928D01*
X155144966Y-100426386D01*
X155162814Y-100256565D01*
X155163504Y-100250000D01*
X155143542Y-100060072D01*
X155084527Y-99878444D01*
X155077406Y-99866109D01*
X155035659Y-99793803D01*
X154989040Y-99713056D01*
X154961752Y-99682749D01*
X154865675Y-99576045D01*
X154865674Y-99576044D01*
X154861253Y-99571134D01*
X154706752Y-99458882D01*
X154700724Y-99456198D01*
X154700722Y-99456197D01*
X154538319Y-99383891D01*
X154538318Y-99383891D01*
X154532288Y-99381206D01*
X154438888Y-99361353D01*
X154351944Y-99342872D01*
X154351939Y-99342872D01*
X154345487Y-99341500D01*
X154154513Y-99341500D01*
X154148061Y-99342872D01*
X154148056Y-99342872D01*
X154061113Y-99361353D01*
X153967712Y-99381206D01*
X153961682Y-99383891D01*
X153961681Y-99383891D01*
X153799278Y-99456197D01*
X153799276Y-99456198D01*
X153793248Y-99458882D01*
X153638747Y-99571134D01*
X153634326Y-99576044D01*
X153634325Y-99576045D01*
X153538249Y-99682749D01*
X153510960Y-99713056D01*
X153464341Y-99793803D01*
X153422595Y-99866109D01*
X153415473Y-99878444D01*
X153356458Y-100060072D01*
X153336496Y-100250000D01*
X145603170Y-100250000D01*
X145588160Y-100206899D01*
X145575680Y-100171060D01*
X145553232Y-100135135D01*
X145492209Y-100037479D01*
X145488476Y-100031505D01*
X145430499Y-99973122D01*
X145377486Y-99919737D01*
X145377482Y-99919734D01*
X145372522Y-99914739D01*
X145233580Y-99826563D01*
X145184447Y-99809068D01*
X145085189Y-99773723D01*
X145085187Y-99773722D01*
X145078555Y-99771361D01*
X145071569Y-99770528D01*
X145071565Y-99770527D01*
X144957071Y-99756875D01*
X144915153Y-99751877D01*
X144908150Y-99752613D01*
X144908149Y-99752613D01*
X144864935Y-99757155D01*
X144751495Y-99769078D01*
X144744827Y-99771348D01*
X144602382Y-99819840D01*
X144602379Y-99819841D01*
X144595715Y-99822110D01*
X144455555Y-99908337D01*
X144443914Y-99919737D01*
X144372507Y-99989664D01*
X144337982Y-100023473D01*
X144248838Y-100161797D01*
X144246427Y-100168420D01*
X144246426Y-100168423D01*
X144194966Y-100309809D01*
X144194965Y-100309814D01*
X144192556Y-100316432D01*
X144171931Y-100479694D01*
X141630621Y-100479694D01*
X141643542Y-100439928D01*
X141644966Y-100426386D01*
X141662814Y-100256565D01*
X141663504Y-100250000D01*
X141643542Y-100060072D01*
X141584527Y-99878444D01*
X141577406Y-99866109D01*
X141535659Y-99793803D01*
X141489040Y-99713056D01*
X141461752Y-99682749D01*
X141365675Y-99576045D01*
X141365674Y-99576044D01*
X141361253Y-99571134D01*
X141206752Y-99458882D01*
X141200724Y-99456198D01*
X141200722Y-99456197D01*
X141038319Y-99383891D01*
X141038318Y-99383891D01*
X141032288Y-99381206D01*
X141025833Y-99379834D01*
X141025830Y-99379833D01*
X140994251Y-99373121D01*
X140931777Y-99339393D01*
X140897456Y-99277244D01*
X140902183Y-99206405D01*
X140944458Y-99149367D01*
X141010859Y-99124239D01*
X141020958Y-99123875D01*
X144980864Y-99139923D01*
X144980865Y-99139923D01*
X144998980Y-99139996D01*
X144998995Y-99000000D01*
X155586496Y-99000000D01*
X155587186Y-99006565D01*
X155605007Y-99176119D01*
X155606458Y-99189928D01*
X155665473Y-99371556D01*
X155668776Y-99377278D01*
X155668777Y-99377279D01*
X155681221Y-99398833D01*
X155760960Y-99536944D01*
X155765378Y-99541851D01*
X155765379Y-99541852D01*
X155800860Y-99581258D01*
X155888747Y-99678866D01*
X155987843Y-99750864D01*
X156036577Y-99786271D01*
X156043248Y-99791118D01*
X156049276Y-99793802D01*
X156049278Y-99793803D01*
X156211681Y-99866109D01*
X156217712Y-99868794D01*
X156311112Y-99888647D01*
X156398056Y-99907128D01*
X156398061Y-99907128D01*
X156404513Y-99908500D01*
X156595487Y-99908500D01*
X156601939Y-99907128D01*
X156601944Y-99907128D01*
X156688888Y-99888647D01*
X156782288Y-99868794D01*
X156788319Y-99866109D01*
X156950722Y-99793803D01*
X156950724Y-99793802D01*
X156956752Y-99791118D01*
X156963424Y-99786271D01*
X157012157Y-99750864D01*
X157111253Y-99678866D01*
X157199140Y-99581258D01*
X157234621Y-99541852D01*
X157234622Y-99541851D01*
X157239040Y-99536944D01*
X157318779Y-99398833D01*
X157331223Y-99377279D01*
X157331224Y-99377278D01*
X157334527Y-99371556D01*
X157393542Y-99189928D01*
X157394994Y-99176119D01*
X157412814Y-99006565D01*
X157413504Y-99000000D01*
X157407362Y-98941566D01*
X157394232Y-98816635D01*
X157394232Y-98816633D01*
X157393542Y-98810072D01*
X157334527Y-98628444D01*
X157239040Y-98463056D01*
X157111253Y-98321134D01*
X156956752Y-98208882D01*
X156950724Y-98206198D01*
X156950722Y-98206197D01*
X156788319Y-98133891D01*
X156788318Y-98133891D01*
X156782288Y-98131206D01*
X156688887Y-98111353D01*
X156601944Y-98092872D01*
X156601939Y-98092872D01*
X156595487Y-98091500D01*
X156404513Y-98091500D01*
X156398061Y-98092872D01*
X156398056Y-98092872D01*
X156311113Y-98111353D01*
X156217712Y-98131206D01*
X156211682Y-98133891D01*
X156211681Y-98133891D01*
X156049278Y-98206197D01*
X156049276Y-98206198D01*
X156043248Y-98208882D01*
X155888747Y-98321134D01*
X155760960Y-98463056D01*
X155665473Y-98628444D01*
X155606458Y-98810072D01*
X155605768Y-98816633D01*
X155605768Y-98816635D01*
X155592638Y-98941566D01*
X155586496Y-99000000D01*
X144998995Y-99000000D01*
X144999411Y-95065874D01*
X144999563Y-93634487D01*
X145019572Y-93566368D01*
X145073233Y-93519881D01*
X145125563Y-93508500D01*
X166438560Y-93508500D01*
X166506681Y-93528502D01*
X166553174Y-93582158D01*
X166559887Y-93601438D01*
X166559941Y-93601421D01*
X166650225Y-93891152D01*
X166774774Y-94167889D01*
X166931772Y-94427595D01*
X166934124Y-94430597D01*
X166934126Y-94430600D01*
X166989008Y-94500652D01*
X167118929Y-94666484D01*
X167333516Y-94881071D01*
X167476522Y-94993109D01*
X167566368Y-95063498D01*
X167572405Y-95068228D01*
X167749906Y-95175531D01*
X167828850Y-95223255D01*
X167828854Y-95223257D01*
X167832111Y-95225226D01*
X167970480Y-95287501D01*
X168105372Y-95348211D01*
X168105378Y-95348213D01*
X168108848Y-95349775D01*
X168398579Y-95440059D01*
X168398382Y-95440690D01*
X168457009Y-95474825D01*
X168489310Y-95538048D01*
X168491500Y-95561440D01*
X168491500Y-98939859D01*
X168471498Y-99007980D01*
X168417842Y-99054473D01*
X168347568Y-99064577D01*
X168318402Y-99056725D01*
X168139332Y-98984558D01*
X168139329Y-98984557D01*
X168133763Y-98982314D01*
X167926163Y-98941772D01*
X167920601Y-98941500D01*
X167064654Y-98941500D01*
X166906934Y-98956548D01*
X166703966Y-99016092D01*
X166698639Y-99018836D01*
X166698638Y-99018836D01*
X166521251Y-99110196D01*
X166521248Y-99110198D01*
X166515920Y-99112942D01*
X166349580Y-99243604D01*
X166345648Y-99248135D01*
X166345645Y-99248138D01*
X166276974Y-99327275D01*
X166210948Y-99403363D01*
X166207948Y-99408549D01*
X166207945Y-99408553D01*
X166178829Y-99458882D01*
X166105027Y-99586454D01*
X166035639Y-99786271D01*
X166034778Y-99792206D01*
X166034778Y-99792208D01*
X166007429Y-99980834D01*
X166005287Y-99995604D01*
X166015067Y-100206899D01*
X166027037Y-100256565D01*
X166033491Y-100283347D01*
X166030006Y-100354258D01*
X165988737Y-100412028D01*
X165922786Y-100438315D01*
X165853093Y-100424774D01*
X165807785Y-100385139D01*
X165719184Y-100258604D01*
X165719182Y-100258601D01*
X165716025Y-100254093D01*
X165563407Y-100101475D01*
X165386606Y-99977677D01*
X165381624Y-99975354D01*
X165381619Y-99975351D01*
X165195975Y-99888784D01*
X165195974Y-99888783D01*
X165190993Y-99886461D01*
X165185685Y-99885039D01*
X165185683Y-99885038D01*
X164987828Y-99832023D01*
X164987826Y-99832023D01*
X164982513Y-99830599D01*
X164767500Y-99811788D01*
X164552487Y-99830599D01*
X164547174Y-99832023D01*
X164547172Y-99832023D01*
X164349317Y-99885038D01*
X164349315Y-99885039D01*
X164344007Y-99886461D01*
X164339026Y-99888783D01*
X164339025Y-99888784D01*
X164153381Y-99975351D01*
X164153376Y-99975354D01*
X164148394Y-99977677D01*
X163971593Y-100101475D01*
X163818975Y-100254093D01*
X163815818Y-100258601D01*
X163815816Y-100258604D01*
X163772958Y-100319812D01*
X163695177Y-100430894D01*
X163692854Y-100435876D01*
X163692851Y-100435881D01*
X163620285Y-100591500D01*
X163603961Y-100626507D01*
X163602539Y-100631815D01*
X163602538Y-100631817D01*
X163585170Y-100696637D01*
X163548099Y-100834987D01*
X163529288Y-101050000D01*
X163548099Y-101265013D01*
X163549523Y-101270326D01*
X163549523Y-101270328D01*
X163600630Y-101461060D01*
X163603961Y-101473493D01*
X163606283Y-101478474D01*
X163606284Y-101478475D01*
X163692851Y-101664119D01*
X163692854Y-101664124D01*
X163695177Y-101669106D01*
X163709757Y-101689928D01*
X163787258Y-101800610D01*
X163818975Y-101845907D01*
X163971593Y-101998525D01*
X163976101Y-102001682D01*
X163976104Y-102001684D01*
X164026461Y-102036944D01*
X164148394Y-102122323D01*
X164153376Y-102124646D01*
X164153381Y-102124649D01*
X164339025Y-102211216D01*
X164344007Y-102213539D01*
X164349315Y-102214961D01*
X164349317Y-102214962D01*
X164547172Y-102267977D01*
X164547174Y-102267977D01*
X164552487Y-102269401D01*
X164767500Y-102288212D01*
X164982513Y-102269401D01*
X164987826Y-102267977D01*
X164987828Y-102267977D01*
X165185683Y-102214962D01*
X165185685Y-102214961D01*
X165190993Y-102213539D01*
X165195975Y-102211216D01*
X165381619Y-102124649D01*
X165381624Y-102124646D01*
X165386606Y-102122323D01*
X165508539Y-102036944D01*
X165558896Y-102001684D01*
X165558899Y-102001682D01*
X165563407Y-101998525D01*
X165716025Y-101845907D01*
X165747743Y-101800610D01*
X165825243Y-101689928D01*
X165839823Y-101669106D01*
X165842146Y-101664124D01*
X165842149Y-101664119D01*
X165928716Y-101478475D01*
X165928717Y-101478474D01*
X165931039Y-101473493D01*
X165934371Y-101461060D01*
X165985477Y-101270328D01*
X165985477Y-101270326D01*
X165986901Y-101265013D01*
X166005712Y-101050000D01*
X165986901Y-100834987D01*
X165969278Y-100769216D01*
X165970968Y-100698239D01*
X166010762Y-100639444D01*
X166076027Y-100611496D01*
X166146040Y-100623270D01*
X166193754Y-100663704D01*
X166274554Y-100777611D01*
X166427350Y-100923881D01*
X166605048Y-101038620D01*
X166653985Y-101058342D01*
X166795668Y-101115442D01*
X166795671Y-101115443D01*
X166801237Y-101117686D01*
X167008837Y-101158228D01*
X167014399Y-101158500D01*
X167870346Y-101158500D01*
X168028066Y-101143452D01*
X168231034Y-101083908D01*
X168270226Y-101063723D01*
X168307808Y-101044367D01*
X168377527Y-101030958D01*
X168443428Y-101057371D01*
X168484587Y-101115220D01*
X168491500Y-101156383D01*
X168491500Y-105939859D01*
X168471498Y-106007980D01*
X168417842Y-106054473D01*
X168347568Y-106064577D01*
X168318402Y-106056725D01*
X168139332Y-105984558D01*
X168139329Y-105984557D01*
X168133763Y-105982314D01*
X167926163Y-105941772D01*
X167920601Y-105941500D01*
X167064654Y-105941500D01*
X166906934Y-105956548D01*
X166703966Y-106016092D01*
X166698639Y-106018836D01*
X166698638Y-106018836D01*
X166521251Y-106110196D01*
X166521248Y-106110198D01*
X166515920Y-106112942D01*
X166349580Y-106243604D01*
X166345648Y-106248135D01*
X166345645Y-106248138D01*
X166250830Y-106357403D01*
X166210948Y-106403363D01*
X166207946Y-106408553D01*
X166202186Y-106418508D01*
X166150759Y-106467455D01*
X166081033Y-106480828D01*
X166015146Y-106454381D01*
X165974017Y-106396511D01*
X165971418Y-106322797D01*
X165985476Y-106270335D01*
X165985478Y-106270324D01*
X165986901Y-106265013D01*
X166005712Y-106050000D01*
X165986901Y-105834987D01*
X165952799Y-105707717D01*
X165932462Y-105631817D01*
X165932461Y-105631815D01*
X165931039Y-105626507D01*
X165899745Y-105559396D01*
X165842149Y-105435881D01*
X165842146Y-105435876D01*
X165839823Y-105430894D01*
X165770510Y-105331906D01*
X165719184Y-105258604D01*
X165719182Y-105258601D01*
X165716025Y-105254093D01*
X165563407Y-105101475D01*
X165550740Y-105092605D01*
X165417525Y-104999327D01*
X165386606Y-104977677D01*
X165381624Y-104975354D01*
X165381619Y-104975351D01*
X165195975Y-104888784D01*
X165195974Y-104888783D01*
X165190993Y-104886461D01*
X165185685Y-104885039D01*
X165185683Y-104885038D01*
X164987828Y-104832023D01*
X164987826Y-104832023D01*
X164982513Y-104830599D01*
X164767500Y-104811788D01*
X164552487Y-104830599D01*
X164547174Y-104832023D01*
X164547172Y-104832023D01*
X164349317Y-104885038D01*
X164349315Y-104885039D01*
X164344007Y-104886461D01*
X164339026Y-104888783D01*
X164339025Y-104888784D01*
X164153381Y-104975351D01*
X164153376Y-104975354D01*
X164148394Y-104977677D01*
X164117475Y-104999327D01*
X163984261Y-105092605D01*
X163971593Y-105101475D01*
X163818975Y-105254093D01*
X163815818Y-105258601D01*
X163815816Y-105258604D01*
X163764490Y-105331906D01*
X163695177Y-105430894D01*
X163692854Y-105435876D01*
X163692851Y-105435881D01*
X163635255Y-105559396D01*
X163603961Y-105626507D01*
X163602539Y-105631815D01*
X163602538Y-105631817D01*
X163582201Y-105707717D01*
X163548099Y-105834987D01*
X163529288Y-106050000D01*
X163548099Y-106265013D01*
X163549523Y-106270326D01*
X163549523Y-106270328D01*
X163600495Y-106460556D01*
X163603961Y-106473493D01*
X163606283Y-106478474D01*
X163606284Y-106478475D01*
X163692851Y-106664119D01*
X163692854Y-106664124D01*
X163695177Y-106669106D01*
X163818975Y-106845907D01*
X163971593Y-106998525D01*
X164148394Y-107122323D01*
X164153376Y-107124646D01*
X164153381Y-107124649D01*
X164329767Y-107206899D01*
X164344007Y-107213539D01*
X164349315Y-107214961D01*
X164349317Y-107214962D01*
X164547172Y-107267977D01*
X164547174Y-107267977D01*
X164552487Y-107269401D01*
X164767500Y-107288212D01*
X164982513Y-107269401D01*
X164987826Y-107267977D01*
X164987828Y-107267977D01*
X165185683Y-107214962D01*
X165185685Y-107214961D01*
X165190993Y-107213539D01*
X165205233Y-107206899D01*
X165381619Y-107124649D01*
X165381624Y-107124646D01*
X165386606Y-107122323D01*
X165563407Y-106998525D01*
X165716025Y-106845907D01*
X165804253Y-106719905D01*
X165859709Y-106675578D01*
X165930328Y-106668269D01*
X165993689Y-106700300D01*
X166029674Y-106761501D01*
X166032161Y-106810257D01*
X166017042Y-106914534D01*
X166005287Y-106995604D01*
X166015067Y-107206899D01*
X166016471Y-107212724D01*
X166016471Y-107212725D01*
X166045783Y-107334350D01*
X166064625Y-107412534D01*
X166067107Y-107417992D01*
X166067108Y-107417996D01*
X166110553Y-107513546D01*
X166152174Y-107605087D01*
X166274554Y-107777611D01*
X166427350Y-107923881D01*
X166605048Y-108038620D01*
X166665146Y-108062840D01*
X166795668Y-108115442D01*
X166795671Y-108115443D01*
X166801237Y-108117686D01*
X167008837Y-108158228D01*
X167014399Y-108158500D01*
X167870346Y-108158500D01*
X168028066Y-108143452D01*
X168231034Y-108083908D01*
X168236362Y-108081164D01*
X168307808Y-108044367D01*
X168377527Y-108030958D01*
X168443428Y-108057371D01*
X168484587Y-108115220D01*
X168491500Y-108156383D01*
X168491500Y-125889859D01*
X168471498Y-125957980D01*
X168417842Y-126004473D01*
X168347568Y-126014577D01*
X168318402Y-126006725D01*
X168139332Y-125934558D01*
X168139329Y-125934557D01*
X168133763Y-125932314D01*
X167926163Y-125891772D01*
X167920601Y-125891500D01*
X167064654Y-125891500D01*
X166906934Y-125906548D01*
X166703966Y-125966092D01*
X166698639Y-125968836D01*
X166698638Y-125968836D01*
X166521251Y-126060196D01*
X166521248Y-126060198D01*
X166515920Y-126062942D01*
X166349580Y-126193604D01*
X166345648Y-126198135D01*
X166345645Y-126198138D01*
X166271395Y-126283704D01*
X166210948Y-126353363D01*
X166207948Y-126358549D01*
X166207945Y-126358553D01*
X166124332Y-126503084D01*
X166105027Y-126536454D01*
X166035639Y-126736271D01*
X166034778Y-126742206D01*
X166034778Y-126742208D01*
X166007429Y-126930834D01*
X166005287Y-126945604D01*
X166015067Y-127156899D01*
X166016471Y-127162724D01*
X166016471Y-127162725D01*
X166033491Y-127233347D01*
X166030006Y-127304258D01*
X165988737Y-127362028D01*
X165922786Y-127388315D01*
X165853093Y-127374774D01*
X165807785Y-127335139D01*
X165719184Y-127208604D01*
X165719182Y-127208601D01*
X165716025Y-127204093D01*
X165563407Y-127051475D01*
X165529138Y-127027479D01*
X165485594Y-126996990D01*
X165386606Y-126927677D01*
X165381624Y-126925354D01*
X165381619Y-126925351D01*
X165195975Y-126838784D01*
X165195974Y-126838783D01*
X165190993Y-126836461D01*
X165185685Y-126835039D01*
X165185683Y-126835038D01*
X164987828Y-126782023D01*
X164987826Y-126782023D01*
X164982513Y-126780599D01*
X164767500Y-126761788D01*
X164552487Y-126780599D01*
X164547174Y-126782023D01*
X164547172Y-126782023D01*
X164349317Y-126835038D01*
X164349315Y-126835039D01*
X164344007Y-126836461D01*
X164339026Y-126838783D01*
X164339025Y-126838784D01*
X164153381Y-126925351D01*
X164153376Y-126925354D01*
X164148394Y-126927677D01*
X164049406Y-126996990D01*
X164005863Y-127027479D01*
X163971593Y-127051475D01*
X163818975Y-127204093D01*
X163815818Y-127208601D01*
X163815816Y-127208604D01*
X163770658Y-127273096D01*
X163695177Y-127380894D01*
X163692854Y-127385876D01*
X163692851Y-127385881D01*
X163607305Y-127569336D01*
X163603961Y-127576507D01*
X163602539Y-127581815D01*
X163602538Y-127581817D01*
X163563473Y-127727611D01*
X163548099Y-127784987D01*
X163529288Y-128000000D01*
X163548099Y-128215013D01*
X163549523Y-128220326D01*
X163549523Y-128220328D01*
X163590045Y-128371556D01*
X163603961Y-128423493D01*
X163606283Y-128428474D01*
X163606284Y-128428475D01*
X163692851Y-128614119D01*
X163692854Y-128614124D01*
X163695177Y-128619106D01*
X163734622Y-128675439D01*
X163815622Y-128791118D01*
X163818975Y-128795907D01*
X163971593Y-128948525D01*
X163976101Y-128951682D01*
X163976104Y-128951684D01*
X164040404Y-128996707D01*
X164148394Y-129072323D01*
X164153376Y-129074646D01*
X164153381Y-129074649D01*
X164339025Y-129161216D01*
X164344007Y-129163539D01*
X164349315Y-129164961D01*
X164349317Y-129164962D01*
X164547172Y-129217977D01*
X164547174Y-129217977D01*
X164552487Y-129219401D01*
X164767500Y-129238212D01*
X164982513Y-129219401D01*
X164987826Y-129217977D01*
X164987828Y-129217977D01*
X165185683Y-129164962D01*
X165185685Y-129164961D01*
X165190993Y-129163539D01*
X165195975Y-129161216D01*
X165381619Y-129074649D01*
X165381624Y-129074646D01*
X165386606Y-129072323D01*
X165494596Y-128996707D01*
X165558896Y-128951684D01*
X165558899Y-128951682D01*
X165563407Y-128948525D01*
X165716025Y-128795907D01*
X165719379Y-128791118D01*
X165800378Y-128675439D01*
X165839823Y-128619106D01*
X165842146Y-128614124D01*
X165842149Y-128614119D01*
X165928716Y-128428475D01*
X165928717Y-128428474D01*
X165931039Y-128423493D01*
X165944956Y-128371556D01*
X165985477Y-128220328D01*
X165985477Y-128220326D01*
X165986901Y-128215013D01*
X166005712Y-128000000D01*
X165986901Y-127784987D01*
X165971527Y-127727611D01*
X165969278Y-127719216D01*
X165970968Y-127648239D01*
X166010762Y-127589444D01*
X166076027Y-127561496D01*
X166146040Y-127573270D01*
X166193754Y-127613704D01*
X166274554Y-127727611D01*
X166427350Y-127873881D01*
X166605048Y-127988620D01*
X166665146Y-128012840D01*
X166795668Y-128065442D01*
X166795671Y-128065443D01*
X166801237Y-128067686D01*
X167008837Y-128108228D01*
X167014399Y-128108500D01*
X167870346Y-128108500D01*
X168028066Y-128093452D01*
X168231034Y-128033908D01*
X168286240Y-128005475D01*
X168307808Y-127994367D01*
X168377527Y-127980958D01*
X168443428Y-128007371D01*
X168484587Y-128065220D01*
X168491500Y-128106383D01*
X168491500Y-132889859D01*
X168471498Y-132957980D01*
X168417842Y-133004473D01*
X168347568Y-133014577D01*
X168318402Y-133006725D01*
X168139332Y-132934558D01*
X168139329Y-132934557D01*
X168133763Y-132932314D01*
X167926163Y-132891772D01*
X167920601Y-132891500D01*
X167064654Y-132891500D01*
X166906934Y-132906548D01*
X166703966Y-132966092D01*
X166698639Y-132968836D01*
X166698638Y-132968836D01*
X166521251Y-133060196D01*
X166521248Y-133060198D01*
X166515920Y-133062942D01*
X166349580Y-133193604D01*
X166345648Y-133198135D01*
X166345645Y-133198138D01*
X166235193Y-133325423D01*
X166210948Y-133353363D01*
X166207946Y-133358553D01*
X166202186Y-133368508D01*
X166150759Y-133417455D01*
X166081033Y-133430828D01*
X166015146Y-133404381D01*
X165974017Y-133346511D01*
X165971418Y-133272797D01*
X165985476Y-133220335D01*
X165985478Y-133220324D01*
X165986901Y-133215013D01*
X166005712Y-133000000D01*
X165986901Y-132784987D01*
X165985477Y-132779672D01*
X165932462Y-132581817D01*
X165932461Y-132581815D01*
X165931039Y-132576507D01*
X165928716Y-132571525D01*
X165842149Y-132385881D01*
X165842146Y-132385876D01*
X165839823Y-132380894D01*
X165727186Y-132220032D01*
X165719184Y-132208604D01*
X165719182Y-132208601D01*
X165716025Y-132204093D01*
X165563407Y-132051475D01*
X165525065Y-132024627D01*
X165416691Y-131948743D01*
X165386606Y-131927677D01*
X165381624Y-131925354D01*
X165381619Y-131925351D01*
X165195975Y-131838784D01*
X165195974Y-131838783D01*
X165190993Y-131836461D01*
X165185685Y-131835039D01*
X165185683Y-131835038D01*
X164987828Y-131782023D01*
X164987826Y-131782023D01*
X164982513Y-131780599D01*
X164767500Y-131761788D01*
X164552487Y-131780599D01*
X164547174Y-131782023D01*
X164547172Y-131782023D01*
X164349317Y-131835038D01*
X164349315Y-131835039D01*
X164344007Y-131836461D01*
X164339026Y-131838783D01*
X164339025Y-131838784D01*
X164153381Y-131925351D01*
X164153376Y-131925354D01*
X164148394Y-131927677D01*
X164118309Y-131948743D01*
X164009936Y-132024627D01*
X163971593Y-132051475D01*
X163818975Y-132204093D01*
X163815818Y-132208601D01*
X163815816Y-132208604D01*
X163807814Y-132220032D01*
X163695177Y-132380894D01*
X163692854Y-132385876D01*
X163692851Y-132385881D01*
X163606284Y-132571525D01*
X163603961Y-132576507D01*
X163602539Y-132581815D01*
X163602538Y-132581817D01*
X163549523Y-132779672D01*
X163548099Y-132784987D01*
X163529288Y-133000000D01*
X163548099Y-133215013D01*
X163549523Y-133220326D01*
X163549523Y-133220328D01*
X163599944Y-133408500D01*
X163603961Y-133423493D01*
X163606283Y-133428474D01*
X163606284Y-133428475D01*
X163692851Y-133614119D01*
X163692854Y-133614124D01*
X163695177Y-133619106D01*
X163818975Y-133795907D01*
X163971593Y-133948525D01*
X164148394Y-134072323D01*
X164153376Y-134074646D01*
X164153381Y-134074649D01*
X164316922Y-134150909D01*
X164344007Y-134163539D01*
X164349315Y-134164961D01*
X164349317Y-134164962D01*
X164547172Y-134217977D01*
X164547174Y-134217977D01*
X164552487Y-134219401D01*
X164767500Y-134238212D01*
X164982513Y-134219401D01*
X164987826Y-134217977D01*
X164987828Y-134217977D01*
X165185683Y-134164962D01*
X165185685Y-134164961D01*
X165190993Y-134163539D01*
X165218078Y-134150909D01*
X165381619Y-134074649D01*
X165381624Y-134074646D01*
X165386606Y-134072323D01*
X165563407Y-133948525D01*
X165716025Y-133795907D01*
X165804253Y-133669905D01*
X165859709Y-133625578D01*
X165930328Y-133618269D01*
X165993689Y-133650300D01*
X166029674Y-133711501D01*
X166032161Y-133760257D01*
X166006399Y-133937938D01*
X166005287Y-133945604D01*
X166015067Y-134156899D01*
X166016471Y-134162724D01*
X166016471Y-134162725D01*
X166062947Y-134355570D01*
X166064625Y-134362534D01*
X166067107Y-134367992D01*
X166067108Y-134367996D01*
X166119416Y-134483041D01*
X166152174Y-134555087D01*
X166274554Y-134727611D01*
X166427350Y-134873881D01*
X166605048Y-134988620D01*
X166665146Y-135012840D01*
X166795668Y-135065442D01*
X166795671Y-135065443D01*
X166801237Y-135067686D01*
X167008837Y-135108228D01*
X167014399Y-135108500D01*
X167870346Y-135108500D01*
X168028066Y-135093452D01*
X168231034Y-135033908D01*
X168307807Y-134994367D01*
X168377527Y-134980958D01*
X168443428Y-135007371D01*
X168484587Y-135065220D01*
X168491500Y-135106383D01*
X168491500Y-165438560D01*
X168471498Y-165506681D01*
X168417842Y-165553174D01*
X168398562Y-165559887D01*
X168398579Y-165559941D01*
X168108848Y-165650225D01*
X168105378Y-165651787D01*
X168105372Y-165651789D01*
X167970480Y-165712499D01*
X167832111Y-165774774D01*
X167828854Y-165776743D01*
X167828850Y-165776745D01*
X167749906Y-165824469D01*
X167572405Y-165931772D01*
X167569403Y-165934124D01*
X167569400Y-165934126D01*
X167495759Y-165991820D01*
X167333516Y-166118929D01*
X167118929Y-166333516D01*
X167076928Y-166387127D01*
X166980318Y-166510441D01*
X166931772Y-166572405D01*
X166774774Y-166832111D01*
X166650225Y-167108848D01*
X166559941Y-167398579D01*
X166559310Y-167398382D01*
X166525175Y-167457009D01*
X166461952Y-167489310D01*
X166438560Y-167491500D01*
X96561440Y-167491500D01*
X96493319Y-167471498D01*
X96446826Y-167417842D01*
X96440113Y-167398562D01*
X96440059Y-167398579D01*
X96439544Y-167396927D01*
X96349775Y-167108848D01*
X96225226Y-166832111D01*
X96068228Y-166572405D01*
X96019683Y-166510441D01*
X95923072Y-166387127D01*
X95881071Y-166333516D01*
X95666484Y-166118929D01*
X95504241Y-165991820D01*
X95430600Y-165934126D01*
X95430597Y-165934124D01*
X95427595Y-165931772D01*
X95250094Y-165824469D01*
X95171150Y-165776745D01*
X95171146Y-165776743D01*
X95167889Y-165774774D01*
X95029520Y-165712499D01*
X94894628Y-165651789D01*
X94894622Y-165651787D01*
X94891152Y-165650225D01*
X94601421Y-165559941D01*
X94601618Y-165559310D01*
X94542991Y-165525175D01*
X94510690Y-165461952D01*
X94508500Y-165438560D01*
X94508500Y-164569694D01*
X160251931Y-164569694D01*
X160267989Y-164733468D01*
X160319932Y-164889615D01*
X160405179Y-165030373D01*
X160519491Y-165148747D01*
X160657189Y-165238854D01*
X160811428Y-165296215D01*
X160818409Y-165297146D01*
X160818411Y-165297147D01*
X160967561Y-165317048D01*
X160967565Y-165317048D01*
X160974542Y-165317979D01*
X160981553Y-165317341D01*
X160981557Y-165317341D01*
X161131403Y-165303704D01*
X161131404Y-165303704D01*
X161138424Y-165303065D01*
X161167062Y-165293760D01*
X161288230Y-165254390D01*
X161288233Y-165254389D01*
X161294929Y-165252213D01*
X161298641Y-165250000D01*
X162336496Y-165250000D01*
X162356458Y-165439928D01*
X162415473Y-165621556D01*
X162510960Y-165786944D01*
X162638747Y-165928866D01*
X162793248Y-166041118D01*
X162799276Y-166043802D01*
X162799278Y-166043803D01*
X162885376Y-166082136D01*
X162967712Y-166118794D01*
X163061113Y-166138647D01*
X163148056Y-166157128D01*
X163148061Y-166157128D01*
X163154513Y-166158500D01*
X163345487Y-166158500D01*
X163351939Y-166157128D01*
X163351944Y-166157128D01*
X163438887Y-166138647D01*
X163532288Y-166118794D01*
X163614624Y-166082136D01*
X163700722Y-166043803D01*
X163700724Y-166043802D01*
X163706752Y-166041118D01*
X163861253Y-165928866D01*
X163989040Y-165786944D01*
X164084527Y-165621556D01*
X164143542Y-165439928D01*
X164163504Y-165250000D01*
X164154370Y-165163096D01*
X164144232Y-165066635D01*
X164144232Y-165066633D01*
X164143542Y-165060072D01*
X164084527Y-164878444D01*
X163989040Y-164713056D01*
X163891327Y-164604534D01*
X163865675Y-164576045D01*
X163865674Y-164576044D01*
X163861253Y-164571134D01*
X163835129Y-164552154D01*
X163791775Y-164495932D01*
X163785699Y-164425196D01*
X163818831Y-164362404D01*
X163857942Y-164335111D01*
X163950719Y-164293805D01*
X163950726Y-164293801D01*
X163956752Y-164291118D01*
X164010873Y-164251797D01*
X164019030Y-164245870D01*
X164111253Y-164178866D01*
X164239040Y-164036944D01*
X164297314Y-163936010D01*
X164331223Y-163877279D01*
X164331224Y-163877278D01*
X164334527Y-163871556D01*
X164393542Y-163689928D01*
X164413504Y-163500000D01*
X164393542Y-163310072D01*
X164334527Y-163128444D01*
X164239040Y-162963056D01*
X164111253Y-162821134D01*
X163956752Y-162708882D01*
X163950724Y-162706198D01*
X163950722Y-162706197D01*
X163788319Y-162633891D01*
X163788318Y-162633891D01*
X163782288Y-162631206D01*
X163688887Y-162611353D01*
X163601944Y-162592872D01*
X163601939Y-162592872D01*
X163595487Y-162591500D01*
X163404513Y-162591500D01*
X163398061Y-162592872D01*
X163398056Y-162592872D01*
X163311113Y-162611353D01*
X163217712Y-162631206D01*
X163211682Y-162633891D01*
X163211681Y-162633891D01*
X163049278Y-162706197D01*
X163049276Y-162706198D01*
X163043248Y-162708882D01*
X162888747Y-162821134D01*
X162760960Y-162963056D01*
X162665473Y-163128444D01*
X162606458Y-163310072D01*
X162586496Y-163500000D01*
X162606458Y-163689928D01*
X162665473Y-163871556D01*
X162668776Y-163877278D01*
X162668777Y-163877279D01*
X162702686Y-163936010D01*
X162760960Y-164036944D01*
X162888747Y-164178866D01*
X162914871Y-164197846D01*
X162958225Y-164254068D01*
X162964301Y-164324804D01*
X162931169Y-164387596D01*
X162892058Y-164414889D01*
X162799281Y-164456195D01*
X162799274Y-164456199D01*
X162793248Y-164458882D01*
X162638747Y-164571134D01*
X162634326Y-164576044D01*
X162634325Y-164576045D01*
X162608674Y-164604534D01*
X162510960Y-164713056D01*
X162415473Y-164878444D01*
X162356458Y-165060072D01*
X162355768Y-165066633D01*
X162355768Y-165066635D01*
X162345630Y-165163096D01*
X162336496Y-165250000D01*
X161298641Y-165250000D01*
X161436279Y-165167951D01*
X161555449Y-165054468D01*
X161571458Y-165030373D01*
X161642614Y-164923275D01*
X161642615Y-164923273D01*
X161646515Y-164917403D01*
X161704951Y-164763568D01*
X161727853Y-164600610D01*
X161728141Y-164580000D01*
X161709798Y-164416466D01*
X161703998Y-164399809D01*
X161657998Y-164267717D01*
X161655680Y-164261060D01*
X161606745Y-164182747D01*
X161572209Y-164127479D01*
X161568476Y-164121505D01*
X161478825Y-164031226D01*
X161457486Y-164009737D01*
X161457482Y-164009734D01*
X161452522Y-164004739D01*
X161313580Y-163916563D01*
X161169536Y-163865271D01*
X161165189Y-163863723D01*
X161165187Y-163863722D01*
X161158555Y-163861361D01*
X161151569Y-163860528D01*
X161151565Y-163860527D01*
X161037071Y-163846875D01*
X160995153Y-163841877D01*
X160988150Y-163842613D01*
X160988149Y-163842613D01*
X160944935Y-163847155D01*
X160831495Y-163859078D01*
X160824827Y-163861348D01*
X160682382Y-163909840D01*
X160682379Y-163909841D01*
X160675715Y-163912110D01*
X160535555Y-163998337D01*
X160417982Y-164113473D01*
X160328838Y-164251797D01*
X160326427Y-164258420D01*
X160326426Y-164258423D01*
X160274966Y-164399809D01*
X160274965Y-164399814D01*
X160272556Y-164406432D01*
X160251931Y-164569694D01*
X94508500Y-164569694D01*
X94508500Y-158618140D01*
X96742487Y-158618140D01*
X96742662Y-158622592D01*
X96749949Y-158808054D01*
X96753320Y-158893863D01*
X96754120Y-158898243D01*
X96783064Y-159056723D01*
X96802895Y-159165310D01*
X96890223Y-159427063D01*
X96892215Y-159431050D01*
X96892216Y-159431052D01*
X97008929Y-159664632D01*
X97013560Y-159673901D01*
X97170447Y-159900897D01*
X97173463Y-159904159D01*
X97173468Y-159904166D01*
X97354737Y-160100261D01*
X97354742Y-160100265D01*
X97357753Y-160103523D01*
X97571740Y-160277737D01*
X97575558Y-160280036D01*
X97575560Y-160280037D01*
X97804323Y-160417763D01*
X97808140Y-160420061D01*
X97812235Y-160421795D01*
X97812237Y-160421796D01*
X98058134Y-160525920D01*
X98058141Y-160525922D01*
X98062235Y-160527656D01*
X98328955Y-160598376D01*
X98333379Y-160598900D01*
X98333381Y-160598900D01*
X98491891Y-160617660D01*
X98602979Y-160630808D01*
X98878838Y-160624307D01*
X98883233Y-160623575D01*
X98883238Y-160623575D01*
X99146628Y-160579735D01*
X99146632Y-160579734D01*
X99151030Y-160579002D01*
X99321760Y-160525007D01*
X99409877Y-160497140D01*
X99409879Y-160497139D01*
X99414123Y-160495797D01*
X99418134Y-160493871D01*
X99418139Y-160493869D01*
X99658848Y-160378282D01*
X99658849Y-160378281D01*
X99662867Y-160376352D01*
X99807013Y-160280037D01*
X99888592Y-160225528D01*
X99888596Y-160225525D01*
X99892300Y-160223050D01*
X100097843Y-160038950D01*
X100275396Y-159827725D01*
X100421416Y-159593590D01*
X100532989Y-159341217D01*
X100607889Y-159075640D01*
X100622535Y-158966598D01*
X100644195Y-158805342D01*
X100644196Y-158805334D01*
X100644622Y-158802160D01*
X100644723Y-158798949D01*
X100648376Y-158682722D01*
X100648376Y-158682717D01*
X100648477Y-158679500D01*
X100646512Y-158651741D01*
X102004309Y-158651741D01*
X102008343Y-158732775D01*
X102016142Y-158889414D01*
X102020173Y-158970388D01*
X102020814Y-158974119D01*
X102020815Y-158974127D01*
X102071558Y-159269431D01*
X102074202Y-159284821D01*
X102075290Y-159288460D01*
X102075291Y-159288463D01*
X102115477Y-159422834D01*
X102165615Y-159590485D01*
X102293088Y-159882954D01*
X102295011Y-159886226D01*
X102295013Y-159886229D01*
X102347904Y-159976199D01*
X102454774Y-160157991D01*
X102648330Y-160411611D01*
X102650974Y-160414325D01*
X102861353Y-160630285D01*
X102870954Y-160640141D01*
X102873908Y-160642521D01*
X102873911Y-160642523D01*
X103116468Y-160837892D01*
X103116473Y-160837896D01*
X103119421Y-160840270D01*
X103390130Y-161009100D01*
X103679162Y-161144185D01*
X103982329Y-161243568D01*
X104295240Y-161305810D01*
X104299012Y-161306097D01*
X104299020Y-161306098D01*
X104609585Y-161329722D01*
X104609590Y-161329722D01*
X104613362Y-161330009D01*
X104932088Y-161315814D01*
X105246799Y-161263432D01*
X105552939Y-161173621D01*
X105846071Y-161047681D01*
X106121950Y-160887438D01*
X106376580Y-160695212D01*
X106606273Y-160473787D01*
X106648601Y-160421796D01*
X106805309Y-160229309D01*
X106805310Y-160229308D01*
X106807700Y-160226372D01*
X106809796Y-160223050D01*
X106975922Y-159959757D01*
X106975925Y-159959751D01*
X106977945Y-159956550D01*
X107114542Y-159668229D01*
X107215511Y-159365587D01*
X107279390Y-159053006D01*
X107305255Y-158735015D01*
X107305623Y-158699862D01*
X107305813Y-158681721D01*
X107305813Y-158681714D01*
X107305836Y-158679500D01*
X107302406Y-158622592D01*
X107286865Y-158364815D01*
X107286865Y-158364811D01*
X107286637Y-158361037D01*
X107260520Y-158218032D01*
X107229998Y-158050909D01*
X107229997Y-158050905D01*
X107229318Y-158047187D01*
X107204581Y-157967519D01*
X107198805Y-157948918D01*
X156486917Y-157948918D01*
X156502682Y-158222320D01*
X156503507Y-158226525D01*
X156503508Y-158226533D01*
X156525635Y-158339313D01*
X156555405Y-158491053D01*
X156556792Y-158495103D01*
X156556793Y-158495108D01*
X156610421Y-158651741D01*
X156644112Y-158750144D01*
X156646039Y-158753975D01*
X156754883Y-158970388D01*
X156767160Y-158994799D01*
X156769586Y-158998328D01*
X156769589Y-158998334D01*
X156887251Y-159169532D01*
X156922274Y-159220490D01*
X157106582Y-159423043D01*
X157316675Y-159598707D01*
X157320316Y-159600991D01*
X157545024Y-159741951D01*
X157545028Y-159741953D01*
X157548664Y-159744234D01*
X157616544Y-159774883D01*
X157794345Y-159855164D01*
X157794349Y-159855166D01*
X157798257Y-159856930D01*
X157802377Y-159858150D01*
X157802376Y-159858150D01*
X158056723Y-159933491D01*
X158056727Y-159933492D01*
X158060836Y-159934709D01*
X158065070Y-159935357D01*
X158065075Y-159935358D01*
X158327298Y-159975483D01*
X158327300Y-159975483D01*
X158331540Y-159976132D01*
X158470912Y-159978322D01*
X158601071Y-159980367D01*
X158601077Y-159980367D01*
X158605362Y-159980434D01*
X158877235Y-159947534D01*
X159142127Y-159878041D01*
X159146087Y-159876401D01*
X159146092Y-159876399D01*
X159272719Y-159823948D01*
X159395136Y-159773241D01*
X159631582Y-159635073D01*
X159847089Y-159466094D01*
X159888809Y-159423043D01*
X160034686Y-159272509D01*
X160037669Y-159269431D01*
X160040202Y-159265983D01*
X160040206Y-159265978D01*
X160197257Y-159052178D01*
X160199795Y-159048723D01*
X160227154Y-158998334D01*
X160328418Y-158811830D01*
X160328419Y-158811828D01*
X160330468Y-158808054D01*
X160427269Y-158551877D01*
X160473946Y-158348074D01*
X160487449Y-158289117D01*
X160487450Y-158289113D01*
X160488407Y-158284933D01*
X160502206Y-158130323D01*
X160512531Y-158014627D01*
X160512531Y-158014625D01*
X160512751Y-158012161D01*
X160513193Y-157970000D01*
X160511465Y-157944648D01*
X160494859Y-157701055D01*
X160494858Y-157701049D01*
X160494567Y-157696778D01*
X160481313Y-157632775D01*
X160439901Y-157432809D01*
X160439032Y-157428612D01*
X160347617Y-157170465D01*
X160222013Y-156927112D01*
X160212040Y-156912921D01*
X160097319Y-156749690D01*
X160064545Y-156703057D01*
X159878125Y-156502445D01*
X159874810Y-156499731D01*
X159874806Y-156499728D01*
X159704552Y-156360377D01*
X159666205Y-156328990D01*
X159432704Y-156185901D01*
X159428768Y-156184173D01*
X159185873Y-156077549D01*
X159185869Y-156077548D01*
X159181945Y-156075825D01*
X158918566Y-156000800D01*
X158914324Y-156000196D01*
X158914318Y-156000195D01*
X158713834Y-155971662D01*
X158647443Y-155962213D01*
X158503589Y-155961460D01*
X158377877Y-155960802D01*
X158377871Y-155960802D01*
X158373591Y-155960780D01*
X158369347Y-155961339D01*
X158369343Y-155961339D01*
X158263839Y-155975229D01*
X158102078Y-155996525D01*
X158097938Y-155997658D01*
X158097936Y-155997658D01*
X158045653Y-156011961D01*
X157837928Y-156068788D01*
X157833980Y-156070472D01*
X157589982Y-156174546D01*
X157589978Y-156174548D01*
X157586030Y-156176232D01*
X157499151Y-156228228D01*
X157354725Y-156314664D01*
X157354721Y-156314667D01*
X157351043Y-156316868D01*
X157137318Y-156488094D01*
X156948808Y-156686742D01*
X156789002Y-156909136D01*
X156660857Y-157151161D01*
X156659385Y-157155184D01*
X156659383Y-157155188D01*
X156581401Y-157368283D01*
X156566743Y-157408337D01*
X156508404Y-157675907D01*
X156508068Y-157680177D01*
X156492995Y-157871698D01*
X156486917Y-157948918D01*
X107198805Y-157948918D01*
X107174827Y-157871698D01*
X107134709Y-157742496D01*
X107004180Y-157451378D01*
X106839623Y-157178050D01*
X106837296Y-157175066D01*
X106837291Y-157175059D01*
X106645752Y-156929459D01*
X106645746Y-156929452D01*
X106643421Y-156926471D01*
X106418417Y-156700285D01*
X106167868Y-156502768D01*
X105895405Y-156336782D01*
X105779387Y-156284032D01*
X105608427Y-156206300D01*
X105608419Y-156206297D01*
X105604975Y-156204731D01*
X105300783Y-156108528D01*
X105126874Y-156075825D01*
X104990962Y-156050267D01*
X104990957Y-156050266D01*
X104987238Y-156049567D01*
X104668880Y-156028700D01*
X104665100Y-156028908D01*
X104665099Y-156028908D01*
X104569459Y-156034172D01*
X104350320Y-156046232D01*
X104346593Y-156046893D01*
X104346589Y-156046893D01*
X104254234Y-156063261D01*
X104036175Y-156101907D01*
X104032559Y-156103009D01*
X104032551Y-156103011D01*
X103734617Y-156193814D01*
X103734610Y-156193817D01*
X103730993Y-156194919D01*
X103439195Y-156323921D01*
X103435941Y-156325857D01*
X103435935Y-156325860D01*
X103168268Y-156485106D01*
X103165009Y-156487045D01*
X103162008Y-156489360D01*
X103162004Y-156489363D01*
X103144629Y-156502768D01*
X102912406Y-156681927D01*
X102685045Y-156905744D01*
X102486219Y-157155255D01*
X102318809Y-157426845D01*
X102185239Y-157716581D01*
X102184080Y-157720181D01*
X102184077Y-157720188D01*
X102132680Y-157879793D01*
X102087445Y-158020264D01*
X102086726Y-158023980D01*
X102086724Y-158023988D01*
X102035428Y-158289117D01*
X102026842Y-158333496D01*
X102026575Y-158337272D01*
X102026574Y-158337277D01*
X102011095Y-158555895D01*
X102004309Y-158651741D01*
X100646512Y-158651741D01*
X100628988Y-158404253D01*
X100620498Y-158364815D01*
X100571848Y-158138844D01*
X100571847Y-158138842D01*
X100570912Y-158134497D01*
X100475405Y-157875616D01*
X100344375Y-157632775D01*
X100309336Y-157585335D01*
X100210394Y-157451378D01*
X100180436Y-157410818D01*
X99986858Y-157214175D01*
X99899323Y-157147371D01*
X99771048Y-157049475D01*
X99771044Y-157049472D01*
X99767503Y-157046770D01*
X99526750Y-156911941D01*
X99522597Y-156910334D01*
X99522592Y-156910332D01*
X99273556Y-156813987D01*
X99273550Y-156813985D01*
X99269401Y-156812380D01*
X99265069Y-156811376D01*
X99265066Y-156811375D01*
X99153915Y-156785612D01*
X99000591Y-156750074D01*
X98725684Y-156726264D01*
X98721249Y-156726508D01*
X98721245Y-156726508D01*
X98454607Y-156741182D01*
X98454600Y-156741183D01*
X98450164Y-156741427D01*
X98262325Y-156778790D01*
X98183893Y-156794391D01*
X98183891Y-156794392D01*
X98179530Y-156795259D01*
X97919181Y-156886687D01*
X97674311Y-157013887D01*
X97670696Y-157016470D01*
X97670690Y-157016474D01*
X97624510Y-157049475D01*
X97449807Y-157174320D01*
X97250148Y-157364786D01*
X97079317Y-157581483D01*
X96940724Y-157820089D01*
X96939056Y-157824206D01*
X96939053Y-157824213D01*
X96847232Y-158050909D01*
X96837133Y-158075842D01*
X96770612Y-158343640D01*
X96742487Y-158618140D01*
X94508500Y-158618140D01*
X94508500Y-155049766D01*
X106990439Y-155049766D01*
X107006497Y-155213540D01*
X107058440Y-155369687D01*
X107062089Y-155375712D01*
X107117064Y-155466485D01*
X107143687Y-155510445D01*
X107148578Y-155515510D01*
X107148579Y-155515511D01*
X107207565Y-155576593D01*
X107257999Y-155628819D01*
X107263891Y-155632674D01*
X107263895Y-155632678D01*
X107352517Y-155690670D01*
X107398566Y-155744707D01*
X107406942Y-155776332D01*
X107407391Y-155776237D01*
X107408857Y-155783132D01*
X107409544Y-155790141D01*
X107461487Y-155946288D01*
X107481872Y-155979948D01*
X107539227Y-156074650D01*
X107546734Y-156087046D01*
X107551625Y-156092111D01*
X107551626Y-156092112D01*
X107570002Y-156111141D01*
X107661046Y-156205420D01*
X107798744Y-156295527D01*
X107952983Y-156352888D01*
X107959964Y-156353819D01*
X107959966Y-156353820D01*
X108109116Y-156373721D01*
X108109120Y-156373721D01*
X108116097Y-156374652D01*
X108123108Y-156374014D01*
X108123112Y-156374014D01*
X108272958Y-156360377D01*
X108272959Y-156360377D01*
X108279979Y-156359738D01*
X108350630Y-156336782D01*
X108429785Y-156311063D01*
X108429788Y-156311062D01*
X108436484Y-156308886D01*
X108577834Y-156224624D01*
X108697004Y-156111141D01*
X108703139Y-156101907D01*
X108784169Y-155979948D01*
X108784170Y-155979946D01*
X108788070Y-155974076D01*
X108846506Y-155820241D01*
X108857120Y-155744717D01*
X108868857Y-155661207D01*
X108868858Y-155661200D01*
X108869408Y-155657283D01*
X108869696Y-155636673D01*
X108863130Y-155578134D01*
X126611500Y-155578134D01*
X126618255Y-155640316D01*
X126669385Y-155776705D01*
X126756739Y-155893261D01*
X126873295Y-155980615D01*
X127009684Y-156031745D01*
X127071866Y-156038500D01*
X128768134Y-156038500D01*
X128830316Y-156031745D01*
X128966705Y-155980615D01*
X129083261Y-155893261D01*
X129170615Y-155776705D01*
X129209783Y-155672223D01*
X129252424Y-155615459D01*
X129318985Y-155590759D01*
X129388334Y-155605966D01*
X129416860Y-155627358D01*
X129575700Y-155786198D01*
X129580208Y-155789355D01*
X129580211Y-155789357D01*
X129598924Y-155802460D01*
X129763251Y-155917523D01*
X129768233Y-155919846D01*
X129768238Y-155919849D01*
X129941840Y-156000800D01*
X129970757Y-156014284D01*
X129976065Y-156015706D01*
X129976067Y-156015707D01*
X130186598Y-156072119D01*
X130186600Y-156072119D01*
X130191913Y-156073543D01*
X130420000Y-156093498D01*
X130648087Y-156073543D01*
X130653400Y-156072119D01*
X130653402Y-156072119D01*
X130863933Y-156015707D01*
X130863935Y-156015706D01*
X130869243Y-156014284D01*
X130898160Y-156000800D01*
X131071762Y-155919849D01*
X131071767Y-155919846D01*
X131076749Y-155917523D01*
X131241076Y-155802460D01*
X131259789Y-155789357D01*
X131259792Y-155789355D01*
X131264300Y-155786198D01*
X131330905Y-155719593D01*
X131393217Y-155685567D01*
X131464032Y-155690632D01*
X131509095Y-155719593D01*
X131575700Y-155786198D01*
X131580208Y-155789355D01*
X131580211Y-155789357D01*
X131598924Y-155802460D01*
X131763251Y-155917523D01*
X131768233Y-155919846D01*
X131768238Y-155919849D01*
X131941840Y-156000800D01*
X131970757Y-156014284D01*
X131976065Y-156015706D01*
X131976067Y-156015707D01*
X132186598Y-156072119D01*
X132186600Y-156072119D01*
X132191913Y-156073543D01*
X132420000Y-156093498D01*
X132648087Y-156073543D01*
X132653400Y-156072119D01*
X132653402Y-156072119D01*
X132863933Y-156015707D01*
X132863935Y-156015706D01*
X132869243Y-156014284D01*
X132898160Y-156000800D01*
X133071762Y-155919849D01*
X133071767Y-155919846D01*
X133076749Y-155917523D01*
X133241076Y-155802460D01*
X133259789Y-155789357D01*
X133259792Y-155789355D01*
X133264300Y-155786198D01*
X133426198Y-155624300D01*
X133450108Y-155590154D01*
X133510138Y-155504422D01*
X133557523Y-155436749D01*
X133559846Y-155431767D01*
X133559849Y-155431762D01*
X133579465Y-155389694D01*
X144971931Y-155389694D01*
X144987989Y-155553468D01*
X145039932Y-155709615D01*
X145043581Y-155715640D01*
X145096162Y-155802460D01*
X145125179Y-155850373D01*
X145239491Y-155968747D01*
X145377189Y-156058854D01*
X145531428Y-156116215D01*
X145538409Y-156117146D01*
X145538411Y-156117147D01*
X145687561Y-156137048D01*
X145687565Y-156137048D01*
X145694542Y-156137979D01*
X145701553Y-156137341D01*
X145701557Y-156137341D01*
X145851403Y-156123704D01*
X145851404Y-156123704D01*
X145858424Y-156123065D01*
X145903164Y-156108528D01*
X146008230Y-156074390D01*
X146008233Y-156074389D01*
X146014929Y-156072213D01*
X146156279Y-155987951D01*
X146275449Y-155874468D01*
X146291458Y-155850373D01*
X146362614Y-155743275D01*
X146362615Y-155743273D01*
X146366515Y-155737403D01*
X146424951Y-155583568D01*
X146441406Y-155466485D01*
X146447302Y-155424534D01*
X146447303Y-155424527D01*
X146447853Y-155420610D01*
X146448141Y-155400000D01*
X146429798Y-155236466D01*
X146423998Y-155219809D01*
X146377998Y-155087717D01*
X146375680Y-155081060D01*
X146360508Y-155056779D01*
X146292209Y-154947479D01*
X146288476Y-154941505D01*
X146227281Y-154879881D01*
X146177486Y-154829737D01*
X146177482Y-154829734D01*
X146172522Y-154824739D01*
X146033580Y-154736563D01*
X145984447Y-154719068D01*
X145885189Y-154683723D01*
X145885187Y-154683722D01*
X145878555Y-154681361D01*
X145871569Y-154680528D01*
X145871565Y-154680527D01*
X145757071Y-154666875D01*
X145715153Y-154661877D01*
X145708150Y-154662613D01*
X145708149Y-154662613D01*
X145664935Y-154667155D01*
X145551495Y-154679078D01*
X145544827Y-154681348D01*
X145402382Y-154729840D01*
X145402379Y-154729841D01*
X145395715Y-154732110D01*
X145255555Y-154818337D01*
X145137982Y-154933473D01*
X145048838Y-155071797D01*
X145046427Y-155078420D01*
X145046426Y-155078423D01*
X144994966Y-155219809D01*
X144994965Y-155219814D01*
X144992556Y-155226432D01*
X144971931Y-155389694D01*
X133579465Y-155389694D01*
X133651961Y-155234225D01*
X133651961Y-155234224D01*
X133654284Y-155229243D01*
X133656701Y-155220225D01*
X133712119Y-155013402D01*
X133712119Y-155013400D01*
X133713543Y-155008087D01*
X133733498Y-154780000D01*
X133713543Y-154551913D01*
X133671732Y-154395873D01*
X133655707Y-154336067D01*
X133655706Y-154336065D01*
X133654284Y-154330757D01*
X133611500Y-154239006D01*
X133559849Y-154128238D01*
X133559846Y-154128233D01*
X133557523Y-154123251D01*
X133463998Y-153989684D01*
X133429357Y-153940211D01*
X133429355Y-153940208D01*
X133426198Y-153935700D01*
X133264300Y-153773802D01*
X133259792Y-153770645D01*
X133259789Y-153770643D01*
X133181611Y-153715902D01*
X133076749Y-153642477D01*
X133071767Y-153640154D01*
X133071762Y-153640151D01*
X132874225Y-153548039D01*
X132874224Y-153548039D01*
X132869243Y-153545716D01*
X132863935Y-153544294D01*
X132863933Y-153544293D01*
X132653402Y-153487881D01*
X132653400Y-153487881D01*
X132648087Y-153486457D01*
X132420000Y-153466502D01*
X132191913Y-153486457D01*
X132186600Y-153487881D01*
X132186598Y-153487881D01*
X131976067Y-153544293D01*
X131976065Y-153544294D01*
X131970757Y-153545716D01*
X131965776Y-153548039D01*
X131965775Y-153548039D01*
X131768238Y-153640151D01*
X131768233Y-153640154D01*
X131763251Y-153642477D01*
X131658389Y-153715902D01*
X131580211Y-153770643D01*
X131580208Y-153770645D01*
X131575700Y-153773802D01*
X131509095Y-153840407D01*
X131446783Y-153874433D01*
X131375968Y-153869368D01*
X131330905Y-153840407D01*
X131264300Y-153773802D01*
X131259792Y-153770645D01*
X131259789Y-153770643D01*
X131181611Y-153715902D01*
X131076749Y-153642477D01*
X131071767Y-153640154D01*
X131071762Y-153640151D01*
X130874225Y-153548039D01*
X130874224Y-153548039D01*
X130869243Y-153545716D01*
X130863935Y-153544294D01*
X130863933Y-153544293D01*
X130653402Y-153487881D01*
X130653400Y-153487881D01*
X130648087Y-153486457D01*
X130420000Y-153466502D01*
X130191913Y-153486457D01*
X130186600Y-153487881D01*
X130186598Y-153487881D01*
X129976067Y-153544293D01*
X129976065Y-153544294D01*
X129970757Y-153545716D01*
X129965776Y-153548039D01*
X129965775Y-153548039D01*
X129768238Y-153640151D01*
X129768233Y-153640154D01*
X129763251Y-153642477D01*
X129658389Y-153715902D01*
X129580211Y-153770643D01*
X129580208Y-153770645D01*
X129575700Y-153773802D01*
X129416860Y-153932642D01*
X129354548Y-153966668D01*
X129283733Y-153961603D01*
X129226897Y-153919056D01*
X129209783Y-153887776D01*
X129209227Y-153886291D01*
X129170615Y-153783295D01*
X129083261Y-153666739D01*
X128966705Y-153579385D01*
X128830316Y-153528255D01*
X128768134Y-153521500D01*
X127071866Y-153521500D01*
X127009684Y-153528255D01*
X126873295Y-153579385D01*
X126756739Y-153666739D01*
X126669385Y-153783295D01*
X126618255Y-153919684D01*
X126611500Y-153981866D01*
X126611500Y-155578134D01*
X108863130Y-155578134D01*
X108851353Y-155473139D01*
X108833061Y-155420610D01*
X108799553Y-155324390D01*
X108797235Y-155317733D01*
X108710031Y-155178178D01*
X108652054Y-155119795D01*
X108599041Y-155066410D01*
X108599037Y-155066407D01*
X108594077Y-155061412D01*
X108564705Y-155042772D01*
X108508016Y-155006795D01*
X108461218Y-154953405D01*
X108450316Y-154914457D01*
X108449091Y-154903536D01*
X108448306Y-154896538D01*
X108442506Y-154879881D01*
X108396506Y-154747789D01*
X108394188Y-154741132D01*
X108388551Y-154732110D01*
X108310717Y-154607551D01*
X108306984Y-154601577D01*
X108249007Y-154543194D01*
X108195994Y-154489809D01*
X108195990Y-154489806D01*
X108191030Y-154484811D01*
X108052088Y-154396635D01*
X108002955Y-154379140D01*
X107903697Y-154343795D01*
X107903695Y-154343794D01*
X107897063Y-154341433D01*
X107890077Y-154340600D01*
X107890073Y-154340599D01*
X107775579Y-154326947D01*
X107733661Y-154321949D01*
X107726658Y-154322685D01*
X107726657Y-154322685D01*
X107683443Y-154327227D01*
X107570003Y-154339150D01*
X107563335Y-154341420D01*
X107420890Y-154389912D01*
X107420887Y-154389913D01*
X107414223Y-154392182D01*
X107274063Y-154478409D01*
X107156490Y-154593545D01*
X107067346Y-154731869D01*
X107064935Y-154738492D01*
X107064934Y-154738495D01*
X107013474Y-154879881D01*
X107013473Y-154879886D01*
X107011064Y-154886504D01*
X106990439Y-155049766D01*
X94508500Y-155049766D01*
X94508500Y-153288034D01*
X108102323Y-153288034D01*
X108118381Y-153451808D01*
X108170324Y-153607955D01*
X108255571Y-153748713D01*
X108369883Y-153867087D01*
X108507581Y-153957194D01*
X108661820Y-154014555D01*
X108668801Y-154015486D01*
X108668803Y-154015487D01*
X108817953Y-154035388D01*
X108817957Y-154035388D01*
X108824934Y-154036319D01*
X108831945Y-154035681D01*
X108831949Y-154035681D01*
X108981795Y-154022044D01*
X108981796Y-154022044D01*
X108988816Y-154021405D01*
X109017454Y-154012100D01*
X109138622Y-153972730D01*
X109138625Y-153972729D01*
X109145321Y-153970553D01*
X109286671Y-153886291D01*
X109405841Y-153772808D01*
X109425035Y-153743919D01*
X109493006Y-153641615D01*
X109493007Y-153641613D01*
X109496907Y-153635743D01*
X109518453Y-153579023D01*
X109561340Y-153522446D01*
X109597303Y-153503934D01*
X109688233Y-153474389D01*
X109688235Y-153474388D01*
X109694929Y-153472213D01*
X109836279Y-153387951D01*
X109955449Y-153274468D01*
X109959350Y-153268597D01*
X110042614Y-153143275D01*
X110042615Y-153143273D01*
X110046515Y-153137403D01*
X110104951Y-152983568D01*
X110123829Y-152849243D01*
X110127302Y-152824534D01*
X110127303Y-152824527D01*
X110127853Y-152820610D01*
X110128141Y-152800000D01*
X110112989Y-152664917D01*
X110125273Y-152594993D01*
X110159029Y-152554138D01*
X110158826Y-152553925D01*
X110160603Y-152552233D01*
X110160604Y-152552232D01*
X110277996Y-152440442D01*
X110304866Y-152400000D01*
X154476502Y-152400000D01*
X154496457Y-152628087D01*
X154497881Y-152633400D01*
X154497881Y-152633402D01*
X154551046Y-152831813D01*
X154555716Y-152849243D01*
X154558039Y-152854224D01*
X154558039Y-152854225D01*
X154650151Y-153051762D01*
X154650154Y-153051767D01*
X154652477Y-153056749D01*
X154783802Y-153244300D01*
X154942642Y-153403140D01*
X154976668Y-153465452D01*
X154971603Y-153536267D01*
X154929056Y-153593103D01*
X154897777Y-153610216D01*
X154887738Y-153613980D01*
X154801705Y-153646232D01*
X154801704Y-153646233D01*
X154793295Y-153649385D01*
X154676739Y-153736739D01*
X154589385Y-153853295D01*
X154538255Y-153989684D01*
X154531500Y-154051866D01*
X154531500Y-155748134D01*
X154538255Y-155810316D01*
X154589385Y-155946705D01*
X154676739Y-156063261D01*
X154793295Y-156150615D01*
X154929684Y-156201745D01*
X154991866Y-156208500D01*
X156588134Y-156208500D01*
X156650316Y-156201745D01*
X156786705Y-156150615D01*
X156903261Y-156063261D01*
X156990615Y-155946705D01*
X157041745Y-155810316D01*
X157048500Y-155748134D01*
X157048500Y-154051866D01*
X157041745Y-153989684D01*
X156990615Y-153853295D01*
X156903261Y-153736739D01*
X156786705Y-153649385D01*
X156778296Y-153646233D01*
X156778295Y-153646232D01*
X156692262Y-153613980D01*
X156682223Y-153610217D01*
X156625459Y-153567576D01*
X156600759Y-153501015D01*
X156615966Y-153431666D01*
X156637358Y-153403140D01*
X156796198Y-153244300D01*
X156927523Y-153056749D01*
X156929846Y-153051767D01*
X156929849Y-153051762D01*
X157021961Y-152854225D01*
X157021961Y-152854224D01*
X157024284Y-152849243D01*
X157028955Y-152831813D01*
X157082119Y-152633402D01*
X157082119Y-152633400D01*
X157083543Y-152628087D01*
X157103498Y-152400000D01*
X157083543Y-152171913D01*
X157082119Y-152166598D01*
X157025707Y-151956067D01*
X157025706Y-151956065D01*
X157024284Y-151950757D01*
X156953705Y-151799398D01*
X156929849Y-151748238D01*
X156929846Y-151748233D01*
X156927523Y-151743251D01*
X156796198Y-151555700D01*
X156729593Y-151489095D01*
X156695567Y-151426783D01*
X156700632Y-151355968D01*
X156729593Y-151310905D01*
X156796198Y-151244300D01*
X156801156Y-151237220D01*
X156924366Y-151061257D01*
X156927523Y-151056749D01*
X156929846Y-151051767D01*
X156929849Y-151051762D01*
X157021961Y-150854225D01*
X157021961Y-150854224D01*
X157024284Y-150849243D01*
X157042188Y-150782427D01*
X157082119Y-150633402D01*
X157082119Y-150633400D01*
X157083543Y-150628087D01*
X157103498Y-150400000D01*
X157083543Y-150171913D01*
X157052926Y-150057649D01*
X157025707Y-149956067D01*
X157025706Y-149956065D01*
X157024284Y-149950757D01*
X156988690Y-149874424D01*
X156929849Y-149748238D01*
X156929846Y-149748233D01*
X156927523Y-149743251D01*
X156814967Y-149582505D01*
X156799357Y-149560211D01*
X156799355Y-149560208D01*
X156796198Y-149555700D01*
X156634300Y-149393802D01*
X156629792Y-149390645D01*
X156629789Y-149390643D01*
X156531081Y-149321527D01*
X156446749Y-149262477D01*
X156441767Y-149260154D01*
X156441762Y-149260151D01*
X156244225Y-149168039D01*
X156244224Y-149168039D01*
X156239243Y-149165716D01*
X156233935Y-149164294D01*
X156233933Y-149164293D01*
X156023402Y-149107881D01*
X156023400Y-149107881D01*
X156018087Y-149106457D01*
X155790000Y-149086502D01*
X155561913Y-149106457D01*
X155556600Y-149107881D01*
X155556598Y-149107881D01*
X155346067Y-149164293D01*
X155346065Y-149164294D01*
X155340757Y-149165716D01*
X155335776Y-149168039D01*
X155335775Y-149168039D01*
X155138238Y-149260151D01*
X155138233Y-149260154D01*
X155133251Y-149262477D01*
X155048919Y-149321527D01*
X154950211Y-149390643D01*
X154950208Y-149390645D01*
X154945700Y-149393802D01*
X154783802Y-149555700D01*
X154780645Y-149560208D01*
X154780643Y-149560211D01*
X154765033Y-149582505D01*
X154652477Y-149743251D01*
X154650154Y-149748233D01*
X154650151Y-149748238D01*
X154591310Y-149874424D01*
X154555716Y-149950757D01*
X154554294Y-149956065D01*
X154554293Y-149956067D01*
X154527074Y-150057649D01*
X154496457Y-150171913D01*
X154476502Y-150400000D01*
X154496457Y-150628087D01*
X154497881Y-150633400D01*
X154497881Y-150633402D01*
X154537813Y-150782427D01*
X154555716Y-150849243D01*
X154558039Y-150854224D01*
X154558039Y-150854225D01*
X154650151Y-151051762D01*
X154650154Y-151051767D01*
X154652477Y-151056749D01*
X154655634Y-151061257D01*
X154778845Y-151237220D01*
X154783802Y-151244300D01*
X154850407Y-151310905D01*
X154884433Y-151373217D01*
X154879368Y-151444032D01*
X154850407Y-151489095D01*
X154783802Y-151555700D01*
X154652477Y-151743251D01*
X154650154Y-151748233D01*
X154650151Y-151748238D01*
X154626295Y-151799398D01*
X154555716Y-151950757D01*
X154554294Y-151956065D01*
X154554293Y-151956067D01*
X154497881Y-152166598D01*
X154496457Y-152171913D01*
X154476502Y-152400000D01*
X110304866Y-152400000D01*
X110321154Y-152375484D01*
X110375510Y-152329815D01*
X110414682Y-152319730D01*
X110457330Y-152315849D01*
X110535582Y-152290423D01*
X110607136Y-152267174D01*
X110607139Y-152267173D01*
X110613835Y-152264997D01*
X110755185Y-152180735D01*
X110874355Y-152067252D01*
X110943832Y-151962681D01*
X110961520Y-151936059D01*
X110961521Y-151936057D01*
X110965421Y-151930187D01*
X111023857Y-151776352D01*
X111046759Y-151613394D01*
X111046814Y-151609435D01*
X111047118Y-151605487D01*
X111049135Y-151605642D01*
X111067706Y-151545497D01*
X111122002Y-151499754D01*
X111161321Y-151489603D01*
X111256317Y-151480958D01*
X111369963Y-151444032D01*
X111406123Y-151432283D01*
X111406126Y-151432282D01*
X111412822Y-151430106D01*
X111554172Y-151345844D01*
X111673342Y-151232361D01*
X111764408Y-151095296D01*
X111822844Y-150941461D01*
X111835104Y-150854225D01*
X111845195Y-150782427D01*
X111845196Y-150782420D01*
X111845746Y-150778503D01*
X111845948Y-150764065D01*
X111845979Y-150761855D01*
X111845979Y-150761849D01*
X111846034Y-150757893D01*
X111827691Y-150594359D01*
X111821891Y-150577702D01*
X111793592Y-150496439D01*
X111773573Y-150438953D01*
X111769838Y-150432976D01*
X111766795Y-150426624D01*
X111769022Y-150425557D01*
X111752982Y-150368268D01*
X111761184Y-150325112D01*
X111808271Y-150201153D01*
X111814951Y-150183568D01*
X111823507Y-150122689D01*
X111837302Y-150024534D01*
X111837303Y-150024527D01*
X111837853Y-150020610D01*
X111838141Y-150000000D01*
X111819798Y-149836466D01*
X111813998Y-149819809D01*
X111779039Y-149719423D01*
X111765680Y-149681060D01*
X111678476Y-149541505D01*
X111599489Y-149461965D01*
X111567486Y-149429737D01*
X111567482Y-149429734D01*
X111562522Y-149424739D01*
X111423580Y-149336563D01*
X111313432Y-149297341D01*
X111275189Y-149283723D01*
X111275187Y-149283722D01*
X111268555Y-149281361D01*
X111261569Y-149280528D01*
X111261565Y-149280527D01*
X111136661Y-149265634D01*
X111105153Y-149261877D01*
X111098150Y-149262613D01*
X111098149Y-149262613D01*
X111069407Y-149265634D01*
X110941495Y-149279078D01*
X110934827Y-149281348D01*
X110792382Y-149329840D01*
X110792379Y-149329841D01*
X110785715Y-149332110D01*
X110645555Y-149418337D01*
X110527982Y-149533473D01*
X110438838Y-149671797D01*
X110436427Y-149678420D01*
X110436426Y-149678423D01*
X110384966Y-149819809D01*
X110384965Y-149819814D01*
X110382556Y-149826432D01*
X110361931Y-149989694D01*
X110377989Y-150153468D01*
X110429932Y-150309615D01*
X110433580Y-150315638D01*
X110433581Y-150315641D01*
X110436520Y-150320494D01*
X110454698Y-150389124D01*
X110444796Y-150428986D01*
X110446731Y-150429690D01*
X110392859Y-150577702D01*
X110392858Y-150577707D01*
X110390449Y-150584325D01*
X110369824Y-150747587D01*
X110367577Y-150747303D01*
X110349811Y-150804836D01*
X110295515Y-150850579D01*
X110257941Y-150860559D01*
X110214617Y-150865113D01*
X110150401Y-150871862D01*
X110143733Y-150874132D01*
X110001288Y-150922624D01*
X110001285Y-150922625D01*
X109994621Y-150924894D01*
X109854461Y-151011121D01*
X109736888Y-151126257D01*
X109700754Y-151182326D01*
X109647040Y-151228749D01*
X109608015Y-151239379D01*
X109595113Y-151240735D01*
X109554042Y-151245052D01*
X109547376Y-151247321D01*
X109547373Y-151247322D01*
X109404929Y-151295814D01*
X109404926Y-151295815D01*
X109398262Y-151298084D01*
X109258102Y-151384311D01*
X109140529Y-151499447D01*
X109051385Y-151637771D01*
X109048974Y-151644394D01*
X109048973Y-151644397D01*
X108997513Y-151785783D01*
X108997512Y-151785788D01*
X108995103Y-151792406D01*
X108974478Y-151955668D01*
X108975166Y-151962681D01*
X108988962Y-152103388D01*
X108975702Y-152173135D01*
X108941251Y-152214833D01*
X108935555Y-152218337D01*
X108930531Y-152223257D01*
X108930527Y-152223260D01*
X108832016Y-152319730D01*
X108817982Y-152333473D01*
X108728838Y-152471797D01*
X108726427Y-152478420D01*
X108726427Y-152478421D01*
X108712246Y-152517383D01*
X108670151Y-152574555D01*
X108634451Y-152593566D01*
X108532774Y-152628180D01*
X108532771Y-152628181D01*
X108526107Y-152630450D01*
X108385947Y-152716677D01*
X108380914Y-152721606D01*
X108296815Y-152803962D01*
X108268374Y-152831813D01*
X108179230Y-152970137D01*
X108176819Y-152976760D01*
X108176818Y-152976763D01*
X108125358Y-153118149D01*
X108125357Y-153118154D01*
X108122948Y-153124772D01*
X108102323Y-153288034D01*
X94508500Y-153288034D01*
X94508500Y-150030694D01*
X101461931Y-150030694D01*
X101477989Y-150194468D01*
X101529932Y-150350615D01*
X101533581Y-150356640D01*
X101587464Y-150445610D01*
X101615179Y-150491373D01*
X101729491Y-150609747D01*
X101867189Y-150699854D01*
X102021428Y-150757215D01*
X102028409Y-150758146D01*
X102028411Y-150758147D01*
X102177561Y-150778048D01*
X102177565Y-150778048D01*
X102184542Y-150778979D01*
X102191553Y-150778341D01*
X102191557Y-150778341D01*
X102341403Y-150764704D01*
X102341404Y-150764704D01*
X102348424Y-150764065D01*
X102400012Y-150747303D01*
X102498230Y-150715390D01*
X102498233Y-150715389D01*
X102504929Y-150713213D01*
X102646279Y-150628951D01*
X102765449Y-150515468D01*
X102781458Y-150491373D01*
X102852614Y-150384275D01*
X102852615Y-150384273D01*
X102856515Y-150378403D01*
X102914951Y-150224568D01*
X102937853Y-150061610D01*
X102938141Y-150041000D01*
X102919798Y-149877466D01*
X102913998Y-149860809D01*
X102873059Y-149743251D01*
X102865680Y-149722060D01*
X102838413Y-149678423D01*
X102782209Y-149588479D01*
X102778476Y-149582505D01*
X102720499Y-149524122D01*
X102667486Y-149470737D01*
X102667482Y-149470734D01*
X102662522Y-149465739D01*
X102523580Y-149377563D01*
X102419046Y-149340340D01*
X102375189Y-149324723D01*
X102375187Y-149324722D01*
X102368555Y-149322361D01*
X102361569Y-149321528D01*
X102361565Y-149321527D01*
X102247071Y-149307875D01*
X102205153Y-149302877D01*
X102198150Y-149303613D01*
X102198149Y-149303613D01*
X102154935Y-149308155D01*
X102041495Y-149320078D01*
X102034827Y-149322348D01*
X101892382Y-149370840D01*
X101892379Y-149370841D01*
X101885715Y-149373110D01*
X101745555Y-149459337D01*
X101627982Y-149574473D01*
X101538838Y-149712797D01*
X101536427Y-149719420D01*
X101536426Y-149719423D01*
X101484966Y-149860809D01*
X101484965Y-149860814D01*
X101482556Y-149867432D01*
X101461931Y-150030694D01*
X94508500Y-150030694D01*
X94508500Y-148549694D01*
X98011931Y-148549694D01*
X98027989Y-148713468D01*
X98079932Y-148869615D01*
X98083581Y-148875640D01*
X98146130Y-148978919D01*
X98165179Y-149010373D01*
X98279491Y-149128747D01*
X98417189Y-149218854D01*
X98571428Y-149276215D01*
X98578409Y-149277146D01*
X98578411Y-149277147D01*
X98727561Y-149297048D01*
X98727565Y-149297048D01*
X98734542Y-149297979D01*
X98741553Y-149297341D01*
X98741557Y-149297341D01*
X98891403Y-149283704D01*
X98891404Y-149283704D01*
X98898424Y-149283065D01*
X98961067Y-149262711D01*
X99048230Y-149234390D01*
X99048233Y-149234389D01*
X99054929Y-149232213D01*
X99196279Y-149147951D01*
X99315449Y-149034468D01*
X99333835Y-149006795D01*
X99402614Y-148903275D01*
X99402615Y-148903273D01*
X99406515Y-148897403D01*
X99464951Y-148743568D01*
X99480238Y-148634796D01*
X99487302Y-148584534D01*
X99487303Y-148584527D01*
X99487853Y-148580610D01*
X99488019Y-148568708D01*
X99488086Y-148563962D01*
X99488086Y-148563956D01*
X99488141Y-148560000D01*
X99469798Y-148396466D01*
X99463998Y-148379809D01*
X99436868Y-148301903D01*
X99415680Y-148241060D01*
X99361018Y-148153582D01*
X99332209Y-148107479D01*
X99328476Y-148101505D01*
X99266331Y-148038925D01*
X99217486Y-147989737D01*
X99217482Y-147989734D01*
X99212522Y-147984739D01*
X99073580Y-147896563D01*
X99016009Y-147876063D01*
X98925189Y-147843723D01*
X98925187Y-147843722D01*
X98918555Y-147841361D01*
X98911569Y-147840528D01*
X98911565Y-147840527D01*
X98797071Y-147826875D01*
X98755153Y-147821877D01*
X98748150Y-147822613D01*
X98748149Y-147822613D01*
X98704935Y-147827155D01*
X98591495Y-147839078D01*
X98584827Y-147841348D01*
X98442382Y-147889840D01*
X98442379Y-147889841D01*
X98435715Y-147892110D01*
X98295555Y-147978337D01*
X98177982Y-148093473D01*
X98088838Y-148231797D01*
X98086427Y-148238420D01*
X98086426Y-148238423D01*
X98034966Y-148379809D01*
X98034965Y-148379814D01*
X98032556Y-148386432D01*
X98011931Y-148549694D01*
X94508500Y-148549694D01*
X94508500Y-147799694D01*
X99981931Y-147799694D01*
X99997989Y-147963468D01*
X100049932Y-148119615D01*
X100053581Y-148125640D01*
X100123483Y-148241060D01*
X100135179Y-148260373D01*
X100140070Y-148265438D01*
X100140071Y-148265439D01*
X100159910Y-148285983D01*
X100249491Y-148378747D01*
X100387189Y-148468854D01*
X100541428Y-148526215D01*
X100548407Y-148527146D01*
X100548410Y-148527147D01*
X100594257Y-148533264D01*
X100638338Y-148539146D01*
X100703214Y-148567980D01*
X100741230Y-148624264D01*
X100774692Y-148724855D01*
X100859939Y-148865613D01*
X100974251Y-148983987D01*
X101111949Y-149074094D01*
X101266188Y-149131455D01*
X101273169Y-149132386D01*
X101273171Y-149132387D01*
X101422321Y-149152288D01*
X101422325Y-149152288D01*
X101429302Y-149153219D01*
X101436313Y-149152581D01*
X101436317Y-149152581D01*
X101586163Y-149138944D01*
X101586164Y-149138944D01*
X101593184Y-149138305D01*
X101686819Y-149107881D01*
X101742990Y-149089630D01*
X101742993Y-149089629D01*
X101749689Y-149087453D01*
X101891039Y-149003191D01*
X102010209Y-148889708D01*
X102028001Y-148862929D01*
X102097374Y-148758515D01*
X102097375Y-148758513D01*
X102101275Y-148752643D01*
X102157784Y-148603880D01*
X130351931Y-148603880D01*
X130367989Y-148767654D01*
X130419932Y-148923801D01*
X130423581Y-148929826D01*
X130475431Y-149015439D01*
X130505179Y-149064559D01*
X130510070Y-149069624D01*
X130510071Y-149069625D01*
X130527287Y-149087453D01*
X130619491Y-149182933D01*
X130757189Y-149273040D01*
X130911428Y-149330401D01*
X130918409Y-149331332D01*
X130918411Y-149331333D01*
X131067561Y-149351234D01*
X131067565Y-149351234D01*
X131074542Y-149352165D01*
X131081553Y-149351527D01*
X131081557Y-149351527D01*
X131231403Y-149337890D01*
X131231404Y-149337890D01*
X131238424Y-149337251D01*
X131394929Y-149286399D01*
X131395088Y-149286304D01*
X131462698Y-149276760D01*
X131488369Y-149283333D01*
X131614931Y-149330401D01*
X131621912Y-149331332D01*
X131621914Y-149331333D01*
X131771064Y-149351234D01*
X131771068Y-149351234D01*
X131778045Y-149352165D01*
X131785056Y-149351527D01*
X131785060Y-149351527D01*
X131934906Y-149337890D01*
X131934907Y-149337890D01*
X131941927Y-149337251D01*
X131987753Y-149322361D01*
X132091733Y-149288576D01*
X132091736Y-149288575D01*
X132098432Y-149286399D01*
X132239782Y-149202137D01*
X132358952Y-149088654D01*
X132368626Y-149074094D01*
X132446117Y-148957461D01*
X132446118Y-148957459D01*
X132450018Y-148951589D01*
X132508454Y-148797754D01*
X132519638Y-148718174D01*
X132530805Y-148638720D01*
X132530806Y-148638713D01*
X132531356Y-148634796D01*
X132531644Y-148614186D01*
X132513301Y-148450652D01*
X132508147Y-148435850D01*
X132461501Y-148301903D01*
X132459183Y-148295246D01*
X132440558Y-148265439D01*
X132375712Y-148161665D01*
X132371979Y-148155691D01*
X132305301Y-148088546D01*
X132260989Y-148043923D01*
X132260985Y-148043920D01*
X132256025Y-148038925D01*
X132117083Y-147950749D01*
X132067950Y-147933254D01*
X131968692Y-147897909D01*
X131968690Y-147897908D01*
X131962058Y-147895547D01*
X131955072Y-147894714D01*
X131955068Y-147894713D01*
X131840574Y-147881061D01*
X131798656Y-147876063D01*
X131791653Y-147876799D01*
X131791652Y-147876799D01*
X131748438Y-147881341D01*
X131634998Y-147893264D01*
X131480804Y-147945756D01*
X131409872Y-147948774D01*
X131397932Y-147945177D01*
X131265189Y-147897909D01*
X131265187Y-147897908D01*
X131258555Y-147895547D01*
X131251569Y-147894714D01*
X131251565Y-147894713D01*
X131137071Y-147881061D01*
X131095153Y-147876063D01*
X131088150Y-147876799D01*
X131088149Y-147876799D01*
X131044935Y-147881341D01*
X130931495Y-147893264D01*
X130924827Y-147895534D01*
X130782382Y-147944026D01*
X130782379Y-147944027D01*
X130775715Y-147946296D01*
X130635555Y-148032523D01*
X130623914Y-148043923D01*
X130546620Y-148119615D01*
X130517982Y-148147659D01*
X130428838Y-148285983D01*
X130426427Y-148292606D01*
X130426426Y-148292609D01*
X130374966Y-148433995D01*
X130374965Y-148434000D01*
X130372556Y-148440618D01*
X130351931Y-148603880D01*
X102157784Y-148603880D01*
X102159711Y-148598808D01*
X102170258Y-148523760D01*
X102182062Y-148439774D01*
X102182063Y-148439767D01*
X102182613Y-148435850D01*
X102182901Y-148415240D01*
X102164558Y-148251706D01*
X102159933Y-148238423D01*
X102112758Y-148102957D01*
X102110440Y-148096300D01*
X102023236Y-147956745D01*
X101961124Y-147894198D01*
X101912246Y-147844977D01*
X101912242Y-147844974D01*
X101907282Y-147839979D01*
X101768340Y-147751803D01*
X101719207Y-147734308D01*
X101619949Y-147698963D01*
X101619947Y-147698962D01*
X101613315Y-147696601D01*
X101606327Y-147695768D01*
X101606324Y-147695767D01*
X101563769Y-147690693D01*
X101528675Y-147686509D01*
X101463403Y-147658582D01*
X101424603Y-147602832D01*
X101387998Y-147497717D01*
X101385680Y-147491060D01*
X101298476Y-147351505D01*
X101240499Y-147293122D01*
X101187486Y-147239737D01*
X101187482Y-147239734D01*
X101182522Y-147234739D01*
X101043580Y-147146563D01*
X100994447Y-147129068D01*
X100895189Y-147093723D01*
X100895187Y-147093722D01*
X100888555Y-147091361D01*
X100881569Y-147090528D01*
X100881565Y-147090527D01*
X100767071Y-147076875D01*
X100725153Y-147071877D01*
X100718150Y-147072613D01*
X100718149Y-147072613D01*
X100674935Y-147077155D01*
X100561495Y-147089078D01*
X100554827Y-147091348D01*
X100412382Y-147139840D01*
X100412379Y-147139841D01*
X100405715Y-147142110D01*
X100265555Y-147228337D01*
X100147982Y-147343473D01*
X100058838Y-147481797D01*
X100056427Y-147488420D01*
X100056426Y-147488423D01*
X100004966Y-147629809D01*
X100004965Y-147629814D01*
X100002556Y-147636432D01*
X99981931Y-147799694D01*
X94508500Y-147799694D01*
X94508500Y-144118140D01*
X96742487Y-144118140D01*
X96745587Y-144197048D01*
X96748553Y-144272520D01*
X96753320Y-144393863D01*
X96754120Y-144398243D01*
X96783064Y-144556723D01*
X96802895Y-144665310D01*
X96890223Y-144927063D01*
X96892215Y-144931050D01*
X96892216Y-144931052D01*
X97008929Y-145164632D01*
X97013560Y-145173901D01*
X97170447Y-145400897D01*
X97173463Y-145404159D01*
X97173468Y-145404166D01*
X97354737Y-145600261D01*
X97354742Y-145600265D01*
X97357753Y-145603523D01*
X97571740Y-145777737D01*
X97575558Y-145780036D01*
X97575560Y-145780037D01*
X97804323Y-145917763D01*
X97808140Y-145920061D01*
X97812235Y-145921795D01*
X97812237Y-145921796D01*
X98058134Y-146025920D01*
X98058141Y-146025922D01*
X98062235Y-146027656D01*
X98328955Y-146098376D01*
X98333379Y-146098900D01*
X98333381Y-146098900D01*
X98491891Y-146117660D01*
X98602979Y-146130808D01*
X98878838Y-146124307D01*
X98883233Y-146123575D01*
X98883238Y-146123575D01*
X99146628Y-146079735D01*
X99146632Y-146079734D01*
X99151030Y-146079002D01*
X99321760Y-146025007D01*
X99409877Y-145997140D01*
X99409879Y-145997139D01*
X99414123Y-145995797D01*
X99418134Y-145993871D01*
X99418139Y-145993869D01*
X99658848Y-145878282D01*
X99658849Y-145878281D01*
X99662867Y-145876352D01*
X99689833Y-145858334D01*
X99888592Y-145725528D01*
X99888596Y-145725525D01*
X99892300Y-145723050D01*
X100059041Y-145573704D01*
X100094525Y-145541922D01*
X100094526Y-145541921D01*
X100097843Y-145538950D01*
X100155571Y-145470275D01*
X100214715Y-145431001D01*
X100285703Y-145429936D01*
X100321014Y-145445919D01*
X100337260Y-145456550D01*
X100417189Y-145508854D01*
X100571428Y-145566215D01*
X100578409Y-145567146D01*
X100578411Y-145567147D01*
X100727561Y-145587048D01*
X100727565Y-145587048D01*
X100734542Y-145587979D01*
X100741553Y-145587341D01*
X100741557Y-145587341D01*
X100891403Y-145573704D01*
X100891404Y-145573704D01*
X100898424Y-145573065D01*
X100927062Y-145563760D01*
X101048230Y-145524390D01*
X101048233Y-145524389D01*
X101054929Y-145522213D01*
X101196279Y-145437951D01*
X101315449Y-145324468D01*
X101406515Y-145187403D01*
X101464951Y-145033568D01*
X101479919Y-144927063D01*
X101487302Y-144874534D01*
X101487303Y-144874527D01*
X101487853Y-144870610D01*
X101488141Y-144850000D01*
X101469798Y-144686466D01*
X101460906Y-144660930D01*
X101423174Y-144552581D01*
X101415680Y-144531060D01*
X101328476Y-144391505D01*
X101326836Y-144389854D01*
X101300899Y-144325772D01*
X101314070Y-144256008D01*
X101362868Y-144204440D01*
X101431799Y-144187440D01*
X101442944Y-144188426D01*
X101452265Y-144189669D01*
X101507561Y-144197048D01*
X101507565Y-144197048D01*
X101514542Y-144197979D01*
X101521553Y-144197341D01*
X101521557Y-144197341D01*
X101671403Y-144183704D01*
X101671404Y-144183704D01*
X101678424Y-144183065D01*
X101834929Y-144132213D01*
X101835053Y-144132593D01*
X101901196Y-144123258D01*
X101965700Y-144152918D01*
X102003929Y-144212743D01*
X102008786Y-144241664D01*
X102016250Y-144391583D01*
X102020173Y-144470388D01*
X102020814Y-144474119D01*
X102020815Y-144474127D01*
X102057302Y-144686466D01*
X102074202Y-144784821D01*
X102075290Y-144788460D01*
X102075291Y-144788463D01*
X102161891Y-145078032D01*
X102165615Y-145090485D01*
X102293088Y-145382954D01*
X102295011Y-145386226D01*
X102295013Y-145386229D01*
X102320707Y-145429936D01*
X102454774Y-145657991D01*
X102648330Y-145911611D01*
X102650974Y-145914325D01*
X102861353Y-146130285D01*
X102870954Y-146140141D01*
X102873908Y-146142521D01*
X102873911Y-146142523D01*
X103116468Y-146337892D01*
X103116473Y-146337896D01*
X103119421Y-146340270D01*
X103390130Y-146509100D01*
X103679162Y-146644185D01*
X103682771Y-146645368D01*
X103968791Y-146739130D01*
X103982329Y-146743568D01*
X104295240Y-146805810D01*
X104299012Y-146806097D01*
X104299020Y-146806098D01*
X104609585Y-146829722D01*
X104609590Y-146829722D01*
X104613362Y-146830009D01*
X104932088Y-146815814D01*
X105246799Y-146763432D01*
X105552939Y-146673621D01*
X105846071Y-146547681D01*
X106121950Y-146387438D01*
X106376580Y-146195212D01*
X106606273Y-145973787D01*
X106648601Y-145921796D01*
X106805309Y-145729309D01*
X106805310Y-145729308D01*
X106807700Y-145726372D01*
X106809796Y-145723050D01*
X106975922Y-145459757D01*
X106975925Y-145459751D01*
X106977945Y-145456550D01*
X107114542Y-145168229D01*
X107215511Y-144865587D01*
X107227092Y-144808918D01*
X156486917Y-144808918D01*
X156502682Y-145082320D01*
X156503507Y-145086525D01*
X156503508Y-145086533D01*
X156520649Y-145173901D01*
X156555405Y-145351053D01*
X156556792Y-145355103D01*
X156556793Y-145355108D01*
X156636523Y-145587979D01*
X156644112Y-145610144D01*
X156767160Y-145854799D01*
X156769586Y-145858328D01*
X156769589Y-145858334D01*
X156864066Y-145995797D01*
X156922274Y-146080490D01*
X156925161Y-146083663D01*
X156925162Y-146083664D01*
X157103692Y-146279867D01*
X157106582Y-146283043D01*
X157316675Y-146458707D01*
X157320316Y-146460991D01*
X157545024Y-146601951D01*
X157545028Y-146601953D01*
X157548664Y-146604234D01*
X157673461Y-146660582D01*
X157794345Y-146715164D01*
X157794349Y-146715166D01*
X157798257Y-146716930D01*
X157802377Y-146718150D01*
X157802376Y-146718150D01*
X158056723Y-146793491D01*
X158056727Y-146793492D01*
X158060836Y-146794709D01*
X158065070Y-146795357D01*
X158065075Y-146795358D01*
X158327298Y-146835483D01*
X158327300Y-146835483D01*
X158331540Y-146836132D01*
X158470912Y-146838322D01*
X158601071Y-146840367D01*
X158601077Y-146840367D01*
X158605362Y-146840434D01*
X158877235Y-146807534D01*
X159142127Y-146738041D01*
X159146087Y-146736401D01*
X159146092Y-146736399D01*
X159301257Y-146672127D01*
X159395136Y-146633241D01*
X159513359Y-146564157D01*
X159627879Y-146497237D01*
X159627880Y-146497236D01*
X159631582Y-146495073D01*
X159847089Y-146326094D01*
X159888809Y-146283043D01*
X160034686Y-146132509D01*
X160037669Y-146129431D01*
X160040202Y-146125983D01*
X160040206Y-146125978D01*
X160197257Y-145912178D01*
X160199795Y-145908723D01*
X160217371Y-145876352D01*
X160328418Y-145671830D01*
X160328419Y-145671828D01*
X160330468Y-145668054D01*
X160386939Y-145518607D01*
X160425751Y-145415895D01*
X160425752Y-145415891D01*
X160427269Y-145411877D01*
X160478680Y-145187403D01*
X160487449Y-145149117D01*
X160487450Y-145149113D01*
X160488407Y-145144933D01*
X160493267Y-145090485D01*
X160512531Y-144874627D01*
X160512531Y-144874625D01*
X160512751Y-144872161D01*
X160513193Y-144830000D01*
X160511465Y-144804648D01*
X160494859Y-144561055D01*
X160494858Y-144561049D01*
X160494567Y-144556778D01*
X160488004Y-144525084D01*
X160459907Y-144389414D01*
X160439032Y-144288612D01*
X160347617Y-144030465D01*
X160260169Y-143861037D01*
X160223978Y-143790919D01*
X160223978Y-143790918D01*
X160222013Y-143787112D01*
X160213951Y-143775640D01*
X160098656Y-143611592D01*
X160064545Y-143563057D01*
X159959202Y-143449694D01*
X159881046Y-143365588D01*
X159881043Y-143365585D01*
X159878125Y-143362445D01*
X159874810Y-143359731D01*
X159874806Y-143359728D01*
X159669523Y-143191706D01*
X159666205Y-143188990D01*
X159432704Y-143045901D01*
X159428768Y-143044173D01*
X159185873Y-142937549D01*
X159185869Y-142937548D01*
X159181945Y-142935825D01*
X158918566Y-142860800D01*
X158914324Y-142860196D01*
X158914318Y-142860195D01*
X158713834Y-142831662D01*
X158647443Y-142822213D01*
X158503589Y-142821460D01*
X158377877Y-142820802D01*
X158377871Y-142820802D01*
X158373591Y-142820780D01*
X158369347Y-142821339D01*
X158369343Y-142821339D01*
X158250302Y-142837011D01*
X158102078Y-142856525D01*
X158097938Y-142857658D01*
X158097936Y-142857658D01*
X158059098Y-142868283D01*
X157837928Y-142928788D01*
X157833980Y-142930472D01*
X157589982Y-143034546D01*
X157589978Y-143034548D01*
X157586030Y-143036232D01*
X157467414Y-143107222D01*
X157354725Y-143174664D01*
X157354721Y-143174667D01*
X157351043Y-143176868D01*
X157137318Y-143348094D01*
X156948808Y-143546742D01*
X156789002Y-143769136D01*
X156660857Y-144011161D01*
X156659385Y-144015184D01*
X156659383Y-144015188D01*
X156590126Y-144204440D01*
X156566743Y-144268337D01*
X156508404Y-144535907D01*
X156508068Y-144540177D01*
X156488814Y-144784821D01*
X156486917Y-144808918D01*
X107227092Y-144808918D01*
X107279390Y-144553006D01*
X107305255Y-144235015D01*
X107305836Y-144179500D01*
X107304234Y-144152918D01*
X107286865Y-143864815D01*
X107286865Y-143864811D01*
X107286637Y-143861037D01*
X107282670Y-143839313D01*
X107229998Y-143550909D01*
X107229997Y-143550905D01*
X107229318Y-143547187D01*
X107134709Y-143242496D01*
X107004180Y-142951378D01*
X106839623Y-142678050D01*
X106837296Y-142675066D01*
X106837291Y-142675059D01*
X106645752Y-142429459D01*
X106645746Y-142429452D01*
X106643421Y-142426471D01*
X106418417Y-142200285D01*
X106167868Y-142002768D01*
X105895405Y-141836782D01*
X105779387Y-141784032D01*
X105608427Y-141706300D01*
X105608419Y-141706297D01*
X105604975Y-141704731D01*
X105300783Y-141608528D01*
X105161957Y-141582422D01*
X104990962Y-141550267D01*
X104990957Y-141550266D01*
X104987238Y-141549567D01*
X104668880Y-141528700D01*
X104665100Y-141528908D01*
X104665099Y-141528908D01*
X104569459Y-141534172D01*
X104350320Y-141546232D01*
X104346593Y-141546893D01*
X104346589Y-141546893D01*
X104235338Y-141566610D01*
X104036175Y-141601907D01*
X104032559Y-141603009D01*
X104032551Y-141603011D01*
X103734617Y-141693814D01*
X103734610Y-141693817D01*
X103730993Y-141694919D01*
X103439195Y-141823921D01*
X103435941Y-141825857D01*
X103435935Y-141825860D01*
X103168268Y-141985106D01*
X103165009Y-141987045D01*
X102912406Y-142181927D01*
X102685045Y-142405744D01*
X102486219Y-142655255D01*
X102318809Y-142926845D01*
X102317219Y-142930294D01*
X102304585Y-142957698D01*
X102257900Y-143011186D01*
X102189709Y-143030944D01*
X102121660Y-143010698D01*
X102100754Y-142993729D01*
X101997486Y-142889737D01*
X101997482Y-142889734D01*
X101992522Y-142884739D01*
X101853580Y-142796563D01*
X101804447Y-142779068D01*
X101705189Y-142743723D01*
X101705187Y-142743722D01*
X101698555Y-142741361D01*
X101691569Y-142740528D01*
X101691565Y-142740527D01*
X101577071Y-142726875D01*
X101535153Y-142721877D01*
X101528150Y-142722613D01*
X101528149Y-142722613D01*
X101484935Y-142727155D01*
X101371495Y-142739078D01*
X101364827Y-142741348D01*
X101222382Y-142789840D01*
X101222379Y-142789841D01*
X101215715Y-142792110D01*
X101165800Y-142822818D01*
X101091898Y-142868283D01*
X101075555Y-142878337D01*
X101018050Y-142934650D01*
X100997426Y-142954847D01*
X100957982Y-142993473D01*
X100868838Y-143131797D01*
X100866427Y-143138420D01*
X100866426Y-143138423D01*
X100814966Y-143279809D01*
X100814965Y-143279814D01*
X100812556Y-143286432D01*
X100791931Y-143449694D01*
X100792619Y-143456707D01*
X100800966Y-143541844D01*
X100787706Y-143611592D01*
X100739557Y-143662345D01*
X100792714Y-143674029D01*
X100842808Y-143724339D01*
X100851647Y-143744708D01*
X100859932Y-143769615D01*
X100945179Y-143910373D01*
X100950071Y-143915439D01*
X100953468Y-143919850D01*
X100979184Y-143986026D01*
X100965040Y-144055599D01*
X100915527Y-144106481D01*
X100846366Y-144122518D01*
X100838736Y-144121843D01*
X100759106Y-144112348D01*
X100759105Y-144112348D01*
X100755153Y-144111877D01*
X100755236Y-144111183D01*
X100692286Y-144092224D01*
X100646167Y-144038246D01*
X100635456Y-143995600D01*
X100629303Y-143908705D01*
X100628988Y-143904253D01*
X100625165Y-143886496D01*
X100608913Y-143811004D01*
X100614130Y-143740200D01*
X100656799Y-143683456D01*
X100667921Y-143679335D01*
X100602740Y-143656960D01*
X100557355Y-143597750D01*
X100540075Y-143550909D01*
X100475405Y-143375616D01*
X100459111Y-143345417D01*
X100346491Y-143136697D01*
X100344375Y-143132775D01*
X100309336Y-143085335D01*
X100210394Y-142951378D01*
X100180436Y-142910818D01*
X99986858Y-142714175D01*
X99905765Y-142652287D01*
X99771048Y-142549475D01*
X99771044Y-142549472D01*
X99767503Y-142546770D01*
X99526750Y-142411941D01*
X99522597Y-142410334D01*
X99522592Y-142410332D01*
X99273556Y-142313987D01*
X99273550Y-142313985D01*
X99269401Y-142312380D01*
X99265069Y-142311376D01*
X99265066Y-142311375D01*
X99153915Y-142285612D01*
X99000591Y-142250074D01*
X98725684Y-142226264D01*
X98721249Y-142226508D01*
X98721245Y-142226508D01*
X98454607Y-142241182D01*
X98454600Y-142241183D01*
X98450164Y-142241427D01*
X98262325Y-142278790D01*
X98183893Y-142294391D01*
X98183891Y-142294392D01*
X98179530Y-142295259D01*
X97919181Y-142386687D01*
X97674311Y-142513887D01*
X97670696Y-142516470D01*
X97670690Y-142516474D01*
X97624510Y-142549475D01*
X97449807Y-142674320D01*
X97250148Y-142864786D01*
X97079317Y-143081483D01*
X96940724Y-143320089D01*
X96939056Y-143324206D01*
X96939053Y-143324213D01*
X96847510Y-143550222D01*
X96837133Y-143575842D01*
X96770612Y-143843640D01*
X96742487Y-144118140D01*
X94508500Y-144118140D01*
X94508500Y-139219694D01*
X140341931Y-139219694D01*
X140357989Y-139383468D01*
X140409932Y-139539615D01*
X140495179Y-139680373D01*
X140609491Y-139798747D01*
X140747189Y-139888854D01*
X140901428Y-139946215D01*
X140908409Y-139947146D01*
X140908411Y-139947147D01*
X141057561Y-139967048D01*
X141057565Y-139967048D01*
X141064542Y-139967979D01*
X141071553Y-139967341D01*
X141071557Y-139967341D01*
X141221403Y-139953704D01*
X141221404Y-139953704D01*
X141228424Y-139953065D01*
X141257062Y-139943760D01*
X141378230Y-139904390D01*
X141378233Y-139904389D01*
X141384929Y-139902213D01*
X141526279Y-139817951D01*
X141645449Y-139704468D01*
X141661458Y-139680373D01*
X141732614Y-139573275D01*
X141732615Y-139573273D01*
X141736515Y-139567403D01*
X141794951Y-139413568D01*
X141817853Y-139250610D01*
X141818141Y-139230000D01*
X141799798Y-139066466D01*
X141793998Y-139049809D01*
X141747998Y-138917717D01*
X141745680Y-138911060D01*
X141658476Y-138771505D01*
X141600499Y-138713122D01*
X141547486Y-138659737D01*
X141547482Y-138659734D01*
X141542522Y-138654739D01*
X141403580Y-138566563D01*
X141354447Y-138549068D01*
X141255189Y-138513723D01*
X141255187Y-138513722D01*
X141248555Y-138511361D01*
X141241569Y-138510528D01*
X141241565Y-138510527D01*
X141127071Y-138496875D01*
X141085153Y-138491877D01*
X141078150Y-138492613D01*
X141078149Y-138492613D01*
X141034935Y-138497155D01*
X140921495Y-138509078D01*
X140914827Y-138511348D01*
X140772382Y-138559840D01*
X140772379Y-138559841D01*
X140765715Y-138562110D01*
X140625555Y-138648337D01*
X140507982Y-138763473D01*
X140418838Y-138901797D01*
X140416427Y-138908420D01*
X140416426Y-138908423D01*
X140364966Y-139049809D01*
X140364965Y-139049814D01*
X140362556Y-139056432D01*
X140341931Y-139219694D01*
X94508500Y-139219694D01*
X94508500Y-135909694D01*
X132211931Y-135909694D01*
X132227989Y-136073468D01*
X132279932Y-136229615D01*
X132365179Y-136370373D01*
X132479491Y-136488747D01*
X132617189Y-136578854D01*
X132771428Y-136636215D01*
X132778409Y-136637146D01*
X132778411Y-136637147D01*
X132927561Y-136657048D01*
X132927565Y-136657048D01*
X132934542Y-136657979D01*
X132941553Y-136657341D01*
X132941557Y-136657341D01*
X133091403Y-136643704D01*
X133091404Y-136643704D01*
X133098424Y-136643065D01*
X133127062Y-136633760D01*
X133248230Y-136594390D01*
X133248233Y-136594389D01*
X133254929Y-136592213D01*
X133396279Y-136507951D01*
X133515449Y-136394468D01*
X133531458Y-136370373D01*
X133602614Y-136263275D01*
X133602615Y-136263273D01*
X133606515Y-136257403D01*
X133664951Y-136103568D01*
X133687853Y-135940610D01*
X133688141Y-135920000D01*
X133669798Y-135756466D01*
X133663998Y-135739809D01*
X133617998Y-135607717D01*
X133615680Y-135601060D01*
X133528476Y-135461505D01*
X133470499Y-135403122D01*
X133417486Y-135349737D01*
X133417482Y-135349734D01*
X133412522Y-135344739D01*
X133273580Y-135256563D01*
X133224447Y-135239068D01*
X133125189Y-135203723D01*
X133125187Y-135203722D01*
X133118555Y-135201361D01*
X133111569Y-135200528D01*
X133111565Y-135200527D01*
X132997071Y-135186875D01*
X132955153Y-135181877D01*
X132948150Y-135182613D01*
X132948149Y-135182613D01*
X132904935Y-135187155D01*
X132791495Y-135199078D01*
X132784827Y-135201348D01*
X132642382Y-135249840D01*
X132642379Y-135249841D01*
X132635715Y-135252110D01*
X132495555Y-135338337D01*
X132377982Y-135453473D01*
X132288838Y-135591797D01*
X132286427Y-135598420D01*
X132286426Y-135598423D01*
X132234966Y-135739809D01*
X132234965Y-135739814D01*
X132232556Y-135746432D01*
X132211931Y-135909694D01*
X94508500Y-135909694D01*
X94508500Y-131668640D01*
X96742487Y-131668640D01*
X96753320Y-131944363D01*
X96754120Y-131948743D01*
X96783064Y-132107223D01*
X96802895Y-132215810D01*
X96890223Y-132477563D01*
X96892215Y-132481550D01*
X96892216Y-132481552D01*
X97008929Y-132715132D01*
X97013560Y-132724401D01*
X97170447Y-132951397D01*
X97173463Y-132954659D01*
X97173468Y-132954666D01*
X97354737Y-133150761D01*
X97354742Y-133150765D01*
X97357753Y-133154023D01*
X97571740Y-133328237D01*
X97575558Y-133330536D01*
X97575560Y-133330537D01*
X97804323Y-133468263D01*
X97808140Y-133470561D01*
X97812235Y-133472295D01*
X97812237Y-133472296D01*
X98058134Y-133576420D01*
X98058141Y-133576422D01*
X98062235Y-133578156D01*
X98328955Y-133648876D01*
X98333379Y-133649400D01*
X98333381Y-133649400D01*
X98491891Y-133668160D01*
X98602979Y-133681308D01*
X98878838Y-133674807D01*
X98883233Y-133674075D01*
X98883238Y-133674075D01*
X99146628Y-133630235D01*
X99146632Y-133630234D01*
X99151030Y-133629502D01*
X99321760Y-133575507D01*
X99409877Y-133547640D01*
X99409879Y-133547639D01*
X99414123Y-133546297D01*
X99418134Y-133544371D01*
X99418139Y-133544369D01*
X99658848Y-133428782D01*
X99658849Y-133428781D01*
X99662867Y-133426852D01*
X99666573Y-133424376D01*
X99888592Y-133276028D01*
X99888596Y-133276025D01*
X99892300Y-133273550D01*
X100097843Y-133089450D01*
X100275396Y-132878225D01*
X100421416Y-132644090D01*
X100532989Y-132391717D01*
X100607889Y-132126140D01*
X100630453Y-131958148D01*
X100644195Y-131855842D01*
X100644196Y-131855834D01*
X100644622Y-131852660D01*
X100645176Y-131835038D01*
X100648376Y-131733222D01*
X100648376Y-131733217D01*
X100648477Y-131730000D01*
X100646512Y-131702241D01*
X102004309Y-131702241D01*
X102008186Y-131780120D01*
X102016142Y-131939914D01*
X102020173Y-132020888D01*
X102020814Y-132024619D01*
X102020815Y-132024627D01*
X102068785Y-132303794D01*
X102074202Y-132335321D01*
X102075290Y-132338960D01*
X102075291Y-132338963D01*
X102123452Y-132500000D01*
X102165615Y-132640985D01*
X102293088Y-132933454D01*
X102454774Y-133208491D01*
X102648330Y-133462111D01*
X102650974Y-133464825D01*
X102861353Y-133680785D01*
X102870954Y-133690641D01*
X102873908Y-133693021D01*
X102873911Y-133693023D01*
X103116468Y-133888392D01*
X103116473Y-133888396D01*
X103119421Y-133890770D01*
X103390130Y-134059600D01*
X103679162Y-134194685D01*
X103982329Y-134294068D01*
X104295240Y-134356310D01*
X104299012Y-134356597D01*
X104299020Y-134356598D01*
X104609585Y-134380222D01*
X104609590Y-134380222D01*
X104613362Y-134380509D01*
X104932088Y-134366314D01*
X105246799Y-134313932D01*
X105552939Y-134224121D01*
X105846071Y-134098181D01*
X106121950Y-133937938D01*
X106376580Y-133745712D01*
X106606273Y-133524287D01*
X106648601Y-133472296D01*
X106805309Y-133279809D01*
X106805310Y-133279808D01*
X106807700Y-133276872D01*
X106809796Y-133273550D01*
X106975922Y-133010257D01*
X106975925Y-133010251D01*
X106977945Y-133007050D01*
X107114542Y-132718729D01*
X107187516Y-132500000D01*
X117586496Y-132500000D01*
X117587186Y-132506565D01*
X117601212Y-132640011D01*
X117606458Y-132689928D01*
X117665473Y-132871556D01*
X117668776Y-132877278D01*
X117668777Y-132877279D01*
X117685676Y-132906548D01*
X117760960Y-133036944D01*
X117765378Y-133041851D01*
X117765379Y-133041852D01*
X117831864Y-133115691D01*
X117888747Y-133178866D01*
X117945824Y-133220335D01*
X118027683Y-133279809D01*
X118043248Y-133291118D01*
X118049276Y-133293802D01*
X118049278Y-133293803D01*
X118183053Y-133353363D01*
X118217712Y-133368794D01*
X118311113Y-133388647D01*
X118398056Y-133407128D01*
X118398061Y-133407128D01*
X118404513Y-133408500D01*
X118595487Y-133408500D01*
X118601939Y-133407128D01*
X118601944Y-133407128D01*
X118688887Y-133388647D01*
X118782288Y-133368794D01*
X118816947Y-133353363D01*
X118950722Y-133293803D01*
X118950724Y-133293802D01*
X118956752Y-133291118D01*
X118972318Y-133279809D01*
X119054176Y-133220335D01*
X119111253Y-133178866D01*
X119168136Y-133115691D01*
X119234621Y-133041852D01*
X119234622Y-133041851D01*
X119239040Y-133036944D01*
X119314324Y-132906548D01*
X119331223Y-132877279D01*
X119331224Y-132877278D01*
X119334527Y-132871556D01*
X119393542Y-132689928D01*
X119398789Y-132640011D01*
X119412814Y-132506565D01*
X119413504Y-132500000D01*
X119410701Y-132473334D01*
X119394232Y-132316635D01*
X119394232Y-132316633D01*
X119393542Y-132310072D01*
X119334527Y-132128444D01*
X119239040Y-131963056D01*
X119125054Y-131836461D01*
X119115675Y-131826045D01*
X119115674Y-131826044D01*
X119111253Y-131821134D01*
X118956752Y-131708882D01*
X118950724Y-131706198D01*
X118950722Y-131706197D01*
X118788319Y-131633891D01*
X118788318Y-131633891D01*
X118782288Y-131631206D01*
X118688888Y-131611353D01*
X118601944Y-131592872D01*
X118601939Y-131592872D01*
X118595487Y-131591500D01*
X118404513Y-131591500D01*
X118398061Y-131592872D01*
X118398056Y-131592872D01*
X118311112Y-131611353D01*
X118217712Y-131631206D01*
X118211682Y-131633891D01*
X118211681Y-131633891D01*
X118049278Y-131706197D01*
X118049276Y-131706198D01*
X118043248Y-131708882D01*
X117888747Y-131821134D01*
X117884326Y-131826044D01*
X117884325Y-131826045D01*
X117874947Y-131836461D01*
X117760960Y-131963056D01*
X117665473Y-132128444D01*
X117606458Y-132310072D01*
X117605768Y-132316633D01*
X117605768Y-132316635D01*
X117589299Y-132473334D01*
X117586496Y-132500000D01*
X107187516Y-132500000D01*
X107215511Y-132416087D01*
X107279390Y-132103506D01*
X107305255Y-131785515D01*
X107305623Y-131750362D01*
X107305813Y-131732221D01*
X107305813Y-131732214D01*
X107305836Y-131730000D01*
X107302406Y-131673092D01*
X107286865Y-131415315D01*
X107286865Y-131415311D01*
X107286637Y-131411537D01*
X107280928Y-131380278D01*
X107229998Y-131101409D01*
X107229997Y-131101405D01*
X107229318Y-131097687D01*
X107134709Y-130792996D01*
X107004180Y-130501878D01*
X106839623Y-130228550D01*
X106837296Y-130225566D01*
X106837291Y-130225559D01*
X106645752Y-129979959D01*
X106645746Y-129979952D01*
X106643421Y-129976971D01*
X106418417Y-129750785D01*
X106167868Y-129553268D01*
X105895405Y-129387282D01*
X105709881Y-129302929D01*
X105608427Y-129256800D01*
X105608419Y-129256797D01*
X105604975Y-129255231D01*
X105300783Y-129159028D01*
X105161957Y-129132922D01*
X104990962Y-129100767D01*
X104990957Y-129100766D01*
X104987238Y-129100067D01*
X104668880Y-129079200D01*
X104665100Y-129079408D01*
X104665099Y-129079408D01*
X104575303Y-129084350D01*
X104350320Y-129096732D01*
X104346593Y-129097393D01*
X104346589Y-129097393D01*
X104267556Y-129111400D01*
X104036175Y-129152407D01*
X104032559Y-129153509D01*
X104032551Y-129153511D01*
X103734617Y-129244314D01*
X103734610Y-129244317D01*
X103730993Y-129245419D01*
X103439195Y-129374421D01*
X103435941Y-129376357D01*
X103435935Y-129376360D01*
X103262864Y-129479327D01*
X103165009Y-129537545D01*
X103162008Y-129539860D01*
X103162004Y-129539863D01*
X103096363Y-129590505D01*
X102912406Y-129732427D01*
X102909708Y-129735083D01*
X102700927Y-129940610D01*
X102685045Y-129956244D01*
X102486219Y-130205755D01*
X102318809Y-130477345D01*
X102185239Y-130767081D01*
X102184080Y-130770681D01*
X102184077Y-130770688D01*
X102132680Y-130930293D01*
X102087445Y-131070764D01*
X102086726Y-131074480D01*
X102086724Y-131074488D01*
X102027561Y-131380278D01*
X102026842Y-131383996D01*
X102026575Y-131387772D01*
X102026574Y-131387777D01*
X102009148Y-131633891D01*
X102004309Y-131702241D01*
X100646512Y-131702241D01*
X100628988Y-131454753D01*
X100620498Y-131415315D01*
X100571848Y-131189344D01*
X100571847Y-131189342D01*
X100570912Y-131184997D01*
X100475405Y-130926116D01*
X100344375Y-130683275D01*
X100325692Y-130657979D01*
X100212956Y-130505347D01*
X100180436Y-130461318D01*
X99986858Y-130264675D01*
X99851600Y-130161450D01*
X99771048Y-130099975D01*
X99771044Y-130099972D01*
X99767503Y-130097270D01*
X99526750Y-129962441D01*
X99522597Y-129960834D01*
X99522592Y-129960832D01*
X99273556Y-129864487D01*
X99273550Y-129864485D01*
X99269401Y-129862880D01*
X99265069Y-129861876D01*
X99265066Y-129861875D01*
X99153915Y-129836112D01*
X99000591Y-129800574D01*
X98725684Y-129776764D01*
X98721249Y-129777008D01*
X98721245Y-129777008D01*
X98454607Y-129791682D01*
X98454600Y-129791683D01*
X98450164Y-129791927D01*
X98262325Y-129829290D01*
X98183893Y-129844891D01*
X98183891Y-129844892D01*
X98179530Y-129845759D01*
X97919181Y-129937187D01*
X97674311Y-130064387D01*
X97670696Y-130066970D01*
X97670690Y-130066974D01*
X97550322Y-130152991D01*
X97449807Y-130224820D01*
X97250148Y-130415286D01*
X97079317Y-130631983D01*
X96940724Y-130870589D01*
X96939056Y-130874706D01*
X96939053Y-130874713D01*
X96847232Y-131101409D01*
X96837133Y-131126342D01*
X96770612Y-131394140D01*
X96742487Y-131668640D01*
X94508500Y-131668640D01*
X94508500Y-128209694D01*
X106561931Y-128209694D01*
X106577989Y-128373468D01*
X106629932Y-128529615D01*
X106633581Y-128535640D01*
X106709272Y-128660619D01*
X106715179Y-128670373D01*
X106720070Y-128675438D01*
X106720071Y-128675439D01*
X106725499Y-128681060D01*
X106829491Y-128788747D01*
X106967189Y-128878854D01*
X106973793Y-128881310D01*
X107114831Y-128933762D01*
X107114834Y-128933763D01*
X107121428Y-128936215D01*
X107128396Y-128937145D01*
X107189651Y-128973030D01*
X107221783Y-129036340D01*
X107214586Y-129106971D01*
X107203822Y-129127655D01*
X107130330Y-129241692D01*
X107127919Y-129248315D01*
X107127918Y-129248318D01*
X107076458Y-129389704D01*
X107076457Y-129389709D01*
X107074048Y-129396327D01*
X107053423Y-129559589D01*
X107069481Y-129723363D01*
X107121424Y-129879510D01*
X107206671Y-130020268D01*
X107320983Y-130138642D01*
X107458681Y-130228749D01*
X107612920Y-130286110D01*
X107619901Y-130287041D01*
X107619903Y-130287042D01*
X107769053Y-130306943D01*
X107769057Y-130306943D01*
X107776034Y-130307874D01*
X107783045Y-130307236D01*
X107783049Y-130307236D01*
X107932895Y-130293599D01*
X107932896Y-130293599D01*
X107939916Y-130292960D01*
X107968554Y-130283655D01*
X108089722Y-130244285D01*
X108089725Y-130244284D01*
X108096421Y-130242108D01*
X108237771Y-130157846D01*
X108356941Y-130044363D01*
X108372950Y-130020268D01*
X108444106Y-129913170D01*
X108444107Y-129913168D01*
X108446415Y-129909694D01*
X119251931Y-129909694D01*
X119267989Y-130073468D01*
X119319932Y-130229615D01*
X119340317Y-130263275D01*
X119358683Y-130293599D01*
X119405179Y-130370373D01*
X119519491Y-130488747D01*
X119657189Y-130578854D01*
X119811428Y-130636215D01*
X119818409Y-130637146D01*
X119818411Y-130637147D01*
X119967561Y-130657048D01*
X119967565Y-130657048D01*
X119974542Y-130657979D01*
X119981553Y-130657341D01*
X119981557Y-130657341D01*
X120131403Y-130643704D01*
X120131404Y-130643704D01*
X120138424Y-130643065D01*
X120183290Y-130628487D01*
X120288230Y-130594390D01*
X120288233Y-130594389D01*
X120294929Y-130592213D01*
X120436279Y-130507951D01*
X120555449Y-130394468D01*
X120571458Y-130370373D01*
X120642614Y-130263275D01*
X120642615Y-130263273D01*
X120646515Y-130257403D01*
X120704951Y-130103568D01*
X120716658Y-130020268D01*
X120727302Y-129944534D01*
X120727303Y-129944527D01*
X120727853Y-129940610D01*
X120728141Y-129920000D01*
X120709798Y-129756466D01*
X120703998Y-129739809D01*
X120657998Y-129607717D01*
X120655680Y-129601060D01*
X120651537Y-129594429D01*
X120572209Y-129467479D01*
X120568476Y-129461505D01*
X120497174Y-129389704D01*
X120457486Y-129349737D01*
X120457482Y-129349734D01*
X120452522Y-129344739D01*
X120313580Y-129256563D01*
X120255173Y-129235765D01*
X120165189Y-129203723D01*
X120165187Y-129203722D01*
X120158555Y-129201361D01*
X120151569Y-129200528D01*
X120151565Y-129200527D01*
X120037071Y-129186875D01*
X119995153Y-129181877D01*
X119988150Y-129182613D01*
X119988149Y-129182613D01*
X119944935Y-129187155D01*
X119831495Y-129199078D01*
X119824827Y-129201348D01*
X119682382Y-129249840D01*
X119682379Y-129249841D01*
X119675715Y-129252110D01*
X119535555Y-129338337D01*
X119417982Y-129453473D01*
X119328838Y-129591797D01*
X119326427Y-129598420D01*
X119326426Y-129598423D01*
X119274966Y-129739809D01*
X119274965Y-129739814D01*
X119272556Y-129746432D01*
X119251931Y-129909694D01*
X108446415Y-129909694D01*
X108448007Y-129907298D01*
X108506443Y-129753463D01*
X108527862Y-129601060D01*
X108528794Y-129594429D01*
X108528795Y-129594422D01*
X108529345Y-129590505D01*
X108529633Y-129569895D01*
X108511290Y-129406361D01*
X108505490Y-129389704D01*
X108478504Y-129312213D01*
X108457172Y-129250955D01*
X108445050Y-129231555D01*
X108373701Y-129117374D01*
X108369968Y-129111400D01*
X108283706Y-129024534D01*
X108258978Y-128999632D01*
X108258974Y-128999629D01*
X108254014Y-128994634D01*
X108115072Y-128906458D01*
X108045257Y-128881598D01*
X107966684Y-128853619D01*
X107966681Y-128853618D01*
X107960047Y-128851256D01*
X107960209Y-128850801D01*
X107902362Y-128817989D01*
X107869349Y-128755134D01*
X107875559Y-128684410D01*
X107887939Y-128660619D01*
X107952614Y-128563275D01*
X107952615Y-128563273D01*
X107956515Y-128557403D01*
X108014951Y-128403568D01*
X108026917Y-128318423D01*
X108037302Y-128244534D01*
X108037303Y-128244527D01*
X108037853Y-128240610D01*
X108038141Y-128220000D01*
X108019798Y-128056466D01*
X108013998Y-128039809D01*
X107991973Y-127976563D01*
X107965680Y-127901060D01*
X107894392Y-127786975D01*
X107882209Y-127767479D01*
X107878476Y-127761505D01*
X107820499Y-127703122D01*
X107767486Y-127649737D01*
X107767482Y-127649734D01*
X107762522Y-127644739D01*
X107623580Y-127556563D01*
X107574447Y-127539068D01*
X107475189Y-127503723D01*
X107475187Y-127503722D01*
X107468555Y-127501361D01*
X107461569Y-127500528D01*
X107461565Y-127500527D01*
X107347071Y-127486875D01*
X107305153Y-127481877D01*
X107298150Y-127482613D01*
X107298149Y-127482613D01*
X107254935Y-127487155D01*
X107141495Y-127499078D01*
X107134827Y-127501348D01*
X106992382Y-127549840D01*
X106992379Y-127549841D01*
X106985715Y-127552110D01*
X106845555Y-127638337D01*
X106822963Y-127660461D01*
X106755561Y-127726466D01*
X106727982Y-127753473D01*
X106638838Y-127891797D01*
X106636427Y-127898420D01*
X106636426Y-127898423D01*
X106584966Y-128039809D01*
X106584965Y-128039814D01*
X106582556Y-128046432D01*
X106561931Y-128209694D01*
X94508500Y-128209694D01*
X94508500Y-126563115D01*
X107571931Y-126563115D01*
X107587989Y-126726889D01*
X107639932Y-126883036D01*
X107643581Y-126889061D01*
X107720766Y-127016507D01*
X107725179Y-127023794D01*
X107730070Y-127028859D01*
X107730071Y-127028860D01*
X107751910Y-127051475D01*
X107839491Y-127142168D01*
X107977189Y-127232275D01*
X108131428Y-127289636D01*
X108138409Y-127290567D01*
X108138411Y-127290568D01*
X108287561Y-127310469D01*
X108287565Y-127310469D01*
X108294542Y-127311400D01*
X108301553Y-127310762D01*
X108301557Y-127310762D01*
X108451403Y-127297125D01*
X108451404Y-127297125D01*
X108458424Y-127296486D01*
X108465127Y-127294308D01*
X108472026Y-127292892D01*
X108472311Y-127294278D01*
X108535498Y-127292469D01*
X108596298Y-127329128D01*
X108627627Y-127392838D01*
X108619539Y-127463372D01*
X108609388Y-127482583D01*
X108558338Y-127561797D01*
X108555927Y-127568420D01*
X108555926Y-127568423D01*
X108504466Y-127709809D01*
X108504465Y-127709814D01*
X108502056Y-127716432D01*
X108481431Y-127879694D01*
X108497489Y-128043468D01*
X108549432Y-128199615D01*
X108559393Y-128216062D01*
X108622983Y-128321060D01*
X108634679Y-128340373D01*
X108639570Y-128345438D01*
X108639571Y-128345439D01*
X108673094Y-128380153D01*
X108748991Y-128458747D01*
X108886689Y-128548854D01*
X109040928Y-128606215D01*
X109047909Y-128607146D01*
X109047911Y-128607147D01*
X109197061Y-128627048D01*
X109197065Y-128627048D01*
X109204042Y-128627979D01*
X109211053Y-128627341D01*
X109211057Y-128627341D01*
X109360903Y-128613704D01*
X109360904Y-128613704D01*
X109367924Y-128613065D01*
X109396562Y-128603760D01*
X109517730Y-128564390D01*
X109517733Y-128564389D01*
X109524429Y-128562213D01*
X109665779Y-128477951D01*
X109784949Y-128364468D01*
X109788963Y-128358427D01*
X109872114Y-128233275D01*
X109872115Y-128233273D01*
X109876015Y-128227403D01*
X109934451Y-128073568D01*
X109944790Y-128000000D01*
X117586496Y-128000000D01*
X117587186Y-128006565D01*
X117604729Y-128173473D01*
X117606458Y-128189928D01*
X117665473Y-128371556D01*
X117668776Y-128377278D01*
X117668777Y-128377279D01*
X117683955Y-128403568D01*
X117760960Y-128536944D01*
X117765378Y-128541851D01*
X117765379Y-128541852D01*
X117834939Y-128619106D01*
X117888747Y-128678866D01*
X118043248Y-128791118D01*
X118049276Y-128793802D01*
X118049278Y-128793803D01*
X118180394Y-128852179D01*
X118217712Y-128868794D01*
X118311113Y-128888647D01*
X118398056Y-128907128D01*
X118398061Y-128907128D01*
X118404513Y-128908500D01*
X118595487Y-128908500D01*
X118601939Y-128907128D01*
X118601944Y-128907128D01*
X118688887Y-128888647D01*
X118782288Y-128868794D01*
X118819606Y-128852179D01*
X118950722Y-128793803D01*
X118950724Y-128793802D01*
X118956752Y-128791118D01*
X119111253Y-128678866D01*
X119155528Y-128629694D01*
X134861931Y-128629694D01*
X134877989Y-128793468D01*
X134929932Y-128949615D01*
X134936048Y-128959714D01*
X135008563Y-129079448D01*
X135015179Y-129090373D01*
X135020070Y-129095438D01*
X135020071Y-129095439D01*
X135082585Y-129160174D01*
X135129491Y-129208747D01*
X135267189Y-129298854D01*
X135421428Y-129356215D01*
X135428409Y-129357146D01*
X135428411Y-129357147D01*
X135577561Y-129377048D01*
X135577565Y-129377048D01*
X135584542Y-129377979D01*
X135591553Y-129377341D01*
X135591557Y-129377341D01*
X135741403Y-129363704D01*
X135741404Y-129363704D01*
X135748424Y-129363065D01*
X135809359Y-129343266D01*
X135898230Y-129314390D01*
X135898233Y-129314389D01*
X135904929Y-129312213D01*
X136046279Y-129227951D01*
X136165449Y-129114468D01*
X136181458Y-129090373D01*
X136252614Y-128983275D01*
X136252615Y-128983273D01*
X136256515Y-128977403D01*
X136314951Y-128823568D01*
X136333741Y-128689869D01*
X136337302Y-128664534D01*
X136337303Y-128664527D01*
X136337853Y-128660610D01*
X136338141Y-128640000D01*
X136319798Y-128476466D01*
X136313998Y-128459809D01*
X136283930Y-128373468D01*
X136265680Y-128321060D01*
X136225117Y-128256145D01*
X136208273Y-128229190D01*
X156032435Y-128229190D01*
X156048493Y-128392964D01*
X156100436Y-128549111D01*
X156104085Y-128555136D01*
X156173876Y-128670373D01*
X156185683Y-128689869D01*
X156299995Y-128808243D01*
X156343125Y-128836466D01*
X156346213Y-128838487D01*
X156392261Y-128892525D01*
X156402226Y-128959712D01*
X156398438Y-128989694D01*
X156414496Y-129153468D01*
X156466439Y-129309615D01*
X156470088Y-129315640D01*
X156504760Y-129372889D01*
X156551686Y-129450373D01*
X156556577Y-129455438D01*
X156556578Y-129455439D01*
X156560399Y-129459396D01*
X156665998Y-129568747D01*
X156803696Y-129658854D01*
X156957935Y-129716215D01*
X156964916Y-129717146D01*
X156964918Y-129717147D01*
X157114068Y-129737048D01*
X157114072Y-129737048D01*
X157121049Y-129737979D01*
X157128060Y-129737341D01*
X157128064Y-129737341D01*
X157277910Y-129723704D01*
X157277911Y-129723704D01*
X157284931Y-129723065D01*
X157313569Y-129713760D01*
X157434737Y-129674390D01*
X157434740Y-129674389D01*
X157441436Y-129672213D01*
X157582786Y-129587951D01*
X157701956Y-129474468D01*
X157705857Y-129468597D01*
X157789121Y-129343275D01*
X157789122Y-129343273D01*
X157793022Y-129337403D01*
X157851458Y-129183568D01*
X157866126Y-129079200D01*
X157873809Y-129024534D01*
X157873810Y-129024527D01*
X157874360Y-129020610D01*
X157874648Y-129000000D01*
X157856305Y-128836466D01*
X157851814Y-128823568D01*
X157806856Y-128694468D01*
X157802187Y-128681060D01*
X157797748Y-128673955D01*
X157718716Y-128547479D01*
X157714983Y-128541505D01*
X157650396Y-128476466D01*
X157603993Y-128429737D01*
X157603989Y-128429734D01*
X157599029Y-128424739D01*
X157593080Y-128420964D01*
X157593078Y-128420962D01*
X157563100Y-128401937D01*
X157516301Y-128348548D01*
X157505840Y-128278017D01*
X157507805Y-128264032D01*
X157508357Y-128260106D01*
X157508645Y-128239496D01*
X157490302Y-128075962D01*
X157487821Y-128068836D01*
X157459886Y-127988620D01*
X157436184Y-127920556D01*
X157424002Y-127901060D01*
X157352713Y-127786975D01*
X157348980Y-127781001D01*
X157278283Y-127709809D01*
X157237990Y-127669233D01*
X157237986Y-127669230D01*
X157233026Y-127664235D01*
X157094084Y-127576059D01*
X157032691Y-127554198D01*
X156945693Y-127523219D01*
X156945691Y-127523218D01*
X156939059Y-127520857D01*
X156932073Y-127520024D01*
X156932069Y-127520023D01*
X156817575Y-127506371D01*
X156775657Y-127501373D01*
X156768654Y-127502109D01*
X156768653Y-127502109D01*
X156725439Y-127506651D01*
X156611999Y-127518574D01*
X156605331Y-127520844D01*
X156462886Y-127569336D01*
X156462883Y-127569337D01*
X156456219Y-127571606D01*
X156427224Y-127589444D01*
X156343478Y-127640965D01*
X156316059Y-127657833D01*
X156304418Y-127669233D01*
X156210193Y-127761505D01*
X156198486Y-127772969D01*
X156109342Y-127911293D01*
X156106931Y-127917916D01*
X156106930Y-127917919D01*
X156055470Y-128059305D01*
X156055469Y-128059310D01*
X156053060Y-128065928D01*
X156032435Y-128229190D01*
X136208273Y-128229190D01*
X136182209Y-128187479D01*
X136178476Y-128181505D01*
X136104844Y-128107357D01*
X136067486Y-128069737D01*
X136067482Y-128069734D01*
X136062522Y-128064739D01*
X135923580Y-127976563D01*
X135861530Y-127954468D01*
X135775189Y-127923723D01*
X135775187Y-127923722D01*
X135768555Y-127921361D01*
X135761569Y-127920528D01*
X135761565Y-127920527D01*
X135634413Y-127905366D01*
X135605153Y-127901877D01*
X135598150Y-127902613D01*
X135598149Y-127902613D01*
X135571957Y-127905366D01*
X135441495Y-127919078D01*
X135434827Y-127921348D01*
X135292382Y-127969840D01*
X135292379Y-127969841D01*
X135285715Y-127972110D01*
X135145555Y-128058337D01*
X135027982Y-128173473D01*
X134938838Y-128311797D01*
X134936427Y-128318420D01*
X134936426Y-128318423D01*
X134884966Y-128459809D01*
X134884965Y-128459814D01*
X134882556Y-128466432D01*
X134861931Y-128629694D01*
X119155528Y-128629694D01*
X119165061Y-128619106D01*
X119234621Y-128541852D01*
X119234622Y-128541851D01*
X119239040Y-128536944D01*
X119316045Y-128403568D01*
X119331223Y-128377279D01*
X119331224Y-128377278D01*
X119334527Y-128371556D01*
X119393542Y-128189928D01*
X119395272Y-128173473D01*
X119412814Y-128006565D01*
X119413504Y-128000000D01*
X119406889Y-127937058D01*
X119394232Y-127816635D01*
X119394232Y-127816633D01*
X119393542Y-127810072D01*
X119334527Y-127628444D01*
X119326018Y-127613705D01*
X119248895Y-127480125D01*
X119242873Y-127469694D01*
X119731931Y-127469694D01*
X119747989Y-127633468D01*
X119799932Y-127789615D01*
X119803581Y-127795640D01*
X119881152Y-127923723D01*
X119885179Y-127930373D01*
X119890070Y-127935438D01*
X119890071Y-127935439D01*
X119902778Y-127948597D01*
X119999491Y-128048747D01*
X120137189Y-128138854D01*
X120291428Y-128196215D01*
X120298409Y-128197146D01*
X120298411Y-128197147D01*
X120447561Y-128217048D01*
X120447565Y-128217048D01*
X120454542Y-128217979D01*
X120461553Y-128217341D01*
X120461557Y-128217341D01*
X120611403Y-128203704D01*
X120611404Y-128203704D01*
X120618424Y-128203065D01*
X120658855Y-128189928D01*
X120768230Y-128154390D01*
X120768233Y-128154389D01*
X120774929Y-128152213D01*
X120916279Y-128067951D01*
X121035449Y-127954468D01*
X121039350Y-127948597D01*
X121122614Y-127823275D01*
X121122615Y-127823273D01*
X121126515Y-127817403D01*
X121184951Y-127663568D01*
X121196719Y-127579836D01*
X121207302Y-127504534D01*
X121207303Y-127504527D01*
X121207853Y-127500610D01*
X121208141Y-127480000D01*
X121189798Y-127316466D01*
X121183998Y-127299809D01*
X121152333Y-127208882D01*
X121135680Y-127161060D01*
X121048476Y-127021505D01*
X120958436Y-126930834D01*
X120937486Y-126909737D01*
X120937482Y-126909734D01*
X120932522Y-126904739D01*
X120793580Y-126816563D01*
X120692582Y-126780599D01*
X120645189Y-126763723D01*
X120645187Y-126763722D01*
X120638555Y-126761361D01*
X120631569Y-126760528D01*
X120631565Y-126760527D01*
X120517071Y-126746875D01*
X120475153Y-126741877D01*
X120468150Y-126742613D01*
X120468149Y-126742613D01*
X120424935Y-126747155D01*
X120311495Y-126759078D01*
X120302127Y-126762267D01*
X120162382Y-126809840D01*
X120162379Y-126809841D01*
X120155715Y-126812110D01*
X120015555Y-126898337D01*
X119897982Y-127013473D01*
X119808838Y-127151797D01*
X119806427Y-127158420D01*
X119806426Y-127158423D01*
X119754966Y-127299809D01*
X119754965Y-127299814D01*
X119752556Y-127306432D01*
X119731931Y-127469694D01*
X119242873Y-127469694D01*
X119239040Y-127463056D01*
X119210632Y-127431505D01*
X119115675Y-127326045D01*
X119115674Y-127326044D01*
X119111253Y-127321134D01*
X118956752Y-127208882D01*
X118950724Y-127206198D01*
X118950722Y-127206197D01*
X118788319Y-127133891D01*
X118788318Y-127133891D01*
X118782288Y-127131206D01*
X118688888Y-127111353D01*
X118601944Y-127092872D01*
X118601939Y-127092872D01*
X118595487Y-127091500D01*
X118404513Y-127091500D01*
X118398061Y-127092872D01*
X118398056Y-127092872D01*
X118311112Y-127111353D01*
X118217712Y-127131206D01*
X118211682Y-127133891D01*
X118211681Y-127133891D01*
X118049278Y-127206197D01*
X118049276Y-127206198D01*
X118043248Y-127208882D01*
X117888747Y-127321134D01*
X117884326Y-127326044D01*
X117884325Y-127326045D01*
X117789369Y-127431505D01*
X117760960Y-127463056D01*
X117751105Y-127480125D01*
X117673983Y-127613705D01*
X117665473Y-127628444D01*
X117606458Y-127810072D01*
X117605768Y-127816633D01*
X117605768Y-127816635D01*
X117593111Y-127937058D01*
X117586496Y-128000000D01*
X109944790Y-128000000D01*
X109948191Y-127975801D01*
X109956802Y-127914534D01*
X109956803Y-127914527D01*
X109957353Y-127910610D01*
X109957641Y-127890000D01*
X109939298Y-127726466D01*
X109933498Y-127709809D01*
X109903170Y-127622721D01*
X109885180Y-127571060D01*
X109878482Y-127560340D01*
X109856886Y-127525781D01*
X109828357Y-127480124D01*
X109809221Y-127411756D01*
X109830086Y-127343895D01*
X109870693Y-127305126D01*
X109896677Y-127289636D01*
X109916279Y-127277951D01*
X110035449Y-127164468D01*
X110039350Y-127158597D01*
X110122614Y-127033275D01*
X110122615Y-127033273D01*
X110126515Y-127027403D01*
X110166784Y-126921394D01*
X110209671Y-126864817D01*
X110238347Y-126850058D01*
X110238126Y-126849571D01*
X110244543Y-126846660D01*
X110251240Y-126844484D01*
X110392590Y-126760222D01*
X110511760Y-126646739D01*
X110515661Y-126640868D01*
X110598925Y-126515546D01*
X110598926Y-126515544D01*
X110602826Y-126509674D01*
X110661262Y-126355839D01*
X110672797Y-126273760D01*
X110683613Y-126196805D01*
X110683614Y-126196798D01*
X110684164Y-126192881D01*
X110684452Y-126172271D01*
X110666109Y-126008737D01*
X110661112Y-125994386D01*
X110625382Y-125891785D01*
X110611991Y-125853331D01*
X110524787Y-125713776D01*
X110466810Y-125655393D01*
X110413797Y-125602008D01*
X110413793Y-125602005D01*
X110408833Y-125597010D01*
X110269891Y-125508834D01*
X110220758Y-125491339D01*
X110121500Y-125455994D01*
X110121498Y-125455993D01*
X110114866Y-125453632D01*
X110107880Y-125452799D01*
X110107876Y-125452798D01*
X109990931Y-125438854D01*
X109951464Y-125434148D01*
X109944461Y-125434884D01*
X109944460Y-125434884D01*
X109906689Y-125438854D01*
X109787806Y-125451349D01*
X109781138Y-125453619D01*
X109638693Y-125502111D01*
X109638690Y-125502112D01*
X109632026Y-125504381D01*
X109558371Y-125549694D01*
X109508118Y-125580610D01*
X109491866Y-125590608D01*
X109374293Y-125705744D01*
X109285149Y-125844068D01*
X109282738Y-125850691D01*
X109282737Y-125850694D01*
X109250136Y-125940266D01*
X109208042Y-125997438D01*
X109172341Y-126016450D01*
X109162382Y-126019840D01*
X109162379Y-126019841D01*
X109155715Y-126022110D01*
X109093807Y-126060196D01*
X109017666Y-126107038D01*
X108949165Y-126125696D01*
X108881451Y-126104357D01*
X108862238Y-126088504D01*
X108777486Y-126003158D01*
X108777482Y-126003155D01*
X108772522Y-125998160D01*
X108633580Y-125909984D01*
X108520211Y-125869615D01*
X108485189Y-125857144D01*
X108485187Y-125857143D01*
X108478555Y-125854782D01*
X108471569Y-125853949D01*
X108471565Y-125853948D01*
X108357071Y-125840296D01*
X108315153Y-125835298D01*
X108308150Y-125836034D01*
X108308149Y-125836034D01*
X108288103Y-125838141D01*
X108151495Y-125852499D01*
X108144827Y-125854769D01*
X108002382Y-125903261D01*
X108002379Y-125903262D01*
X107995715Y-125905531D01*
X107855555Y-125991758D01*
X107737982Y-126106894D01*
X107648838Y-126245218D01*
X107646427Y-126251841D01*
X107646426Y-126251844D01*
X107594966Y-126393230D01*
X107594965Y-126393235D01*
X107592556Y-126399853D01*
X107571931Y-126563115D01*
X94508500Y-126563115D01*
X94508500Y-124369631D01*
X99951868Y-124369631D01*
X99967926Y-124533405D01*
X100019869Y-124689552D01*
X100034179Y-124713181D01*
X100096809Y-124816593D01*
X100105116Y-124830310D01*
X100219428Y-124948684D01*
X100357126Y-125038791D01*
X100511365Y-125096152D01*
X100518346Y-125097083D01*
X100518348Y-125097084D01*
X100667498Y-125116985D01*
X100667502Y-125116985D01*
X100674479Y-125117916D01*
X100681490Y-125117278D01*
X100681494Y-125117278D01*
X100838361Y-125103002D01*
X100838606Y-125105695D01*
X100897077Y-125110575D01*
X100942284Y-125140574D01*
X100964593Y-125163676D01*
X100964598Y-125163680D01*
X100969491Y-125168747D01*
X101107189Y-125258854D01*
X101261428Y-125316215D01*
X101268409Y-125317146D01*
X101268411Y-125317147D01*
X101417561Y-125337048D01*
X101417565Y-125337048D01*
X101424542Y-125337979D01*
X101431553Y-125337341D01*
X101431557Y-125337341D01*
X101581403Y-125323704D01*
X101581404Y-125323704D01*
X101588424Y-125323065D01*
X101632921Y-125308607D01*
X101738230Y-125274390D01*
X101738233Y-125274389D01*
X101744929Y-125272213D01*
X101886279Y-125187951D01*
X102005449Y-125074468D01*
X102009350Y-125068597D01*
X102092614Y-124943275D01*
X102092615Y-124943273D01*
X102096515Y-124937403D01*
X102154951Y-124783568D01*
X102168164Y-124689552D01*
X102169188Y-124682265D01*
X110629360Y-124682265D01*
X110645418Y-124846039D01*
X110697361Y-125002186D01*
X110701010Y-125008211D01*
X110767140Y-125117403D01*
X110782608Y-125142944D01*
X110787499Y-125148009D01*
X110787500Y-125148010D01*
X110811251Y-125172605D01*
X110896920Y-125261318D01*
X110961681Y-125303697D01*
X111007729Y-125357733D01*
X111017694Y-125424919D01*
X111001931Y-125549694D01*
X111017989Y-125713468D01*
X111069932Y-125869615D01*
X111155179Y-126010373D01*
X111160070Y-126015438D01*
X111160071Y-126015439D01*
X111172778Y-126028597D01*
X111269491Y-126128747D01*
X111407189Y-126218854D01*
X111561428Y-126276215D01*
X111568409Y-126277146D01*
X111568411Y-126277147D01*
X111717561Y-126297048D01*
X111717565Y-126297048D01*
X111724542Y-126297979D01*
X111731553Y-126297341D01*
X111731557Y-126297341D01*
X111881403Y-126283704D01*
X111881404Y-126283704D01*
X111888424Y-126283065D01*
X111984512Y-126251844D01*
X112038230Y-126234390D01*
X112038233Y-126234389D01*
X112044929Y-126232213D01*
X112186279Y-126147951D01*
X112305449Y-126034468D01*
X112309350Y-126028597D01*
X112392614Y-125903275D01*
X112392615Y-125903273D01*
X112396515Y-125897403D01*
X112454951Y-125743568D01*
X112474846Y-125602008D01*
X112477302Y-125584534D01*
X112477303Y-125584527D01*
X112477853Y-125580610D01*
X112478141Y-125560000D01*
X112459798Y-125396466D01*
X112439107Y-125337048D01*
X112417287Y-125274390D01*
X112405680Y-125241060D01*
X112398349Y-125229327D01*
X112322209Y-125107479D01*
X112318476Y-125101505D01*
X112219848Y-125002186D01*
X112207486Y-124989737D01*
X112207482Y-124989734D01*
X112202522Y-124984739D01*
X112146765Y-124949354D01*
X112099967Y-124895964D01*
X112089506Y-124825433D01*
X112090749Y-124816593D01*
X112094984Y-124786459D01*
X112104731Y-124717105D01*
X112104732Y-124717098D01*
X112105282Y-124713181D01*
X112105570Y-124692571D01*
X112098517Y-124629694D01*
X122001931Y-124629694D01*
X122017989Y-124793468D01*
X122069932Y-124949615D01*
X122073581Y-124955640D01*
X122150671Y-125082929D01*
X122155179Y-125090373D01*
X122160070Y-125095438D01*
X122160071Y-125095439D01*
X122178447Y-125114468D01*
X122269491Y-125208747D01*
X122407189Y-125298854D01*
X122561428Y-125356215D01*
X122568409Y-125357146D01*
X122568411Y-125357147D01*
X122717561Y-125377048D01*
X122717565Y-125377048D01*
X122724542Y-125377979D01*
X122731553Y-125377341D01*
X122731557Y-125377341D01*
X122881403Y-125363704D01*
X122881404Y-125363704D01*
X122888424Y-125363065D01*
X122932490Y-125348747D01*
X123038230Y-125314390D01*
X123038233Y-125314389D01*
X123044929Y-125312213D01*
X123186279Y-125227951D01*
X123305449Y-125114468D01*
X123309350Y-125108597D01*
X123392614Y-124983275D01*
X123392615Y-124983273D01*
X123396515Y-124977403D01*
X123454951Y-124823568D01*
X123462523Y-124769694D01*
X139871931Y-124769694D01*
X139887989Y-124933468D01*
X139939932Y-125089615D01*
X139956761Y-125117403D01*
X140012082Y-125208747D01*
X140025179Y-125230373D01*
X140030070Y-125235438D01*
X140030071Y-125235439D01*
X140087583Y-125294994D01*
X140139491Y-125348747D01*
X140277189Y-125438854D01*
X140431428Y-125496215D01*
X140438409Y-125497146D01*
X140438411Y-125497147D01*
X140587561Y-125517048D01*
X140587565Y-125517048D01*
X140594542Y-125517979D01*
X140601553Y-125517341D01*
X140601557Y-125517341D01*
X140751403Y-125503704D01*
X140751404Y-125503704D01*
X140758424Y-125503065D01*
X140807719Y-125487048D01*
X140908230Y-125454390D01*
X140908233Y-125454389D01*
X140914929Y-125452213D01*
X141056279Y-125367951D01*
X141175449Y-125254468D01*
X141179350Y-125248597D01*
X141262614Y-125123275D01*
X141262615Y-125123273D01*
X141266515Y-125117403D01*
X141324951Y-124963568D01*
X141340529Y-124852724D01*
X141347302Y-124804534D01*
X141347303Y-124804527D01*
X141347853Y-124800610D01*
X141348141Y-124780000D01*
X141343620Y-124739694D01*
X146701931Y-124739694D01*
X146717989Y-124903468D01*
X146769932Y-125059615D01*
X146773581Y-125065640D01*
X146849839Y-125191555D01*
X146855179Y-125200373D01*
X146860070Y-125205438D01*
X146860071Y-125205439D01*
X146885291Y-125231555D01*
X146969491Y-125318747D01*
X147107189Y-125408854D01*
X147261428Y-125466215D01*
X147268409Y-125467146D01*
X147268411Y-125467147D01*
X147417561Y-125487048D01*
X147417565Y-125487048D01*
X147424542Y-125487979D01*
X147431553Y-125487341D01*
X147431557Y-125487341D01*
X147581403Y-125473704D01*
X147581404Y-125473704D01*
X147588424Y-125473065D01*
X147640963Y-125455994D01*
X147738230Y-125424390D01*
X147738233Y-125424389D01*
X147744929Y-125422213D01*
X147886279Y-125337951D01*
X148005449Y-125224468D01*
X148018092Y-125205439D01*
X148092614Y-125093275D01*
X148092615Y-125093273D01*
X148096515Y-125087403D01*
X148154951Y-124933568D01*
X148170148Y-124825433D01*
X148177302Y-124774534D01*
X148177303Y-124774527D01*
X148177853Y-124770610D01*
X148178141Y-124750000D01*
X148159798Y-124586466D01*
X148153998Y-124569809D01*
X148107998Y-124437717D01*
X148105680Y-124431060D01*
X148101241Y-124423955D01*
X148022209Y-124297479D01*
X148018476Y-124291505D01*
X147953470Y-124226044D01*
X147907486Y-124179737D01*
X147907482Y-124179734D01*
X147902522Y-124174739D01*
X147763580Y-124086563D01*
X147684377Y-124058360D01*
X147615189Y-124033723D01*
X147615187Y-124033722D01*
X147608555Y-124031361D01*
X147601569Y-124030528D01*
X147601565Y-124030527D01*
X147487071Y-124016875D01*
X147445153Y-124011877D01*
X147438150Y-124012613D01*
X147438149Y-124012613D01*
X147394935Y-124017155D01*
X147281495Y-124029078D01*
X147274827Y-124031348D01*
X147132382Y-124079840D01*
X147132379Y-124079841D01*
X147125715Y-124082110D01*
X146985555Y-124168337D01*
X146949887Y-124203266D01*
X146876549Y-124275084D01*
X146867982Y-124283473D01*
X146778838Y-124421797D01*
X146776427Y-124428420D01*
X146776426Y-124428423D01*
X146724966Y-124569809D01*
X146724965Y-124569814D01*
X146722556Y-124576432D01*
X146701931Y-124739694D01*
X141343620Y-124739694D01*
X141329798Y-124616466D01*
X141323998Y-124599809D01*
X141281045Y-124476466D01*
X141275680Y-124461060D01*
X141264686Y-124443465D01*
X141192209Y-124327479D01*
X141188476Y-124321505D01*
X141130499Y-124263122D01*
X141077486Y-124209737D01*
X141077482Y-124209734D01*
X141072522Y-124204739D01*
X140933580Y-124116563D01*
X140884447Y-124099068D01*
X140785189Y-124063723D01*
X140785187Y-124063722D01*
X140778555Y-124061361D01*
X140771569Y-124060528D01*
X140771565Y-124060527D01*
X140657071Y-124046875D01*
X140615153Y-124041877D01*
X140608150Y-124042613D01*
X140608149Y-124042613D01*
X140577761Y-124045807D01*
X140451495Y-124059078D01*
X140444827Y-124061348D01*
X140302382Y-124109840D01*
X140302379Y-124109841D01*
X140295715Y-124112110D01*
X140155555Y-124198337D01*
X140121213Y-124231967D01*
X140054315Y-124297479D01*
X140037982Y-124313473D01*
X139948838Y-124451797D01*
X139946427Y-124458420D01*
X139946426Y-124458423D01*
X139894966Y-124599809D01*
X139894965Y-124599814D01*
X139892556Y-124606432D01*
X139871931Y-124769694D01*
X123462523Y-124769694D01*
X123470465Y-124713181D01*
X123477302Y-124664534D01*
X123477303Y-124664527D01*
X123477853Y-124660610D01*
X123478141Y-124640000D01*
X123459798Y-124476466D01*
X123453998Y-124459809D01*
X123407998Y-124327717D01*
X123405680Y-124321060D01*
X123397861Y-124308546D01*
X123322209Y-124187479D01*
X123318476Y-124181505D01*
X123248370Y-124110908D01*
X123207486Y-124069737D01*
X123207482Y-124069734D01*
X123202522Y-124064739D01*
X123063580Y-123976563D01*
X122978328Y-123946206D01*
X122915189Y-123923723D01*
X122915187Y-123923722D01*
X122908555Y-123921361D01*
X122901569Y-123920528D01*
X122901565Y-123920527D01*
X122787071Y-123906875D01*
X122745153Y-123901877D01*
X122738150Y-123902613D01*
X122738149Y-123902613D01*
X122694935Y-123907155D01*
X122581495Y-123919078D01*
X122574827Y-123921348D01*
X122432382Y-123969840D01*
X122432379Y-123969841D01*
X122425715Y-123972110D01*
X122285555Y-124058337D01*
X122273914Y-124069737D01*
X122173227Y-124168337D01*
X122167982Y-124173473D01*
X122078838Y-124311797D01*
X122076427Y-124318420D01*
X122076426Y-124318423D01*
X122024966Y-124459809D01*
X122024965Y-124459814D01*
X122022556Y-124466432D01*
X122001931Y-124629694D01*
X112098517Y-124629694D01*
X112087227Y-124529037D01*
X112081427Y-124512380D01*
X112052344Y-124428866D01*
X112033109Y-124373631D01*
X111945905Y-124234076D01*
X111876957Y-124164645D01*
X111834915Y-124122308D01*
X111834911Y-124122305D01*
X111829951Y-124117310D01*
X111691009Y-124029134D01*
X111543373Y-123976563D01*
X111542618Y-123976294D01*
X111542616Y-123976293D01*
X111535984Y-123973932D01*
X111528998Y-123973099D01*
X111528994Y-123973098D01*
X111414500Y-123959446D01*
X111372582Y-123954448D01*
X111365579Y-123955184D01*
X111365578Y-123955184D01*
X111322364Y-123959726D01*
X111208924Y-123971649D01*
X111202256Y-123973919D01*
X111059811Y-124022411D01*
X111059808Y-124022412D01*
X111053144Y-124024681D01*
X110912984Y-124110908D01*
X110875639Y-124147479D01*
X110822266Y-124199746D01*
X110795411Y-124226044D01*
X110706267Y-124364368D01*
X110703856Y-124370991D01*
X110703855Y-124370994D01*
X110652395Y-124512380D01*
X110652394Y-124512385D01*
X110649985Y-124519003D01*
X110629360Y-124682265D01*
X102169188Y-124682265D01*
X102177302Y-124624534D01*
X102177303Y-124624527D01*
X102177853Y-124620610D01*
X102178141Y-124600000D01*
X102159798Y-124436466D01*
X102157152Y-124428866D01*
X102116384Y-124311797D01*
X102105680Y-124281060D01*
X102018476Y-124141505D01*
X101940781Y-124063266D01*
X101907486Y-124029737D01*
X101907482Y-124029734D01*
X101902522Y-124024739D01*
X101763580Y-123936563D01*
X101698559Y-123913410D01*
X101615189Y-123883723D01*
X101615187Y-123883722D01*
X101608555Y-123881361D01*
X101601569Y-123880528D01*
X101601565Y-123880527D01*
X101487071Y-123866875D01*
X101445153Y-123861877D01*
X101291593Y-123878017D01*
X101221756Y-123865245D01*
X101189018Y-123841491D01*
X101157423Y-123809674D01*
X101157419Y-123809671D01*
X101152459Y-123804676D01*
X101066304Y-123750000D01*
X162586496Y-123750000D01*
X162587186Y-123756565D01*
X162604507Y-123921361D01*
X162606458Y-123939928D01*
X162665473Y-124121556D01*
X162668776Y-124127278D01*
X162668777Y-124127279D01*
X162680440Y-124147479D01*
X162760960Y-124286944D01*
X162765378Y-124291851D01*
X162765379Y-124291852D01*
X162836639Y-124370994D01*
X162888747Y-124428866D01*
X162933058Y-124461060D01*
X163017462Y-124522383D01*
X163043248Y-124541118D01*
X163049276Y-124543802D01*
X163049278Y-124543803D01*
X163211681Y-124616109D01*
X163217712Y-124618794D01*
X163298951Y-124636062D01*
X163398056Y-124657128D01*
X163398061Y-124657128D01*
X163404513Y-124658500D01*
X163595487Y-124658500D01*
X163601939Y-124657128D01*
X163601944Y-124657128D01*
X163701049Y-124636062D01*
X163782288Y-124618794D01*
X163788319Y-124616109D01*
X163950722Y-124543803D01*
X163950724Y-124543802D01*
X163956752Y-124541118D01*
X163982539Y-124522383D01*
X164066942Y-124461060D01*
X164111253Y-124428866D01*
X164163361Y-124370994D01*
X164234621Y-124291852D01*
X164234622Y-124291851D01*
X164239040Y-124286944D01*
X164319560Y-124147479D01*
X164331223Y-124127279D01*
X164331224Y-124127278D01*
X164334527Y-124121556D01*
X164393542Y-123939928D01*
X164395494Y-123921361D01*
X164412814Y-123756565D01*
X164413504Y-123750000D01*
X164409903Y-123715738D01*
X164394232Y-123566635D01*
X164394232Y-123566633D01*
X164393542Y-123560072D01*
X164334527Y-123378444D01*
X164239040Y-123213056D01*
X164111253Y-123071134D01*
X163956752Y-122958882D01*
X163950724Y-122956198D01*
X163950722Y-122956197D01*
X163788319Y-122883891D01*
X163788318Y-122883891D01*
X163782288Y-122881206D01*
X163688888Y-122861353D01*
X163601944Y-122842872D01*
X163601939Y-122842872D01*
X163595487Y-122841500D01*
X163404513Y-122841500D01*
X163398061Y-122842872D01*
X163398056Y-122842872D01*
X163311112Y-122861353D01*
X163217712Y-122881206D01*
X163211682Y-122883891D01*
X163211681Y-122883891D01*
X163049278Y-122956197D01*
X163049276Y-122956198D01*
X163043248Y-122958882D01*
X162888747Y-123071134D01*
X162760960Y-123213056D01*
X162665473Y-123378444D01*
X162606458Y-123560072D01*
X162605768Y-123566633D01*
X162605768Y-123566635D01*
X162590097Y-123715738D01*
X162586496Y-123750000D01*
X101066304Y-123750000D01*
X101013517Y-123716500D01*
X100964384Y-123699005D01*
X100865126Y-123663660D01*
X100865124Y-123663659D01*
X100858492Y-123661298D01*
X100851506Y-123660465D01*
X100851502Y-123660464D01*
X100737008Y-123646812D01*
X100695090Y-123641814D01*
X100688087Y-123642550D01*
X100688086Y-123642550D01*
X100644872Y-123647092D01*
X100531432Y-123659015D01*
X100524764Y-123661285D01*
X100382319Y-123709777D01*
X100382316Y-123709778D01*
X100375652Y-123712047D01*
X100235492Y-123798274D01*
X100223851Y-123809674D01*
X100128945Y-123902613D01*
X100117919Y-123913410D01*
X100028775Y-124051734D01*
X100026364Y-124058357D01*
X100026363Y-124058360D01*
X99974903Y-124199746D01*
X99974902Y-124199751D01*
X99972493Y-124206369D01*
X99951868Y-124369631D01*
X94508500Y-124369631D01*
X94508500Y-122334694D01*
X134136931Y-122334694D01*
X134152989Y-122498468D01*
X134204932Y-122654615D01*
X134290179Y-122795373D01*
X134404491Y-122913747D01*
X134542189Y-123003854D01*
X134696428Y-123061215D01*
X134703409Y-123062146D01*
X134703411Y-123062147D01*
X134852561Y-123082048D01*
X134852565Y-123082048D01*
X134859542Y-123082979D01*
X134866553Y-123082341D01*
X134866557Y-123082341D01*
X135016403Y-123068704D01*
X135016404Y-123068704D01*
X135023424Y-123068065D01*
X135052062Y-123058760D01*
X135173230Y-123019390D01*
X135173233Y-123019389D01*
X135179929Y-123017213D01*
X135321279Y-122932951D01*
X135440449Y-122819468D01*
X135456458Y-122795373D01*
X135527614Y-122688275D01*
X135527615Y-122688273D01*
X135531515Y-122682403D01*
X135589951Y-122528568D01*
X135606709Y-122409327D01*
X135612302Y-122369534D01*
X135612303Y-122369527D01*
X135612853Y-122365610D01*
X135613141Y-122345000D01*
X135594798Y-122181466D01*
X135592183Y-122173955D01*
X135570709Y-122112292D01*
X135540680Y-122026060D01*
X135495986Y-121954534D01*
X135474215Y-121919694D01*
X140431931Y-121919694D01*
X140447989Y-122083468D01*
X140499932Y-122239615D01*
X140503581Y-122245640D01*
X140578615Y-122369534D01*
X140585179Y-122380373D01*
X140699491Y-122498747D01*
X140837189Y-122588854D01*
X140991428Y-122646215D01*
X140998409Y-122647146D01*
X140998411Y-122647147D01*
X141147561Y-122667048D01*
X141147565Y-122667048D01*
X141154542Y-122667979D01*
X141161553Y-122667341D01*
X141161557Y-122667341D01*
X141311403Y-122653704D01*
X141311404Y-122653704D01*
X141318424Y-122653065D01*
X141347062Y-122643760D01*
X141468230Y-122604390D01*
X141468233Y-122604389D01*
X141474929Y-122602213D01*
X141616279Y-122517951D01*
X141735449Y-122404468D01*
X141751458Y-122380373D01*
X141822614Y-122273275D01*
X141822615Y-122273273D01*
X141826515Y-122267403D01*
X141884951Y-122113568D01*
X141907853Y-121950610D01*
X141908141Y-121930000D01*
X141889798Y-121766466D01*
X141883998Y-121749809D01*
X141858681Y-121677110D01*
X141835680Y-121611060D01*
X141766282Y-121500000D01*
X145336496Y-121500000D01*
X145337186Y-121506565D01*
X145349776Y-121626348D01*
X145356458Y-121689928D01*
X145415473Y-121871556D01*
X145418776Y-121877278D01*
X145418777Y-121877279D01*
X145449216Y-121930000D01*
X145510960Y-122036944D01*
X145515378Y-122041851D01*
X145515379Y-122041852D01*
X145626090Y-122164809D01*
X145638747Y-122178866D01*
X145793248Y-122291118D01*
X145799276Y-122293802D01*
X145799278Y-122293803D01*
X145961681Y-122366109D01*
X145967712Y-122368794D01*
X146061113Y-122388647D01*
X146148056Y-122407128D01*
X146148061Y-122407128D01*
X146154513Y-122408500D01*
X146345487Y-122408500D01*
X146351939Y-122407128D01*
X146351944Y-122407128D01*
X146438887Y-122388647D01*
X146532288Y-122368794D01*
X146538319Y-122366109D01*
X146700722Y-122293803D01*
X146700724Y-122293802D01*
X146706752Y-122291118D01*
X146861253Y-122178866D01*
X146873910Y-122164809D01*
X146984621Y-122041852D01*
X146984622Y-122041851D01*
X146989040Y-122036944D01*
X147050784Y-121930000D01*
X147081223Y-121877279D01*
X147081224Y-121877278D01*
X147084527Y-121871556D01*
X147143542Y-121689928D01*
X147150225Y-121626348D01*
X147162814Y-121506565D01*
X147163504Y-121500000D01*
X147143542Y-121310072D01*
X147084527Y-121128444D01*
X146989040Y-120963056D01*
X146976253Y-120948854D01*
X146865675Y-120826045D01*
X146865674Y-120826044D01*
X146861253Y-120821134D01*
X146757068Y-120745439D01*
X146712094Y-120712763D01*
X146712093Y-120712762D01*
X146706752Y-120708882D01*
X146700724Y-120706198D01*
X146700722Y-120706197D01*
X146538319Y-120633891D01*
X146538318Y-120633891D01*
X146532288Y-120631206D01*
X146438887Y-120611353D01*
X146351944Y-120592872D01*
X146351939Y-120592872D01*
X146345487Y-120591500D01*
X146154513Y-120591500D01*
X146148061Y-120592872D01*
X146148056Y-120592872D01*
X146061113Y-120611353D01*
X145967712Y-120631206D01*
X145961682Y-120633891D01*
X145961681Y-120633891D01*
X145799278Y-120706197D01*
X145799276Y-120706198D01*
X145793248Y-120708882D01*
X145787907Y-120712762D01*
X145787906Y-120712763D01*
X145742932Y-120745439D01*
X145638747Y-120821134D01*
X145634326Y-120826044D01*
X145634325Y-120826045D01*
X145523748Y-120948854D01*
X145510960Y-120963056D01*
X145415473Y-121128444D01*
X145356458Y-121310072D01*
X145336496Y-121500000D01*
X141766282Y-121500000D01*
X141748476Y-121471505D01*
X141690499Y-121413122D01*
X141637486Y-121359737D01*
X141637482Y-121359734D01*
X141632522Y-121354739D01*
X141493580Y-121266563D01*
X141444447Y-121249068D01*
X141345189Y-121213723D01*
X141345187Y-121213722D01*
X141338555Y-121211361D01*
X141331569Y-121210528D01*
X141331565Y-121210527D01*
X141217071Y-121196875D01*
X141175153Y-121191877D01*
X141168150Y-121192613D01*
X141168149Y-121192613D01*
X141124935Y-121197155D01*
X141011495Y-121209078D01*
X141004827Y-121211348D01*
X140862382Y-121259840D01*
X140862379Y-121259841D01*
X140855715Y-121262110D01*
X140715555Y-121348337D01*
X140597982Y-121463473D01*
X140508838Y-121601797D01*
X140506427Y-121608420D01*
X140506426Y-121608423D01*
X140454966Y-121749809D01*
X140454965Y-121749814D01*
X140452556Y-121756432D01*
X140431931Y-121919694D01*
X135474215Y-121919694D01*
X135457209Y-121892479D01*
X135453476Y-121886505D01*
X135395499Y-121828122D01*
X135342486Y-121774737D01*
X135342482Y-121774734D01*
X135337522Y-121769739D01*
X135198580Y-121681563D01*
X135149447Y-121664068D01*
X135050189Y-121628723D01*
X135050187Y-121628722D01*
X135043555Y-121626361D01*
X135036569Y-121625528D01*
X135036565Y-121625527D01*
X134922071Y-121611875D01*
X134880153Y-121606877D01*
X134873150Y-121607613D01*
X134873149Y-121607613D01*
X134840354Y-121611060D01*
X134716495Y-121624078D01*
X134709827Y-121626348D01*
X134567382Y-121674840D01*
X134567379Y-121674841D01*
X134560715Y-121677110D01*
X134420555Y-121763337D01*
X134302982Y-121878473D01*
X134213838Y-122016797D01*
X134211427Y-122023420D01*
X134211426Y-122023423D01*
X134159966Y-122164809D01*
X134159965Y-122164814D01*
X134157556Y-122171432D01*
X134136931Y-122334694D01*
X94508500Y-122334694D01*
X94508500Y-120279694D01*
X157261931Y-120279694D01*
X157277989Y-120443468D01*
X157329932Y-120599615D01*
X157333581Y-120605640D01*
X157398458Y-120712763D01*
X157415179Y-120740373D01*
X157529491Y-120858747D01*
X157667189Y-120948854D01*
X157821428Y-121006215D01*
X157828409Y-121007146D01*
X157828411Y-121007147D01*
X157977561Y-121027048D01*
X157977565Y-121027048D01*
X157984542Y-121027979D01*
X157991553Y-121027341D01*
X157991557Y-121027341D01*
X158141403Y-121013704D01*
X158141404Y-121013704D01*
X158148424Y-121013065D01*
X158177062Y-121003760D01*
X158298230Y-120964390D01*
X158298233Y-120964389D01*
X158304929Y-120962213D01*
X158446279Y-120877951D01*
X158565449Y-120764468D01*
X158581458Y-120740373D01*
X158652614Y-120633275D01*
X158652615Y-120633273D01*
X158656515Y-120627403D01*
X158714951Y-120473568D01*
X158737853Y-120310610D01*
X158738141Y-120290000D01*
X158719798Y-120126466D01*
X158713998Y-120109809D01*
X158667998Y-119977717D01*
X158665680Y-119971060D01*
X158578476Y-119831505D01*
X158520499Y-119773122D01*
X158467486Y-119719737D01*
X158467482Y-119719734D01*
X158462522Y-119714739D01*
X158323580Y-119626563D01*
X158238519Y-119596274D01*
X158175189Y-119573723D01*
X158175187Y-119573722D01*
X158168555Y-119571361D01*
X158161569Y-119570528D01*
X158161565Y-119570527D01*
X158047071Y-119556875D01*
X158005153Y-119551877D01*
X157998150Y-119552613D01*
X157998149Y-119552613D01*
X157954935Y-119557155D01*
X157841495Y-119569078D01*
X157834827Y-119571348D01*
X157692382Y-119619840D01*
X157692379Y-119619841D01*
X157685715Y-119622110D01*
X157545555Y-119708337D01*
X157483066Y-119769531D01*
X157437089Y-119814555D01*
X157427982Y-119823473D01*
X157338838Y-119961797D01*
X157336427Y-119968420D01*
X157336426Y-119968423D01*
X157284966Y-120109809D01*
X157284965Y-120109814D01*
X157282556Y-120116432D01*
X157261931Y-120279694D01*
X94508500Y-120279694D01*
X94508500Y-117168640D01*
X96742487Y-117168640D01*
X96742662Y-117173092D01*
X96750894Y-117382605D01*
X96753320Y-117444363D01*
X96754120Y-117448743D01*
X96799960Y-117699737D01*
X96802895Y-117715810D01*
X96890223Y-117977563D01*
X96892215Y-117981550D01*
X96892216Y-117981552D01*
X97008929Y-118215132D01*
X97013560Y-118224401D01*
X97170447Y-118451397D01*
X97173463Y-118454659D01*
X97173468Y-118454666D01*
X97354737Y-118650761D01*
X97354742Y-118650765D01*
X97357753Y-118654023D01*
X97571740Y-118828237D01*
X97575558Y-118830536D01*
X97575560Y-118830537D01*
X97804323Y-118968263D01*
X97808140Y-118970561D01*
X97812235Y-118972295D01*
X97812237Y-118972296D01*
X98058134Y-119076420D01*
X98058141Y-119076422D01*
X98062235Y-119078156D01*
X98328955Y-119148876D01*
X98333379Y-119149400D01*
X98333381Y-119149400D01*
X98491891Y-119168160D01*
X98602979Y-119181308D01*
X98878838Y-119174807D01*
X98883233Y-119174075D01*
X98883238Y-119174075D01*
X99146628Y-119130235D01*
X99146632Y-119130234D01*
X99151030Y-119129502D01*
X99321760Y-119075507D01*
X99409877Y-119047640D01*
X99409879Y-119047639D01*
X99414123Y-119046297D01*
X99418134Y-119044371D01*
X99418139Y-119044369D01*
X99658848Y-118928782D01*
X99658849Y-118928781D01*
X99662867Y-118926852D01*
X99794726Y-118838747D01*
X99888592Y-118776028D01*
X99888596Y-118776025D01*
X99892300Y-118773550D01*
X100077799Y-118607403D01*
X100094525Y-118592422D01*
X100094526Y-118592421D01*
X100097843Y-118589450D01*
X100275396Y-118378225D01*
X100421416Y-118144090D01*
X100532989Y-117891717D01*
X100607889Y-117626140D01*
X100618473Y-117547341D01*
X100644195Y-117355842D01*
X100644196Y-117355834D01*
X100644622Y-117352660D01*
X100645004Y-117340507D01*
X100648376Y-117233222D01*
X100648376Y-117233217D01*
X100648477Y-117230000D01*
X100646512Y-117202241D01*
X102004309Y-117202241D01*
X102008343Y-117283275D01*
X102018248Y-117482213D01*
X102020173Y-117520888D01*
X102020814Y-117524619D01*
X102020815Y-117524627D01*
X102070110Y-117811505D01*
X102074202Y-117835321D01*
X102075290Y-117838960D01*
X102075291Y-117838963D01*
X102157385Y-118113465D01*
X102165615Y-118140985D01*
X102293088Y-118433454D01*
X102295011Y-118436726D01*
X102295013Y-118436729D01*
X102366075Y-118557608D01*
X102454774Y-118708491D01*
X102648330Y-118962111D01*
X102650974Y-118964825D01*
X102861353Y-119180785D01*
X102870954Y-119190641D01*
X102873908Y-119193021D01*
X102873911Y-119193023D01*
X103116468Y-119388392D01*
X103116473Y-119388396D01*
X103119421Y-119390770D01*
X103390130Y-119559600D01*
X103679162Y-119694685D01*
X103982329Y-119794068D01*
X104295240Y-119856310D01*
X104299012Y-119856597D01*
X104299020Y-119856598D01*
X104609585Y-119880222D01*
X104609590Y-119880222D01*
X104613362Y-119880509D01*
X104932088Y-119866314D01*
X105246799Y-119813932D01*
X105552939Y-119724121D01*
X105846071Y-119598181D01*
X106121950Y-119437938D01*
X106376580Y-119245712D01*
X106606273Y-119024287D01*
X106620070Y-119007341D01*
X106805309Y-118779809D01*
X106805310Y-118779808D01*
X106807700Y-118776872D01*
X106809796Y-118773550D01*
X106975922Y-118510257D01*
X106975925Y-118510251D01*
X106977945Y-118507050D01*
X107114542Y-118218729D01*
X107164721Y-118068324D01*
X113324958Y-118068324D01*
X113341016Y-118232098D01*
X113392959Y-118388245D01*
X113396608Y-118394270D01*
X113464911Y-118507050D01*
X113478206Y-118529003D01*
X113592518Y-118647377D01*
X113730216Y-118737484D01*
X113884455Y-118794845D01*
X113891436Y-118795776D01*
X113891438Y-118795777D01*
X114040588Y-118815678D01*
X114040592Y-118815678D01*
X114047569Y-118816609D01*
X114054580Y-118815971D01*
X114054584Y-118815971D01*
X114119441Y-118810068D01*
X114172780Y-118805214D01*
X114242433Y-118818959D01*
X114264515Y-118833611D01*
X114264596Y-118833678D01*
X114269491Y-118838747D01*
X114407189Y-118928854D01*
X114561428Y-118986215D01*
X114568409Y-118987146D01*
X114568411Y-118987147D01*
X114717561Y-119007048D01*
X114717565Y-119007048D01*
X114724542Y-119007979D01*
X114731553Y-119007341D01*
X114731557Y-119007341D01*
X114881403Y-118993704D01*
X114881404Y-118993704D01*
X114888424Y-118993065D01*
X114964756Y-118968263D01*
X115038230Y-118944390D01*
X115038233Y-118944389D01*
X115044929Y-118942213D01*
X115186279Y-118857951D01*
X115305449Y-118744468D01*
X115331525Y-118705221D01*
X115392614Y-118613275D01*
X115392615Y-118613273D01*
X115396515Y-118607403D01*
X115454951Y-118453568D01*
X115465540Y-118378225D01*
X115477302Y-118294534D01*
X115477303Y-118294527D01*
X115477853Y-118290610D01*
X115478141Y-118270000D01*
X115459798Y-118106466D01*
X115405680Y-117951060D01*
X115383827Y-117916087D01*
X115322209Y-117817479D01*
X115318476Y-117811505D01*
X115251937Y-117744500D01*
X115207486Y-117699737D01*
X115207482Y-117699734D01*
X115202522Y-117694739D01*
X115063580Y-117606563D01*
X115014447Y-117589068D01*
X114915189Y-117553723D01*
X114915187Y-117553722D01*
X114908555Y-117551361D01*
X114901569Y-117550528D01*
X114901565Y-117550527D01*
X114787071Y-117536875D01*
X114745153Y-117531877D01*
X114738150Y-117532613D01*
X114738149Y-117532613D01*
X114631975Y-117543772D01*
X114562137Y-117531000D01*
X114536380Y-117512311D01*
X114536002Y-117512781D01*
X114530513Y-117508367D01*
X114525549Y-117503369D01*
X114515462Y-117496967D01*
X114432571Y-117444363D01*
X114386607Y-117415193D01*
X114324552Y-117393096D01*
X114238216Y-117362353D01*
X114238214Y-117362352D01*
X114231582Y-117359991D01*
X114224596Y-117359158D01*
X114224592Y-117359157D01*
X114110098Y-117345505D01*
X114068180Y-117340507D01*
X114061177Y-117341243D01*
X114061176Y-117341243D01*
X114017962Y-117345785D01*
X113904522Y-117357708D01*
X113897854Y-117359978D01*
X113755409Y-117408470D01*
X113755406Y-117408471D01*
X113748742Y-117410740D01*
X113694089Y-117444363D01*
X113629026Y-117484390D01*
X113608582Y-117496967D01*
X113491009Y-117612103D01*
X113401865Y-117750427D01*
X113399454Y-117757050D01*
X113399453Y-117757053D01*
X113347993Y-117898439D01*
X113347992Y-117898444D01*
X113345583Y-117905062D01*
X113324958Y-118068324D01*
X107164721Y-118068324D01*
X107215511Y-117916087D01*
X107279390Y-117603506D01*
X107305255Y-117285515D01*
X107305623Y-117250362D01*
X107305813Y-117232221D01*
X107305813Y-117232214D01*
X107305836Y-117230000D01*
X107302406Y-117173092D01*
X107286865Y-116915315D01*
X107286865Y-116915311D01*
X107286637Y-116911537D01*
X107266211Y-116799694D01*
X147191931Y-116799694D01*
X147207989Y-116963468D01*
X147259932Y-117119615D01*
X147263581Y-117125640D01*
X147328736Y-117233222D01*
X147345179Y-117260373D01*
X147350070Y-117265438D01*
X147350071Y-117265439D01*
X147373139Y-117289327D01*
X147459491Y-117378747D01*
X147597189Y-117468854D01*
X147751428Y-117526215D01*
X147758409Y-117527146D01*
X147758411Y-117527147D01*
X147907561Y-117547048D01*
X147907565Y-117547048D01*
X147914542Y-117547979D01*
X147921553Y-117547341D01*
X147921557Y-117547341D01*
X148071403Y-117533704D01*
X148071404Y-117533704D01*
X148078424Y-117533065D01*
X148127565Y-117517098D01*
X148228230Y-117484390D01*
X148228233Y-117484389D01*
X148234929Y-117482213D01*
X148376279Y-117397951D01*
X148495449Y-117284468D01*
X148511458Y-117260373D01*
X148582614Y-117153275D01*
X148582615Y-117153273D01*
X148586515Y-117147403D01*
X148644951Y-116993568D01*
X148657003Y-116907813D01*
X148667302Y-116834534D01*
X148667303Y-116834527D01*
X148667853Y-116830610D01*
X148668141Y-116810000D01*
X148649798Y-116646466D01*
X148643998Y-116629809D01*
X148597998Y-116497717D01*
X148595680Y-116491060D01*
X148557709Y-116430293D01*
X148512209Y-116357479D01*
X148508476Y-116351505D01*
X148421219Y-116263637D01*
X148397486Y-116239737D01*
X148397482Y-116239734D01*
X148392522Y-116234739D01*
X148253580Y-116146563D01*
X148163447Y-116114468D01*
X148105189Y-116093723D01*
X148105187Y-116093722D01*
X148098555Y-116091361D01*
X148091569Y-116090528D01*
X148091565Y-116090527D01*
X147977071Y-116076875D01*
X147935153Y-116071877D01*
X147928150Y-116072613D01*
X147928149Y-116072613D01*
X147884935Y-116077155D01*
X147771495Y-116089078D01*
X147764827Y-116091348D01*
X147622382Y-116139840D01*
X147622379Y-116139841D01*
X147615715Y-116142110D01*
X147475555Y-116228337D01*
X147423969Y-116278854D01*
X147365394Y-116336215D01*
X147357982Y-116343473D01*
X147268838Y-116481797D01*
X147266427Y-116488420D01*
X147266426Y-116488423D01*
X147214966Y-116629809D01*
X147214965Y-116629814D01*
X147212556Y-116636432D01*
X147191931Y-116799694D01*
X107266211Y-116799694D01*
X107264934Y-116792700D01*
X107229998Y-116601409D01*
X107229997Y-116601405D01*
X107229318Y-116597687D01*
X107134709Y-116292996D01*
X107004180Y-116001878D01*
X106839623Y-115728550D01*
X106837296Y-115725566D01*
X106837291Y-115725559D01*
X106746930Y-115609694D01*
X129501931Y-115609694D01*
X129517989Y-115773468D01*
X129569932Y-115929615D01*
X129586761Y-115957403D01*
X129613697Y-116001878D01*
X129655179Y-116070373D01*
X129769491Y-116188747D01*
X129907189Y-116278854D01*
X130061428Y-116336215D01*
X130068409Y-116337146D01*
X130068411Y-116337147D01*
X130217561Y-116357048D01*
X130217565Y-116357048D01*
X130224542Y-116357979D01*
X130231553Y-116357341D01*
X130231557Y-116357341D01*
X130381403Y-116343704D01*
X130381404Y-116343704D01*
X130388424Y-116343065D01*
X130483376Y-116312213D01*
X130538230Y-116294390D01*
X130538233Y-116294389D01*
X130544929Y-116292213D01*
X130686279Y-116207951D01*
X130805449Y-116094468D01*
X130809519Y-116088342D01*
X130892614Y-115963275D01*
X130892615Y-115963273D01*
X130896515Y-115957403D01*
X130954951Y-115803568D01*
X130965494Y-115728550D01*
X130977302Y-115644534D01*
X130977303Y-115644527D01*
X130977853Y-115640610D01*
X130978006Y-115629694D01*
X131231931Y-115629694D01*
X131247989Y-115793468D01*
X131299932Y-115949615D01*
X131316726Y-115977345D01*
X131376135Y-116075439D01*
X131385179Y-116090373D01*
X131390070Y-116095438D01*
X131390071Y-116095439D01*
X131435141Y-116142110D01*
X131499491Y-116208747D01*
X131637189Y-116298854D01*
X131791428Y-116356215D01*
X131798409Y-116357146D01*
X131798411Y-116357147D01*
X131947561Y-116377048D01*
X131947565Y-116377048D01*
X131954542Y-116377979D01*
X131961553Y-116377341D01*
X131961557Y-116377341D01*
X132111403Y-116363704D01*
X132111404Y-116363704D01*
X132118424Y-116363065D01*
X132154002Y-116351505D01*
X132268230Y-116314390D01*
X132268233Y-116314389D01*
X132274929Y-116312213D01*
X132416279Y-116227951D01*
X132535449Y-116114468D01*
X132549232Y-116093723D01*
X132622614Y-115983275D01*
X132622615Y-115983273D01*
X132626515Y-115977403D01*
X132684951Y-115823568D01*
X132699193Y-115722232D01*
X132707302Y-115664534D01*
X132707303Y-115664527D01*
X132707853Y-115660610D01*
X132708141Y-115640000D01*
X132689798Y-115476466D01*
X132683998Y-115459809D01*
X132637998Y-115327717D01*
X132635680Y-115321060D01*
X132627343Y-115307717D01*
X132552209Y-115187479D01*
X132548476Y-115181505D01*
X132490499Y-115123122D01*
X132437486Y-115069737D01*
X132437482Y-115069734D01*
X132432522Y-115064739D01*
X132293580Y-114976563D01*
X132218533Y-114949840D01*
X132145189Y-114923723D01*
X132145187Y-114923722D01*
X132138555Y-114921361D01*
X132131569Y-114920528D01*
X132131565Y-114920527D01*
X132017071Y-114906875D01*
X131975153Y-114901877D01*
X131968150Y-114902613D01*
X131968149Y-114902613D01*
X131924935Y-114907155D01*
X131811495Y-114919078D01*
X131804827Y-114921348D01*
X131662382Y-114969840D01*
X131662379Y-114969841D01*
X131655715Y-114972110D01*
X131558858Y-115031697D01*
X131523795Y-115053268D01*
X131515555Y-115058337D01*
X131503914Y-115069737D01*
X131423437Y-115148546D01*
X131397982Y-115173473D01*
X131308838Y-115311797D01*
X131306427Y-115318420D01*
X131306426Y-115318423D01*
X131254966Y-115459809D01*
X131254965Y-115459814D01*
X131252556Y-115466432D01*
X131231931Y-115629694D01*
X130978006Y-115629694D01*
X130978141Y-115620000D01*
X130959798Y-115456466D01*
X130953998Y-115439809D01*
X130921246Y-115345759D01*
X130905680Y-115301060D01*
X130818476Y-115161505D01*
X130760499Y-115103122D01*
X130707486Y-115049737D01*
X130707482Y-115049734D01*
X130702522Y-115044739D01*
X130563580Y-114956563D01*
X130471355Y-114923723D01*
X130415189Y-114903723D01*
X130415187Y-114903722D01*
X130408555Y-114901361D01*
X130401569Y-114900528D01*
X130401565Y-114900527D01*
X130287071Y-114886875D01*
X130245153Y-114881877D01*
X130238150Y-114882613D01*
X130238149Y-114882613D01*
X130208627Y-114885716D01*
X130081495Y-114899078D01*
X130074827Y-114901348D01*
X129932382Y-114949840D01*
X129932379Y-114949841D01*
X129925715Y-114952110D01*
X129785555Y-115038337D01*
X129667982Y-115153473D01*
X129578838Y-115291797D01*
X129576427Y-115298420D01*
X129576426Y-115298423D01*
X129524966Y-115439809D01*
X129524965Y-115439814D01*
X129522556Y-115446432D01*
X129501931Y-115609694D01*
X106746930Y-115609694D01*
X106645752Y-115479959D01*
X106645746Y-115479952D01*
X106643421Y-115476971D01*
X106418417Y-115250785D01*
X106167868Y-115053268D01*
X105895405Y-114887282D01*
X105779387Y-114834532D01*
X105608427Y-114756800D01*
X105608419Y-114756797D01*
X105604975Y-114755231D01*
X105300783Y-114659028D01*
X105161957Y-114632922D01*
X104990962Y-114600767D01*
X104990957Y-114600766D01*
X104987238Y-114600067D01*
X104668880Y-114579200D01*
X104665100Y-114579408D01*
X104665099Y-114579408D01*
X104615532Y-114582136D01*
X104350320Y-114596732D01*
X104346593Y-114597393D01*
X104346589Y-114597393D01*
X104235338Y-114617110D01*
X104036175Y-114652407D01*
X104032559Y-114653509D01*
X104032551Y-114653511D01*
X103734617Y-114744314D01*
X103734610Y-114744317D01*
X103730993Y-114745419D01*
X103439195Y-114874421D01*
X103435941Y-114876357D01*
X103435935Y-114876360D01*
X103169883Y-115034645D01*
X103165009Y-115037545D01*
X103162008Y-115039860D01*
X103162004Y-115039863D01*
X103123282Y-115069737D01*
X102912406Y-115232427D01*
X102909708Y-115235083D01*
X102687910Y-115453424D01*
X102685045Y-115456244D01*
X102486219Y-115705755D01*
X102318809Y-115977345D01*
X102185239Y-116267081D01*
X102184080Y-116270681D01*
X102184077Y-116270688D01*
X102115036Y-116485084D01*
X102087445Y-116570764D01*
X102086726Y-116574480D01*
X102086724Y-116574488D01*
X102027561Y-116880278D01*
X102026842Y-116883996D01*
X102026575Y-116887772D01*
X102026574Y-116887777D01*
X102007776Y-117153275D01*
X102004309Y-117202241D01*
X100646512Y-117202241D01*
X100628988Y-116954753D01*
X100620498Y-116915315D01*
X100571848Y-116689344D01*
X100571847Y-116689342D01*
X100570912Y-116684997D01*
X100475405Y-116426116D01*
X100344375Y-116183275D01*
X100317260Y-116146563D01*
X100210394Y-116001878D01*
X100180436Y-115961318D01*
X99986858Y-115764675D01*
X99845309Y-115656649D01*
X99771048Y-115599975D01*
X99771044Y-115599972D01*
X99767503Y-115597270D01*
X99526750Y-115462441D01*
X99522597Y-115460834D01*
X99522592Y-115460832D01*
X99273556Y-115364487D01*
X99273550Y-115364485D01*
X99269401Y-115362880D01*
X99265069Y-115361876D01*
X99265066Y-115361875D01*
X99117695Y-115327717D01*
X99000591Y-115300574D01*
X98725684Y-115276764D01*
X98721249Y-115277008D01*
X98721245Y-115277008D01*
X98454607Y-115291682D01*
X98454600Y-115291683D01*
X98450164Y-115291927D01*
X98270234Y-115327717D01*
X98183893Y-115344891D01*
X98183891Y-115344892D01*
X98179530Y-115345759D01*
X97919181Y-115437187D01*
X97674311Y-115564387D01*
X97670696Y-115566970D01*
X97670690Y-115566974D01*
X97562156Y-115644534D01*
X97449807Y-115724820D01*
X97250148Y-115915286D01*
X97247392Y-115918782D01*
X97247391Y-115918783D01*
X97123893Y-116075439D01*
X97079317Y-116131983D01*
X96940724Y-116370589D01*
X96939056Y-116374706D01*
X96939053Y-116374713D01*
X96847232Y-116601409D01*
X96837133Y-116626342D01*
X96770612Y-116894140D01*
X96742487Y-117168640D01*
X94508500Y-117168640D01*
X94508500Y-113269694D01*
X113921931Y-113269694D01*
X113937989Y-113433468D01*
X113989932Y-113589615D01*
X114075179Y-113730373D01*
X114080070Y-113735438D01*
X114080071Y-113735439D01*
X114124840Y-113781799D01*
X114189491Y-113848747D01*
X114327189Y-113938854D01*
X114481428Y-113996215D01*
X114488409Y-113997146D01*
X114488411Y-113997147D01*
X114637561Y-114017048D01*
X114637565Y-114017048D01*
X114644542Y-114017979D01*
X114651553Y-114017341D01*
X114651557Y-114017341D01*
X114801403Y-114003704D01*
X114801404Y-114003704D01*
X114808424Y-114003065D01*
X114878287Y-113980365D01*
X114958230Y-113954390D01*
X114958233Y-113954389D01*
X114964929Y-113952213D01*
X115106279Y-113867951D01*
X115225449Y-113754468D01*
X115229350Y-113748597D01*
X115237818Y-113735851D01*
X165236719Y-113735851D01*
X165253268Y-113932934D01*
X165307783Y-114123050D01*
X165398187Y-114298956D01*
X165521035Y-114453953D01*
X165671650Y-114582136D01*
X165844294Y-114678624D01*
X166032392Y-114739740D01*
X166228777Y-114763158D01*
X166234912Y-114762686D01*
X166234914Y-114762686D01*
X166419830Y-114748457D01*
X166419834Y-114748456D01*
X166425972Y-114747984D01*
X166616463Y-114694798D01*
X166621967Y-114692018D01*
X166621969Y-114692017D01*
X166787495Y-114608404D01*
X166787497Y-114608403D01*
X166792996Y-114605625D01*
X166948847Y-114483861D01*
X167078078Y-114334145D01*
X167175769Y-114162179D01*
X167238197Y-113974513D01*
X167262985Y-113778295D01*
X167263380Y-113750000D01*
X167244080Y-113553167D01*
X167186916Y-113363831D01*
X167094066Y-113189204D01*
X167021157Y-113099809D01*
X166972960Y-113040713D01*
X166972957Y-113040710D01*
X166969065Y-113035938D01*
X166962724Y-113030692D01*
X166821425Y-112913799D01*
X166821421Y-112913797D01*
X166816675Y-112909870D01*
X166642701Y-112815802D01*
X166453768Y-112757318D01*
X166447643Y-112756674D01*
X166447642Y-112756674D01*
X166263204Y-112737289D01*
X166263202Y-112737289D01*
X166257075Y-112736645D01*
X166174576Y-112744153D01*
X166066251Y-112754011D01*
X166066248Y-112754012D01*
X166060112Y-112754570D01*
X166054206Y-112756308D01*
X166054202Y-112756309D01*
X165949076Y-112787249D01*
X165870381Y-112810410D01*
X165864923Y-112813263D01*
X165864919Y-112813265D01*
X165853192Y-112819396D01*
X165695110Y-112902040D01*
X165540975Y-113025968D01*
X165413846Y-113177474D01*
X165410879Y-113182872D01*
X165410875Y-113182877D01*
X165357482Y-113280000D01*
X165318567Y-113350787D01*
X165316706Y-113356654D01*
X165316705Y-113356656D01*
X165280701Y-113470154D01*
X165258765Y-113539306D01*
X165236719Y-113735851D01*
X115237818Y-113735851D01*
X115312614Y-113623275D01*
X115312615Y-113623273D01*
X115316515Y-113617403D01*
X115374951Y-113463568D01*
X115388968Y-113363831D01*
X115397302Y-113304534D01*
X115397303Y-113304527D01*
X115397853Y-113300610D01*
X115398141Y-113280000D01*
X115379798Y-113116466D01*
X115373998Y-113099809D01*
X115327998Y-112967717D01*
X115325680Y-112961060D01*
X115238476Y-112821505D01*
X115173733Y-112756309D01*
X115127486Y-112709737D01*
X115127482Y-112709734D01*
X115122522Y-112704739D01*
X114983580Y-112616563D01*
X114934447Y-112599068D01*
X114835189Y-112563723D01*
X114835187Y-112563722D01*
X114828555Y-112561361D01*
X114821569Y-112560528D01*
X114821565Y-112560527D01*
X114707071Y-112546875D01*
X114665153Y-112541877D01*
X114658150Y-112542613D01*
X114658149Y-112542613D01*
X114614935Y-112547155D01*
X114501495Y-112559078D01*
X114494827Y-112561348D01*
X114352382Y-112609840D01*
X114352379Y-112609841D01*
X114345715Y-112612110D01*
X114205555Y-112698337D01*
X114087982Y-112813473D01*
X113998838Y-112951797D01*
X113996427Y-112958420D01*
X113996426Y-112958423D01*
X113944966Y-113099809D01*
X113944965Y-113099814D01*
X113942556Y-113106432D01*
X113921931Y-113269694D01*
X94508500Y-113269694D01*
X94508500Y-109449694D01*
X143611931Y-109449694D01*
X143627989Y-109613468D01*
X143679932Y-109769615D01*
X143683581Y-109775640D01*
X143760671Y-109902929D01*
X143765179Y-109910373D01*
X143770070Y-109915438D01*
X143770071Y-109915439D01*
X143788447Y-109934468D01*
X143879491Y-110028747D01*
X144017189Y-110118854D01*
X144171428Y-110176215D01*
X144178409Y-110177146D01*
X144178411Y-110177147D01*
X144327561Y-110197048D01*
X144327565Y-110197048D01*
X144334542Y-110197979D01*
X144341553Y-110197341D01*
X144341557Y-110197341D01*
X144491403Y-110183704D01*
X144491404Y-110183704D01*
X144498424Y-110183065D01*
X144542490Y-110168747D01*
X144648230Y-110134390D01*
X144648233Y-110134389D01*
X144654929Y-110132213D01*
X144796279Y-110047951D01*
X144915449Y-109934468D01*
X144919350Y-109928597D01*
X145002614Y-109803275D01*
X145002615Y-109803273D01*
X145006515Y-109797403D01*
X145064951Y-109643568D01*
X145072522Y-109589694D01*
X147111931Y-109589694D01*
X147127989Y-109753468D01*
X147179932Y-109909615D01*
X147183581Y-109915640D01*
X147252082Y-110028747D01*
X147265179Y-110050373D01*
X147379491Y-110168747D01*
X147517189Y-110258854D01*
X147671428Y-110316215D01*
X147678409Y-110317146D01*
X147678411Y-110317147D01*
X147827561Y-110337048D01*
X147827565Y-110337048D01*
X147834542Y-110337979D01*
X147841553Y-110337341D01*
X147841557Y-110337341D01*
X147991403Y-110323704D01*
X147991404Y-110323704D01*
X147998424Y-110323065D01*
X148027062Y-110313760D01*
X148148230Y-110274390D01*
X148148233Y-110274389D01*
X148154929Y-110272213D01*
X148296279Y-110187951D01*
X148415449Y-110074468D01*
X148428092Y-110055439D01*
X148502614Y-109943275D01*
X148502615Y-109943273D01*
X148506515Y-109937403D01*
X148564951Y-109783568D01*
X148583701Y-109650154D01*
X148587302Y-109624534D01*
X148587303Y-109624527D01*
X148587853Y-109620610D01*
X148588141Y-109600000D01*
X148569798Y-109436466D01*
X148563998Y-109419809D01*
X148521045Y-109296466D01*
X148515680Y-109281060D01*
X148428476Y-109141505D01*
X148370499Y-109083122D01*
X148317486Y-109029737D01*
X148317482Y-109029734D01*
X148312522Y-109024739D01*
X148173580Y-108936563D01*
X148028042Y-108884739D01*
X148025189Y-108883723D01*
X148025187Y-108883722D01*
X148018555Y-108881361D01*
X148011569Y-108880528D01*
X148011565Y-108880527D01*
X147897071Y-108866875D01*
X147855153Y-108861877D01*
X147848150Y-108862613D01*
X147848149Y-108862613D01*
X147804935Y-108867155D01*
X147691495Y-108879078D01*
X147684827Y-108881348D01*
X147542382Y-108929840D01*
X147542379Y-108929841D01*
X147535715Y-108932110D01*
X147395555Y-109018337D01*
X147277982Y-109133473D01*
X147188838Y-109271797D01*
X147186427Y-109278420D01*
X147186426Y-109278423D01*
X147134966Y-109419809D01*
X147134965Y-109419814D01*
X147132556Y-109426432D01*
X147111931Y-109589694D01*
X145072522Y-109589694D01*
X145087853Y-109480610D01*
X145088141Y-109460000D01*
X145069798Y-109296466D01*
X145063998Y-109279809D01*
X145017998Y-109147717D01*
X145015680Y-109141060D01*
X145007861Y-109128546D01*
X144932209Y-109007479D01*
X144928476Y-109001505D01*
X144859564Y-108932110D01*
X144817486Y-108889737D01*
X144817482Y-108889734D01*
X144812522Y-108884739D01*
X144673580Y-108796563D01*
X144624447Y-108779068D01*
X144525189Y-108743723D01*
X144525187Y-108743722D01*
X144518555Y-108741361D01*
X144511569Y-108740528D01*
X144511565Y-108740527D01*
X144397071Y-108726875D01*
X144355153Y-108721877D01*
X144348150Y-108722613D01*
X144348149Y-108722613D01*
X144304935Y-108727155D01*
X144191495Y-108739078D01*
X144184827Y-108741348D01*
X144042382Y-108789840D01*
X144042379Y-108789841D01*
X144035715Y-108792110D01*
X143895555Y-108878337D01*
X143777982Y-108993473D01*
X143688838Y-109131797D01*
X143686427Y-109138420D01*
X143686426Y-109138423D01*
X143634966Y-109279809D01*
X143634965Y-109279814D01*
X143632556Y-109286432D01*
X143611931Y-109449694D01*
X94508500Y-109449694D01*
X94508500Y-108168201D01*
X94528502Y-108100080D01*
X94582158Y-108053587D01*
X94652432Y-108043483D01*
X94681598Y-108051335D01*
X94840668Y-108115442D01*
X94840671Y-108115443D01*
X94846237Y-108117686D01*
X95053837Y-108158228D01*
X95059399Y-108158500D01*
X95915346Y-108158500D01*
X96073066Y-108143452D01*
X96276034Y-108083908D01*
X96281362Y-108081164D01*
X96458749Y-107989804D01*
X96458752Y-107989802D01*
X96464080Y-107987058D01*
X96630420Y-107856396D01*
X96634352Y-107851865D01*
X96634355Y-107851862D01*
X96765121Y-107701167D01*
X96769052Y-107696637D01*
X96772052Y-107691451D01*
X96772055Y-107691447D01*
X96871967Y-107518742D01*
X96874973Y-107513546D01*
X96944361Y-107313729D01*
X96950995Y-107267977D01*
X96973852Y-107110336D01*
X96973852Y-107110333D01*
X96974713Y-107104396D01*
X96964933Y-106893101D01*
X96946509Y-106816653D01*
X96949994Y-106745742D01*
X96991263Y-106687972D01*
X97057214Y-106661685D01*
X97126907Y-106675226D01*
X97172215Y-106714861D01*
X97263975Y-106845907D01*
X97416593Y-106998525D01*
X97593394Y-107122323D01*
X97598376Y-107124646D01*
X97598381Y-107124649D01*
X97774767Y-107206899D01*
X97789007Y-107213539D01*
X97794315Y-107214961D01*
X97794317Y-107214962D01*
X97992172Y-107267977D01*
X97992174Y-107267977D01*
X97997487Y-107269401D01*
X98212500Y-107288212D01*
X98427513Y-107269401D01*
X98432826Y-107267977D01*
X98432828Y-107267977D01*
X98630683Y-107214962D01*
X98630685Y-107214961D01*
X98635993Y-107213539D01*
X98650233Y-107206899D01*
X98826619Y-107124649D01*
X98826624Y-107124646D01*
X98831606Y-107122323D01*
X99008407Y-106998525D01*
X99127238Y-106879694D01*
X110661931Y-106879694D01*
X110677989Y-107043468D01*
X110729932Y-107199615D01*
X110733581Y-107205640D01*
X110799043Y-107313729D01*
X110815179Y-107340373D01*
X110929491Y-107458747D01*
X111067189Y-107548854D01*
X111221428Y-107606215D01*
X111228409Y-107607146D01*
X111228411Y-107607147D01*
X111377561Y-107627048D01*
X111377565Y-107627048D01*
X111384542Y-107627979D01*
X111391553Y-107627341D01*
X111391557Y-107627341D01*
X111541403Y-107613704D01*
X111541404Y-107613704D01*
X111548424Y-107613065D01*
X111647685Y-107580813D01*
X111698230Y-107564390D01*
X111698233Y-107564389D01*
X111704929Y-107562213D01*
X111846279Y-107477951D01*
X111965449Y-107364468D01*
X111981458Y-107340373D01*
X111996219Y-107318156D01*
X147822547Y-107318156D01*
X147838605Y-107481930D01*
X147890548Y-107638077D01*
X147894197Y-107644102D01*
X147972095Y-107772725D01*
X147975795Y-107778835D01*
X148090107Y-107897209D01*
X148227805Y-107987316D01*
X148382044Y-108044677D01*
X148389025Y-108045608D01*
X148389027Y-108045609D01*
X148538177Y-108065510D01*
X148538181Y-108065510D01*
X148545158Y-108066441D01*
X148552169Y-108065803D01*
X148552173Y-108065803D01*
X148702019Y-108052166D01*
X148702020Y-108052166D01*
X148709040Y-108051527D01*
X148758775Y-108035367D01*
X148858846Y-108002852D01*
X148858849Y-108002851D01*
X148865545Y-108000675D01*
X148871596Y-107997068D01*
X148871598Y-107997067D01*
X148966804Y-107940313D01*
X149035558Y-107922613D01*
X149075240Y-107930444D01*
X149164825Y-107963760D01*
X149164830Y-107963761D01*
X149171428Y-107966215D01*
X149178409Y-107967146D01*
X149178411Y-107967147D01*
X149327561Y-107987048D01*
X149327565Y-107987048D01*
X149334542Y-107987979D01*
X149341553Y-107987341D01*
X149341557Y-107987341D01*
X149491403Y-107973704D01*
X149491404Y-107973704D01*
X149498424Y-107973065D01*
X149577957Y-107947223D01*
X149648230Y-107924390D01*
X149648233Y-107924389D01*
X149654929Y-107922213D01*
X149796279Y-107837951D01*
X149915449Y-107724468D01*
X149919350Y-107718597D01*
X150002614Y-107593275D01*
X150002615Y-107593273D01*
X150006515Y-107587403D01*
X150064951Y-107433568D01*
X150078895Y-107334350D01*
X150087302Y-107274534D01*
X150087303Y-107274527D01*
X150087853Y-107270610D01*
X150088141Y-107250000D01*
X150069798Y-107086466D01*
X150065307Y-107073568D01*
X150017998Y-106937717D01*
X150015680Y-106931060D01*
X150005354Y-106914534D01*
X149932209Y-106797479D01*
X149928476Y-106791505D01*
X149863889Y-106726466D01*
X149817486Y-106679737D01*
X149817482Y-106679734D01*
X149812522Y-106674739D01*
X149673580Y-106586563D01*
X149587384Y-106555870D01*
X149525189Y-106533723D01*
X149525187Y-106533722D01*
X149518555Y-106531361D01*
X149511569Y-106530528D01*
X149511565Y-106530527D01*
X149397071Y-106516875D01*
X149355153Y-106511877D01*
X149348150Y-106512613D01*
X149348149Y-106512613D01*
X149304935Y-106517155D01*
X149191495Y-106529078D01*
X149184827Y-106531348D01*
X149042382Y-106579840D01*
X149042379Y-106579841D01*
X149035715Y-106582110D01*
X148987853Y-106611555D01*
X148946218Y-106637169D01*
X148877717Y-106655827D01*
X148837929Y-106648550D01*
X148735806Y-106612185D01*
X148735801Y-106612184D01*
X148729171Y-106609823D01*
X148722185Y-106608990D01*
X148722181Y-106608989D01*
X148607687Y-106595337D01*
X148565769Y-106590339D01*
X148558766Y-106591075D01*
X148558765Y-106591075D01*
X148515551Y-106595617D01*
X148402111Y-106607540D01*
X148395443Y-106609810D01*
X148252998Y-106658302D01*
X148252995Y-106658303D01*
X148246331Y-106660572D01*
X148155532Y-106716432D01*
X148112241Y-106743065D01*
X148106171Y-106746799D01*
X147988598Y-106861935D01*
X147899454Y-107000259D01*
X147897043Y-107006882D01*
X147897042Y-107006885D01*
X147845582Y-107148271D01*
X147845581Y-107148276D01*
X147843172Y-107154894D01*
X147822547Y-107318156D01*
X111996219Y-107318156D01*
X112052614Y-107233275D01*
X112052615Y-107233273D01*
X112056515Y-107227403D01*
X112114951Y-107073568D01*
X112125254Y-107000259D01*
X112137302Y-106914534D01*
X112137303Y-106914527D01*
X112137853Y-106910610D01*
X112138141Y-106890000D01*
X112119798Y-106726466D01*
X112113998Y-106709809D01*
X112092665Y-106648550D01*
X112065680Y-106571060D01*
X111978476Y-106431505D01*
X111920499Y-106373122D01*
X111867486Y-106319737D01*
X111867482Y-106319734D01*
X111862522Y-106314739D01*
X111723580Y-106226563D01*
X111639415Y-106196593D01*
X111575189Y-106173723D01*
X111575187Y-106173722D01*
X111568555Y-106171361D01*
X111561569Y-106170528D01*
X111561565Y-106170527D01*
X111423955Y-106154119D01*
X111405153Y-106151877D01*
X111398150Y-106152613D01*
X111398149Y-106152613D01*
X111355193Y-106157128D01*
X111241495Y-106169078D01*
X111227850Y-106173723D01*
X111092382Y-106219840D01*
X111092379Y-106219841D01*
X111085715Y-106222110D01*
X110945555Y-106308337D01*
X110889454Y-106363275D01*
X110848518Y-106403363D01*
X110827982Y-106423473D01*
X110738838Y-106561797D01*
X110736427Y-106568420D01*
X110736426Y-106568423D01*
X110684966Y-106709809D01*
X110684965Y-106709814D01*
X110682556Y-106716432D01*
X110661931Y-106879694D01*
X99127238Y-106879694D01*
X99161025Y-106845907D01*
X99284823Y-106669106D01*
X99287146Y-106664124D01*
X99287149Y-106664119D01*
X99373716Y-106478475D01*
X99373717Y-106478474D01*
X99376039Y-106473493D01*
X99379506Y-106460556D01*
X99430477Y-106270328D01*
X99430477Y-106270326D01*
X99431901Y-106265013D01*
X99450712Y-106050000D01*
X99431901Y-105834987D01*
X99397799Y-105707717D01*
X99377462Y-105631817D01*
X99377461Y-105631815D01*
X99376039Y-105626507D01*
X99344745Y-105559396D01*
X99287149Y-105435881D01*
X99287146Y-105435876D01*
X99284823Y-105430894D01*
X99215510Y-105331906D01*
X99164184Y-105258604D01*
X99164182Y-105258601D01*
X99161025Y-105254093D01*
X99008407Y-105101475D01*
X98995740Y-105092605D01*
X98862525Y-104999327D01*
X98831606Y-104977677D01*
X98826624Y-104975354D01*
X98826619Y-104975351D01*
X98640975Y-104888784D01*
X98640974Y-104888783D01*
X98635993Y-104886461D01*
X98630685Y-104885039D01*
X98630683Y-104885038D01*
X98432828Y-104832023D01*
X98432826Y-104832023D01*
X98427513Y-104830599D01*
X98212500Y-104811788D01*
X97997487Y-104830599D01*
X97992174Y-104832023D01*
X97992172Y-104832023D01*
X97794317Y-104885038D01*
X97794315Y-104885039D01*
X97789007Y-104886461D01*
X97784026Y-104888783D01*
X97784025Y-104888784D01*
X97598381Y-104975351D01*
X97598376Y-104975354D01*
X97593394Y-104977677D01*
X97562475Y-104999327D01*
X97429261Y-105092605D01*
X97416593Y-105101475D01*
X97263975Y-105254093D01*
X97260818Y-105258601D01*
X97260816Y-105258604D01*
X97209490Y-105331906D01*
X97140177Y-105430894D01*
X97137854Y-105435876D01*
X97137851Y-105435881D01*
X97080255Y-105559396D01*
X97048961Y-105626507D01*
X97047539Y-105631815D01*
X97047538Y-105631817D01*
X97027201Y-105707717D01*
X96993099Y-105834987D01*
X96974288Y-106050000D01*
X96993099Y-106265013D01*
X96994523Y-106270326D01*
X96994523Y-106270328D01*
X97010722Y-106330784D01*
X97009032Y-106401761D01*
X96969238Y-106460556D01*
X96903973Y-106488504D01*
X96833960Y-106476730D01*
X96786245Y-106436295D01*
X96761749Y-106401761D01*
X96705446Y-106322389D01*
X96581324Y-106203568D01*
X96556980Y-106180264D01*
X96552650Y-106176119D01*
X96374952Y-106061380D01*
X96282106Y-106023962D01*
X96184332Y-105984558D01*
X96184329Y-105984557D01*
X96178763Y-105982314D01*
X95971163Y-105941772D01*
X95965601Y-105941500D01*
X95109654Y-105941500D01*
X94951934Y-105956548D01*
X94748966Y-106016092D01*
X94692190Y-106045334D01*
X94622474Y-106058742D01*
X94556573Y-106032329D01*
X94515414Y-105974481D01*
X94508500Y-105933317D01*
X94508500Y-104509694D01*
X109771931Y-104509694D01*
X109787989Y-104673468D01*
X109839932Y-104829615D01*
X109843581Y-104835640D01*
X109874360Y-104886461D01*
X109925179Y-104970373D01*
X110039491Y-105088747D01*
X110177189Y-105178854D01*
X110331428Y-105236215D01*
X110338409Y-105237146D01*
X110338411Y-105237147D01*
X110487561Y-105257048D01*
X110487565Y-105257048D01*
X110494542Y-105257979D01*
X110501553Y-105257341D01*
X110501557Y-105257341D01*
X110582221Y-105250000D01*
X151086496Y-105250000D01*
X151087186Y-105256565D01*
X151105035Y-105426386D01*
X151106458Y-105439928D01*
X151165473Y-105621556D01*
X151260960Y-105786944D01*
X151265378Y-105791851D01*
X151265379Y-105791852D01*
X151320819Y-105853424D01*
X151388747Y-105928866D01*
X151460729Y-105981164D01*
X151512580Y-106018836D01*
X151543248Y-106041118D01*
X151549276Y-106043802D01*
X151549278Y-106043803D01*
X151698400Y-106110196D01*
X151717712Y-106118794D01*
X151811112Y-106138647D01*
X151898056Y-106157128D01*
X151898061Y-106157128D01*
X151904513Y-106158500D01*
X152095487Y-106158500D01*
X152101939Y-106157128D01*
X152101944Y-106157128D01*
X152188888Y-106138647D01*
X152282288Y-106118794D01*
X152301600Y-106110196D01*
X152450722Y-106043803D01*
X152450724Y-106043802D01*
X152456752Y-106041118D01*
X152487421Y-106018836D01*
X152500004Y-106009694D01*
X153681931Y-106009694D01*
X153697989Y-106173468D01*
X153749932Y-106329615D01*
X153753581Y-106335640D01*
X153829234Y-106460556D01*
X153835179Y-106470373D01*
X153840070Y-106475438D01*
X153840071Y-106475439D01*
X153876064Y-106512711D01*
X153949491Y-106588747D01*
X154087189Y-106678854D01*
X154241428Y-106736215D01*
X154248409Y-106737146D01*
X154248411Y-106737147D01*
X154397561Y-106757048D01*
X154397565Y-106757048D01*
X154404542Y-106757979D01*
X154411553Y-106757341D01*
X154411557Y-106757341D01*
X154561403Y-106743704D01*
X154561404Y-106743704D01*
X154568424Y-106743065D01*
X154619510Y-106726466D01*
X154718230Y-106694390D01*
X154718233Y-106694389D01*
X154724929Y-106692213D01*
X154866279Y-106607951D01*
X154985449Y-106494468D01*
X154989350Y-106488597D01*
X155072614Y-106363275D01*
X155072615Y-106363273D01*
X155076515Y-106357403D01*
X155134951Y-106203568D01*
X155147167Y-106116646D01*
X155157302Y-106044534D01*
X155157303Y-106044525D01*
X155157853Y-106040610D01*
X155158141Y-106020000D01*
X155139798Y-105856466D01*
X155133998Y-105839809D01*
X155087998Y-105707717D01*
X155085680Y-105701060D01*
X154998476Y-105561505D01*
X154940499Y-105503122D01*
X154887486Y-105449737D01*
X154887482Y-105449734D01*
X154882522Y-105444739D01*
X154743580Y-105356563D01*
X154694447Y-105339068D01*
X154595189Y-105303723D01*
X154595187Y-105303722D01*
X154588555Y-105301361D01*
X154581569Y-105300528D01*
X154581565Y-105300527D01*
X154467071Y-105286875D01*
X154425153Y-105281877D01*
X154418150Y-105282613D01*
X154418149Y-105282613D01*
X154374935Y-105287155D01*
X154261495Y-105299078D01*
X154254827Y-105301348D01*
X154112382Y-105349840D01*
X154112379Y-105349841D01*
X154105715Y-105352110D01*
X153965555Y-105438337D01*
X153847982Y-105553473D01*
X153758838Y-105691797D01*
X153756427Y-105698420D01*
X153756426Y-105698423D01*
X153704966Y-105839809D01*
X153704965Y-105839814D01*
X153702556Y-105846432D01*
X153681931Y-106009694D01*
X152500004Y-106009694D01*
X152539271Y-105981164D01*
X152611253Y-105928866D01*
X152679181Y-105853424D01*
X152734621Y-105791852D01*
X152734622Y-105791851D01*
X152739040Y-105786944D01*
X152834527Y-105621556D01*
X152893542Y-105439928D01*
X152894966Y-105426386D01*
X152912814Y-105256565D01*
X152913504Y-105250000D01*
X152907051Y-105188607D01*
X152894232Y-105066635D01*
X152894232Y-105066633D01*
X152893542Y-105060072D01*
X152834527Y-104878444D01*
X152739040Y-104713056D01*
X152726314Y-104698923D01*
X152695600Y-104634915D01*
X152704366Y-104564462D01*
X152745893Y-104512680D01*
X152759630Y-104502700D01*
X152861253Y-104428866D01*
X152929181Y-104353424D01*
X152984621Y-104291852D01*
X152984622Y-104291851D01*
X152989040Y-104286944D01*
X153084527Y-104121556D01*
X153143542Y-103939928D01*
X153152553Y-103854198D01*
X153162814Y-103756565D01*
X153163504Y-103750000D01*
X153143542Y-103560072D01*
X153084527Y-103378444D01*
X152989040Y-103213056D01*
X152861253Y-103071134D01*
X152706752Y-102958882D01*
X152700724Y-102956198D01*
X152700722Y-102956197D01*
X152538319Y-102883891D01*
X152538318Y-102883891D01*
X152532288Y-102881206D01*
X152438887Y-102861353D01*
X152351944Y-102842872D01*
X152351939Y-102842872D01*
X152345487Y-102841500D01*
X152154513Y-102841500D01*
X152148061Y-102842872D01*
X152148056Y-102842872D01*
X152061113Y-102861353D01*
X151967712Y-102881206D01*
X151961682Y-102883891D01*
X151961681Y-102883891D01*
X151799278Y-102956197D01*
X151799276Y-102956198D01*
X151793248Y-102958882D01*
X151638747Y-103071134D01*
X151510960Y-103213056D01*
X151415473Y-103378444D01*
X151356458Y-103560072D01*
X151336496Y-103750000D01*
X151337186Y-103756565D01*
X151347448Y-103854198D01*
X151356458Y-103939928D01*
X151415473Y-104121556D01*
X151510960Y-104286944D01*
X151523685Y-104301076D01*
X151554400Y-104365085D01*
X151545634Y-104435538D01*
X151504107Y-104487320D01*
X151425359Y-104544534D01*
X151388747Y-104571134D01*
X151260960Y-104713056D01*
X151165473Y-104878444D01*
X151106458Y-105060072D01*
X151105768Y-105066633D01*
X151105768Y-105066635D01*
X151092949Y-105188607D01*
X151086496Y-105250000D01*
X110582221Y-105250000D01*
X110651403Y-105243704D01*
X110651404Y-105243704D01*
X110658424Y-105243065D01*
X110687062Y-105233760D01*
X110808230Y-105194390D01*
X110808233Y-105194389D01*
X110814929Y-105192213D01*
X110956279Y-105107951D01*
X111075449Y-104994468D01*
X111079350Y-104988597D01*
X111162614Y-104863275D01*
X111162615Y-104863273D01*
X111166515Y-104857403D01*
X111224951Y-104703568D01*
X111236865Y-104618794D01*
X111247302Y-104544534D01*
X111247303Y-104544527D01*
X111247853Y-104540610D01*
X111248141Y-104520000D01*
X111229798Y-104356466D01*
X111223998Y-104339809D01*
X111177998Y-104207717D01*
X111175680Y-104201060D01*
X111088476Y-104061505D01*
X111030499Y-104003122D01*
X110977486Y-103949737D01*
X110977482Y-103949734D01*
X110972522Y-103944739D01*
X110833580Y-103856563D01*
X110738215Y-103822605D01*
X110685189Y-103803723D01*
X110685187Y-103803722D01*
X110678555Y-103801361D01*
X110671569Y-103800528D01*
X110671565Y-103800527D01*
X110557071Y-103786875D01*
X110515153Y-103781877D01*
X110508150Y-103782613D01*
X110508149Y-103782613D01*
X110464935Y-103787155D01*
X110351495Y-103799078D01*
X110344827Y-103801348D01*
X110202382Y-103849840D01*
X110202379Y-103849841D01*
X110195715Y-103852110D01*
X110109753Y-103904994D01*
X110078226Y-103924390D01*
X110055555Y-103938337D01*
X109937982Y-104053473D01*
X109848838Y-104191797D01*
X109846427Y-104198420D01*
X109846426Y-104198423D01*
X109794966Y-104339809D01*
X109794965Y-104339814D01*
X109792556Y-104346432D01*
X109771931Y-104509694D01*
X94508500Y-104509694D01*
X94508500Y-103750000D01*
X114586496Y-103750000D01*
X114587186Y-103756565D01*
X114597448Y-103854198D01*
X114606458Y-103939928D01*
X114665473Y-104121556D01*
X114760960Y-104286944D01*
X114765378Y-104291851D01*
X114765379Y-104291852D01*
X114820819Y-104353424D01*
X114888747Y-104428866D01*
X114969202Y-104487320D01*
X115008762Y-104516062D01*
X115043248Y-104541118D01*
X115049276Y-104543802D01*
X115049278Y-104543803D01*
X115130711Y-104580059D01*
X115217712Y-104618794D01*
X115293555Y-104634915D01*
X115398056Y-104657128D01*
X115398061Y-104657128D01*
X115404513Y-104658500D01*
X115595487Y-104658500D01*
X115601939Y-104657128D01*
X115601944Y-104657128D01*
X115706445Y-104634915D01*
X115782288Y-104618794D01*
X115869289Y-104580059D01*
X115950722Y-104543803D01*
X115950724Y-104543802D01*
X115956752Y-104541118D01*
X115991239Y-104516062D01*
X116030798Y-104487320D01*
X116111253Y-104428866D01*
X116179181Y-104353424D01*
X116234621Y-104291852D01*
X116234622Y-104291851D01*
X116239040Y-104286944D01*
X116334527Y-104121556D01*
X116393542Y-103939928D01*
X116402553Y-103854198D01*
X116412814Y-103756565D01*
X116413504Y-103750000D01*
X116393542Y-103560072D01*
X116334527Y-103378444D01*
X116239040Y-103213056D01*
X116111253Y-103071134D01*
X115956752Y-102958882D01*
X115950724Y-102956198D01*
X115950722Y-102956197D01*
X115788319Y-102883891D01*
X115788318Y-102883891D01*
X115782288Y-102881206D01*
X115688887Y-102861353D01*
X115601944Y-102842872D01*
X115601939Y-102842872D01*
X115595487Y-102841500D01*
X115404513Y-102841500D01*
X115398061Y-102842872D01*
X115398056Y-102842872D01*
X115311113Y-102861353D01*
X115217712Y-102881206D01*
X115211682Y-102883891D01*
X115211681Y-102883891D01*
X115049278Y-102956197D01*
X115049276Y-102956198D01*
X115043248Y-102958882D01*
X114888747Y-103071134D01*
X114760960Y-103213056D01*
X114665473Y-103378444D01*
X114606458Y-103560072D01*
X114586496Y-103750000D01*
X94508500Y-103750000D01*
X94508500Y-101168201D01*
X94528502Y-101100080D01*
X94582158Y-101053587D01*
X94652432Y-101043483D01*
X94681598Y-101051335D01*
X94840668Y-101115442D01*
X94840671Y-101115443D01*
X94846237Y-101117686D01*
X95053837Y-101158228D01*
X95059399Y-101158500D01*
X95915346Y-101158500D01*
X96073066Y-101143452D01*
X96276034Y-101083908D01*
X96315226Y-101063723D01*
X96458749Y-100989804D01*
X96458752Y-100989802D01*
X96464080Y-100987058D01*
X96630420Y-100856396D01*
X96634352Y-100851865D01*
X96634355Y-100851862D01*
X96765121Y-100701167D01*
X96769052Y-100696637D01*
X96777814Y-100681492D01*
X96829241Y-100632545D01*
X96898967Y-100619172D01*
X96964854Y-100645619D01*
X97005983Y-100703489D01*
X97008582Y-100777203D01*
X96994524Y-100829665D01*
X96994523Y-100829672D01*
X96993099Y-100834987D01*
X96974288Y-101050000D01*
X96993099Y-101265013D01*
X96994523Y-101270326D01*
X96994523Y-101270328D01*
X97045630Y-101461060D01*
X97048961Y-101473493D01*
X97051283Y-101478474D01*
X97051284Y-101478475D01*
X97137851Y-101664119D01*
X97137854Y-101664124D01*
X97140177Y-101669106D01*
X97154757Y-101689928D01*
X97232258Y-101800610D01*
X97263975Y-101845907D01*
X97416593Y-101998525D01*
X97421101Y-102001682D01*
X97421104Y-102001684D01*
X97471461Y-102036944D01*
X97593394Y-102122323D01*
X97598376Y-102124646D01*
X97598381Y-102124649D01*
X97784025Y-102211216D01*
X97789007Y-102213539D01*
X97794315Y-102214961D01*
X97794317Y-102214962D01*
X97992172Y-102267977D01*
X97992174Y-102267977D01*
X97997487Y-102269401D01*
X98212500Y-102288212D01*
X98427513Y-102269401D01*
X98432826Y-102267977D01*
X98432828Y-102267977D01*
X98630683Y-102214962D01*
X98630685Y-102214961D01*
X98635993Y-102213539D01*
X98640975Y-102211216D01*
X98826619Y-102124649D01*
X98826624Y-102124646D01*
X98831606Y-102122323D01*
X98953539Y-102036944D01*
X99003896Y-102001684D01*
X99003899Y-102001682D01*
X99008407Y-101998525D01*
X99161025Y-101845907D01*
X99192743Y-101800610D01*
X99214391Y-101769694D01*
X129461931Y-101769694D01*
X129477989Y-101933468D01*
X129529932Y-102089615D01*
X129533581Y-102095640D01*
X129605846Y-102214962D01*
X129615179Y-102230373D01*
X129729491Y-102348747D01*
X129867189Y-102438854D01*
X130021428Y-102496215D01*
X130028409Y-102497146D01*
X130028411Y-102497147D01*
X130177561Y-102517048D01*
X130177565Y-102517048D01*
X130184542Y-102517979D01*
X130191553Y-102517341D01*
X130191557Y-102517341D01*
X130341403Y-102503704D01*
X130341404Y-102503704D01*
X130348424Y-102503065D01*
X130377062Y-102493760D01*
X130474896Y-102461972D01*
X130545864Y-102459945D01*
X130606662Y-102496607D01*
X130637987Y-102560319D01*
X130629893Y-102630853D01*
X130601989Y-102671829D01*
X130487982Y-102783473D01*
X130398838Y-102921797D01*
X130396427Y-102928420D01*
X130396426Y-102928423D01*
X130344966Y-103069809D01*
X130344965Y-103069814D01*
X130342556Y-103076432D01*
X130321931Y-103239694D01*
X130337989Y-103403468D01*
X130389932Y-103559615D01*
X130475179Y-103700373D01*
X130589491Y-103818747D01*
X130727189Y-103908854D01*
X130881428Y-103966215D01*
X130888409Y-103967146D01*
X130888411Y-103967147D01*
X131037561Y-103987048D01*
X131037565Y-103987048D01*
X131044542Y-103987979D01*
X131051553Y-103987341D01*
X131051557Y-103987341D01*
X131201403Y-103973704D01*
X131201404Y-103973704D01*
X131208424Y-103973065D01*
X131295602Y-103944739D01*
X131358230Y-103924390D01*
X131358233Y-103924389D01*
X131364929Y-103922213D01*
X131506279Y-103837951D01*
X131625449Y-103724468D01*
X131641458Y-103700373D01*
X131712614Y-103593275D01*
X131712615Y-103593273D01*
X131716515Y-103587403D01*
X131774951Y-103433568D01*
X131797853Y-103270610D01*
X131798141Y-103250000D01*
X131779798Y-103086466D01*
X131773998Y-103069809D01*
X131736720Y-102962763D01*
X131725680Y-102931060D01*
X131696206Y-102883891D01*
X131642209Y-102797479D01*
X131638476Y-102791505D01*
X131580499Y-102733122D01*
X131527486Y-102679737D01*
X131527482Y-102679734D01*
X131522522Y-102674739D01*
X131383580Y-102586563D01*
X131334447Y-102569068D01*
X131235189Y-102533723D01*
X131235187Y-102533722D01*
X131228555Y-102531361D01*
X131221569Y-102530528D01*
X131221565Y-102530527D01*
X131107071Y-102516875D01*
X131065153Y-102511877D01*
X131058150Y-102512613D01*
X131058149Y-102512613D01*
X131015954Y-102517048D01*
X130901495Y-102529078D01*
X130894824Y-102531349D01*
X130783448Y-102569264D01*
X130712516Y-102572282D01*
X130651212Y-102536472D01*
X130619000Y-102473203D01*
X130626108Y-102402563D01*
X130655952Y-102358740D01*
X130760343Y-102259332D01*
X130760350Y-102259324D01*
X130765449Y-102254468D01*
X130781458Y-102230373D01*
X130852614Y-102123275D01*
X130852615Y-102123273D01*
X130856515Y-102117403D01*
X130914951Y-101963568D01*
X130928766Y-101865271D01*
X130937302Y-101804534D01*
X130937303Y-101804527D01*
X130937853Y-101800610D01*
X130938141Y-101780000D01*
X130919798Y-101616466D01*
X130913998Y-101599809D01*
X130879240Y-101500000D01*
X141586496Y-101500000D01*
X141587186Y-101506565D01*
X141604270Y-101669106D01*
X141606458Y-101689928D01*
X141665473Y-101871556D01*
X141760960Y-102036944D01*
X141765378Y-102041851D01*
X141765379Y-102041852D01*
X141838693Y-102123275D01*
X141888747Y-102178866D01*
X141933273Y-102211216D01*
X142014017Y-102269880D01*
X142043248Y-102291118D01*
X142049276Y-102293802D01*
X142049278Y-102293803D01*
X142195130Y-102358740D01*
X142217712Y-102368794D01*
X142311113Y-102388647D01*
X142398056Y-102407128D01*
X142398061Y-102407128D01*
X142404513Y-102408500D01*
X142595487Y-102408500D01*
X142601939Y-102407128D01*
X142601944Y-102407128D01*
X142688887Y-102388647D01*
X142782288Y-102368794D01*
X142804870Y-102358740D01*
X142950722Y-102293803D01*
X142950724Y-102293802D01*
X142956752Y-102291118D01*
X142985984Y-102269880D01*
X143066727Y-102211216D01*
X143111253Y-102178866D01*
X143161307Y-102123275D01*
X143234621Y-102041852D01*
X143234622Y-102041851D01*
X143239040Y-102036944D01*
X143334527Y-101871556D01*
X143393542Y-101689928D01*
X143395731Y-101669106D01*
X143412814Y-101506565D01*
X143413504Y-101500000D01*
X143393542Y-101310072D01*
X143334527Y-101128444D01*
X143327668Y-101116563D01*
X143294287Y-101058747D01*
X143239040Y-100963056D01*
X143211752Y-100932749D01*
X143115675Y-100826045D01*
X143115674Y-100826044D01*
X143111253Y-100821134D01*
X142956752Y-100708882D01*
X142950724Y-100706198D01*
X142950722Y-100706197D01*
X142788319Y-100633891D01*
X142788318Y-100633891D01*
X142782288Y-100631206D01*
X142688888Y-100611353D01*
X142601944Y-100592872D01*
X142601939Y-100592872D01*
X142595487Y-100591500D01*
X142404513Y-100591500D01*
X142398061Y-100592872D01*
X142398056Y-100592872D01*
X142311113Y-100611353D01*
X142217712Y-100631206D01*
X142211682Y-100633891D01*
X142211681Y-100633891D01*
X142049278Y-100706197D01*
X142049276Y-100706198D01*
X142043248Y-100708882D01*
X141888747Y-100821134D01*
X141884326Y-100826044D01*
X141884325Y-100826045D01*
X141788249Y-100932749D01*
X141760960Y-100963056D01*
X141705713Y-101058747D01*
X141672333Y-101116563D01*
X141665473Y-101128444D01*
X141606458Y-101310072D01*
X141586496Y-101500000D01*
X130879240Y-101500000D01*
X130876954Y-101493435D01*
X130865680Y-101461060D01*
X130778476Y-101321505D01*
X130716935Y-101259533D01*
X130667486Y-101209737D01*
X130667482Y-101209734D01*
X130662522Y-101204739D01*
X130523580Y-101116563D01*
X130436609Y-101085594D01*
X130375189Y-101063723D01*
X130375187Y-101063722D01*
X130368555Y-101061361D01*
X130361569Y-101060528D01*
X130361565Y-101060527D01*
X130226035Y-101044367D01*
X130205153Y-101041877D01*
X130198150Y-101042613D01*
X130198149Y-101042613D01*
X130154935Y-101047155D01*
X130041495Y-101059078D01*
X130034827Y-101061348D01*
X129892382Y-101109840D01*
X129892379Y-101109841D01*
X129885715Y-101112110D01*
X129810309Y-101158500D01*
X129767870Y-101184609D01*
X129745555Y-101198337D01*
X129627982Y-101313473D01*
X129538838Y-101451797D01*
X129536427Y-101458420D01*
X129536426Y-101458423D01*
X129484966Y-101599809D01*
X129484965Y-101599814D01*
X129482556Y-101606432D01*
X129461931Y-101769694D01*
X99214391Y-101769694D01*
X99270243Y-101689928D01*
X99284823Y-101669106D01*
X99287146Y-101664124D01*
X99287149Y-101664119D01*
X99373716Y-101478475D01*
X99373717Y-101478474D01*
X99376039Y-101473493D01*
X99379371Y-101461060D01*
X99430477Y-101270328D01*
X99430477Y-101270326D01*
X99431901Y-101265013D01*
X99450712Y-101050000D01*
X99431901Y-100834987D01*
X99394830Y-100696637D01*
X99377462Y-100631817D01*
X99377461Y-100631815D01*
X99376039Y-100626507D01*
X99359715Y-100591500D01*
X99287149Y-100435881D01*
X99287146Y-100435876D01*
X99284823Y-100430894D01*
X99207042Y-100319812D01*
X99206123Y-100318500D01*
X114586496Y-100318500D01*
X114587186Y-100325065D01*
X114604938Y-100493962D01*
X114606458Y-100508428D01*
X114665473Y-100690056D01*
X114668776Y-100695778D01*
X114668777Y-100695779D01*
X114674792Y-100706197D01*
X114760960Y-100855444D01*
X114765378Y-100860351D01*
X114765379Y-100860352D01*
X114879466Y-100987058D01*
X114888747Y-100997366D01*
X114972673Y-101058342D01*
X115004085Y-101081164D01*
X115043248Y-101109618D01*
X115049276Y-101112302D01*
X115049278Y-101112303D01*
X115174828Y-101168201D01*
X115217712Y-101187294D01*
X115311112Y-101207147D01*
X115398056Y-101225628D01*
X115398061Y-101225628D01*
X115404513Y-101227000D01*
X115595487Y-101227000D01*
X115601939Y-101225628D01*
X115601944Y-101225628D01*
X115688888Y-101207147D01*
X115782288Y-101187294D01*
X115825172Y-101168201D01*
X115950722Y-101112303D01*
X115950724Y-101112302D01*
X115956752Y-101109618D01*
X115995916Y-101081164D01*
X116027327Y-101058342D01*
X116111253Y-100997366D01*
X116120534Y-100987058D01*
X116234621Y-100860352D01*
X116234622Y-100860351D01*
X116239040Y-100855444D01*
X116325208Y-100706197D01*
X116331223Y-100695779D01*
X116331224Y-100695778D01*
X116334527Y-100690056D01*
X116393542Y-100508428D01*
X116395063Y-100493962D01*
X116412814Y-100325065D01*
X116413504Y-100318500D01*
X116407209Y-100258604D01*
X116394232Y-100135135D01*
X116394232Y-100135133D01*
X116393542Y-100128572D01*
X116334527Y-99946944D01*
X116313755Y-99910965D01*
X116267355Y-99830599D01*
X116239040Y-99781556D01*
X116229861Y-99771361D01*
X116115675Y-99644545D01*
X116115674Y-99644544D01*
X116111253Y-99639634D01*
X115956752Y-99527382D01*
X115950724Y-99524698D01*
X115950722Y-99524697D01*
X115788319Y-99452391D01*
X115788318Y-99452391D01*
X115782288Y-99449706D01*
X115688887Y-99429853D01*
X115601944Y-99411372D01*
X115601939Y-99411372D01*
X115595487Y-99410000D01*
X115404513Y-99410000D01*
X115398061Y-99411372D01*
X115398056Y-99411372D01*
X115311113Y-99429853D01*
X115217712Y-99449706D01*
X115211682Y-99452391D01*
X115211681Y-99452391D01*
X115049278Y-99524697D01*
X115049276Y-99524698D01*
X115043248Y-99527382D01*
X114888747Y-99639634D01*
X114884326Y-99644544D01*
X114884325Y-99644545D01*
X114770140Y-99771361D01*
X114760960Y-99781556D01*
X114732645Y-99830599D01*
X114686246Y-99910965D01*
X114665473Y-99946944D01*
X114606458Y-100128572D01*
X114605768Y-100135133D01*
X114605768Y-100135135D01*
X114592791Y-100258604D01*
X114586496Y-100318500D01*
X99206123Y-100318500D01*
X99164184Y-100258604D01*
X99164182Y-100258601D01*
X99161025Y-100254093D01*
X99008407Y-100101475D01*
X98831606Y-99977677D01*
X98826624Y-99975354D01*
X98826619Y-99975351D01*
X98640975Y-99888784D01*
X98640974Y-99888783D01*
X98635993Y-99886461D01*
X98630685Y-99885039D01*
X98630683Y-99885038D01*
X98432828Y-99832023D01*
X98432826Y-99832023D01*
X98427513Y-99830599D01*
X98212500Y-99811788D01*
X97997487Y-99830599D01*
X97992174Y-99832023D01*
X97992172Y-99832023D01*
X97794317Y-99885038D01*
X97794315Y-99885039D01*
X97789007Y-99886461D01*
X97784026Y-99888783D01*
X97784025Y-99888784D01*
X97598381Y-99975351D01*
X97598376Y-99975354D01*
X97593394Y-99977677D01*
X97416593Y-100101475D01*
X97263975Y-100254093D01*
X97260818Y-100258601D01*
X97260816Y-100258604D01*
X97217958Y-100319812D01*
X97193839Y-100354258D01*
X97175748Y-100380094D01*
X97120291Y-100424422D01*
X97049672Y-100431731D01*
X96986311Y-100399700D01*
X96950326Y-100338499D01*
X96947839Y-100289743D01*
X96973852Y-100110336D01*
X96973852Y-100110333D01*
X96974713Y-100104396D01*
X96964933Y-99893101D01*
X96921542Y-99713056D01*
X96916781Y-99693299D01*
X96916780Y-99693297D01*
X96915375Y-99687466D01*
X96891862Y-99635751D01*
X96844353Y-99531263D01*
X96827826Y-99494913D01*
X96705446Y-99322389D01*
X96552650Y-99176119D01*
X96374952Y-99061380D01*
X96302867Y-99032329D01*
X96184332Y-98984558D01*
X96184329Y-98984557D01*
X96178763Y-98982314D01*
X95971163Y-98941772D01*
X95965601Y-98941500D01*
X95109654Y-98941500D01*
X94951934Y-98956548D01*
X94748966Y-99016092D01*
X94692190Y-99045334D01*
X94622474Y-99058742D01*
X94556573Y-99032329D01*
X94515414Y-98974481D01*
X94508500Y-98933317D01*
X94508500Y-95561440D01*
X94528502Y-95493319D01*
X94582158Y-95446826D01*
X94601438Y-95440113D01*
X94601421Y-95440059D01*
X94891152Y-95349775D01*
X94894622Y-95348213D01*
X94894628Y-95348211D01*
X95029520Y-95287501D01*
X95167889Y-95225226D01*
X95171146Y-95223257D01*
X95171150Y-95223255D01*
X95250094Y-95175531D01*
X95427595Y-95068228D01*
X95433633Y-95063498D01*
X95523478Y-94993109D01*
X95666484Y-94881071D01*
X95881071Y-94666484D01*
X96010992Y-94500652D01*
X96065874Y-94430600D01*
X96065876Y-94430597D01*
X96068228Y-94427595D01*
X96225226Y-94167889D01*
X96349775Y-93891152D01*
X96440059Y-93601421D01*
X96440690Y-93601618D01*
X96474825Y-93542991D01*
X96538048Y-93510690D01*
X96561440Y-93508500D01*
X107853555Y-93508500D01*
X107921676Y-93528502D01*
G37*
G04 #@! TD.AperFunction*
M02*
