M48
; DRILL file {KiCad (6.0.8)} date Sun Nov 27 14:47:49 2022
; FORMAT={-:-/ absolute / metric / decimal}
; #@! TF.CreationDate,2022-11-27T14:47:49-08:00
; #@! TF.GenerationSoftware,Kicad,Pcbnew,(6.0.8)
; #@! TF.FileFunction,Plated,1,4,PTH
FMAT,2
METRIC
; #@! TA.AperFunction,Plated,PTH,ViaDrill
T1C0.200
; #@! TA.AperFunction,Plated,PTH,ViaDrill
T2C0.400
; #@! TA.AperFunction,Plated,PTH,ViaDrill
T3C0.600
; #@! TA.AperFunction,Plated,PTH,ComponentDrill
T4C0.600
; #@! TA.AperFunction,Plated,PTH,ComponentDrill
T5C0.850
; #@! TA.AperFunction,Plated,PTH,ComponentDrill
T6C0.950
; #@! TA.AperFunction,Plated,PTH,ComponentDrill
T7C1.992
; #@! TA.AperFunction,Plated,PTH,ComponentDrill
T8C2.300
; #@! TA.AperFunction,Plated,PTH,ComponentDrill
T9C2.909
%
G90
G05
T1
X98.75Y-145.56
X100.69Y-124.38
X100.72Y-144.81
X100.75Y-141.85
X101.39Y-124.64
X101.445Y-145.415
X101.53Y-140.46
X102.2Y-147.041
X103.29Y-136.96
X107.3Y-128.22
X107.729Y-152.06
X107.791Y-129.57
X108.132Y-152.637
X108.31Y-126.573
X108.84Y-150.298
X109.219Y-127.89
X109.39Y-149.8
X109.47Y-126.69
X109.946Y-126.172
X110.056Y-149.249
X110.309Y-148.593
X110.51Y-104.52
X111.1Y-147.0
X111.108Y-147.758
X111.367Y-124.693
X111.4Y-106.89
X111.74Y-125.56
X114.581Y-117.341
X114.66Y-113.28
X114.991Y-117.912
X119.99Y-129.92
X120.47Y-127.48
X122.74Y-124.64
X125.08Y-131.97
X130.2Y-101.78
X130.24Y-115.62
X131.06Y-103.25
X131.144Y-148.884
X131.844Y-148.814
X131.97Y-115.64
X132.95Y-135.92
X134.875Y-122.345
X135.275Y-131.915
X135.6Y-128.64
X140.61Y-124.78
X141.08Y-139.23
X141.17Y-121.93
X144.35Y-109.46
X144.91Y-100.49
X146.25Y-154.25
X146.81Y-124.9
X147.8Y-147.7
X147.85Y-109.6
X147.93Y-116.81
X149.439Y-107.228
X149.916Y-107.851
X154.42Y-109.02
X158.0Y-123.29
X160.044Y-133.421
X160.045Y-134.125
X160.99Y-163.07
T2
X99.91Y-108.69
X101.37Y-120.749
X102.54Y-124.157
X102.54Y-125.5
X102.54Y-127.0
X102.54Y-128.5
X102.85Y-148.25
X102.85Y-149.25
X102.85Y-150.75
X102.85Y-152.0
X104.74Y-106.29
X107.75Y-108.25
X113.0Y-101.75
X114.1Y-145.0
X115.5Y-100.319
X115.5Y-103.75
X118.5Y-128.0
X118.5Y-132.5
X119.25Y-100.75
X121.75Y-108.0
X123.0Y-105.75
X123.0Y-111.0
X123.5Y-130.25
X124.5Y-105.25
X124.75Y-111.0
X127.0Y-107.5
X127.5Y-108.25
X127.5Y-109.75
X127.5Y-131.25
X127.5Y-132.5
X127.75Y-128.75
X129.26Y-126.42
X130.75Y-134.25
X132.25Y-134.5
X133.0Y-100.25
X133.292Y-125.231
X134.0Y-134.75
X134.95Y-126.22
X135.53Y-127.47
X140.75Y-100.25
X142.5Y-101.5
X144.83Y-142.21
X145.0Y-165.0
X146.25Y-121.5
X147.75Y-105.0
X148.0Y-122.0
X149.0Y-157.0
X152.0Y-105.25
X152.0Y-107.0
X152.25Y-103.75
X154.25Y-100.25
X155.0Y-102.5
X155.25Y-163.5
X156.5Y-99.0
X157.7Y-134.2
X157.75Y-126.5
X159.7Y-106.9
X162.25Y-139.0
X162.93Y-131.75
X163.0Y-104.5
X163.25Y-163.74
X163.5Y-126.75
X163.5Y-161.99
X165.0Y-123.5
T3
X166.25Y-116.75
T5
X98.212Y-104.05
X98.212Y-109.05
X164.767Y-104.05
X164.767Y-109.05
X164.767Y-131.0
X164.767Y-136.0
T6
X127.92Y-154.78
X130.42Y-154.78
X132.42Y-154.78
X134.92Y-154.78
X155.78Y-145.66
X155.78Y-148.16
X155.78Y-150.16
X155.78Y-152.66
T7
X98.695Y-117.23
X98.695Y-131.73
X98.695Y-141.179
X98.695Y-155.679
T8
X124.85Y-157.49
X137.99Y-157.49
X158.49Y-142.59
X158.49Y-155.73
T9
X104.655Y-117.23
X104.655Y-131.73
X104.655Y-141.179
X104.655Y-155.679
T4
X95.162Y-103.05G85X95.862Y-103.05
G05
X95.862Y-110.05G85X95.162Y-110.05
G05
X167.117Y-103.05G85X167.817Y-103.05
G05
X167.817Y-110.05G85X167.117Y-110.05
G05
X167.117Y-130.0G85X167.817Y-130.0
G05
X167.817Y-137.0G85X167.117Y-137.0
G05
T0
M30
