G04 #@! TF.GenerationSoftware,KiCad,Pcbnew,(6.0.8)*
G04 #@! TF.CreationDate,2022-12-11T15:33:22-08:00*
G04 #@! TF.ProjectId,EasyKVM,45617379-4b56-44d2-9e6b-696361645f70,rev?*
G04 #@! TF.SameCoordinates,Original*
G04 #@! TF.FileFunction,Copper,L2,Inr*
G04 #@! TF.FilePolarity,Positive*
%FSLAX46Y46*%
G04 Gerber Fmt 4.6, Leading zero omitted, Abs format (unit mm)*
G04 Created by KiCad (PCBNEW (6.0.8)) date 2022-12-11 15:33:22*
%MOMM*%
%LPD*%
G01*
G04 APERTURE LIST*
G04 #@! TA.AperFunction,ComponentPad*
%ADD10C,4.275000*%
G04 #@! TD*
G04 #@! TA.AperFunction,ComponentPad*
%ADD11C,2.880000*%
G04 #@! TD*
G04 #@! TA.AperFunction,ComponentPad*
%ADD12O,1.900000X1.200000*%
G04 #@! TD*
G04 #@! TA.AperFunction,ComponentPad*
%ADD13C,1.450000*%
G04 #@! TD*
G04 #@! TA.AperFunction,ComponentPad*
%ADD14R,1.600000X1.500000*%
G04 #@! TD*
G04 #@! TA.AperFunction,ComponentPad*
%ADD15C,1.600000*%
G04 #@! TD*
G04 #@! TA.AperFunction,ComponentPad*
%ADD16C,3.000000*%
G04 #@! TD*
G04 #@! TA.AperFunction,ComponentPad*
%ADD17R,1.500000X1.600000*%
G04 #@! TD*
G04 #@! TA.AperFunction,ViaPad*
%ADD18C,0.450000*%
G04 #@! TD*
G04 #@! TA.AperFunction,ViaPad*
%ADD19C,0.800000*%
G04 #@! TD*
G04 #@! TA.AperFunction,ViaPad*
%ADD20C,1.000000*%
G04 #@! TD*
G04 APERTURE END LIST*
D10*
X104655000Y-117230000D03*
X104655000Y-131730000D03*
D11*
X98695000Y-117230000D03*
X98695000Y-131730000D03*
D12*
X167467500Y-137000000D03*
X167467500Y-130000000D03*
D13*
X164767500Y-136000000D03*
X164767500Y-131000000D03*
D10*
X104655000Y-141179500D03*
X104655000Y-155679500D03*
D11*
X98695000Y-141179500D03*
X98695000Y-155679500D03*
D12*
X95512500Y-103050000D03*
D13*
X98212500Y-104050000D03*
D12*
X95512500Y-110050000D03*
D13*
X98212500Y-109050000D03*
D14*
X127920000Y-154780000D03*
D15*
X130420000Y-154780000D03*
X132420000Y-154780000D03*
X134920000Y-154780000D03*
D16*
X124850000Y-157490000D03*
X137990000Y-157490000D03*
D17*
X155780000Y-152660000D03*
D15*
X155780000Y-150160000D03*
X155780000Y-148160000D03*
X155780000Y-145660000D03*
D16*
X158490000Y-142590000D03*
X158490000Y-155730000D03*
D12*
X167467500Y-103050000D03*
D13*
X164767500Y-109050000D03*
D12*
X167467500Y-110050000D03*
D13*
X164767500Y-104050000D03*
D18*
X157250000Y-165250000D03*
X159750000Y-163000000D03*
X134875000Y-122345000D03*
D19*
X118500000Y-128000000D03*
D18*
X135275000Y-131915000D03*
D19*
X156500000Y-99000000D03*
D20*
X166250000Y-116750000D03*
D19*
X115500000Y-100318500D03*
X115500000Y-103750000D03*
X152000000Y-105250000D03*
X152250000Y-103750000D03*
X140750000Y-100250000D03*
X142500000Y-101500000D03*
X163500000Y-126750000D03*
D18*
X125080000Y-131970000D03*
D19*
X146250000Y-121500000D03*
X154250000Y-100250000D03*
X118500000Y-132500000D03*
D18*
X146810000Y-124900000D03*
X141170000Y-121930000D03*
X147000000Y-158500000D03*
X131970000Y-115640000D03*
X140610000Y-124780000D03*
X144350000Y-109460000D03*
X144910000Y-100490000D03*
X158000000Y-123290000D03*
X154420000Y-109020000D03*
X147850000Y-109600000D03*
X147930000Y-116810000D03*
D19*
X123000000Y-105750000D03*
X124500000Y-105250000D03*
D18*
X147800000Y-147700000D03*
D19*
X127500000Y-131250000D03*
X149500000Y-155750000D03*
X104740000Y-106290000D03*
X133291782Y-125230816D03*
X113000000Y-101750000D03*
X144000000Y-143750000D03*
X127750000Y-128750000D03*
X121750000Y-108000000D03*
X129260000Y-126420000D03*
X127500000Y-109750000D03*
X114100000Y-145000000D03*
X102850000Y-148250000D03*
X135530483Y-127469517D03*
X147750000Y-105000000D03*
X155250000Y-163500000D03*
X102850000Y-149250000D03*
X102850000Y-152000000D03*
X102850000Y-150750000D03*
X148000000Y-122000000D03*
X159700000Y-106900000D03*
X99910000Y-108690000D03*
X102540000Y-125500000D03*
X127500000Y-108250000D03*
X157750000Y-126500000D03*
X133000000Y-100250000D03*
X107750000Y-108250000D03*
X102540000Y-127000000D03*
X130750000Y-134250000D03*
X134000000Y-134750000D03*
X119250000Y-100750000D03*
X145000000Y-165000000D03*
X134950000Y-126220000D03*
X165000000Y-123500000D03*
X124750000Y-111000000D03*
X132250000Y-134500000D03*
X127500000Y-132500000D03*
X162250000Y-139000000D03*
X152000000Y-107000000D03*
X155000000Y-102500000D03*
D18*
X103290000Y-136960000D03*
D19*
X102540000Y-124156904D03*
X123500000Y-130250000D03*
X157700000Y-134200000D03*
X127000000Y-107500000D03*
X162930000Y-131750000D03*
X163000000Y-104500000D03*
X123000000Y-111000000D03*
X101370000Y-120749500D03*
X102540000Y-128500000D03*
D18*
X132950000Y-135920000D03*
X111400000Y-106890000D03*
X122740000Y-124640000D03*
X131060000Y-103250000D03*
X100720000Y-144810000D03*
X100750000Y-141850000D03*
X101444760Y-145415240D03*
X101530000Y-140460000D03*
X119990000Y-129920000D03*
X130200000Y-101780000D03*
X135600000Y-128640000D03*
X110510000Y-104520000D03*
X114660000Y-113280000D03*
X120470000Y-127480000D03*
X160044675Y-134124576D03*
X149439300Y-107228431D03*
X160043780Y-133421074D03*
X149915503Y-107851052D03*
X131843884Y-148814353D03*
X114991127Y-117912433D03*
X114581202Y-117340700D03*
X131143849Y-148884120D03*
X107791492Y-129569895D03*
X108131555Y-152636673D03*
X107300000Y-128220000D03*
X107728508Y-152060072D03*
X109219000Y-127890000D03*
X109390000Y-149800000D03*
X108310000Y-126573421D03*
X108840392Y-150298340D03*
X109470000Y-126690000D03*
X110056384Y-149249404D03*
X110308905Y-148592784D03*
X109946311Y-126172271D03*
X111107893Y-147757893D03*
X111740000Y-125560000D03*
X111100000Y-147000000D03*
X111367429Y-124692571D03*
X101390000Y-124640000D03*
X102200000Y-147041000D03*
X100689937Y-124379937D03*
X98750000Y-145560000D03*
X130240000Y-115620000D03*
X139250000Y-139500000D03*
G04 #@! TA.AperFunction,Conductor*
G36*
X107433621Y-93528502D02*
G01*
X107480114Y-93582158D01*
X107491500Y-93634500D01*
X107491500Y-98991377D01*
X107491498Y-98992147D01*
X107491024Y-99069721D01*
X107493491Y-99078352D01*
X107499150Y-99098153D01*
X107502728Y-99114915D01*
X107506920Y-99144187D01*
X107510634Y-99152355D01*
X107510634Y-99152356D01*
X107517548Y-99167562D01*
X107523996Y-99185086D01*
X107531051Y-99209771D01*
X107535843Y-99217365D01*
X107535844Y-99217368D01*
X107546830Y-99234780D01*
X107554969Y-99249863D01*
X107567208Y-99276782D01*
X107573069Y-99283584D01*
X107583970Y-99296235D01*
X107595073Y-99311239D01*
X107608776Y-99332958D01*
X107615501Y-99338897D01*
X107615504Y-99338901D01*
X107630938Y-99352532D01*
X107642982Y-99364724D01*
X107656427Y-99380327D01*
X107656430Y-99380329D01*
X107662287Y-99387127D01*
X107669816Y-99392007D01*
X107669817Y-99392008D01*
X107683835Y-99401094D01*
X107698709Y-99412385D01*
X107711217Y-99423431D01*
X107717951Y-99429378D01*
X107744711Y-99441942D01*
X107759691Y-99450263D01*
X107776983Y-99461471D01*
X107776988Y-99461473D01*
X107784515Y-99466352D01*
X107793108Y-99468922D01*
X107793113Y-99468924D01*
X107809120Y-99473711D01*
X107826564Y-99480372D01*
X107841676Y-99487467D01*
X107841678Y-99487468D01*
X107849800Y-99491281D01*
X107858667Y-99492662D01*
X107858668Y-99492662D01*
X107861353Y-99493080D01*
X107879017Y-99495830D01*
X107895732Y-99499613D01*
X107915466Y-99505515D01*
X107915472Y-99505516D01*
X107924066Y-99508086D01*
X107933037Y-99508141D01*
X107933038Y-99508141D01*
X107943097Y-99508202D01*
X107958506Y-99508296D01*
X107959289Y-99508329D01*
X107960386Y-99508500D01*
X107991377Y-99508500D01*
X107992147Y-99508502D01*
X108065785Y-99508952D01*
X108065786Y-99508952D01*
X108069721Y-99508976D01*
X108071065Y-99508592D01*
X108072410Y-99508500D01*
X114723821Y-99508500D01*
X114791942Y-99528502D01*
X114838435Y-99582158D01*
X114848539Y-99652432D01*
X114817458Y-99718808D01*
X114760960Y-99781556D01*
X114721559Y-99849800D01*
X114675095Y-99930279D01*
X114665473Y-99946944D01*
X114606458Y-100128572D01*
X114605768Y-100135133D01*
X114605768Y-100135135D01*
X114587409Y-100309809D01*
X114586496Y-100318500D01*
X114587186Y-100325065D01*
X114605036Y-100494894D01*
X114606458Y-100508428D01*
X114665473Y-100690056D01*
X114760960Y-100855444D01*
X114765378Y-100860351D01*
X114765379Y-100860352D01*
X114884325Y-100992455D01*
X114888747Y-100997366D01*
X115043248Y-101109618D01*
X115049276Y-101112302D01*
X115049278Y-101112303D01*
X115211681Y-101184609D01*
X115217712Y-101187294D01*
X115311112Y-101207147D01*
X115398056Y-101225628D01*
X115398061Y-101225628D01*
X115404513Y-101227000D01*
X115595487Y-101227000D01*
X115601939Y-101225628D01*
X115601944Y-101225628D01*
X115688888Y-101207147D01*
X115782288Y-101187294D01*
X115788319Y-101184609D01*
X115950722Y-101112303D01*
X115950724Y-101112302D01*
X115956752Y-101109618D01*
X116111253Y-100997366D01*
X116115675Y-100992455D01*
X116234621Y-100860352D01*
X116234622Y-100860351D01*
X116239040Y-100855444D01*
X116334527Y-100690056D01*
X116393542Y-100508428D01*
X116394965Y-100494894D01*
X116412814Y-100325065D01*
X116413504Y-100318500D01*
X116412591Y-100309809D01*
X116394232Y-100135135D01*
X116394232Y-100135133D01*
X116393542Y-100128572D01*
X116334527Y-99946944D01*
X116324906Y-99930279D01*
X116278441Y-99849800D01*
X116239040Y-99781556D01*
X116182542Y-99718808D01*
X116151826Y-99654803D01*
X116160589Y-99584350D01*
X116206052Y-99529818D01*
X116276179Y-99508500D01*
X139913143Y-99508500D01*
X139981264Y-99528502D01*
X140027757Y-99582158D01*
X140037861Y-99652432D01*
X140015138Y-99708416D01*
X140010960Y-99713056D01*
X140007659Y-99718774D01*
X140007658Y-99718775D01*
X139922595Y-99866109D01*
X139915473Y-99878444D01*
X139856458Y-100060072D01*
X139855768Y-100066633D01*
X139855768Y-100066635D01*
X139854542Y-100078302D01*
X139836496Y-100250000D01*
X139837186Y-100256565D01*
X139844386Y-100325065D01*
X139856458Y-100439928D01*
X139915473Y-100621556D01*
X139918776Y-100627278D01*
X139918777Y-100627279D01*
X139941475Y-100666593D01*
X140010960Y-100786944D01*
X140015378Y-100791851D01*
X140015379Y-100791852D01*
X140077057Y-100860352D01*
X140138747Y-100928866D01*
X140293248Y-101041118D01*
X140299276Y-101043802D01*
X140299278Y-101043803D01*
X140461681Y-101116109D01*
X140467712Y-101118794D01*
X140542680Y-101134729D01*
X140648056Y-101157128D01*
X140648061Y-101157128D01*
X140654513Y-101158500D01*
X140845487Y-101158500D01*
X140851939Y-101157128D01*
X140851944Y-101157128D01*
X140957320Y-101134729D01*
X141032288Y-101118794D01*
X141038319Y-101116109D01*
X141200722Y-101043803D01*
X141200724Y-101043802D01*
X141206752Y-101041118D01*
X141361253Y-100928866D01*
X141422943Y-100860352D01*
X141484621Y-100791852D01*
X141484622Y-100791851D01*
X141489040Y-100786944D01*
X141558525Y-100666593D01*
X141581223Y-100627279D01*
X141581224Y-100627278D01*
X141584527Y-100621556D01*
X141630621Y-100479694D01*
X144171931Y-100479694D01*
X144187989Y-100643468D01*
X144239932Y-100799615D01*
X144243581Y-100805640D01*
X144320562Y-100932749D01*
X144325179Y-100940373D01*
X144439491Y-101058747D01*
X144577189Y-101148854D01*
X144731428Y-101206215D01*
X144738409Y-101207146D01*
X144738411Y-101207147D01*
X144887561Y-101227048D01*
X144887565Y-101227048D01*
X144894542Y-101227979D01*
X144901553Y-101227341D01*
X144901557Y-101227341D01*
X145051403Y-101213704D01*
X145051404Y-101213704D01*
X145058424Y-101213065D01*
X145103752Y-101198337D01*
X145208230Y-101164390D01*
X145208233Y-101164389D01*
X145214929Y-101162213D01*
X145356279Y-101077951D01*
X145475449Y-100964468D01*
X145491458Y-100940373D01*
X145562614Y-100833275D01*
X145562615Y-100833273D01*
X145566515Y-100827403D01*
X145624951Y-100673568D01*
X145643528Y-100541387D01*
X145647302Y-100514534D01*
X145647303Y-100514527D01*
X145647853Y-100510610D01*
X145648141Y-100490000D01*
X145629798Y-100326466D01*
X145623998Y-100309809D01*
X145603170Y-100250000D01*
X153336496Y-100250000D01*
X153337186Y-100256565D01*
X153344386Y-100325065D01*
X153356458Y-100439928D01*
X153415473Y-100621556D01*
X153418776Y-100627278D01*
X153418777Y-100627279D01*
X153441475Y-100666593D01*
X153510960Y-100786944D01*
X153515378Y-100791851D01*
X153515379Y-100791852D01*
X153577057Y-100860352D01*
X153638747Y-100928866D01*
X153793248Y-101041118D01*
X153799276Y-101043802D01*
X153799278Y-101043803D01*
X153961681Y-101116109D01*
X153967712Y-101118794D01*
X154042680Y-101134729D01*
X154148056Y-101157128D01*
X154148061Y-101157128D01*
X154154513Y-101158500D01*
X154345487Y-101158500D01*
X154351939Y-101157128D01*
X154351944Y-101157128D01*
X154457320Y-101134729D01*
X154532288Y-101118794D01*
X154538319Y-101116109D01*
X154700722Y-101043803D01*
X154700724Y-101043802D01*
X154706752Y-101041118D01*
X154861253Y-100928866D01*
X154922943Y-100860352D01*
X154984621Y-100791852D01*
X154984622Y-100791851D01*
X154989040Y-100786944D01*
X155058525Y-100666593D01*
X155081223Y-100627279D01*
X155081224Y-100627278D01*
X155084527Y-100621556D01*
X155143542Y-100439928D01*
X155155615Y-100325065D01*
X155162814Y-100256565D01*
X155163504Y-100250000D01*
X155145458Y-100078302D01*
X155144232Y-100066635D01*
X155144232Y-100066633D01*
X155143542Y-100060072D01*
X155084527Y-99878444D01*
X155077406Y-99866109D01*
X155031890Y-99787274D01*
X154989040Y-99713056D01*
X154961752Y-99682749D01*
X154865675Y-99576045D01*
X154865674Y-99576044D01*
X154861253Y-99571134D01*
X154753246Y-99492662D01*
X154712094Y-99462763D01*
X154712093Y-99462762D01*
X154706752Y-99458882D01*
X154700724Y-99456198D01*
X154700722Y-99456197D01*
X154538319Y-99383891D01*
X154538318Y-99383891D01*
X154532288Y-99381206D01*
X154424139Y-99358218D01*
X154351944Y-99342872D01*
X154351939Y-99342872D01*
X154345487Y-99341500D01*
X154154513Y-99341500D01*
X154148061Y-99342872D01*
X154148056Y-99342872D01*
X154075861Y-99358218D01*
X153967712Y-99381206D01*
X153961682Y-99383891D01*
X153961681Y-99383891D01*
X153799278Y-99456197D01*
X153799276Y-99456198D01*
X153793248Y-99458882D01*
X153787907Y-99462762D01*
X153787906Y-99462763D01*
X153746754Y-99492662D01*
X153638747Y-99571134D01*
X153634326Y-99576044D01*
X153634325Y-99576045D01*
X153538249Y-99682749D01*
X153510960Y-99713056D01*
X153468110Y-99787274D01*
X153422595Y-99866109D01*
X153415473Y-99878444D01*
X153356458Y-100060072D01*
X153355768Y-100066633D01*
X153355768Y-100066635D01*
X153354542Y-100078302D01*
X153336496Y-100250000D01*
X145603170Y-100250000D01*
X145577998Y-100177717D01*
X145575680Y-100171060D01*
X145553232Y-100135135D01*
X145492209Y-100037479D01*
X145488476Y-100031505D01*
X145413517Y-99956021D01*
X145377486Y-99919737D01*
X145377482Y-99919734D01*
X145372522Y-99914739D01*
X145233580Y-99826563D01*
X145184447Y-99809068D01*
X145085189Y-99773723D01*
X145085187Y-99773722D01*
X145078555Y-99771361D01*
X145071569Y-99770528D01*
X145071565Y-99770527D01*
X144980233Y-99759637D01*
X144914960Y-99731710D01*
X144910077Y-99724500D01*
X144862003Y-99755396D01*
X144839675Y-99759810D01*
X144751495Y-99769078D01*
X144744827Y-99771348D01*
X144602382Y-99819840D01*
X144602379Y-99819841D01*
X144595715Y-99822110D01*
X144455555Y-99908337D01*
X144443914Y-99919737D01*
X144353599Y-100008180D01*
X144337982Y-100023473D01*
X144248838Y-100161797D01*
X144246427Y-100168420D01*
X144246426Y-100168423D01*
X144194966Y-100309809D01*
X144194965Y-100309814D01*
X144192556Y-100316432D01*
X144171931Y-100479694D01*
X141630621Y-100479694D01*
X141643542Y-100439928D01*
X141655615Y-100325065D01*
X141662814Y-100256565D01*
X141663504Y-100250000D01*
X141645458Y-100078302D01*
X141644232Y-100066635D01*
X141644232Y-100066633D01*
X141643542Y-100060072D01*
X141584527Y-99878444D01*
X141577406Y-99866109D01*
X141492342Y-99718775D01*
X141492341Y-99718774D01*
X141489040Y-99713056D01*
X141484874Y-99708429D01*
X141461062Y-99641693D01*
X141477143Y-99572541D01*
X141528057Y-99523061D01*
X141586857Y-99508500D01*
X144826505Y-99508500D01*
X144894626Y-99528502D01*
X144908453Y-99544459D01*
X144910367Y-99541316D01*
X144974218Y-99510274D01*
X144995921Y-99508525D01*
X145069721Y-99508976D01*
X145098152Y-99500850D01*
X145114915Y-99497272D01*
X145115753Y-99497152D01*
X145144187Y-99493080D01*
X145167564Y-99482451D01*
X145185087Y-99476004D01*
X145209771Y-99468949D01*
X145217365Y-99464157D01*
X145217368Y-99464156D01*
X145234780Y-99453170D01*
X145249865Y-99445030D01*
X145276782Y-99432792D01*
X145296235Y-99416030D01*
X145311239Y-99404927D01*
X145332958Y-99391224D01*
X145338897Y-99384499D01*
X145338901Y-99384496D01*
X145352532Y-99369062D01*
X145364724Y-99357018D01*
X145380327Y-99343573D01*
X145380329Y-99343570D01*
X145387127Y-99337713D01*
X145401094Y-99316165D01*
X145412385Y-99301291D01*
X145423431Y-99288783D01*
X145423432Y-99288782D01*
X145429378Y-99282049D01*
X145441943Y-99255287D01*
X145450263Y-99240309D01*
X145461471Y-99223017D01*
X145461473Y-99223012D01*
X145466352Y-99215485D01*
X145468922Y-99206892D01*
X145468924Y-99206887D01*
X145473711Y-99190880D01*
X145480372Y-99173436D01*
X145487467Y-99158324D01*
X145487468Y-99158322D01*
X145491281Y-99150200D01*
X145495830Y-99120983D01*
X145499613Y-99104268D01*
X145505515Y-99084534D01*
X145505516Y-99084528D01*
X145508086Y-99075934D01*
X145508296Y-99041494D01*
X145508329Y-99040711D01*
X145508500Y-99039614D01*
X145508500Y-99008623D01*
X145508502Y-99007853D01*
X145508550Y-99000000D01*
X155586496Y-99000000D01*
X155587186Y-99006565D01*
X155604725Y-99173436D01*
X155606458Y-99189928D01*
X155665473Y-99371556D01*
X155668776Y-99377278D01*
X155668777Y-99377279D01*
X155689046Y-99412385D01*
X155760960Y-99536944D01*
X155765378Y-99541851D01*
X155765379Y-99541852D01*
X155869584Y-99657583D01*
X155888747Y-99678866D01*
X155949792Y-99723218D01*
X156026341Y-99778834D01*
X156043248Y-99791118D01*
X156049276Y-99793802D01*
X156049278Y-99793803D01*
X156188556Y-99855813D01*
X156217712Y-99868794D01*
X156292680Y-99884729D01*
X156398056Y-99907128D01*
X156398061Y-99907128D01*
X156404513Y-99908500D01*
X156595487Y-99908500D01*
X156601939Y-99907128D01*
X156601944Y-99907128D01*
X156707320Y-99884729D01*
X156782288Y-99868794D01*
X156811444Y-99855813D01*
X156950722Y-99793803D01*
X156950724Y-99793802D01*
X156956752Y-99791118D01*
X156973660Y-99778834D01*
X157050208Y-99723218D01*
X157111253Y-99678866D01*
X157130416Y-99657583D01*
X157234621Y-99541852D01*
X157234622Y-99541851D01*
X157239040Y-99536944D01*
X157310954Y-99412385D01*
X157331223Y-99377279D01*
X157331224Y-99377278D01*
X157334527Y-99371556D01*
X157393542Y-99189928D01*
X157395276Y-99173436D01*
X157412814Y-99006565D01*
X157413504Y-99000000D01*
X157406001Y-98928614D01*
X157394232Y-98816635D01*
X157394232Y-98816633D01*
X157393542Y-98810072D01*
X157334527Y-98628444D01*
X157330694Y-98621804D01*
X157242341Y-98468774D01*
X157239040Y-98463056D01*
X157111253Y-98321134D01*
X156956752Y-98208882D01*
X156950724Y-98206198D01*
X156950722Y-98206197D01*
X156788319Y-98133891D01*
X156788318Y-98133891D01*
X156782288Y-98131206D01*
X156688887Y-98111353D01*
X156601944Y-98092872D01*
X156601939Y-98092872D01*
X156595487Y-98091500D01*
X156404513Y-98091500D01*
X156398061Y-98092872D01*
X156398056Y-98092872D01*
X156311113Y-98111353D01*
X156217712Y-98131206D01*
X156211682Y-98133891D01*
X156211681Y-98133891D01*
X156049278Y-98206197D01*
X156049276Y-98206198D01*
X156043248Y-98208882D01*
X155888747Y-98321134D01*
X155760960Y-98463056D01*
X155757659Y-98468774D01*
X155669307Y-98621804D01*
X155665473Y-98628444D01*
X155606458Y-98810072D01*
X155605768Y-98816633D01*
X155605768Y-98816635D01*
X155593999Y-98928614D01*
X155586496Y-99000000D01*
X145508550Y-99000000D01*
X145508952Y-98934215D01*
X145508952Y-98934214D01*
X145508976Y-98930279D01*
X145508592Y-98928935D01*
X145508500Y-98927590D01*
X145508500Y-93634500D01*
X145528502Y-93566379D01*
X145582158Y-93519886D01*
X145634500Y-93508500D01*
X161390492Y-93508500D01*
X161458613Y-93528502D01*
X161505106Y-93582158D01*
X161515831Y-93621615D01*
X161557095Y-94023004D01*
X161644259Y-94528541D01*
X161765718Y-95026951D01*
X161920907Y-95515910D01*
X162109102Y-95993140D01*
X162329425Y-96456413D01*
X162330479Y-96458288D01*
X162330486Y-96458301D01*
X162579799Y-96901704D01*
X162579808Y-96901719D01*
X162580850Y-96903572D01*
X162582023Y-96905361D01*
X162582024Y-96905362D01*
X162861012Y-97330715D01*
X162861020Y-97330726D01*
X162862203Y-97332530D01*
X163172174Y-97741288D01*
X163509317Y-98127940D01*
X163872060Y-98490683D01*
X164258712Y-98827826D01*
X164667470Y-99137797D01*
X164669274Y-99138980D01*
X164669285Y-99138988D01*
X165076663Y-99406186D01*
X165096428Y-99419150D01*
X165098281Y-99420192D01*
X165098296Y-99420201D01*
X165541699Y-99669514D01*
X165541712Y-99669521D01*
X165543587Y-99670575D01*
X166006860Y-99890898D01*
X166484090Y-100079093D01*
X166973049Y-100234282D01*
X166975149Y-100234794D01*
X166975157Y-100234796D01*
X167469348Y-100355227D01*
X167469360Y-100355230D01*
X167471459Y-100355741D01*
X167473580Y-100356107D01*
X167473591Y-100356109D01*
X167974866Y-100442538D01*
X167974873Y-100442539D01*
X167976996Y-100442905D01*
X167979154Y-100443127D01*
X167979155Y-100443127D01*
X168378385Y-100484169D01*
X168444103Y-100511032D01*
X168484865Y-100569161D01*
X168491500Y-100609508D01*
X168491500Y-101939859D01*
X168471498Y-102007980D01*
X168417842Y-102054473D01*
X168347568Y-102064577D01*
X168318402Y-102056725D01*
X168139332Y-101984558D01*
X168139329Y-101984557D01*
X168133763Y-101982314D01*
X167926163Y-101941772D01*
X167920601Y-101941500D01*
X167064654Y-101941500D01*
X166906934Y-101956548D01*
X166703966Y-102016092D01*
X166698639Y-102018836D01*
X166698638Y-102018836D01*
X166521251Y-102110196D01*
X166521248Y-102110198D01*
X166515920Y-102112942D01*
X166349580Y-102243604D01*
X166345648Y-102248135D01*
X166345645Y-102248138D01*
X166249670Y-102358740D01*
X166210948Y-102403363D01*
X166207948Y-102408549D01*
X166207945Y-102408553D01*
X166114972Y-102569264D01*
X166105027Y-102586454D01*
X166035639Y-102786271D01*
X166034778Y-102792206D01*
X166034778Y-102792208D01*
X166007429Y-102980834D01*
X166005287Y-102995604D01*
X166015067Y-103206899D01*
X166016471Y-103212724D01*
X166016471Y-103212725D01*
X166033491Y-103283347D01*
X166030006Y-103354258D01*
X165988737Y-103412028D01*
X165922786Y-103438315D01*
X165853093Y-103424774D01*
X165807785Y-103385139D01*
X165719184Y-103258604D01*
X165719182Y-103258601D01*
X165716025Y-103254093D01*
X165563407Y-103101475D01*
X165527090Y-103076045D01*
X165485594Y-103046990D01*
X165386606Y-102977677D01*
X165381624Y-102975354D01*
X165381619Y-102975351D01*
X165195975Y-102888784D01*
X165195974Y-102888783D01*
X165190993Y-102886461D01*
X165185685Y-102885039D01*
X165185683Y-102885038D01*
X164987828Y-102832023D01*
X164987826Y-102832023D01*
X164982513Y-102830599D01*
X164767500Y-102811788D01*
X164552487Y-102830599D01*
X164547174Y-102832023D01*
X164547172Y-102832023D01*
X164349317Y-102885038D01*
X164349315Y-102885039D01*
X164344007Y-102886461D01*
X164339026Y-102888783D01*
X164339025Y-102888784D01*
X164153381Y-102975351D01*
X164153376Y-102975354D01*
X164148394Y-102977677D01*
X164049406Y-103046990D01*
X164007911Y-103076045D01*
X163971593Y-103101475D01*
X163818975Y-103254093D01*
X163815818Y-103258601D01*
X163815816Y-103258604D01*
X163804662Y-103274534D01*
X163695177Y-103430894D01*
X163692854Y-103435876D01*
X163692851Y-103435881D01*
X163619457Y-103593275D01*
X163603961Y-103626507D01*
X163602539Y-103631815D01*
X163602538Y-103631817D01*
X163557109Y-103801361D01*
X163548099Y-103834987D01*
X163529288Y-104050000D01*
X163548099Y-104265013D01*
X163549523Y-104270326D01*
X163549523Y-104270328D01*
X163571789Y-104353424D01*
X163603961Y-104473493D01*
X163606283Y-104478474D01*
X163606284Y-104478475D01*
X163692851Y-104664119D01*
X163692854Y-104664124D01*
X163695177Y-104669106D01*
X163729955Y-104718774D01*
X163802886Y-104822929D01*
X163818975Y-104845907D01*
X163971593Y-104998525D01*
X164148394Y-105122323D01*
X164153376Y-105124646D01*
X164153381Y-105124649D01*
X164339025Y-105211216D01*
X164344007Y-105213539D01*
X164349315Y-105214961D01*
X164349317Y-105214962D01*
X164547172Y-105267977D01*
X164547174Y-105267977D01*
X164552487Y-105269401D01*
X164767500Y-105288212D01*
X164982513Y-105269401D01*
X164987826Y-105267977D01*
X164987828Y-105267977D01*
X165185683Y-105214962D01*
X165185685Y-105214961D01*
X165190993Y-105213539D01*
X165195975Y-105211216D01*
X165381619Y-105124649D01*
X165381624Y-105124646D01*
X165386606Y-105122323D01*
X165563407Y-104998525D01*
X165716025Y-104845907D01*
X165732115Y-104822929D01*
X165805045Y-104718774D01*
X165839823Y-104669106D01*
X165842146Y-104664124D01*
X165842149Y-104664119D01*
X165928716Y-104478475D01*
X165928717Y-104478474D01*
X165931039Y-104473493D01*
X165963212Y-104353424D01*
X165985477Y-104270328D01*
X165985477Y-104270326D01*
X165986901Y-104265013D01*
X166005712Y-104050000D01*
X165986901Y-103834987D01*
X165977891Y-103801361D01*
X165969278Y-103769216D01*
X165970968Y-103698239D01*
X166010762Y-103639444D01*
X166076027Y-103611496D01*
X166146040Y-103623270D01*
X166193754Y-103663704D01*
X166274554Y-103777611D01*
X166427350Y-103923881D01*
X166605048Y-104038620D01*
X166656600Y-104059396D01*
X166795668Y-104115442D01*
X166795671Y-104115443D01*
X166801237Y-104117686D01*
X167008837Y-104158228D01*
X167014399Y-104158500D01*
X167870346Y-104158500D01*
X168028066Y-104143452D01*
X168231034Y-104083908D01*
X168282559Y-104057371D01*
X168307808Y-104044367D01*
X168377527Y-104030958D01*
X168443428Y-104057371D01*
X168484587Y-104115220D01*
X168491500Y-104156383D01*
X168491500Y-108939859D01*
X168471498Y-109007980D01*
X168417842Y-109054473D01*
X168347568Y-109064577D01*
X168318402Y-109056725D01*
X168139332Y-108984558D01*
X168139329Y-108984557D01*
X168133763Y-108982314D01*
X167926163Y-108941772D01*
X167920601Y-108941500D01*
X167064654Y-108941500D01*
X166906934Y-108956548D01*
X166703966Y-109016092D01*
X166698639Y-109018836D01*
X166698638Y-109018836D01*
X166521251Y-109110196D01*
X166521248Y-109110198D01*
X166515920Y-109112942D01*
X166349580Y-109243604D01*
X166345648Y-109248135D01*
X166345645Y-109248138D01*
X166250830Y-109357403D01*
X166210948Y-109403363D01*
X166207946Y-109408553D01*
X166202186Y-109418508D01*
X166150759Y-109467455D01*
X166081033Y-109480828D01*
X166015146Y-109454381D01*
X165974017Y-109396511D01*
X165971418Y-109322797D01*
X165985476Y-109270335D01*
X165985478Y-109270324D01*
X165986901Y-109265013D01*
X166005712Y-109050000D01*
X165986901Y-108834987D01*
X165985477Y-108829672D01*
X165932462Y-108631817D01*
X165932461Y-108631815D01*
X165931039Y-108626507D01*
X165913266Y-108588393D01*
X165842149Y-108435881D01*
X165842146Y-108435876D01*
X165839823Y-108430894D01*
X165752715Y-108306491D01*
X165719184Y-108258604D01*
X165719182Y-108258601D01*
X165716025Y-108254093D01*
X165563407Y-108101475D01*
X165386606Y-107977677D01*
X165381624Y-107975354D01*
X165381619Y-107975351D01*
X165195975Y-107888784D01*
X165195974Y-107888783D01*
X165190993Y-107886461D01*
X165185685Y-107885039D01*
X165185683Y-107885038D01*
X164987828Y-107832023D01*
X164987826Y-107832023D01*
X164982513Y-107830599D01*
X164767500Y-107811788D01*
X164552487Y-107830599D01*
X164547174Y-107832023D01*
X164547172Y-107832023D01*
X164349317Y-107885038D01*
X164349315Y-107885039D01*
X164344007Y-107886461D01*
X164339026Y-107888783D01*
X164339025Y-107888784D01*
X164153381Y-107975351D01*
X164153376Y-107975354D01*
X164148394Y-107977677D01*
X163971593Y-108101475D01*
X163818975Y-108254093D01*
X163815818Y-108258601D01*
X163815816Y-108258604D01*
X163782285Y-108306491D01*
X163695177Y-108430894D01*
X163692854Y-108435876D01*
X163692851Y-108435881D01*
X163621734Y-108588393D01*
X163603961Y-108626507D01*
X163602539Y-108631815D01*
X163602538Y-108631817D01*
X163549523Y-108829672D01*
X163548099Y-108834987D01*
X163529288Y-109050000D01*
X163548099Y-109265013D01*
X163549523Y-109270326D01*
X163549523Y-109270328D01*
X163600495Y-109460556D01*
X163603961Y-109473493D01*
X163606283Y-109478474D01*
X163606284Y-109478475D01*
X163692851Y-109664119D01*
X163692854Y-109664124D01*
X163695177Y-109669106D01*
X163754248Y-109753468D01*
X163789124Y-109803275D01*
X163818975Y-109845907D01*
X163971593Y-109998525D01*
X163976101Y-110001682D01*
X163976104Y-110001684D01*
X164042180Y-110047951D01*
X164148394Y-110122323D01*
X164153376Y-110124646D01*
X164153381Y-110124649D01*
X164316922Y-110200909D01*
X164344007Y-110213539D01*
X164349315Y-110214961D01*
X164349317Y-110214962D01*
X164547172Y-110267977D01*
X164547174Y-110267977D01*
X164552487Y-110269401D01*
X164767500Y-110288212D01*
X164982513Y-110269401D01*
X164987826Y-110267977D01*
X164987828Y-110267977D01*
X165185683Y-110214962D01*
X165185685Y-110214961D01*
X165190993Y-110213539D01*
X165218078Y-110200909D01*
X165381619Y-110124649D01*
X165381624Y-110124646D01*
X165386606Y-110122323D01*
X165492820Y-110047951D01*
X165558896Y-110001684D01*
X165558899Y-110001682D01*
X165563407Y-109998525D01*
X165716025Y-109845907D01*
X165745877Y-109803275D01*
X165780752Y-109753468D01*
X165804253Y-109719905D01*
X165859709Y-109675578D01*
X165930328Y-109668269D01*
X165993689Y-109700300D01*
X166029674Y-109761501D01*
X166032161Y-109810257D01*
X166015003Y-109928597D01*
X166005287Y-109995604D01*
X166015067Y-110206899D01*
X166016471Y-110212724D01*
X166016471Y-110212725D01*
X166029939Y-110268607D01*
X166064625Y-110412534D01*
X166067107Y-110417992D01*
X166067108Y-110417996D01*
X166110553Y-110513546D01*
X166152174Y-110605087D01*
X166274554Y-110777611D01*
X166427350Y-110923881D01*
X166605048Y-111038620D01*
X166665146Y-111062840D01*
X166795668Y-111115442D01*
X166795671Y-111115443D01*
X166801237Y-111117686D01*
X167008837Y-111158228D01*
X167014399Y-111158500D01*
X167870346Y-111158500D01*
X168028066Y-111143452D01*
X168231034Y-111083908D01*
X168289906Y-111053587D01*
X168307808Y-111044367D01*
X168377527Y-111030958D01*
X168443428Y-111057371D01*
X168484587Y-111115220D01*
X168491500Y-111156383D01*
X168491500Y-128889859D01*
X168471498Y-128957980D01*
X168417842Y-129004473D01*
X168347568Y-129014577D01*
X168318402Y-129006725D01*
X168139332Y-128934558D01*
X168139329Y-128934557D01*
X168133763Y-128932314D01*
X167926163Y-128891772D01*
X167920601Y-128891500D01*
X167064654Y-128891500D01*
X166906934Y-128906548D01*
X166703966Y-128966092D01*
X166698639Y-128968836D01*
X166698638Y-128968836D01*
X166521251Y-129060196D01*
X166521248Y-129060198D01*
X166515920Y-129062942D01*
X166349580Y-129193604D01*
X166345648Y-129198135D01*
X166345645Y-129198138D01*
X166256117Y-129301310D01*
X166210948Y-129353363D01*
X166207948Y-129358549D01*
X166207945Y-129358553D01*
X166149606Y-129459396D01*
X166105027Y-129536454D01*
X166035639Y-129736271D01*
X166034778Y-129742206D01*
X166034778Y-129742208D01*
X166006721Y-129935716D01*
X166005287Y-129945604D01*
X166015067Y-130156899D01*
X166016471Y-130162724D01*
X166016471Y-130162725D01*
X166033491Y-130233347D01*
X166030006Y-130304258D01*
X165988737Y-130362028D01*
X165922786Y-130388315D01*
X165853093Y-130374774D01*
X165807785Y-130335139D01*
X165719184Y-130208604D01*
X165719182Y-130208601D01*
X165716025Y-130204093D01*
X165563407Y-130051475D01*
X165553251Y-130044363D01*
X165431648Y-129959216D01*
X165386606Y-129927677D01*
X165381624Y-129925354D01*
X165381619Y-129925351D01*
X165195975Y-129838784D01*
X165195974Y-129838783D01*
X165190993Y-129836461D01*
X165185685Y-129835039D01*
X165185683Y-129835038D01*
X164987828Y-129782023D01*
X164987826Y-129782023D01*
X164982513Y-129780599D01*
X164767500Y-129761788D01*
X164552487Y-129780599D01*
X164547174Y-129782023D01*
X164547172Y-129782023D01*
X164349317Y-129835038D01*
X164349315Y-129835039D01*
X164344007Y-129836461D01*
X164339026Y-129838783D01*
X164339025Y-129838784D01*
X164153381Y-129925351D01*
X164153376Y-129925354D01*
X164148394Y-129927677D01*
X164103352Y-129959216D01*
X163981750Y-130044363D01*
X163971593Y-130051475D01*
X163818975Y-130204093D01*
X163815818Y-130208601D01*
X163815816Y-130208604D01*
X163777535Y-130263275D01*
X163695177Y-130380894D01*
X163692854Y-130385876D01*
X163692851Y-130385881D01*
X163613949Y-130555087D01*
X163603961Y-130576507D01*
X163602539Y-130581815D01*
X163602538Y-130581817D01*
X163574302Y-130687197D01*
X163548099Y-130784987D01*
X163529288Y-131000000D01*
X163548099Y-131215013D01*
X163549523Y-131220326D01*
X163549523Y-131220328D01*
X163599760Y-131407813D01*
X163603961Y-131423493D01*
X163606283Y-131428474D01*
X163606284Y-131428475D01*
X163692851Y-131614119D01*
X163692854Y-131614124D01*
X163695177Y-131619106D01*
X163713367Y-131645084D01*
X163776194Y-131734809D01*
X163818975Y-131795907D01*
X163971593Y-131948525D01*
X163976101Y-131951682D01*
X163976104Y-131951684D01*
X164026039Y-131986649D01*
X164148394Y-132072323D01*
X164153376Y-132074646D01*
X164153381Y-132074649D01*
X164307666Y-132146593D01*
X164344007Y-132163539D01*
X164349315Y-132164961D01*
X164349317Y-132164962D01*
X164547172Y-132217977D01*
X164547174Y-132217977D01*
X164552487Y-132219401D01*
X164767500Y-132238212D01*
X164982513Y-132219401D01*
X164987826Y-132217977D01*
X164987828Y-132217977D01*
X165185683Y-132164962D01*
X165185685Y-132164961D01*
X165190993Y-132163539D01*
X165227334Y-132146593D01*
X165381619Y-132074649D01*
X165381624Y-132074646D01*
X165386606Y-132072323D01*
X165508961Y-131986649D01*
X165558896Y-131951684D01*
X165558899Y-131951682D01*
X165563407Y-131948525D01*
X165716025Y-131795907D01*
X165758807Y-131734809D01*
X165821633Y-131645084D01*
X165839823Y-131619106D01*
X165842146Y-131614124D01*
X165842149Y-131614119D01*
X165928716Y-131428475D01*
X165928717Y-131428474D01*
X165931039Y-131423493D01*
X165935241Y-131407813D01*
X165985477Y-131220328D01*
X165985477Y-131220326D01*
X165986901Y-131215013D01*
X166005712Y-131000000D01*
X165986901Y-130784987D01*
X165969278Y-130719216D01*
X165970968Y-130648239D01*
X166010762Y-130589444D01*
X166076027Y-130561496D01*
X166146040Y-130573270D01*
X166193754Y-130613704D01*
X166274554Y-130727611D01*
X166427350Y-130873881D01*
X166605048Y-130988620D01*
X166665146Y-131012840D01*
X166795668Y-131065442D01*
X166795671Y-131065443D01*
X166801237Y-131067686D01*
X167008837Y-131108228D01*
X167014399Y-131108500D01*
X167870346Y-131108500D01*
X168028066Y-131093452D01*
X168231034Y-131033908D01*
X168286240Y-131005475D01*
X168307808Y-130994367D01*
X168377527Y-130980958D01*
X168443428Y-131007371D01*
X168484587Y-131065220D01*
X168491500Y-131106383D01*
X168491500Y-135889859D01*
X168471498Y-135957980D01*
X168417842Y-136004473D01*
X168347568Y-136014577D01*
X168318402Y-136006725D01*
X168139332Y-135934558D01*
X168139329Y-135934557D01*
X168133763Y-135932314D01*
X167926163Y-135891772D01*
X167920601Y-135891500D01*
X167064654Y-135891500D01*
X166906934Y-135906548D01*
X166703966Y-135966092D01*
X166698639Y-135968836D01*
X166698638Y-135968836D01*
X166521251Y-136060196D01*
X166521248Y-136060198D01*
X166515920Y-136062942D01*
X166349580Y-136193604D01*
X166345648Y-136198135D01*
X166345645Y-136198138D01*
X166227054Y-136334802D01*
X166210948Y-136353363D01*
X166207946Y-136358553D01*
X166202186Y-136368508D01*
X166150759Y-136417455D01*
X166081033Y-136430828D01*
X166015146Y-136404381D01*
X165974017Y-136346511D01*
X165971418Y-136272797D01*
X165985476Y-136220335D01*
X165985478Y-136220324D01*
X165986901Y-136215013D01*
X166005712Y-136000000D01*
X165986901Y-135784987D01*
X165937618Y-135601060D01*
X165932462Y-135581817D01*
X165932461Y-135581815D01*
X165931039Y-135576507D01*
X165928716Y-135571525D01*
X165842149Y-135385881D01*
X165842146Y-135385876D01*
X165839823Y-135380894D01*
X165716025Y-135204093D01*
X165563407Y-135051475D01*
X165386606Y-134927677D01*
X165381624Y-134925354D01*
X165381619Y-134925351D01*
X165195975Y-134838784D01*
X165195974Y-134838783D01*
X165190993Y-134836461D01*
X165185685Y-134835039D01*
X165185683Y-134835038D01*
X164987828Y-134782023D01*
X164987826Y-134782023D01*
X164982513Y-134780599D01*
X164767500Y-134761788D01*
X164552487Y-134780599D01*
X164547174Y-134782023D01*
X164547172Y-134782023D01*
X164349317Y-134835038D01*
X164349315Y-134835039D01*
X164344007Y-134836461D01*
X164339026Y-134838783D01*
X164339025Y-134838784D01*
X164153381Y-134925351D01*
X164153376Y-134925354D01*
X164148394Y-134927677D01*
X163971593Y-135051475D01*
X163818975Y-135204093D01*
X163695177Y-135380894D01*
X163692854Y-135385876D01*
X163692851Y-135385881D01*
X163606284Y-135571525D01*
X163603961Y-135576507D01*
X163602539Y-135581815D01*
X163602538Y-135581817D01*
X163597382Y-135601060D01*
X163548099Y-135784987D01*
X163529288Y-136000000D01*
X163548099Y-136215013D01*
X163549523Y-136220326D01*
X163549523Y-136220328D01*
X163594611Y-136388597D01*
X163603961Y-136423493D01*
X163606283Y-136428474D01*
X163606284Y-136428475D01*
X163692851Y-136614119D01*
X163692854Y-136614124D01*
X163695177Y-136619106D01*
X163818975Y-136795907D01*
X163971593Y-136948525D01*
X164148394Y-137072323D01*
X164153376Y-137074646D01*
X164153381Y-137074649D01*
X164316922Y-137150909D01*
X164344007Y-137163539D01*
X164349315Y-137164961D01*
X164349317Y-137164962D01*
X164547172Y-137217977D01*
X164547174Y-137217977D01*
X164552487Y-137219401D01*
X164767500Y-137238212D01*
X164982513Y-137219401D01*
X164987826Y-137217977D01*
X164987828Y-137217977D01*
X165185683Y-137164962D01*
X165185685Y-137164961D01*
X165190993Y-137163539D01*
X165218078Y-137150909D01*
X165381619Y-137074649D01*
X165381624Y-137074646D01*
X165386606Y-137072323D01*
X165563407Y-136948525D01*
X165716025Y-136795907D01*
X165804253Y-136669905D01*
X165859709Y-136625578D01*
X165930328Y-136618269D01*
X165993689Y-136650300D01*
X166029674Y-136711501D01*
X166032161Y-136760257D01*
X166005287Y-136945604D01*
X166015067Y-137156899D01*
X166064625Y-137362534D01*
X166152174Y-137555087D01*
X166274554Y-137727611D01*
X166427350Y-137873881D01*
X166605048Y-137988620D01*
X166665146Y-138012840D01*
X166795668Y-138065442D01*
X166795671Y-138065443D01*
X166801237Y-138067686D01*
X167008837Y-138108228D01*
X167014399Y-138108500D01*
X167870346Y-138108500D01*
X168028066Y-138093452D01*
X168231034Y-138033908D01*
X168307807Y-137994367D01*
X168377527Y-137980958D01*
X168443428Y-138007371D01*
X168484587Y-138065220D01*
X168491500Y-138106383D01*
X168491500Y-160390492D01*
X168471498Y-160458613D01*
X168417842Y-160505106D01*
X168378385Y-160515831D01*
X167979155Y-160556873D01*
X167976996Y-160557095D01*
X167974873Y-160557461D01*
X167974866Y-160557462D01*
X167473591Y-160643891D01*
X167473580Y-160643893D01*
X167471459Y-160644259D01*
X167469360Y-160644770D01*
X167469348Y-160644773D01*
X166975157Y-160765204D01*
X166975149Y-160765206D01*
X166973049Y-160765718D01*
X166484090Y-160920907D01*
X166006860Y-161109102D01*
X165543587Y-161329425D01*
X165541712Y-161330479D01*
X165541699Y-161330486D01*
X165098296Y-161579799D01*
X165098281Y-161579808D01*
X165096428Y-161580850D01*
X165094639Y-161582023D01*
X165094638Y-161582024D01*
X164669285Y-161861012D01*
X164669274Y-161861020D01*
X164667470Y-161862203D01*
X164258712Y-162172174D01*
X163872060Y-162509317D01*
X163509317Y-162872060D01*
X163172174Y-163258712D01*
X162862203Y-163667470D01*
X162861020Y-163669274D01*
X162861012Y-163669285D01*
X162815956Y-163737979D01*
X162580850Y-164096428D01*
X162579808Y-164098281D01*
X162579799Y-164098296D01*
X162330486Y-164541699D01*
X162330479Y-164541712D01*
X162329425Y-164543587D01*
X162109102Y-165006860D01*
X161920907Y-165484090D01*
X161765718Y-165973049D01*
X161765206Y-165975149D01*
X161765204Y-165975157D01*
X161762080Y-165987979D01*
X161644259Y-166471459D01*
X161557095Y-166976996D01*
X161556873Y-166979154D01*
X161556873Y-166979155D01*
X161515831Y-167378385D01*
X161488968Y-167444103D01*
X161430839Y-167484865D01*
X161390492Y-167491500D01*
X101609508Y-167491500D01*
X101541387Y-167471498D01*
X101494894Y-167417842D01*
X101484169Y-167378385D01*
X101443127Y-166979155D01*
X101443127Y-166979154D01*
X101442905Y-166976996D01*
X101355741Y-166471459D01*
X101237921Y-165987979D01*
X101234796Y-165975157D01*
X101234794Y-165975149D01*
X101234282Y-165973049D01*
X101079093Y-165484090D01*
X100982716Y-165239694D01*
X156511931Y-165239694D01*
X156527989Y-165403468D01*
X156579932Y-165559615D01*
X156665179Y-165700373D01*
X156779491Y-165818747D01*
X156917189Y-165908854D01*
X157071428Y-165966215D01*
X157078409Y-165967146D01*
X157078411Y-165967147D01*
X157227561Y-165987048D01*
X157227565Y-165987048D01*
X157234542Y-165987979D01*
X157241553Y-165987341D01*
X157241557Y-165987341D01*
X157391403Y-165973704D01*
X157391404Y-165973704D01*
X157398424Y-165973065D01*
X157427062Y-165963760D01*
X157548230Y-165924390D01*
X157548233Y-165924389D01*
X157554929Y-165922213D01*
X157696279Y-165837951D01*
X157815449Y-165724468D01*
X157831458Y-165700373D01*
X157902614Y-165593275D01*
X157902615Y-165593273D01*
X157906515Y-165587403D01*
X157964951Y-165433568D01*
X157987853Y-165270610D01*
X157988141Y-165250000D01*
X157969798Y-165086466D01*
X157963998Y-165069809D01*
X157917998Y-164937717D01*
X157915680Y-164931060D01*
X157828476Y-164791505D01*
X157770499Y-164733122D01*
X157717486Y-164679737D01*
X157717482Y-164679734D01*
X157712522Y-164674739D01*
X157573580Y-164586563D01*
X157524447Y-164569068D01*
X157425189Y-164533723D01*
X157425187Y-164533722D01*
X157418555Y-164531361D01*
X157411569Y-164530528D01*
X157411565Y-164530527D01*
X157297071Y-164516875D01*
X157255153Y-164511877D01*
X157248150Y-164512613D01*
X157248149Y-164512613D01*
X157204935Y-164517155D01*
X157091495Y-164529078D01*
X157084827Y-164531348D01*
X156942382Y-164579840D01*
X156942379Y-164579841D01*
X156935715Y-164582110D01*
X156795555Y-164668337D01*
X156783914Y-164679737D01*
X156707824Y-164754250D01*
X156677982Y-164783473D01*
X156588838Y-164921797D01*
X156586427Y-164928420D01*
X156586426Y-164928423D01*
X156534966Y-165069809D01*
X156534965Y-165069814D01*
X156532556Y-165076432D01*
X156511931Y-165239694D01*
X100982716Y-165239694D01*
X100890898Y-165006860D01*
X100670575Y-164543587D01*
X100669521Y-164541712D01*
X100669514Y-164541699D01*
X100420201Y-164098296D01*
X100420192Y-164098281D01*
X100419150Y-164096428D01*
X100184044Y-163737979D01*
X100138988Y-163669285D01*
X100138980Y-163669274D01*
X100137797Y-163667470D01*
X99827826Y-163258712D01*
X99593255Y-162989694D01*
X159011931Y-162989694D01*
X159027989Y-163153468D01*
X159079932Y-163309615D01*
X159165179Y-163450373D01*
X159279491Y-163568747D01*
X159417189Y-163658854D01*
X159571428Y-163716215D01*
X159578409Y-163717146D01*
X159578411Y-163717147D01*
X159727561Y-163737048D01*
X159727565Y-163737048D01*
X159734542Y-163737979D01*
X159741553Y-163737341D01*
X159741557Y-163737341D01*
X159891403Y-163723704D01*
X159891404Y-163723704D01*
X159898424Y-163723065D01*
X159927062Y-163713760D01*
X160048230Y-163674390D01*
X160048233Y-163674389D01*
X160054929Y-163672213D01*
X160196279Y-163587951D01*
X160315449Y-163474468D01*
X160331458Y-163450373D01*
X160402614Y-163343275D01*
X160402615Y-163343273D01*
X160406515Y-163337403D01*
X160464951Y-163183568D01*
X160487853Y-163020610D01*
X160488141Y-163000000D01*
X160469798Y-162836466D01*
X160463998Y-162819809D01*
X160417998Y-162687717D01*
X160415680Y-162681060D01*
X160328476Y-162541505D01*
X160270499Y-162483122D01*
X160217486Y-162429737D01*
X160217482Y-162429734D01*
X160212522Y-162424739D01*
X160073580Y-162336563D01*
X160024447Y-162319068D01*
X159925189Y-162283723D01*
X159925187Y-162283722D01*
X159918555Y-162281361D01*
X159911569Y-162280528D01*
X159911565Y-162280527D01*
X159797071Y-162266875D01*
X159755153Y-162261877D01*
X159748150Y-162262613D01*
X159748149Y-162262613D01*
X159704935Y-162267155D01*
X159591495Y-162279078D01*
X159584827Y-162281348D01*
X159442382Y-162329840D01*
X159442379Y-162329841D01*
X159435715Y-162332110D01*
X159295555Y-162418337D01*
X159177982Y-162533473D01*
X159088838Y-162671797D01*
X159086427Y-162678420D01*
X159086426Y-162678423D01*
X159034966Y-162819809D01*
X159034965Y-162819814D01*
X159032556Y-162826432D01*
X159011931Y-162989694D01*
X99593255Y-162989694D01*
X99490683Y-162872060D01*
X99127940Y-162509317D01*
X98741288Y-162172174D01*
X98332530Y-161862203D01*
X98330726Y-161861020D01*
X98330715Y-161861012D01*
X97905362Y-161582024D01*
X97905361Y-161582023D01*
X97903572Y-161580850D01*
X97901719Y-161579808D01*
X97901704Y-161579799D01*
X97458301Y-161330486D01*
X97458288Y-161330479D01*
X97456413Y-161329425D01*
X96993140Y-161109102D01*
X96515910Y-160920907D01*
X96026951Y-160765718D01*
X96024851Y-160765206D01*
X96024843Y-160765204D01*
X95530652Y-160644773D01*
X95530640Y-160644770D01*
X95528541Y-160644259D01*
X95526420Y-160643893D01*
X95526409Y-160643891D01*
X95025134Y-160557462D01*
X95025127Y-160557461D01*
X95023004Y-160557095D01*
X95020845Y-160556873D01*
X94621615Y-160515831D01*
X94555897Y-160488968D01*
X94515135Y-160430839D01*
X94508500Y-160390492D01*
X94508500Y-158489694D01*
X146261931Y-158489694D01*
X146277989Y-158653468D01*
X146329932Y-158809615D01*
X146415179Y-158950373D01*
X146529491Y-159068747D01*
X146667189Y-159158854D01*
X146821428Y-159216215D01*
X146828409Y-159217146D01*
X146828411Y-159217147D01*
X146977561Y-159237048D01*
X146977565Y-159237048D01*
X146984542Y-159237979D01*
X146991553Y-159237341D01*
X146991557Y-159237341D01*
X147141403Y-159223704D01*
X147141404Y-159223704D01*
X147148424Y-159223065D01*
X147177062Y-159213760D01*
X147298230Y-159174390D01*
X147298233Y-159174389D01*
X147304929Y-159172213D01*
X147446279Y-159087951D01*
X147565449Y-158974468D01*
X147581458Y-158950373D01*
X147652614Y-158843275D01*
X147652615Y-158843273D01*
X147656515Y-158837403D01*
X147714951Y-158683568D01*
X147737853Y-158520610D01*
X147738141Y-158500000D01*
X147719798Y-158336466D01*
X147717450Y-158329722D01*
X147687705Y-158244307D01*
X147665680Y-158181060D01*
X147578476Y-158041505D01*
X147520499Y-157983122D01*
X147467486Y-157929737D01*
X147467482Y-157929734D01*
X147462522Y-157924739D01*
X147323580Y-157836563D01*
X147274447Y-157819068D01*
X147175189Y-157783723D01*
X147175187Y-157783722D01*
X147168555Y-157781361D01*
X147161569Y-157780528D01*
X147161565Y-157780527D01*
X147047071Y-157766875D01*
X147005153Y-157761877D01*
X146998150Y-157762613D01*
X146998149Y-157762613D01*
X146954935Y-157767155D01*
X146841495Y-157779078D01*
X146834827Y-157781348D01*
X146692382Y-157829840D01*
X146692379Y-157829841D01*
X146685715Y-157832110D01*
X146545555Y-157918337D01*
X146427982Y-158033473D01*
X146338838Y-158171797D01*
X146336427Y-158178420D01*
X146336426Y-158178423D01*
X146284966Y-158319809D01*
X146284965Y-158319814D01*
X146282556Y-158326432D01*
X146261931Y-158489694D01*
X94508500Y-158489694D01*
X94508500Y-155618140D01*
X96742487Y-155618140D01*
X96742662Y-155622592D01*
X96748387Y-155768295D01*
X96753320Y-155893863D01*
X96754120Y-155898243D01*
X96783064Y-156056723D01*
X96802895Y-156165310D01*
X96890223Y-156427063D01*
X96892215Y-156431050D01*
X96892216Y-156431052D01*
X97008929Y-156664632D01*
X97013560Y-156673901D01*
X97170447Y-156900897D01*
X97173463Y-156904159D01*
X97173468Y-156904166D01*
X97354737Y-157100261D01*
X97354742Y-157100265D01*
X97357753Y-157103523D01*
X97571740Y-157277737D01*
X97575558Y-157280036D01*
X97575560Y-157280037D01*
X97804323Y-157417763D01*
X97808140Y-157420061D01*
X97812235Y-157421795D01*
X97812237Y-157421796D01*
X98058134Y-157525920D01*
X98058141Y-157525922D01*
X98062235Y-157527656D01*
X98328955Y-157598376D01*
X98333379Y-157598900D01*
X98333381Y-157598900D01*
X98491891Y-157617660D01*
X98602979Y-157630808D01*
X98878838Y-157624307D01*
X98883233Y-157623575D01*
X98883238Y-157623575D01*
X99146628Y-157579735D01*
X99146632Y-157579734D01*
X99151030Y-157579002D01*
X99321760Y-157525007D01*
X99409877Y-157497140D01*
X99409879Y-157497139D01*
X99414123Y-157495797D01*
X99418134Y-157493871D01*
X99418139Y-157493869D01*
X99658848Y-157378282D01*
X99658849Y-157378281D01*
X99662867Y-157376352D01*
X99807013Y-157280037D01*
X99888592Y-157225528D01*
X99888596Y-157225525D01*
X99892300Y-157223050D01*
X100097843Y-157038950D01*
X100275396Y-156827725D01*
X100421416Y-156593590D01*
X100532989Y-156341217D01*
X100607889Y-156075640D01*
X100620229Y-155983767D01*
X100644195Y-155805342D01*
X100644196Y-155805334D01*
X100644622Y-155802160D01*
X100648127Y-155690632D01*
X100648376Y-155682722D01*
X100648376Y-155682717D01*
X100648477Y-155679500D01*
X100646512Y-155651741D01*
X102004309Y-155651741D01*
X102005993Y-155685567D01*
X102016142Y-155889411D01*
X102020173Y-155970388D01*
X102020814Y-155974119D01*
X102020815Y-155974127D01*
X102054392Y-156169532D01*
X102074202Y-156284821D01*
X102075290Y-156288460D01*
X102075291Y-156288463D01*
X102115477Y-156422834D01*
X102165615Y-156590485D01*
X102293088Y-156882954D01*
X102454774Y-157157991D01*
X102648330Y-157411611D01*
X102650974Y-157414325D01*
X102861353Y-157630285D01*
X102870954Y-157640141D01*
X102873908Y-157642521D01*
X102873911Y-157642523D01*
X103116468Y-157837892D01*
X103116473Y-157837896D01*
X103119421Y-157840270D01*
X103390130Y-158009100D01*
X103679162Y-158144185D01*
X103982329Y-158243568D01*
X104295240Y-158305810D01*
X104299012Y-158306097D01*
X104299020Y-158306098D01*
X104609585Y-158329722D01*
X104609590Y-158329722D01*
X104613362Y-158330009D01*
X104932088Y-158315814D01*
X105246799Y-158263432D01*
X105552939Y-158173621D01*
X105846071Y-158047681D01*
X106121950Y-157887438D01*
X106376580Y-157695212D01*
X106606273Y-157473787D01*
X106648601Y-157421796D01*
X106805309Y-157229309D01*
X106805310Y-157229308D01*
X106807700Y-157226372D01*
X106809796Y-157223050D01*
X106975922Y-156959757D01*
X106975925Y-156959751D01*
X106977945Y-156956550D01*
X107114542Y-156668229D01*
X107215511Y-156365587D01*
X107279390Y-156053006D01*
X107305255Y-155735015D01*
X107305623Y-155699862D01*
X107305813Y-155681721D01*
X107305813Y-155681714D01*
X107305836Y-155679500D01*
X107305398Y-155672224D01*
X107299726Y-155578134D01*
X126611500Y-155578134D01*
X126618255Y-155640316D01*
X126669385Y-155776705D01*
X126756739Y-155893261D01*
X126873295Y-155980615D01*
X127009684Y-156031745D01*
X127071866Y-156038500D01*
X128768134Y-156038500D01*
X128830316Y-156031745D01*
X128966705Y-155980615D01*
X129083261Y-155893261D01*
X129170615Y-155776705D01*
X129209783Y-155672223D01*
X129252424Y-155615459D01*
X129318985Y-155590759D01*
X129388334Y-155605966D01*
X129416860Y-155627358D01*
X129575700Y-155786198D01*
X129580208Y-155789355D01*
X129580211Y-155789357D01*
X129593910Y-155798949D01*
X129763251Y-155917523D01*
X129768233Y-155919846D01*
X129768238Y-155919849D01*
X129965775Y-156011961D01*
X129970757Y-156014284D01*
X129976065Y-156015706D01*
X129976067Y-156015707D01*
X130186598Y-156072119D01*
X130186600Y-156072119D01*
X130191913Y-156073543D01*
X130420000Y-156093498D01*
X130648087Y-156073543D01*
X130653400Y-156072119D01*
X130653402Y-156072119D01*
X130863933Y-156015707D01*
X130863935Y-156015706D01*
X130869243Y-156014284D01*
X130874225Y-156011961D01*
X131071762Y-155919849D01*
X131071767Y-155919846D01*
X131076749Y-155917523D01*
X131246090Y-155798949D01*
X131259789Y-155789357D01*
X131259792Y-155789355D01*
X131264300Y-155786198D01*
X131330905Y-155719593D01*
X131393217Y-155685567D01*
X131464032Y-155690632D01*
X131509095Y-155719593D01*
X131575700Y-155786198D01*
X131580208Y-155789355D01*
X131580211Y-155789357D01*
X131593910Y-155798949D01*
X131763251Y-155917523D01*
X131768233Y-155919846D01*
X131768238Y-155919849D01*
X131965775Y-156011961D01*
X131970757Y-156014284D01*
X131976065Y-156015706D01*
X131976067Y-156015707D01*
X132186598Y-156072119D01*
X132186600Y-156072119D01*
X132191913Y-156073543D01*
X132420000Y-156093498D01*
X132648087Y-156073543D01*
X132653400Y-156072119D01*
X132653402Y-156072119D01*
X132863933Y-156015707D01*
X132863935Y-156015706D01*
X132869243Y-156014284D01*
X132874225Y-156011961D01*
X133071762Y-155919849D01*
X133071767Y-155919846D01*
X133076749Y-155917523D01*
X133246090Y-155798949D01*
X133259789Y-155789357D01*
X133259792Y-155789355D01*
X133264300Y-155786198D01*
X133426198Y-155624300D01*
X133430512Y-155618140D01*
X133554366Y-155441257D01*
X133557523Y-155436749D01*
X133559846Y-155431767D01*
X133559849Y-155431762D01*
X133651961Y-155234225D01*
X133651961Y-155234224D01*
X133654284Y-155229243D01*
X133696496Y-155071709D01*
X133712119Y-155013402D01*
X133712119Y-155013400D01*
X133713543Y-155008087D01*
X133733498Y-154780000D01*
X133713543Y-154551913D01*
X133676696Y-154414398D01*
X133655707Y-154336067D01*
X133655706Y-154336065D01*
X133654284Y-154330757D01*
X133601405Y-154217356D01*
X133559849Y-154128238D01*
X133559846Y-154128233D01*
X133557523Y-154123251D01*
X133479508Y-154011835D01*
X133429357Y-153940211D01*
X133429355Y-153940208D01*
X133426198Y-153935700D01*
X133264300Y-153773802D01*
X133259792Y-153770645D01*
X133259789Y-153770643D01*
X133129780Y-153679610D01*
X133076749Y-153642477D01*
X133071767Y-153640154D01*
X133071762Y-153640151D01*
X132874225Y-153548039D01*
X132874224Y-153548039D01*
X132869243Y-153545716D01*
X132863935Y-153544294D01*
X132863933Y-153544293D01*
X132653402Y-153487881D01*
X132653400Y-153487881D01*
X132648087Y-153486457D01*
X132420000Y-153466502D01*
X132191913Y-153486457D01*
X132186600Y-153487881D01*
X132186598Y-153487881D01*
X131976067Y-153544293D01*
X131976065Y-153544294D01*
X131970757Y-153545716D01*
X131965776Y-153548039D01*
X131965775Y-153548039D01*
X131768238Y-153640151D01*
X131768233Y-153640154D01*
X131763251Y-153642477D01*
X131710220Y-153679610D01*
X131580211Y-153770643D01*
X131580208Y-153770645D01*
X131575700Y-153773802D01*
X131509095Y-153840407D01*
X131446783Y-153874433D01*
X131375968Y-153869368D01*
X131330905Y-153840407D01*
X131264300Y-153773802D01*
X131259792Y-153770645D01*
X131259789Y-153770643D01*
X131129780Y-153679610D01*
X131076749Y-153642477D01*
X131071767Y-153640154D01*
X131071762Y-153640151D01*
X130874225Y-153548039D01*
X130874224Y-153548039D01*
X130869243Y-153545716D01*
X130863935Y-153544294D01*
X130863933Y-153544293D01*
X130653402Y-153487881D01*
X130653400Y-153487881D01*
X130648087Y-153486457D01*
X130420000Y-153466502D01*
X130191913Y-153486457D01*
X130186600Y-153487881D01*
X130186598Y-153487881D01*
X129976067Y-153544293D01*
X129976065Y-153544294D01*
X129970757Y-153545716D01*
X129965776Y-153548039D01*
X129965775Y-153548039D01*
X129768238Y-153640151D01*
X129768233Y-153640154D01*
X129763251Y-153642477D01*
X129710220Y-153679610D01*
X129580211Y-153770643D01*
X129580208Y-153770645D01*
X129575700Y-153773802D01*
X129416860Y-153932642D01*
X129354548Y-153966668D01*
X129283733Y-153961603D01*
X129226897Y-153919056D01*
X129209783Y-153887776D01*
X129208824Y-153885216D01*
X129182121Y-153813987D01*
X129173768Y-153791705D01*
X129173767Y-153791703D01*
X129170615Y-153783295D01*
X129083261Y-153666739D01*
X128966705Y-153579385D01*
X128830316Y-153528255D01*
X128768134Y-153521500D01*
X127071866Y-153521500D01*
X127009684Y-153528255D01*
X126873295Y-153579385D01*
X126756739Y-153666739D01*
X126669385Y-153783295D01*
X126618255Y-153919684D01*
X126611500Y-153981866D01*
X126611500Y-155578134D01*
X107299726Y-155578134D01*
X107286865Y-155364815D01*
X107286865Y-155364811D01*
X107286637Y-155361037D01*
X107262567Y-155229243D01*
X107229998Y-155050909D01*
X107229997Y-155050905D01*
X107229318Y-155047187D01*
X107218828Y-155013402D01*
X107174827Y-154871698D01*
X107134709Y-154742496D01*
X107004180Y-154451378D01*
X106839623Y-154178050D01*
X106837296Y-154175066D01*
X106837291Y-154175059D01*
X106645752Y-153929459D01*
X106645746Y-153929452D01*
X106643421Y-153926471D01*
X106418417Y-153700285D01*
X106167868Y-153502768D01*
X105895405Y-153336782D01*
X105779387Y-153284032D01*
X105608427Y-153206300D01*
X105608419Y-153206297D01*
X105604975Y-153204731D01*
X105300783Y-153108528D01*
X105154516Y-153081023D01*
X104990962Y-153050267D01*
X104990957Y-153050266D01*
X104987238Y-153049567D01*
X104668880Y-153028700D01*
X104665100Y-153028908D01*
X104665099Y-153028908D01*
X104569459Y-153034172D01*
X104350320Y-153046232D01*
X104346593Y-153046893D01*
X104346589Y-153046893D01*
X104235338Y-153066610D01*
X104036175Y-153101907D01*
X104032559Y-153103009D01*
X104032551Y-153103011D01*
X103734617Y-153193814D01*
X103734610Y-153193817D01*
X103730993Y-153194919D01*
X103439195Y-153323921D01*
X103435941Y-153325857D01*
X103435935Y-153325860D01*
X103198733Y-153466981D01*
X103165009Y-153487045D01*
X103162008Y-153489360D01*
X103162004Y-153489363D01*
X103069511Y-153560721D01*
X102912406Y-153681927D01*
X102909708Y-153684583D01*
X102703298Y-153887776D01*
X102685045Y-153905744D01*
X102486219Y-154155255D01*
X102318809Y-154426845D01*
X102185239Y-154716581D01*
X102184080Y-154720181D01*
X102184077Y-154720188D01*
X102132680Y-154879793D01*
X102087445Y-155020264D01*
X102086726Y-155023980D01*
X102086724Y-155023988D01*
X102027561Y-155329778D01*
X102026842Y-155333496D01*
X102026575Y-155337272D01*
X102026574Y-155337277D01*
X102007550Y-155605966D01*
X102004309Y-155651741D01*
X100646512Y-155651741D01*
X100628988Y-155404253D01*
X100620498Y-155364815D01*
X100571848Y-155138844D01*
X100571847Y-155138842D01*
X100570912Y-155134497D01*
X100475405Y-154875616D01*
X100344375Y-154632775D01*
X100309336Y-154585335D01*
X100210394Y-154451378D01*
X100180436Y-154410818D01*
X99986858Y-154214175D01*
X99861811Y-154118743D01*
X99771048Y-154049475D01*
X99771044Y-154049472D01*
X99767503Y-154046770D01*
X99526750Y-153911941D01*
X99522597Y-153910334D01*
X99522592Y-153910332D01*
X99273556Y-153813987D01*
X99273550Y-153813985D01*
X99269401Y-153812380D01*
X99265069Y-153811376D01*
X99265066Y-153811375D01*
X99102962Y-153773802D01*
X99000591Y-153750074D01*
X98725684Y-153726264D01*
X98721249Y-153726508D01*
X98721245Y-153726508D01*
X98454607Y-153741182D01*
X98454600Y-153741183D01*
X98450164Y-153741427D01*
X98303284Y-153770643D01*
X98183893Y-153794391D01*
X98183891Y-153794392D01*
X98179530Y-153795259D01*
X97919181Y-153886687D01*
X97674311Y-154013887D01*
X97670696Y-154016470D01*
X97670690Y-154016474D01*
X97624510Y-154049475D01*
X97449807Y-154174320D01*
X97250148Y-154364786D01*
X97079317Y-154581483D01*
X96940724Y-154820089D01*
X96939056Y-154824206D01*
X96939053Y-154824213D01*
X96847232Y-155050909D01*
X96837133Y-155075842D01*
X96770612Y-155343640D01*
X96742487Y-155618140D01*
X94508500Y-155618140D01*
X94508500Y-152049766D01*
X106990439Y-152049766D01*
X107006497Y-152213540D01*
X107058440Y-152369687D01*
X107062089Y-152375712D01*
X107117064Y-152466485D01*
X107143687Y-152510445D01*
X107257999Y-152628819D01*
X107263891Y-152632674D01*
X107263895Y-152632678D01*
X107352517Y-152690670D01*
X107398566Y-152744707D01*
X107406942Y-152776332D01*
X107407391Y-152776237D01*
X107408857Y-152783132D01*
X107409544Y-152790141D01*
X107461487Y-152946288D01*
X107465136Y-152952313D01*
X107524460Y-153050267D01*
X107546734Y-153087046D01*
X107551625Y-153092111D01*
X107551626Y-153092112D01*
X107570002Y-153111141D01*
X107661046Y-153205420D01*
X107798744Y-153295527D01*
X107952983Y-153352888D01*
X107959964Y-153353819D01*
X107959966Y-153353820D01*
X108109116Y-153373721D01*
X108109120Y-153373721D01*
X108116097Y-153374652D01*
X108123108Y-153374014D01*
X108123112Y-153374014D01*
X108272958Y-153360377D01*
X108272959Y-153360377D01*
X108279979Y-153359738D01*
X108350630Y-153336782D01*
X108429785Y-153311063D01*
X108429788Y-153311062D01*
X108436484Y-153308886D01*
X108577834Y-153224624D01*
X108697004Y-153111141D01*
X108703139Y-153101907D01*
X108784169Y-152979948D01*
X108784170Y-152979946D01*
X108788070Y-152974076D01*
X108846506Y-152820241D01*
X108855062Y-152759362D01*
X108868857Y-152661207D01*
X108868858Y-152661200D01*
X108869408Y-152657283D01*
X108869696Y-152636673D01*
X108851353Y-152473139D01*
X108797235Y-152317733D01*
X108710031Y-152178178D01*
X108652054Y-152119795D01*
X108599041Y-152066410D01*
X108599037Y-152066407D01*
X108594077Y-152061412D01*
X108564705Y-152042772D01*
X108508016Y-152006795D01*
X108461218Y-151953405D01*
X108450316Y-151914457D01*
X108449091Y-151903536D01*
X108448306Y-151896538D01*
X108442506Y-151879881D01*
X108396506Y-151747789D01*
X108394188Y-151741132D01*
X108306984Y-151601577D01*
X108249007Y-151543194D01*
X108195994Y-151489809D01*
X108195990Y-151489806D01*
X108191030Y-151484811D01*
X108052088Y-151396635D01*
X107944305Y-151358255D01*
X107903697Y-151343795D01*
X107903695Y-151343794D01*
X107897063Y-151341433D01*
X107890077Y-151340600D01*
X107890073Y-151340599D01*
X107775579Y-151326947D01*
X107733661Y-151321949D01*
X107726658Y-151322685D01*
X107726657Y-151322685D01*
X107683443Y-151327227D01*
X107570003Y-151339150D01*
X107563335Y-151341420D01*
X107420890Y-151389912D01*
X107420887Y-151389913D01*
X107414223Y-151392182D01*
X107274063Y-151478409D01*
X107156490Y-151593545D01*
X107067346Y-151731869D01*
X107064935Y-151738492D01*
X107064934Y-151738495D01*
X107013474Y-151879881D01*
X107013473Y-151879886D01*
X107011064Y-151886504D01*
X106990439Y-152049766D01*
X94508500Y-152049766D01*
X94508500Y-150288034D01*
X108102323Y-150288034D01*
X108118381Y-150451808D01*
X108170324Y-150607955D01*
X108255571Y-150748713D01*
X108369883Y-150867087D01*
X108507581Y-150957194D01*
X108661820Y-151014555D01*
X108668801Y-151015486D01*
X108668803Y-151015487D01*
X108817953Y-151035388D01*
X108817957Y-151035388D01*
X108824934Y-151036319D01*
X108831945Y-151035681D01*
X108831949Y-151035681D01*
X108981795Y-151022044D01*
X108981796Y-151022044D01*
X108988816Y-151021405D01*
X109029466Y-151008197D01*
X109138622Y-150972730D01*
X109138625Y-150972729D01*
X109145321Y-150970553D01*
X109286671Y-150886291D01*
X109405841Y-150772808D01*
X109421850Y-150748713D01*
X109493006Y-150641615D01*
X109493007Y-150641613D01*
X109496907Y-150635743D01*
X109518453Y-150579023D01*
X109561340Y-150522446D01*
X109597303Y-150503934D01*
X109688233Y-150474389D01*
X109688235Y-150474388D01*
X109694929Y-150472213D01*
X109836279Y-150387951D01*
X109955449Y-150274468D01*
X110031502Y-150160000D01*
X154466502Y-150160000D01*
X154486457Y-150388087D01*
X154487881Y-150393400D01*
X154487881Y-150393402D01*
X154522459Y-150522446D01*
X154545716Y-150609243D01*
X154548039Y-150614224D01*
X154548039Y-150614225D01*
X154640151Y-150811762D01*
X154640154Y-150811767D01*
X154642477Y-150816749D01*
X154691171Y-150886291D01*
X154742538Y-150959650D01*
X154773802Y-151004300D01*
X154932642Y-151163140D01*
X154966668Y-151225452D01*
X154961603Y-151296267D01*
X154919056Y-151353103D01*
X154887777Y-151370216D01*
X154841362Y-151387617D01*
X154791705Y-151406232D01*
X154791704Y-151406233D01*
X154783295Y-151409385D01*
X154666739Y-151496739D01*
X154579385Y-151613295D01*
X154528255Y-151749684D01*
X154521500Y-151811866D01*
X154521500Y-153508134D01*
X154528255Y-153570316D01*
X154579385Y-153706705D01*
X154666739Y-153823261D01*
X154783295Y-153910615D01*
X154919684Y-153961745D01*
X154981866Y-153968500D01*
X156578134Y-153968500D01*
X156640316Y-153961745D01*
X156776705Y-153910615D01*
X156893261Y-153823261D01*
X156980615Y-153706705D01*
X157031745Y-153570316D01*
X157038500Y-153508134D01*
X157038500Y-151811866D01*
X157031745Y-151749684D01*
X156980615Y-151613295D01*
X156893261Y-151496739D01*
X156776705Y-151409385D01*
X156768296Y-151406233D01*
X156768295Y-151406232D01*
X156718638Y-151387617D01*
X156672223Y-151370217D01*
X156615459Y-151327576D01*
X156590759Y-151261015D01*
X156605966Y-151191666D01*
X156627358Y-151163140D01*
X156786198Y-151004300D01*
X156817463Y-150959650D01*
X156868829Y-150886291D01*
X156917523Y-150816749D01*
X156919846Y-150811767D01*
X156919849Y-150811762D01*
X157011961Y-150614225D01*
X157011961Y-150614224D01*
X157014284Y-150609243D01*
X157037542Y-150522446D01*
X157072119Y-150393402D01*
X157072119Y-150393400D01*
X157073543Y-150388087D01*
X157093498Y-150160000D01*
X157073543Y-149931913D01*
X157014284Y-149710757D01*
X156978558Y-149634141D01*
X156919849Y-149508238D01*
X156919846Y-149508233D01*
X156917523Y-149503251D01*
X156843439Y-149397449D01*
X156789357Y-149320211D01*
X156789355Y-149320208D01*
X156786198Y-149315700D01*
X156719593Y-149249095D01*
X156685567Y-149186783D01*
X156690632Y-149115968D01*
X156719593Y-149070905D01*
X156786198Y-149004300D01*
X156917523Y-148816749D01*
X156919846Y-148811767D01*
X156919849Y-148811762D01*
X157011961Y-148614225D01*
X157011961Y-148614224D01*
X157014284Y-148609243D01*
X157048488Y-148481595D01*
X157072119Y-148393402D01*
X157072119Y-148393400D01*
X157073543Y-148388087D01*
X157093498Y-148160000D01*
X157073543Y-147931913D01*
X157052843Y-147854661D01*
X157015707Y-147716067D01*
X157015706Y-147716065D01*
X157014284Y-147710757D01*
X156977818Y-147632555D01*
X156919849Y-147508238D01*
X156919846Y-147508233D01*
X156917523Y-147503251D01*
X156801395Y-147337403D01*
X156789357Y-147320211D01*
X156789355Y-147320208D01*
X156786198Y-147315700D01*
X156624300Y-147153802D01*
X156619792Y-147150645D01*
X156619789Y-147150643D01*
X156541611Y-147095902D01*
X156436749Y-147022477D01*
X156431767Y-147020154D01*
X156431762Y-147020151D01*
X156234225Y-146928039D01*
X156234224Y-146928039D01*
X156229243Y-146925716D01*
X156223935Y-146924294D01*
X156223933Y-146924293D01*
X156013402Y-146867881D01*
X156013400Y-146867881D01*
X156008087Y-146866457D01*
X155780000Y-146846502D01*
X155551913Y-146866457D01*
X155546600Y-146867881D01*
X155546598Y-146867881D01*
X155336067Y-146924293D01*
X155336065Y-146924294D01*
X155330757Y-146925716D01*
X155325776Y-146928039D01*
X155325775Y-146928039D01*
X155128238Y-147020151D01*
X155128233Y-147020154D01*
X155123251Y-147022477D01*
X155018389Y-147095902D01*
X154940211Y-147150643D01*
X154940208Y-147150645D01*
X154935700Y-147153802D01*
X154773802Y-147315700D01*
X154770645Y-147320208D01*
X154770643Y-147320211D01*
X154758605Y-147337403D01*
X154642477Y-147503251D01*
X154640154Y-147508233D01*
X154640151Y-147508238D01*
X154582182Y-147632555D01*
X154545716Y-147710757D01*
X154544294Y-147716065D01*
X154544293Y-147716067D01*
X154507157Y-147854661D01*
X154486457Y-147931913D01*
X154466502Y-148160000D01*
X154486457Y-148388087D01*
X154487881Y-148393400D01*
X154487881Y-148393402D01*
X154511513Y-148481595D01*
X154545716Y-148609243D01*
X154548039Y-148614224D01*
X154548039Y-148614225D01*
X154640151Y-148811762D01*
X154640154Y-148811767D01*
X154642477Y-148816749D01*
X154773802Y-149004300D01*
X154840407Y-149070905D01*
X154874433Y-149133217D01*
X154869368Y-149204032D01*
X154840407Y-149249095D01*
X154773802Y-149315700D01*
X154770645Y-149320208D01*
X154770643Y-149320211D01*
X154716561Y-149397449D01*
X154642477Y-149503251D01*
X154640154Y-149508233D01*
X154640151Y-149508238D01*
X154581442Y-149634141D01*
X154545716Y-149710757D01*
X154486457Y-149931913D01*
X154466502Y-150160000D01*
X110031502Y-150160000D01*
X110046515Y-150137403D01*
X110077784Y-150055087D01*
X110120671Y-149998510D01*
X110184150Y-149974350D01*
X110197788Y-149973109D01*
X110197798Y-149973107D01*
X110204808Y-149972469D01*
X110312760Y-149937393D01*
X110354614Y-149923794D01*
X110354617Y-149923793D01*
X110361313Y-149921617D01*
X110502663Y-149837355D01*
X110621833Y-149723872D01*
X110625734Y-149718001D01*
X110708998Y-149592679D01*
X110708999Y-149592677D01*
X110712899Y-149586807D01*
X110771335Y-149432972D01*
X110786022Y-149328470D01*
X110793686Y-149273938D01*
X110793687Y-149273931D01*
X110794237Y-149270014D01*
X110794525Y-149249404D01*
X110790741Y-149215671D01*
X110803025Y-149145746D01*
X110829063Y-149110381D01*
X110859552Y-149081348D01*
X110869252Y-149072111D01*
X110869254Y-149072109D01*
X110874354Y-149067252D01*
X110885384Y-149050651D01*
X110961519Y-148936059D01*
X110961520Y-148936057D01*
X110965420Y-148930187D01*
X110986834Y-148873814D01*
X130405780Y-148873814D01*
X130421838Y-149037588D01*
X130473781Y-149193735D01*
X130477430Y-149199760D01*
X130534311Y-149293680D01*
X130559028Y-149334493D01*
X130673340Y-149452867D01*
X130811038Y-149542974D01*
X130965277Y-149600335D01*
X130972258Y-149601266D01*
X130972260Y-149601267D01*
X131121410Y-149621168D01*
X131121414Y-149621168D01*
X131128391Y-149622099D01*
X131135402Y-149621461D01*
X131135406Y-149621461D01*
X131285252Y-149607824D01*
X131285253Y-149607824D01*
X131292273Y-149607185D01*
X131448778Y-149556333D01*
X131456560Y-149551694D01*
X131506728Y-149521788D01*
X131575483Y-149504088D01*
X131615164Y-149511919D01*
X131658708Y-149528113D01*
X131658716Y-149528115D01*
X131665312Y-149530568D01*
X131672293Y-149531499D01*
X131672295Y-149531500D01*
X131821445Y-149551401D01*
X131821449Y-149551401D01*
X131828426Y-149552332D01*
X131835437Y-149551694D01*
X131835441Y-149551694D01*
X131985287Y-149538057D01*
X131985288Y-149538057D01*
X131992308Y-149537418D01*
X132053969Y-149517383D01*
X132142114Y-149488743D01*
X132142117Y-149488742D01*
X132148813Y-149486566D01*
X132290163Y-149402304D01*
X132409333Y-149288821D01*
X132413234Y-149282950D01*
X132496498Y-149157628D01*
X132496499Y-149157626D01*
X132500399Y-149151756D01*
X132558835Y-148997921D01*
X132568686Y-148927827D01*
X132581186Y-148838887D01*
X132581187Y-148838880D01*
X132581737Y-148834963D01*
X132582025Y-148814353D01*
X132563682Y-148650819D01*
X132509564Y-148495413D01*
X132500532Y-148480958D01*
X132426093Y-148361832D01*
X132422360Y-148355858D01*
X132331718Y-148264581D01*
X132311370Y-148244090D01*
X132311366Y-148244087D01*
X132306406Y-148239092D01*
X132167464Y-148150916D01*
X132027756Y-148101168D01*
X132019073Y-148098076D01*
X132019071Y-148098075D01*
X132012439Y-148095714D01*
X132005453Y-148094881D01*
X132005449Y-148094880D01*
X131890955Y-148081228D01*
X131849037Y-148076230D01*
X131842034Y-148076966D01*
X131842033Y-148076966D01*
X131798819Y-148081508D01*
X131685379Y-148093431D01*
X131678711Y-148095701D01*
X131536266Y-148144193D01*
X131536263Y-148144194D01*
X131529599Y-148146463D01*
X131483730Y-148174682D01*
X131481810Y-148175863D01*
X131413309Y-148194521D01*
X131373522Y-148187244D01*
X131341560Y-148175863D01*
X131319038Y-148167843D01*
X131319036Y-148167842D01*
X131312404Y-148165481D01*
X131305418Y-148164648D01*
X131305414Y-148164647D01*
X131190255Y-148150916D01*
X131149002Y-148145997D01*
X131141999Y-148146733D01*
X131141998Y-148146733D01*
X131109450Y-148150154D01*
X130985344Y-148163198D01*
X130978676Y-148165468D01*
X130836231Y-148213960D01*
X130836228Y-148213961D01*
X130829564Y-148216230D01*
X130689404Y-148302457D01*
X130634873Y-148355858D01*
X130601962Y-148388087D01*
X130571831Y-148417593D01*
X130482687Y-148555917D01*
X130480276Y-148562540D01*
X130480275Y-148562543D01*
X130428815Y-148703929D01*
X130428814Y-148703934D01*
X130426405Y-148710552D01*
X130405780Y-148873814D01*
X110986834Y-148873814D01*
X111023856Y-148776352D01*
X111032412Y-148715473D01*
X111046207Y-148617318D01*
X111046208Y-148617311D01*
X111046758Y-148613394D01*
X111046813Y-148609435D01*
X111047117Y-148605487D01*
X111049134Y-148605642D01*
X111067705Y-148545497D01*
X111122001Y-148499754D01*
X111161319Y-148489603D01*
X111256317Y-148480958D01*
X111279348Y-148473475D01*
X111406123Y-148432283D01*
X111406126Y-148432282D01*
X111412822Y-148430106D01*
X111554172Y-148345844D01*
X111673342Y-148232361D01*
X111681607Y-148219921D01*
X111760507Y-148101168D01*
X111760508Y-148101166D01*
X111764408Y-148095296D01*
X111822844Y-147941461D01*
X111835043Y-147854661D01*
X111845195Y-147782427D01*
X111845196Y-147782420D01*
X111845746Y-147778503D01*
X111845948Y-147764065D01*
X111845979Y-147761855D01*
X111845979Y-147761849D01*
X111846034Y-147757893D01*
X111827691Y-147594359D01*
X111821891Y-147577702D01*
X111793592Y-147496439D01*
X111773573Y-147438953D01*
X111769838Y-147432976D01*
X111766795Y-147426624D01*
X111769022Y-147425557D01*
X111752982Y-147368268D01*
X111761184Y-147325112D01*
X111808271Y-147201153D01*
X111814951Y-147183568D01*
X111823507Y-147122689D01*
X111837302Y-147024534D01*
X111837303Y-147024527D01*
X111837853Y-147020610D01*
X111838141Y-147000000D01*
X111819798Y-146836466D01*
X111813998Y-146819809D01*
X111779039Y-146719423D01*
X111765680Y-146681060D01*
X111678476Y-146541505D01*
X111599489Y-146461965D01*
X111567486Y-146429737D01*
X111567482Y-146429734D01*
X111562522Y-146424739D01*
X111423580Y-146336563D01*
X111313432Y-146297341D01*
X111275189Y-146283723D01*
X111275187Y-146283722D01*
X111268555Y-146281361D01*
X111261569Y-146280528D01*
X111261565Y-146280527D01*
X111147071Y-146266875D01*
X111105153Y-146261877D01*
X111098150Y-146262613D01*
X111098149Y-146262613D01*
X111054935Y-146267155D01*
X110941495Y-146279078D01*
X110934827Y-146281348D01*
X110792382Y-146329840D01*
X110792379Y-146329841D01*
X110785715Y-146332110D01*
X110645555Y-146418337D01*
X110527982Y-146533473D01*
X110438838Y-146671797D01*
X110436427Y-146678420D01*
X110436426Y-146678423D01*
X110384966Y-146819809D01*
X110384965Y-146819814D01*
X110382556Y-146826432D01*
X110361931Y-146989694D01*
X110377989Y-147153468D01*
X110429932Y-147309615D01*
X110433580Y-147315638D01*
X110433581Y-147315641D01*
X110436520Y-147320494D01*
X110454698Y-147389124D01*
X110444796Y-147428986D01*
X110446731Y-147429690D01*
X110392859Y-147577702D01*
X110392858Y-147577707D01*
X110390449Y-147584325D01*
X110369824Y-147747587D01*
X110367577Y-147747303D01*
X110349811Y-147804836D01*
X110295515Y-147850579D01*
X110257941Y-147860559D01*
X110237990Y-147862656D01*
X110150400Y-147871862D01*
X110143732Y-147874132D01*
X110001287Y-147922624D01*
X110001284Y-147922625D01*
X109994620Y-147924894D01*
X109854460Y-148011121D01*
X109736887Y-148126257D01*
X109647743Y-148264581D01*
X109645332Y-148271204D01*
X109645331Y-148271207D01*
X109593871Y-148412593D01*
X109593870Y-148412598D01*
X109591461Y-148419216D01*
X109570836Y-148582478D01*
X109572940Y-148603933D01*
X109575297Y-148627982D01*
X109562037Y-148697730D01*
X109538056Y-148730299D01*
X109491029Y-148776352D01*
X109484366Y-148782877D01*
X109395222Y-148921201D01*
X109392811Y-148927824D01*
X109392810Y-148927827D01*
X109368915Y-148993479D01*
X109326821Y-149050651D01*
X109263685Y-149075695D01*
X109231495Y-149079078D01*
X109224827Y-149081348D01*
X109082382Y-149129840D01*
X109082379Y-149129841D01*
X109075715Y-149132110D01*
X108935555Y-149218337D01*
X108899785Y-149253366D01*
X108831525Y-149320211D01*
X108817982Y-149333473D01*
X108728838Y-149471797D01*
X108726427Y-149478420D01*
X108726427Y-149478421D01*
X108712246Y-149517383D01*
X108670151Y-149574555D01*
X108634451Y-149593566D01*
X108532774Y-149628180D01*
X108532771Y-149628181D01*
X108526107Y-149630450D01*
X108385947Y-149716677D01*
X108268374Y-149831813D01*
X108179230Y-149970137D01*
X108176819Y-149976760D01*
X108176818Y-149976763D01*
X108125358Y-150118149D01*
X108125357Y-150118154D01*
X108122948Y-150124772D01*
X108102323Y-150288034D01*
X94508500Y-150288034D01*
X94508500Y-147030694D01*
X101461931Y-147030694D01*
X101477989Y-147194468D01*
X101529932Y-147350615D01*
X101533581Y-147356640D01*
X101587464Y-147445610D01*
X101615179Y-147491373D01*
X101729491Y-147609747D01*
X101867189Y-147699854D01*
X102021428Y-147757215D01*
X102028409Y-147758146D01*
X102028411Y-147758147D01*
X102177561Y-147778048D01*
X102177565Y-147778048D01*
X102184542Y-147778979D01*
X102191553Y-147778341D01*
X102191557Y-147778341D01*
X102341403Y-147764704D01*
X102341404Y-147764704D01*
X102348424Y-147764065D01*
X102400012Y-147747303D01*
X102498230Y-147715390D01*
X102498233Y-147715389D01*
X102504929Y-147713213D01*
X102646279Y-147628951D01*
X102765449Y-147515468D01*
X102781458Y-147491373D01*
X102852614Y-147384275D01*
X102852615Y-147384273D01*
X102856515Y-147378403D01*
X102914951Y-147224568D01*
X102937853Y-147061610D01*
X102938141Y-147041000D01*
X102919798Y-146877466D01*
X102915798Y-146865978D01*
X102867998Y-146728717D01*
X102865680Y-146722060D01*
X102838413Y-146678423D01*
X102782209Y-146588479D01*
X102778476Y-146582505D01*
X102720499Y-146524122D01*
X102667486Y-146470737D01*
X102667482Y-146470734D01*
X102662522Y-146465739D01*
X102523580Y-146377563D01*
X102406299Y-146335801D01*
X102375189Y-146324723D01*
X102375187Y-146324722D01*
X102368555Y-146322361D01*
X102361569Y-146321528D01*
X102361565Y-146321527D01*
X102247071Y-146307875D01*
X102205153Y-146302877D01*
X102198150Y-146303613D01*
X102198149Y-146303613D01*
X102154935Y-146308155D01*
X102041495Y-146320078D01*
X102034827Y-146322348D01*
X101892382Y-146370840D01*
X101892379Y-146370841D01*
X101885715Y-146373110D01*
X101745555Y-146459337D01*
X101627982Y-146574473D01*
X101538838Y-146712797D01*
X101536427Y-146719420D01*
X101536426Y-146719423D01*
X101484966Y-146860809D01*
X101484965Y-146860814D01*
X101482556Y-146867432D01*
X101461931Y-147030694D01*
X94508500Y-147030694D01*
X94508500Y-145549694D01*
X98011931Y-145549694D01*
X98027989Y-145713468D01*
X98079932Y-145869615D01*
X98083581Y-145875640D01*
X98146130Y-145978919D01*
X98165179Y-146010373D01*
X98279491Y-146128747D01*
X98417189Y-146218854D01*
X98571428Y-146276215D01*
X98578409Y-146277146D01*
X98578411Y-146277147D01*
X98727561Y-146297048D01*
X98727565Y-146297048D01*
X98734542Y-146297979D01*
X98741553Y-146297341D01*
X98741557Y-146297341D01*
X98891403Y-146283704D01*
X98891404Y-146283704D01*
X98898424Y-146283065D01*
X98961067Y-146262711D01*
X99048230Y-146234390D01*
X99048233Y-146234389D01*
X99054929Y-146232213D01*
X99196279Y-146147951D01*
X99315449Y-146034468D01*
X99333835Y-146006795D01*
X99402614Y-145903275D01*
X99402615Y-145903273D01*
X99406515Y-145897403D01*
X99464951Y-145743568D01*
X99473507Y-145682689D01*
X99487302Y-145584534D01*
X99487303Y-145584527D01*
X99487853Y-145580610D01*
X99488019Y-145568708D01*
X99488086Y-145563962D01*
X99488086Y-145563956D01*
X99488141Y-145560000D01*
X99469798Y-145396466D01*
X99463998Y-145379809D01*
X99445709Y-145327292D01*
X99415680Y-145241060D01*
X99328476Y-145101505D01*
X99270499Y-145043122D01*
X99217486Y-144989737D01*
X99217482Y-144989734D01*
X99212522Y-144984739D01*
X99073580Y-144896563D01*
X99024447Y-144879068D01*
X98925189Y-144843723D01*
X98925187Y-144843722D01*
X98918555Y-144841361D01*
X98911569Y-144840528D01*
X98911565Y-144840527D01*
X98797071Y-144826875D01*
X98755153Y-144821877D01*
X98748150Y-144822613D01*
X98748149Y-144822613D01*
X98704935Y-144827155D01*
X98591495Y-144839078D01*
X98584827Y-144841348D01*
X98442382Y-144889840D01*
X98442379Y-144889841D01*
X98435715Y-144892110D01*
X98295555Y-144978337D01*
X98177982Y-145093473D01*
X98088838Y-145231797D01*
X98086427Y-145238420D01*
X98086426Y-145238423D01*
X98034966Y-145379809D01*
X98034965Y-145379814D01*
X98032556Y-145386432D01*
X98011931Y-145549694D01*
X94508500Y-145549694D01*
X94508500Y-144799694D01*
X99981931Y-144799694D01*
X99997989Y-144963468D01*
X100049932Y-145119615D01*
X100053581Y-145125640D01*
X100123483Y-145241060D01*
X100135179Y-145260373D01*
X100249491Y-145378747D01*
X100387189Y-145468854D01*
X100541428Y-145526215D01*
X100548407Y-145527146D01*
X100548410Y-145527147D01*
X100594257Y-145533264D01*
X100638338Y-145539146D01*
X100703214Y-145567980D01*
X100741230Y-145624264D01*
X100774692Y-145724855D01*
X100859939Y-145865613D01*
X100974251Y-145983987D01*
X101111949Y-146074094D01*
X101266188Y-146131455D01*
X101273169Y-146132386D01*
X101273171Y-146132387D01*
X101422321Y-146152288D01*
X101422325Y-146152288D01*
X101429302Y-146153219D01*
X101436313Y-146152581D01*
X101436317Y-146152581D01*
X101586163Y-146138944D01*
X101586164Y-146138944D01*
X101593184Y-146138305D01*
X101638198Y-146123679D01*
X101742990Y-146089630D01*
X101742993Y-146089629D01*
X101749689Y-146087453D01*
X101891039Y-146003191D01*
X102010209Y-145889708D01*
X102028001Y-145862929D01*
X102097374Y-145758515D01*
X102097375Y-145758513D01*
X102101275Y-145752643D01*
X102159711Y-145598808D01*
X102170258Y-145523760D01*
X102182062Y-145439774D01*
X102182063Y-145439767D01*
X102182613Y-145435850D01*
X102182901Y-145415240D01*
X102164558Y-145251706D01*
X102159933Y-145238423D01*
X102112758Y-145102957D01*
X102110440Y-145096300D01*
X102023236Y-144956745D01*
X101961124Y-144894198D01*
X101912246Y-144844977D01*
X101912242Y-144844974D01*
X101907282Y-144839979D01*
X101768340Y-144751803D01*
X101719207Y-144734308D01*
X101619949Y-144698963D01*
X101619947Y-144698962D01*
X101613315Y-144696601D01*
X101606327Y-144695768D01*
X101606324Y-144695767D01*
X101563769Y-144690693D01*
X101528675Y-144686509D01*
X101463403Y-144658582D01*
X101424603Y-144602832D01*
X101387998Y-144497717D01*
X101385680Y-144491060D01*
X101298476Y-144351505D01*
X101240499Y-144293122D01*
X101187486Y-144239737D01*
X101187482Y-144239734D01*
X101182522Y-144234739D01*
X101043580Y-144146563D01*
X100994447Y-144129068D01*
X100895189Y-144093723D01*
X100895187Y-144093722D01*
X100888555Y-144091361D01*
X100881569Y-144090528D01*
X100881565Y-144090527D01*
X100767071Y-144076875D01*
X100725153Y-144071877D01*
X100718150Y-144072613D01*
X100718149Y-144072613D01*
X100674935Y-144077155D01*
X100561495Y-144089078D01*
X100554827Y-144091348D01*
X100412382Y-144139840D01*
X100412379Y-144139841D01*
X100405715Y-144142110D01*
X100265555Y-144228337D01*
X100147982Y-144343473D01*
X100058838Y-144481797D01*
X100056427Y-144488420D01*
X100056426Y-144488423D01*
X100004966Y-144629809D01*
X100004965Y-144629814D01*
X100002556Y-144636432D01*
X99981931Y-144799694D01*
X94508500Y-144799694D01*
X94508500Y-141118140D01*
X96742487Y-141118140D01*
X96753320Y-141393863D01*
X96754120Y-141398243D01*
X96783064Y-141556723D01*
X96802895Y-141665310D01*
X96890223Y-141927063D01*
X96892215Y-141931050D01*
X96892216Y-141931052D01*
X97008929Y-142164632D01*
X97013560Y-142173901D01*
X97170447Y-142400897D01*
X97173463Y-142404159D01*
X97173468Y-142404166D01*
X97354737Y-142600261D01*
X97354742Y-142600265D01*
X97357753Y-142603523D01*
X97571740Y-142777737D01*
X97575558Y-142780036D01*
X97575560Y-142780037D01*
X97804323Y-142917763D01*
X97808140Y-142920061D01*
X97812235Y-142921795D01*
X97812237Y-142921796D01*
X98058134Y-143025920D01*
X98058141Y-143025922D01*
X98062235Y-143027656D01*
X98328955Y-143098376D01*
X98333379Y-143098900D01*
X98333381Y-143098900D01*
X98491891Y-143117660D01*
X98602979Y-143130808D01*
X98878838Y-143124307D01*
X98883233Y-143123575D01*
X98883238Y-143123575D01*
X99146628Y-143079735D01*
X99146632Y-143079734D01*
X99151030Y-143079002D01*
X99321760Y-143025007D01*
X99409877Y-142997140D01*
X99409879Y-142997139D01*
X99414123Y-142995797D01*
X99418134Y-142993871D01*
X99418139Y-142993869D01*
X99658848Y-142878282D01*
X99658849Y-142878281D01*
X99662867Y-142876352D01*
X99807013Y-142780037D01*
X99888592Y-142725528D01*
X99888596Y-142725525D01*
X99892300Y-142723050D01*
X100059041Y-142573704D01*
X100094525Y-142541922D01*
X100094526Y-142541921D01*
X100097843Y-142538950D01*
X100155571Y-142470275D01*
X100214715Y-142431001D01*
X100285703Y-142429936D01*
X100321014Y-142445919D01*
X100337260Y-142456550D01*
X100417189Y-142508854D01*
X100571428Y-142566215D01*
X100578409Y-142567146D01*
X100578411Y-142567147D01*
X100727561Y-142587048D01*
X100727565Y-142587048D01*
X100734542Y-142587979D01*
X100741553Y-142587341D01*
X100741557Y-142587341D01*
X100891403Y-142573704D01*
X100891404Y-142573704D01*
X100898424Y-142573065D01*
X100927062Y-142563760D01*
X101048230Y-142524390D01*
X101048233Y-142524389D01*
X101054929Y-142522213D01*
X101196279Y-142437951D01*
X101315449Y-142324468D01*
X101406515Y-142187403D01*
X101464951Y-142033568D01*
X101479919Y-141927063D01*
X101487302Y-141874534D01*
X101487303Y-141874527D01*
X101487853Y-141870610D01*
X101488141Y-141850000D01*
X101469798Y-141686466D01*
X101460906Y-141660930D01*
X101423322Y-141553006D01*
X101415680Y-141531060D01*
X101328476Y-141391505D01*
X101326836Y-141389854D01*
X101300899Y-141325772D01*
X101314070Y-141256008D01*
X101362868Y-141204440D01*
X101431799Y-141187440D01*
X101442944Y-141188426D01*
X101452265Y-141189669D01*
X101507561Y-141197048D01*
X101507565Y-141197048D01*
X101514542Y-141197979D01*
X101521553Y-141197341D01*
X101521557Y-141197341D01*
X101671403Y-141183704D01*
X101671404Y-141183704D01*
X101678424Y-141183065D01*
X101834929Y-141132213D01*
X101835053Y-141132593D01*
X101901196Y-141123258D01*
X101965700Y-141152918D01*
X102003929Y-141212743D01*
X102008786Y-141241664D01*
X102016250Y-141391583D01*
X102020173Y-141470388D01*
X102020814Y-141474119D01*
X102020815Y-141474127D01*
X102057302Y-141686466D01*
X102074202Y-141784821D01*
X102075290Y-141788460D01*
X102075291Y-141788463D01*
X102115477Y-141922834D01*
X102165615Y-142090485D01*
X102293088Y-142382954D01*
X102295011Y-142386226D01*
X102295013Y-142386229D01*
X102320707Y-142429936D01*
X102454774Y-142657991D01*
X102648330Y-142911611D01*
X102650974Y-142914325D01*
X102861353Y-143130285D01*
X102870954Y-143140141D01*
X102873908Y-143142521D01*
X102873911Y-143142523D01*
X103116468Y-143337892D01*
X103116473Y-143337896D01*
X103119421Y-143340270D01*
X103390130Y-143509100D01*
X103679162Y-143644185D01*
X103982329Y-143743568D01*
X104295240Y-143805810D01*
X104299012Y-143806097D01*
X104299020Y-143806098D01*
X104609585Y-143829722D01*
X104609590Y-143829722D01*
X104613362Y-143830009D01*
X104932088Y-143815814D01*
X105246799Y-143763432D01*
X105552939Y-143673621D01*
X105846071Y-143547681D01*
X106121950Y-143387438D01*
X106376580Y-143195212D01*
X106606273Y-142973787D01*
X106648601Y-142921796D01*
X106805309Y-142729309D01*
X106805310Y-142729308D01*
X106807700Y-142726372D01*
X106809796Y-142723050D01*
X106975922Y-142459757D01*
X106975925Y-142459751D01*
X106977945Y-142456550D01*
X107114542Y-142168229D01*
X107215511Y-141865587D01*
X107279390Y-141553006D01*
X107305255Y-141235015D01*
X107305836Y-141179500D01*
X107304234Y-141152918D01*
X107286865Y-140864815D01*
X107286865Y-140864811D01*
X107286637Y-140861037D01*
X107282670Y-140839313D01*
X107229998Y-140550909D01*
X107229997Y-140550905D01*
X107229318Y-140547187D01*
X107134709Y-140242496D01*
X107004180Y-139951378D01*
X106839623Y-139678050D01*
X106837296Y-139675066D01*
X106837291Y-139675059D01*
X106692728Y-139489694D01*
X138511931Y-139489694D01*
X138527989Y-139653468D01*
X138579932Y-139809615D01*
X138583581Y-139815640D01*
X138653019Y-139930294D01*
X138665179Y-139950373D01*
X138670070Y-139955438D01*
X138670071Y-139955439D01*
X138682778Y-139968597D01*
X138779491Y-140068747D01*
X138917189Y-140158854D01*
X139071428Y-140216215D01*
X139078409Y-140217146D01*
X139078411Y-140217147D01*
X139227561Y-140237048D01*
X139227565Y-140237048D01*
X139234542Y-140237979D01*
X139241553Y-140237341D01*
X139241557Y-140237341D01*
X139391403Y-140223704D01*
X139391404Y-140223704D01*
X139398424Y-140223065D01*
X139427062Y-140213760D01*
X139548230Y-140174390D01*
X139548233Y-140174389D01*
X139554929Y-140172213D01*
X139696279Y-140087951D01*
X139815449Y-139974468D01*
X139828092Y-139955439D01*
X139902614Y-139843275D01*
X139902615Y-139843273D01*
X139906515Y-139837403D01*
X139964951Y-139683568D01*
X139973507Y-139622689D01*
X139987302Y-139524534D01*
X139987303Y-139524527D01*
X139987853Y-139520610D01*
X139988141Y-139500000D01*
X139969798Y-139336466D01*
X139963998Y-139319809D01*
X139945709Y-139267292D01*
X139915680Y-139181060D01*
X139828476Y-139041505D01*
X139770499Y-138983122D01*
X139717486Y-138929737D01*
X139717482Y-138929734D01*
X139712522Y-138924739D01*
X139573580Y-138836563D01*
X139524447Y-138819068D01*
X139425189Y-138783723D01*
X139425187Y-138783722D01*
X139418555Y-138781361D01*
X139411569Y-138780528D01*
X139411565Y-138780527D01*
X139297071Y-138766875D01*
X139255153Y-138761877D01*
X139248150Y-138762613D01*
X139248149Y-138762613D01*
X139204935Y-138767155D01*
X139091495Y-138779078D01*
X139084827Y-138781348D01*
X138942382Y-138829840D01*
X138942379Y-138829841D01*
X138935715Y-138832110D01*
X138795555Y-138918337D01*
X138677982Y-139033473D01*
X138588838Y-139171797D01*
X138586427Y-139178420D01*
X138586426Y-139178423D01*
X138534966Y-139319809D01*
X138534965Y-139319814D01*
X138532556Y-139326432D01*
X138511931Y-139489694D01*
X106692728Y-139489694D01*
X106645752Y-139429459D01*
X106645746Y-139429452D01*
X106643421Y-139426471D01*
X106418417Y-139200285D01*
X106167868Y-139002768D01*
X105895405Y-138836782D01*
X105732495Y-138762711D01*
X105608427Y-138706300D01*
X105608419Y-138706297D01*
X105604975Y-138704731D01*
X105300783Y-138608528D01*
X105161957Y-138582422D01*
X104990962Y-138550267D01*
X104990957Y-138550266D01*
X104987238Y-138549567D01*
X104668880Y-138528700D01*
X104665100Y-138528908D01*
X104665099Y-138528908D01*
X104569459Y-138534172D01*
X104350320Y-138546232D01*
X104346593Y-138546893D01*
X104346589Y-138546893D01*
X104235338Y-138566610D01*
X104036175Y-138601907D01*
X104032559Y-138603009D01*
X104032551Y-138603011D01*
X103734617Y-138693814D01*
X103734610Y-138693817D01*
X103730993Y-138694919D01*
X103439195Y-138823921D01*
X103435941Y-138825857D01*
X103435935Y-138825860D01*
X103168268Y-138985106D01*
X103165009Y-138987045D01*
X102912406Y-139181927D01*
X102685045Y-139405744D01*
X102486219Y-139655255D01*
X102318809Y-139926845D01*
X102317219Y-139930294D01*
X102304585Y-139957698D01*
X102257900Y-140011186D01*
X102189709Y-140030944D01*
X102121660Y-140010698D01*
X102100754Y-139993729D01*
X101997486Y-139889737D01*
X101997482Y-139889734D01*
X101992522Y-139884739D01*
X101853580Y-139796563D01*
X101804447Y-139779068D01*
X101705189Y-139743723D01*
X101705187Y-139743722D01*
X101698555Y-139741361D01*
X101691569Y-139740528D01*
X101691565Y-139740527D01*
X101577071Y-139726875D01*
X101535153Y-139721877D01*
X101528150Y-139722613D01*
X101528149Y-139722613D01*
X101484935Y-139727155D01*
X101371495Y-139739078D01*
X101364827Y-139741348D01*
X101222382Y-139789840D01*
X101222379Y-139789841D01*
X101215715Y-139792110D01*
X101118858Y-139851697D01*
X101091898Y-139868283D01*
X101075555Y-139878337D01*
X101038731Y-139914398D01*
X100983385Y-139968597D01*
X100957982Y-139993473D01*
X100868838Y-140131797D01*
X100866427Y-140138420D01*
X100866426Y-140138423D01*
X100814966Y-140279809D01*
X100814965Y-140279814D01*
X100812556Y-140286432D01*
X100791931Y-140449694D01*
X100792619Y-140456707D01*
X100800966Y-140541844D01*
X100787706Y-140611592D01*
X100739557Y-140662345D01*
X100792714Y-140674029D01*
X100842808Y-140724339D01*
X100851647Y-140744708D01*
X100859932Y-140769615D01*
X100945179Y-140910373D01*
X100950071Y-140915439D01*
X100953468Y-140919850D01*
X100979184Y-140986026D01*
X100965040Y-141055599D01*
X100915527Y-141106481D01*
X100846366Y-141122518D01*
X100838736Y-141121843D01*
X100759106Y-141112348D01*
X100759105Y-141112348D01*
X100755153Y-141111877D01*
X100755236Y-141111183D01*
X100692286Y-141092224D01*
X100646167Y-141038246D01*
X100635456Y-140995600D01*
X100629303Y-140908705D01*
X100628988Y-140904253D01*
X100625165Y-140886496D01*
X100608913Y-140811004D01*
X100614130Y-140740200D01*
X100656799Y-140683456D01*
X100667921Y-140679335D01*
X100602740Y-140656960D01*
X100557355Y-140597750D01*
X100540075Y-140550909D01*
X100475405Y-140375616D01*
X100344375Y-140132775D01*
X100309336Y-140085335D01*
X100210394Y-139951378D01*
X100180436Y-139910818D01*
X99986858Y-139714175D01*
X99898128Y-139646459D01*
X99771048Y-139549475D01*
X99771044Y-139549472D01*
X99767503Y-139546770D01*
X99526750Y-139411941D01*
X99522597Y-139410334D01*
X99522592Y-139410332D01*
X99273556Y-139313987D01*
X99273550Y-139313985D01*
X99269401Y-139312380D01*
X99265069Y-139311376D01*
X99265066Y-139311375D01*
X99153915Y-139285612D01*
X99000591Y-139250074D01*
X98725684Y-139226264D01*
X98721249Y-139226508D01*
X98721245Y-139226508D01*
X98454607Y-139241182D01*
X98454600Y-139241183D01*
X98450164Y-139241427D01*
X98262325Y-139278790D01*
X98183893Y-139294391D01*
X98183891Y-139294392D01*
X98179530Y-139295259D01*
X97919181Y-139386687D01*
X97674311Y-139513887D01*
X97670696Y-139516470D01*
X97670690Y-139516474D01*
X97624510Y-139549475D01*
X97449807Y-139674320D01*
X97250148Y-139864786D01*
X97247392Y-139868282D01*
X97247391Y-139868283D01*
X97163681Y-139974468D01*
X97079317Y-140081483D01*
X96940724Y-140320089D01*
X96939056Y-140324206D01*
X96939053Y-140324213D01*
X96847232Y-140550909D01*
X96837133Y-140575842D01*
X96770612Y-140843640D01*
X96742487Y-141118140D01*
X94508500Y-141118140D01*
X94508500Y-135909694D01*
X132211931Y-135909694D01*
X132227989Y-136073468D01*
X132279932Y-136229615D01*
X132283581Y-136235640D01*
X132350728Y-136346511D01*
X132365179Y-136370373D01*
X132479491Y-136488747D01*
X132617189Y-136578854D01*
X132771428Y-136636215D01*
X132778409Y-136637146D01*
X132778411Y-136637147D01*
X132927561Y-136657048D01*
X132927565Y-136657048D01*
X132934542Y-136657979D01*
X132941553Y-136657341D01*
X132941557Y-136657341D01*
X133091403Y-136643704D01*
X133091404Y-136643704D01*
X133098424Y-136643065D01*
X133187510Y-136614119D01*
X133248230Y-136594390D01*
X133248233Y-136594389D01*
X133254929Y-136592213D01*
X133396279Y-136507951D01*
X133515449Y-136394468D01*
X133532697Y-136368508D01*
X133602614Y-136263275D01*
X133602615Y-136263273D01*
X133606515Y-136257403D01*
X133664951Y-136103568D01*
X133678878Y-136004473D01*
X133687302Y-135944534D01*
X133687303Y-135944527D01*
X133687853Y-135940610D01*
X133688141Y-135920000D01*
X133669798Y-135756466D01*
X133663998Y-135739809D01*
X133617998Y-135607717D01*
X133615680Y-135601060D01*
X133597225Y-135571525D01*
X133532209Y-135467479D01*
X133528476Y-135461505D01*
X133443949Y-135376386D01*
X133417486Y-135349737D01*
X133417482Y-135349734D01*
X133412522Y-135344739D01*
X133273580Y-135256563D01*
X133138896Y-135208604D01*
X133125189Y-135203723D01*
X133125187Y-135203722D01*
X133118555Y-135201361D01*
X133111569Y-135200528D01*
X133111565Y-135200527D01*
X132997071Y-135186875D01*
X132955153Y-135181877D01*
X132948150Y-135182613D01*
X132948149Y-135182613D01*
X132904935Y-135187155D01*
X132791495Y-135199078D01*
X132784827Y-135201348D01*
X132642382Y-135249840D01*
X132642379Y-135249841D01*
X132635715Y-135252110D01*
X132495555Y-135338337D01*
X132377982Y-135453473D01*
X132288838Y-135591797D01*
X132286427Y-135598420D01*
X132286426Y-135598423D01*
X132234966Y-135739809D01*
X132234965Y-135739814D01*
X132232556Y-135746432D01*
X132211931Y-135909694D01*
X94508500Y-135909694D01*
X94508500Y-131668640D01*
X96742487Y-131668640D01*
X96742662Y-131673092D01*
X96752012Y-131911062D01*
X96753320Y-131944363D01*
X96754120Y-131948743D01*
X96793609Y-132164962D01*
X96802895Y-132215810D01*
X96890223Y-132477563D01*
X96892215Y-132481550D01*
X96892216Y-132481552D01*
X97008929Y-132715132D01*
X97013560Y-132724401D01*
X97170447Y-132951397D01*
X97173463Y-132954659D01*
X97173468Y-132954666D01*
X97354737Y-133150761D01*
X97354742Y-133150765D01*
X97357753Y-133154023D01*
X97571740Y-133328237D01*
X97575558Y-133330536D01*
X97575560Y-133330537D01*
X97804323Y-133468263D01*
X97808140Y-133470561D01*
X97812235Y-133472295D01*
X97812237Y-133472296D01*
X98058134Y-133576420D01*
X98058141Y-133576422D01*
X98062235Y-133578156D01*
X98328955Y-133648876D01*
X98333379Y-133649400D01*
X98333381Y-133649400D01*
X98491891Y-133668160D01*
X98602979Y-133681308D01*
X98878838Y-133674807D01*
X98883233Y-133674075D01*
X98883238Y-133674075D01*
X99146628Y-133630235D01*
X99146632Y-133630234D01*
X99151030Y-133629502D01*
X99346975Y-133567533D01*
X99409877Y-133547640D01*
X99409879Y-133547639D01*
X99414123Y-133546297D01*
X99418134Y-133544371D01*
X99418139Y-133544369D01*
X99658848Y-133428782D01*
X99658849Y-133428781D01*
X99662867Y-133426852D01*
X99666573Y-133424376D01*
X99888592Y-133276028D01*
X99888596Y-133276025D01*
X99892300Y-133273550D01*
X100097843Y-133089450D01*
X100275396Y-132878225D01*
X100421416Y-132644090D01*
X100532989Y-132391717D01*
X100607889Y-132126140D01*
X100631185Y-131952700D01*
X100644195Y-131855842D01*
X100644196Y-131855834D01*
X100644622Y-131852660D01*
X100644723Y-131849449D01*
X100648376Y-131733222D01*
X100648376Y-131733217D01*
X100648477Y-131730000D01*
X100646512Y-131702241D01*
X102004309Y-131702241D01*
X102006608Y-131748424D01*
X102018666Y-131990610D01*
X102020173Y-132020888D01*
X102020814Y-132024619D01*
X102020815Y-132024627D01*
X102070414Y-132313275D01*
X102074202Y-132335321D01*
X102075290Y-132338960D01*
X102075291Y-132338963D01*
X102162722Y-132631310D01*
X102165615Y-132640985D01*
X102293088Y-132933454D01*
X102295011Y-132936726D01*
X102295013Y-132936729D01*
X102334338Y-133003622D01*
X102454774Y-133208491D01*
X102648330Y-133462111D01*
X102650974Y-133464825D01*
X102861353Y-133680785D01*
X102870954Y-133690641D01*
X102873908Y-133693021D01*
X102873911Y-133693023D01*
X103116468Y-133888392D01*
X103116473Y-133888396D01*
X103119421Y-133890770D01*
X103390130Y-134059600D01*
X103679162Y-134194685D01*
X103982329Y-134294068D01*
X104295240Y-134356310D01*
X104299012Y-134356597D01*
X104299020Y-134356598D01*
X104609585Y-134380222D01*
X104609590Y-134380222D01*
X104613362Y-134380509D01*
X104932088Y-134366314D01*
X105246799Y-134313932D01*
X105552939Y-134224121D01*
X105846071Y-134098181D01*
X106121950Y-133937938D01*
X106376580Y-133745712D01*
X106606273Y-133524287D01*
X106648601Y-133472296D01*
X106698692Y-133410768D01*
X159305711Y-133410768D01*
X159321769Y-133574542D01*
X159323993Y-133581227D01*
X159373712Y-133730689D01*
X159372327Y-133731150D01*
X159381583Y-133793524D01*
X159375189Y-133819244D01*
X159327231Y-133951008D01*
X159306606Y-134114270D01*
X159322664Y-134278044D01*
X159374607Y-134434191D01*
X159459854Y-134574949D01*
X159574166Y-134693323D01*
X159711864Y-134783430D01*
X159866103Y-134840791D01*
X159873084Y-134841722D01*
X159873086Y-134841723D01*
X160022236Y-134861624D01*
X160022240Y-134861624D01*
X160029217Y-134862555D01*
X160036228Y-134861917D01*
X160036232Y-134861917D01*
X160186078Y-134848280D01*
X160186079Y-134848280D01*
X160193099Y-134847641D01*
X160231887Y-134835038D01*
X160342905Y-134798966D01*
X160342908Y-134798965D01*
X160349604Y-134796789D01*
X160490954Y-134712527D01*
X160610124Y-134599044D01*
X160626133Y-134574949D01*
X160697289Y-134467851D01*
X160697290Y-134467849D01*
X160701190Y-134461979D01*
X160759626Y-134308144D01*
X160771435Y-134224121D01*
X160781977Y-134149110D01*
X160781978Y-134149103D01*
X160782528Y-134145186D01*
X160782816Y-134124576D01*
X160764473Y-133961042D01*
X160758674Y-133944388D01*
X160740701Y-133892778D01*
X160712057Y-133810523D01*
X160708543Y-133739616D01*
X160713256Y-133724355D01*
X160758731Y-133604642D01*
X160778381Y-133464825D01*
X160781082Y-133445608D01*
X160781083Y-133445601D01*
X160781633Y-133441684D01*
X160781813Y-133428782D01*
X160781866Y-133425036D01*
X160781866Y-133425030D01*
X160781921Y-133421074D01*
X160763578Y-133257540D01*
X160757778Y-133240883D01*
X160711778Y-133108791D01*
X160709460Y-133102134D01*
X160699402Y-133086037D01*
X160625989Y-132968553D01*
X160622256Y-132962579D01*
X160538489Y-132878225D01*
X160511266Y-132850811D01*
X160511262Y-132850808D01*
X160506302Y-132845813D01*
X160367360Y-132757637D01*
X160318227Y-132740142D01*
X160218969Y-132704797D01*
X160218967Y-132704796D01*
X160212335Y-132702435D01*
X160205349Y-132701602D01*
X160205345Y-132701601D01*
X160090851Y-132687949D01*
X160048933Y-132682951D01*
X160041930Y-132683687D01*
X160041929Y-132683687D01*
X160009010Y-132687147D01*
X159885275Y-132700152D01*
X159878607Y-132702422D01*
X159736162Y-132750914D01*
X159736159Y-132750915D01*
X159729495Y-132753184D01*
X159589335Y-132839411D01*
X159471762Y-132954547D01*
X159382618Y-133092871D01*
X159380207Y-133099494D01*
X159380206Y-133099497D01*
X159328746Y-133240883D01*
X159328745Y-133240888D01*
X159326336Y-133247506D01*
X159305711Y-133410768D01*
X106698692Y-133410768D01*
X106805309Y-133279809D01*
X106805310Y-133279808D01*
X106807700Y-133276872D01*
X106809796Y-133273550D01*
X106975922Y-133010257D01*
X106975925Y-133010251D01*
X106977945Y-133007050D01*
X107114542Y-132718729D01*
X107187516Y-132500000D01*
X117586496Y-132500000D01*
X117587186Y-132506565D01*
X117605725Y-132682951D01*
X117606458Y-132689928D01*
X117665473Y-132871556D01*
X117760960Y-133036944D01*
X117765378Y-133041851D01*
X117765379Y-133041852D01*
X117811317Y-133092871D01*
X117888747Y-133178866D01*
X117987843Y-133250864D01*
X118027683Y-133279809D01*
X118043248Y-133291118D01*
X118049276Y-133293802D01*
X118049278Y-133293803D01*
X118211681Y-133366109D01*
X118217712Y-133368794D01*
X118311113Y-133388647D01*
X118398056Y-133407128D01*
X118398061Y-133407128D01*
X118404513Y-133408500D01*
X118595487Y-133408500D01*
X118601939Y-133407128D01*
X118601944Y-133407128D01*
X118688887Y-133388647D01*
X118782288Y-133368794D01*
X118788319Y-133366109D01*
X118950722Y-133293803D01*
X118950724Y-133293802D01*
X118956752Y-133291118D01*
X118972318Y-133279809D01*
X119012157Y-133250864D01*
X119111253Y-133178866D01*
X119188683Y-133092871D01*
X119234621Y-133041852D01*
X119234622Y-133041851D01*
X119239040Y-133036944D01*
X119334527Y-132871556D01*
X119393542Y-132689928D01*
X119394276Y-132682951D01*
X119412814Y-132506565D01*
X119413504Y-132500000D01*
X119405135Y-132420373D01*
X119394232Y-132316635D01*
X119394232Y-132316633D01*
X119393542Y-132310072D01*
X119334527Y-132128444D01*
X119327608Y-132116459D01*
X119252661Y-131986649D01*
X119239040Y-131963056D01*
X119236013Y-131959694D01*
X124341931Y-131959694D01*
X124357989Y-132123468D01*
X124409932Y-132279615D01*
X124426761Y-132307403D01*
X124464938Y-132370439D01*
X124495179Y-132420373D01*
X124500070Y-132425438D01*
X124500071Y-132425439D01*
X124551484Y-132478679D01*
X124609491Y-132538747D01*
X124747189Y-132628854D01*
X124901428Y-132686215D01*
X124908409Y-132687146D01*
X124908411Y-132687147D01*
X125057561Y-132707048D01*
X125057565Y-132707048D01*
X125064542Y-132707979D01*
X125071553Y-132707341D01*
X125071557Y-132707341D01*
X125221403Y-132693704D01*
X125221404Y-132693704D01*
X125228424Y-132693065D01*
X125259551Y-132682951D01*
X125378230Y-132644390D01*
X125378233Y-132644389D01*
X125384929Y-132642213D01*
X125526279Y-132557951D01*
X125645449Y-132444468D01*
X125661922Y-132419674D01*
X125732614Y-132313275D01*
X125732615Y-132313273D01*
X125736515Y-132307403D01*
X125794951Y-132153568D01*
X125807896Y-132061459D01*
X125817302Y-131994534D01*
X125817303Y-131994527D01*
X125817853Y-131990610D01*
X125818141Y-131970000D01*
X125810816Y-131904694D01*
X134536931Y-131904694D01*
X134552989Y-132068468D01*
X134604932Y-132224615D01*
X134608581Y-132230640D01*
X134671979Y-132335321D01*
X134690179Y-132365373D01*
X134804491Y-132483747D01*
X134942189Y-132573854D01*
X135096428Y-132631215D01*
X135103409Y-132632146D01*
X135103411Y-132632147D01*
X135252561Y-132652048D01*
X135252565Y-132652048D01*
X135259542Y-132652979D01*
X135266553Y-132652341D01*
X135266557Y-132652341D01*
X135416403Y-132638704D01*
X135416404Y-132638704D01*
X135423424Y-132638065D01*
X135463652Y-132624994D01*
X135573230Y-132589390D01*
X135573233Y-132589389D01*
X135579929Y-132587213D01*
X135721279Y-132502951D01*
X135840449Y-132389468D01*
X135856458Y-132365373D01*
X135927614Y-132258275D01*
X135927615Y-132258273D01*
X135931515Y-132252403D01*
X135989951Y-132098568D01*
X136004572Y-131994534D01*
X136012302Y-131939534D01*
X136012303Y-131939527D01*
X136012853Y-131935610D01*
X136013141Y-131915000D01*
X135994798Y-131751466D01*
X135988998Y-131734809D01*
X135942998Y-131602717D01*
X135940680Y-131596060D01*
X135853476Y-131456505D01*
X135777779Y-131380278D01*
X135742486Y-131344737D01*
X135742482Y-131344734D01*
X135737522Y-131339739D01*
X135598580Y-131251563D01*
X135495936Y-131215013D01*
X135450189Y-131198723D01*
X135450187Y-131198722D01*
X135443555Y-131196361D01*
X135436569Y-131195528D01*
X135436565Y-131195527D01*
X135313246Y-131180823D01*
X135280153Y-131176877D01*
X135273150Y-131177613D01*
X135273149Y-131177613D01*
X135242609Y-131180823D01*
X135116495Y-131194078D01*
X135109827Y-131196348D01*
X134967382Y-131244840D01*
X134967379Y-131244841D01*
X134960715Y-131247110D01*
X134820555Y-131333337D01*
X134702982Y-131448473D01*
X134613838Y-131586797D01*
X134611427Y-131593420D01*
X134611426Y-131593423D01*
X134559966Y-131734809D01*
X134559965Y-131734814D01*
X134557556Y-131741432D01*
X134536931Y-131904694D01*
X125810816Y-131904694D01*
X125799798Y-131806466D01*
X125793998Y-131789809D01*
X125747998Y-131657717D01*
X125745680Y-131651060D01*
X125732417Y-131629834D01*
X125662209Y-131517479D01*
X125658476Y-131511505D01*
X125590990Y-131443546D01*
X125547486Y-131399737D01*
X125547482Y-131399734D01*
X125542522Y-131394739D01*
X125403580Y-131306563D01*
X125354447Y-131289068D01*
X125255189Y-131253723D01*
X125255187Y-131253722D01*
X125248555Y-131251361D01*
X125241569Y-131250528D01*
X125241565Y-131250527D01*
X125127071Y-131236875D01*
X125085153Y-131231877D01*
X125078150Y-131232613D01*
X125078149Y-131232613D01*
X125034935Y-131237155D01*
X124921495Y-131249078D01*
X124914827Y-131251348D01*
X124772382Y-131299840D01*
X124772379Y-131299841D01*
X124765715Y-131302110D01*
X124625555Y-131388337D01*
X124507982Y-131503473D01*
X124418838Y-131641797D01*
X124416427Y-131648420D01*
X124416426Y-131648423D01*
X124364966Y-131789809D01*
X124364965Y-131789814D01*
X124362556Y-131796432D01*
X124341931Y-131959694D01*
X119236013Y-131959694D01*
X119229716Y-131952700D01*
X119115675Y-131826045D01*
X119115674Y-131826044D01*
X119111253Y-131821134D01*
X118956752Y-131708882D01*
X118950724Y-131706198D01*
X118950722Y-131706197D01*
X118788319Y-131633891D01*
X118788318Y-131633891D01*
X118782288Y-131631206D01*
X118688888Y-131611353D01*
X118601944Y-131592872D01*
X118601939Y-131592872D01*
X118595487Y-131591500D01*
X118404513Y-131591500D01*
X118398061Y-131592872D01*
X118398056Y-131592872D01*
X118311112Y-131611353D01*
X118217712Y-131631206D01*
X118211682Y-131633891D01*
X118211681Y-131633891D01*
X118049278Y-131706197D01*
X118049276Y-131706198D01*
X118043248Y-131708882D01*
X117888747Y-131821134D01*
X117884326Y-131826044D01*
X117884325Y-131826045D01*
X117770285Y-131952700D01*
X117760960Y-131963056D01*
X117747339Y-131986649D01*
X117672393Y-132116459D01*
X117665473Y-132128444D01*
X117606458Y-132310072D01*
X117605768Y-132316633D01*
X117605768Y-132316635D01*
X117594865Y-132420373D01*
X117586496Y-132500000D01*
X107187516Y-132500000D01*
X107215511Y-132416087D01*
X107279390Y-132103506D01*
X107305255Y-131785515D01*
X107305786Y-131734809D01*
X107305813Y-131732221D01*
X107305813Y-131732214D01*
X107305836Y-131730000D01*
X107302406Y-131673092D01*
X107286865Y-131415315D01*
X107286865Y-131415311D01*
X107286637Y-131411537D01*
X107274437Y-131344737D01*
X107229998Y-131101409D01*
X107229997Y-131101405D01*
X107229318Y-131097687D01*
X107220003Y-131067686D01*
X107174827Y-130922198D01*
X107134709Y-130792996D01*
X107004180Y-130501878D01*
X106839623Y-130228550D01*
X106837296Y-130225566D01*
X106837291Y-130225559D01*
X106645752Y-129979959D01*
X106645746Y-129979952D01*
X106643421Y-129976971D01*
X106418417Y-129750785D01*
X106167868Y-129553268D01*
X105895405Y-129387282D01*
X105722369Y-129308607D01*
X105608427Y-129256800D01*
X105608419Y-129256797D01*
X105604975Y-129255231D01*
X105300783Y-129159028D01*
X105161957Y-129132922D01*
X104990962Y-129100767D01*
X104990957Y-129100766D01*
X104987238Y-129100067D01*
X104668880Y-129079200D01*
X104665100Y-129079408D01*
X104665099Y-129079408D01*
X104575303Y-129084350D01*
X104350320Y-129096732D01*
X104346593Y-129097393D01*
X104346589Y-129097393D01*
X104267556Y-129111400D01*
X104036175Y-129152407D01*
X104032559Y-129153509D01*
X104032551Y-129153511D01*
X103734617Y-129244314D01*
X103734610Y-129244317D01*
X103730993Y-129245419D01*
X103439195Y-129374421D01*
X103435941Y-129376357D01*
X103435935Y-129376360D01*
X103301221Y-129456507D01*
X103165009Y-129537545D01*
X103162008Y-129539860D01*
X103162004Y-129539863D01*
X103123077Y-129569895D01*
X102912406Y-129732427D01*
X102909708Y-129735083D01*
X102689762Y-129951601D01*
X102685045Y-129956244D01*
X102486219Y-130205755D01*
X102318809Y-130477345D01*
X102185239Y-130767081D01*
X102184080Y-130770681D01*
X102184077Y-130770688D01*
X102089230Y-131065220D01*
X102087445Y-131070764D01*
X102086726Y-131074480D01*
X102086724Y-131074488D01*
X102027561Y-131380278D01*
X102026842Y-131383996D01*
X102026575Y-131387772D01*
X102026574Y-131387777D01*
X102007933Y-131651060D01*
X102004309Y-131702241D01*
X100646512Y-131702241D01*
X100628988Y-131454753D01*
X100620498Y-131415315D01*
X100571848Y-131189344D01*
X100571847Y-131189342D01*
X100570912Y-131184997D01*
X100475405Y-130926116D01*
X100344375Y-130683275D01*
X100325692Y-130657979D01*
X100212956Y-130505347D01*
X100180436Y-130461318D01*
X99986858Y-130264675D01*
X99902370Y-130200196D01*
X99771048Y-130099975D01*
X99771044Y-130099972D01*
X99767503Y-130097270D01*
X99526750Y-129962441D01*
X99522597Y-129960834D01*
X99522592Y-129960832D01*
X99273556Y-129864487D01*
X99273550Y-129864485D01*
X99269401Y-129862880D01*
X99265069Y-129861876D01*
X99265066Y-129861875D01*
X99149281Y-129835038D01*
X99000591Y-129800574D01*
X98725684Y-129776764D01*
X98721249Y-129777008D01*
X98721245Y-129777008D01*
X98454607Y-129791682D01*
X98454600Y-129791683D01*
X98450164Y-129791927D01*
X98262325Y-129829290D01*
X98183893Y-129844891D01*
X98183891Y-129844892D01*
X98179530Y-129845759D01*
X97919181Y-129937187D01*
X97674311Y-130064387D01*
X97670696Y-130066970D01*
X97670690Y-130066974D01*
X97553235Y-130150909D01*
X97449807Y-130224820D01*
X97250148Y-130415286D01*
X97079317Y-130631983D01*
X96940724Y-130870589D01*
X96939056Y-130874706D01*
X96939053Y-130874713D01*
X96844360Y-131108500D01*
X96837133Y-131126342D01*
X96770612Y-131394140D01*
X96742487Y-131668640D01*
X94508500Y-131668640D01*
X94508500Y-128209694D01*
X106561931Y-128209694D01*
X106577989Y-128373468D01*
X106629932Y-128529615D01*
X106633581Y-128535640D01*
X106709272Y-128660619D01*
X106715179Y-128670373D01*
X106720070Y-128675438D01*
X106720071Y-128675439D01*
X106727130Y-128682749D01*
X106829491Y-128788747D01*
X106967189Y-128878854D01*
X106973793Y-128881310D01*
X107114831Y-128933762D01*
X107114834Y-128933763D01*
X107121428Y-128936215D01*
X107128396Y-128937145D01*
X107189651Y-128973030D01*
X107221783Y-129036340D01*
X107214586Y-129106971D01*
X107203822Y-129127655D01*
X107130330Y-129241692D01*
X107127919Y-129248315D01*
X107127918Y-129248318D01*
X107076458Y-129389704D01*
X107076457Y-129389709D01*
X107074048Y-129396327D01*
X107053423Y-129559589D01*
X107069481Y-129723363D01*
X107121424Y-129879510D01*
X107206671Y-130020268D01*
X107211562Y-130025333D01*
X107211563Y-130025334D01*
X107234631Y-130049222D01*
X107320983Y-130138642D01*
X107458681Y-130228749D01*
X107612920Y-130286110D01*
X107619901Y-130287041D01*
X107619903Y-130287042D01*
X107769053Y-130306943D01*
X107769057Y-130306943D01*
X107776034Y-130307874D01*
X107783045Y-130307236D01*
X107783049Y-130307236D01*
X107932895Y-130293599D01*
X107932896Y-130293599D01*
X107939916Y-130292960D01*
X107968554Y-130283655D01*
X108089722Y-130244285D01*
X108089725Y-130244284D01*
X108096421Y-130242108D01*
X108237771Y-130157846D01*
X108356941Y-130044363D01*
X108372950Y-130020268D01*
X108444106Y-129913170D01*
X108444107Y-129913168D01*
X108446415Y-129909694D01*
X119251931Y-129909694D01*
X119267989Y-130073468D01*
X119319932Y-130229615D01*
X119340317Y-130263275D01*
X119358683Y-130293599D01*
X119405179Y-130370373D01*
X119519491Y-130488747D01*
X119657189Y-130578854D01*
X119811428Y-130636215D01*
X119818409Y-130637146D01*
X119818411Y-130637147D01*
X119967561Y-130657048D01*
X119967565Y-130657048D01*
X119974542Y-130657979D01*
X119981553Y-130657341D01*
X119981557Y-130657341D01*
X120131403Y-130643704D01*
X120131404Y-130643704D01*
X120138424Y-130643065D01*
X120183290Y-130628487D01*
X120288230Y-130594390D01*
X120288233Y-130594389D01*
X120294929Y-130592213D01*
X120436279Y-130507951D01*
X120555449Y-130394468D01*
X120559537Y-130388315D01*
X120642614Y-130263275D01*
X120642615Y-130263273D01*
X120646515Y-130257403D01*
X120704951Y-130103568D01*
X120716658Y-130020268D01*
X120727302Y-129944534D01*
X120727303Y-129944527D01*
X120727853Y-129940610D01*
X120728034Y-129927677D01*
X120728086Y-129923962D01*
X120728086Y-129923956D01*
X120728141Y-129920000D01*
X120709798Y-129756466D01*
X120703998Y-129739809D01*
X120657998Y-129607717D01*
X120655680Y-129601060D01*
X120651537Y-129594429D01*
X120572209Y-129467479D01*
X120568476Y-129461505D01*
X120497174Y-129389704D01*
X120457486Y-129349737D01*
X120457482Y-129349734D01*
X120452522Y-129344739D01*
X120313580Y-129256563D01*
X120255173Y-129235765D01*
X120165189Y-129203723D01*
X120165187Y-129203722D01*
X120158555Y-129201361D01*
X120151569Y-129200528D01*
X120151565Y-129200527D01*
X120037071Y-129186875D01*
X119995153Y-129181877D01*
X119988150Y-129182613D01*
X119988149Y-129182613D01*
X119944935Y-129187155D01*
X119831495Y-129199078D01*
X119824827Y-129201348D01*
X119682382Y-129249840D01*
X119682379Y-129249841D01*
X119675715Y-129252110D01*
X119535555Y-129338337D01*
X119417982Y-129453473D01*
X119328838Y-129591797D01*
X119326427Y-129598420D01*
X119326426Y-129598423D01*
X119274966Y-129739809D01*
X119274965Y-129739814D01*
X119272556Y-129746432D01*
X119251931Y-129909694D01*
X108446415Y-129909694D01*
X108448007Y-129907298D01*
X108506443Y-129753463D01*
X108527862Y-129601060D01*
X108528794Y-129594429D01*
X108528795Y-129594422D01*
X108529345Y-129590505D01*
X108529633Y-129569895D01*
X108511290Y-129406361D01*
X108505490Y-129389704D01*
X108478504Y-129312213D01*
X108457172Y-129250955D01*
X108445050Y-129231555D01*
X108373701Y-129117374D01*
X108369968Y-129111400D01*
X108295430Y-129036340D01*
X108258978Y-128999632D01*
X108258974Y-128999629D01*
X108254014Y-128994634D01*
X108115072Y-128906458D01*
X108068457Y-128889859D01*
X107966684Y-128853619D01*
X107966681Y-128853618D01*
X107960047Y-128851256D01*
X107960209Y-128850801D01*
X107902362Y-128817989D01*
X107869349Y-128755134D01*
X107875559Y-128684410D01*
X107887939Y-128660619D01*
X107952614Y-128563275D01*
X107952615Y-128563273D01*
X107956515Y-128557403D01*
X108014951Y-128403568D01*
X108026917Y-128318423D01*
X108037302Y-128244534D01*
X108037303Y-128244527D01*
X108037853Y-128240610D01*
X108038141Y-128220000D01*
X108019798Y-128056466D01*
X108013998Y-128039809D01*
X107991973Y-127976563D01*
X107965680Y-127901060D01*
X107878476Y-127761505D01*
X107820499Y-127703122D01*
X107767486Y-127649737D01*
X107767482Y-127649734D01*
X107762522Y-127644739D01*
X107623580Y-127556563D01*
X107569306Y-127537237D01*
X107475189Y-127503723D01*
X107475187Y-127503722D01*
X107468555Y-127501361D01*
X107461569Y-127500528D01*
X107461565Y-127500527D01*
X107347071Y-127486875D01*
X107305153Y-127481877D01*
X107298150Y-127482613D01*
X107298149Y-127482613D01*
X107254935Y-127487155D01*
X107141495Y-127499078D01*
X107134827Y-127501348D01*
X106992382Y-127549840D01*
X106992379Y-127549841D01*
X106985715Y-127552110D01*
X106888858Y-127611697D01*
X106875092Y-127620166D01*
X106845555Y-127638337D01*
X106824965Y-127658500D01*
X106755561Y-127726466D01*
X106727982Y-127753473D01*
X106638838Y-127891797D01*
X106636427Y-127898420D01*
X106636426Y-127898423D01*
X106584966Y-128039809D01*
X106584965Y-128039814D01*
X106582556Y-128046432D01*
X106561931Y-128209694D01*
X94508500Y-128209694D01*
X94508500Y-126563115D01*
X107571931Y-126563115D01*
X107587989Y-126726889D01*
X107639932Y-126883036D01*
X107643581Y-126889061D01*
X107720766Y-127016507D01*
X107725179Y-127023794D01*
X107839491Y-127142168D01*
X107977189Y-127232275D01*
X108131428Y-127289636D01*
X108138409Y-127290567D01*
X108138411Y-127290568D01*
X108287561Y-127310469D01*
X108287565Y-127310469D01*
X108294542Y-127311400D01*
X108301553Y-127310762D01*
X108301557Y-127310762D01*
X108451403Y-127297125D01*
X108451404Y-127297125D01*
X108458424Y-127296486D01*
X108465127Y-127294308D01*
X108472026Y-127292892D01*
X108472348Y-127294463D01*
X108534878Y-127292679D01*
X108595674Y-127329343D01*
X108626997Y-127393057D01*
X108618902Y-127463590D01*
X108608757Y-127482786D01*
X108557838Y-127561797D01*
X108555427Y-127568420D01*
X108555426Y-127568423D01*
X108503966Y-127709809D01*
X108503965Y-127709814D01*
X108501556Y-127716432D01*
X108480931Y-127879694D01*
X108496989Y-128043468D01*
X108548932Y-128199615D01*
X108552581Y-128205640D01*
X108622483Y-128321060D01*
X108634179Y-128340373D01*
X108639070Y-128345438D01*
X108639071Y-128345439D01*
X108672594Y-128380153D01*
X108748491Y-128458747D01*
X108886189Y-128548854D01*
X109040428Y-128606215D01*
X109047409Y-128607146D01*
X109047411Y-128607147D01*
X109196561Y-128627048D01*
X109196565Y-128627048D01*
X109203542Y-128627979D01*
X109210553Y-128627341D01*
X109210557Y-128627341D01*
X109360403Y-128613704D01*
X109360404Y-128613704D01*
X109367424Y-128613065D01*
X109396062Y-128603760D01*
X109517230Y-128564390D01*
X109517233Y-128564389D01*
X109523929Y-128562213D01*
X109665279Y-128477951D01*
X109784449Y-128364468D01*
X109800458Y-128340373D01*
X109871614Y-128233275D01*
X109871615Y-128233273D01*
X109875515Y-128227403D01*
X109933951Y-128073568D01*
X109944290Y-128000000D01*
X117586496Y-128000000D01*
X117587186Y-128006565D01*
X117604729Y-128173473D01*
X117606458Y-128189928D01*
X117665473Y-128371556D01*
X117760960Y-128536944D01*
X117765378Y-128541851D01*
X117765379Y-128541852D01*
X117830075Y-128613704D01*
X117888747Y-128678866D01*
X118043248Y-128791118D01*
X118049276Y-128793802D01*
X118049278Y-128793803D01*
X118180394Y-128852179D01*
X118217712Y-128868794D01*
X118311113Y-128888647D01*
X118398056Y-128907128D01*
X118398061Y-128907128D01*
X118404513Y-128908500D01*
X118595487Y-128908500D01*
X118601939Y-128907128D01*
X118601944Y-128907128D01*
X118688887Y-128888647D01*
X118782288Y-128868794D01*
X118819606Y-128852179D01*
X118950722Y-128793803D01*
X118950724Y-128793802D01*
X118956752Y-128791118D01*
X119111253Y-128678866D01*
X119155528Y-128629694D01*
X134861931Y-128629694D01*
X134877989Y-128793468D01*
X134929932Y-128949615D01*
X134934998Y-128957980D01*
X135008563Y-129079448D01*
X135015179Y-129090373D01*
X135129491Y-129208747D01*
X135267189Y-129298854D01*
X135421428Y-129356215D01*
X135428409Y-129357146D01*
X135428411Y-129357147D01*
X135577561Y-129377048D01*
X135577565Y-129377048D01*
X135584542Y-129377979D01*
X135591553Y-129377341D01*
X135591557Y-129377341D01*
X135741403Y-129363704D01*
X135741404Y-129363704D01*
X135748424Y-129363065D01*
X135809359Y-129343266D01*
X135898230Y-129314390D01*
X135898233Y-129314389D01*
X135904929Y-129312213D01*
X136046279Y-129227951D01*
X136165449Y-129114468D01*
X136181458Y-129090373D01*
X136252614Y-128983275D01*
X136252615Y-128983273D01*
X136256515Y-128977403D01*
X136314951Y-128823568D01*
X136333095Y-128694468D01*
X136337302Y-128664534D01*
X136337303Y-128664527D01*
X136337853Y-128660610D01*
X136338141Y-128640000D01*
X136319798Y-128476466D01*
X136313998Y-128459809D01*
X136283930Y-128373468D01*
X136265680Y-128321060D01*
X136203039Y-128220813D01*
X136182209Y-128187479D01*
X136178476Y-128181505D01*
X136069291Y-128071555D01*
X136067486Y-128069737D01*
X136067482Y-128069734D01*
X136062522Y-128064739D01*
X135923580Y-127976563D01*
X135861530Y-127954468D01*
X135775189Y-127923723D01*
X135775187Y-127923722D01*
X135768555Y-127921361D01*
X135761569Y-127920528D01*
X135761565Y-127920527D01*
X135645173Y-127906649D01*
X135605153Y-127901877D01*
X135598150Y-127902613D01*
X135598149Y-127902613D01*
X135559750Y-127906649D01*
X135441495Y-127919078D01*
X135434827Y-127921348D01*
X135292382Y-127969840D01*
X135292379Y-127969841D01*
X135285715Y-127972110D01*
X135145555Y-128058337D01*
X135027982Y-128173473D01*
X134938838Y-128311797D01*
X134936427Y-128318420D01*
X134936426Y-128318423D01*
X134884966Y-128459809D01*
X134884965Y-128459814D01*
X134882556Y-128466432D01*
X134861931Y-128629694D01*
X119155528Y-128629694D01*
X119169925Y-128613704D01*
X119234621Y-128541852D01*
X119234622Y-128541851D01*
X119239040Y-128536944D01*
X119334527Y-128371556D01*
X119393542Y-128189928D01*
X119395272Y-128173473D01*
X119412814Y-128006565D01*
X119413504Y-128000000D01*
X119408101Y-127948597D01*
X119394232Y-127816635D01*
X119394232Y-127816633D01*
X119393542Y-127810072D01*
X119334527Y-127628444D01*
X119327406Y-127616109D01*
X119284109Y-127541118D01*
X119242872Y-127469694D01*
X119731931Y-127469694D01*
X119747989Y-127633468D01*
X119799932Y-127789615D01*
X119803581Y-127795640D01*
X119881152Y-127923723D01*
X119885179Y-127930373D01*
X119999491Y-128048747D01*
X120137189Y-128138854D01*
X120291428Y-128196215D01*
X120298409Y-128197146D01*
X120298411Y-128197147D01*
X120447561Y-128217048D01*
X120447565Y-128217048D01*
X120454542Y-128217979D01*
X120461553Y-128217341D01*
X120461557Y-128217341D01*
X120611403Y-128203704D01*
X120611404Y-128203704D01*
X120618424Y-128203065D01*
X120658855Y-128189928D01*
X120768230Y-128154390D01*
X120768233Y-128154389D01*
X120774929Y-128152213D01*
X120916279Y-128067951D01*
X121035449Y-127954468D01*
X121051458Y-127930373D01*
X121122614Y-127823275D01*
X121122615Y-127823273D01*
X121126515Y-127817403D01*
X121184951Y-127663568D01*
X121193507Y-127602689D01*
X121207302Y-127504534D01*
X121207303Y-127504527D01*
X121207853Y-127500610D01*
X121208141Y-127480000D01*
X121189798Y-127316466D01*
X121183998Y-127299809D01*
X121137998Y-127167717D01*
X121135680Y-127161060D01*
X121048476Y-127021505D01*
X120973701Y-126946206D01*
X120937486Y-126909737D01*
X120937482Y-126909734D01*
X120932522Y-126904739D01*
X120793580Y-126816563D01*
X120645478Y-126763826D01*
X120645189Y-126763723D01*
X120645187Y-126763722D01*
X120638555Y-126761361D01*
X120631569Y-126760528D01*
X120631565Y-126760527D01*
X120543279Y-126750000D01*
X162586496Y-126750000D01*
X162587186Y-126756565D01*
X162602760Y-126904739D01*
X162606458Y-126939928D01*
X162665473Y-127121556D01*
X162668776Y-127127278D01*
X162668777Y-127127279D01*
X162674447Y-127137100D01*
X162760960Y-127286944D01*
X162765378Y-127291851D01*
X162765379Y-127291852D01*
X162856504Y-127393057D01*
X162888747Y-127428866D01*
X163043248Y-127541118D01*
X163049276Y-127543802D01*
X163049278Y-127543803D01*
X163104576Y-127568423D01*
X163217712Y-127618794D01*
X163292285Y-127634645D01*
X163398056Y-127657128D01*
X163398061Y-127657128D01*
X163404513Y-127658500D01*
X163595487Y-127658500D01*
X163601939Y-127657128D01*
X163601944Y-127657128D01*
X163707715Y-127634645D01*
X163782288Y-127618794D01*
X163895424Y-127568423D01*
X163950722Y-127543803D01*
X163950724Y-127543802D01*
X163956752Y-127541118D01*
X164111253Y-127428866D01*
X164143496Y-127393057D01*
X164234621Y-127291852D01*
X164234622Y-127291851D01*
X164239040Y-127286944D01*
X164325553Y-127137100D01*
X164331223Y-127127279D01*
X164331224Y-127127278D01*
X164334527Y-127121556D01*
X164393542Y-126939928D01*
X164397241Y-126904739D01*
X164412814Y-126756565D01*
X164413504Y-126750000D01*
X164393542Y-126560072D01*
X164334527Y-126378444D01*
X164325279Y-126362425D01*
X164275505Y-126276215D01*
X164239040Y-126213056D01*
X164220875Y-126192881D01*
X164115675Y-126076045D01*
X164115674Y-126076044D01*
X164111253Y-126071134D01*
X163956752Y-125958882D01*
X163950724Y-125956198D01*
X163950722Y-125956197D01*
X163788319Y-125883891D01*
X163788318Y-125883891D01*
X163782288Y-125881206D01*
X163657974Y-125854782D01*
X163601944Y-125842872D01*
X163601939Y-125842872D01*
X163595487Y-125841500D01*
X163404513Y-125841500D01*
X163398061Y-125842872D01*
X163398056Y-125842872D01*
X163342026Y-125854782D01*
X163217712Y-125881206D01*
X163211682Y-125883891D01*
X163211681Y-125883891D01*
X163049278Y-125956197D01*
X163049276Y-125956198D01*
X163043248Y-125958882D01*
X162888747Y-126071134D01*
X162884326Y-126076044D01*
X162884325Y-126076045D01*
X162779126Y-126192881D01*
X162760960Y-126213056D01*
X162724495Y-126276215D01*
X162674722Y-126362425D01*
X162665473Y-126378444D01*
X162606458Y-126560072D01*
X162586496Y-126750000D01*
X120543279Y-126750000D01*
X120517071Y-126746875D01*
X120475153Y-126741877D01*
X120468150Y-126742613D01*
X120468149Y-126742613D01*
X120424935Y-126747155D01*
X120311495Y-126759078D01*
X120304827Y-126761348D01*
X120162382Y-126809840D01*
X120162379Y-126809841D01*
X120155715Y-126812110D01*
X120015555Y-126898337D01*
X119897982Y-127013473D01*
X119808838Y-127151797D01*
X119806427Y-127158420D01*
X119806426Y-127158423D01*
X119754966Y-127299809D01*
X119754965Y-127299814D01*
X119752556Y-127306432D01*
X119731931Y-127469694D01*
X119242872Y-127469694D01*
X119239040Y-127463056D01*
X119211752Y-127432749D01*
X119115675Y-127326045D01*
X119115674Y-127326044D01*
X119111253Y-127321134D01*
X118956752Y-127208882D01*
X118950724Y-127206198D01*
X118950722Y-127206197D01*
X118788319Y-127133891D01*
X118788318Y-127133891D01*
X118782288Y-127131206D01*
X118688888Y-127111353D01*
X118601944Y-127092872D01*
X118601939Y-127092872D01*
X118595487Y-127091500D01*
X118404513Y-127091500D01*
X118398061Y-127092872D01*
X118398056Y-127092872D01*
X118311112Y-127111353D01*
X118217712Y-127131206D01*
X118211682Y-127133891D01*
X118211681Y-127133891D01*
X118049278Y-127206197D01*
X118049276Y-127206198D01*
X118043248Y-127208882D01*
X117888747Y-127321134D01*
X117884326Y-127326044D01*
X117884325Y-127326045D01*
X117788249Y-127432749D01*
X117760960Y-127463056D01*
X117715891Y-127541118D01*
X117672595Y-127616109D01*
X117665473Y-127628444D01*
X117606458Y-127810072D01*
X117605768Y-127816633D01*
X117605768Y-127816635D01*
X117591899Y-127948597D01*
X117586496Y-128000000D01*
X109944290Y-128000000D01*
X109947691Y-127975801D01*
X109956302Y-127914534D01*
X109956303Y-127914527D01*
X109956853Y-127910610D01*
X109957141Y-127890000D01*
X109938798Y-127726466D01*
X109932998Y-127709809D01*
X109886998Y-127577717D01*
X109884680Y-127571060D01*
X109877982Y-127560340D01*
X109827993Y-127480342D01*
X109808857Y-127411973D01*
X109829722Y-127344111D01*
X109870329Y-127305343D01*
X109896677Y-127289636D01*
X109916279Y-127277951D01*
X110035449Y-127164468D01*
X110039350Y-127158597D01*
X110122614Y-127033275D01*
X110122615Y-127033273D01*
X110126515Y-127027403D01*
X110166784Y-126921394D01*
X110209671Y-126864817D01*
X110238347Y-126850058D01*
X110238126Y-126849571D01*
X110244543Y-126846660D01*
X110251240Y-126844484D01*
X110392590Y-126760222D01*
X110511760Y-126646739D01*
X110515661Y-126640868D01*
X110598925Y-126515546D01*
X110598926Y-126515544D01*
X110602826Y-126509674D01*
X110661262Y-126355839D01*
X110672797Y-126273760D01*
X110683613Y-126196805D01*
X110683614Y-126196798D01*
X110684164Y-126192881D01*
X110684452Y-126172271D01*
X110666109Y-126008737D01*
X110661112Y-125994386D01*
X110627338Y-125897403D01*
X110611991Y-125853331D01*
X110605456Y-125842872D01*
X110528520Y-125719750D01*
X110524787Y-125713776D01*
X110448593Y-125637048D01*
X110413797Y-125602008D01*
X110413793Y-125602005D01*
X110408833Y-125597010D01*
X110269891Y-125508834D01*
X110211245Y-125487951D01*
X110121500Y-125455994D01*
X110121498Y-125455993D01*
X110114866Y-125453632D01*
X110107880Y-125452799D01*
X110107876Y-125452798D01*
X109990931Y-125438854D01*
X109951464Y-125434148D01*
X109944461Y-125434884D01*
X109944460Y-125434884D01*
X109906689Y-125438854D01*
X109787806Y-125451349D01*
X109781138Y-125453619D01*
X109638693Y-125502111D01*
X109638690Y-125502112D01*
X109632026Y-125504381D01*
X109558371Y-125549694D01*
X109508118Y-125580610D01*
X109491866Y-125590608D01*
X109374293Y-125705744D01*
X109285149Y-125844068D01*
X109282738Y-125850691D01*
X109282737Y-125850694D01*
X109250136Y-125940266D01*
X109208042Y-125997438D01*
X109172341Y-126016450D01*
X109162382Y-126019840D01*
X109162379Y-126019841D01*
X109155715Y-126022110D01*
X109082339Y-126067251D01*
X109017666Y-126107038D01*
X108949165Y-126125696D01*
X108881451Y-126104357D01*
X108862238Y-126088504D01*
X108777486Y-126003158D01*
X108777482Y-126003155D01*
X108772522Y-125998160D01*
X108633580Y-125909984D01*
X108579742Y-125890813D01*
X108485189Y-125857144D01*
X108485187Y-125857143D01*
X108478555Y-125854782D01*
X108471569Y-125853949D01*
X108471565Y-125853948D01*
X108357071Y-125840296D01*
X108315153Y-125835298D01*
X108308150Y-125836034D01*
X108308149Y-125836034D01*
X108288103Y-125838141D01*
X108151495Y-125852499D01*
X108144827Y-125854769D01*
X108002382Y-125903261D01*
X108002379Y-125903262D01*
X107995715Y-125905531D01*
X107855555Y-125991758D01*
X107737982Y-126106894D01*
X107648838Y-126245218D01*
X107646427Y-126251841D01*
X107646426Y-126251844D01*
X107594966Y-126393230D01*
X107594965Y-126393235D01*
X107592556Y-126399853D01*
X107571931Y-126563115D01*
X94508500Y-126563115D01*
X94508500Y-124369631D01*
X99951868Y-124369631D01*
X99967926Y-124533405D01*
X100019869Y-124689552D01*
X100041524Y-124725308D01*
X100096809Y-124816593D01*
X100105116Y-124830310D01*
X100219428Y-124948684D01*
X100357126Y-125038791D01*
X100511365Y-125096152D01*
X100518346Y-125097083D01*
X100518348Y-125097084D01*
X100667498Y-125116985D01*
X100667502Y-125116985D01*
X100674479Y-125117916D01*
X100681491Y-125117278D01*
X100681495Y-125117278D01*
X100745049Y-125111494D01*
X100758949Y-125110229D01*
X100828602Y-125123975D01*
X100861005Y-125148183D01*
X100919491Y-125208747D01*
X101057189Y-125298854D01*
X101211428Y-125356215D01*
X101218409Y-125357146D01*
X101218411Y-125357147D01*
X101367561Y-125377048D01*
X101367565Y-125377048D01*
X101374542Y-125377979D01*
X101381553Y-125377341D01*
X101381557Y-125377341D01*
X101531403Y-125363704D01*
X101531404Y-125363704D01*
X101538424Y-125363065D01*
X101582490Y-125348747D01*
X101688230Y-125314390D01*
X101688233Y-125314389D01*
X101694929Y-125312213D01*
X101836279Y-125227951D01*
X101955449Y-125114468D01*
X101959350Y-125108597D01*
X102042614Y-124983275D01*
X102042615Y-124983273D01*
X102046515Y-124977403D01*
X102104951Y-124823568D01*
X102117620Y-124733424D01*
X102124810Y-124682265D01*
X110629360Y-124682265D01*
X110645418Y-124846039D01*
X110697361Y-125002186D01*
X110701010Y-125008211D01*
X110767140Y-125117403D01*
X110782608Y-125142944D01*
X110896920Y-125261318D01*
X110961681Y-125303697D01*
X111007729Y-125357733D01*
X111017694Y-125424919D01*
X111001931Y-125549694D01*
X111017989Y-125713468D01*
X111069932Y-125869615D01*
X111073581Y-125875640D01*
X111123995Y-125958882D01*
X111155179Y-126010373D01*
X111160070Y-126015438D01*
X111160071Y-126015439D01*
X111172778Y-126028597D01*
X111269491Y-126128747D01*
X111407189Y-126218854D01*
X111561428Y-126276215D01*
X111568409Y-126277146D01*
X111568411Y-126277147D01*
X111717561Y-126297048D01*
X111717565Y-126297048D01*
X111724542Y-126297979D01*
X111731553Y-126297341D01*
X111731557Y-126297341D01*
X111881403Y-126283704D01*
X111881404Y-126283704D01*
X111888424Y-126283065D01*
X111984512Y-126251844D01*
X112038230Y-126234390D01*
X112038233Y-126234389D01*
X112044929Y-126232213D01*
X112186279Y-126147951D01*
X112305449Y-126034468D01*
X112309350Y-126028597D01*
X112392614Y-125903275D01*
X112392615Y-125903273D01*
X112396515Y-125897403D01*
X112454951Y-125743568D01*
X112463507Y-125682689D01*
X112477302Y-125584534D01*
X112477303Y-125584527D01*
X112477853Y-125580610D01*
X112478141Y-125560000D01*
X112459798Y-125396466D01*
X112452138Y-125374468D01*
X112414078Y-125265175D01*
X112405680Y-125241060D01*
X112395239Y-125224350D01*
X112322209Y-125107479D01*
X112318476Y-125101505D01*
X112219848Y-125002186D01*
X112207486Y-124989737D01*
X112207482Y-124989734D01*
X112202522Y-124984739D01*
X112146765Y-124949354D01*
X112099967Y-124895964D01*
X112089506Y-124825433D01*
X112090749Y-124816593D01*
X112094984Y-124786459D01*
X112104731Y-124717105D01*
X112104732Y-124717098D01*
X112105282Y-124713181D01*
X112105570Y-124692571D01*
X112098517Y-124629694D01*
X122001931Y-124629694D01*
X122017989Y-124793468D01*
X122069932Y-124949615D01*
X122073581Y-124955640D01*
X122151058Y-125083568D01*
X122155179Y-125090373D01*
X122160070Y-125095438D01*
X122160071Y-125095439D01*
X122178447Y-125114468D01*
X122269491Y-125208747D01*
X122407189Y-125298854D01*
X122561428Y-125356215D01*
X122568409Y-125357146D01*
X122568411Y-125357147D01*
X122717561Y-125377048D01*
X122717565Y-125377048D01*
X122724542Y-125377979D01*
X122731553Y-125377341D01*
X122731557Y-125377341D01*
X122881403Y-125363704D01*
X122881404Y-125363704D01*
X122888424Y-125363065D01*
X122932490Y-125348747D01*
X123038230Y-125314390D01*
X123038233Y-125314389D01*
X123044929Y-125312213D01*
X123186279Y-125227951D01*
X123305449Y-125114468D01*
X123309350Y-125108597D01*
X123392614Y-124983275D01*
X123392615Y-124983273D01*
X123396515Y-124977403D01*
X123454951Y-124823568D01*
X123462523Y-124769694D01*
X139871931Y-124769694D01*
X139887989Y-124933468D01*
X139939932Y-125089615D01*
X139956761Y-125117403D01*
X140012082Y-125208747D01*
X140025179Y-125230373D01*
X140139491Y-125348747D01*
X140277189Y-125438854D01*
X140431428Y-125496215D01*
X140438409Y-125497146D01*
X140438411Y-125497147D01*
X140587561Y-125517048D01*
X140587565Y-125517048D01*
X140594542Y-125517979D01*
X140601553Y-125517341D01*
X140601557Y-125517341D01*
X140751403Y-125503704D01*
X140751404Y-125503704D01*
X140758424Y-125503065D01*
X140819882Y-125483096D01*
X140908230Y-125454390D01*
X140908233Y-125454389D01*
X140914929Y-125452213D01*
X141056279Y-125367951D01*
X141175449Y-125254468D01*
X141179350Y-125248597D01*
X141262614Y-125123275D01*
X141262615Y-125123273D01*
X141266515Y-125117403D01*
X141324951Y-124963568D01*
X141335333Y-124889694D01*
X146071931Y-124889694D01*
X146087989Y-125053468D01*
X146139932Y-125209615D01*
X146155357Y-125235084D01*
X146203387Y-125314390D01*
X146225179Y-125350373D01*
X146230070Y-125355438D01*
X146230071Y-125355439D01*
X146251838Y-125377979D01*
X146339491Y-125468747D01*
X146477189Y-125558854D01*
X146631428Y-125616215D01*
X146638409Y-125617146D01*
X146638411Y-125617147D01*
X146787561Y-125637048D01*
X146787565Y-125637048D01*
X146794542Y-125637979D01*
X146801553Y-125637341D01*
X146801557Y-125637341D01*
X146951403Y-125623704D01*
X146951404Y-125623704D01*
X146958424Y-125623065D01*
X146987062Y-125613760D01*
X147108230Y-125574390D01*
X147108233Y-125574389D01*
X147114929Y-125572213D01*
X147256279Y-125487951D01*
X147375449Y-125374468D01*
X147383025Y-125363065D01*
X147462614Y-125243275D01*
X147462615Y-125243273D01*
X147466515Y-125237403D01*
X147524951Y-125083568D01*
X147538138Y-124989737D01*
X147547302Y-124924534D01*
X147547303Y-124924527D01*
X147547853Y-124920610D01*
X147548141Y-124900000D01*
X147529798Y-124736466D01*
X147523998Y-124719809D01*
X147490447Y-124623465D01*
X147475680Y-124581060D01*
X147441272Y-124525995D01*
X147392209Y-124447479D01*
X147388476Y-124441505D01*
X147321074Y-124373631D01*
X147277486Y-124329737D01*
X147277482Y-124329734D01*
X147272522Y-124324739D01*
X147133580Y-124236563D01*
X147044208Y-124204739D01*
X146985189Y-124183723D01*
X146985187Y-124183722D01*
X146978555Y-124181361D01*
X146971569Y-124180528D01*
X146971565Y-124180527D01*
X146857071Y-124166875D01*
X146815153Y-124161877D01*
X146808150Y-124162613D01*
X146808149Y-124162613D01*
X146764935Y-124167155D01*
X146651495Y-124179078D01*
X146644827Y-124181348D01*
X146502382Y-124229840D01*
X146502379Y-124229841D01*
X146495715Y-124232110D01*
X146398858Y-124291697D01*
X146366186Y-124311797D01*
X146355555Y-124318337D01*
X146237982Y-124433473D01*
X146148838Y-124571797D01*
X146146427Y-124578420D01*
X146146426Y-124578423D01*
X146094966Y-124719809D01*
X146094965Y-124719814D01*
X146092556Y-124726432D01*
X146071931Y-124889694D01*
X141335333Y-124889694D01*
X141340529Y-124852724D01*
X141347302Y-124804534D01*
X141347303Y-124804527D01*
X141347853Y-124800610D01*
X141348141Y-124780000D01*
X141329798Y-124616466D01*
X141323998Y-124599809D01*
X141281045Y-124476466D01*
X141275680Y-124461060D01*
X141188476Y-124321505D01*
X141130499Y-124263122D01*
X141077486Y-124209737D01*
X141077482Y-124209734D01*
X141072522Y-124204739D01*
X140933580Y-124116563D01*
X140788042Y-124064739D01*
X140785189Y-124063723D01*
X140785187Y-124063722D01*
X140778555Y-124061361D01*
X140771569Y-124060528D01*
X140771565Y-124060527D01*
X140657071Y-124046875D01*
X140615153Y-124041877D01*
X140608150Y-124042613D01*
X140608149Y-124042613D01*
X140577761Y-124045807D01*
X140451495Y-124059078D01*
X140444827Y-124061348D01*
X140302382Y-124109840D01*
X140302379Y-124109841D01*
X140295715Y-124112110D01*
X140155555Y-124198337D01*
X140037982Y-124313473D01*
X139948838Y-124451797D01*
X139946427Y-124458420D01*
X139946426Y-124458423D01*
X139894966Y-124599809D01*
X139894965Y-124599814D01*
X139892556Y-124606432D01*
X139871931Y-124769694D01*
X123462523Y-124769694D01*
X123467620Y-124733424D01*
X123477302Y-124664534D01*
X123477303Y-124664527D01*
X123477853Y-124660610D01*
X123478141Y-124640000D01*
X123459798Y-124476466D01*
X123453998Y-124459809D01*
X123418697Y-124358441D01*
X123405680Y-124321060D01*
X123401672Y-124314645D01*
X123322209Y-124187479D01*
X123318476Y-124181505D01*
X123248370Y-124110908D01*
X123207486Y-124069737D01*
X123207482Y-124069734D01*
X123202522Y-124064739D01*
X123063580Y-123976563D01*
X123001474Y-123954448D01*
X122915189Y-123923723D01*
X122915187Y-123923722D01*
X122908555Y-123921361D01*
X122901569Y-123920528D01*
X122901565Y-123920527D01*
X122787071Y-123906875D01*
X122745153Y-123901877D01*
X122738150Y-123902613D01*
X122738149Y-123902613D01*
X122694935Y-123907155D01*
X122581495Y-123919078D01*
X122574827Y-123921348D01*
X122432382Y-123969840D01*
X122432379Y-123969841D01*
X122425715Y-123972110D01*
X122285555Y-124058337D01*
X122167982Y-124173473D01*
X122078838Y-124311797D01*
X122076427Y-124318420D01*
X122076426Y-124318423D01*
X122024966Y-124459809D01*
X122024965Y-124459814D01*
X122022556Y-124466432D01*
X122001931Y-124629694D01*
X112098517Y-124629694D01*
X112087227Y-124529037D01*
X112081427Y-124512380D01*
X112035427Y-124380288D01*
X112033109Y-124373631D01*
X112000200Y-124320965D01*
X111949638Y-124240050D01*
X111945905Y-124234076D01*
X111874208Y-124161877D01*
X111834915Y-124122308D01*
X111834911Y-124122305D01*
X111829951Y-124117310D01*
X111691009Y-124029134D01*
X111639766Y-124010887D01*
X111542618Y-123976294D01*
X111542616Y-123976293D01*
X111535984Y-123973932D01*
X111528998Y-123973099D01*
X111528994Y-123973098D01*
X111407461Y-123958607D01*
X111372582Y-123954448D01*
X111365579Y-123955184D01*
X111365578Y-123955184D01*
X111333011Y-123958607D01*
X111208924Y-123971649D01*
X111202256Y-123973919D01*
X111059811Y-124022411D01*
X111059808Y-124022412D01*
X111053144Y-124024681D01*
X110912984Y-124110908D01*
X110901343Y-124122308D01*
X110822266Y-124199746D01*
X110795411Y-124226044D01*
X110706267Y-124364368D01*
X110703856Y-124370991D01*
X110703855Y-124370994D01*
X110652395Y-124512380D01*
X110652394Y-124512385D01*
X110649985Y-124519003D01*
X110629360Y-124682265D01*
X102124810Y-124682265D01*
X102127302Y-124664534D01*
X102127303Y-124664527D01*
X102127853Y-124660610D01*
X102128141Y-124640000D01*
X102109798Y-124476466D01*
X102103998Y-124459809D01*
X102068697Y-124358441D01*
X102055680Y-124321060D01*
X102051672Y-124314645D01*
X101972209Y-124187479D01*
X101968476Y-124181505D01*
X101898370Y-124110908D01*
X101857486Y-124069737D01*
X101857482Y-124069734D01*
X101852522Y-124064739D01*
X101713580Y-123976563D01*
X101651474Y-123954448D01*
X101565189Y-123923723D01*
X101565187Y-123923722D01*
X101558555Y-123921361D01*
X101551569Y-123920528D01*
X101551565Y-123920527D01*
X101437071Y-123906875D01*
X101395153Y-123901877D01*
X101388150Y-123902613D01*
X101388149Y-123902613D01*
X101367699Y-123904763D01*
X101322836Y-123909478D01*
X101252999Y-123896706D01*
X101220260Y-123872952D01*
X101157423Y-123809674D01*
X101157419Y-123809671D01*
X101152459Y-123804676D01*
X101013517Y-123716500D01*
X100964384Y-123699005D01*
X100865126Y-123663660D01*
X100865124Y-123663659D01*
X100858492Y-123661298D01*
X100851506Y-123660465D01*
X100851502Y-123660464D01*
X100737008Y-123646812D01*
X100695090Y-123641814D01*
X100688087Y-123642550D01*
X100688086Y-123642550D01*
X100644872Y-123647092D01*
X100531432Y-123659015D01*
X100524764Y-123661285D01*
X100382319Y-123709777D01*
X100382316Y-123709778D01*
X100375652Y-123712047D01*
X100235492Y-123798274D01*
X100223851Y-123809674D01*
X100128945Y-123902613D01*
X100117919Y-123913410D01*
X100028775Y-124051734D01*
X100026364Y-124058357D01*
X100026363Y-124058360D01*
X99974903Y-124199746D01*
X99974902Y-124199751D01*
X99972493Y-124206369D01*
X99951868Y-124369631D01*
X94508500Y-124369631D01*
X94508500Y-123279694D01*
X157261931Y-123279694D01*
X157277989Y-123443468D01*
X157329932Y-123599615D01*
X157333581Y-123605640D01*
X157399289Y-123714135D01*
X157415179Y-123740373D01*
X157529491Y-123858747D01*
X157667189Y-123948854D01*
X157821428Y-124006215D01*
X157828409Y-124007146D01*
X157828411Y-124007147D01*
X157977561Y-124027048D01*
X157977565Y-124027048D01*
X157984542Y-124027979D01*
X157991553Y-124027341D01*
X157991557Y-124027341D01*
X158141403Y-124013704D01*
X158141404Y-124013704D01*
X158148424Y-124013065D01*
X158177062Y-124003760D01*
X158298230Y-123964390D01*
X158298233Y-123964389D01*
X158304929Y-123962213D01*
X158446279Y-123877951D01*
X158565449Y-123764468D01*
X158581458Y-123740373D01*
X158652614Y-123633275D01*
X158652615Y-123633273D01*
X158656515Y-123627403D01*
X158714951Y-123473568D01*
X158737853Y-123310610D01*
X158738141Y-123290000D01*
X158719798Y-123126466D01*
X158713998Y-123109809D01*
X158667998Y-122977717D01*
X158665680Y-122971060D01*
X158632278Y-122917605D01*
X158582209Y-122837479D01*
X158578476Y-122831505D01*
X158520499Y-122773122D01*
X158467486Y-122719737D01*
X158467482Y-122719734D01*
X158462522Y-122714739D01*
X158323580Y-122626563D01*
X158245071Y-122598607D01*
X158175189Y-122573723D01*
X158175187Y-122573722D01*
X158168555Y-122571361D01*
X158161569Y-122570528D01*
X158161565Y-122570527D01*
X158047071Y-122556875D01*
X158005153Y-122551877D01*
X157998150Y-122552613D01*
X157998149Y-122552613D01*
X157954935Y-122557155D01*
X157841495Y-122569078D01*
X157834827Y-122571348D01*
X157692382Y-122619840D01*
X157692379Y-122619841D01*
X157685715Y-122622110D01*
X157545555Y-122708337D01*
X157533914Y-122719737D01*
X157451504Y-122800439D01*
X157427982Y-122823473D01*
X157338838Y-122961797D01*
X157336427Y-122968420D01*
X157336426Y-122968423D01*
X157284966Y-123109809D01*
X157284965Y-123109814D01*
X157282556Y-123116432D01*
X157261931Y-123279694D01*
X94508500Y-123279694D01*
X94508500Y-122334694D01*
X134136931Y-122334694D01*
X134152989Y-122498468D01*
X134204932Y-122654615D01*
X134208581Y-122660640D01*
X134237468Y-122708337D01*
X134290179Y-122795373D01*
X134295070Y-122800438D01*
X134295071Y-122800439D01*
X134325071Y-122831505D01*
X134404491Y-122913747D01*
X134542189Y-123003854D01*
X134696428Y-123061215D01*
X134703409Y-123062146D01*
X134703411Y-123062147D01*
X134852561Y-123082048D01*
X134852565Y-123082048D01*
X134859542Y-123082979D01*
X134866553Y-123082341D01*
X134866557Y-123082341D01*
X135016403Y-123068704D01*
X135016404Y-123068704D01*
X135023424Y-123068065D01*
X135052062Y-123058760D01*
X135173230Y-123019390D01*
X135173233Y-123019389D01*
X135179929Y-123017213D01*
X135321279Y-122932951D01*
X135440449Y-122819468D01*
X135456458Y-122795373D01*
X135527614Y-122688275D01*
X135527615Y-122688273D01*
X135531515Y-122682403D01*
X135589951Y-122528568D01*
X135606709Y-122409327D01*
X135612302Y-122369534D01*
X135612303Y-122369527D01*
X135612853Y-122365610D01*
X135613141Y-122345000D01*
X135594798Y-122181466D01*
X135592183Y-122173955D01*
X135570709Y-122112292D01*
X135540680Y-122026060D01*
X135495986Y-121954534D01*
X135474215Y-121919694D01*
X140431931Y-121919694D01*
X140447989Y-122083468D01*
X140499932Y-122239615D01*
X140503581Y-122245640D01*
X140578615Y-122369534D01*
X140585179Y-122380373D01*
X140699491Y-122498747D01*
X140837189Y-122588854D01*
X140991428Y-122646215D01*
X140998409Y-122647146D01*
X140998411Y-122647147D01*
X141147561Y-122667048D01*
X141147565Y-122667048D01*
X141154542Y-122667979D01*
X141161553Y-122667341D01*
X141161557Y-122667341D01*
X141311403Y-122653704D01*
X141311404Y-122653704D01*
X141318424Y-122653065D01*
X141388364Y-122630340D01*
X141468230Y-122604390D01*
X141468233Y-122604389D01*
X141474929Y-122602213D01*
X141616279Y-122517951D01*
X141735449Y-122404468D01*
X141751458Y-122380373D01*
X141822614Y-122273275D01*
X141822615Y-122273273D01*
X141826515Y-122267403D01*
X141884951Y-122113568D01*
X141907853Y-121950610D01*
X141908141Y-121930000D01*
X141889798Y-121766466D01*
X141883998Y-121749809D01*
X141858681Y-121677110D01*
X141835680Y-121611060D01*
X141766282Y-121500000D01*
X145336496Y-121500000D01*
X145337186Y-121506565D01*
X145349776Y-121626348D01*
X145356458Y-121689928D01*
X145415473Y-121871556D01*
X145418776Y-121877278D01*
X145418777Y-121877279D01*
X145449216Y-121930000D01*
X145510960Y-122036944D01*
X145515378Y-122041851D01*
X145515379Y-122041852D01*
X145626090Y-122164809D01*
X145638747Y-122178866D01*
X145793248Y-122291118D01*
X145799276Y-122293802D01*
X145799278Y-122293803D01*
X145961681Y-122366109D01*
X145967712Y-122368794D01*
X146061113Y-122388647D01*
X146148056Y-122407128D01*
X146148061Y-122407128D01*
X146154513Y-122408500D01*
X146345487Y-122408500D01*
X146351939Y-122407128D01*
X146351944Y-122407128D01*
X146438887Y-122388647D01*
X146532288Y-122368794D01*
X146538319Y-122366109D01*
X146700722Y-122293803D01*
X146700724Y-122293802D01*
X146706752Y-122291118D01*
X146861253Y-122178866D01*
X146873910Y-122164809D01*
X146984621Y-122041852D01*
X146984622Y-122041851D01*
X146989040Y-122036944D01*
X147050784Y-121930000D01*
X147081223Y-121877279D01*
X147081224Y-121877278D01*
X147084527Y-121871556D01*
X147143542Y-121689928D01*
X147150225Y-121626348D01*
X147162814Y-121506565D01*
X147163504Y-121500000D01*
X147143542Y-121310072D01*
X147084527Y-121128444D01*
X146989040Y-120963056D01*
X146861253Y-120821134D01*
X146706752Y-120708882D01*
X146700724Y-120706198D01*
X146700722Y-120706197D01*
X146538319Y-120633891D01*
X146538318Y-120633891D01*
X146532288Y-120631206D01*
X146438887Y-120611353D01*
X146351944Y-120592872D01*
X146351939Y-120592872D01*
X146345487Y-120591500D01*
X146154513Y-120591500D01*
X146148061Y-120592872D01*
X146148056Y-120592872D01*
X146061113Y-120611353D01*
X145967712Y-120631206D01*
X145961682Y-120633891D01*
X145961681Y-120633891D01*
X145799278Y-120706197D01*
X145799276Y-120706198D01*
X145793248Y-120708882D01*
X145638747Y-120821134D01*
X145510960Y-120963056D01*
X145415473Y-121128444D01*
X145356458Y-121310072D01*
X145336496Y-121500000D01*
X141766282Y-121500000D01*
X141748476Y-121471505D01*
X141690499Y-121413122D01*
X141637486Y-121359737D01*
X141637482Y-121359734D01*
X141632522Y-121354739D01*
X141493580Y-121266563D01*
X141444447Y-121249068D01*
X141345189Y-121213723D01*
X141345187Y-121213722D01*
X141338555Y-121211361D01*
X141331569Y-121210528D01*
X141331565Y-121210527D01*
X141217071Y-121196875D01*
X141175153Y-121191877D01*
X141168150Y-121192613D01*
X141168149Y-121192613D01*
X141124935Y-121197155D01*
X141011495Y-121209078D01*
X141004827Y-121211348D01*
X140862382Y-121259840D01*
X140862379Y-121259841D01*
X140855715Y-121262110D01*
X140715555Y-121348337D01*
X140597982Y-121463473D01*
X140508838Y-121601797D01*
X140506427Y-121608420D01*
X140506426Y-121608423D01*
X140454966Y-121749809D01*
X140454965Y-121749814D01*
X140452556Y-121756432D01*
X140431931Y-121919694D01*
X135474215Y-121919694D01*
X135457209Y-121892479D01*
X135453476Y-121886505D01*
X135395499Y-121828122D01*
X135342486Y-121774737D01*
X135342482Y-121774734D01*
X135337522Y-121769739D01*
X135198580Y-121681563D01*
X135149447Y-121664068D01*
X135050189Y-121628723D01*
X135050187Y-121628722D01*
X135043555Y-121626361D01*
X135036569Y-121625528D01*
X135036565Y-121625527D01*
X134922071Y-121611875D01*
X134880153Y-121606877D01*
X134873150Y-121607613D01*
X134873149Y-121607613D01*
X134840354Y-121611060D01*
X134716495Y-121624078D01*
X134709827Y-121626348D01*
X134567382Y-121674840D01*
X134567379Y-121674841D01*
X134560715Y-121677110D01*
X134420555Y-121763337D01*
X134302982Y-121878473D01*
X134213838Y-122016797D01*
X134211427Y-122023420D01*
X134211426Y-122023423D01*
X134159966Y-122164809D01*
X134159965Y-122164814D01*
X134157556Y-122171432D01*
X134136931Y-122334694D01*
X94508500Y-122334694D01*
X94508500Y-117168640D01*
X96742487Y-117168640D01*
X96742822Y-117177166D01*
X96750894Y-117382605D01*
X96753320Y-117444363D01*
X96755801Y-117457948D01*
X96799361Y-117696457D01*
X96802895Y-117715810D01*
X96890223Y-117977563D01*
X96892215Y-117981550D01*
X96892216Y-117981552D01*
X97009044Y-118215362D01*
X97013560Y-118224401D01*
X97170447Y-118451397D01*
X97173463Y-118454659D01*
X97173468Y-118454666D01*
X97354737Y-118650761D01*
X97354742Y-118650765D01*
X97357753Y-118654023D01*
X97571740Y-118828237D01*
X97575558Y-118830536D01*
X97575560Y-118830537D01*
X97804323Y-118968263D01*
X97808140Y-118970561D01*
X97812235Y-118972295D01*
X97812237Y-118972296D01*
X98058134Y-119076420D01*
X98058141Y-119076422D01*
X98062235Y-119078156D01*
X98328955Y-119148876D01*
X98333379Y-119149400D01*
X98333381Y-119149400D01*
X98491891Y-119168160D01*
X98602979Y-119181308D01*
X98878838Y-119174807D01*
X98883233Y-119174075D01*
X98883238Y-119174075D01*
X99146628Y-119130235D01*
X99146632Y-119130234D01*
X99151030Y-119129502D01*
X99321760Y-119075507D01*
X99409877Y-119047640D01*
X99409879Y-119047639D01*
X99414123Y-119046297D01*
X99418134Y-119044371D01*
X99418139Y-119044369D01*
X99658848Y-118928782D01*
X99658849Y-118928781D01*
X99662867Y-118926852D01*
X99807013Y-118830537D01*
X99888592Y-118776028D01*
X99888596Y-118776025D01*
X99892300Y-118773550D01*
X100097843Y-118589450D01*
X100275396Y-118378225D01*
X100421416Y-118144090D01*
X100532989Y-117891717D01*
X100607889Y-117626140D01*
X100613396Y-117585141D01*
X100644195Y-117355842D01*
X100644196Y-117355834D01*
X100644622Y-117352660D01*
X100646482Y-117293477D01*
X100648376Y-117233222D01*
X100648376Y-117233217D01*
X100648477Y-117230000D01*
X100646512Y-117202241D01*
X102004309Y-117202241D01*
X102008343Y-117283275D01*
X102019176Y-117500853D01*
X102020173Y-117520888D01*
X102020814Y-117524619D01*
X102020815Y-117524627D01*
X102066599Y-117791073D01*
X102074202Y-117835321D01*
X102075290Y-117838960D01*
X102075291Y-117838963D01*
X102154132Y-118102587D01*
X102165615Y-118140985D01*
X102293088Y-118433454D01*
X102454774Y-118708491D01*
X102648330Y-118962111D01*
X102650974Y-118964825D01*
X102861353Y-119180785D01*
X102870954Y-119190641D01*
X102873908Y-119193021D01*
X102873911Y-119193023D01*
X103116468Y-119388392D01*
X103116473Y-119388396D01*
X103119421Y-119390770D01*
X103390130Y-119559600D01*
X103679162Y-119694685D01*
X103982329Y-119794068D01*
X104295240Y-119856310D01*
X104299012Y-119856597D01*
X104299020Y-119856598D01*
X104609585Y-119880222D01*
X104609590Y-119880222D01*
X104613362Y-119880509D01*
X104932088Y-119866314D01*
X105246799Y-119813932D01*
X105552939Y-119724121D01*
X105846071Y-119598181D01*
X106121950Y-119437938D01*
X106376580Y-119245712D01*
X106606273Y-119024287D01*
X106648601Y-118972296D01*
X106805309Y-118779809D01*
X106805310Y-118779808D01*
X106807700Y-118776872D01*
X106809796Y-118773550D01*
X106975922Y-118510257D01*
X106975925Y-118510251D01*
X106977945Y-118507050D01*
X107114542Y-118218729D01*
X107215511Y-117916087D01*
X107217063Y-117908495D01*
X107232782Y-117831576D01*
X107279390Y-117603506D01*
X107301605Y-117330394D01*
X113843133Y-117330394D01*
X113859191Y-117494168D01*
X113911134Y-117650315D01*
X113914783Y-117656340D01*
X113970572Y-117748457D01*
X113996381Y-117791073D01*
X114110693Y-117909447D01*
X114146752Y-117933043D01*
X114213560Y-117976761D01*
X114259608Y-118030798D01*
X114267813Y-118055995D01*
X114268429Y-118058893D01*
X114269116Y-118065901D01*
X114271338Y-118072581D01*
X114271339Y-118072585D01*
X114292883Y-118137348D01*
X114321059Y-118222048D01*
X114406306Y-118362806D01*
X114411197Y-118367871D01*
X114411198Y-118367872D01*
X114421196Y-118378225D01*
X114520618Y-118481180D01*
X114658316Y-118571287D01*
X114812555Y-118628648D01*
X114819536Y-118629579D01*
X114819538Y-118629580D01*
X114968688Y-118649481D01*
X114968692Y-118649481D01*
X114975669Y-118650412D01*
X114982680Y-118649774D01*
X114982684Y-118649774D01*
X115132530Y-118636137D01*
X115132531Y-118636137D01*
X115139551Y-118635498D01*
X115168189Y-118626193D01*
X115289357Y-118586823D01*
X115289360Y-118586822D01*
X115296056Y-118584646D01*
X115437406Y-118500384D01*
X115556576Y-118386901D01*
X115560477Y-118381030D01*
X115643741Y-118255708D01*
X115643742Y-118255706D01*
X115647642Y-118249836D01*
X115706078Y-118096001D01*
X115728980Y-117933043D01*
X115729268Y-117912433D01*
X115710925Y-117748899D01*
X115707990Y-117740469D01*
X115666638Y-117621725D01*
X115656807Y-117593493D01*
X115649711Y-117582136D01*
X115573336Y-117459912D01*
X115569603Y-117453938D01*
X115489902Y-117373679D01*
X115458613Y-117342170D01*
X115458609Y-117342167D01*
X115453649Y-117337172D01*
X115359595Y-117277483D01*
X115312797Y-117224094D01*
X115303533Y-117190997D01*
X115303347Y-117191039D01*
X115302492Y-117187278D01*
X115301896Y-117185147D01*
X115301787Y-117184171D01*
X115301785Y-117184160D01*
X115301000Y-117177166D01*
X115295200Y-117160509D01*
X115249200Y-117028417D01*
X115246882Y-117021760D01*
X115221016Y-116980365D01*
X115163411Y-116888179D01*
X115159678Y-116882205D01*
X115077741Y-116799694D01*
X147191931Y-116799694D01*
X147207989Y-116963468D01*
X147259932Y-117119615D01*
X147263581Y-117125640D01*
X147338289Y-117248996D01*
X147345179Y-117260373D01*
X147350070Y-117265438D01*
X147350071Y-117265439D01*
X147373139Y-117289327D01*
X147459491Y-117378747D01*
X147597189Y-117468854D01*
X147751428Y-117526215D01*
X147758409Y-117527146D01*
X147758411Y-117527147D01*
X147907561Y-117547048D01*
X147907565Y-117547048D01*
X147914542Y-117547979D01*
X147921553Y-117547341D01*
X147921557Y-117547341D01*
X148071403Y-117533704D01*
X148071404Y-117533704D01*
X148078424Y-117533065D01*
X148127565Y-117517098D01*
X148228230Y-117484390D01*
X148228233Y-117484389D01*
X148234929Y-117482213D01*
X148376279Y-117397951D01*
X148495449Y-117284468D01*
X148511458Y-117260373D01*
X148582614Y-117153275D01*
X148582615Y-117153273D01*
X148586515Y-117147403D01*
X148644951Y-116993568D01*
X148657003Y-116907813D01*
X148667302Y-116834534D01*
X148667303Y-116834527D01*
X148667853Y-116830610D01*
X148668141Y-116810000D01*
X148659824Y-116735851D01*
X165236719Y-116735851D01*
X165239623Y-116770437D01*
X165251789Y-116915315D01*
X165253268Y-116932934D01*
X165265191Y-116974513D01*
X165304881Y-117112929D01*
X165307783Y-117123050D01*
X165398187Y-117298956D01*
X165521035Y-117453953D01*
X165525728Y-117457947D01*
X165525729Y-117457948D01*
X165631516Y-117547979D01*
X165671650Y-117582136D01*
X165844294Y-117678624D01*
X166032392Y-117739740D01*
X166228777Y-117763158D01*
X166234912Y-117762686D01*
X166234914Y-117762686D01*
X166419830Y-117748457D01*
X166419834Y-117748456D01*
X166425972Y-117747984D01*
X166616463Y-117694798D01*
X166621967Y-117692018D01*
X166621969Y-117692017D01*
X166787495Y-117608404D01*
X166787497Y-117608403D01*
X166792996Y-117605625D01*
X166948847Y-117483861D01*
X167059350Y-117355842D01*
X167074049Y-117338813D01*
X167074050Y-117338811D01*
X167078078Y-117334145D01*
X167175769Y-117162179D01*
X167238197Y-116974513D01*
X167262985Y-116778295D01*
X167263254Y-116759037D01*
X167263331Y-116753523D01*
X167263331Y-116753520D01*
X167263380Y-116750000D01*
X167244080Y-116553167D01*
X167223525Y-116485084D01*
X167204538Y-116422198D01*
X167186916Y-116363831D01*
X167094066Y-116189204D01*
X167014267Y-116091361D01*
X166972960Y-116040713D01*
X166972957Y-116040710D01*
X166969065Y-116035938D01*
X166962724Y-116030692D01*
X166821425Y-115913799D01*
X166821421Y-115913797D01*
X166816675Y-115909870D01*
X166642701Y-115815802D01*
X166453768Y-115757318D01*
X166447643Y-115756674D01*
X166447642Y-115756674D01*
X166263204Y-115737289D01*
X166263202Y-115737289D01*
X166257075Y-115736645D01*
X166174576Y-115744153D01*
X166066251Y-115754011D01*
X166066248Y-115754012D01*
X166060112Y-115754570D01*
X166054206Y-115756308D01*
X166054202Y-115756309D01*
X166014969Y-115767856D01*
X165870381Y-115810410D01*
X165864923Y-115813263D01*
X165864919Y-115813265D01*
X165832614Y-115830154D01*
X165695110Y-115902040D01*
X165540975Y-116025968D01*
X165413846Y-116177474D01*
X165410879Y-116182872D01*
X165410875Y-116182877D01*
X165352238Y-116289539D01*
X165318567Y-116350787D01*
X165316706Y-116356654D01*
X165316705Y-116356656D01*
X165271958Y-116497717D01*
X165258765Y-116539306D01*
X165236719Y-116735851D01*
X148659824Y-116735851D01*
X148649798Y-116646466D01*
X148643998Y-116629809D01*
X148597998Y-116497717D01*
X148595680Y-116491060D01*
X148557709Y-116430293D01*
X148512209Y-116357479D01*
X148508476Y-116351505D01*
X148421219Y-116263637D01*
X148397486Y-116239737D01*
X148397482Y-116239734D01*
X148392522Y-116234739D01*
X148253580Y-116146563D01*
X148163447Y-116114468D01*
X148105189Y-116093723D01*
X148105187Y-116093722D01*
X148098555Y-116091361D01*
X148091569Y-116090528D01*
X148091565Y-116090527D01*
X147977071Y-116076875D01*
X147935153Y-116071877D01*
X147928150Y-116072613D01*
X147928149Y-116072613D01*
X147884935Y-116077155D01*
X147771495Y-116089078D01*
X147764827Y-116091348D01*
X147622382Y-116139840D01*
X147622379Y-116139841D01*
X147615715Y-116142110D01*
X147475555Y-116228337D01*
X147423969Y-116278854D01*
X147365394Y-116336215D01*
X147357982Y-116343473D01*
X147268838Y-116481797D01*
X147266427Y-116488420D01*
X147266426Y-116488423D01*
X147214966Y-116629809D01*
X147214965Y-116629814D01*
X147212556Y-116636432D01*
X147191931Y-116799694D01*
X115077741Y-116799694D01*
X115048688Y-116770437D01*
X115048684Y-116770434D01*
X115043724Y-116765439D01*
X114904782Y-116677263D01*
X114818294Y-116646466D01*
X114756391Y-116624423D01*
X114756389Y-116624422D01*
X114749757Y-116622061D01*
X114742771Y-116621228D01*
X114742767Y-116621227D01*
X114628273Y-116607575D01*
X114586355Y-116602577D01*
X114579352Y-116603313D01*
X114579351Y-116603313D01*
X114536137Y-116607855D01*
X114422697Y-116619778D01*
X114416029Y-116622048D01*
X114273584Y-116670540D01*
X114273581Y-116670541D01*
X114266917Y-116672810D01*
X114126757Y-116759037D01*
X114009184Y-116874173D01*
X113920040Y-117012497D01*
X113917629Y-117019120D01*
X113917628Y-117019123D01*
X113866168Y-117160509D01*
X113866167Y-117160514D01*
X113863758Y-117167132D01*
X113843133Y-117330394D01*
X107301605Y-117330394D01*
X107305255Y-117285515D01*
X107305659Y-117246900D01*
X107305813Y-117232221D01*
X107305813Y-117232214D01*
X107305836Y-117230000D01*
X107303261Y-117187278D01*
X107286865Y-116915315D01*
X107286865Y-116915311D01*
X107286637Y-116911537D01*
X107258786Y-116759037D01*
X107229998Y-116601409D01*
X107229997Y-116601405D01*
X107229318Y-116597687D01*
X107134709Y-116292996D01*
X107004180Y-116001878D01*
X106839623Y-115728550D01*
X106837296Y-115725566D01*
X106837291Y-115725559D01*
X106746930Y-115609694D01*
X129501931Y-115609694D01*
X129517989Y-115773468D01*
X129569932Y-115929615D01*
X129586761Y-115957403D01*
X129631945Y-116032009D01*
X129655179Y-116070373D01*
X129769491Y-116188747D01*
X129907189Y-116278854D01*
X130061428Y-116336215D01*
X130068409Y-116337146D01*
X130068411Y-116337147D01*
X130217561Y-116357048D01*
X130217565Y-116357048D01*
X130224542Y-116357979D01*
X130231553Y-116357341D01*
X130231557Y-116357341D01*
X130381403Y-116343704D01*
X130381404Y-116343704D01*
X130388424Y-116343065D01*
X130483376Y-116312213D01*
X130538230Y-116294390D01*
X130538233Y-116294389D01*
X130544929Y-116292213D01*
X130686279Y-116207951D01*
X130805449Y-116094468D01*
X130809519Y-116088342D01*
X130892614Y-115963275D01*
X130892615Y-115963273D01*
X130896515Y-115957403D01*
X130954951Y-115803568D01*
X130965494Y-115728550D01*
X130977302Y-115644534D01*
X130977303Y-115644527D01*
X130977853Y-115640610D01*
X130978006Y-115629694D01*
X131231931Y-115629694D01*
X131247989Y-115793468D01*
X131299932Y-115949615D01*
X131316726Y-115977345D01*
X131376135Y-116075439D01*
X131385179Y-116090373D01*
X131390070Y-116095438D01*
X131390071Y-116095439D01*
X131435141Y-116142110D01*
X131499491Y-116208747D01*
X131637189Y-116298854D01*
X131791428Y-116356215D01*
X131798409Y-116357146D01*
X131798411Y-116357147D01*
X131947561Y-116377048D01*
X131947565Y-116377048D01*
X131954542Y-116377979D01*
X131961553Y-116377341D01*
X131961557Y-116377341D01*
X132111403Y-116363704D01*
X132111404Y-116363704D01*
X132118424Y-116363065D01*
X132154002Y-116351505D01*
X132268230Y-116314390D01*
X132268233Y-116314389D01*
X132274929Y-116312213D01*
X132416279Y-116227951D01*
X132535449Y-116114468D01*
X132549232Y-116093723D01*
X132622614Y-115983275D01*
X132622615Y-115983273D01*
X132626515Y-115977403D01*
X132684951Y-115823568D01*
X132694648Y-115754570D01*
X132707302Y-115664534D01*
X132707303Y-115664527D01*
X132707853Y-115660610D01*
X132708141Y-115640000D01*
X132689798Y-115476466D01*
X132683998Y-115459809D01*
X132637998Y-115327717D01*
X132635680Y-115321060D01*
X132627343Y-115307717D01*
X132552209Y-115187479D01*
X132548476Y-115181505D01*
X132490499Y-115123122D01*
X132437486Y-115069737D01*
X132437482Y-115069734D01*
X132432522Y-115064739D01*
X132293580Y-114976563D01*
X132218533Y-114949840D01*
X132145189Y-114923723D01*
X132145187Y-114923722D01*
X132138555Y-114921361D01*
X132131569Y-114920528D01*
X132131565Y-114920527D01*
X132017071Y-114906875D01*
X131975153Y-114901877D01*
X131968150Y-114902613D01*
X131968149Y-114902613D01*
X131924935Y-114907155D01*
X131811495Y-114919078D01*
X131804827Y-114921348D01*
X131662382Y-114969840D01*
X131662379Y-114969841D01*
X131655715Y-114972110D01*
X131558858Y-115031697D01*
X131523795Y-115053268D01*
X131515555Y-115058337D01*
X131503914Y-115069737D01*
X131423437Y-115148546D01*
X131397982Y-115173473D01*
X131308838Y-115311797D01*
X131306427Y-115318420D01*
X131306426Y-115318423D01*
X131254966Y-115459809D01*
X131254965Y-115459814D01*
X131252556Y-115466432D01*
X131231931Y-115629694D01*
X130978006Y-115629694D01*
X130978141Y-115620000D01*
X130959798Y-115456466D01*
X130953998Y-115439809D01*
X130921246Y-115345759D01*
X130905680Y-115301060D01*
X130818476Y-115161505D01*
X130760499Y-115103122D01*
X130707486Y-115049737D01*
X130707482Y-115049734D01*
X130702522Y-115044739D01*
X130563580Y-114956563D01*
X130471355Y-114923723D01*
X130415189Y-114903723D01*
X130415187Y-114903722D01*
X130408555Y-114901361D01*
X130401569Y-114900528D01*
X130401565Y-114900527D01*
X130287071Y-114886875D01*
X130245153Y-114881877D01*
X130238150Y-114882613D01*
X130238149Y-114882613D01*
X130208627Y-114885716D01*
X130081495Y-114899078D01*
X130074827Y-114901348D01*
X129932382Y-114949840D01*
X129932379Y-114949841D01*
X129925715Y-114952110D01*
X129785555Y-115038337D01*
X129667982Y-115153473D01*
X129578838Y-115291797D01*
X129576427Y-115298420D01*
X129576426Y-115298423D01*
X129524966Y-115439809D01*
X129524965Y-115439814D01*
X129522556Y-115446432D01*
X129501931Y-115609694D01*
X106746930Y-115609694D01*
X106645752Y-115479959D01*
X106645746Y-115479952D01*
X106643421Y-115476971D01*
X106418417Y-115250785D01*
X106167868Y-115053268D01*
X105895405Y-114887282D01*
X105779387Y-114834532D01*
X105608427Y-114756800D01*
X105608419Y-114756797D01*
X105604975Y-114755231D01*
X105300783Y-114659028D01*
X105161957Y-114632922D01*
X104990962Y-114600767D01*
X104990957Y-114600766D01*
X104987238Y-114600067D01*
X104668880Y-114579200D01*
X104665100Y-114579408D01*
X104665099Y-114579408D01*
X104569459Y-114584672D01*
X104350320Y-114596732D01*
X104346593Y-114597393D01*
X104346589Y-114597393D01*
X104235338Y-114617110D01*
X104036175Y-114652407D01*
X104032559Y-114653509D01*
X104032551Y-114653511D01*
X103734617Y-114744314D01*
X103734610Y-114744317D01*
X103730993Y-114745419D01*
X103439195Y-114874421D01*
X103435941Y-114876357D01*
X103435935Y-114876360D01*
X103169883Y-115034645D01*
X103165009Y-115037545D01*
X103162008Y-115039860D01*
X103162004Y-115039863D01*
X103123282Y-115069737D01*
X102912406Y-115232427D01*
X102909708Y-115235083D01*
X102687910Y-115453424D01*
X102685045Y-115456244D01*
X102486219Y-115705755D01*
X102318809Y-115977345D01*
X102185239Y-116267081D01*
X102184080Y-116270681D01*
X102184077Y-116270688D01*
X102091136Y-116559301D01*
X102087445Y-116570764D01*
X102086726Y-116574480D01*
X102086724Y-116574488D01*
X102027561Y-116880278D01*
X102026842Y-116883996D01*
X102026575Y-116887772D01*
X102026574Y-116887777D01*
X102006373Y-117173092D01*
X102004309Y-117202241D01*
X100646512Y-117202241D01*
X100628988Y-116954753D01*
X100622969Y-116926793D01*
X100571848Y-116689344D01*
X100571847Y-116689342D01*
X100570912Y-116684997D01*
X100475405Y-116426116D01*
X100344375Y-116183275D01*
X100340091Y-116177474D01*
X100210394Y-116001878D01*
X100180436Y-115961318D01*
X99986858Y-115764675D01*
X99845309Y-115656649D01*
X99771048Y-115599975D01*
X99771044Y-115599972D01*
X99767503Y-115597270D01*
X99526750Y-115462441D01*
X99522597Y-115460834D01*
X99522592Y-115460832D01*
X99273556Y-115364487D01*
X99273550Y-115364485D01*
X99269401Y-115362880D01*
X99265069Y-115361876D01*
X99265066Y-115361875D01*
X99117695Y-115327717D01*
X99000591Y-115300574D01*
X98725684Y-115276764D01*
X98721249Y-115277008D01*
X98721245Y-115277008D01*
X98454607Y-115291682D01*
X98454600Y-115291683D01*
X98450164Y-115291927D01*
X98270234Y-115327717D01*
X98183893Y-115344891D01*
X98183891Y-115344892D01*
X98179530Y-115345759D01*
X97919181Y-115437187D01*
X97674311Y-115564387D01*
X97670696Y-115566970D01*
X97670690Y-115566974D01*
X97562156Y-115644534D01*
X97449807Y-115724820D01*
X97250148Y-115915286D01*
X97247392Y-115918782D01*
X97247391Y-115918783D01*
X97123893Y-116075439D01*
X97079317Y-116131983D01*
X96940724Y-116370589D01*
X96939056Y-116374706D01*
X96939053Y-116374713D01*
X96847232Y-116601409D01*
X96837133Y-116626342D01*
X96770612Y-116894140D01*
X96742487Y-117168640D01*
X94508500Y-117168640D01*
X94508500Y-113269694D01*
X113921931Y-113269694D01*
X113937989Y-113433468D01*
X113989932Y-113589615D01*
X114075179Y-113730373D01*
X114189491Y-113848747D01*
X114327189Y-113938854D01*
X114481428Y-113996215D01*
X114488409Y-113997146D01*
X114488411Y-113997147D01*
X114637561Y-114017048D01*
X114637565Y-114017048D01*
X114644542Y-114017979D01*
X114651553Y-114017341D01*
X114651557Y-114017341D01*
X114801403Y-114003704D01*
X114801404Y-114003704D01*
X114808424Y-114003065D01*
X114837062Y-113993760D01*
X114958230Y-113954390D01*
X114958233Y-113954389D01*
X114964929Y-113952213D01*
X115106279Y-113867951D01*
X115225449Y-113754468D01*
X115241458Y-113730373D01*
X115312614Y-113623275D01*
X115312615Y-113623273D01*
X115316515Y-113617403D01*
X115374951Y-113463568D01*
X115397853Y-113300610D01*
X115398141Y-113280000D01*
X115379798Y-113116466D01*
X115373998Y-113099809D01*
X115327998Y-112967717D01*
X115325680Y-112961060D01*
X115238476Y-112821505D01*
X115180499Y-112763122D01*
X115127486Y-112709737D01*
X115127482Y-112709734D01*
X115122522Y-112704739D01*
X114983580Y-112616563D01*
X114934447Y-112599068D01*
X114835189Y-112563723D01*
X114835187Y-112563722D01*
X114828555Y-112561361D01*
X114821569Y-112560528D01*
X114821565Y-112560527D01*
X114707071Y-112546875D01*
X114665153Y-112541877D01*
X114658150Y-112542613D01*
X114658149Y-112542613D01*
X114614935Y-112547155D01*
X114501495Y-112559078D01*
X114494827Y-112561348D01*
X114352382Y-112609840D01*
X114352379Y-112609841D01*
X114345715Y-112612110D01*
X114205555Y-112698337D01*
X114087982Y-112813473D01*
X113998838Y-112951797D01*
X113996427Y-112958420D01*
X113996426Y-112958423D01*
X113944966Y-113099809D01*
X113944965Y-113099814D01*
X113942556Y-113106432D01*
X113921931Y-113269694D01*
X94508500Y-113269694D01*
X94508500Y-111168201D01*
X94528502Y-111100080D01*
X94582158Y-111053587D01*
X94652432Y-111043483D01*
X94681598Y-111051335D01*
X94840668Y-111115442D01*
X94840671Y-111115443D01*
X94846237Y-111117686D01*
X95053837Y-111158228D01*
X95059399Y-111158500D01*
X95915346Y-111158500D01*
X96073066Y-111143452D01*
X96276034Y-111083908D01*
X96334906Y-111053587D01*
X96458749Y-110989804D01*
X96458752Y-110989802D01*
X96464080Y-110987058D01*
X96630420Y-110856396D01*
X96634352Y-110851865D01*
X96634355Y-110851862D01*
X96765121Y-110701167D01*
X96769052Y-110696637D01*
X96772052Y-110691451D01*
X96772055Y-110691447D01*
X96871967Y-110518742D01*
X96874973Y-110513546D01*
X96944361Y-110313729D01*
X96950788Y-110269401D01*
X96973852Y-110110336D01*
X96973852Y-110110333D01*
X96974713Y-110104396D01*
X96964933Y-109893101D01*
X96946509Y-109816653D01*
X96949994Y-109745742D01*
X96991263Y-109687972D01*
X97057214Y-109661685D01*
X97126907Y-109675226D01*
X97172215Y-109714861D01*
X97234124Y-109803275D01*
X97263975Y-109845907D01*
X97416593Y-109998525D01*
X97421101Y-110001682D01*
X97421104Y-110001684D01*
X97487180Y-110047951D01*
X97593394Y-110122323D01*
X97598376Y-110124646D01*
X97598381Y-110124649D01*
X97761922Y-110200909D01*
X97789007Y-110213539D01*
X97794315Y-110214961D01*
X97794317Y-110214962D01*
X97992172Y-110267977D01*
X97992174Y-110267977D01*
X97997487Y-110269401D01*
X98212500Y-110288212D01*
X98427513Y-110269401D01*
X98432826Y-110267977D01*
X98432828Y-110267977D01*
X98630683Y-110214962D01*
X98630685Y-110214961D01*
X98635993Y-110213539D01*
X98663078Y-110200909D01*
X98826619Y-110124649D01*
X98826624Y-110124646D01*
X98831606Y-110122323D01*
X98937820Y-110047951D01*
X99003896Y-110001684D01*
X99003899Y-110001682D01*
X99008407Y-109998525D01*
X99161025Y-109845907D01*
X99190877Y-109803275D01*
X99225752Y-109753468D01*
X99284823Y-109669106D01*
X99287146Y-109664124D01*
X99287149Y-109664119D01*
X99373716Y-109478475D01*
X99373717Y-109478474D01*
X99376039Y-109473493D01*
X99379506Y-109460556D01*
X99382416Y-109449694D01*
X143611931Y-109449694D01*
X143627989Y-109613468D01*
X143679932Y-109769615D01*
X143683581Y-109775640D01*
X143760671Y-109902929D01*
X143765179Y-109910373D01*
X143770070Y-109915438D01*
X143770071Y-109915439D01*
X143788447Y-109934468D01*
X143879491Y-110028747D01*
X144017189Y-110118854D01*
X144171428Y-110176215D01*
X144178409Y-110177146D01*
X144178411Y-110177147D01*
X144327561Y-110197048D01*
X144327565Y-110197048D01*
X144334542Y-110197979D01*
X144341553Y-110197341D01*
X144341557Y-110197341D01*
X144491403Y-110183704D01*
X144491404Y-110183704D01*
X144498424Y-110183065D01*
X144542490Y-110168747D01*
X144648230Y-110134390D01*
X144648233Y-110134389D01*
X144654929Y-110132213D01*
X144796279Y-110047951D01*
X144915449Y-109934468D01*
X144919350Y-109928597D01*
X145002614Y-109803275D01*
X145002615Y-109803273D01*
X145006515Y-109797403D01*
X145064951Y-109643568D01*
X145072522Y-109589694D01*
X147111931Y-109589694D01*
X147127989Y-109753468D01*
X147179932Y-109909615D01*
X147183581Y-109915640D01*
X147252082Y-110028747D01*
X147265179Y-110050373D01*
X147379491Y-110168747D01*
X147517189Y-110258854D01*
X147671428Y-110316215D01*
X147678409Y-110317146D01*
X147678411Y-110317147D01*
X147827561Y-110337048D01*
X147827565Y-110337048D01*
X147834542Y-110337979D01*
X147841553Y-110337341D01*
X147841557Y-110337341D01*
X147991403Y-110323704D01*
X147991404Y-110323704D01*
X147998424Y-110323065D01*
X148107164Y-110287733D01*
X148148230Y-110274390D01*
X148148233Y-110274389D01*
X148154929Y-110272213D01*
X148296279Y-110187951D01*
X148415449Y-110074468D01*
X148428092Y-110055439D01*
X148502614Y-109943275D01*
X148502615Y-109943273D01*
X148506515Y-109937403D01*
X148564951Y-109783568D01*
X148574607Y-109714861D01*
X148587302Y-109624534D01*
X148587303Y-109624527D01*
X148587853Y-109620610D01*
X148588141Y-109600000D01*
X148569798Y-109436466D01*
X148563998Y-109419809D01*
X148542265Y-109357403D01*
X148515680Y-109281060D01*
X148502229Y-109259533D01*
X148432209Y-109147479D01*
X148428476Y-109141505D01*
X148352083Y-109064577D01*
X148317486Y-109029737D01*
X148317482Y-109029734D01*
X148312522Y-109024739D01*
X148288815Y-109009694D01*
X153681931Y-109009694D01*
X153697989Y-109173468D01*
X153749932Y-109329615D01*
X153753581Y-109335640D01*
X153829234Y-109460556D01*
X153835179Y-109470373D01*
X153840070Y-109475438D01*
X153840071Y-109475439D01*
X153841318Y-109476730D01*
X153949491Y-109588747D01*
X154087189Y-109678854D01*
X154241428Y-109736215D01*
X154248409Y-109737146D01*
X154248411Y-109737147D01*
X154397561Y-109757048D01*
X154397565Y-109757048D01*
X154404542Y-109757979D01*
X154411553Y-109757341D01*
X154411557Y-109757341D01*
X154561403Y-109743704D01*
X154561404Y-109743704D01*
X154568424Y-109743065D01*
X154597062Y-109733760D01*
X154718230Y-109694390D01*
X154718233Y-109694389D01*
X154724929Y-109692213D01*
X154866279Y-109607951D01*
X154985449Y-109494468D01*
X154989350Y-109488597D01*
X155072614Y-109363275D01*
X155072615Y-109363273D01*
X155076515Y-109357403D01*
X155134951Y-109203568D01*
X155147688Y-109112942D01*
X155157302Y-109044534D01*
X155157303Y-109044525D01*
X155157853Y-109040610D01*
X155158141Y-109020000D01*
X155139798Y-108856466D01*
X155133998Y-108839809D01*
X155098663Y-108738342D01*
X155085680Y-108701060D01*
X155015095Y-108588100D01*
X155002209Y-108567479D01*
X154998476Y-108561505D01*
X154940499Y-108503122D01*
X154887486Y-108449737D01*
X154887482Y-108449734D01*
X154882522Y-108444739D01*
X154743580Y-108356563D01*
X154670047Y-108330379D01*
X154595189Y-108303723D01*
X154595187Y-108303722D01*
X154588555Y-108301361D01*
X154581569Y-108300528D01*
X154581565Y-108300527D01*
X154467071Y-108286875D01*
X154425153Y-108281877D01*
X154418150Y-108282613D01*
X154418149Y-108282613D01*
X154374935Y-108287155D01*
X154261495Y-108299078D01*
X154254827Y-108301348D01*
X154112382Y-108349840D01*
X154112379Y-108349841D01*
X154105715Y-108352110D01*
X153965555Y-108438337D01*
X153847982Y-108553473D01*
X153758838Y-108691797D01*
X153756427Y-108698420D01*
X153756426Y-108698423D01*
X153704966Y-108839809D01*
X153704965Y-108839814D01*
X153702556Y-108846432D01*
X153681931Y-109009694D01*
X148288815Y-109009694D01*
X148173580Y-108936563D01*
X148028042Y-108884739D01*
X148025189Y-108883723D01*
X148025187Y-108883722D01*
X148018555Y-108881361D01*
X148011569Y-108880528D01*
X148011565Y-108880527D01*
X147897071Y-108866875D01*
X147855153Y-108861877D01*
X147848150Y-108862613D01*
X147848149Y-108862613D01*
X147804935Y-108867155D01*
X147691495Y-108879078D01*
X147684827Y-108881348D01*
X147542382Y-108929840D01*
X147542379Y-108929841D01*
X147535715Y-108932110D01*
X147466842Y-108974481D01*
X147401945Y-109014406D01*
X147395555Y-109018337D01*
X147351601Y-109061380D01*
X147298948Y-109112942D01*
X147277982Y-109133473D01*
X147188838Y-109271797D01*
X147186427Y-109278420D01*
X147186426Y-109278423D01*
X147134966Y-109419809D01*
X147134965Y-109419814D01*
X147132556Y-109426432D01*
X147111931Y-109589694D01*
X145072522Y-109589694D01*
X145085843Y-109494913D01*
X145087302Y-109484534D01*
X145087303Y-109484527D01*
X145087853Y-109480610D01*
X145088037Y-109467455D01*
X145088086Y-109463962D01*
X145088086Y-109463956D01*
X145088141Y-109460000D01*
X145069798Y-109296466D01*
X145063998Y-109279809D01*
X145039741Y-109210154D01*
X145015680Y-109141060D01*
X145007861Y-109128546D01*
X144932209Y-109007479D01*
X144928476Y-109001505D01*
X144859564Y-108932110D01*
X144817486Y-108889737D01*
X144817482Y-108889734D01*
X144812522Y-108884739D01*
X144673580Y-108796563D01*
X144624447Y-108779068D01*
X144525189Y-108743723D01*
X144525187Y-108743722D01*
X144518555Y-108741361D01*
X144511569Y-108740528D01*
X144511565Y-108740527D01*
X144397071Y-108726875D01*
X144355153Y-108721877D01*
X144348150Y-108722613D01*
X144348149Y-108722613D01*
X144304935Y-108727155D01*
X144191495Y-108739078D01*
X144184827Y-108741348D01*
X144042382Y-108789840D01*
X144042379Y-108789841D01*
X144035715Y-108792110D01*
X143957112Y-108840467D01*
X143936051Y-108853424D01*
X143895555Y-108878337D01*
X143883914Y-108889737D01*
X143787086Y-108984558D01*
X143777982Y-108993473D01*
X143688838Y-109131797D01*
X143686427Y-109138420D01*
X143686426Y-109138423D01*
X143634966Y-109279809D01*
X143634965Y-109279814D01*
X143632556Y-109286432D01*
X143611931Y-109449694D01*
X99382416Y-109449694D01*
X99430477Y-109270328D01*
X99430477Y-109270326D01*
X99431901Y-109265013D01*
X99450712Y-109050000D01*
X99431901Y-108834987D01*
X99430477Y-108829672D01*
X99377462Y-108631817D01*
X99377461Y-108631815D01*
X99376039Y-108626507D01*
X99358266Y-108588393D01*
X99287149Y-108435881D01*
X99287146Y-108435876D01*
X99284823Y-108430894D01*
X99197715Y-108306491D01*
X99164184Y-108258604D01*
X99164182Y-108258601D01*
X99161025Y-108254093D01*
X99008407Y-108101475D01*
X98831606Y-107977677D01*
X98826624Y-107975354D01*
X98826619Y-107975351D01*
X98640975Y-107888784D01*
X98640974Y-107888783D01*
X98635993Y-107886461D01*
X98630685Y-107885039D01*
X98630683Y-107885038D01*
X98432828Y-107832023D01*
X98432826Y-107832023D01*
X98427513Y-107830599D01*
X98212500Y-107811788D01*
X97997487Y-107830599D01*
X97992174Y-107832023D01*
X97992172Y-107832023D01*
X97794317Y-107885038D01*
X97794315Y-107885039D01*
X97789007Y-107886461D01*
X97784026Y-107888783D01*
X97784025Y-107888784D01*
X97598381Y-107975351D01*
X97598376Y-107975354D01*
X97593394Y-107977677D01*
X97416593Y-108101475D01*
X97263975Y-108254093D01*
X97260818Y-108258601D01*
X97260816Y-108258604D01*
X97227285Y-108306491D01*
X97140177Y-108430894D01*
X97137854Y-108435876D01*
X97137851Y-108435881D01*
X97066734Y-108588393D01*
X97048961Y-108626507D01*
X97047539Y-108631815D01*
X97047538Y-108631817D01*
X96994523Y-108829672D01*
X96993099Y-108834987D01*
X96974288Y-109050000D01*
X96993099Y-109265013D01*
X96994523Y-109270326D01*
X96994523Y-109270328D01*
X97010722Y-109330784D01*
X97009032Y-109401761D01*
X96969238Y-109460556D01*
X96903973Y-109488504D01*
X96833960Y-109476730D01*
X96786245Y-109436295D01*
X96784209Y-109433424D01*
X96705446Y-109322389D01*
X96581324Y-109203568D01*
X96556980Y-109180264D01*
X96552650Y-109176119D01*
X96374952Y-109061380D01*
X96274669Y-109020965D01*
X96184332Y-108984558D01*
X96184329Y-108984557D01*
X96178763Y-108982314D01*
X95971163Y-108941772D01*
X95965601Y-108941500D01*
X95109654Y-108941500D01*
X94951934Y-108956548D01*
X94748966Y-109016092D01*
X94692190Y-109045334D01*
X94622474Y-109058742D01*
X94556573Y-109032329D01*
X94515414Y-108974481D01*
X94508500Y-108933317D01*
X94508500Y-106879694D01*
X110661931Y-106879694D01*
X110677989Y-107043468D01*
X110729932Y-107199615D01*
X110815179Y-107340373D01*
X110820070Y-107345438D01*
X110820071Y-107345439D01*
X110855280Y-107381899D01*
X110929491Y-107458747D01*
X111067189Y-107548854D01*
X111221428Y-107606215D01*
X111228409Y-107607146D01*
X111228411Y-107607147D01*
X111377561Y-107627048D01*
X111377565Y-107627048D01*
X111384542Y-107627979D01*
X111391553Y-107627341D01*
X111391557Y-107627341D01*
X111541403Y-107613704D01*
X111541404Y-107613704D01*
X111548424Y-107613065D01*
X111577062Y-107603760D01*
X111698230Y-107564390D01*
X111698233Y-107564389D01*
X111704929Y-107562213D01*
X111846279Y-107477951D01*
X111965449Y-107364468D01*
X111981458Y-107340373D01*
X112052614Y-107233275D01*
X112052615Y-107233273D01*
X112056515Y-107227403D01*
X112060039Y-107218125D01*
X148701231Y-107218125D01*
X148717289Y-107381899D01*
X148769232Y-107538046D01*
X148772881Y-107544071D01*
X148823312Y-107627341D01*
X148854479Y-107678804D01*
X148968791Y-107797178D01*
X149106489Y-107887285D01*
X149113094Y-107889741D01*
X149119382Y-107892918D01*
X149118543Y-107894579D01*
X149167927Y-107931466D01*
X149190948Y-107990699D01*
X149191339Y-107990616D01*
X149191850Y-107993022D01*
X149192538Y-107994791D01*
X149193492Y-108004520D01*
X149245435Y-108160667D01*
X149330682Y-108301425D01*
X149444994Y-108419799D01*
X149582692Y-108509906D01*
X149736931Y-108567267D01*
X149743912Y-108568198D01*
X149743914Y-108568199D01*
X149893064Y-108588100D01*
X149893068Y-108588100D01*
X149900045Y-108589031D01*
X149907056Y-108588393D01*
X149907060Y-108588393D01*
X150056906Y-108574756D01*
X150056907Y-108574756D01*
X150063927Y-108574117D01*
X150092565Y-108564812D01*
X150213733Y-108525442D01*
X150213736Y-108525441D01*
X150220432Y-108523265D01*
X150361782Y-108439003D01*
X150480952Y-108325520D01*
X150496961Y-108301425D01*
X150568117Y-108194327D01*
X150568118Y-108194325D01*
X150572018Y-108188455D01*
X150630454Y-108034620D01*
X150644951Y-107931466D01*
X150652805Y-107875586D01*
X150652806Y-107875579D01*
X150653356Y-107871662D01*
X150653644Y-107851052D01*
X150635301Y-107687518D01*
X150632267Y-107678804D01*
X150591665Y-107562213D01*
X150581183Y-107532112D01*
X150549592Y-107481555D01*
X150497712Y-107398531D01*
X150493979Y-107392557D01*
X150436002Y-107334174D01*
X150382989Y-107280789D01*
X150382985Y-107280786D01*
X150378025Y-107275791D01*
X150355504Y-107261499D01*
X150245031Y-107191389D01*
X150245026Y-107191387D01*
X150239083Y-107187615D01*
X150232447Y-107185252D01*
X150231393Y-107184738D01*
X150178935Y-107136898D01*
X150161413Y-107085536D01*
X150159883Y-107071895D01*
X150159098Y-107064897D01*
X150153298Y-107048240D01*
X150107298Y-106916148D01*
X150104980Y-106909491D01*
X150095277Y-106893962D01*
X150021509Y-106775910D01*
X150017776Y-106769936D01*
X149958067Y-106709809D01*
X149906786Y-106658168D01*
X149906782Y-106658165D01*
X149901822Y-106653170D01*
X149762880Y-106564994D01*
X149713747Y-106547499D01*
X149614489Y-106512154D01*
X149614487Y-106512153D01*
X149607855Y-106509792D01*
X149600869Y-106508959D01*
X149600865Y-106508958D01*
X149486371Y-106495306D01*
X149444453Y-106490308D01*
X149437450Y-106491044D01*
X149437449Y-106491044D01*
X149394235Y-106495586D01*
X149280795Y-106507509D01*
X149274127Y-106509779D01*
X149131682Y-106558271D01*
X149131679Y-106558272D01*
X149125015Y-106560541D01*
X148984855Y-106646768D01*
X148867282Y-106761904D01*
X148778138Y-106900228D01*
X148775727Y-106906851D01*
X148775726Y-106906854D01*
X148724266Y-107048240D01*
X148724265Y-107048245D01*
X148721856Y-107054863D01*
X148701231Y-107218125D01*
X112060039Y-107218125D01*
X112114951Y-107073568D01*
X112137853Y-106910610D01*
X112138141Y-106890000D01*
X112119798Y-106726466D01*
X112113998Y-106709809D01*
X112067998Y-106577717D01*
X112065680Y-106571060D01*
X112061414Y-106564232D01*
X111982209Y-106437479D01*
X111978476Y-106431505D01*
X111920499Y-106373122D01*
X111867486Y-106319737D01*
X111867482Y-106319734D01*
X111862522Y-106314739D01*
X111723580Y-106226563D01*
X111674447Y-106209068D01*
X111575189Y-106173723D01*
X111575187Y-106173722D01*
X111568555Y-106171361D01*
X111561569Y-106170528D01*
X111561565Y-106170527D01*
X111447071Y-106156875D01*
X111405153Y-106151877D01*
X111398150Y-106152613D01*
X111398149Y-106152613D01*
X111355193Y-106157128D01*
X111241495Y-106169078D01*
X111234827Y-106171348D01*
X111092382Y-106219840D01*
X111092379Y-106219841D01*
X111085715Y-106222110D01*
X110945555Y-106308337D01*
X110827982Y-106423473D01*
X110738838Y-106561797D01*
X110736427Y-106568420D01*
X110736426Y-106568423D01*
X110684966Y-106709809D01*
X110684965Y-106709814D01*
X110682556Y-106716432D01*
X110661931Y-106879694D01*
X94508500Y-106879694D01*
X94508500Y-104168201D01*
X94528502Y-104100080D01*
X94582158Y-104053587D01*
X94652432Y-104043483D01*
X94681598Y-104051335D01*
X94840668Y-104115442D01*
X94840671Y-104115443D01*
X94846237Y-104117686D01*
X95053837Y-104158228D01*
X95059399Y-104158500D01*
X95915346Y-104158500D01*
X96073066Y-104143452D01*
X96276034Y-104083908D01*
X96327559Y-104057371D01*
X96458749Y-103989804D01*
X96458752Y-103989802D01*
X96464080Y-103987058D01*
X96630420Y-103856396D01*
X96634352Y-103851865D01*
X96634355Y-103851862D01*
X96765121Y-103701167D01*
X96769052Y-103696637D01*
X96777814Y-103681492D01*
X96829241Y-103632545D01*
X96898967Y-103619172D01*
X96964854Y-103645619D01*
X97005983Y-103703489D01*
X97008582Y-103777203D01*
X96994524Y-103829665D01*
X96994523Y-103829672D01*
X96993099Y-103834987D01*
X96974288Y-104050000D01*
X96993099Y-104265013D01*
X96994523Y-104270326D01*
X96994523Y-104270328D01*
X97016789Y-104353424D01*
X97048961Y-104473493D01*
X97051283Y-104478474D01*
X97051284Y-104478475D01*
X97137851Y-104664119D01*
X97137854Y-104664124D01*
X97140177Y-104669106D01*
X97174955Y-104718774D01*
X97247886Y-104822929D01*
X97263975Y-104845907D01*
X97416593Y-104998525D01*
X97593394Y-105122323D01*
X97598376Y-105124646D01*
X97598381Y-105124649D01*
X97784025Y-105211216D01*
X97789007Y-105213539D01*
X97794315Y-105214961D01*
X97794317Y-105214962D01*
X97992172Y-105267977D01*
X97992174Y-105267977D01*
X97997487Y-105269401D01*
X98212500Y-105288212D01*
X98427513Y-105269401D01*
X98432826Y-105267977D01*
X98432828Y-105267977D01*
X98630683Y-105214962D01*
X98630685Y-105214961D01*
X98635993Y-105213539D01*
X98640975Y-105211216D01*
X98826619Y-105124649D01*
X98826624Y-105124646D01*
X98831606Y-105122323D01*
X99008407Y-104998525D01*
X99161025Y-104845907D01*
X99177115Y-104822929D01*
X99250045Y-104718774D01*
X99284823Y-104669106D01*
X99287146Y-104664124D01*
X99287149Y-104664119D01*
X99359158Y-104509694D01*
X109771931Y-104509694D01*
X109787989Y-104673468D01*
X109839932Y-104829615D01*
X109925179Y-104970373D01*
X109930070Y-104975438D01*
X109930071Y-104975439D01*
X109996561Y-105044291D01*
X110039491Y-105088747D01*
X110177189Y-105178854D01*
X110331428Y-105236215D01*
X110338409Y-105237146D01*
X110338411Y-105237147D01*
X110487561Y-105257048D01*
X110487565Y-105257048D01*
X110494542Y-105257979D01*
X110501553Y-105257341D01*
X110501557Y-105257341D01*
X110582221Y-105250000D01*
X151086496Y-105250000D01*
X151106458Y-105439928D01*
X151165473Y-105621556D01*
X151260960Y-105786944D01*
X151388747Y-105928866D01*
X151543248Y-106041118D01*
X151549276Y-106043802D01*
X151549278Y-106043803D01*
X151711681Y-106116109D01*
X151717712Y-106118794D01*
X151811112Y-106138647D01*
X151898056Y-106157128D01*
X151898061Y-106157128D01*
X151904513Y-106158500D01*
X152095487Y-106158500D01*
X152101939Y-106157128D01*
X152101944Y-106157128D01*
X152188888Y-106138647D01*
X152282288Y-106118794D01*
X152288319Y-106116109D01*
X152450722Y-106043803D01*
X152450724Y-106043802D01*
X152456752Y-106041118D01*
X152611253Y-105928866D01*
X152739040Y-105786944D01*
X152834527Y-105621556D01*
X152893542Y-105439928D01*
X152913504Y-105250000D01*
X152907051Y-105188607D01*
X152894232Y-105066635D01*
X152894232Y-105066633D01*
X152893542Y-105060072D01*
X152834527Y-104878444D01*
X152739040Y-104713056D01*
X152726314Y-104698923D01*
X152695600Y-104634915D01*
X152704366Y-104564462D01*
X152745893Y-104512680D01*
X152759630Y-104502700D01*
X152861253Y-104428866D01*
X152929181Y-104353424D01*
X152984621Y-104291852D01*
X152984622Y-104291851D01*
X152989040Y-104286944D01*
X153063197Y-104158500D01*
X153081223Y-104127279D01*
X153081224Y-104127278D01*
X153084527Y-104121556D01*
X153143542Y-103939928D01*
X153144568Y-103930171D01*
X153162814Y-103756565D01*
X153163504Y-103750000D01*
X153143542Y-103560072D01*
X153084527Y-103378444D01*
X152989040Y-103213056D01*
X152885803Y-103098399D01*
X152865675Y-103076045D01*
X152865674Y-103076044D01*
X152861253Y-103071134D01*
X152706752Y-102958882D01*
X152700724Y-102956198D01*
X152700722Y-102956197D01*
X152538319Y-102883891D01*
X152538318Y-102883891D01*
X152532288Y-102881206D01*
X152438887Y-102861353D01*
X152351944Y-102842872D01*
X152351939Y-102842872D01*
X152345487Y-102841500D01*
X152154513Y-102841500D01*
X152148061Y-102842872D01*
X152148056Y-102842872D01*
X152061113Y-102861353D01*
X151967712Y-102881206D01*
X151961682Y-102883891D01*
X151961681Y-102883891D01*
X151799278Y-102956197D01*
X151799276Y-102956198D01*
X151793248Y-102958882D01*
X151638747Y-103071134D01*
X151634326Y-103076044D01*
X151634325Y-103076045D01*
X151614198Y-103098399D01*
X151510960Y-103213056D01*
X151415473Y-103378444D01*
X151356458Y-103560072D01*
X151336496Y-103750000D01*
X151337186Y-103756565D01*
X151355433Y-103930171D01*
X151356458Y-103939928D01*
X151415473Y-104121556D01*
X151418776Y-104127278D01*
X151418777Y-104127279D01*
X151436803Y-104158500D01*
X151510960Y-104286944D01*
X151523685Y-104301076D01*
X151554400Y-104365085D01*
X151545634Y-104435538D01*
X151504107Y-104487320D01*
X151425359Y-104544534D01*
X151388747Y-104571134D01*
X151260960Y-104713056D01*
X151165473Y-104878444D01*
X151106458Y-105060072D01*
X151105768Y-105066633D01*
X151105768Y-105066635D01*
X151092949Y-105188607D01*
X151086496Y-105250000D01*
X110582221Y-105250000D01*
X110651403Y-105243704D01*
X110651404Y-105243704D01*
X110658424Y-105243065D01*
X110687062Y-105233760D01*
X110808230Y-105194390D01*
X110808233Y-105194389D01*
X110814929Y-105192213D01*
X110956279Y-105107951D01*
X111075449Y-104994468D01*
X111091458Y-104970373D01*
X111162614Y-104863275D01*
X111162615Y-104863273D01*
X111166515Y-104857403D01*
X111224951Y-104703568D01*
X111236865Y-104618794D01*
X111247302Y-104544534D01*
X111247303Y-104544527D01*
X111247853Y-104540610D01*
X111248141Y-104520000D01*
X111229798Y-104356466D01*
X111223998Y-104339809D01*
X111177998Y-104207717D01*
X111175680Y-104201060D01*
X111155148Y-104168201D01*
X111092209Y-104067479D01*
X111088476Y-104061505D01*
X111017274Y-103989804D01*
X110977486Y-103949737D01*
X110977482Y-103949734D01*
X110972522Y-103944739D01*
X110833580Y-103856563D01*
X110767677Y-103833096D01*
X110685189Y-103803723D01*
X110685187Y-103803722D01*
X110678555Y-103801361D01*
X110671569Y-103800528D01*
X110671565Y-103800527D01*
X110557071Y-103786875D01*
X110515153Y-103781877D01*
X110508150Y-103782613D01*
X110508149Y-103782613D01*
X110464935Y-103787155D01*
X110351495Y-103799078D01*
X110344827Y-103801348D01*
X110202382Y-103849840D01*
X110202379Y-103849841D01*
X110195715Y-103852110D01*
X110109753Y-103904994D01*
X110068829Y-103930171D01*
X110055555Y-103938337D01*
X110009585Y-103983354D01*
X109947281Y-104044367D01*
X109937982Y-104053473D01*
X109848838Y-104191797D01*
X109846427Y-104198420D01*
X109846426Y-104198423D01*
X109794966Y-104339809D01*
X109794965Y-104339814D01*
X109792556Y-104346432D01*
X109771931Y-104509694D01*
X99359158Y-104509694D01*
X99373716Y-104478475D01*
X99373717Y-104478474D01*
X99376039Y-104473493D01*
X99408212Y-104353424D01*
X99430477Y-104270328D01*
X99430477Y-104270326D01*
X99431901Y-104265013D01*
X99450712Y-104050000D01*
X99431901Y-103834987D01*
X99422891Y-103801361D01*
X99409129Y-103750000D01*
X114586496Y-103750000D01*
X114587186Y-103756565D01*
X114605433Y-103930171D01*
X114606458Y-103939928D01*
X114665473Y-104121556D01*
X114668776Y-104127278D01*
X114668777Y-104127279D01*
X114686803Y-104158500D01*
X114760960Y-104286944D01*
X114765378Y-104291851D01*
X114765379Y-104291852D01*
X114820819Y-104353424D01*
X114888747Y-104428866D01*
X114942862Y-104468183D01*
X115008762Y-104516062D01*
X115043248Y-104541118D01*
X115049276Y-104543802D01*
X115049278Y-104543803D01*
X115130711Y-104580059D01*
X115217712Y-104618794D01*
X115293555Y-104634915D01*
X115398056Y-104657128D01*
X115398061Y-104657128D01*
X115404513Y-104658500D01*
X115595487Y-104658500D01*
X115601939Y-104657128D01*
X115601944Y-104657128D01*
X115706445Y-104634915D01*
X115782288Y-104618794D01*
X115869289Y-104580059D01*
X115950722Y-104543803D01*
X115950724Y-104543802D01*
X115956752Y-104541118D01*
X115991239Y-104516062D01*
X116057138Y-104468183D01*
X116111253Y-104428866D01*
X116179181Y-104353424D01*
X116234621Y-104291852D01*
X116234622Y-104291851D01*
X116239040Y-104286944D01*
X116313197Y-104158500D01*
X116331223Y-104127279D01*
X116331224Y-104127278D01*
X116334527Y-104121556D01*
X116393542Y-103939928D01*
X116394568Y-103930171D01*
X116412814Y-103756565D01*
X116413504Y-103750000D01*
X116393542Y-103560072D01*
X116334527Y-103378444D01*
X116239040Y-103213056D01*
X116135803Y-103098399D01*
X116115675Y-103076045D01*
X116115674Y-103076044D01*
X116111253Y-103071134D01*
X115956752Y-102958882D01*
X115950724Y-102956198D01*
X115950722Y-102956197D01*
X115788319Y-102883891D01*
X115788318Y-102883891D01*
X115782288Y-102881206D01*
X115688887Y-102861353D01*
X115601944Y-102842872D01*
X115601939Y-102842872D01*
X115595487Y-102841500D01*
X115404513Y-102841500D01*
X115398061Y-102842872D01*
X115398056Y-102842872D01*
X115311113Y-102861353D01*
X115217712Y-102881206D01*
X115211682Y-102883891D01*
X115211681Y-102883891D01*
X115049278Y-102956197D01*
X115049276Y-102956198D01*
X115043248Y-102958882D01*
X114888747Y-103071134D01*
X114884326Y-103076044D01*
X114884325Y-103076045D01*
X114864198Y-103098399D01*
X114760960Y-103213056D01*
X114665473Y-103378444D01*
X114606458Y-103560072D01*
X114586496Y-103750000D01*
X99409129Y-103750000D01*
X99377462Y-103631817D01*
X99377461Y-103631815D01*
X99376039Y-103626507D01*
X99360543Y-103593275D01*
X99287149Y-103435881D01*
X99287146Y-103435876D01*
X99284823Y-103430894D01*
X99175338Y-103274534D01*
X99164184Y-103258604D01*
X99164182Y-103258601D01*
X99161025Y-103254093D01*
X99008407Y-103101475D01*
X98972090Y-103076045D01*
X98930594Y-103046990D01*
X98831606Y-102977677D01*
X98826624Y-102975354D01*
X98826619Y-102975351D01*
X98640975Y-102888784D01*
X98640974Y-102888783D01*
X98635993Y-102886461D01*
X98630685Y-102885039D01*
X98630683Y-102885038D01*
X98432828Y-102832023D01*
X98432826Y-102832023D01*
X98427513Y-102830599D01*
X98212500Y-102811788D01*
X97997487Y-102830599D01*
X97992174Y-102832023D01*
X97992172Y-102832023D01*
X97794317Y-102885038D01*
X97794315Y-102885039D01*
X97789007Y-102886461D01*
X97784026Y-102888783D01*
X97784025Y-102888784D01*
X97598381Y-102975351D01*
X97598376Y-102975354D01*
X97593394Y-102977677D01*
X97494406Y-103046990D01*
X97452911Y-103076045D01*
X97416593Y-103101475D01*
X97263975Y-103254093D01*
X97260818Y-103258601D01*
X97260816Y-103258604D01*
X97249662Y-103274534D01*
X97180911Y-103372721D01*
X97175748Y-103380094D01*
X97120291Y-103424422D01*
X97049672Y-103431731D01*
X96986311Y-103399700D01*
X96950326Y-103338499D01*
X96947839Y-103289743D01*
X96973852Y-103110336D01*
X96973852Y-103110333D01*
X96974713Y-103104396D01*
X96964933Y-102893101D01*
X96915375Y-102687466D01*
X96909589Y-102674739D01*
X96844398Y-102531361D01*
X96827826Y-102494913D01*
X96705446Y-102322389D01*
X96552650Y-102176119D01*
X96374952Y-102061380D01*
X96300130Y-102031226D01*
X96184332Y-101984558D01*
X96184329Y-101984557D01*
X96178763Y-101982314D01*
X95971163Y-101941772D01*
X95965601Y-101941500D01*
X95109654Y-101941500D01*
X94951934Y-101956548D01*
X94748966Y-102016092D01*
X94692190Y-102045334D01*
X94622474Y-102058742D01*
X94556573Y-102032329D01*
X94515414Y-101974481D01*
X94508500Y-101933317D01*
X94508500Y-101769694D01*
X129461931Y-101769694D01*
X129477989Y-101933468D01*
X129529932Y-102089615D01*
X129546303Y-102116646D01*
X129586337Y-102182749D01*
X129615179Y-102230373D01*
X129729491Y-102348747D01*
X129867189Y-102438854D01*
X130021428Y-102496215D01*
X130028409Y-102497146D01*
X130028411Y-102497147D01*
X130177561Y-102517048D01*
X130177565Y-102517048D01*
X130184542Y-102517979D01*
X130191553Y-102517341D01*
X130191557Y-102517341D01*
X130341403Y-102503704D01*
X130341404Y-102503704D01*
X130348424Y-102503065D01*
X130388554Y-102490026D01*
X130474896Y-102461972D01*
X130545864Y-102459945D01*
X130606662Y-102496607D01*
X130637987Y-102560319D01*
X130629893Y-102630853D01*
X130601989Y-102671829D01*
X130487982Y-102783473D01*
X130398838Y-102921797D01*
X130396427Y-102928420D01*
X130396426Y-102928423D01*
X130344966Y-103069809D01*
X130344965Y-103069814D01*
X130342556Y-103076432D01*
X130321931Y-103239694D01*
X130337989Y-103403468D01*
X130389932Y-103559615D01*
X130393581Y-103565640D01*
X130433660Y-103631817D01*
X130475179Y-103700373D01*
X130589491Y-103818747D01*
X130727189Y-103908854D01*
X130881428Y-103966215D01*
X130888409Y-103967146D01*
X130888411Y-103967147D01*
X131037561Y-103987048D01*
X131037565Y-103987048D01*
X131044542Y-103987979D01*
X131051553Y-103987341D01*
X131051557Y-103987341D01*
X131201403Y-103973704D01*
X131201404Y-103973704D01*
X131208424Y-103973065D01*
X131295602Y-103944739D01*
X131358230Y-103924390D01*
X131358233Y-103924389D01*
X131364929Y-103922213D01*
X131506279Y-103837951D01*
X131625449Y-103724468D01*
X131638092Y-103705439D01*
X131712614Y-103593275D01*
X131712615Y-103593273D01*
X131716515Y-103587403D01*
X131774951Y-103433568D01*
X131797853Y-103270610D01*
X131798141Y-103250000D01*
X131779798Y-103086466D01*
X131773998Y-103069809D01*
X131736720Y-102962763D01*
X131725680Y-102931060D01*
X131705704Y-102899091D01*
X131642209Y-102797479D01*
X131638476Y-102791505D01*
X131540953Y-102693299D01*
X131527486Y-102679737D01*
X131527482Y-102679734D01*
X131522522Y-102674739D01*
X131383580Y-102586563D01*
X131334447Y-102569068D01*
X131235189Y-102533723D01*
X131235187Y-102533722D01*
X131228555Y-102531361D01*
X131221569Y-102530528D01*
X131221565Y-102530527D01*
X131107071Y-102516875D01*
X131065153Y-102511877D01*
X131058150Y-102512613D01*
X131058149Y-102512613D01*
X131015954Y-102517048D01*
X130901495Y-102529078D01*
X130894824Y-102531349D01*
X130783448Y-102569264D01*
X130712516Y-102572282D01*
X130651212Y-102536472D01*
X130619000Y-102473203D01*
X130626108Y-102402563D01*
X130655952Y-102358740D01*
X130760343Y-102259332D01*
X130760350Y-102259324D01*
X130765449Y-102254468D01*
X130772667Y-102243604D01*
X130852614Y-102123275D01*
X130852615Y-102123273D01*
X130856515Y-102117403D01*
X130914951Y-101963568D01*
X130937853Y-101800610D01*
X130938141Y-101780000D01*
X130919798Y-101616466D01*
X130913998Y-101599809D01*
X130879240Y-101500000D01*
X141586496Y-101500000D01*
X141587186Y-101506565D01*
X141599473Y-101623465D01*
X141606458Y-101689928D01*
X141665473Y-101871556D01*
X141760960Y-102036944D01*
X141765378Y-102041851D01*
X141765379Y-102041852D01*
X141838693Y-102123275D01*
X141888747Y-102178866D01*
X141951350Y-102224350D01*
X141999499Y-102259332D01*
X142043248Y-102291118D01*
X142049276Y-102293802D01*
X142049278Y-102293803D01*
X142195130Y-102358740D01*
X142217712Y-102368794D01*
X142311113Y-102388647D01*
X142398056Y-102407128D01*
X142398061Y-102407128D01*
X142404513Y-102408500D01*
X142595487Y-102408500D01*
X142601939Y-102407128D01*
X142601944Y-102407128D01*
X142688887Y-102388647D01*
X142782288Y-102368794D01*
X142804870Y-102358740D01*
X142950722Y-102293803D01*
X142950724Y-102293802D01*
X142956752Y-102291118D01*
X143000502Y-102259332D01*
X143048650Y-102224350D01*
X143111253Y-102178866D01*
X143161307Y-102123275D01*
X143234621Y-102041852D01*
X143234622Y-102041851D01*
X143239040Y-102036944D01*
X143334527Y-101871556D01*
X143393542Y-101689928D01*
X143400528Y-101623465D01*
X143412814Y-101506565D01*
X143413504Y-101500000D01*
X143393542Y-101310072D01*
X143334527Y-101128444D01*
X143327668Y-101116563D01*
X143294287Y-101058747D01*
X143239040Y-100963056D01*
X143211752Y-100932749D01*
X143115675Y-100826045D01*
X143115674Y-100826044D01*
X143111253Y-100821134D01*
X142956752Y-100708882D01*
X142950724Y-100706198D01*
X142950722Y-100706197D01*
X142788319Y-100633891D01*
X142788318Y-100633891D01*
X142782288Y-100631206D01*
X142680208Y-100609508D01*
X142601944Y-100592872D01*
X142601939Y-100592872D01*
X142595487Y-100591500D01*
X142404513Y-100591500D01*
X142398061Y-100592872D01*
X142398056Y-100592872D01*
X142319792Y-100609508D01*
X142217712Y-100631206D01*
X142211682Y-100633891D01*
X142211681Y-100633891D01*
X142049278Y-100706197D01*
X142049276Y-100706198D01*
X142043248Y-100708882D01*
X141888747Y-100821134D01*
X141884326Y-100826044D01*
X141884325Y-100826045D01*
X141788249Y-100932749D01*
X141760960Y-100963056D01*
X141705713Y-101058747D01*
X141672333Y-101116563D01*
X141665473Y-101128444D01*
X141606458Y-101310072D01*
X141586496Y-101500000D01*
X130879240Y-101500000D01*
X130867998Y-101467717D01*
X130865680Y-101461060D01*
X130778476Y-101321505D01*
X130720499Y-101263122D01*
X130667486Y-101209737D01*
X130667482Y-101209734D01*
X130662522Y-101204739D01*
X130523580Y-101116563D01*
X130474447Y-101099068D01*
X130375189Y-101063723D01*
X130375187Y-101063722D01*
X130368555Y-101061361D01*
X130361569Y-101060528D01*
X130361565Y-101060527D01*
X130247071Y-101046875D01*
X130205153Y-101041877D01*
X130198150Y-101042613D01*
X130198149Y-101042613D01*
X130154935Y-101047155D01*
X130041495Y-101059078D01*
X130034827Y-101061348D01*
X129892382Y-101109840D01*
X129892379Y-101109841D01*
X129885715Y-101112110D01*
X129812539Y-101157128D01*
X129767870Y-101184609D01*
X129745555Y-101198337D01*
X129627982Y-101313473D01*
X129538838Y-101451797D01*
X129536427Y-101458420D01*
X129536426Y-101458423D01*
X129484966Y-101599809D01*
X129484965Y-101599814D01*
X129482556Y-101606432D01*
X129461931Y-101769694D01*
X94508500Y-101769694D01*
X94508500Y-100609508D01*
X94528502Y-100541387D01*
X94582158Y-100494894D01*
X94621615Y-100484169D01*
X95020845Y-100443127D01*
X95020846Y-100443127D01*
X95023004Y-100442905D01*
X95025127Y-100442539D01*
X95025134Y-100442538D01*
X95526409Y-100356109D01*
X95526420Y-100356107D01*
X95528541Y-100355741D01*
X95530640Y-100355230D01*
X95530652Y-100355227D01*
X96024843Y-100234796D01*
X96024851Y-100234794D01*
X96026951Y-100234282D01*
X96515910Y-100079093D01*
X96993140Y-99890898D01*
X97456413Y-99670575D01*
X97458288Y-99669521D01*
X97458301Y-99669514D01*
X97901704Y-99420201D01*
X97901719Y-99420192D01*
X97903572Y-99419150D01*
X97923337Y-99406186D01*
X98330715Y-99138988D01*
X98330726Y-99138980D01*
X98332530Y-99137797D01*
X98741288Y-98827826D01*
X99127940Y-98490683D01*
X99490683Y-98127940D01*
X99827826Y-97741288D01*
X100137797Y-97332530D01*
X100138980Y-97330726D01*
X100138988Y-97330715D01*
X100417976Y-96905362D01*
X100417977Y-96905361D01*
X100419150Y-96903572D01*
X100420192Y-96901719D01*
X100420201Y-96901704D01*
X100669514Y-96458301D01*
X100669521Y-96458288D01*
X100670575Y-96456413D01*
X100890898Y-95993140D01*
X101079093Y-95515910D01*
X101234282Y-95026951D01*
X101355741Y-94528541D01*
X101442905Y-94023004D01*
X101484169Y-93621615D01*
X101511032Y-93555897D01*
X101569161Y-93515135D01*
X101609508Y-93508500D01*
X107365500Y-93508500D01*
X107433621Y-93528502D01*
G37*
G04 #@! TD.AperFunction*
M02*
