G04 #@! TF.GenerationSoftware,KiCad,Pcbnew,(6.0.8)*
G04 #@! TF.CreationDate,2022-10-29T11:40:11-07:00*
G04 #@! TF.ProjectId,EasyKVM,45617379-4b56-44d2-9e6b-696361645f70,rev?*
G04 #@! TF.SameCoordinates,Original*
G04 #@! TF.FileFunction,Copper,L4,Bot*
G04 #@! TF.FilePolarity,Positive*
%FSLAX46Y46*%
G04 Gerber Fmt 4.6, Leading zero omitted, Abs format (unit mm)*
G04 Created by KiCad (PCBNEW (6.0.8)) date 2022-10-29 11:40:11*
%MOMM*%
%LPD*%
G01*
G04 APERTURE LIST*
G04 #@! TA.AperFunction,ComponentPad*
%ADD10C,4.275000*%
G04 #@! TD*
G04 #@! TA.AperFunction,ComponentPad*
%ADD11C,2.880000*%
G04 #@! TD*
G04 #@! TA.AperFunction,ComponentPad*
%ADD12O,1.900000X1.200000*%
G04 #@! TD*
G04 #@! TA.AperFunction,ComponentPad*
%ADD13C,1.450000*%
G04 #@! TD*
G04 #@! TA.AperFunction,ComponentPad*
%ADD14R,1.600000X1.500000*%
G04 #@! TD*
G04 #@! TA.AperFunction,ComponentPad*
%ADD15C,1.600000*%
G04 #@! TD*
G04 #@! TA.AperFunction,ComponentPad*
%ADD16C,3.000000*%
G04 #@! TD*
G04 #@! TA.AperFunction,ComponentPad*
%ADD17R,1.500000X1.600000*%
G04 #@! TD*
G04 #@! TA.AperFunction,ViaPad*
%ADD18C,0.450000*%
G04 #@! TD*
G04 #@! TA.AperFunction,ViaPad*
%ADD19C,0.800000*%
G04 #@! TD*
G04 #@! TA.AperFunction,ViaPad*
%ADD20C,1.000000*%
G04 #@! TD*
G04 #@! TA.AperFunction,Conductor*
%ADD21C,0.250000*%
G04 #@! TD*
G04 #@! TA.AperFunction,Conductor*
%ADD22C,0.175006*%
G04 #@! TD*
G04 #@! TA.AperFunction,Conductor*
%ADD23C,0.125984*%
G04 #@! TD*
G04 APERTURE END LIST*
D10*
X104655000Y-117230000D03*
X104655000Y-131730000D03*
D11*
X98695000Y-117230000D03*
X98695000Y-131730000D03*
D12*
X167467500Y-134000000D03*
X167467500Y-127000000D03*
D13*
X164767500Y-133000000D03*
X164767500Y-128000000D03*
D10*
X104655000Y-144179500D03*
X104655000Y-158679500D03*
D11*
X98695000Y-144179500D03*
X98695000Y-158679500D03*
D12*
X95512500Y-100050000D03*
D13*
X98212500Y-101050000D03*
D12*
X95512500Y-107050000D03*
D13*
X98212500Y-106050000D03*
D14*
X127920000Y-154780000D03*
D15*
X130420000Y-154780000D03*
X132420000Y-154780000D03*
X134920000Y-154780000D03*
D16*
X124850000Y-157490000D03*
X137990000Y-157490000D03*
D17*
X155790000Y-154900000D03*
D15*
X155790000Y-152400000D03*
X155790000Y-150400000D03*
X155790000Y-147900000D03*
D16*
X158500000Y-144830000D03*
X158500000Y-157970000D03*
D12*
X167467500Y-100050000D03*
D13*
X164767500Y-106050000D03*
D12*
X167467500Y-107050000D03*
D13*
X164767500Y-101050000D03*
D18*
X160990000Y-164580000D03*
X134875000Y-122345000D03*
D19*
X118500000Y-128000000D03*
X156500000Y-99000000D03*
D20*
X166250000Y-113750000D03*
D19*
X115500000Y-100318500D03*
X115500000Y-103750000D03*
X152000000Y-105250000D03*
X152250000Y-103750000D03*
X140750000Y-100250000D03*
X163250000Y-165250000D03*
X142500000Y-101500000D03*
X163500000Y-123750000D03*
X146250000Y-121500000D03*
X154250000Y-100250000D03*
X163500000Y-163500000D03*
X118500000Y-132500000D03*
D18*
X147440000Y-124750000D03*
X141170000Y-121930000D03*
X145710000Y-155400000D03*
X131970000Y-115640000D03*
X140610000Y-124780000D03*
X144350000Y-109460000D03*
X144910000Y-100490000D03*
X158000000Y-120290000D03*
X154420000Y-106020000D03*
X147850000Y-109600000D03*
X147930000Y-116810000D03*
D19*
X123000000Y-105750000D03*
X124500000Y-105250000D03*
X127500000Y-131250000D03*
X147455000Y-156550000D03*
X103500000Y-103250000D03*
X133291782Y-125230816D03*
X113000000Y-101750000D03*
X146500000Y-144000000D03*
X127750000Y-128750000D03*
X121750000Y-108000000D03*
X129260000Y-126420000D03*
X127500000Y-109750000D03*
X114100000Y-148000000D03*
X102850000Y-151250000D03*
X135530483Y-127469517D03*
X147750000Y-105000000D03*
X155250000Y-163500000D03*
X102850000Y-152250000D03*
X102850000Y-155000000D03*
X102850000Y-153750000D03*
X148000000Y-122000000D03*
X161353374Y-103861003D03*
X100250000Y-105500000D03*
X102540000Y-125500000D03*
X127500000Y-108250000D03*
X157750000Y-123500000D03*
X133000000Y-100250000D03*
X107750000Y-108250000D03*
X102540000Y-127000000D03*
X130750000Y-134250000D03*
X134000000Y-134750000D03*
X119250000Y-100750000D03*
X145000000Y-165000000D03*
X134950000Y-126220000D03*
X165000000Y-120500000D03*
X124750000Y-111000000D03*
X132250000Y-134500000D03*
X127500000Y-132500000D03*
X162250000Y-138000000D03*
X152000000Y-107000000D03*
X155000000Y-102500000D03*
X102540000Y-124156904D03*
X123500000Y-130250000D03*
X158000000Y-131750000D03*
X127000000Y-107500000D03*
X100600000Y-135500000D03*
X162930000Y-128750000D03*
X163000000Y-101500000D03*
X149361500Y-153611500D03*
X123000000Y-111000000D03*
X101980000Y-120749500D03*
X102540000Y-128500000D03*
D18*
X132950000Y-135920000D03*
X111400000Y-106890000D03*
X122740000Y-124640000D03*
X131060000Y-103250000D03*
X100720000Y-147810000D03*
X100750000Y-144850000D03*
X101444760Y-148415240D03*
X101530000Y-143460000D03*
X119990000Y-129920000D03*
X130200000Y-101780000D03*
X135600000Y-128640000D03*
X110510000Y-104520000D03*
X114660000Y-113280000D03*
X120470000Y-127480000D03*
X156770504Y-128239496D03*
X149350000Y-107250000D03*
X157136507Y-129000000D03*
X148560616Y-107328462D03*
X131793503Y-148614186D03*
X114740000Y-118270000D03*
X114063027Y-118078630D03*
X131090000Y-148614186D03*
X107791492Y-129569895D03*
X108131555Y-155636673D03*
X107300000Y-128220000D03*
X107728508Y-155060072D03*
X109219500Y-127890000D03*
X109390000Y-152800000D03*
X108310000Y-126573421D03*
X108840392Y-153298340D03*
X109470000Y-126690000D03*
X109712547Y-151965974D03*
X110308906Y-151592784D03*
X109946311Y-126172271D03*
X111107893Y-150757893D03*
X111740000Y-125560000D03*
X111100000Y-150000000D03*
X111367429Y-124692571D03*
X101440000Y-124600000D03*
X102200000Y-150041000D03*
X100689937Y-124379937D03*
X98750000Y-148560000D03*
X130240000Y-115620000D03*
X141080000Y-139230000D03*
D21*
X160990000Y-163690000D02*
X157710000Y-160410000D01*
X149865815Y-160410000D02*
X136750000Y-147294185D01*
X136750000Y-147294185D02*
X136750000Y-124220000D01*
X157710000Y-160410000D02*
X149865815Y-160410000D01*
X136750000Y-124220000D02*
X134875000Y-122345000D01*
X160990000Y-164580000D02*
X160990000Y-163690000D01*
X147480000Y-124790000D02*
X147440000Y-124750000D01*
X147480000Y-153630000D02*
X147480000Y-124790000D01*
X138260000Y-121930000D02*
X141170000Y-121930000D01*
X145710000Y-155400000D02*
X147480000Y-153630000D01*
X131970000Y-115640000D02*
X138260000Y-121930000D01*
X144350000Y-109460000D02*
X144360000Y-109450000D01*
X144380000Y-109490000D02*
X144350000Y-109460000D01*
X140610000Y-124780000D02*
X144380000Y-121010000D01*
X144380000Y-121010000D02*
X144380000Y-109490000D01*
X144360000Y-109450000D02*
X144360000Y-101040000D01*
X144360000Y-101040000D02*
X144910000Y-100490000D01*
X158000000Y-109600000D02*
X154420000Y-106020000D01*
X158000000Y-120290000D02*
X158000000Y-109600000D01*
X147850000Y-116730000D02*
X147930000Y-116810000D01*
X147850000Y-109600000D02*
X147850000Y-116730000D01*
X119386000Y-122061815D02*
X111400000Y-114075815D01*
X130330000Y-134990000D02*
X123560000Y-134990000D01*
X131260000Y-135920000D02*
X130330000Y-134990000D01*
X111400000Y-114075815D02*
X111400000Y-106890000D01*
X132950000Y-135920000D02*
X131260000Y-135920000D01*
X119386000Y-130816000D02*
X119386000Y-122061815D01*
X123560000Y-134990000D02*
X119386000Y-130816000D01*
X131060000Y-110126396D02*
X123220000Y-117966396D01*
X123220000Y-124160000D02*
X122740000Y-124640000D01*
X123220000Y-117966396D02*
X123220000Y-124160000D01*
X131060000Y-103250000D02*
X131060000Y-110126396D01*
X100750000Y-144850000D02*
X100720000Y-144880000D01*
X100720000Y-144880000D02*
X100720000Y-147810000D01*
X101530000Y-143460000D02*
X101530000Y-148330000D01*
X101530000Y-148330000D02*
X101444760Y-148415240D01*
X121020000Y-129920000D02*
X119990000Y-129920000D01*
X130200000Y-101780000D02*
X130200000Y-110350000D01*
X130200000Y-110350000D02*
X122020000Y-118530000D01*
X122020000Y-118530000D02*
X122020000Y-128920000D01*
X122020000Y-128920000D02*
X121020000Y-129920000D01*
X110510000Y-100900000D02*
X110510000Y-104520000D01*
X128814185Y-99540000D02*
X111870000Y-99540000D01*
X135600000Y-128640000D02*
X129636000Y-122676000D01*
X129636000Y-113984000D02*
X131664000Y-111956000D01*
X129636000Y-122676000D02*
X129636000Y-113984000D01*
X131664000Y-102389815D02*
X128814185Y-99540000D01*
X111870000Y-99540000D02*
X110510000Y-100900000D01*
X131664000Y-111956000D02*
X131664000Y-102389815D01*
X120470000Y-119090000D02*
X114660000Y-113280000D01*
X120470000Y-127480000D02*
X120470000Y-119090000D01*
D22*
X149100000Y-120978263D02*
X149100000Y-107500000D01*
X156770504Y-128239496D02*
X156361233Y-128239496D01*
X156361233Y-128239496D02*
X149100000Y-120978263D01*
X149100000Y-107500000D02*
X149350000Y-107250000D01*
X155261254Y-127530698D02*
X155206749Y-127476192D01*
X156730557Y-129000000D02*
X156055278Y-128324721D01*
X157136507Y-129000000D02*
X156730557Y-129000000D01*
X155685521Y-128324720D02*
X155685520Y-128324720D01*
X148823394Y-121092837D02*
X148823394Y-107591240D01*
X155315764Y-128324721D02*
X155261255Y-128270212D01*
X155261255Y-127900456D02*
X155261254Y-127900454D01*
X148823394Y-107591240D02*
X148560616Y-107328462D01*
X155206749Y-127476192D02*
X148823394Y-121092837D01*
X155685520Y-128324720D02*
X155685520Y-128324721D01*
X155315764Y-128324721D02*
G75*
G03*
X155685520Y-128324721I184878J184881D01*
G01*
X155261230Y-127530722D02*
G75*
G02*
X155261254Y-127900454I-184830J-184878D01*
G01*
X155261221Y-127900422D02*
G75*
G03*
X155261255Y-128270212I184879J-184878D01*
G01*
X155685522Y-128324721D02*
G75*
G02*
X156055278Y-128324721I184878J-184879D01*
G01*
X114740000Y-118270000D02*
X114603013Y-118406987D01*
X130666606Y-147799612D02*
X130914677Y-148047683D01*
X114526558Y-118581109D02*
X114526558Y-131347254D01*
X130914677Y-148047683D02*
X131324654Y-148047683D01*
X114526558Y-131347254D02*
X130666606Y-147487302D01*
X131324654Y-148047683D02*
X131793503Y-148516532D01*
X131793503Y-148516532D02*
X131793503Y-148614186D01*
X114603013Y-118504654D02*
X114526558Y-118581109D01*
X130666606Y-147487302D02*
X130666606Y-147799612D01*
X114603013Y-118406987D02*
X114603013Y-118504654D01*
X128739797Y-146375937D02*
X128739796Y-146375937D01*
X130390000Y-147601876D02*
X129164062Y-146375938D01*
X130390000Y-147914186D02*
X130390000Y-147601876D01*
X114173497Y-118504654D02*
X114173497Y-118189100D01*
X128315532Y-145527408D02*
X128315533Y-145527409D01*
X114173497Y-118189100D02*
X114063027Y-118078630D01*
X128315533Y-145527409D02*
X114249952Y-131461828D01*
X114249952Y-118581109D02*
X114173497Y-118504654D01*
X128278191Y-145989012D02*
X128315532Y-145951672D01*
X128278191Y-145989013D02*
X128278191Y-145989012D01*
X128739796Y-146375937D02*
X128702456Y-146413278D01*
X114249952Y-131461828D02*
X114249952Y-118581109D01*
X131090000Y-148614186D02*
X130390000Y-147914186D01*
X128315572Y-145527368D02*
G75*
G02*
X128315532Y-145951672I-212172J-212132D01*
G01*
X128278146Y-145988968D02*
G75*
G03*
X128278192Y-146413278I212154J-212132D01*
G01*
X128739768Y-146375908D02*
G75*
G02*
X129164062Y-146375938I212132J-212192D01*
G01*
X128278193Y-146413277D02*
G75*
G03*
X128702455Y-146413277I212131J212131D01*
G01*
D23*
X107342416Y-135608624D02*
X107856208Y-135608624D01*
X107791492Y-129569895D02*
X107791492Y-129771492D01*
X108270000Y-155498228D02*
X108131555Y-155636673D01*
X107342416Y-136808624D02*
X107856208Y-136808624D01*
X107342416Y-138008624D02*
X107856208Y-138008624D01*
X107342416Y-134408624D02*
X107856208Y-134408624D01*
X107791492Y-129771492D02*
X108270000Y-130250000D01*
X108270000Y-130250000D02*
X108270000Y-133622416D01*
X107856208Y-134036208D02*
X107342416Y-134036208D01*
X107856208Y-135236208D02*
X107342416Y-135236208D01*
X108270000Y-138492998D02*
X108270000Y-155498228D01*
X107856208Y-136436208D02*
X107342416Y-136436208D01*
X108270000Y-138422416D02*
X108270000Y-138492998D01*
X107856208Y-137636208D02*
X107342416Y-137636208D01*
X107156208Y-137822416D02*
G75*
G02*
X107342416Y-137636208I186192J16D01*
G01*
X107156208Y-136622416D02*
G75*
G02*
X107342416Y-136436208I186192J16D01*
G01*
X108269976Y-138422416D02*
G75*
G03*
X107856208Y-138008624I-413776J16D01*
G01*
X107856208Y-137636200D02*
G75*
G03*
X108270000Y-137222416I-8J413800D01*
G01*
X107856208Y-134036200D02*
G75*
G03*
X108270000Y-133622416I-8J413800D01*
G01*
X108269976Y-137222416D02*
G75*
G03*
X107856208Y-136808624I-413776J16D01*
G01*
X107156208Y-134222416D02*
G75*
G02*
X107342416Y-134036208I186192J16D01*
G01*
X107342416Y-134408592D02*
G75*
G02*
X107156208Y-134222416I-16J186192D01*
G01*
X108269976Y-136022416D02*
G75*
G03*
X107856208Y-135608624I-413776J16D01*
G01*
X108269976Y-134822416D02*
G75*
G03*
X107856208Y-134408624I-413776J16D01*
G01*
X107342416Y-138008592D02*
G75*
G02*
X107156208Y-137822416I-16J186192D01*
G01*
X107342416Y-136808592D02*
G75*
G02*
X107156208Y-136622416I-16J186192D01*
G01*
X107856208Y-135236200D02*
G75*
G03*
X108270000Y-134822416I-8J413800D01*
G01*
X107342416Y-135608592D02*
G75*
G02*
X107156208Y-135422416I-16J186192D01*
G01*
X107856208Y-136436200D02*
G75*
G03*
X108270000Y-136022416I-8J413800D01*
G01*
X107156208Y-135422416D02*
G75*
G02*
X107342416Y-135236208I186192J16D01*
G01*
X107790961Y-130111887D02*
X107566991Y-130111887D01*
X107342416Y-135008624D02*
X107856208Y-135008624D01*
X107566991Y-130111887D02*
X107249500Y-129794396D01*
X107856208Y-134636208D02*
X107342416Y-134636208D01*
X108042416Y-154746164D02*
X108042416Y-138422416D01*
X107728508Y-155060072D02*
X108042416Y-154746164D01*
X107249500Y-129794396D02*
X107249500Y-128270500D01*
X107856208Y-137036208D02*
X107342416Y-137036208D01*
X107856208Y-135836208D02*
X107342416Y-135836208D01*
X107342416Y-136208624D02*
X107856208Y-136208624D01*
X107249500Y-128270500D02*
X107300000Y-128220000D01*
X108042416Y-130363342D02*
X107790961Y-130111887D01*
X107342416Y-133808624D02*
X107856208Y-133808624D01*
X107342416Y-137408624D02*
X107856208Y-137408624D01*
X107856208Y-138236208D02*
X107342416Y-138236208D01*
X108042416Y-133622416D02*
X108042416Y-130363342D01*
X107856208Y-134636184D02*
G75*
G02*
X108042416Y-134822416I-8J-186216D01*
G01*
X107342416Y-137408624D02*
G75*
G03*
X106928624Y-137822416I-16J-413776D01*
G01*
X106928592Y-137822416D02*
G75*
G03*
X107342416Y-138236208I413808J16D01*
G01*
X107342416Y-133808624D02*
G75*
G03*
X106928624Y-134222416I-16J-413776D01*
G01*
X107856208Y-138236184D02*
G75*
G02*
X108042416Y-138422416I-8J-186216D01*
G01*
X106928592Y-136622416D02*
G75*
G03*
X107342416Y-137036208I413808J16D01*
G01*
X108042424Y-134822416D02*
G75*
G02*
X107856208Y-135008624I-186224J16D01*
G01*
X108042424Y-133622416D02*
G75*
G02*
X107856208Y-133808624I-186224J16D01*
G01*
X107342416Y-135008624D02*
G75*
G03*
X106928624Y-135422416I-16J-413776D01*
G01*
X108042424Y-137222416D02*
G75*
G02*
X107856208Y-137408624I-186224J16D01*
G01*
X107856208Y-135836184D02*
G75*
G02*
X108042416Y-136022416I-8J-186216D01*
G01*
X107856208Y-137036184D02*
G75*
G02*
X108042416Y-137222416I-8J-186216D01*
G01*
X107342416Y-136208624D02*
G75*
G03*
X106928624Y-136622416I-16J-413776D01*
G01*
X108042424Y-136022416D02*
G75*
G02*
X107856208Y-136208624I-186224J16D01*
G01*
X106928592Y-135422416D02*
G75*
G03*
X107342416Y-135836208I413808J16D01*
G01*
X106928592Y-134222416D02*
G75*
G03*
X107342416Y-134636208I413808J16D01*
G01*
X108905592Y-128340000D02*
X109067476Y-128501884D01*
X109192476Y-139056268D02*
X109078684Y-139056268D01*
X109078684Y-146628684D02*
X109192476Y-146628684D01*
X109192476Y-145056268D02*
X109078684Y-145056268D01*
X109192476Y-143856268D02*
X109078684Y-143856268D01*
X108905592Y-128203908D02*
X108905592Y-128340000D01*
X109067476Y-152477476D02*
X109390000Y-152800000D01*
X109067476Y-128501884D02*
X109067476Y-138217476D01*
X109192476Y-147456268D02*
X109078684Y-147456268D01*
X109078684Y-140628684D02*
X109192476Y-140628684D01*
X109192476Y-146256268D02*
X109078684Y-146256268D01*
X109067476Y-145067476D02*
X109067476Y-145417476D01*
X109067476Y-142667476D02*
X109067476Y-143017476D01*
X109431268Y-144467476D02*
X109431268Y-144817476D01*
X109192476Y-140256268D02*
X109078684Y-140256268D01*
X109078684Y-138228684D02*
X109192476Y-138228684D01*
X109078684Y-145428684D02*
X109192476Y-145428684D01*
X109067476Y-147467476D02*
X109067476Y-152477476D01*
X109067476Y-139067476D02*
X109067476Y-139417476D01*
X109192476Y-142656268D02*
X109078684Y-142656268D01*
X109431268Y-140867476D02*
X109431268Y-141217476D01*
X109078684Y-143028684D02*
X109192476Y-143028684D01*
X109192476Y-141456268D02*
X109078684Y-141456268D01*
X109078684Y-139428684D02*
X109192476Y-139428684D01*
X109431268Y-145667476D02*
X109431268Y-146017476D01*
X109067476Y-146267476D02*
X109067476Y-146617476D01*
X109431268Y-143267476D02*
X109431268Y-143617476D01*
X109219500Y-127890000D02*
X108905592Y-128203908D01*
X109078684Y-144228684D02*
X109192476Y-144228684D01*
X109431268Y-138467476D02*
X109431268Y-138817476D01*
X109067476Y-143867476D02*
X109067476Y-144217476D01*
X109431268Y-139667476D02*
X109431268Y-140017476D01*
X109078684Y-141828684D02*
X109192476Y-141828684D01*
X109431268Y-142067476D02*
X109431268Y-142417476D01*
X109067476Y-141467476D02*
X109067476Y-141817476D01*
X109067476Y-140267476D02*
X109067476Y-140617476D01*
X109431268Y-146867476D02*
X109431268Y-147217476D01*
X109431316Y-138467476D02*
G75*
G03*
X109192476Y-138228684I-238816J-24D01*
G01*
X109078684Y-139428724D02*
G75*
G02*
X109067476Y-139417476I16J11224D01*
G01*
X109078684Y-140628724D02*
G75*
G02*
X109067476Y-140617476I16J11224D01*
G01*
X109431316Y-146867476D02*
G75*
G03*
X109192476Y-146628684I-238816J-24D01*
G01*
X109192476Y-145056268D02*
G75*
G03*
X109431268Y-144817476I24J238768D01*
G01*
X109078684Y-146628724D02*
G75*
G02*
X109067476Y-146617476I16J11224D01*
G01*
X109192476Y-141456268D02*
G75*
G03*
X109431268Y-141217476I24J238768D01*
G01*
X109192476Y-147456268D02*
G75*
G03*
X109431268Y-147217476I24J238768D01*
G01*
X109431316Y-142067476D02*
G75*
G03*
X109192476Y-141828684I-238816J-24D01*
G01*
X109431316Y-144467476D02*
G75*
G03*
X109192476Y-144228684I-238816J-24D01*
G01*
X109078684Y-143028724D02*
G75*
G02*
X109067476Y-143017476I16J11224D01*
G01*
X109431316Y-140867476D02*
G75*
G03*
X109192476Y-140628684I-238816J-24D01*
G01*
X109192476Y-142656268D02*
G75*
G03*
X109431268Y-142417476I24J238768D01*
G01*
X109067468Y-142667476D02*
G75*
G02*
X109078684Y-142656268I11232J-24D01*
G01*
X109067468Y-139067476D02*
G75*
G02*
X109078684Y-139056268I11232J-24D01*
G01*
X109067468Y-146267476D02*
G75*
G02*
X109078684Y-146256268I11232J-24D01*
G01*
X109192476Y-143856268D02*
G75*
G03*
X109431268Y-143617476I24J238768D01*
G01*
X109078684Y-141828724D02*
G75*
G02*
X109067476Y-141817476I16J11224D01*
G01*
X109078684Y-145428724D02*
G75*
G02*
X109067476Y-145417476I16J11224D01*
G01*
X109431316Y-143267476D02*
G75*
G03*
X109192476Y-143028684I-238816J-24D01*
G01*
X109431316Y-139667476D02*
G75*
G03*
X109192476Y-139428684I-238816J-24D01*
G01*
X109067468Y-143867476D02*
G75*
G02*
X109078684Y-143856268I11232J-24D01*
G01*
X109192476Y-140256268D02*
G75*
G03*
X109431268Y-140017476I24J238768D01*
G01*
X109067468Y-145067476D02*
G75*
G02*
X109078684Y-145056268I11232J-24D01*
G01*
X109078684Y-138228724D02*
G75*
G02*
X109067476Y-138217476I16J11224D01*
G01*
X109067468Y-141467476D02*
G75*
G02*
X109078684Y-141456268I11232J-24D01*
G01*
X109067468Y-147467476D02*
G75*
G02*
X109078684Y-147456268I11232J-24D01*
G01*
X109431316Y-145667476D02*
G75*
G03*
X109192476Y-145428684I-238816J-24D01*
G01*
X109192476Y-139056268D02*
G75*
G03*
X109431268Y-138817476I24J238768D01*
G01*
X109067468Y-140267476D02*
G75*
G02*
X109078684Y-140256268I11232J-24D01*
G01*
X109192476Y-146256268D02*
G75*
G03*
X109431268Y-146017476I24J238768D01*
G01*
X109078684Y-144228724D02*
G75*
G02*
X109067476Y-144217476I16J11224D01*
G01*
X108839892Y-141467476D02*
X108839892Y-141817476D01*
X108839892Y-140267476D02*
X108839892Y-140617476D01*
X109203684Y-146867476D02*
X109203684Y-147217476D01*
X109192476Y-142428684D02*
X109078684Y-142428684D01*
X109078684Y-145656268D02*
X109192476Y-145656268D01*
X109192476Y-140028684D02*
X109078684Y-140028684D01*
X109192476Y-146028684D02*
X109078684Y-146028684D01*
X108839892Y-128959892D02*
X108839892Y-130110108D01*
X108839892Y-130886254D02*
X108839892Y-131310108D01*
X109203684Y-138467476D02*
X109203684Y-138817476D01*
X109078684Y-140856268D02*
X109192476Y-140856268D01*
X108839892Y-142667476D02*
X108839892Y-143017476D01*
X109192476Y-141228684D02*
X109078684Y-141228684D01*
X109192476Y-144828684D02*
X109078684Y-144828684D01*
X108839892Y-139067476D02*
X108839892Y-139417476D01*
X109203684Y-140867476D02*
X109203684Y-141217476D01*
X108663746Y-130286254D02*
X108663746Y-130710108D01*
X109203684Y-139667476D02*
X109203684Y-140017476D01*
X109078684Y-144456268D02*
X109192476Y-144456268D01*
X108839892Y-147467476D02*
X108839892Y-153297840D01*
X108663746Y-132686254D02*
X108663746Y-133110108D01*
X109078684Y-146856268D02*
X109192476Y-146856268D01*
X108839892Y-143867476D02*
X108839892Y-144217476D01*
X109078684Y-142056268D02*
X109192476Y-142056268D01*
X108678008Y-128798008D02*
X108839892Y-128959892D01*
X108310000Y-126573421D02*
X108678008Y-126941429D01*
X108663746Y-131486254D02*
X108663746Y-131910108D01*
X108839892Y-145067476D02*
X108839892Y-145417476D01*
X108839892Y-132086254D02*
X108839892Y-132510108D01*
X109192476Y-147228684D02*
X109078684Y-147228684D01*
X109203684Y-145667476D02*
X109203684Y-146017476D01*
X108678008Y-126941429D02*
X108678008Y-128798008D01*
X108839892Y-153297840D02*
X108840392Y-153298340D01*
X109203684Y-142067476D02*
X109203684Y-142417476D01*
X108839892Y-133286254D02*
X108839892Y-138217476D01*
X109078684Y-138456268D02*
X109192476Y-138456268D01*
X109203684Y-143267476D02*
X109203684Y-143617476D01*
X109192476Y-138828684D02*
X109078684Y-138828684D01*
X109192476Y-143628684D02*
X109078684Y-143628684D01*
X108839892Y-146267476D02*
X108839892Y-146617476D01*
X109203684Y-144467476D02*
X109203684Y-144817476D01*
X109078684Y-139656268D02*
X109192476Y-139656268D01*
X109078684Y-143256268D02*
X109192476Y-143256268D01*
X109078684Y-146856308D02*
G75*
G02*
X108839892Y-146617476I16J238808D01*
G01*
X109192476Y-146028684D02*
G75*
G03*
X109203684Y-146017476I24J11184D01*
G01*
X109078684Y-138456308D02*
G75*
G02*
X108839892Y-138217476I16J238808D01*
G01*
X108663681Y-131486254D02*
G75*
G02*
X108751819Y-131398181I88119J-46D01*
G01*
X109192476Y-144828684D02*
G75*
G03*
X109203684Y-144817476I24J11184D01*
G01*
X109192476Y-147228684D02*
G75*
G03*
X109203684Y-147217476I24J11184D01*
G01*
X108839884Y-140267476D02*
G75*
G02*
X109078684Y-140028684I238816J-24D01*
G01*
X108751819Y-130198192D02*
G75*
G03*
X108839892Y-130110108I-19J88092D01*
G01*
X109203732Y-146867476D02*
G75*
G03*
X109192476Y-146856268I-11232J-24D01*
G01*
X108751819Y-131998154D02*
G75*
G02*
X108663746Y-131910108I-19J88054D01*
G01*
X108839884Y-145067476D02*
G75*
G02*
X109078684Y-144828684I238816J-24D01*
G01*
X108751819Y-130798154D02*
G75*
G02*
X108663746Y-130710108I-19J88054D01*
G01*
X108663681Y-130286254D02*
G75*
G02*
X108751819Y-130198181I88119J-46D01*
G01*
X109203732Y-138467476D02*
G75*
G03*
X109192476Y-138456268I-11232J-24D01*
G01*
X109203732Y-144467476D02*
G75*
G03*
X109192476Y-144456268I-11232J-24D01*
G01*
X108751819Y-131398192D02*
G75*
G03*
X108839892Y-131310108I-19J88092D01*
G01*
X109203732Y-145667476D02*
G75*
G03*
X109192476Y-145656268I-11232J-24D01*
G01*
X109078684Y-143256308D02*
G75*
G02*
X108839892Y-143017476I16J238808D01*
G01*
X108663681Y-132686254D02*
G75*
G02*
X108751819Y-132598181I88119J-46D01*
G01*
X109078684Y-145656308D02*
G75*
G02*
X108839892Y-145417476I16J238808D01*
G01*
X108751819Y-133198154D02*
G75*
G02*
X108663746Y-133110108I-19J88054D01*
G01*
X108839884Y-142667476D02*
G75*
G02*
X109078684Y-142428684I238816J-24D01*
G01*
X108839884Y-147467476D02*
G75*
G02*
X109078684Y-147228684I238816J-24D01*
G01*
X109192476Y-143628684D02*
G75*
G03*
X109203684Y-143617476I24J11184D01*
G01*
X108839884Y-139067476D02*
G75*
G02*
X109078684Y-138828684I238816J-24D01*
G01*
X109203732Y-143267476D02*
G75*
G03*
X109192476Y-143256268I-11232J-24D01*
G01*
X109078684Y-140856308D02*
G75*
G02*
X108839892Y-140617476I16J238808D01*
G01*
X108839884Y-141467476D02*
G75*
G02*
X109078684Y-141228684I238816J-24D01*
G01*
X109078684Y-142056308D02*
G75*
G02*
X108839892Y-141817476I16J238808D01*
G01*
X109192476Y-142428684D02*
G75*
G03*
X109203684Y-142417476I24J11184D01*
G01*
X108839919Y-133286254D02*
G75*
G03*
X108751819Y-133198181I-88119J-46D01*
G01*
X108839919Y-130886254D02*
G75*
G03*
X108751819Y-130798181I-88119J-46D01*
G01*
X109192476Y-138828684D02*
G75*
G03*
X109203684Y-138817476I24J11184D01*
G01*
X109192476Y-140028684D02*
G75*
G03*
X109203684Y-140017476I24J11184D01*
G01*
X109203732Y-140867476D02*
G75*
G03*
X109192476Y-140856268I-11232J-24D01*
G01*
X108839919Y-132086254D02*
G75*
G03*
X108751819Y-131998181I-88119J-46D01*
G01*
X108751819Y-132598192D02*
G75*
G03*
X108839892Y-132510108I-19J88092D01*
G01*
X109203732Y-139667476D02*
G75*
G03*
X109192476Y-139656268I-11232J-24D01*
G01*
X109078684Y-144456308D02*
G75*
G02*
X108839892Y-144217476I16J238808D01*
G01*
X109203732Y-142067476D02*
G75*
G03*
X109192476Y-142056268I-11232J-24D01*
G01*
X108839884Y-146267476D02*
G75*
G02*
X109078684Y-146028684I238816J-24D01*
G01*
X109192476Y-141228684D02*
G75*
G03*
X109203684Y-141217476I24J11184D01*
G01*
X108839884Y-143867476D02*
G75*
G02*
X109078684Y-143628684I238816J-24D01*
G01*
X109078684Y-139656308D02*
G75*
G02*
X108839892Y-139417476I16J238808D01*
G01*
X109712547Y-151422650D02*
X109712547Y-151965974D01*
X109787764Y-127007764D02*
X109787764Y-129452236D01*
X109470000Y-126690000D02*
X109787764Y-127007764D01*
X110265348Y-135608444D02*
X110151556Y-135608444D01*
X109437764Y-132202236D02*
X109437764Y-132452236D01*
X109787764Y-134772236D02*
X109787764Y-134872236D01*
X110401556Y-135372236D02*
X110401556Y-135472236D01*
X109787764Y-151347433D02*
X109712547Y-151422650D01*
X110401556Y-136572236D02*
X110401556Y-136672236D01*
X110265348Y-134408444D02*
X110151556Y-134408444D01*
X110151556Y-135236028D02*
X110265348Y-135236028D01*
X109787764Y-130402236D02*
X109787764Y-130652236D01*
X109787764Y-135972236D02*
X109787764Y-136072236D01*
X109787764Y-137172236D02*
X109787764Y-151347433D01*
X110265348Y-136808444D02*
X110151556Y-136808444D01*
X109787764Y-131602236D02*
X109787764Y-131852236D01*
X110151556Y-134036028D02*
X110265348Y-134036028D01*
X109437764Y-129802236D02*
X109437764Y-130052236D01*
X109787764Y-132802236D02*
X109787764Y-133672236D01*
X109437764Y-131002236D02*
X109437764Y-131252236D01*
X110151556Y-136436028D02*
X110265348Y-136436028D01*
X110401556Y-134172236D02*
X110401556Y-134272236D01*
X109612764Y-132627236D02*
G75*
G02*
X109437764Y-132452236I36J175036D01*
G01*
X109787844Y-134772236D02*
G75*
G02*
X110151556Y-134408444I363756J36D01*
G01*
X109787764Y-132802236D02*
G75*
G03*
X109612764Y-132627236I-174964J36D01*
G01*
X109787764Y-131602236D02*
G75*
G03*
X109612764Y-131427236I-174964J36D01*
G01*
X109787844Y-137172236D02*
G75*
G02*
X110151556Y-136808444I363756J36D01*
G01*
X109787764Y-130402236D02*
G75*
G03*
X109612764Y-130227236I-174964J36D01*
G01*
X109612764Y-129627164D02*
G75*
G03*
X109787764Y-129452236I36J174964D01*
G01*
X110401472Y-134172236D02*
G75*
G03*
X110265348Y-134036028I-136172J36D01*
G01*
X110401472Y-136572236D02*
G75*
G03*
X110265348Y-136436028I-136172J36D01*
G01*
X110265348Y-135608456D02*
G75*
G03*
X110401556Y-135472236I-48J136256D01*
G01*
X109612764Y-130827164D02*
G75*
G03*
X109787764Y-130652236I36J174964D01*
G01*
X109787844Y-135972236D02*
G75*
G02*
X110151556Y-135608444I363756J36D01*
G01*
X109612764Y-132027164D02*
G75*
G03*
X109787764Y-131852236I36J174964D01*
G01*
X109437836Y-132202236D02*
G75*
G02*
X109612764Y-132027236I174964J36D01*
G01*
X109612764Y-130227236D02*
G75*
G02*
X109437764Y-130052236I36J175036D01*
G01*
X109612764Y-131427236D02*
G75*
G02*
X109437764Y-131252236I36J175036D01*
G01*
X110265348Y-134408456D02*
G75*
G03*
X110401556Y-134272236I-48J136256D01*
G01*
X110151556Y-135236036D02*
G75*
G02*
X109787764Y-134872236I44J363836D01*
G01*
X110401472Y-135372236D02*
G75*
G03*
X110265348Y-135236028I-136172J36D01*
G01*
X109437836Y-129802236D02*
G75*
G02*
X109612764Y-129627236I174964J36D01*
G01*
X110151556Y-136436036D02*
G75*
G02*
X109787764Y-136072236I44J363836D01*
G01*
X110151556Y-134036036D02*
G75*
G02*
X109787764Y-133672236I44J363836D01*
G01*
X110265348Y-136808456D02*
G75*
G03*
X110401556Y-136672236I-48J136256D01*
G01*
X109437836Y-131002236D02*
G75*
G02*
X109612764Y-130827236I174964J36D01*
G01*
X110151556Y-134636028D02*
X110265348Y-134636028D01*
X110151556Y-137036028D02*
X110265348Y-137036028D01*
X110629140Y-134272236D02*
X110629140Y-134172236D01*
X110629140Y-135472236D02*
X110629140Y-135372236D01*
X110151556Y-135836028D02*
X110265348Y-135836028D01*
X110015348Y-133672236D02*
X110015348Y-126241308D01*
X110015348Y-126241308D02*
X109946311Y-126172271D01*
X110265348Y-133808444D02*
X110151556Y-133808444D01*
X110265348Y-136208444D02*
X110151556Y-136208444D01*
X110015348Y-136072236D02*
X110015348Y-135972236D01*
X110265348Y-135008444D02*
X110151556Y-135008444D01*
X110015348Y-151299226D02*
X110015348Y-137172236D01*
X110015348Y-134872236D02*
X110015348Y-134772236D01*
X110308906Y-151592784D02*
X110015348Y-151299226D01*
X110629140Y-136672236D02*
X110629140Y-136572236D01*
X110151556Y-137035948D02*
G75*
G03*
X110015348Y-137172236I44J-136252D01*
G01*
X110015356Y-134872236D02*
G75*
G03*
X110151556Y-135008444I136244J36D01*
G01*
X110265348Y-135008360D02*
G75*
G02*
X110629140Y-135372236I-48J-363840D01*
G01*
X110015356Y-133672236D02*
G75*
G03*
X110151556Y-133808444I136244J36D01*
G01*
X110265348Y-133808360D02*
G75*
G02*
X110629140Y-134172236I-48J-363840D01*
G01*
X110015356Y-136072236D02*
G75*
G03*
X110151556Y-136208444I136244J36D01*
G01*
X110629128Y-136672236D02*
G75*
G02*
X110265348Y-137036028I-363828J36D01*
G01*
X110629128Y-135472236D02*
G75*
G02*
X110265348Y-135836028I-363828J36D01*
G01*
X110629128Y-134272236D02*
G75*
G02*
X110265348Y-134636028I-363828J36D01*
G01*
X110151556Y-134635948D02*
G75*
G03*
X110015348Y-134772236I44J-136252D01*
G01*
X110265348Y-136208360D02*
G75*
G02*
X110629140Y-136572236I-48J-363840D01*
G01*
X110151556Y-135835948D02*
G75*
G03*
X110015348Y-135972236I44J-136252D01*
G01*
X111595013Y-125704987D02*
X111740000Y-125560000D01*
X111107893Y-150757893D02*
X111323794Y-150541992D01*
X111641992Y-150224501D02*
X111641992Y-149775499D01*
X111324501Y-150541992D02*
X111641992Y-150224501D01*
X111323794Y-150541992D02*
X111324501Y-150541992D01*
X111641992Y-149775499D02*
X111595013Y-149728520D01*
X111595013Y-149728520D02*
X111595013Y-125704987D01*
X110797342Y-146412485D02*
X110797342Y-146382571D01*
X111082386Y-146697528D02*
X111082385Y-146697528D01*
X111367429Y-149732571D02*
X111367429Y-146982571D01*
X111367429Y-125953922D02*
X111198008Y-125784501D01*
X111198008Y-125335499D02*
X111367429Y-125166078D01*
X111082385Y-146097528D02*
X111082386Y-146097528D01*
X111367429Y-145782571D02*
X111367429Y-125953922D01*
X111100000Y-150000000D02*
X111367429Y-149732571D01*
X111367429Y-125166078D02*
X111367429Y-124692571D01*
X111367429Y-145812485D02*
X111367429Y-145782571D01*
X111198008Y-125784501D02*
X111198008Y-125335499D01*
X110797372Y-146412485D02*
G75*
G03*
X111082385Y-146697528I285028J-15D01*
G01*
X111082386Y-146697571D02*
G75*
G02*
X111367429Y-146982571I14J-285029D01*
G01*
X111367428Y-145812485D02*
G75*
G02*
X111082386Y-146097528I-285028J-15D01*
G01*
X111082385Y-146097542D02*
G75*
G03*
X110797342Y-146382571I15J-285058D01*
G01*
D21*
X101370000Y-124670000D02*
X101370000Y-135168327D01*
X102134000Y-135932327D02*
X102134000Y-149975000D01*
X101440000Y-124600000D02*
X101370000Y-124670000D01*
X101370000Y-135168327D02*
X102134000Y-135932327D01*
X102134000Y-149975000D02*
X102200000Y-150041000D01*
X100689937Y-125779937D02*
X96090000Y-130379874D01*
X96090000Y-130379874D02*
X96090000Y-145850000D01*
X96090000Y-145850000D02*
X98750000Y-148510000D01*
X100689937Y-124379937D02*
X100689937Y-125779937D01*
X98750000Y-148510000D02*
X98750000Y-148560000D01*
X130240000Y-115620000D02*
X141080000Y-126460000D01*
X141080000Y-126460000D02*
X141080000Y-139230000D01*
M02*
